G04 GENERATED BY PULSONIX 7.0 GERBER.DLL 4573*
%INHILLSTAR_95X60_EL_V1_0*%
%LNGERBER_DOCUMENTATION*%
%FSLAX33Y33*%
%IPPOS*%
%LPD*%
%OFA0B0*%
%MOMM*%
%ADD15C,0.125*%
%ADD17C,0.200*%
%ADD281C,0.025*%
%ADD394C,0.001*%
X0Y0D02*
D02*
D15*
X64205Y127074D02*
X64352Y127074D01*
X64499Y127147*
X64573Y127294*
X64499Y127441*
X64352Y127515*
X64205*
X64058Y127441*
X63984Y127294*
X64058Y127147*
X64205Y127074*
X64058Y127000*
X63984Y126853*
X64058Y126706*
X64205Y126633*
X64352*
X64499Y126706*
X64573Y126853*
X64499Y127000*
X64352Y127074*
X64834Y126706D02*
X64981Y126633D01*
X65202*
X65349Y126706*
X65423Y126853*
Y126927*
X65349Y127074*
X65202Y127147*
X64834*
Y127515*
X65423*
X65758Y126633D02*
X65831Y126706D01*
X65758Y126780*
X65684Y126706*
X65758Y126633*
X66145Y126706D02*
X66292Y126633D01*
X66440*
X66587Y126706*
X66660Y126853*
Y127294*
X66587Y127441*
X66440Y127515*
X66292*
X66145Y127441*
X66072Y127294*
Y126853*
X66145Y126706*
X66587Y127441*
X66922Y126633D02*
X66922Y127221D01*
Y127147D02*
X66995Y127221D01*
X67142*
X67216Y127147*
Y126927*
Y127147D02*
X67290Y127221D01*
X67437*
X67510Y127147*
Y126633*
X67772D02*
X67772Y127221D01*
Y127147D02*
X67845Y127221D01*
X67992*
X68066Y127147*
Y126927*
Y127147D02*
X68140Y127221D01*
X68287*
X68360Y127147*
Y126633*
X127431Y80783D02*
X127726Y80783D01*
X127579D02*
X127579Y81665D01*
X127431Y81518*
X128723Y80783D02*
X128134Y80783D01*
X128649Y81297*
X128723Y81444*
X128649Y81591*
X128502Y81665*
X128281*
X128134Y81591*
X129058Y80856D02*
X129205Y80783D01*
X129352*
X129499Y80856*
X129573Y81003*
Y81444*
X129499Y81591*
X129352Y81665*
X129205*
X129058Y81591*
X128984Y81444*
Y81003*
X129058Y80856*
X129499Y81591*
X129908Y80783D02*
X129981Y80856D01*
X129908Y80930*
X129834Y80856*
X129908Y80783*
X130295Y80856D02*
X130442Y80783D01*
X130590*
X130737Y80856*
X130810Y81003*
Y81444*
X130737Y81591*
X130590Y81665*
X130442*
X130295Y81591*
X130222Y81444*
Y81003*
X130295Y80856*
X130737Y81591*
X131072Y80783D02*
X131072Y81371D01*
Y81297D02*
X131145Y81371D01*
X131292*
X131366Y81297*
Y81077*
Y81297D02*
X131440Y81371D01*
X131587*
X131660Y81297*
Y80783*
X131922D02*
X131922Y81371D01*
Y81297D02*
X131995Y81371D01*
X132142*
X132216Y81297*
Y81077*
Y81297D02*
X132290Y81371D01*
X132437*
X132510Y81297*
Y80783*
D02*
D17*
X66303Y85337D02*
Y125850D01*
Y128225D02*
Y168737D01*
X70828Y81187D02*
X126722D01*
X133334D02*
X189228D01*
D02*
D281*
X70028Y88055D02*
Y80687D01*
X72597Y84537D02*
X65803D01*
X74350Y169537D02*
X65803D01*
X190028Y90874D02*
Y80687D01*
D02*
D394*
X66303Y84537D02*
G36*
X65903Y86137D01*
X66703*
X66303Y84537*
G37*
Y169537D02*
G36*
X66703Y167937D01*
X65903*
X66303Y169537*
G37*
X70028Y81187D02*
G36*
X71628Y81587D01*
Y80787*
X70028Y81187*
G37*
X190028D02*
G36*
X188428Y80787D01*
Y81587*
X190028Y81187*
G37*
X0Y0D02*
M02*
