M48
INCH
T01C00.010
T02C00.126
%
M70
T01
X03218Y05805
X04883Y06454
X04883Y06509
X04962Y06454
X04962Y06509
X04985Y05994
X05040Y06375
X05040Y06454
X05040Y06509
X05119Y06454
X05119Y06509
X05159Y03797
X05198Y06454
X05198Y06509
X05277Y06454
X05277Y06509
X05355Y06454
X05355Y06509
X07021Y05805
T02
X02875Y03446
X02875Y06557
X07363Y03446
X07363Y06557
M30
