G04 GENERATED BY PULSONIX 7.0 GERBER.DLL 4573*
%INHILLSTAR_95X60_EL_V1_0*%
%LNGERBER_BOTTOM*%
%FSLAX33Y33*%
%IPPOS*%
%LPD*%
%OFA0B0*%
%MOMM*%
%ADD15C,0.125*%
%ADD145C,0.400*%
%ADD146C,0.250*%
%ADD180C,0.600*%
%ADD345C,0.150*%
%ADD403R,0.600X1.900*%
%ADD410R,2.700X3.600*%
%ADD5672R,0.900X2.500*%
X0Y0D02*
D02*
D15*
X182151Y85574D02*
X182004Y85500D01*
X181930Y85353*
X182004Y85206*
X182151Y85133*
X182666*
Y86015*
X182151*
X182004Y85941*
X181930Y85794*
X182004Y85647*
X182151Y85574*
X182666*
X181653Y85427D02*
X181653Y85721D01*
X181580Y85868*
X181506Y85941*
X181359Y86015*
X181212*
X181065Y85941*
X180991Y85868*
X180918Y85721*
Y85427*
X180991Y85280*
X181065Y85206*
X181212Y85133*
X181359*
X181506Y85206*
X181580Y85280*
X181653Y85427*
X180273Y85133D02*
X180273Y86015D01*
X180641D02*
X179905Y86015D01*
D02*
D145*
X130028Y154087D02*
Y153487D01*
Y155587D02*
Y156187D01*
Y163587D02*
Y162987D01*
Y165687D02*
Y166287D01*
D02*
D146*
X70728Y162437D02*
Y91537D01*
X73028*
G75*
G02X77028Y87537J-4000*
G01*
Y85237*
X179228*
Y86437*
G75*
G02X179428Y86637I200*
G01*
X183028*
Y87537*
G75*
G02X187028Y91537I4000*
G01*
X189328*
Y162537*
X187028*
G75*
G02X183028Y166537J4000*
G01*
Y168837*
X77028*
Y166537*
G75*
G02X73028Y162537I-4000*
G01*
X70828*
G75*
G03X70728Y162437J-100*
G01*
X82231Y146987D02*
G75*
G02X81053Y147437I-503J450D01*
G01*
G75*
G02X82231Y147887I675*
G01*
X87178*
Y150272*
G75*
G02X89178Y152272I2000*
G01*
X125954*
G75*
G02X126178Y152740I674J-35*
G01*
Y154437*
G75*
G02X126310Y154755I450*
G01*
X126353Y154798*
Y155787*
G75*
G02X126578Y156131I375*
G01*
Y158851*
X126003Y159426*
Y155837*
G75*
G02X125378Y155212I-625*
G01*
X122678*
G75*
G02X122053Y155837J625*
G01*
Y159437*
G75*
G02X122678Y160062I625*
G01*
X125367*
X123682Y161747*
G75*
G02X123550Y162065I318J318*
G01*
Y163013*
G75*
G02X123203Y163387I28J374*
G01*
Y165887*
G75*
G02X123578Y166262I375*
G01*
X124478*
G75*
G02X124853Y165887J-375*
G01*
Y163387*
G75*
G02X124478Y163012I-375*
G01*
X124450*
Y162251*
X127346Y159355*
G75*
G02X127478Y159037I-318J-318*
G01*
Y156131*
G75*
G02X127528Y156104I-153J-344*
G01*
G75*
G02X127578Y156131I203J-317*
G01*
Y159851*
X125710Y161719*
G75*
G02X125578Y162037I318J318*
G01*
Y163012*
G75*
G02X125203Y163387J375*
G01*
Y165887*
G75*
G02X125578Y166262I375*
G01*
X126478*
G75*
G02X126853Y165887J-375*
G01*
Y163387*
G75*
G02X126478Y163012I-375*
G01*
Y162223*
X128346Y160355*
G75*
G02X128478Y160037I-318J-318*
G01*
Y156131*
G75*
G02X128528Y156104I-153J-344*
G01*
G75*
G02X128578Y156131I203J-317*
G01*
Y160751*
X128066Y161263*
G75*
G02X127578Y162440I-38J674*
G01*
Y163012*
G75*
G02X127203Y163387J375*
G01*
Y165887*
G75*
G02X127578Y166262I375*
G01*
X128478*
G75*
G02X128853Y165887J-375*
G01*
Y163387*
G75*
G02X128478Y163012I-375*
G01*
Y162440*
G75*
G02X128702Y161899I-450J-503*
G01*
X129346Y161255*
G75*
G02X129478Y160937I-318J-318*
G01*
Y156131*
G75*
G02X129572Y156072I-151J-345*
G01*
G75*
G02X129728Y156112I156J-285*
G01*
X130328*
G75*
G02X130484Y156072J-325*
G01*
G75*
G02X130570Y156127I243J-286*
G01*
Y161037*
G75*
G02X130704Y161361I458*
G01*
X131570Y162227*
Y163012*
G75*
G02X131203Y163387I8J375*
G01*
Y165887*
G75*
G02X131578Y166262I375*
G01*
X132478*
G75*
G02X132853Y165887J-375*
G01*
Y163387*
G75*
G02X132486Y163012I-375*
G01*
Y162037*
G75*
G02X132352Y161713I-458*
G01*
X131486Y160847*
Y156127*
G75*
G02X131528Y156104I-159J-340*
G01*
G75*
G02X131570Y156127I201J-317*
G01*
Y160037*
G75*
G02X131704Y160361I458*
G01*
X133570Y162227*
Y163012*
G75*
G02X133203Y163387I8J375*
G01*
Y165887*
G75*
G02X133578Y166262I375*
G01*
X134478*
G75*
G02X134853Y165887J-375*
G01*
Y163387*
G75*
G02X134486Y163012I-375*
G01*
Y162037*
G75*
G02X134352Y161713I-458*
G01*
X132486Y159847*
Y156127*
G75*
G02X132572Y156072I-157J-341*
G01*
G75*
G02X132728Y156112I156J-285*
G01*
X133328*
G75*
G02X133653Y155787J-325*
G01*
Y153887*
G75*
G02X133328Y153562I-325*
G01*
X132728*
G75*
G02X132572Y153602J325*
G01*
G75*
G02X132486Y153547I-243J286*
G01*
Y152272*
X170878*
G75*
G02X172878Y150272J-2000*
G01*
Y147895*
X177832*
G75*
G02X179003Y147437I496J-458*
G01*
G75*
G02X177832Y146979I-675*
G01*
X172878*
Y103802*
G75*
G02X170878Y101802I-2000*
G01*
X131486*
Y96933*
G75*
G02X131703Y96437I-458J-496*
G01*
G75*
G02X130353I-675*
G01*
G75*
G02X130570Y96933I675*
G01*
Y101802*
X89178*
G75*
G02X87178Y103802J2000*
G01*
Y146987*
X82231*
X129253Y163387D02*
Y165887D01*
G75*
G02X129578Y166212I325*
G01*
X130478*
G75*
G02X130803Y165887J-325*
G01*
Y163387*
G75*
G02X130478Y163062I-325*
G01*
X129578*
G75*
G02X129253Y163387J325*
G01*
X134053Y155837D02*
Y159437D01*
G75*
G02X134678Y160062I625*
G01*
X137378*
G75*
G02X138003Y159437J-625*
G01*
Y155837*
G75*
G02X137378Y155212I-625*
G01*
X134678*
G75*
G02X134053Y155837J625*
G01*
X135253Y163387D02*
Y165887D01*
G75*
G02X135578Y166212I325*
G01*
X136478*
G75*
G02X136803Y165887J-325*
G01*
Y163387*
G75*
G02X136478Y163062I-325*
G01*
X135578*
G75*
G02X135253Y163387J325*
G01*
X77028Y86780D02*
X183028D01*
X76689Y89149D02*
X183367D01*
X73432Y91517D02*
X186624D01*
X70728Y93885D02*
X189328D01*
X70728Y96253D02*
X130379D01*
X131677D02*
X189328D01*
X70728Y98621D02*
X130570D01*
X131486D02*
X189328D01*
X70728Y100989D02*
X130570D01*
X131486D02*
X189328D01*
X70728Y103357D02*
X87228D01*
X172828D02*
X189328D01*
X70728Y105725D02*
X87178D01*
X172878D02*
X189328D01*
X70728Y108093D02*
X87178D01*
X172878D02*
X189328D01*
X70728Y110461D02*
X87178D01*
X172878D02*
X189328D01*
X70728Y112829D02*
X87178D01*
X172878D02*
X189328D01*
X70728Y115197D02*
X87178D01*
X172878D02*
X189328D01*
X70728Y117565D02*
X87178D01*
X172878D02*
X189328D01*
X70728Y119933D02*
X87178D01*
X172878D02*
X189328D01*
X70728Y122301D02*
X87178D01*
X172878D02*
X189328D01*
X70728Y124669D02*
X87178D01*
X172878D02*
X189328D01*
X70728Y127037D02*
X87178D01*
X172878D02*
X189328D01*
X70728Y129405D02*
X87178D01*
X172878D02*
X189328D01*
X70728Y131773D02*
X87178D01*
X172878D02*
X189328D01*
X70728Y134141D02*
X87178D01*
X172878D02*
X189328D01*
X70728Y136509D02*
X87178D01*
X172878D02*
X189328D01*
X70728Y138877D02*
X87178D01*
X172878D02*
X189328D01*
X70728Y141245D02*
X87178D01*
X172878D02*
X189328D01*
X70728Y143613D02*
X87178D01*
X172878D02*
X189328D01*
X70728Y145981D02*
X87178D01*
X172878D02*
X189328D01*
X70728Y148349D02*
X87178D01*
X172878D02*
X189328D01*
X70728Y150717D02*
X87228D01*
X172828D02*
X189328D01*
X70728Y153085D02*
X126178D01*
X132486D02*
X189328D01*
X70728Y155453D02*
X122185D01*
X125872D02*
X126353D01*
X133653D02*
X134185D01*
X137872D02*
X189328D01*
X70728Y157821D02*
X122053D01*
X126003D02*
X126578D01*
X127478D02*
X127578D01*
X128478D02*
X128578D01*
X129478D02*
X130570D01*
X131486D02*
X131570D01*
X132486D02*
X134053D01*
X138003D02*
X189328D01*
X70728Y160189D02*
X125239D01*
X126512D02*
X127239D01*
X128452D02*
X128578D01*
X129478D02*
X130570D01*
X131486D02*
X131596D01*
X132828D02*
X189328D01*
X73432Y162557D02*
X123550D01*
X124450D02*
X125578D01*
X126478D02*
X127578D01*
X128478D02*
X131570D01*
X132486D02*
X133570D01*
X134486D02*
X186624D01*
X76689Y164925D02*
X123203D01*
X124853D02*
X125203D01*
X126853D02*
X127203D01*
X128853D02*
X129253D01*
X130803D02*
X131203D01*
X132853D02*
X133203D01*
X134853D02*
X135253D01*
X136803D02*
X183367D01*
X77028Y167294D02*
X183028D01*
X73195Y91534D02*
Y162541D01*
X75563Y90631D02*
Y163443D01*
X77931Y85237D02*
Y168837D01*
X80300Y85237D02*
Y168837D01*
X82668Y85237D02*
Y146987D01*
Y147887D02*
Y168837D01*
X85036Y85237D02*
Y146987D01*
Y147887D02*
Y168837D01*
X87404Y85237D02*
Y102880D01*
Y151195D02*
Y168837D01*
X89772Y85237D02*
Y101802D01*
Y152272D02*
Y168837D01*
X92140Y85237D02*
Y101802D01*
Y152272D02*
Y168837D01*
X94508Y85237D02*
Y101802D01*
Y152272D02*
Y168837D01*
X96876Y85237D02*
Y101802D01*
Y152272D02*
Y168837D01*
X99244Y85237D02*
Y101802D01*
Y152272D02*
Y168837D01*
X101612Y85237D02*
Y101802D01*
Y152272D02*
Y168837D01*
X103980Y85237D02*
Y101802D01*
Y152272D02*
Y168837D01*
X106348Y85237D02*
Y101802D01*
Y152272D02*
Y168837D01*
X108716Y85237D02*
Y101802D01*
Y152272D02*
Y168837D01*
X111084Y85237D02*
Y101802D01*
Y152272D02*
Y168837D01*
X113452Y85237D02*
Y101802D01*
Y152272D02*
Y168837D01*
X115820Y85237D02*
Y101802D01*
Y152272D02*
Y168837D01*
X118188Y85237D02*
Y101802D01*
Y152272D02*
Y168837D01*
X120556Y85237D02*
Y101802D01*
Y152272D02*
Y168837D01*
X122924Y85237D02*
Y101802D01*
Y152272D02*
Y155212D01*
Y160062D02*
Y168837D01*
X125292Y85237D02*
Y101802D01*
Y152272D02*
Y155212D01*
Y160062D02*
Y160137D01*
Y161409D02*
Y163145D01*
Y166129D02*
Y168837D01*
X127660Y85237D02*
Y101802D01*
Y161041D02*
Y161371D01*
Y166262D02*
Y168837D01*
X130028Y85237D02*
Y101802D01*
Y156112D02*
Y163062D01*
Y166212D02*
Y168837D01*
X132396Y85237D02*
Y101802D01*
Y161053D02*
Y161764D01*
Y166262D02*
Y168837D01*
X134764Y85237D02*
Y101802D01*
Y152272D02*
Y155212D01*
Y160062D02*
Y163145D01*
Y166129D02*
Y168837D01*
X137132Y85237D02*
Y101802D01*
Y152272D02*
Y155212D01*
Y160062D02*
Y168837D01*
X139500Y85237D02*
Y101802D01*
Y152272D02*
Y168837D01*
X141868Y85237D02*
Y101802D01*
Y152272D02*
Y168837D01*
X144236Y85237D02*
Y101802D01*
Y152272D02*
Y168837D01*
X146604Y85237D02*
Y101802D01*
Y152272D02*
Y168837D01*
X148972Y85237D02*
Y101802D01*
Y152272D02*
Y168837D01*
X151340Y85237D02*
Y101802D01*
Y152272D02*
Y168837D01*
X153708Y85237D02*
Y101802D01*
Y152272D02*
Y168837D01*
X156076Y85237D02*
Y101802D01*
Y152272D02*
Y168837D01*
X158444Y85237D02*
Y101802D01*
Y152272D02*
Y168837D01*
X160813Y85237D02*
Y101802D01*
Y152272D02*
Y168837D01*
X163181Y85237D02*
Y101802D01*
Y152272D02*
Y168837D01*
X165549Y85237D02*
Y101802D01*
Y152272D02*
Y168837D01*
X167917Y85237D02*
Y101802D01*
Y152272D02*
Y168837D01*
X170285Y85237D02*
Y101802D01*
Y152272D02*
Y168837D01*
X172653Y85237D02*
Y102880D01*
Y151195D02*
Y168837D01*
X175021Y85237D02*
Y146979D01*
Y147895D02*
Y168837D01*
X177389Y85237D02*
Y146979D01*
Y147895D02*
Y168837D01*
X179757Y86637D02*
Y168837D01*
X182125Y86637D02*
Y168837D01*
X184493Y90631D02*
Y163443D01*
X186861Y91534D02*
Y162541D01*
X189229Y91537D02*
Y162537D01*
X87178Y146987D02*
Y103802D01*
G75*
G03X89178Y101802I2000*
G01*
X130570*
Y153547*
G75*
G02X130484Y153602I157J341*
G01*
G75*
G02X130328Y153562I-156J285*
G01*
X129728*
G75*
G02X129572Y153602J325*
G01*
G75*
G02X129328Y153512I-244J285*
G01*
X128728*
G75*
G02X128528Y153570J375*
G01*
G75*
G02X128478Y153543I-203J317*
G01*
Y149037*
G75*
G02X128346Y148719I-450*
G01*
X126746Y147119*
G75*
G02X126428Y146987I-318J318*
G01*
X87178*
X87876Y102284D02*
X130570D01*
X87292Y103138D02*
X130570D01*
X87178Y103991D02*
X130570D01*
X87178Y104845D02*
X130570D01*
X87178Y105698D02*
X130570D01*
X87178Y106552D02*
X130570D01*
X87178Y107405D02*
X130570D01*
X87178Y108259D02*
X130570D01*
X87178Y109112D02*
X130570D01*
X87178Y109966D02*
X130570D01*
X87178Y110820D02*
X130570D01*
X87178Y111673D02*
X130570D01*
X87178Y112527D02*
X130570D01*
X87178Y113380D02*
X130570D01*
X87178Y114234D02*
X130570D01*
X87178Y115087D02*
X130570D01*
X87178Y115941D02*
X130570D01*
X87178Y116794D02*
X130570D01*
X87178Y117648D02*
X130570D01*
X87178Y118502D02*
X130570D01*
X87178Y119355D02*
X130570D01*
X87178Y120209D02*
X130570D01*
X87178Y121062D02*
X130570D01*
X87178Y121916D02*
X130570D01*
X87178Y122769D02*
X130570D01*
X87178Y123623D02*
X130570D01*
X87178Y124476D02*
X130570D01*
X87178Y125330D02*
X130570D01*
X87178Y126183D02*
X130570D01*
X87178Y127037D02*
X130570D01*
X87178Y127891D02*
X130570D01*
X87178Y128744D02*
X130570D01*
X87178Y129598D02*
X130570D01*
X87178Y130451D02*
X130570D01*
X87178Y131305D02*
X130570D01*
X87178Y132158D02*
X130570D01*
X87178Y133012D02*
X130570D01*
X87178Y133865D02*
X130570D01*
X87178Y134719D02*
X130570D01*
X87178Y135573D02*
X130570D01*
X87178Y136426D02*
X130570D01*
X87178Y137280D02*
X130570D01*
X87178Y138133D02*
X130570D01*
X87178Y138987D02*
X130570D01*
X87178Y139840D02*
X130570D01*
X87178Y140694D02*
X130570D01*
X87178Y141547D02*
X130570D01*
X87178Y142401D02*
X130570D01*
X87178Y143254D02*
X130570D01*
X87178Y144108D02*
X130570D01*
X87178Y144962D02*
X130570D01*
X87178Y145815D02*
X130570D01*
X87178Y146669D02*
X130570D01*
X127150Y147522D02*
X130570D01*
X128003Y148376D02*
X130570D01*
X128478Y149229D02*
X130570D01*
X128478Y150083D02*
X130570D01*
X128478Y150936D02*
X130570D01*
X128478Y151790D02*
X130570D01*
X128478Y152644D02*
X130570D01*
X128478Y153497D02*
X130570D01*
X88204Y102055D02*
Y146987D01*
X89058Y101806D02*
Y146987D01*
X89911Y101802D02*
Y146987D01*
X90765Y101802D02*
Y146987D01*
X91618Y101802D02*
Y146987D01*
X92472Y101802D02*
Y146987D01*
X93325Y101802D02*
Y146987D01*
X94179Y101802D02*
Y146987D01*
X95033Y101802D02*
Y146987D01*
X95886Y101802D02*
Y146987D01*
X96740Y101802D02*
Y146987D01*
X97593Y101802D02*
Y146987D01*
X98447Y101802D02*
Y146987D01*
X99300Y101802D02*
Y146987D01*
X100154Y101802D02*
Y146987D01*
X101007Y101802D02*
Y146987D01*
X101861Y101802D02*
Y146987D01*
X102715Y101802D02*
Y146987D01*
X103568Y101802D02*
Y146987D01*
X104422Y101802D02*
Y146987D01*
X105275Y101802D02*
Y146987D01*
X106129Y101802D02*
Y146987D01*
X106982Y101802D02*
Y146987D01*
X107836Y101802D02*
Y146987D01*
X108689Y101802D02*
Y146987D01*
X109543Y101802D02*
Y146987D01*
X110396Y101802D02*
Y146987D01*
X111250Y101802D02*
Y146987D01*
X112104Y101802D02*
Y146987D01*
X112957Y101802D02*
Y146987D01*
X113811Y101802D02*
Y146987D01*
X114664Y101802D02*
Y146987D01*
X115518Y101802D02*
Y146987D01*
X116371Y101802D02*
Y146987D01*
X117225Y101802D02*
Y146987D01*
X118078Y101802D02*
Y146987D01*
X118932Y101802D02*
Y146987D01*
X119786Y101802D02*
Y146987D01*
X120639Y101802D02*
Y146987D01*
X121493Y101802D02*
Y146987D01*
X122346Y101802D02*
Y146987D01*
X123200Y101802D02*
Y146987D01*
X124053Y101802D02*
Y146987D01*
X124907Y101802D02*
Y146987D01*
X125760Y101802D02*
Y146987D01*
X126614Y101802D02*
Y147027D01*
X127467Y101802D02*
Y147840D01*
X128321Y101802D02*
Y148694D01*
X129175Y101802D02*
Y153512D01*
X130028Y101802D02*
Y153562D01*
X87178Y147887D02*
X126242D01*
X127578Y149223*
Y153543*
G75*
G02X127528Y153570I153J344*
G01*
G75*
G02X127328Y153512I-200J317*
G01*
X127078*
Y152740*
G75*
G02X127303Y152237I-450J-503*
G01*
G75*
G02X125953I-675*
G01*
G75*
G02X125954Y152272I675J-2*
G01*
X89178*
G75*
G03X87178Y150272J-2000*
G01*
Y147887*
Y148376D02*
X126730D01*
X87178Y149229D02*
X127578D01*
X87178Y150083D02*
X127578D01*
X87292Y150936D02*
X127578D01*
X87876Y151790D02*
X126122D01*
X127134D02*
X127578D01*
X127167Y152644D02*
X127578D01*
X127078Y153497D02*
X127578D01*
X88204Y147887D02*
Y152019D01*
X89058Y147887D02*
Y152268D01*
X89911Y147887D02*
Y152272D01*
X90765Y147887D02*
Y152272D01*
X91618Y147887D02*
Y152272D01*
X92472Y147887D02*
Y152272D01*
X93325Y147887D02*
Y152272D01*
X94179Y147887D02*
Y152272D01*
X95033Y147887D02*
Y152272D01*
X95886Y147887D02*
Y152272D01*
X96740Y147887D02*
Y152272D01*
X97593Y147887D02*
Y152272D01*
X98447Y147887D02*
Y152272D01*
X99300Y147887D02*
Y152272D01*
X100154Y147887D02*
Y152272D01*
X101007Y147887D02*
Y152272D01*
X101861Y147887D02*
Y152272D01*
X102715Y147887D02*
Y152272D01*
X103568Y147887D02*
Y152272D01*
X104422Y147887D02*
Y152272D01*
X105275Y147887D02*
Y152272D01*
X106129Y147887D02*
Y152272D01*
X106982Y147887D02*
Y152272D01*
X107836Y147887D02*
Y152272D01*
X108689Y147887D02*
Y152272D01*
X109543Y147887D02*
Y152272D01*
X110396Y147887D02*
Y152272D01*
X111250Y147887D02*
Y152272D01*
X112104Y147887D02*
Y152272D01*
X112957Y147887D02*
Y152272D01*
X113811Y147887D02*
Y152272D01*
X114664Y147887D02*
Y152272D01*
X115518Y147887D02*
Y152272D01*
X116371Y147887D02*
Y152272D01*
X117225Y147887D02*
Y152272D01*
X118078Y147887D02*
Y152272D01*
X118932Y147887D02*
Y152272D01*
X119786Y147887D02*
Y152272D01*
X120639Y147887D02*
Y152272D01*
X121493Y147887D02*
Y152272D01*
X122346Y147887D02*
Y152272D01*
X123200Y147887D02*
Y152272D01*
X124053Y147887D02*
Y152272D01*
X124907Y147887D02*
Y152272D01*
X125760Y147887D02*
Y152272D01*
X126614Y148259D02*
Y151562D01*
X127467Y149113D02*
Y153539D01*
X131486Y101802D02*
X170878D01*
G75*
G03X172878Y103802J2000*
G01*
Y146979*
X133628*
G75*
G02X133304Y147113J458*
G01*
X131704Y148713*
G75*
G02X131570Y149037I324J324*
G01*
Y153547*
G75*
G02X131528Y153570I159J340*
G01*
G75*
G02X131486Y153547I-201J317*
G01*
Y101802*
Y102284D02*
X172180D01*
X131486Y103138D02*
X172765D01*
X131486Y103991D02*
X172878D01*
X131486Y104845D02*
X172878D01*
X131486Y105698D02*
X172878D01*
X131486Y106552D02*
X172878D01*
X131486Y107405D02*
X172878D01*
X131486Y108259D02*
X172878D01*
X131486Y109112D02*
X172878D01*
X131486Y109966D02*
X172878D01*
X131486Y110820D02*
X172878D01*
X131486Y111673D02*
X172878D01*
X131486Y112527D02*
X172878D01*
X131486Y113380D02*
X172878D01*
X131486Y114234D02*
X172878D01*
X131486Y115087D02*
X172878D01*
X131486Y115941D02*
X172878D01*
X131486Y116794D02*
X172878D01*
X131486Y117648D02*
X172878D01*
X131486Y118502D02*
X172878D01*
X131486Y119355D02*
X172878D01*
X131486Y120209D02*
X172878D01*
X131486Y121062D02*
X172878D01*
X131486Y121916D02*
X172878D01*
X131486Y122769D02*
X172878D01*
X131486Y123623D02*
X172878D01*
X131486Y124476D02*
X172878D01*
X131486Y125330D02*
X172878D01*
X131486Y126183D02*
X172878D01*
X131486Y127037D02*
X172878D01*
X131486Y127891D02*
X172878D01*
X131486Y128744D02*
X172878D01*
X131486Y129598D02*
X172878D01*
X131486Y130451D02*
X172878D01*
X131486Y131305D02*
X172878D01*
X131486Y132158D02*
X172878D01*
X131486Y133012D02*
X172878D01*
X131486Y133865D02*
X172878D01*
X131486Y134719D02*
X172878D01*
X131486Y135573D02*
X172878D01*
X131486Y136426D02*
X172878D01*
X131486Y137280D02*
X172878D01*
X131486Y138133D02*
X172878D01*
X131486Y138987D02*
X172878D01*
X131486Y139840D02*
X172878D01*
X131486Y140694D02*
X172878D01*
X131486Y141547D02*
X172878D01*
X131486Y142401D02*
X172878D01*
X131486Y143254D02*
X172878D01*
X131486Y144108D02*
X172878D01*
X131486Y144962D02*
X172878D01*
X131486Y145815D02*
X172878D01*
X131486Y146669D02*
X172878D01*
X131486Y147522D02*
X132895D01*
X131486Y148376D02*
X132042D01*
X131486Y149229D02*
X131570D01*
X131486Y150083D02*
X131570D01*
X131486Y150936D02*
X131570D01*
X131486Y151790D02*
X131570D01*
X131486Y152644D02*
X131570D01*
X131486Y153497D02*
X131570D01*
X131735Y101802D02*
Y148682D01*
X132589Y101802D02*
Y147829D01*
X133442Y101802D02*
Y147018D01*
X134296Y101802D02*
Y146979D01*
X135149Y101802D02*
Y146979D01*
X136003Y101802D02*
Y146979D01*
X136857Y101802D02*
Y146979D01*
X137710Y101802D02*
Y146979D01*
X138564Y101802D02*
Y146979D01*
X139417Y101802D02*
Y146979D01*
X140271Y101802D02*
Y146979D01*
X141124Y101802D02*
Y146979D01*
X141978Y101802D02*
Y146979D01*
X142831Y101802D02*
Y146979D01*
X143685Y101802D02*
Y146979D01*
X144538Y101802D02*
Y146979D01*
X145392Y101802D02*
Y146979D01*
X146246Y101802D02*
Y146979D01*
X147099Y101802D02*
Y146979D01*
X147953Y101802D02*
Y146979D01*
X148806Y101802D02*
Y146979D01*
X149660Y101802D02*
Y146979D01*
X150513Y101802D02*
Y146979D01*
X151367Y101802D02*
Y146979D01*
X152220Y101802D02*
Y146979D01*
X153074Y101802D02*
Y146979D01*
X153928Y101802D02*
Y146979D01*
X154781Y101802D02*
Y146979D01*
X155635Y101802D02*
Y146979D01*
X156488Y101802D02*
Y146979D01*
X157342Y101802D02*
Y146979D01*
X158195Y101802D02*
Y146979D01*
X159049Y101802D02*
Y146979D01*
X159902Y101802D02*
Y146979D01*
X160756Y101802D02*
Y146979D01*
X161609Y101802D02*
Y146979D01*
X162463Y101802D02*
Y146979D01*
X163317Y101802D02*
Y146979D01*
X164170Y101802D02*
Y146979D01*
X165024Y101802D02*
Y146979D01*
X165877Y101802D02*
Y146979D01*
X166731Y101802D02*
Y146979D01*
X167584Y101802D02*
Y146979D01*
X168438Y101802D02*
Y146979D01*
X169291Y101802D02*
Y146979D01*
X170145Y101802D02*
Y146979D01*
X170999Y101806D02*
Y146979D01*
X171852Y102055D02*
Y146979D01*
X172706Y102989D02*
Y146979D01*
X132486Y152272D02*
Y149227D01*
X133818Y147895*
X172878*
Y150272*
G75*
G03X170878Y152272I-2000*
G01*
X132486*
X133337Y148376D02*
X172878D01*
X132486Y149229D02*
X172878D01*
X132486Y150083D02*
X172878D01*
X132486Y150936D02*
X172765D01*
X132486Y151790D02*
X172180D01*
X132589Y149124D02*
Y152272D01*
X133442Y148271D02*
Y152272D01*
X134296Y147895D02*
Y152272D01*
X135149Y147895D02*
Y152272D01*
X136003Y147895D02*
Y152272D01*
X136857Y147895D02*
Y152272D01*
X137710Y147895D02*
Y152272D01*
X138564Y147895D02*
Y152272D01*
X139417Y147895D02*
Y152272D01*
X140271Y147895D02*
Y152272D01*
X141124Y147895D02*
Y152272D01*
X141978Y147895D02*
Y152272D01*
X142831Y147895D02*
Y152272D01*
X143685Y147895D02*
Y152272D01*
X144538Y147895D02*
Y152272D01*
X145392Y147895D02*
Y152272D01*
X146246Y147895D02*
Y152272D01*
X147099Y147895D02*
Y152272D01*
X147953Y147895D02*
Y152272D01*
X148806Y147895D02*
Y152272D01*
X149660Y147895D02*
Y152272D01*
X150513Y147895D02*
Y152272D01*
X151367Y147895D02*
Y152272D01*
X152220Y147895D02*
Y152272D01*
X153074Y147895D02*
Y152272D01*
X153928Y147895D02*
Y152272D01*
X154781Y147895D02*
Y152272D01*
X155635Y147895D02*
Y152272D01*
X156488Y147895D02*
Y152272D01*
X157342Y147895D02*
Y152272D01*
X158195Y147895D02*
Y152272D01*
X159049Y147895D02*
Y152272D01*
X159902Y147895D02*
Y152272D01*
X160756Y147895D02*
Y152272D01*
X161609Y147895D02*
Y152272D01*
X162463Y147895D02*
Y152272D01*
X163317Y147895D02*
Y152272D01*
X164170Y147895D02*
Y152272D01*
X165024Y147895D02*
Y152272D01*
X165877Y147895D02*
Y152272D01*
X166731Y147895D02*
Y152272D01*
X167584Y147895D02*
Y152272D01*
X168438Y147895D02*
Y152272D01*
X169291Y147895D02*
Y152272D01*
X170145Y147895D02*
Y152272D01*
X170999Y147895D02*
Y152268D01*
X171852Y147895D02*
Y152019D01*
X172706Y147895D02*
Y151085D01*
D02*
D180*
X81728Y147437D03*
X124028Y163937D03*
Y165337D03*
X126028Y163937D03*
Y165337D03*
X126628Y152237D03*
X128028Y161937D03*
Y163937D03*
Y165337D03*
X130028Y163937D03*
Y165337D03*
X131028Y96437D03*
X132028Y163937D03*
Y165337D03*
X134028Y163937D03*
Y165337D03*
X136028Y163937D03*
Y165337D03*
X178328Y147437D03*
D02*
D345*
X81728D02*
X126428D01*
X128028Y149037*
Y160037*
X126028Y162037*
Y163937*
X124028D02*
X124000D01*
Y162065*
X127028Y159037*
Y154837*
X126628Y154437*
Y152237*
X128028Y161937D02*
Y163937D01*
X129028Y154837D02*
Y160937D01*
X128028Y161937*
X131028Y154837D02*
Y96437D01*
Y154837D02*
Y161037D01*
X132028Y162037*
Y163937*
Y154837D02*
Y149037D01*
X133628Y147437*
X178328*
X132028Y154837D02*
Y160037D01*
X134028Y162037*
Y163937*
D02*
D403*
X127028Y154837D03*
X128028D03*
X129028D03*
X130028D03*
X131028D03*
X132028D03*
X133028D03*
D02*
D410*
X124028Y157637D03*
X136028D03*
D02*
D5672*
X124028Y164637D03*
X126028D03*
X128028D03*
X130028D03*
X132028D03*
X134028D03*
X136028D03*
X0Y0D02*
M02*
