G04 GENERATED BY PULSONIX 7.0 GERBER.DLL 4573*
%INHILLSTAR_95X60_EL_V1_0*%
%LNGERBER_SILKSCREEN_TOP*%
%FSLAX33Y33*%
%IPPOS*%
%LPD*%
%OFA0B0*%
%MOMM*%
%ADD15C,0.125*%
%ADD17C,0.200*%
%ADD1845C,0.010*%
X0Y0D02*
D02*
D15*
X159028Y167133D02*
X159028Y168015D01*
Y167574D02*
X159763Y167574D01*
Y167133D02*
X159763Y168015D01*
X160041Y167133D02*
X160041Y167721D01*
Y167941D02*
X160042Y167942D01*
X160652Y167133D02*
X160578Y167133D01*
Y168015*
X160964Y167133D02*
X160891Y167133D01*
Y168015*
X161203Y167206D02*
X161350Y167133D01*
X161644*
X161791Y167206*
Y167353*
X161644Y167427*
X161350*
X161203Y167500*
Y167647*
X161350Y167721*
X161644*
X161791Y167647*
X162053Y167721D02*
X162347Y167721D01*
X162200Y167868D02*
X162200Y167206D01*
X162274Y167133*
X162347*
X162421Y167206*
X162678Y167647D02*
X162825Y167721D01*
X163046*
X163193Y167647*
X163266Y167500*
Y167280*
X163193Y167206*
X163046Y167133*
X162899*
X162752Y167206*
X162678Y167280*
Y167353*
X162752Y167427*
X162899Y167500*
X163046*
X163193Y167427*
X163266Y167353*
Y167280D02*
X163266Y167133D01*
X163528D02*
X163528Y167721D01*
Y167500D02*
X163602Y167647D01*
X163749Y167721*
X163896*
X164043Y167647*
X164841Y167133D02*
X164841Y168015D01*
X165282*
X165429Y167941*
X165502Y167868*
X165576Y167721*
Y167427*
X165502Y167280*
X165429Y167206*
X165282Y167133*
X164841*
X166441Y167206D02*
X166368Y167133D01*
X166221*
X166074*
X165927Y167206*
X165853Y167353*
Y167574*
X165927Y167647*
X166074Y167721*
X166221*
X166368Y167647*
X166441Y167574*
Y167500*
X166368Y167427*
X166221Y167353*
X166074*
X165927Y167427*
X165853Y167500*
X166703Y167721D02*
X166997Y167133D01*
X167291Y167721*
X168141Y167206D02*
X168068Y167133D01*
X167921*
X167774*
X167627Y167206*
X167553Y167353*
Y167574*
X167627Y167647*
X167774Y167721*
X167921*
X168068Y167647*
X168141Y167574*
Y167500*
X168068Y167427*
X167921Y167353*
X167774*
X167627Y167427*
X167553Y167500*
X168477Y167133D02*
X168403Y167133D01*
Y168015*
X168716Y167353D02*
X168789Y167206D01*
X168936Y167133*
X169083*
X169230Y167206*
X169304Y167353*
Y167500*
X169230Y167647*
X169083Y167721*
X168936*
X168789Y167647*
X168716Y167500*
Y167353*
X169566Y167721D02*
X169566Y166912D01*
Y167353D02*
X169639Y167206D01*
X169786Y167133*
X169933*
X170080Y167206*
X170154Y167353*
Y167500*
X170080Y167647*
X169933Y167721*
X169786*
X169639Y167647*
X169566Y167500*
Y167353*
X170416Y167133D02*
X170416Y167721D01*
Y167647D02*
X170489Y167721D01*
X170636*
X170710Y167647*
Y167427*
Y167647D02*
X170783Y167721D01*
X170930*
X171004Y167647*
Y167133*
X171854Y167206D02*
X171780Y167133D01*
X171633*
X171486*
X171339Y167206*
X171266Y167353*
Y167574*
X171339Y167647*
X171486Y167721*
X171633*
X171780Y167647*
X171854Y167574*
Y167500*
X171780Y167427*
X171633Y167353*
X171486*
X171339Y167427*
X171266Y167500*
X172116Y167133D02*
X172116Y167721D01*
Y167500D02*
X172189Y167647D01*
X172336Y167721*
X172483*
X172630Y167647*
X172704Y167500*
Y167133*
X172966Y167721D02*
X173260Y167721D01*
X173113Y167868D02*
X173113Y167206D01*
X173186Y167133*
X173260*
X173333Y167206*
X174128Y167133D02*
X174128Y168015D01*
Y167574D02*
X174349Y167574D01*
X174863Y168015*
X174349Y167574D02*
X174863Y167133D01*
X175141D02*
X175141Y167721D01*
Y167941D02*
X175142Y167942D01*
X175678Y167721D02*
X175972Y167721D01*
X175825Y167868D02*
X175825Y167206D01*
X175899Y167133*
X175972*
X176046Y167206*
X159249Y165633D02*
X159396Y165706D01*
X159543Y165853*
X159616Y166074*
Y166294*
X159543Y166441*
X159396Y166515*
X159249*
X159102Y166441*
X159028Y166294*
X159102Y166147*
X159249Y166074*
X159396*
X159543Y166147*
X159616Y166294*
X159878Y165706D02*
X160025Y165633D01*
X160246*
X160393Y165706*
X160466Y165853*
Y165927*
X160393Y166074*
X160246Y166147*
X159878*
Y166515*
X160466*
X160728Y165633D02*
X161316Y166221D01*
Y165633D02*
X160728Y166221D01*
X161578Y165853D02*
X161652Y166000D01*
X161799Y166074*
X161946*
X162093Y166000*
X162166Y165853*
X162093Y165706*
X161946Y165633*
X161799*
X161652Y165706*
X161578Y165853*
Y166074*
X161652Y166294*
X161799Y166441*
X161946Y166515*
X162502Y165706D02*
X162649Y165633D01*
X162796*
X162943Y165706*
X163016Y165853*
Y166294*
X162943Y166441*
X162796Y166515*
X162649*
X162502Y166441*
X162428Y166294*
Y165853*
X162502Y165706*
X162943Y166441*
X163278Y165633D02*
X163278Y166221D01*
Y166147D02*
X163352Y166221D01*
X163499*
X163572Y166147*
Y165927*
Y166147D02*
X163646Y166221D01*
X163793*
X163866Y166147*
Y165633*
X164128D02*
X164128Y166221D01*
Y166147D02*
X164202Y166221D01*
X164349*
X164422Y166147*
Y165927*
Y166147D02*
X164496Y166221D01*
X164643*
X164716Y166147*
Y165633*
X165516D02*
X165516Y166515D01*
X166251*
X166104Y166074D02*
X165516Y166074D01*
Y165633D02*
X166251Y165633D01*
X166602D02*
X166528Y165633D01*
Y166515*
X167429Y165706D02*
X167355Y165633D01*
X167208*
X167061*
X166914Y165706*
X166841Y165853*
Y166074*
X166914Y166147*
X167061Y166221*
X167208*
X167355Y166147*
X167429Y166074*
Y166000*
X167355Y165927*
X167208Y165853*
X167061*
X166914Y165927*
X166841Y166000*
X168279Y166147D02*
X168132Y166221D01*
X167911*
X167764Y166147*
X167691Y166000*
Y165853*
X167764Y165706*
X167911Y165633*
X168132*
X168279Y165706*
X168541Y166221D02*
X168835Y166221D01*
X168688Y166368D02*
X168688Y165706D01*
X168761Y165633*
X168835*
X168908Y165706*
X169166Y165633D02*
X169166Y166221D01*
Y166000D02*
X169239Y166147D01*
X169386Y166221*
X169533*
X169680Y166147*
X169941Y165853D02*
X170014Y165706D01*
X170161Y165633*
X170308*
X170455Y165706*
X170529Y165853*
Y166000*
X170455Y166147*
X170308Y166221*
X170161*
X170014Y166147*
X169941Y166000*
Y165853*
X171379Y166000D02*
X171305Y166147D01*
X171158Y166221*
X171011*
X170864Y166147*
X170791Y166000*
Y165853*
X170864Y165706*
X171011Y165633*
X171158*
X171305Y165706*
X171379Y165853*
Y165633D02*
X171379Y166515D01*
X172229Y165706D02*
X172155Y165633D01*
X172008*
X171861*
X171714Y165706*
X171641Y165853*
Y166074*
X171714Y166147*
X171861Y166221*
X172008*
X172155Y166147*
X172229Y166074*
Y166000*
X172155Y165927*
X172008Y165853*
X171861*
X171714Y165927*
X171641Y166000*
X173028Y166515D02*
X173396Y165633D01*
X173763Y166515*
X174188Y165633D02*
X174482Y165633D01*
X174335D02*
X174335Y166515D01*
X174188Y166368*
X174964Y165633D02*
X175038Y165706D01*
X174964Y165780*
X174891Y165706*
X174964Y165633*
X175352Y165706D02*
X175499Y165633D01*
X175646*
X175793Y165706*
X175866Y165853*
Y166294*
X175793Y166441*
X175646Y166515*
X175499*
X175352Y166441*
X175278Y166294*
Y165853*
X175352Y165706*
X175793Y166441*
X159616Y164133D02*
X159028Y164133D01*
X159543Y164647*
X159616Y164794*
X159543Y164941*
X159396Y165015*
X159175*
X159028Y164941*
X160416Y165015D02*
X160416Y164133D01*
X161151*
X161428Y164647D02*
X161575Y164721D01*
X161796*
X161943Y164647*
X162016Y164500*
Y164280*
X161943Y164206*
X161796Y164133*
X161649*
X161502Y164206*
X161428Y164280*
Y164353*
X161502Y164427*
X161649Y164500*
X161796*
X161943Y164427*
X162016Y164353*
Y164280D02*
X162016Y164133D01*
X162278Y164721D02*
X162352Y164427D01*
X162499Y164280*
X162646*
X162793Y164427*
X162866Y164721*
X162793Y164427D02*
X162719Y164133D01*
X162646Y163986*
X162499Y163912*
X162352Y163986*
X163716Y164206D02*
X163643Y164133D01*
X163496*
X163349*
X163202Y164206*
X163128Y164353*
Y164574*
X163202Y164647*
X163349Y164721*
X163496*
X163643Y164647*
X163716Y164574*
Y164500*
X163643Y164427*
X163496Y164353*
X163349*
X163202Y164427*
X163128Y164500*
X163978Y164133D02*
X163978Y164721D01*
Y164500D02*
X164052Y164647D01*
X164199Y164721*
X164346*
X164493Y164647*
X165291Y164133D02*
X166026Y165015D01*
X166988Y164133D02*
X167282Y164133D01*
X167135D02*
X167135Y165015D01*
X166988Y164868*
X167764Y164133D02*
X167838Y164206D01*
X167764Y164280*
X167691Y164206*
X167764Y164133*
X168152Y164206D02*
X168299Y164133D01*
X168446*
X168593Y164206*
X168666Y164353*
Y164794*
X168593Y164941*
X168446Y165015*
X168299*
X168152Y164941*
X168078Y164794*
Y164353*
X168152Y164206*
X168593Y164941*
X168928Y164133D02*
X168928Y164721D01*
Y164647D02*
X169002Y164721D01*
X169149*
X169222Y164647*
Y164427*
Y164647D02*
X169296Y164721D01*
X169443*
X169516Y164647*
Y164133*
X169778D02*
X169778Y164721D01*
Y164647D02*
X169852Y164721D01*
X169999*
X170072Y164647*
Y164427*
Y164647D02*
X170146Y164721D01*
X170293*
X170366Y164647*
Y164133*
X171166D02*
X171166Y165015D01*
X171680*
X171827Y164941*
X171901Y164794*
X171827Y164647*
X171680Y164574*
X171166*
X172913Y164280D02*
X172840Y164206D01*
X172693Y164133*
X172472*
X172325Y164206*
X172252Y164280*
X172178Y164427*
Y164721*
X172252Y164868*
X172325Y164941*
X172472Y165015*
X172693*
X172840Y164941*
X172913Y164868*
X173705Y164574D02*
X173852Y164500D01*
X173926Y164353*
X173852Y164206*
X173705Y164133*
X173191*
Y165015*
X173705*
X173852Y164941*
X173926Y164794*
X173852Y164647*
X173705Y164574*
X173191*
D02*
D17*
X71028Y127037D02*
X72028D01*
X74028D02*
X75028D01*
X77028D02*
X78028D01*
X80028D02*
X81028D01*
X83028D02*
X84028D01*
X86028D02*
X87028D01*
X89028D02*
X90028D01*
X92028D02*
X93028D01*
X95028D02*
X96028D01*
X98028D02*
X99028D01*
X101028D02*
X102028D01*
X104028D02*
X105028D01*
X107028D02*
X108028D01*
X110028D02*
X111028D01*
X113028D02*
X114028D01*
X116028D02*
X117028D01*
X119028D02*
X120028D01*
X122028D02*
X123028D01*
X125028D02*
X126028D01*
X128028D02*
X129028D01*
X131028D02*
X132028D01*
X134028D02*
X135028D01*
X137028D02*
X138028D01*
X140028D02*
X141028D01*
X143028D02*
X144028D01*
X146028D02*
X147028D01*
X149028D02*
X150028D01*
X152028D02*
X153028D01*
X155028D02*
X156028D01*
X158028D02*
X159028D01*
X161028D02*
X162028D01*
X164028D02*
X165028D01*
X167028D02*
X168028D01*
X170028D02*
X171028D01*
X173028D02*
X174028D01*
X176028D02*
X177028D01*
X179028D02*
X180028D01*
X182028D02*
X183028D01*
X185028D02*
X186028D01*
X188028D02*
X189028D01*
X75528Y96802D02*
X76528D01*
X78528D02*
X79528D01*
X81528D02*
X82528D01*
X84528D02*
X85528D01*
X87528D02*
X88528D01*
X90528D02*
X91528D01*
X93528D02*
X94528D01*
X96528D02*
X97528D01*
X99528D02*
X100528D01*
X102528D02*
X103528D01*
X105528D02*
X106528D01*
X108528D02*
X109528D01*
X111528D02*
X112528D01*
X114528D02*
X115528D01*
X117528D02*
X118528D01*
X120528D02*
X121528D01*
X123528D02*
X124528D01*
X126528D02*
X127528D01*
X129528D02*
X130528D01*
X132528D02*
X133528D01*
X135528D02*
X136528D01*
X138528D02*
X139528D01*
X141528D02*
X142528D01*
X144528D02*
X145528D01*
X147528D02*
X148528D01*
X150528D02*
X151528D01*
X153528D02*
X154528D01*
X156528D02*
X157528D01*
X159528D02*
X160528D01*
X162528D02*
X163528D01*
X165528D02*
X166528D01*
X168528D02*
X169528D01*
X171528D02*
X172528D01*
X174528D02*
X175528D01*
X177528D02*
X178528D01*
X180528D02*
X181528D01*
X183528D02*
X184528D01*
X75528Y157272D02*
X76528D01*
X78528D02*
X79528D01*
X81528D02*
X82528D01*
X84528D02*
X85528D01*
X87528D02*
X88528D01*
X90528D02*
X91528D01*
X93528D02*
X94528D01*
X96528D02*
X97528D01*
X99528D02*
X100528D01*
X102528D02*
X103528D01*
X105528D02*
X106528D01*
X108528D02*
X109528D01*
X111528D02*
X112528D01*
X114528D02*
X115528D01*
X117528D02*
X118528D01*
X120528D02*
X121528D01*
X123528D02*
X124528D01*
X126528D02*
X127528D01*
X129528D02*
X130528D01*
X132528D02*
X133528D01*
X135528D02*
X136528D01*
X138528D02*
X139528D01*
X141528D02*
X142528D01*
X144528D02*
X145528D01*
X147528D02*
X148528D01*
X150528D02*
X151528D01*
X153528D02*
X154528D01*
X156528D02*
X157528D01*
X159528D02*
X160528D01*
X162528D02*
X163528D01*
X165528D02*
X166528D01*
X168528D02*
X169528D01*
X171528D02*
X172528D01*
X174528D02*
X175528D01*
X177528D02*
X178528D01*
X180528D02*
X181528D01*
X183528D02*
X184528D01*
X78763Y121127D02*
X80175Y121245D01*
X79469Y121715*
X80175Y122186*
X78763Y122303*
X80058Y123688D02*
X80175Y123571D01*
Y123335*
Y123100*
X80058Y122865*
X79822Y122747*
X79469*
X79352Y122865*
X79234Y123100*
Y123335*
X79352Y123571*
X79469Y123688*
X79587*
X79705Y123571*
X79822Y123335*
Y123100*
X79705Y122865*
X79587Y122747*
X80058Y124107D02*
X80175Y124342D01*
Y124813*
X80058Y125048*
X79822*
X79705Y124813*
Y124342*
X79587Y124107*
X79352*
X79234Y124342*
Y124813*
X79352Y125048*
X79234Y125467D02*
X79234Y125938D01*
X78999Y125702D02*
X80058Y125702D01*
X80175Y125820*
Y125938*
X80058Y126055*
X80175Y128187D02*
X78763Y128187D01*
Y129363*
X79469Y129128D02*
X79469Y128187D01*
X80175D02*
X80175Y129363D01*
Y129925D02*
X80175Y129807D01*
X78763*
X80058Y131248D02*
X80175Y131131D01*
Y130895*
Y130660*
X80058Y130425*
X79822Y130307*
X79469*
X79352Y130425*
X79234Y130660*
Y130895*
X79352Y131131*
X79469Y131248*
X79587*
X79705Y131131*
X79822Y130895*
Y130660*
X79705Y130425*
X79587Y130307*
X79352Y132608D02*
X79234Y132373D01*
Y132020*
X79352Y131785*
X79587Y131667*
X79822*
X80058Y131785*
X80175Y132020*
Y132373*
X80058Y132608*
X79234Y133027D02*
X79234Y133498D01*
X78999Y133262D02*
X80058Y133262D01*
X80175Y133380*
Y133498*
X80058Y133615*
X80175Y134027D02*
X79234Y134027D01*
X79587D02*
X79352Y134145D01*
X79234Y134380*
Y134615*
X79352Y134851*
X79822Y135267D02*
X80058Y135385D01*
X80175Y135620*
Y135855*
X80058Y136091*
X79822Y136208*
X79587*
X79352Y136091*
X79234Y135855*
Y135620*
X79352Y135385*
X79587Y135267*
X79822*
X79587Y137568D02*
X79352Y137451D01*
X79234Y137215*
Y136980*
X79352Y136745*
X79587Y136627*
X79822*
X80058Y136745*
X80175Y136980*
Y137215*
X80058Y137451*
X79822Y137568*
X80175D02*
X78763Y137568D01*
X80058Y138928D02*
X80175Y138811D01*
Y138575*
Y138340*
X80058Y138105*
X79822Y137987*
X79469*
X79352Y138105*
X79234Y138340*
Y138575*
X79352Y138811*
X79469Y138928*
X79587*
X79705Y138811*
X79822Y138575*
Y138340*
X79705Y138105*
X79587Y137987*
X82178Y90537D02*
Y91537D01*
Y93537D02*
Y94537D01*
Y96537D02*
Y97537D01*
Y99537D02*
Y100537D01*
Y102537D02*
Y103537D01*
Y105537D02*
Y106537D01*
Y108537D02*
Y109537D01*
Y111537D02*
Y112537D01*
Y114537D02*
Y115537D01*
Y117537D02*
Y118537D01*
Y120537D02*
Y121537D01*
Y123537D02*
Y124537D01*
Y126537D02*
Y127537D01*
Y129537D02*
Y130537D01*
Y132537D02*
Y133537D01*
Y135537D02*
Y136537D01*
Y138537D02*
Y139537D01*
Y141537D02*
Y142537D01*
Y144537D02*
Y145537D01*
Y147537D02*
Y148537D01*
Y150537D02*
Y151537D01*
Y153537D02*
Y154537D01*
Y156537D02*
Y157537D01*
Y159537D02*
Y160537D01*
Y162537D02*
Y163537D01*
X130028Y86037D02*
Y87037D01*
Y89037D02*
Y90037D01*
Y92037D02*
Y93037D01*
Y95037D02*
Y96037D01*
Y98037D02*
Y99037D01*
Y101037D02*
Y102037D01*
Y104037D02*
Y105037D01*
Y107037D02*
Y108037D01*
Y110037D02*
Y111037D01*
Y113037D02*
Y114037D01*
Y116037D02*
Y117037D01*
Y119037D02*
Y120037D01*
Y122037D02*
Y123037D01*
Y125037D02*
Y126037D01*
Y128037D02*
Y129037D01*
Y131037D02*
Y132037D01*
Y134037D02*
Y135037D01*
Y137037D02*
Y138037D01*
Y140037D02*
Y141037D01*
Y143037D02*
Y144037D01*
Y146037D02*
Y147037D01*
Y149037D02*
Y150037D01*
Y152037D02*
Y153037D01*
Y155037D02*
Y156037D01*
Y158037D02*
Y159037D01*
Y161037D02*
Y162037D01*
Y164037D02*
Y165037D01*
Y167037D02*
Y168037D01*
X122695Y128025D02*
X122577Y127908D01*
X122342Y127790*
X121989*
X121753Y127908*
X121636Y128025*
X121518Y128261*
Y128731*
X121636Y128966*
X121753Y129084*
X121989Y129202*
X122342*
X122577Y129084*
X122695Y128966*
X124079Y127908D02*
X123962Y127790D01*
X123726*
X123491*
X123256Y127908*
X123138Y128143*
Y128496*
X123256Y128613*
X123491Y128731*
X123726*
X123962Y128613*
X124079Y128496*
Y128378*
X123962Y128261*
X123726Y128143*
X123491*
X123256Y128261*
X123138Y128378*
X124498Y127790D02*
X124498Y128731D01*
Y128378D02*
X124616Y128613D01*
X124851Y128731*
X125086*
X125322Y128613*
X125439Y128378*
Y127790*
X125858Y128731D02*
X126329Y128731D01*
X126093Y128966D02*
X126093Y127908D01*
X126211Y127790*
X126329*
X126446Y127908*
X127799D02*
X127682Y127790D01*
X127446*
X127211*
X126976Y127908*
X126858Y128143*
Y128496*
X126976Y128613*
X127211Y128731*
X127446*
X127682Y128613*
X127799Y128496*
Y128378*
X127682Y128261*
X127446Y128143*
X127211*
X126976Y128261*
X126858Y128378*
X128218Y127790D02*
X128218Y128731D01*
Y128378D02*
X128336Y128613D01*
X128571Y128731*
X128806*
X129042Y128613*
X131178Y127790D02*
X131178Y129202D01*
X132355*
X132119Y128496D02*
X131178Y128496D01*
Y127790D02*
X132355Y127790D01*
X132916D02*
X132798Y127790D01*
Y129202*
X134239Y127908D02*
X134122Y127790D01*
X133886*
X133651*
X133416Y127908*
X133298Y128143*
Y128496*
X133416Y128613*
X133651Y128731*
X133886*
X134122Y128613*
X134239Y128496*
Y128378*
X134122Y128261*
X133886Y128143*
X133651*
X133416Y128261*
X133298Y128378*
X135599Y128613D02*
X135364Y128731D01*
X135011*
X134776Y128613*
X134658Y128378*
Y128143*
X134776Y127908*
X135011Y127790*
X135364*
X135599Y127908*
X136018Y128731D02*
X136489Y128731D01*
X136253Y128966D02*
X136253Y127908D01*
X136371Y127790*
X136489*
X136606Y127908*
X137018Y127790D02*
X137018Y128731D01*
Y128378D02*
X137136Y128613D01*
X137371Y128731*
X137606*
X137842Y128613*
X138258Y128143D02*
X138376Y127908D01*
X138611Y127790*
X138846*
X139082Y127908*
X139199Y128143*
Y128378*
X139082Y128613*
X138846Y128731*
X138611*
X138376Y128613*
X138258Y128378*
Y128143*
X140559Y128378D02*
X140442Y128613D01*
X140206Y128731*
X139971*
X139736Y128613*
X139618Y128378*
Y128143*
X139736Y127908*
X139971Y127790*
X140206*
X140442Y127908*
X140559Y128143*
Y127790D02*
X140559Y129202D01*
X141919Y127908D02*
X141802Y127790D01*
X141566*
X141331*
X141096Y127908*
X140978Y128143*
Y128496*
X141096Y128613*
X141331Y128731*
X141566*
X141802Y128613*
X141919Y128496*
Y128378*
X141802Y128261*
X141566Y128143*
X141331*
X141096Y128261*
X140978Y128378*
X122638Y93743D02*
X122756Y93508D01*
X122991Y93390*
X123462*
X123697Y93508*
X123815Y93743*
X123697Y93978*
X123462Y94096*
X122991*
X122756Y94213*
X122638Y94449*
X122756Y94684*
X122991Y94802*
X123462*
X123697Y94684*
X123815Y94449*
X124258Y93743D02*
X124376Y93508D01*
X124611Y93390*
X124846*
X125082Y93508*
X125199Y93743*
Y93978*
X125082Y94213*
X124846Y94331*
X124611*
X124376Y94213*
X124258Y93978*
Y93743*
X125618Y94331D02*
X125618Y93743D01*
X125736Y93508*
X125971Y93390*
X126206*
X126442Y93508*
X126559Y93743*
Y94331D02*
X126559Y93390D01*
X126978Y94331D02*
X127449Y94331D01*
X127213Y94566D02*
X127213Y93508D01*
X127331Y93390*
X127449*
X127566Y93508*
X127978Y93390D02*
X127978Y94802D01*
Y93978D02*
X128096Y94213D01*
X128331Y94331*
X128566*
X128802Y94213*
X128919Y93978*
Y93390*
X131058D02*
X131058Y94802D01*
X132235*
X131999Y94096D02*
X131058Y94096D01*
Y93390D02*
X132235Y93390D01*
X132796D02*
X132678Y93390D01*
Y94802*
X134119Y93508D02*
X134002Y93390D01*
X133766*
X133531*
X133296Y93508*
X133178Y93743*
Y94096*
X133296Y94213*
X133531Y94331*
X133766*
X134002Y94213*
X134119Y94096*
Y93978*
X134002Y93861*
X133766Y93743*
X133531*
X133296Y93861*
X133178Y93978*
X135479Y94213D02*
X135244Y94331D01*
X134891*
X134656Y94213*
X134538Y93978*
Y93743*
X134656Y93508*
X134891Y93390*
X135244*
X135479Y93508*
X135898Y94331D02*
X136369Y94331D01*
X136133Y94566D02*
X136133Y93508D01*
X136251Y93390*
X136369*
X136486Y93508*
X136898Y93390D02*
X136898Y94331D01*
Y93978D02*
X137016Y94213D01*
X137251Y94331*
X137486*
X137722Y94213*
X138138Y93743D02*
X138256Y93508D01*
X138491Y93390*
X138726*
X138962Y93508*
X139079Y93743*
Y93978*
X138962Y94213*
X138726Y94331*
X138491*
X138256Y94213*
X138138Y93978*
Y93743*
X140439Y93978D02*
X140322Y94213D01*
X140086Y94331*
X139851*
X139616Y94213*
X139498Y93978*
Y93743*
X139616Y93508*
X139851Y93390*
X140086*
X140322Y93508*
X140439Y93743*
Y93390D02*
X140439Y94802D01*
X141799Y93508D02*
X141682Y93390D01*
X141446*
X141211*
X140976Y93508*
X140858Y93743*
Y94096*
X140976Y94213*
X141211Y94331*
X141446*
X141682Y94213*
X141799Y94096*
Y93978*
X141682Y93861*
X141446Y93743*
X141211*
X140976Y93861*
X140858Y93978*
X122698Y159390D02*
X122698Y160802D01*
X123875Y159390*
Y160802*
X124318Y159743D02*
X124436Y159508D01*
X124671Y159390*
X124906*
X125142Y159508*
X125259Y159743*
Y159978*
X125142Y160213*
X124906Y160331*
X124671*
X124436Y160213*
X124318Y159978*
Y159743*
X125678Y159390D02*
X125678Y160331D01*
Y159978D02*
X125796Y160213D01*
X126031Y160331*
X126266*
X126502Y160213*
X126918Y160331D02*
X127389Y160331D01*
X127153Y160566D02*
X127153Y159508D01*
X127271Y159390*
X127389*
X127506Y159508*
X127918Y159390D02*
X127918Y160802D01*
Y159978D02*
X128036Y160213D01*
X128271Y160331*
X128506*
X128742Y160213*
X128859Y159978*
Y159390*
X130998D02*
X130998Y160802D01*
X132175*
X131939Y160096D02*
X130998Y160096D01*
Y159390D02*
X132175Y159390D01*
X132736D02*
X132618Y159390D01*
Y160802*
X134059Y159508D02*
X133942Y159390D01*
X133706*
X133471*
X133236Y159508*
X133118Y159743*
Y160096*
X133236Y160213*
X133471Y160331*
X133706*
X133942Y160213*
X134059Y160096*
Y159978*
X133942Y159861*
X133706Y159743*
X133471*
X133236Y159861*
X133118Y159978*
X135419Y160213D02*
X135184Y160331D01*
X134831*
X134596Y160213*
X134478Y159978*
Y159743*
X134596Y159508*
X134831Y159390*
X135184*
X135419Y159508*
X135838Y160331D02*
X136309Y160331D01*
X136073Y160566D02*
X136073Y159508D01*
X136191Y159390*
X136309*
X136426Y159508*
X136838Y159390D02*
X136838Y160331D01*
Y159978D02*
X136956Y160213D01*
X137191Y160331*
X137426*
X137662Y160213*
X138078Y159743D02*
X138196Y159508D01*
X138431Y159390*
X138666*
X138902Y159508*
X139019Y159743*
Y159978*
X138902Y160213*
X138666Y160331*
X138431*
X138196Y160213*
X138078Y159978*
Y159743*
X140379Y159978D02*
X140262Y160213D01*
X140026Y160331*
X139791*
X139556Y160213*
X139438Y159978*
Y159743*
X139556Y159508*
X139791Y159390*
X140026*
X140262Y159508*
X140379Y159743*
Y159390D02*
X140379Y160802D01*
X141739Y159508D02*
X141622Y159390D01*
X141386*
X141151*
X140916Y159508*
X140798Y159743*
Y160096*
X140916Y160213*
X141151Y160331*
X141386*
X141622Y160213*
X141739Y160096*
Y159978*
X141622Y159861*
X141386Y159743*
X141151*
X140916Y159861*
X140798Y159978*
X177878Y90537D02*
Y91537D01*
Y93537D02*
Y94537D01*
Y96537D02*
Y97537D01*
Y99537D02*
Y100537D01*
Y102537D02*
Y103537D01*
Y105537D02*
Y106537D01*
Y108537D02*
Y109537D01*
Y111537D02*
Y112537D01*
Y114537D02*
Y115537D01*
Y117537D02*
Y118537D01*
Y120537D02*
Y121537D01*
Y123537D02*
Y124537D01*
Y126537D02*
Y127537D01*
Y129537D02*
Y130537D01*
Y132537D02*
Y133537D01*
Y135537D02*
Y136537D01*
Y138537D02*
Y139537D01*
Y141537D02*
Y142537D01*
Y144537D02*
Y145537D01*
Y147537D02*
Y148537D01*
Y150537D02*
Y151537D01*
Y153537D02*
Y154537D01*
Y156537D02*
Y157537D01*
Y159537D02*
Y160537D01*
Y162537D02*
Y163537D01*
X181175Y121127D02*
X179763Y121127D01*
Y122303*
X180469Y122068D02*
X180469Y121127D01*
X181175D02*
X181175Y122303D01*
X180352Y122747D02*
X180234Y122982D01*
Y123335*
X180352Y123571*
X180587Y123688*
X180940*
X181058Y123571*
X181175Y123335*
Y123100*
X181058Y122865*
X180940Y122747*
X180822*
X180705Y122865*
X180587Y123100*
Y123335*
X180705Y123571*
X180822Y123688*
X180940D02*
X181175Y123688D01*
X181058Y124107D02*
X181175Y124342D01*
Y124813*
X181058Y125048*
X180822*
X180705Y124813*
Y124342*
X180587Y124107*
X180352*
X180234Y124342*
Y124813*
X180352Y125048*
X180234Y125467D02*
X180234Y125938D01*
X179999Y125702D02*
X181058Y125702D01*
X181175Y125820*
Y125938*
X181058Y126055*
X181175Y128187D02*
X179763Y128187D01*
Y129363*
X180469Y129128D02*
X180469Y128187D01*
X181175D02*
X181175Y129363D01*
Y129925D02*
X181175Y129807D01*
X179763*
X181058Y131248D02*
X181175Y131131D01*
Y130895*
Y130660*
X181058Y130425*
X180822Y130307*
X180469*
X180352Y130425*
X180234Y130660*
Y130895*
X180352Y131131*
X180469Y131248*
X180587*
X180705Y131131*
X180822Y130895*
Y130660*
X180705Y130425*
X180587Y130307*
X180352Y132608D02*
X180234Y132373D01*
Y132020*
X180352Y131785*
X180587Y131667*
X180822*
X181058Y131785*
X181175Y132020*
Y132373*
X181058Y132608*
X180234Y133027D02*
X180234Y133498D01*
X179999Y133262D02*
X181058Y133262D01*
X181175Y133380*
Y133498*
X181058Y133615*
X181175Y134027D02*
X180234Y134027D01*
X180587D02*
X180352Y134145D01*
X180234Y134380*
Y134615*
X180352Y134851*
X180822Y135267D02*
X181058Y135385D01*
X181175Y135620*
Y135855*
X181058Y136091*
X180822Y136208*
X180587*
X180352Y136091*
X180234Y135855*
Y135620*
X180352Y135385*
X180587Y135267*
X180822*
X180587Y137568D02*
X180352Y137451D01*
X180234Y137215*
Y136980*
X180352Y136745*
X180587Y136627*
X180822*
X181058Y136745*
X181175Y136980*
Y137215*
X181058Y137451*
X180822Y137568*
X181175D02*
X179763Y137568D01*
X181058Y138928D02*
X181175Y138811D01*
Y138575*
Y138340*
X181058Y138105*
X180822Y137987*
X180469*
X180352Y138105*
X180234Y138340*
Y138575*
X180352Y138811*
X180469Y138928*
X180587*
X180705Y138811*
X180822Y138575*
Y138340*
X180705Y138105*
X180587Y137987*
D02*
D1845*
X88618Y167980D02*
G75*
G03Y167414J-283D01*
G01*
G75*
G03Y167980J283*
G01*
X88617Y167933D02*
G75*
G03Y167461J-236D01*
G01*
G75*
G03Y167933J236*
G01*
X88335Y167697D02*
G36*
G75*
G03X88618Y167414I283D01*
G01*
G75*
G03X88901Y167697J283*
G01*
X88853*
G75*
G02X88617Y167461I-236*
G01*
G75*
G02X88381Y167697J236*
G01*
X88335*
G37*
X88381D02*
G36*
G75*
G02X88617Y167933I236D01*
G01*
G75*
G02X88853Y167697J-236*
G01*
X88901*
G75*
G03X88618Y167980I-283*
G01*
G75*
G03X88335Y167697J-283*
G01*
X88381*
G37*
X88749Y167542D02*
X88659Y167682D01*
X88699Y167692*
X88724Y167707*
X88739Y167737*
X88744Y167772*
X88739Y167807*
X88719Y167837*
X88684Y167852*
X88634Y167857*
X88509*
Y167542*
X88554*
Y167677*
X88614*
X88694Y167542*
X88749*
X88689Y167772D02*
X88684Y167752D01*
X88669Y167737*
X88649Y167722*
X88614Y167717*
X88554*
Y167822*
X88624*
X88654Y167817*
X88674Y167807*
X88689Y167792*
Y167772*
X88509Y167770D02*
G36*
Y167542D01*
X88554*
Y167677*
X88614*
X88694Y167542*
X88749*
X88659Y167682*
X88699Y167692*
X88724Y167707*
X88739Y167737*
X88744Y167770*
X88688*
X88684Y167752*
X88669Y167737*
X88649Y167722*
X88614Y167717*
X88554*
Y167770*
X88509*
G37*
X88554D02*
G36*
Y167822D01*
X88624*
X88654Y167817*
X88674Y167807*
X88689Y167792*
Y167772*
X88688Y167770*
X88744*
X88744Y167772*
X88739Y167807*
X88719Y167837*
X88684Y167852*
X88634Y167857*
X88509*
Y167770*
X88554*
G37*
X89299Y165587D02*
X89289Y165497D01*
X89279Y165417*
X89264Y165352*
X89254Y165302*
X89239Y165252*
X89219Y165187*
X89194Y165107*
X89164Y165012*
X87829Y167112*
X87799Y167152*
X87769Y167187*
X87739Y167217*
X87709Y167242*
X87649Y167272*
X87614Y167277*
X87584Y167282*
X87524Y167267*
X87469Y167237*
X87414Y167192*
X87359Y167122*
X86919Y166502*
X88484Y164022*
X88284Y163862*
X88179Y163787*
X87969Y163657*
X87859Y163602*
X87749Y163552*
X87519Y163462*
X87399Y163427*
X87279Y163397*
X87159Y163377*
X87034Y163357*
X86909Y163342*
X86649Y163332*
X86514Y163337*
X86384Y163342*
X86254Y163362*
X86129Y163382*
X86004Y163407*
X85884Y163442*
X85764Y163482*
X85644Y163532*
X85529Y163582*
X85419Y163642*
X85309Y163707*
X85199Y163777*
X85094Y163857*
X84989Y163942*
X84889Y164032*
X84789Y164127*
X85469Y165062*
X85489Y165102*
X85504Y165142*
X85514Y165232*
X85504Y165262*
X85489Y165302*
X85464Y165347*
X85434Y165402*
X84934Y166187*
X84199Y165152*
X84159Y165312*
X84129Y165477*
X84114Y165652*
X84109Y165827*
X84119Y166067*
X84134Y166182*
X84154Y166297*
X84179Y166407*
X84209Y166517*
X84249Y166627*
X84289Y166732*
X84339Y166832*
X84389Y166937*
X84449Y167032*
X84514Y167132*
X84584Y167227*
X84659Y167317*
X84829Y167497*
X84929Y167587*
X85029Y167672*
X85129Y167747*
X85234Y167822*
X85344Y167887*
X85459Y167947*
X85569Y168002*
X85689Y168052*
X85809Y168097*
X85934Y168132*
X86059Y168162*
X86189Y168192*
X86319Y168212*
X86454Y168227*
X86734Y168237*
X86854Y168232*
X86979Y168222*
X87104Y168202*
X87234Y168177*
X87364Y168142*
X87499Y168102*
X87634Y168052*
X87769Y167997*
X89299Y165587*
X87395Y165036D02*
X86075Y167121D01*
X86050Y167161*
X86020Y167196*
X85995Y167226*
X85935Y167266*
X85900Y167281*
X85870Y167286*
X85835Y167291*
X85780Y167281*
X85720Y167251*
X85665Y167201*
X85605Y167131*
X85165Y166511*
X86495Y164426*
X86525Y164381*
X86555Y164341*
X86580Y164306*
X86605Y164281*
X86630Y164261*
X86655Y164246*
X86680Y164236*
X86700Y164231*
X86770Y164241*
X86830Y164266*
X86885Y164311*
X86935Y164371*
X87395Y165036*
X85205Y165761D02*
G36*
X85434Y165402D01*
X85464Y165347*
X85489Y165302*
X85504Y165262*
X85514Y165232*
X85504Y165142*
X85489Y165102*
X85469Y165062*
X84789Y164127*
X84889Y164032*
X84989Y163942*
X85094Y163857*
X85199Y163777*
X85309Y163707*
X85419Y163642*
X85529Y163582*
X85644Y163532*
X85764Y163482*
X85884Y163442*
X86004Y163407*
X86129Y163382*
X86254Y163362*
X86384Y163342*
X86514Y163337*
X86649Y163332*
X86909Y163342*
X87034Y163357*
X87159Y163377*
X87279Y163397*
X87399Y163427*
X87519Y163462*
X87749Y163552*
X87859Y163602*
X87969Y163657*
X88179Y163787*
X88284Y163862*
X88484Y164022*
X87387Y165761*
X86936*
X87395Y165036*
X86935Y164371*
X86885Y164311*
X86830Y164266*
X86770Y164241*
X86700Y164231*
X86680Y164236*
X86655Y164246*
X86630Y164261*
X86605Y164281*
X86580Y164306*
X86555Y164341*
X86525Y164381*
X86495Y164426*
X85643Y165761*
X85205*
G37*
X85643D02*
G36*
X85165Y166511D01*
X85605Y167131*
X85665Y167201*
X85720Y167251*
X85780Y167281*
X85835Y167291*
X85870Y167286*
X85900Y167281*
X85935Y167266*
X85995Y167226*
X86020Y167196*
X86050Y167161*
X86075Y167121*
X86936Y165761*
X87387*
X86919Y166502*
X87359Y167122*
X87414Y167192*
X87469Y167237*
X87524Y167267*
X87584Y167282*
X87614Y167277*
X87649Y167272*
X87709Y167242*
X87739Y167217*
X87769Y167187*
X87799Y167152*
X87829Y167112*
X89164Y165012*
X89194Y165107*
X89219Y165187*
X89239Y165252*
X89254Y165302*
X89264Y165352*
X89279Y165417*
X89289Y165497*
X89299Y165587*
X87769Y167997*
X87634Y168052*
X87499Y168102*
X87364Y168142*
X87234Y168177*
X87104Y168202*
X86979Y168222*
X86854Y168232*
X86734Y168237*
X86454Y168227*
X86319Y168212*
X86189Y168192*
X86059Y168162*
X85934Y168132*
X85809Y168097*
X85689Y168052*
X85569Y168002*
X85459Y167947*
X85344Y167887*
X85234Y167822*
X85129Y167747*
X85029Y167672*
X84929Y167587*
X84829Y167497*
X84659Y167317*
X84584Y167227*
X84514Y167132*
X84449Y167032*
X84389Y166937*
X84339Y166832*
X84289Y166732*
X84249Y166627*
X84209Y166517*
X84179Y166407*
X84154Y166297*
X84134Y166182*
X84119Y166067*
X84109Y165827*
X84114Y165652*
X84129Y165477*
X84159Y165312*
X84199Y165152*
X84934Y166187*
X85205Y165761*
X85643*
G37*
X92704Y164697D02*
X92249D01*
X92119Y166267*
X92114*
X91634Y165012*
X91609Y164962*
X91584Y164922*
X91554Y164882*
X91519Y164852*
X91484Y164827*
X91444Y164812*
X91399Y164802*
X91349Y164797*
X91299Y164802*
X91254Y164812*
X91214Y164827*
X91179Y164852*
X91144Y164882*
X91114Y164922*
X91089Y164962*
X91064Y165012*
X90594Y166247*
X90589*
X90454Y164697*
X89989*
X90224Y166902*
X90234Y166952*
X90254Y166997*
X90279Y167042*
X90309Y167082*
X90349Y167122*
X90389Y167147*
X90434Y167162*
X90479Y167167*
X90539Y167162*
X90589Y167152*
X90639Y167132*
X90684Y167107*
X90724Y167072*
X90759Y167027*
X90789Y166982*
X90814Y166922*
X91349Y165582*
X91354*
X91884Y166922*
X91909Y166982*
X91979Y167072*
X92019Y167107*
X92059Y167132*
X92109Y167152*
X92159Y167162*
X92219Y167167*
X92264Y167162*
X92309Y167147*
X92349Y167117*
X92389Y167082*
X92419Y167037*
X92444Y166987*
X92464Y166937*
X92474Y166877*
X92704Y164697*
G36*
X92249*
X92119Y166267*
X92114*
X91634Y165012*
X91609Y164962*
X91584Y164922*
X91554Y164882*
X91519Y164852*
X91484Y164827*
X91444Y164812*
X91399Y164802*
X91349Y164797*
X91299Y164802*
X91254Y164812*
X91214Y164827*
X91179Y164852*
X91144Y164882*
X91114Y164922*
X91089Y164962*
X91064Y165012*
X90594Y166247*
X90589*
X90454Y164697*
X89989*
X90224Y166902*
X90234Y166952*
X90254Y166997*
X90279Y167042*
X90309Y167082*
X90349Y167122*
X90389Y167147*
X90434Y167162*
X90479Y167167*
X90539Y167162*
X90589Y167152*
X90639Y167132*
X90684Y167107*
X90724Y167072*
X90759Y167027*
X90789Y166982*
X90814Y166922*
X91349Y165582*
X91354*
X91884Y166922*
X91909Y166982*
X91979Y167072*
X92019Y167107*
X92059Y167132*
X92109Y167152*
X92159Y167162*
X92219Y167167*
X92264Y167162*
X92309Y167147*
X92349Y167117*
X92389Y167082*
X92419Y167037*
X92444Y166987*
X92464Y166937*
X92474Y166877*
X92704Y164697*
G37*
X93374D02*
X92949D01*
Y166562*
X93374*
Y164697*
G36*
X92949*
Y166562*
X93374*
Y164697*
G37*
X95274Y165157D02*
Y165087D01*
X95269Y165027*
X95264Y164972*
X95259Y164922*
X95254Y164882*
X95244Y164847*
X95234Y164817*
X95219Y164792*
X95199Y164767*
X95169Y164742*
X95139Y164722*
X95099Y164707*
X95054Y164692*
X95004Y164682*
X94944Y164677*
X94174*
X94049Y164682*
X93944Y164702*
X93859Y164737*
X93789Y164782*
X93749Y164827*
X93714Y164877*
X93684Y164937*
X93659Y165002*
X93639Y165077*
X93624Y165162*
X93619Y165252*
X93614Y165352*
Y165907*
X93619Y165997*
X93624Y166082*
X93634Y166162*
X93649Y166232*
X93669Y166292*
X93689Y166347*
X93719Y166397*
X93749Y166437*
X93784Y166472*
X93824Y166502*
X93869Y166527*
X93919Y166547*
X93979Y166562*
X94039Y166572*
X94104Y166582*
X94989*
X95039Y166577*
X95084Y166567*
X95124Y166547*
X95159Y166527*
X95189Y166502*
X95209Y166472*
X95229Y166437*
X95239Y166397*
X95249Y166342*
X95254Y166272*
X95259Y166192*
Y166092*
X94254*
X94179Y166087*
X94124Y166067*
X94079Y166032*
X94049Y165982*
X94034Y165937*
X94024Y165882*
X94019Y165812*
Y165467*
X94024Y165407*
X94029Y165357*
X94034Y165312*
X94044Y165277*
X94059Y165247*
X94074Y165222*
X94089Y165202*
X94119Y165182*
X94154Y165167*
X94194Y165157*
X95274*
G36*
Y165087*
X95269Y165027*
X95264Y164972*
X95259Y164922*
X95254Y164882*
X95244Y164847*
X95234Y164817*
X95219Y164792*
X95199Y164767*
X95169Y164742*
X95139Y164722*
X95099Y164707*
X95054Y164692*
X95004Y164682*
X94944Y164677*
X94174*
X94049Y164682*
X93944Y164702*
X93859Y164737*
X93789Y164782*
X93749Y164827*
X93714Y164877*
X93684Y164937*
X93659Y165002*
X93639Y165077*
X93624Y165162*
X93619Y165252*
X93614Y165352*
Y165907*
X93619Y165997*
X93624Y166082*
X93634Y166162*
X93649Y166232*
X93669Y166292*
X93689Y166347*
X93719Y166397*
X93749Y166437*
X93784Y166472*
X93824Y166502*
X93869Y166527*
X93919Y166547*
X93979Y166562*
X94039Y166572*
X94104Y166582*
X94989*
X95039Y166577*
X95084Y166567*
X95124Y166547*
X95159Y166527*
X95189Y166502*
X95209Y166472*
X95229Y166437*
X95239Y166397*
X95249Y166342*
X95254Y166272*
X95259Y166192*
Y166092*
X94254*
X94179Y166087*
X94124Y166067*
X94079Y166032*
X94049Y165982*
X94034Y165937*
X94024Y165882*
X94019Y165812*
Y165467*
X94024Y165407*
X94029Y165357*
X94034Y165312*
X94044Y165277*
X94059Y165247*
X94074Y165222*
X94089Y165202*
X94119Y165182*
X94154Y165167*
X94194Y165157*
X95274*
G37*
X96759Y165792D02*
Y165902D01*
X96754Y165962*
X96744Y166012*
X96729Y166047*
X96704Y166072*
X96684Y166082*
X96659Y166092*
X96624Y166097*
X95899*
Y165647*
X96649*
X96679Y165657*
X96704Y165672*
X96724Y165687*
X96739Y165712*
X96749Y165747*
X96759Y165792*
X97144Y165892D02*
X97139Y165802D01*
X97134Y165722*
X97119Y165652*
X97104Y165597*
X97074Y165542*
X97034Y165497*
X96984Y165457*
X96919Y165432*
Y165427*
X96974Y165407*
X97014Y165377*
X97054Y165342*
X97084Y165292*
X97109Y165237*
X97124Y165172*
X97134Y165097*
X97139Y165012*
Y164697*
X96744*
Y164982*
X96739Y165027*
X96734Y165067*
X96724Y165097*
X96704Y165132*
X96674Y165162*
X96634Y165177*
X96584Y165182*
X95899*
Y164697*
X95509*
Y166562*
X96759*
X96849Y166557*
X96929Y166532*
X96994Y166492*
X97049Y166437*
X97069Y166402*
X97089Y166362*
X97104Y166317*
X97119Y166267*
X97129Y166212*
X97139Y166082*
X97144Y166012*
Y165892*
X96759Y165792D02*
Y165902D01*
X96754Y165962*
X96744Y166012*
X96729Y166047*
X96704Y166072*
X96684Y166082*
X96659Y166092*
X96624Y166097*
X95899*
Y165647*
X96649*
X96679Y165657*
X96704Y165672*
X96724Y165687*
X96739Y165712*
X96749Y165747*
X96759Y165792*
X95509Y165872D02*
G36*
Y164697D01*
X95899*
Y165182*
X96584*
X96634Y165177*
X96674Y165162*
X96704Y165132*
X96724Y165097*
X96734Y165067*
X96739Y165027*
X96744Y164982*
Y164697*
X97139*
Y165012*
X97134Y165097*
X97124Y165172*
X97109Y165237*
X97084Y165292*
X97054Y165342*
X97014Y165377*
X96974Y165407*
X96919Y165427*
Y165432*
X96984Y165457*
X97034Y165497*
X97074Y165542*
X97104Y165597*
X97119Y165652*
X97134Y165722*
X97139Y165802*
X97143Y165872*
X96759*
Y165792*
X96749Y165747*
X96739Y165712*
X96724Y165687*
X96704Y165672*
X96679Y165657*
X96649Y165647*
X95899*
Y165872*
X95509*
G37*
X95899D02*
G36*
Y166097D01*
X96624*
X96659Y166092*
X96684Y166082*
X96704Y166072*
X96729Y166047*
X96744Y166012*
X96754Y165962*
X96759Y165902*
Y165872*
X97143*
X97144Y165892*
Y166012*
X97139Y166082*
X97129Y166212*
X97119Y166267*
X97104Y166317*
X97089Y166362*
X97069Y166402*
X97049Y166437*
X96994Y166492*
X96929Y166532*
X96849Y166557*
X96759Y166562*
X95509*
Y165872*
X95899*
G37*
X99124Y165992D02*
Y165262D01*
X99114Y165177*
X99104Y165097*
X99089Y165027*
X99064Y164962*
X99039Y164902*
X99009Y164852*
X98979Y164807*
X98904Y164752*
X98809Y164707*
X98699Y164682*
X98564Y164677*
X97859*
X97789Y164687*
X97724Y164702*
X97664Y164722*
X97609Y164747*
X97559Y164777*
X97519Y164817*
X97484Y164857*
X97459Y164897*
X97419Y164997*
X97404Y165057*
X97394Y165122*
X97384Y165192*
X97379Y165272*
Y166017*
X97389Y166117*
X97409Y166207*
X97429Y166287*
X97459Y166357*
X97494Y166417*
X97539Y166467*
X97589Y166507*
X97654Y166537*
X97734Y166562*
X97829Y166577*
X97939Y166582*
X98639*
X98714Y166572*
X98779Y166557*
X98834Y166537*
X98889Y166512*
X98934Y166482*
X98974Y166447*
X99009Y166402*
X99039Y166362*
X99079Y166262*
X99094Y166202*
X99109Y166137*
X99119Y166067*
X99124Y165992*
X98724Y165526D02*
Y165731D01*
X98719Y165826*
X98709Y165906*
X98689Y165971*
X98664Y166021*
X98629Y166056*
X98589Y166081*
X98534Y166096*
X98474Y166101*
X98019*
X97949Y166096*
X97889Y166071*
X97844Y166036*
X97809Y165986*
X97794Y165941*
X97784Y165881*
X97779Y165811*
X97774Y165731*
Y165471*
X97779Y165416*
X97784Y165366*
X97789Y165326*
X97799Y165286*
X97809Y165256*
X97824Y165231*
X97839Y165211*
X97869Y165186*
X97904Y165171*
X97949Y165161*
X97999Y165156*
X98499*
X98569Y165161*
X98624Y165186*
X98669Y165226*
X98699Y165276*
X98709Y165316*
X98714Y165371*
X98719Y165441*
X98724Y165526*
X97379Y165629D02*
G36*
Y165272D01*
X97384Y165192*
X97394Y165122*
X97404Y165057*
X97419Y164997*
X97459Y164897*
X97484Y164857*
X97519Y164817*
X97559Y164777*
X97609Y164747*
X97664Y164722*
X97724Y164702*
X97789Y164687*
X97859Y164677*
X98564*
X98699Y164682*
X98809Y164707*
X98904Y164752*
X98979Y164807*
X99009Y164852*
X99039Y164902*
X99064Y164962*
X99089Y165027*
X99104Y165097*
X99114Y165177*
X99124Y165262*
Y165629*
X98724*
Y165526*
X98719Y165441*
X98714Y165371*
X98709Y165316*
X98699Y165276*
X98669Y165226*
X98624Y165186*
X98569Y165161*
X98499Y165156*
X97999*
X97949Y165161*
X97904Y165171*
X97869Y165186*
X97839Y165211*
X97824Y165231*
X97809Y165256*
X97799Y165286*
X97789Y165326*
X97784Y165366*
X97779Y165416*
X97774Y165471*
Y165629*
X97379*
G37*
X97774D02*
G36*
Y165731D01*
X97779Y165811*
X97784Y165881*
X97794Y165941*
X97809Y165986*
X97844Y166036*
X97889Y166071*
X97949Y166096*
X98019Y166101*
X98474*
X98534Y166096*
X98589Y166081*
X98629Y166056*
X98664Y166021*
X98689Y165971*
X98709Y165906*
X98719Y165826*
X98724Y165731*
Y165629*
X99124*
Y165992*
X99119Y166067*
X99109Y166137*
X99094Y166202*
X99079Y166262*
X99039Y166362*
X99009Y166402*
X98974Y166447*
X98934Y166482*
X98889Y166512*
X98834Y166537*
X98779Y166557*
X98714Y166572*
X98639Y166582*
X97939*
X97829Y166577*
X97734Y166562*
X97654Y166537*
X97589Y166507*
X97539Y166467*
X97494Y166417*
X97459Y166357*
X97429Y166287*
X97409Y166207*
X97389Y166117*
X97379Y166017*
Y165629*
X97774*
G37*
X100999Y165152D02*
Y165087D01*
X100994Y165027*
X100989Y164972*
X100984Y164922*
X100979Y164882*
X100969Y164847*
X100954Y164817*
X100944Y164792*
X100924Y164767*
X100894Y164742*
X100859Y164717*
X100819Y164702*
X100774Y164687*
X100724Y164677*
X100664Y164672*
X99819*
X99749Y164682*
X99684Y164697*
X99624Y164717*
X99569Y164742*
X99524Y164772*
X99484Y164812*
X99449Y164852*
X99419Y164892*
X99379Y164992*
X99364Y165052*
X99349Y165117*
X99344Y165187*
X99334Y165347*
Y165907*
X99339Y165992*
X99344Y166067*
X99349Y166137*
X99364Y166202*
X99379Y166262*
X99419Y166362*
X99449Y166402*
X99484Y166447*
X99524Y166482*
X99569Y166512*
X99624Y166537*
X99684Y166557*
X99749Y166572*
X99819Y166582*
X100554*
X100639Y166577*
X100709Y166572*
X100769Y166562*
X100814Y166557*
X100849Y166547*
X100874Y166537*
X100899Y166512*
X100924Y166482*
X100939Y166437*
X100954Y166387*
X100964Y166327*
X100974Y166257*
X100979Y166177*
Y166087*
X99974Y166092*
X99904Y166087*
X99844Y166062*
X99804Y166027*
X99769Y165977*
X99754Y165932*
X99744Y165882*
X99739Y165812*
Y165427*
X99749Y165342*
X99764Y165277*
X99784Y165232*
X99814Y165197*
X99854Y165172*
X99904Y165157*
X99964Y165152*
X100999*
G36*
Y165087*
X100994Y165027*
X100989Y164972*
X100984Y164922*
X100979Y164882*
X100969Y164847*
X100954Y164817*
X100944Y164792*
X100924Y164767*
X100894Y164742*
X100859Y164717*
X100819Y164702*
X100774Y164687*
X100724Y164677*
X100664Y164672*
X99819*
X99749Y164682*
X99684Y164697*
X99624Y164717*
X99569Y164742*
X99524Y164772*
X99484Y164812*
X99449Y164852*
X99419Y164892*
X99379Y164992*
X99364Y165052*
X99349Y165117*
X99344Y165187*
X99334Y165347*
Y165907*
X99339Y165992*
X99344Y166067*
X99349Y166137*
X99364Y166202*
X99379Y166262*
X99419Y166362*
X99449Y166402*
X99484Y166447*
X99524Y166482*
X99569Y166512*
X99624Y166537*
X99684Y166557*
X99749Y166572*
X99819Y166582*
X100554*
X100639Y166577*
X100709Y166572*
X100769Y166562*
X100814Y166557*
X100849Y166547*
X100874Y166537*
X100899Y166512*
X100924Y166482*
X100939Y166437*
X100954Y166387*
X100964Y166327*
X100974Y166257*
X100979Y166177*
Y166087*
X99974Y166092*
X99904Y166087*
X99844Y166062*
X99804Y166027*
X99769Y165977*
X99754Y165932*
X99744Y165882*
X99739Y165812*
Y165427*
X99749Y165342*
X99764Y165277*
X99784Y165232*
X99814Y165197*
X99854Y165172*
X99904Y165157*
X99964Y165152*
X100999*
G37*
X102834Y164697D02*
X102439D01*
Y165402*
X101614*
Y164697*
X101229*
Y166562*
X101614*
Y165897*
X102439*
Y166562*
X102834*
Y164697*
G36*
X102439*
Y165402*
X101614*
Y164697*
X101229*
Y166562*
X101614*
Y165897*
X102439*
Y166562*
X102834*
Y164697*
G37*
X103539D02*
X103109D01*
Y166562*
X103539*
Y164697*
G36*
X103109*
Y166562*
X103539*
Y164697*
G37*
X105459Y165767D02*
X105454Y165622D01*
X105439Y165502*
X105409Y165402*
X105369Y165317*
X105319Y165252*
X105259Y165202*
X105184Y165177*
X105099Y165167*
X104179*
Y164697*
X103794*
Y166562*
X104999*
X105114Y166552*
X105209Y166527*
X105289Y166477*
X105354Y166407*
X105379Y166367*
X105399Y166322*
X105419Y166267*
X105434Y166212*
X105454Y166082*
X105459Y166007*
Y165767*
X105059Y165782D02*
Y165902D01*
X105054Y165947*
X105049Y165987*
X105034Y166022*
X105019Y166047*
X104994Y166072*
X104969Y166087*
X104934Y166097*
X104179*
Y165632*
X104929*
X104989Y165642*
X105029Y165682*
X105039Y165707*
X105049Y165742*
X105059Y165782*
X103794Y165865D02*
G36*
Y164697D01*
X104179*
Y165167*
X105099*
X105184Y165177*
X105259Y165202*
X105319Y165252*
X105369Y165317*
X105409Y165402*
X105439Y165502*
X105454Y165622*
X105459Y165767*
Y165865*
X105059*
Y165782*
X105049Y165742*
X105039Y165707*
X105029Y165682*
X104989Y165642*
X104929Y165632*
X104179*
Y165865*
X103794*
G37*
X104179D02*
G36*
Y166097D01*
X104934*
X104969Y166087*
X104994Y166072*
X105019Y166047*
X105034Y166022*
X105049Y165987*
X105054Y165947*
X105059Y165902*
Y165865*
X105459*
Y166007*
X105454Y166082*
X105434Y166212*
X105419Y166267*
X105399Y166322*
X105379Y166367*
X105354Y166407*
X105289Y166477*
X105209Y166527*
X105114Y166552*
X104999Y166562*
X103794*
Y165865*
X104179*
G37*
X0Y0D02*
M02*
