G04 GENERATED BY PULSONIX 7.0 GERBER.DLL 4573*
%INHILLSTAR_95X60_EL_V1_0*%
%LNGERBER_TOP*%
%FSLAX33Y33*%
%IPPOS*%
%LPD*%
%OFA0B0*%
%MOMM*%
%ADD15C,0.125*%
%ADD180C,0.600*%
%ADD345C,0.150*%
X0Y0D02*
D02*
D15*
X180096Y85133D02*
X180096Y86015D01*
X179728D02*
X180463Y86015D01*
X180741Y85427D02*
X180741Y85721D01*
X180814Y85868*
X180888Y85941*
X181035Y86015*
X181182*
X181329Y85941*
X181402Y85868*
X181476Y85721*
Y85427*
X181402Y85280*
X181329Y85206*
X181182Y85133*
X181035*
X180888Y85206*
X180814Y85280*
X180741Y85427*
X181753Y85133D02*
X181753Y86015D01*
X182268*
X182415Y85941*
X182488Y85794*
X182415Y85647*
X182268Y85574*
X181753*
D02*
D180*
X81728Y147437D03*
X124028Y163937D03*
Y165337D03*
X126028Y163937D03*
Y165337D03*
X126628Y152237D03*
X128028Y161937D03*
Y163937D03*
Y165337D03*
X130028Y163937D03*
Y165337D03*
X131028Y96437D03*
X132028Y163937D03*
Y165337D03*
X134028Y163937D03*
Y165337D03*
X136028Y163937D03*
Y165337D03*
X178328Y147437D03*
D02*
D345*
X80178Y162272D02*
X79178D01*
G75*
G03X77178Y160272J-2000*
G01*
Y93802*
G75*
G03X79178Y91802I2000*
G01*
X80178*
G75*
G03X82178Y93802J2000*
G01*
Y160272*
G75*
G03X80178Y162272I-2000*
G01*
G36*
X79178*
G75*
G03X77178Y160272J-2000*
G01*
Y93802*
G75*
G03X79178Y91802I2000*
G01*
X80178*
G75*
G03X82178Y93802J2000*
G01*
Y160272*
G75*
G03X80178Y162272I-2000*
G01*
G37*
X84178Y94802D02*
Y93802D01*
G75*
G03X86178Y91802I2000*
G01*
X173878*
G75*
G03X175878Y93802J2000*
G01*
Y94802*
G75*
G03X173878Y96802I-2000*
G01*
X86178*
G75*
G03X84178Y94802J-2000*
G01*
G36*
Y93802*
G75*
G03X86178Y91802I2000*
G01*
X173878*
G75*
G03X175878Y93802J2000*
G01*
Y94802*
G75*
G03X173878Y96802I-2000*
G01*
X86178*
G75*
G03X84178Y94802J-2000*
G01*
G37*
Y160272D02*
Y159272D01*
G75*
G03X86178Y157272I2000*
G01*
X173878*
G75*
G03X175878Y159272J2000*
G01*
Y160272*
G75*
G03X173878Y162272I-2000*
G01*
X86178*
G75*
G03X84178Y160272J-2000*
G01*
G36*
Y159272*
G75*
G03X86178Y157272I2000*
G01*
X173878*
G75*
G03X175878Y159272J2000*
G01*
Y160272*
G75*
G03X173878Y162272I-2000*
G01*
X86178*
G75*
G03X84178Y160272J-2000*
G01*
G37*
X89178Y152272D02*
G75*
G03X87178Y150272J-2000D01*
G01*
Y103802*
G75*
G03X89178Y101802I2000*
G01*
X170878*
G75*
G03X172878Y103802J2000*
G01*
Y150272*
G75*
G03X170878Y152272I-2000*
G01*
X89178*
X163438Y101802D02*
X172878Y111242D01*
X155060Y101802D02*
X172878Y119620D01*
X146682Y101802D02*
X172878Y127998D01*
X138305Y101802D02*
X172878Y136376D01*
X129927Y101802D02*
X172878Y144753D01*
X121549Y101802D02*
X171796Y152049D01*
X113171Y101802D02*
X163641Y152272D01*
X104793Y101802D02*
X155263Y152272D01*
X96415Y101802D02*
X146885Y152272D01*
X88260Y102025D02*
X138507Y152272D01*
X87178Y109321D02*
X130130Y152272D01*
X87178Y117698D02*
X121752Y152272D01*
X87178Y126076D02*
X113374Y152272D01*
X87178Y134454D02*
X104996Y152272D01*
X87178Y142832D02*
X96618Y152272D01*
Y101802D02*
X87178Y111242D01*
X104996Y101802D02*
X87178Y119620D01*
X113374Y101802D02*
X87178Y127998D01*
X121752Y101802D02*
X87178Y136376D01*
X130130Y101802D02*
X87178Y144753D01*
X138507Y101802D02*
X88260Y152049D01*
X146885Y101802D02*
X96415Y152272D01*
X155263Y101802D02*
X104793Y152272D01*
X163641Y101802D02*
X113171Y152272D01*
X171796Y102025D02*
X121549Y152272D01*
X172878Y109321D02*
X129927Y152272D01*
X172878Y117698D02*
X138305Y152272D01*
X172878Y126076D02*
X146682Y152272D01*
X172878Y134454D02*
X155060Y152272D01*
X172878Y142832D02*
X163438Y152272D01*
X177878Y160272D02*
Y93802D01*
G75*
G03X179878Y91802I2000*
G01*
X180878*
G75*
G03X182878Y93802J2000*
G01*
Y160272*
G75*
G03X180878Y162272I-2000*
G01*
X179878*
G75*
G03X177878Y160272J-2000*
G01*
G36*
Y93802*
G75*
G03X179878Y91802I2000*
G01*
X180878*
G75*
G03X182878Y93802J2000*
G01*
Y160272*
G75*
G03X180878Y162272I-2000*
G01*
X179878*
G75*
G03X177878Y160272J-2000*
G01*
G37*
X0Y0D02*
M02*
