G04 GENERATED BY PULSONIX 7.0 GERBER.DLL 4573*
%INHILLSTAR_95X60_EL_V1_0*%
%LNGERBER_DRILL*%
%FSLAX33Y33*%
%IPPOS*%
%LPD*%
%OFA0B0*%
%MOMM*%
%ADD15C,0.125*%
%ADD146C,0.250*%
%ADD698C,3.200*%
X0Y0D02*
D02*
D15*
X75205Y88199D02*
X75352Y88125D01*
X75426Y87978*
X75352Y87831*
X75205Y87758*
X74691*
Y88640*
X75205*
X75352Y88566*
X75426Y88419*
X75352Y88272*
X75205Y88199*
X74691*
X75205Y167199D02*
X75352Y167125D01*
X75426Y166978*
X75352Y166831*
X75205Y166758*
X74691*
Y167640*
X75205*
X75352Y167566*
X75426Y167419*
X75352Y167272*
X75205Y167199*
X74691*
X81916Y147658D02*
X82283Y148540D01*
X82651Y147658*
X82063Y148025D02*
X82504Y148025D01*
X124216Y164158D02*
X124583Y165040D01*
X124951Y164158*
X124363Y164525D02*
X124804Y164525D01*
X124216Y165558D02*
X124583Y166440D01*
X124951Y165558*
X124363Y165925D02*
X124804Y165925D01*
X126216Y164158D02*
X126583Y165040D01*
X126951Y164158*
X126363Y164525D02*
X126804Y164525D01*
X126216Y165558D02*
X126583Y166440D01*
X126951Y165558*
X126363Y165925D02*
X126804Y165925D01*
X126816Y152458D02*
X127183Y153340D01*
X127551Y152458*
X126963Y152825D02*
X127404Y152825D01*
X128216Y162158D02*
X128583Y163040D01*
X128951Y162158*
X128363Y162525D02*
X128804Y162525D01*
X128216Y164158D02*
X128583Y165040D01*
X128951Y164158*
X128363Y164525D02*
X128804Y164525D01*
X128216Y165558D02*
X128583Y166440D01*
X128951Y165558*
X128363Y165925D02*
X128804Y165925D01*
X130216Y164158D02*
X130583Y165040D01*
X130951Y164158*
X130363Y164525D02*
X130804Y164525D01*
X130216Y165558D02*
X130583Y166440D01*
X130951Y165558*
X130363Y165925D02*
X130804Y165925D01*
X131216Y96658D02*
X131583Y97540D01*
X131951Y96658*
X131363Y97025D02*
X131804Y97025D01*
X132216Y164158D02*
X132583Y165040D01*
X132951Y164158*
X132363Y164525D02*
X132804Y164525D01*
X132216Y165558D02*
X132583Y166440D01*
X132951Y165558*
X132363Y165925D02*
X132804Y165925D01*
X134216Y164158D02*
X134583Y165040D01*
X134951Y164158*
X134363Y164525D02*
X134804Y164525D01*
X134216Y165558D02*
X134583Y166440D01*
X134951Y165558*
X134363Y165925D02*
X134804Y165925D01*
X136216Y164158D02*
X136583Y165040D01*
X136951Y164158*
X136363Y164525D02*
X136804Y164525D01*
X136216Y165558D02*
X136583Y166440D01*
X136951Y165558*
X136363Y165925D02*
X136804Y165925D01*
X178516Y147658D02*
X178883Y148540D01*
X179251Y147658*
X178663Y148025D02*
X179104Y148025D01*
X189205Y88199D02*
X189352Y88125D01*
X189426Y87978*
X189352Y87831*
X189205Y87758*
X188691*
Y88640*
X189205*
X189352Y88566*
X189426Y88419*
X189352Y88272*
X189205Y88199*
X188691*
X189205Y167199D02*
X189352Y167125D01*
X189426Y166978*
X189352Y166831*
X189205Y166758*
X188691*
Y167640*
X189205*
X189352Y167566*
X189426Y167419*
X189352Y167272*
X189205Y167199*
X188691*
D02*
D146*
X81728Y147437D03*
X124028Y163937D03*
Y165337D03*
X126028Y163937D03*
Y165337D03*
X126628Y152237D03*
X128028Y161937D03*
Y163937D03*
Y165337D03*
X130028Y163937D03*
Y165337D03*
X131028Y96437D03*
X132028Y163937D03*
Y165337D03*
X134028Y163937D03*
Y165337D03*
X136028Y163937D03*
Y165337D03*
X178328Y147437D03*
D02*
D698*
X73028Y87537D03*
Y166537D03*
X187028Y87537D03*
Y166537D03*
X0Y0D02*
M02*
