M48
INCH
T01C00.010
T02C00.126
%
M70
T01
X03224Y05081
X04893Y05160
X04893Y05215
X04933Y05278
X04972Y05160
X05011Y05337
X05051Y05215
X05051Y05337
X05090Y05337
X05090Y06294
X05130Y05160
X05130Y05215
X05130Y05337
X05169Y05337
X05208Y03868
X05208Y05215
X05208Y05337
X05287Y05160
X05366Y05160
X05366Y05215
X07035Y05081
T02
X02885Y03526
X02885Y06636
X07374Y03526
X07374Y06636
M30
