G04 GENERATED BY PULSONIX 7.0 GERBER.DLL 4573*
%INHILLSTAR_95X60_4LAYER_EL_V1_0_2*%
%LNGERBER_SILKSCREEN_TOP*%
%FSLAX33Y33*%
%IPPOS*%
%LPD*%
%OFA0B0*%
%MOMM*%
%ADD15C,0.125*%
%ADD17C,0.200*%
%ADD1845C,0.010*%
X0Y0D02*
D02*
D15*
X159364Y169625D02*
X159511Y169552D01*
X159658*
X159805Y169625*
X159879Y169772*
Y170214*
X159805Y170361*
X159658Y170434*
X159511*
X159364Y170361*
X159291Y170214*
Y169772*
X159364Y169625*
X159805Y170361*
X160729Y169552D02*
X160141Y169552D01*
X160655Y170067*
X160729Y170214*
X160655Y170361*
X160508Y170434*
X160288*
X160141Y170361*
X160991Y169846D02*
X161579Y169846D01*
X161988Y169552D02*
X162282Y169552D01*
X162135D02*
X162135Y170434D01*
X161988Y170287*
X162764Y169625D02*
X162911Y169552D01*
X163058*
X163205Y169625*
X163279Y169772*
Y170214*
X163205Y170361*
X163058Y170434*
X162911*
X162764Y170361*
X162691Y170214*
Y169772*
X162764Y169625*
X163205Y170361*
X163688Y169552D02*
X163982Y169552D01*
X163835D02*
X163835Y170434D01*
X163688Y170287*
X164611Y169552D02*
X164758Y169625D01*
X164905Y169772*
X164979Y169993*
Y170214*
X164905Y170361*
X164758Y170434*
X164611*
X164464Y170361*
X164391Y170214*
X164464Y170067*
X164611Y169993*
X164758*
X164905Y170067*
X164979Y170214*
X165388Y169552D02*
X165682Y169552D01*
X165535D02*
X165535Y170434D01*
X165388Y170287*
X159291Y168052D02*
X159291Y168934D01*
Y168493D02*
X160026Y168493D01*
Y168052D02*
X160026Y168934D01*
X160303Y168052D02*
X160303Y168640D01*
Y168861D02*
X160304Y168862D01*
X160914Y168052D02*
X160841Y168052D01*
Y168934*
X161227Y168052D02*
X161153Y168052D01*
Y168934*
X161466Y168125D02*
X161613Y168052D01*
X161907*
X162054Y168125*
Y168272*
X161907Y168346*
X161613*
X161466Y168419*
Y168567*
X161613Y168640*
X161907*
X162054Y168567*
X162316Y168640D02*
X162610Y168640D01*
X162463Y168787D02*
X162463Y168125D01*
X162536Y168052*
X162610*
X162683Y168125*
X162941Y168567D02*
X163088Y168640D01*
X163308*
X163455Y168567*
X163529Y168419*
Y168199*
X163455Y168125*
X163308Y168052*
X163161*
X163014Y168125*
X162941Y168199*
Y168272*
X163014Y168346*
X163161Y168419*
X163308*
X163455Y168346*
X163529Y168272*
Y168199D02*
X163529Y168052D01*
X163791D02*
X163791Y168640D01*
Y168419D02*
X163864Y168567D01*
X164011Y168640*
X164158*
X164305Y168567*
X165103Y168052D02*
X165103Y168934D01*
X165544*
X165691Y168861*
X165765Y168787*
X165838Y168640*
Y168346*
X165765Y168199*
X165691Y168125*
X165544Y168052*
X165103*
X166704Y168125D02*
X166630Y168052D01*
X166483*
X166336*
X166189Y168125*
X166116Y168272*
Y168493*
X166189Y168567*
X166336Y168640*
X166483*
X166630Y168567*
X166704Y168493*
Y168419*
X166630Y168346*
X166483Y168272*
X166336*
X166189Y168346*
X166116Y168419*
X166966Y168640D02*
X167260Y168052D01*
X167554Y168640*
X168404Y168125D02*
X168330Y168052D01*
X168183*
X168036*
X167889Y168125*
X167816Y168272*
Y168493*
X167889Y168567*
X168036Y168640*
X168183*
X168330Y168567*
X168404Y168493*
Y168419*
X168330Y168346*
X168183Y168272*
X168036*
X167889Y168346*
X167816Y168419*
X168739Y168052D02*
X168666Y168052D01*
Y168934*
X168978Y168272D02*
X169052Y168125D01*
X169199Y168052*
X169346*
X169493Y168125*
X169566Y168272*
Y168419*
X169493Y168567*
X169346Y168640*
X169199*
X169052Y168567*
X168978Y168419*
Y168272*
X169828Y168640D02*
X169828Y167831D01*
Y168272D02*
X169902Y168125D01*
X170049Y168052*
X170196*
X170343Y168125*
X170416Y168272*
Y168419*
X170343Y168567*
X170196Y168640*
X170049*
X169902Y168567*
X169828Y168419*
Y168272*
X170678Y168052D02*
X170678Y168640D01*
Y168567D02*
X170752Y168640D01*
X170899*
X170972Y168567*
Y168346*
Y168567D02*
X171046Y168640D01*
X171193*
X171266Y168567*
Y168052*
X172116Y168125D02*
X172043Y168052D01*
X171896*
X171749*
X171602Y168125*
X171528Y168272*
Y168493*
X171602Y168567*
X171749Y168640*
X171896*
X172043Y168567*
X172116Y168493*
Y168419*
X172043Y168346*
X171896Y168272*
X171749*
X171602Y168346*
X171528Y168419*
X172378Y168052D02*
X172378Y168640D01*
Y168419D02*
X172452Y168567D01*
X172599Y168640*
X172746*
X172893Y168567*
X172966Y168419*
Y168052*
X173228Y168640D02*
X173522Y168640D01*
X173375Y168787D02*
X173375Y168125D01*
X173449Y168052*
X173522*
X173596Y168125*
X174391Y168052D02*
X174391Y168934D01*
Y168493D02*
X174611Y168493D01*
X175126Y168934*
X174611Y168493D02*
X175126Y168052D01*
X175403D02*
X175403Y168640D01*
Y168861D02*
X175404Y168862D01*
X175941Y168640D02*
X176235Y168640D01*
X176088Y168787D02*
X176088Y168125D01*
X176161Y168052*
X176235*
X176308Y168125*
X159511Y166552D02*
X159658Y166625D01*
X159805Y166772*
X159879Y166993*
Y167214*
X159805Y167361*
X159658Y167434*
X159511*
X159364Y167361*
X159291Y167214*
X159364Y167067*
X159511Y166993*
X159658*
X159805Y167067*
X159879Y167214*
X160141Y166625D02*
X160288Y166552D01*
X160508*
X160655Y166625*
X160729Y166772*
Y166846*
X160655Y166993*
X160508Y167067*
X160141*
Y167434*
X160729*
X160991Y166552D02*
X161579Y167140D01*
Y166552D02*
X160991Y167140D01*
X161841Y166772D02*
X161914Y166919D01*
X162061Y166993*
X162208*
X162355Y166919*
X162429Y166772*
X162355Y166625*
X162208Y166552*
X162061*
X161914Y166625*
X161841Y166772*
Y166993*
X161914Y167214*
X162061Y167361*
X162208Y167434*
X162764Y166625D02*
X162911Y166552D01*
X163058*
X163205Y166625*
X163279Y166772*
Y167214*
X163205Y167361*
X163058Y167434*
X162911*
X162764Y167361*
X162691Y167214*
Y166772*
X162764Y166625*
X163205Y167361*
X163541Y166552D02*
X163541Y167140D01*
Y167067D02*
X163614Y167140D01*
X163761*
X163835Y167067*
Y166846*
Y167067D02*
X163908Y167140D01*
X164055*
X164129Y167067*
Y166552*
X164391D02*
X164391Y167140D01*
Y167067D02*
X164464Y167140D01*
X164611*
X164685Y167067*
Y166846*
Y167067D02*
X164758Y167140D01*
X164905*
X164979Y167067*
Y166552*
X165778D02*
X165778Y167434D01*
X166513*
X166366Y166993D02*
X165778Y166993D01*
Y166552D02*
X166513Y166552D01*
X166864D02*
X166791Y166552D01*
Y167434*
X167691Y166625D02*
X167618Y166552D01*
X167471*
X167324*
X167177Y166625*
X167103Y166772*
Y166993*
X167177Y167067*
X167324Y167140*
X167471*
X167618Y167067*
X167691Y166993*
Y166919*
X167618Y166846*
X167471Y166772*
X167324*
X167177Y166846*
X167103Y166919*
X168541Y167067D02*
X168394Y167140D01*
X168174*
X168027Y167067*
X167953Y166919*
Y166772*
X168027Y166625*
X168174Y166552*
X168394*
X168541Y166625*
X168803Y167140D02*
X169097Y167140D01*
X168950Y167287D02*
X168950Y166625D01*
X169024Y166552*
X169097*
X169171Y166625*
X169428Y166552D02*
X169428Y167140D01*
Y166919D02*
X169502Y167067D01*
X169649Y167140*
X169796*
X169943Y167067*
X170203Y166772D02*
X170277Y166625D01*
X170424Y166552*
X170571*
X170718Y166625*
X170791Y166772*
Y166919*
X170718Y167067*
X170571Y167140*
X170424*
X170277Y167067*
X170203Y166919*
Y166772*
X171641Y166919D02*
X171568Y167067D01*
X171421Y167140*
X171274*
X171127Y167067*
X171053Y166919*
Y166772*
X171127Y166625*
X171274Y166552*
X171421*
X171568Y166625*
X171641Y166772*
Y166552D02*
X171641Y167434D01*
X172491Y166625D02*
X172418Y166552D01*
X172271*
X172124*
X171977Y166625*
X171903Y166772*
Y166993*
X171977Y167067*
X172124Y167140*
X172271*
X172418Y167067*
X172491Y166993*
Y166919*
X172418Y166846*
X172271Y166772*
X172124*
X171977Y166846*
X171903Y166919*
X173291Y167434D02*
X173658Y166552D01*
X174026Y167434*
X174450Y166552D02*
X174744Y166552D01*
X174597D02*
X174597Y167434D01*
X174450Y167287*
X175227Y166552D02*
X175300Y166625D01*
X175227Y166699*
X175153Y166625*
X175227Y166552*
X175614Y166625D02*
X175761Y166552D01*
X175908*
X176055Y166625*
X176129Y166772*
Y167214*
X176055Y167361*
X175908Y167434*
X175761*
X175614Y167361*
X175541Y167214*
Y166772*
X175614Y166625*
X176055Y167361*
X159658Y165052D02*
X159658Y165934D01*
X159291Y165346*
X159879*
X160678Y165934D02*
X160678Y165052D01*
X161413*
X161691Y165567D02*
X161838Y165640D01*
X162058*
X162205Y165567*
X162279Y165419*
Y165199*
X162205Y165125*
X162058Y165052*
X161911*
X161764Y165125*
X161691Y165199*
Y165272*
X161764Y165346*
X161911Y165419*
X162058*
X162205Y165346*
X162279Y165272*
Y165199D02*
X162279Y165052D01*
X162541Y165640D02*
X162614Y165346D01*
X162761Y165199*
X162908*
X163055Y165346*
X163129Y165640*
X163055Y165346D02*
X162982Y165052D01*
X162908Y164905*
X162761Y164831*
X162614Y164905*
X163979Y165125D02*
X163905Y165052D01*
X163758*
X163611*
X163464Y165125*
X163391Y165272*
Y165493*
X163464Y165567*
X163611Y165640*
X163758*
X163905Y165567*
X163979Y165493*
Y165419*
X163905Y165346*
X163758Y165272*
X163611*
X163464Y165346*
X163391Y165419*
X164241Y165052D02*
X164241Y165640D01*
Y165419D02*
X164314Y165567D01*
X164461Y165640*
X164608*
X164755Y165567*
X165553Y165052D02*
X166288Y165934D01*
X167250Y165052D02*
X167544Y165052D01*
X167397D02*
X167397Y165934D01*
X167250Y165787*
X168027Y165052D02*
X168100Y165125D01*
X168027Y165199*
X167953Y165125*
X168027Y165052*
X168341Y165125D02*
X168488Y165052D01*
X168708*
X168855Y165125*
X168929Y165272*
Y165346*
X168855Y165493*
X168708Y165567*
X168341*
Y165934*
X168929*
X169191Y165052D02*
X169191Y165640D01*
Y165567D02*
X169264Y165640D01*
X169411*
X169485Y165567*
Y165346*
Y165567D02*
X169558Y165640D01*
X169705*
X169779Y165567*
Y165052*
X170041D02*
X170041Y165640D01*
Y165567D02*
X170114Y165640D01*
X170261*
X170335Y165567*
Y165346*
Y165567D02*
X170408Y165640D01*
X170555*
X170629Y165567*
Y165052*
X171428D02*
X171428Y165934D01*
X171943*
X172090Y165861*
X172163Y165714*
X172090Y165567*
X171943Y165493*
X171428*
X173176Y165199D02*
X173102Y165125D01*
X172955Y165052*
X172735*
X172588Y165125*
X172514Y165199*
X172441Y165346*
Y165640*
X172514Y165787*
X172588Y165861*
X172735Y165934*
X172955*
X173102Y165861*
X173176Y165787*
X173968Y165493D02*
X174115Y165419D01*
X174188Y165272*
X174115Y165125*
X173968Y165052*
X173453*
Y165934*
X173968*
X174115Y165861*
X174188Y165714*
X174115Y165567*
X173968Y165493*
X173453*
D02*
D17*
X71291Y129056D02*
X72291D01*
X74291D02*
X75291D01*
X77291D02*
X78291D01*
X80291D02*
X81291D01*
X83291D02*
X84291D01*
X86291D02*
X87291D01*
X89291D02*
X90291D01*
X92291D02*
X93291D01*
X95291D02*
X96291D01*
X98291D02*
X99291D01*
X101291D02*
X102291D01*
X104291D02*
X105291D01*
X107291D02*
X108291D01*
X110291D02*
X111291D01*
X113291D02*
X114291D01*
X116291D02*
X117291D01*
X119291D02*
X120291D01*
X122291D02*
X123291D01*
X125291D02*
X126291D01*
X128291D02*
X129291D01*
X131291D02*
X132291D01*
X134291D02*
X135291D01*
X137291D02*
X138291D01*
X140291D02*
X141291D01*
X143291D02*
X144291D01*
X146291D02*
X147291D01*
X149291D02*
X150291D01*
X152291D02*
X153291D01*
X155291D02*
X156291D01*
X158291D02*
X159291D01*
X161291D02*
X162291D01*
X164291D02*
X165291D01*
X167291D02*
X168291D01*
X170291D02*
X171291D01*
X173291D02*
X174291D01*
X176291D02*
X177291D01*
X179291D02*
X180291D01*
X182291D02*
X183291D01*
X185291D02*
X186291D01*
X188291D02*
X189291D01*
X75791Y98821D02*
X76791D01*
X78791D02*
X79791D01*
X81791D02*
X82791D01*
X84791D02*
X85791D01*
X87791D02*
X88791D01*
X90791D02*
X91791D01*
X93791D02*
X94791D01*
X96791D02*
X97791D01*
X99791D02*
X100791D01*
X102791D02*
X103791D01*
X105791D02*
X106791D01*
X108791D02*
X109791D01*
X111791D02*
X112791D01*
X114791D02*
X115791D01*
X117791D02*
X118791D01*
X120791D02*
X121791D01*
X123791D02*
X124791D01*
X126791D02*
X127791D01*
X129791D02*
X130791D01*
X132791D02*
X133791D01*
X135791D02*
X136791D01*
X138791D02*
X139791D01*
X141791D02*
X142791D01*
X144791D02*
X145791D01*
X147791D02*
X148791D01*
X150791D02*
X151791D01*
X153791D02*
X154791D01*
X156791D02*
X157791D01*
X159791D02*
X160791D01*
X162791D02*
X163791D01*
X165791D02*
X166791D01*
X168791D02*
X169791D01*
X171791D02*
X172791D01*
X174791D02*
X175791D01*
X177791D02*
X178791D01*
X180791D02*
X181791D01*
X183791D02*
X184791D01*
X75791Y159291D02*
X76791D01*
X78791D02*
X79791D01*
X81791D02*
X82791D01*
X84791D02*
X85791D01*
X87791D02*
X88791D01*
X90791D02*
X91791D01*
X93791D02*
X94791D01*
X96791D02*
X97791D01*
X99791D02*
X100791D01*
X102791D02*
X103791D01*
X105791D02*
X106791D01*
X108791D02*
X109791D01*
X111791D02*
X112791D01*
X114791D02*
X115791D01*
X117791D02*
X118791D01*
X120791D02*
X121791D01*
X123791D02*
X124791D01*
X126791D02*
X127791D01*
X129791D02*
X130791D01*
X132791D02*
X133791D01*
X135791D02*
X136791D01*
X138791D02*
X139791D01*
X141791D02*
X142791D01*
X144791D02*
X145791D01*
X147791D02*
X148791D01*
X150791D02*
X151791D01*
X153791D02*
X154791D01*
X156791D02*
X157791D01*
X159791D02*
X160791D01*
X162791D02*
X163791D01*
X165791D02*
X166791D01*
X168791D02*
X169791D01*
X171791D02*
X172791D01*
X174791D02*
X175791D01*
X177791D02*
X178791D01*
X180791D02*
X181791D01*
X183791D02*
X184791D01*
X79026Y123146D02*
X80438Y123264D01*
X79732Y123734*
X80438Y124205*
X79026Y124323*
X80320Y125707D02*
X80438Y125590D01*
Y125354*
Y125119*
X80320Y124884*
X80085Y124766*
X79732*
X79614Y124884*
X79497Y125119*
Y125354*
X79614Y125590*
X79732Y125707*
X79849*
X79967Y125590*
X80085Y125354*
Y125119*
X79967Y124884*
X79849Y124766*
X80320Y126126D02*
X80438Y126362D01*
Y126832*
X80320Y127067*
X80085*
X79967Y126832*
Y126362*
X79849Y126126*
X79614*
X79497Y126362*
Y126832*
X79614Y127067*
X79497Y127486D02*
X79497Y127957D01*
X79261Y127722D02*
X80320Y127722D01*
X80438Y127839*
Y127957*
X80320Y128074*
X80438Y130206D02*
X79026Y130206D01*
Y131383*
X79732Y131147D02*
X79732Y130206D01*
X80438D02*
X80438Y131383D01*
Y131944D02*
X80438Y131826D01*
X79026*
X80320Y133267D02*
X80438Y133150D01*
Y132914*
Y132679*
X80320Y132444*
X80085Y132326*
X79732*
X79614Y132444*
X79497Y132679*
Y132914*
X79614Y133150*
X79732Y133267*
X79849*
X79967Y133150*
X80085Y132914*
Y132679*
X79967Y132444*
X79849Y132326*
X79614Y134627D02*
X79497Y134392D01*
Y134039*
X79614Y133804*
X79849Y133686*
X80085*
X80320Y133804*
X80438Y134039*
Y134392*
X80320Y134627*
X79497Y135046D02*
X79497Y135517D01*
X79261Y135282D02*
X80320Y135282D01*
X80438Y135399*
Y135517*
X80320Y135634*
X80438Y136046D02*
X79497Y136046D01*
X79849D02*
X79614Y136164D01*
X79497Y136399*
Y136634*
X79614Y136870*
X80085Y137286D02*
X80320Y137404D01*
X80438Y137639*
Y137874*
X80320Y138110*
X80085Y138227*
X79849*
X79614Y138110*
X79497Y137874*
Y137639*
X79614Y137404*
X79849Y137286*
X80085*
X79849Y139587D02*
X79614Y139470D01*
X79497Y139234*
Y138999*
X79614Y138764*
X79849Y138646*
X80085*
X80320Y138764*
X80438Y138999*
Y139234*
X80320Y139470*
X80085Y139587*
X80438D02*
X79026Y139587D01*
X80320Y140947D02*
X80438Y140830D01*
Y140594*
Y140359*
X80320Y140124*
X80085Y140006*
X79732*
X79614Y140124*
X79497Y140359*
Y140594*
X79614Y140830*
X79732Y140947*
X79849*
X79967Y140830*
X80085Y140594*
Y140359*
X79967Y140124*
X79849Y140006*
X82441Y92556D02*
Y93556D01*
Y95556D02*
Y96556D01*
Y98556D02*
Y99556D01*
Y101556D02*
Y102556D01*
Y104556D02*
Y105556D01*
Y107556D02*
Y108556D01*
Y110556D02*
Y111556D01*
Y113556D02*
Y114556D01*
Y116556D02*
Y117556D01*
Y119556D02*
Y120556D01*
Y122556D02*
Y123556D01*
Y125556D02*
Y126556D01*
Y128556D02*
Y129556D01*
Y131556D02*
Y132556D01*
Y134556D02*
Y135556D01*
Y137556D02*
Y138556D01*
Y140556D02*
Y141556D01*
Y143556D02*
Y144556D01*
Y146556D02*
Y147556D01*
Y149556D02*
Y150556D01*
Y152556D02*
Y153556D01*
Y155556D02*
Y156556D01*
Y158556D02*
Y159556D01*
Y161556D02*
Y162556D01*
Y164556D02*
Y165556D01*
X130291Y88056D02*
Y89056D01*
Y91056D02*
Y92056D01*
Y94056D02*
Y95056D01*
Y97056D02*
Y98056D01*
Y100056D02*
Y101056D01*
Y103056D02*
Y104056D01*
Y106056D02*
Y107056D01*
Y109056D02*
Y110056D01*
Y112056D02*
Y113056D01*
Y115056D02*
Y116056D01*
Y118056D02*
Y119056D01*
Y121056D02*
Y122056D01*
Y124056D02*
Y125056D01*
Y127056D02*
Y128056D01*
Y130056D02*
Y131056D01*
Y133056D02*
Y134056D01*
Y136056D02*
Y137056D01*
Y139056D02*
Y140056D01*
Y142056D02*
Y143056D01*
Y145056D02*
Y146056D01*
Y148056D02*
Y149056D01*
Y151056D02*
Y152056D01*
Y154056D02*
Y155056D01*
Y157056D02*
Y158056D01*
Y160056D02*
Y161056D01*
Y163056D02*
Y164056D01*
Y166056D02*
Y167056D01*
Y169056D02*
Y170056D01*
X122957Y127244D02*
X122839Y127127D01*
X122604Y127009*
X122251*
X122016Y127127*
X121898Y127244*
X121781Y127480*
Y127950*
X121898Y128186*
X122016Y128303*
X122251Y128421*
X122604*
X122839Y128303*
X122957Y128186*
X124342Y127127D02*
X124224Y127009D01*
X123989*
X123754*
X123518Y127127*
X123401Y127362*
Y127715*
X123518Y127833*
X123754Y127950*
X123989*
X124224Y127833*
X124342Y127715*
Y127597*
X124224Y127480*
X123989Y127362*
X123754*
X123518Y127480*
X123401Y127597*
X124761Y127009D02*
X124761Y127950D01*
Y127597D02*
X124878Y127833D01*
X125114Y127950*
X125349*
X125584Y127833*
X125702Y127597*
Y127009*
X126121Y127950D02*
X126591Y127950D01*
X126356Y128186D02*
X126356Y127127D01*
X126474Y127009*
X126591*
X126709Y127127*
X128062D02*
X127944Y127009D01*
X127709*
X127474*
X127238Y127127*
X127121Y127362*
Y127715*
X127238Y127833*
X127474Y127950*
X127709*
X127944Y127833*
X128062Y127715*
Y127597*
X127944Y127480*
X127709Y127362*
X127474*
X127238Y127480*
X127121Y127597*
X128481Y127009D02*
X128481Y127950D01*
Y127597D02*
X128598Y127833D01*
X128834Y127950*
X129069*
X129304Y127833*
X131441Y127009D02*
X131441Y128421D01*
X132617*
X132382Y127715D02*
X131441Y127715D01*
Y127009D02*
X132617Y127009D01*
X133178D02*
X133061Y127009D01*
Y128421*
X134502Y127127D02*
X134384Y127009D01*
X134149*
X133914*
X133678Y127127*
X133561Y127362*
Y127715*
X133678Y127833*
X133914Y127950*
X134149*
X134384Y127833*
X134502Y127715*
Y127597*
X134384Y127480*
X134149Y127362*
X133914*
X133678Y127480*
X133561Y127597*
X135862Y127833D02*
X135627Y127950D01*
X135274*
X135038Y127833*
X134921Y127597*
Y127362*
X135038Y127127*
X135274Y127009*
X135627*
X135862Y127127*
X136281Y127950D02*
X136751Y127950D01*
X136516Y128186D02*
X136516Y127127D01*
X136634Y127009*
X136751*
X136869Y127127*
X137281Y127009D02*
X137281Y127950D01*
Y127597D02*
X137398Y127833D01*
X137634Y127950*
X137869*
X138104Y127833*
X138521Y127362D02*
X138638Y127127D01*
X138874Y127009*
X139109*
X139344Y127127*
X139462Y127362*
Y127597*
X139344Y127833*
X139109Y127950*
X138874*
X138638Y127833*
X138521Y127597*
Y127362*
X140822Y127597D02*
X140704Y127833D01*
X140469Y127950*
X140234*
X139998Y127833*
X139881Y127597*
Y127362*
X139998Y127127*
X140234Y127009*
X140469*
X140704Y127127*
X140822Y127362*
Y127009D02*
X140822Y128421D01*
X142182Y127127D02*
X142064Y127009D01*
X141829*
X141594*
X141358Y127127*
X141241Y127362*
Y127715*
X141358Y127833*
X141594Y127950*
X141829*
X142064Y127833*
X142182Y127715*
Y127597*
X142064Y127480*
X141829Y127362*
X141594*
X141358Y127480*
X141241Y127597*
X122901Y95762D02*
X123018Y95527D01*
X123254Y95409*
X123724*
X123959Y95527*
X124077Y95762*
X123959Y95997*
X123724Y96115*
X123254*
X123018Y96233*
X122901Y96468*
X123018Y96703*
X123254Y96821*
X123724*
X123959Y96703*
X124077Y96468*
X124521Y95762D02*
X124638Y95527D01*
X124874Y95409*
X125109*
X125344Y95527*
X125462Y95762*
Y95997*
X125344Y96233*
X125109Y96350*
X124874*
X124638Y96233*
X124521Y95997*
Y95762*
X125881Y96350D02*
X125881Y95762D01*
X125998Y95527*
X126234Y95409*
X126469*
X126704Y95527*
X126822Y95762*
Y96350D02*
X126822Y95409D01*
X127241Y96350D02*
X127711Y96350D01*
X127476Y96586D02*
X127476Y95527D01*
X127594Y95409*
X127711*
X127829Y95527*
X128241Y95409D02*
X128241Y96821D01*
Y95997D02*
X128358Y96233D01*
X128594Y96350*
X128829*
X129064Y96233*
X129182Y95997*
Y95409*
X131321D02*
X131321Y96821D01*
X132497*
X132262Y96115D02*
X131321Y96115D01*
Y95409D02*
X132497Y95409D01*
X133058D02*
X132941Y95409D01*
Y96821*
X134382Y95527D02*
X134264Y95409D01*
X134029*
X133794*
X133558Y95527*
X133441Y95762*
Y96115*
X133558Y96233*
X133794Y96350*
X134029*
X134264Y96233*
X134382Y96115*
Y95997*
X134264Y95880*
X134029Y95762*
X133794*
X133558Y95880*
X133441Y95997*
X135742Y96233D02*
X135507Y96350D01*
X135154*
X134918Y96233*
X134801Y95997*
Y95762*
X134918Y95527*
X135154Y95409*
X135507*
X135742Y95527*
X136161Y96350D02*
X136631Y96350D01*
X136396Y96586D02*
X136396Y95527D01*
X136514Y95409*
X136631*
X136749Y95527*
X137161Y95409D02*
X137161Y96350D01*
Y95997D02*
X137278Y96233D01*
X137514Y96350*
X137749*
X137984Y96233*
X138401Y95762D02*
X138518Y95527D01*
X138754Y95409*
X138989*
X139224Y95527*
X139342Y95762*
Y95997*
X139224Y96233*
X138989Y96350*
X138754*
X138518Y96233*
X138401Y95997*
Y95762*
X140702Y95997D02*
X140584Y96233D01*
X140349Y96350*
X140114*
X139878Y96233*
X139761Y95997*
Y95762*
X139878Y95527*
X140114Y95409*
X140349*
X140584Y95527*
X140702Y95762*
Y95409D02*
X140702Y96821D01*
X142062Y95527D02*
X141944Y95409D01*
X141709*
X141474*
X141238Y95527*
X141121Y95762*
Y96115*
X141238Y96233*
X141474Y96350*
X141709*
X141944Y96233*
X142062Y96115*
Y95997*
X141944Y95880*
X141709Y95762*
X141474*
X141238Y95880*
X141121Y95997*
X122961Y161409D02*
X122961Y162821D01*
X124137Y161409*
Y162821*
X124581Y161762D02*
X124698Y161527D01*
X124934Y161409*
X125169*
X125404Y161527*
X125522Y161762*
Y161997*
X125404Y162233*
X125169Y162350*
X124934*
X124698Y162233*
X124581Y161997*
Y161762*
X125941Y161409D02*
X125941Y162350D01*
Y161997D02*
X126058Y162233D01*
X126294Y162350*
X126529*
X126764Y162233*
X127181Y162350D02*
X127651Y162350D01*
X127416Y162586D02*
X127416Y161527D01*
X127534Y161409*
X127651*
X127769Y161527*
X128181Y161409D02*
X128181Y162821D01*
Y161997D02*
X128298Y162233D01*
X128534Y162350*
X128769*
X129004Y162233*
X129122Y161997*
Y161409*
X131261D02*
X131261Y162821D01*
X132437*
X132202Y162115D02*
X131261Y162115D01*
Y161409D02*
X132437Y161409D01*
X132998D02*
X132881Y161409D01*
Y162821*
X134322Y161527D02*
X134204Y161409D01*
X133969*
X133734*
X133498Y161527*
X133381Y161762*
Y162115*
X133498Y162233*
X133734Y162350*
X133969*
X134204Y162233*
X134322Y162115*
Y161997*
X134204Y161880*
X133969Y161762*
X133734*
X133498Y161880*
X133381Y161997*
X135682Y162233D02*
X135447Y162350D01*
X135094*
X134858Y162233*
X134741Y161997*
Y161762*
X134858Y161527*
X135094Y161409*
X135447*
X135682Y161527*
X136101Y162350D02*
X136571Y162350D01*
X136336Y162586D02*
X136336Y161527D01*
X136454Y161409*
X136571*
X136689Y161527*
X137101Y161409D02*
X137101Y162350D01*
Y161997D02*
X137218Y162233D01*
X137454Y162350*
X137689*
X137924Y162233*
X138341Y161762D02*
X138458Y161527D01*
X138694Y161409*
X138929*
X139164Y161527*
X139282Y161762*
Y161997*
X139164Y162233*
X138929Y162350*
X138694*
X138458Y162233*
X138341Y161997*
Y161762*
X140642Y161997D02*
X140524Y162233D01*
X140289Y162350*
X140054*
X139818Y162233*
X139701Y161997*
Y161762*
X139818Y161527*
X140054Y161409*
X140289*
X140524Y161527*
X140642Y161762*
Y161409D02*
X140642Y162821D01*
X142002Y161527D02*
X141884Y161409D01*
X141649*
X141414*
X141178Y161527*
X141061Y161762*
Y162115*
X141178Y162233*
X141414Y162350*
X141649*
X141884Y162233*
X142002Y162115*
Y161997*
X141884Y161880*
X141649Y161762*
X141414*
X141178Y161880*
X141061Y161997*
X178141Y92556D02*
Y93556D01*
Y95556D02*
Y96556D01*
Y98556D02*
Y99556D01*
Y101556D02*
Y102556D01*
Y104556D02*
Y105556D01*
Y107556D02*
Y108556D01*
Y110556D02*
Y111556D01*
Y113556D02*
Y114556D01*
Y116556D02*
Y117556D01*
Y119556D02*
Y120556D01*
Y122556D02*
Y123556D01*
Y125556D02*
Y126556D01*
Y128556D02*
Y129556D01*
Y131556D02*
Y132556D01*
Y134556D02*
Y135556D01*
Y137556D02*
Y138556D01*
Y140556D02*
Y141556D01*
Y143556D02*
Y144556D01*
Y146556D02*
Y147556D01*
Y149556D02*
Y150556D01*
Y152556D02*
Y153556D01*
Y155556D02*
Y156556D01*
Y158556D02*
Y159556D01*
Y161556D02*
Y162556D01*
Y164556D02*
Y165556D01*
X181438Y123146D02*
X180026Y123146D01*
Y124323*
X180732Y124087D02*
X180732Y123146D01*
X181438D02*
X181438Y124323D01*
X180614Y124766D02*
X180497Y125002D01*
Y125354*
X180614Y125590*
X180849Y125707*
X181202*
X181320Y125590*
X181438Y125354*
Y125119*
X181320Y124884*
X181202Y124766*
X181085*
X180967Y124884*
X180849Y125119*
Y125354*
X180967Y125590*
X181085Y125707*
X181202D02*
X181438Y125707D01*
X181320Y126126D02*
X181438Y126362D01*
Y126832*
X181320Y127067*
X181085*
X180967Y126832*
Y126362*
X180849Y126126*
X180614*
X180497Y126362*
Y126832*
X180614Y127067*
X180497Y127486D02*
X180497Y127957D01*
X180261Y127722D02*
X181320Y127722D01*
X181438Y127839*
Y127957*
X181320Y128074*
X181438Y130206D02*
X180026Y130206D01*
Y131383*
X180732Y131147D02*
X180732Y130206D01*
X181438D02*
X181438Y131383D01*
Y131944D02*
X181438Y131826D01*
X180026*
X181320Y133267D02*
X181438Y133150D01*
Y132914*
Y132679*
X181320Y132444*
X181085Y132326*
X180732*
X180614Y132444*
X180497Y132679*
Y132914*
X180614Y133150*
X180732Y133267*
X180849*
X180967Y133150*
X181085Y132914*
Y132679*
X180967Y132444*
X180849Y132326*
X180614Y134627D02*
X180497Y134392D01*
Y134039*
X180614Y133804*
X180849Y133686*
X181085*
X181320Y133804*
X181438Y134039*
Y134392*
X181320Y134627*
X180497Y135046D02*
X180497Y135517D01*
X180261Y135282D02*
X181320Y135282D01*
X181438Y135399*
Y135517*
X181320Y135634*
X181438Y136046D02*
X180497Y136046D01*
X180849D02*
X180614Y136164D01*
X180497Y136399*
Y136634*
X180614Y136870*
X181085Y137286D02*
X181320Y137404D01*
X181438Y137639*
Y137874*
X181320Y138110*
X181085Y138227*
X180849*
X180614Y138110*
X180497Y137874*
Y137639*
X180614Y137404*
X180849Y137286*
X181085*
X180849Y139587D02*
X180614Y139470D01*
X180497Y139234*
Y138999*
X180614Y138764*
X180849Y138646*
X181085*
X181320Y138764*
X181438Y138999*
Y139234*
X181320Y139470*
X181085Y139587*
X181438D02*
X180026Y139587D01*
X181320Y140947D02*
X181438Y140830D01*
Y140594*
Y140359*
X181320Y140124*
X181085Y140006*
X180732*
X180614Y140124*
X180497Y140359*
Y140594*
X180614Y140830*
X180732Y140947*
X180849*
X180967Y140830*
X181085Y140594*
Y140359*
X180967Y140124*
X180849Y140006*
D02*
D1845*
X88880Y169999D02*
G75*
G03Y169433J-283D01*
G01*
G75*
G03Y169999J283*
G01*
X88879Y169952D02*
G75*
G03Y169480J-236D01*
G01*
G75*
G03Y169952J236*
G01*
X88597Y169716D02*
G36*
G75*
G03X88880Y169433I283D01*
G01*
G75*
G03X89163Y169716J283*
G01*
X89115*
G75*
G02X88879Y169480I-236*
G01*
G75*
G02X88643Y169716J236*
G01*
X88597*
G37*
X88643D02*
G36*
G75*
G02X88879Y169952I236D01*
G01*
G75*
G02X89115Y169716J-236*
G01*
X89163*
G75*
G03X88880Y169999I-283*
G01*
G75*
G03X88597Y169716J-283*
G01*
X88643*
G37*
X89011Y169561D02*
X88921Y169701D01*
X88961Y169711*
X88986Y169726*
X89001Y169756*
X89006Y169791*
X89001Y169826*
X88981Y169856*
X88946Y169871*
X88896Y169876*
X88771*
Y169561*
X88816*
Y169696*
X88876*
X88956Y169561*
X89011*
X88951Y169791D02*
X88946Y169771D01*
X88931Y169756*
X88911Y169741*
X88876Y169736*
X88816*
Y169841*
X88886*
X88916Y169836*
X88936Y169826*
X88951Y169811*
Y169791*
X88771Y169789D02*
G36*
Y169561D01*
X88816*
Y169696*
X88876*
X88956Y169561*
X89011*
X88921Y169701*
X88961Y169711*
X88986Y169726*
X89001Y169756*
X89006Y169789*
X88951*
X88946Y169771*
X88931Y169756*
X88911Y169741*
X88876Y169736*
X88816*
Y169789*
X88771*
G37*
X88816D02*
G36*
Y169841D01*
X88886*
X88916Y169836*
X88936Y169826*
X88951Y169811*
Y169791*
X88951Y169789*
X89006*
X89006Y169791*
X89001Y169826*
X88981Y169856*
X88946Y169871*
X88896Y169876*
X88771*
Y169789*
X88816*
G37*
X89561Y167606D02*
X89551Y167516D01*
X89541Y167436*
X89526Y167371*
X89516Y167321*
X89501Y167271*
X89481Y167206*
X89456Y167126*
X89426Y167031*
X88091Y169131*
X88061Y169171*
X88031Y169206*
X88001Y169236*
X87971Y169261*
X87911Y169291*
X87876Y169296*
X87846Y169301*
X87786Y169286*
X87731Y169256*
X87676Y169211*
X87621Y169141*
X87181Y168521*
X88746Y166041*
X88546Y165881*
X88441Y165806*
X88231Y165676*
X88121Y165621*
X88011Y165571*
X87781Y165481*
X87661Y165446*
X87541Y165416*
X87421Y165396*
X87296Y165376*
X87171Y165361*
X86911Y165351*
X86776Y165356*
X86646Y165361*
X86516Y165381*
X86391Y165401*
X86266Y165426*
X86146Y165461*
X86026Y165501*
X85906Y165551*
X85791Y165601*
X85681Y165661*
X85571Y165726*
X85461Y165796*
X85356Y165876*
X85251Y165961*
X85151Y166051*
X85051Y166146*
X85731Y167081*
X85751Y167121*
X85766Y167161*
X85776Y167251*
X85766Y167281*
X85751Y167321*
X85726Y167366*
X85696Y167421*
X85196Y168206*
X84461Y167171*
X84421Y167331*
X84391Y167496*
X84376Y167671*
X84371Y167846*
X84381Y168086*
X84396Y168201*
X84416Y168316*
X84441Y168426*
X84471Y168536*
X84511Y168646*
X84551Y168751*
X84601Y168851*
X84651Y168956*
X84711Y169051*
X84776Y169151*
X84846Y169246*
X84921Y169336*
X85091Y169516*
X85191Y169606*
X85291Y169691*
X85391Y169766*
X85496Y169841*
X85606Y169906*
X85721Y169966*
X85831Y170021*
X85951Y170071*
X86071Y170116*
X86196Y170151*
X86321Y170181*
X86451Y170211*
X86581Y170231*
X86716Y170246*
X86996Y170256*
X87116Y170251*
X87241Y170241*
X87366Y170221*
X87496Y170196*
X87626Y170161*
X87761Y170121*
X87896Y170071*
X88031Y170016*
X89561Y167606*
X87657Y167055D02*
X86337Y169140D01*
X86312Y169180*
X86282Y169215*
X86257Y169245*
X86197Y169285*
X86162Y169300*
X86132Y169305*
X86097Y169310*
X86042Y169300*
X85982Y169270*
X85927Y169220*
X85867Y169150*
X85427Y168530*
X86757Y166445*
X86787Y166400*
X86817Y166360*
X86842Y166325*
X86867Y166300*
X86892Y166280*
X86917Y166265*
X86942Y166255*
X86962Y166250*
X87032Y166260*
X87092Y166285*
X87147Y166330*
X87197Y166390*
X87657Y167055*
X85468Y167780D02*
G36*
X85696Y167421D01*
X85726Y167366*
X85751Y167321*
X85766Y167281*
X85776Y167251*
X85766Y167161*
X85751Y167121*
X85731Y167081*
X85051Y166146*
X85151Y166051*
X85251Y165961*
X85356Y165876*
X85461Y165796*
X85571Y165726*
X85681Y165661*
X85791Y165601*
X85906Y165551*
X86026Y165501*
X86146Y165461*
X86266Y165426*
X86391Y165401*
X86516Y165381*
X86646Y165361*
X86776Y165356*
X86911Y165351*
X87171Y165361*
X87296Y165376*
X87421Y165396*
X87541Y165416*
X87661Y165446*
X87781Y165481*
X88011Y165571*
X88121Y165621*
X88231Y165676*
X88441Y165806*
X88546Y165881*
X88746Y166041*
X87649Y167780*
X87198*
X87657Y167055*
X87197Y166390*
X87147Y166330*
X87092Y166285*
X87032Y166260*
X86962Y166250*
X86942Y166255*
X86917Y166265*
X86892Y166280*
X86867Y166300*
X86842Y166325*
X86817Y166360*
X86787Y166400*
X86757Y166445*
X85906Y167780*
X85468*
G37*
X85906D02*
G36*
X85427Y168530D01*
X85867Y169150*
X85927Y169220*
X85982Y169270*
X86042Y169300*
X86097Y169310*
X86132Y169305*
X86162Y169300*
X86197Y169285*
X86257Y169245*
X86282Y169215*
X86312Y169180*
X86337Y169140*
X87198Y167780*
X87649*
X87181Y168521*
X87621Y169141*
X87676Y169211*
X87731Y169256*
X87786Y169286*
X87846Y169301*
X87876Y169296*
X87911Y169291*
X87971Y169261*
X88001Y169236*
X88031Y169206*
X88061Y169171*
X88091Y169131*
X89426Y167031*
X89456Y167126*
X89481Y167206*
X89501Y167271*
X89516Y167321*
X89526Y167371*
X89541Y167436*
X89551Y167516*
X89561Y167606*
X88031Y170016*
X87896Y170071*
X87761Y170121*
X87626Y170161*
X87496Y170196*
X87366Y170221*
X87241Y170241*
X87116Y170251*
X86996Y170256*
X86716Y170246*
X86581Y170231*
X86451Y170211*
X86321Y170181*
X86196Y170151*
X86071Y170116*
X85951Y170071*
X85831Y170021*
X85721Y169966*
X85606Y169906*
X85496Y169841*
X85391Y169766*
X85291Y169691*
X85191Y169606*
X85091Y169516*
X84921Y169336*
X84846Y169246*
X84776Y169151*
X84711Y169051*
X84651Y168956*
X84601Y168851*
X84551Y168751*
X84511Y168646*
X84471Y168536*
X84441Y168426*
X84416Y168316*
X84396Y168201*
X84381Y168086*
X84371Y167846*
X84376Y167671*
X84391Y167496*
X84421Y167331*
X84461Y167171*
X85196Y168206*
X85468Y167780*
X85906*
G37*
X92966Y166716D02*
X92511D01*
X92381Y168286*
X92376*
X91896Y167031*
X91871Y166981*
X91846Y166941*
X91816Y166901*
X91781Y166871*
X91746Y166846*
X91706Y166831*
X91661Y166821*
X91611Y166816*
X91561Y166821*
X91516Y166831*
X91476Y166846*
X91441Y166871*
X91406Y166901*
X91376Y166941*
X91351Y166981*
X91326Y167031*
X90856Y168266*
X90851*
X90716Y166716*
X90251*
X90486Y168921*
X90496Y168971*
X90516Y169016*
X90541Y169061*
X90571Y169101*
X90611Y169141*
X90651Y169166*
X90696Y169181*
X90741Y169186*
X90801Y169181*
X90851Y169171*
X90901Y169151*
X90946Y169126*
X90986Y169091*
X91021Y169046*
X91051Y169001*
X91076Y168941*
X91611Y167601*
X91616*
X92146Y168941*
X92171Y169001*
X92241Y169091*
X92281Y169126*
X92321Y169151*
X92371Y169171*
X92421Y169181*
X92481Y169186*
X92526Y169181*
X92571Y169166*
X92611Y169136*
X92651Y169101*
X92681Y169056*
X92706Y169006*
X92726Y168956*
X92736Y168896*
X92966Y166716*
G36*
X92511*
X92381Y168286*
X92376*
X91896Y167031*
X91871Y166981*
X91846Y166941*
X91816Y166901*
X91781Y166871*
X91746Y166846*
X91706Y166831*
X91661Y166821*
X91611Y166816*
X91561Y166821*
X91516Y166831*
X91476Y166846*
X91441Y166871*
X91406Y166901*
X91376Y166941*
X91351Y166981*
X91326Y167031*
X90856Y168266*
X90851*
X90716Y166716*
X90251*
X90486Y168921*
X90496Y168971*
X90516Y169016*
X90541Y169061*
X90571Y169101*
X90611Y169141*
X90651Y169166*
X90696Y169181*
X90741Y169186*
X90801Y169181*
X90851Y169171*
X90901Y169151*
X90946Y169126*
X90986Y169091*
X91021Y169046*
X91051Y169001*
X91076Y168941*
X91611Y167601*
X91616*
X92146Y168941*
X92171Y169001*
X92241Y169091*
X92281Y169126*
X92321Y169151*
X92371Y169171*
X92421Y169181*
X92481Y169186*
X92526Y169181*
X92571Y169166*
X92611Y169136*
X92651Y169101*
X92681Y169056*
X92706Y169006*
X92726Y168956*
X92736Y168896*
X92966Y166716*
G37*
X93636D02*
X93211D01*
Y168581*
X93636*
Y166716*
G36*
X93211*
Y168581*
X93636*
Y166716*
G37*
X95536Y167176D02*
Y167106D01*
X95531Y167046*
X95526Y166991*
X95521Y166941*
X95516Y166901*
X95506Y166866*
X95496Y166836*
X95481Y166811*
X95461Y166786*
X95431Y166761*
X95401Y166741*
X95361Y166726*
X95316Y166711*
X95266Y166701*
X95206Y166696*
X94436*
X94311Y166701*
X94206Y166721*
X94121Y166756*
X94051Y166801*
X94011Y166846*
X93976Y166896*
X93946Y166956*
X93921Y167021*
X93901Y167096*
X93886Y167181*
X93881Y167271*
X93876Y167371*
Y167926*
X93881Y168016*
X93886Y168101*
X93896Y168181*
X93911Y168251*
X93931Y168311*
X93951Y168366*
X93981Y168416*
X94011Y168456*
X94046Y168491*
X94086Y168521*
X94131Y168546*
X94181Y168566*
X94241Y168581*
X94301Y168591*
X94366Y168601*
X95251*
X95301Y168596*
X95346Y168586*
X95386Y168566*
X95421Y168546*
X95451Y168521*
X95471Y168491*
X95491Y168456*
X95501Y168416*
X95511Y168361*
X95516Y168291*
X95521Y168211*
Y168111*
X94516*
X94441Y168106*
X94386Y168086*
X94341Y168051*
X94311Y168001*
X94296Y167956*
X94286Y167901*
X94281Y167831*
Y167486*
X94286Y167426*
X94291Y167376*
X94296Y167331*
X94306Y167296*
X94321Y167266*
X94336Y167241*
X94351Y167221*
X94381Y167201*
X94416Y167186*
X94456Y167176*
X95536*
G36*
Y167106*
X95531Y167046*
X95526Y166991*
X95521Y166941*
X95516Y166901*
X95506Y166866*
X95496Y166836*
X95481Y166811*
X95461Y166786*
X95431Y166761*
X95401Y166741*
X95361Y166726*
X95316Y166711*
X95266Y166701*
X95206Y166696*
X94436*
X94311Y166701*
X94206Y166721*
X94121Y166756*
X94051Y166801*
X94011Y166846*
X93976Y166896*
X93946Y166956*
X93921Y167021*
X93901Y167096*
X93886Y167181*
X93881Y167271*
X93876Y167371*
Y167926*
X93881Y168016*
X93886Y168101*
X93896Y168181*
X93911Y168251*
X93931Y168311*
X93951Y168366*
X93981Y168416*
X94011Y168456*
X94046Y168491*
X94086Y168521*
X94131Y168546*
X94181Y168566*
X94241Y168581*
X94301Y168591*
X94366Y168601*
X95251*
X95301Y168596*
X95346Y168586*
X95386Y168566*
X95421Y168546*
X95451Y168521*
X95471Y168491*
X95491Y168456*
X95501Y168416*
X95511Y168361*
X95516Y168291*
X95521Y168211*
Y168111*
X94516*
X94441Y168106*
X94386Y168086*
X94341Y168051*
X94311Y168001*
X94296Y167956*
X94286Y167901*
X94281Y167831*
Y167486*
X94286Y167426*
X94291Y167376*
X94296Y167331*
X94306Y167296*
X94321Y167266*
X94336Y167241*
X94351Y167221*
X94381Y167201*
X94416Y167186*
X94456Y167176*
X95536*
G37*
X97021Y167811D02*
Y167921D01*
X97016Y167981*
X97006Y168031*
X96991Y168066*
X96966Y168091*
X96946Y168101*
X96921Y168111*
X96886Y168116*
X96161*
Y167666*
X96911*
X96941Y167676*
X96966Y167691*
X96986Y167706*
X97001Y167731*
X97011Y167766*
X97021Y167811*
X97406Y167911D02*
X97401Y167821D01*
X97396Y167741*
X97381Y167671*
X97366Y167616*
X97336Y167561*
X97296Y167516*
X97246Y167476*
X97181Y167451*
Y167446*
X97236Y167426*
X97276Y167396*
X97316Y167361*
X97346Y167311*
X97371Y167256*
X97386Y167191*
X97396Y167116*
X97401Y167031*
Y166716*
X97006*
Y167001*
X97001Y167046*
X96996Y167086*
X96986Y167116*
X96966Y167151*
X96936Y167181*
X96896Y167196*
X96846Y167201*
X96161*
Y166716*
X95771*
Y168581*
X97021*
X97111Y168576*
X97191Y168551*
X97256Y168511*
X97311Y168456*
X97331Y168421*
X97351Y168381*
X97366Y168336*
X97381Y168286*
X97391Y168231*
X97401Y168101*
X97406Y168031*
Y167911*
X97021Y167811D02*
Y167921D01*
X97016Y167981*
X97006Y168031*
X96991Y168066*
X96966Y168091*
X96946Y168101*
X96921Y168111*
X96886Y168116*
X96161*
Y167666*
X96911*
X96941Y167676*
X96966Y167691*
X96986Y167706*
X97001Y167731*
X97011Y167766*
X97021Y167811*
X95771Y167891D02*
G36*
Y166716D01*
X96161*
Y167201*
X96846*
X96896Y167196*
X96936Y167181*
X96966Y167151*
X96986Y167116*
X96996Y167086*
X97001Y167046*
X97006Y167001*
Y166716*
X97401*
Y167031*
X97396Y167116*
X97386Y167191*
X97371Y167256*
X97346Y167311*
X97316Y167361*
X97276Y167396*
X97236Y167426*
X97181Y167446*
Y167451*
X97246Y167476*
X97296Y167516*
X97336Y167561*
X97366Y167616*
X97381Y167671*
X97396Y167741*
X97401Y167821*
X97405Y167891*
X97021*
Y167811*
X97011Y167766*
X97001Y167731*
X96986Y167706*
X96966Y167691*
X96941Y167676*
X96911Y167666*
X96161*
Y167891*
X95771*
G37*
X96161D02*
G36*
Y168116D01*
X96886*
X96921Y168111*
X96946Y168101*
X96966Y168091*
X96991Y168066*
X97006Y168031*
X97016Y167981*
X97021Y167921*
Y167891*
X97405*
X97406Y167911*
Y168031*
X97401Y168101*
X97391Y168231*
X97381Y168286*
X97366Y168336*
X97351Y168381*
X97331Y168421*
X97311Y168456*
X97256Y168511*
X97191Y168551*
X97111Y168576*
X97021Y168581*
X95771*
Y167891*
X96161*
G37*
X99386Y168011D02*
Y167281D01*
X99376Y167196*
X99366Y167116*
X99351Y167046*
X99326Y166981*
X99301Y166921*
X99271Y166871*
X99241Y166826*
X99166Y166771*
X99071Y166726*
X98961Y166701*
X98826Y166696*
X98121*
X98051Y166706*
X97986Y166721*
X97926Y166741*
X97871Y166766*
X97821Y166796*
X97781Y166836*
X97746Y166876*
X97721Y166916*
X97681Y167016*
X97666Y167076*
X97656Y167141*
X97646Y167211*
X97641Y167291*
Y168036*
X97651Y168136*
X97671Y168226*
X97691Y168306*
X97721Y168376*
X97756Y168436*
X97801Y168486*
X97851Y168526*
X97916Y168556*
X97996Y168581*
X98091Y168596*
X98201Y168601*
X98901*
X98976Y168591*
X99041Y168576*
X99096Y168556*
X99151Y168531*
X99196Y168501*
X99236Y168466*
X99271Y168421*
X99301Y168381*
X99341Y168281*
X99356Y168221*
X99371Y168156*
X99381Y168086*
X99386Y168011*
X98986Y167545D02*
Y167750D01*
X98981Y167845*
X98971Y167925*
X98951Y167990*
X98926Y168040*
X98891Y168075*
X98851Y168100*
X98796Y168115*
X98736Y168120*
X98281*
X98211Y168115*
X98151Y168090*
X98106Y168055*
X98071Y168005*
X98056Y167960*
X98046Y167900*
X98041Y167830*
X98036Y167750*
Y167490*
X98041Y167435*
X98046Y167385*
X98051Y167345*
X98061Y167305*
X98071Y167275*
X98086Y167250*
X98101Y167230*
X98131Y167205*
X98166Y167190*
X98211Y167180*
X98261Y167175*
X98761*
X98831Y167180*
X98886Y167205*
X98931Y167245*
X98961Y167295*
X98971Y167335*
X98976Y167390*
X98981Y167460*
X98986Y167545*
X97641Y167648D02*
G36*
Y167291D01*
X97646Y167211*
X97656Y167141*
X97666Y167076*
X97681Y167016*
X97721Y166916*
X97746Y166876*
X97781Y166836*
X97821Y166796*
X97871Y166766*
X97926Y166741*
X97986Y166721*
X98051Y166706*
X98121Y166696*
X98826*
X98961Y166701*
X99071Y166726*
X99166Y166771*
X99241Y166826*
X99271Y166871*
X99301Y166921*
X99326Y166981*
X99351Y167046*
X99366Y167116*
X99376Y167196*
X99386Y167281*
Y167648*
X98986*
Y167545*
X98981Y167460*
X98976Y167390*
X98971Y167335*
X98961Y167295*
X98931Y167245*
X98886Y167205*
X98831Y167180*
X98761Y167175*
X98261*
X98211Y167180*
X98166Y167190*
X98131Y167205*
X98101Y167230*
X98086Y167250*
X98071Y167275*
X98061Y167305*
X98051Y167345*
X98046Y167385*
X98041Y167435*
X98036Y167490*
Y167648*
X97641*
G37*
X98036D02*
G36*
Y167750D01*
X98041Y167830*
X98046Y167900*
X98056Y167960*
X98071Y168005*
X98106Y168055*
X98151Y168090*
X98211Y168115*
X98281Y168120*
X98736*
X98796Y168115*
X98851Y168100*
X98891Y168075*
X98926Y168040*
X98951Y167990*
X98971Y167925*
X98981Y167845*
X98986Y167750*
Y167648*
X99386*
Y168011*
X99381Y168086*
X99371Y168156*
X99356Y168221*
X99341Y168281*
X99301Y168381*
X99271Y168421*
X99236Y168466*
X99196Y168501*
X99151Y168531*
X99096Y168556*
X99041Y168576*
X98976Y168591*
X98901Y168601*
X98201*
X98091Y168596*
X97996Y168581*
X97916Y168556*
X97851Y168526*
X97801Y168486*
X97756Y168436*
X97721Y168376*
X97691Y168306*
X97671Y168226*
X97651Y168136*
X97641Y168036*
Y167648*
X98036*
G37*
X101261Y167171D02*
Y167106D01*
X101256Y167046*
X101251Y166991*
X101246Y166941*
X101241Y166901*
X101231Y166866*
X101216Y166836*
X101206Y166811*
X101186Y166786*
X101156Y166761*
X101121Y166736*
X101081Y166721*
X101036Y166706*
X100986Y166696*
X100926Y166691*
X100081*
X100011Y166701*
X99946Y166716*
X99886Y166736*
X99831Y166761*
X99786Y166791*
X99746Y166831*
X99711Y166871*
X99681Y166911*
X99641Y167011*
X99626Y167071*
X99611Y167136*
X99606Y167206*
X99596Y167366*
Y167926*
X99601Y168011*
X99606Y168086*
X99611Y168156*
X99626Y168221*
X99641Y168281*
X99681Y168381*
X99711Y168421*
X99746Y168466*
X99786Y168501*
X99831Y168531*
X99886Y168556*
X99946Y168576*
X100011Y168591*
X100081Y168601*
X100816*
X100901Y168596*
X100971Y168591*
X101031Y168581*
X101076Y168576*
X101111Y168566*
X101136Y168556*
X101161Y168531*
X101186Y168501*
X101201Y168456*
X101216Y168406*
X101226Y168346*
X101236Y168276*
X101241Y168196*
Y168106*
X100236Y168111*
X100166Y168106*
X100106Y168081*
X100066Y168046*
X100031Y167996*
X100016Y167951*
X100006Y167901*
X100001Y167831*
Y167446*
X100011Y167361*
X100026Y167296*
X100046Y167251*
X100076Y167216*
X100116Y167191*
X100166Y167176*
X100226Y167171*
X101261*
G36*
Y167106*
X101256Y167046*
X101251Y166991*
X101246Y166941*
X101241Y166901*
X101231Y166866*
X101216Y166836*
X101206Y166811*
X101186Y166786*
X101156Y166761*
X101121Y166736*
X101081Y166721*
X101036Y166706*
X100986Y166696*
X100926Y166691*
X100081*
X100011Y166701*
X99946Y166716*
X99886Y166736*
X99831Y166761*
X99786Y166791*
X99746Y166831*
X99711Y166871*
X99681Y166911*
X99641Y167011*
X99626Y167071*
X99611Y167136*
X99606Y167206*
X99596Y167366*
Y167926*
X99601Y168011*
X99606Y168086*
X99611Y168156*
X99626Y168221*
X99641Y168281*
X99681Y168381*
X99711Y168421*
X99746Y168466*
X99786Y168501*
X99831Y168531*
X99886Y168556*
X99946Y168576*
X100011Y168591*
X100081Y168601*
X100816*
X100901Y168596*
X100971Y168591*
X101031Y168581*
X101076Y168576*
X101111Y168566*
X101136Y168556*
X101161Y168531*
X101186Y168501*
X101201Y168456*
X101216Y168406*
X101226Y168346*
X101236Y168276*
X101241Y168196*
Y168106*
X100236Y168111*
X100166Y168106*
X100106Y168081*
X100066Y168046*
X100031Y167996*
X100016Y167951*
X100006Y167901*
X100001Y167831*
Y167446*
X100011Y167361*
X100026Y167296*
X100046Y167251*
X100076Y167216*
X100116Y167191*
X100166Y167176*
X100226Y167171*
X101261*
G37*
X103096Y166716D02*
X102701D01*
Y167421*
X101876*
Y166716*
X101491*
Y168581*
X101876*
Y167916*
X102701*
Y168581*
X103096*
Y166716*
G36*
X102701*
Y167421*
X101876*
Y166716*
X101491*
Y168581*
X101876*
Y167916*
X102701*
Y168581*
X103096*
Y166716*
G37*
X103801D02*
X103371D01*
Y168581*
X103801*
Y166716*
G36*
X103371*
Y168581*
X103801*
Y166716*
G37*
X105721Y167786D02*
X105716Y167641D01*
X105701Y167521*
X105671Y167421*
X105631Y167336*
X105581Y167271*
X105521Y167221*
X105446Y167196*
X105361Y167186*
X104441*
Y166716*
X104056*
Y168581*
X105261*
X105376Y168571*
X105471Y168546*
X105551Y168496*
X105616Y168426*
X105641Y168386*
X105661Y168341*
X105681Y168286*
X105696Y168231*
X105716Y168101*
X105721Y168026*
Y167786*
X105321Y167801D02*
Y167921D01*
X105316Y167966*
X105311Y168006*
X105296Y168041*
X105281Y168066*
X105256Y168091*
X105231Y168106*
X105196Y168116*
X104441*
Y167651*
X105191*
X105251Y167661*
X105291Y167701*
X105301Y167726*
X105311Y167761*
X105321Y167801*
X104056Y167884D02*
G36*
Y166716D01*
X104441*
Y167186*
X105361*
X105446Y167196*
X105521Y167221*
X105581Y167271*
X105631Y167336*
X105671Y167421*
X105701Y167521*
X105716Y167641*
X105721Y167786*
Y167884*
X105321*
Y167801*
X105311Y167761*
X105301Y167726*
X105291Y167701*
X105251Y167661*
X105191Y167651*
X104441*
Y167884*
X104056*
G37*
X104441D02*
G36*
Y168116D01*
X105196*
X105231Y168106*
X105256Y168091*
X105281Y168066*
X105296Y168041*
X105311Y168006*
X105316Y167966*
X105321Y167921*
Y167884*
X105721*
Y168026*
X105716Y168101*
X105696Y168231*
X105681Y168286*
X105661Y168341*
X105641Y168386*
X105616Y168426*
X105551Y168496*
X105471Y168546*
X105376Y168571*
X105261Y168581*
X104056*
Y167884*
X104441*
G37*
X0Y0D02*
M02*
