G04 GENERATED BY PULSONIX 7.0 GERBER.DLL 4573*
%INHILLSTAR_95X60_4LAYER_EL_V1_0_2*%
%LNGERBER_INNER2*%
%FSLAX33Y33*%
%IPPOS*%
%LPD*%
%OFA0B0*%
%MOMM*%
%ADD15C,0.125*%
%ADD145C,0.400*%
%ADD146C,0.250*%
%ADD345C,0.150*%
%ADD1893C,0.750*%
X0Y0D02*
D02*
D15*
X182064Y87225D02*
X182211Y87152D01*
X182358*
X182505Y87225*
X182579Y87372*
X182505Y87519*
X182358Y87593*
X182211*
X182358D02*
X182505Y87667D01*
X182579Y87814*
X182505Y87961*
X182358Y88034*
X182211*
X182064Y87961*
D02*
D145*
X130291Y130739D02*
Y130356D01*
Y132773D02*
Y133156D01*
Y135239D02*
Y134856D01*
Y135873D02*
Y136256D01*
D02*
D146*
X70991Y164456D02*
Y93556D01*
X73291*
G75*
G02X77291Y89556J-4000*
G01*
Y87256*
X179491*
Y88456*
G75*
G02X179691Y88656I200*
G01*
X183291*
Y89556*
G75*
G02X187291Y93556I4000*
G01*
X189591*
Y164556*
X187291*
G75*
G02X183291Y168556J4000*
G01*
Y170856*
X77291*
Y168556*
G75*
G02X73291Y164556I-4000*
G01*
X71091*
G75*
G03X70991Y164456J-100*
G01*
X82491Y128606D02*
G75*
G02X81141Y129056I-600J450D01*
G01*
G75*
G02X82491Y129506I750*
G01*
X87441*
Y152291*
G75*
G02X89441Y154291I2000*
G01*
X128841*
Y159256*
G75*
G02X128541Y159856I450J600*
G01*
G75*
G02X130041I750*
G01*
G75*
G02X129741Y159256I-750*
G01*
Y154291*
X171141*
G75*
G02X173141Y152291J-2000*
G01*
Y129506*
X178091*
G75*
G02X179441Y129056I600J-450*
G01*
G75*
G02X178091Y128606I-750*
G01*
X173141*
Y105821*
G75*
G02X171141Y103821I-2000*
G01*
X132741*
Y98856*
G75*
G02X133041Y98256I-450J-600*
G01*
G75*
G02X131541I-750*
G01*
G75*
G02X131841Y98856I750*
G01*
Y103821*
X89441*
G75*
G02X87441Y105821J2000*
G01*
Y128606*
X82491*
X77291Y88800D02*
X183291D01*
X76952Y91168D02*
X183630D01*
X73695Y93536D02*
X186887D01*
X70991Y95904D02*
X189591D01*
X70991Y98272D02*
X131541D01*
X133040D02*
X189591D01*
X70991Y100640D02*
X131841D01*
X132741D02*
X189591D01*
X70991Y103008D02*
X131841D01*
X132741D02*
X189591D01*
X70991Y105376D02*
X87491D01*
X173090D02*
X189591D01*
X70991Y107744D02*
X87441D01*
X173141D02*
X189591D01*
X70991Y110112D02*
X87441D01*
X173141D02*
X189591D01*
X70991Y112480D02*
X87441D01*
X173141D02*
X189591D01*
X70991Y114848D02*
X87441D01*
X173141D02*
X189591D01*
X70991Y117216D02*
X87441D01*
X173141D02*
X189591D01*
X70991Y119584D02*
X87441D01*
X173141D02*
X189591D01*
X70991Y121952D02*
X87441D01*
X173141D02*
X189591D01*
X70991Y124320D02*
X87441D01*
X173141D02*
X189591D01*
X70991Y126688D02*
X87441D01*
X173141D02*
X189591D01*
X70991Y129056D02*
X81141D01*
X179441D02*
X189591D01*
X70991Y131424D02*
X87441D01*
X173141D02*
X189591D01*
X70991Y133792D02*
X87441D01*
X173141D02*
X189591D01*
X70991Y136160D02*
X87441D01*
X173141D02*
X189591D01*
X70991Y138528D02*
X87441D01*
X173141D02*
X189591D01*
X70991Y140896D02*
X87441D01*
X173141D02*
X189591D01*
X70991Y143264D02*
X87441D01*
X173141D02*
X189591D01*
X70991Y145632D02*
X87441D01*
X173141D02*
X189591D01*
X70991Y148000D02*
X87441D01*
X173141D02*
X189591D01*
X70991Y150369D02*
X87441D01*
X173141D02*
X189591D01*
X70991Y152737D02*
X87491D01*
X173090D02*
X189591D01*
X70991Y155105D02*
X128841D01*
X129741D02*
X189591D01*
X70991Y157473D02*
X128841D01*
X129741D02*
X189591D01*
X70991Y159841D02*
X128541D01*
X130040D02*
X189591D01*
X70991Y162209D02*
X189591D01*
X73695Y164577D02*
X186887D01*
X76952Y166945D02*
X183630D01*
X77291Y169313D02*
X183291D01*
X73458Y93553D02*
Y164560D01*
X75826Y92650D02*
Y165462D01*
X78194Y87256D02*
Y170856D01*
X80562Y87256D02*
Y170856D01*
X82930Y87256D02*
Y128606D01*
Y129506D02*
Y170856D01*
X85298Y87256D02*
Y128606D01*
Y129506D02*
Y170856D01*
X87666Y87256D02*
Y104899D01*
Y153214D02*
Y170856D01*
X90034Y87256D02*
Y103821D01*
Y154291D02*
Y170856D01*
X92402Y87256D02*
Y103821D01*
Y154291D02*
Y170856D01*
X94770Y87256D02*
Y103821D01*
Y154291D02*
Y170856D01*
X97138Y87256D02*
Y103821D01*
Y154291D02*
Y170856D01*
X99506Y87256D02*
Y103821D01*
Y154291D02*
Y170856D01*
X101874Y87256D02*
Y103821D01*
Y154291D02*
Y170856D01*
X104242Y87256D02*
Y103821D01*
Y154291D02*
Y170856D01*
X106610Y87256D02*
Y103821D01*
Y154291D02*
Y170856D01*
X108978Y87256D02*
Y103821D01*
Y154291D02*
Y170856D01*
X111346Y87256D02*
Y103821D01*
Y154291D02*
Y170856D01*
X113714Y87256D02*
Y103821D01*
Y154291D02*
Y170856D01*
X116082Y87256D02*
Y103821D01*
Y154291D02*
Y170856D01*
X118450Y87256D02*
Y103821D01*
Y154291D02*
Y170856D01*
X120819Y87256D02*
Y103821D01*
Y154291D02*
Y170856D01*
X123187Y87256D02*
Y103821D01*
Y154291D02*
Y170856D01*
X125555Y87256D02*
Y103821D01*
Y154291D02*
Y170856D01*
X127923Y87256D02*
Y103821D01*
Y154291D02*
Y170856D01*
X130291Y87256D02*
Y103821D01*
Y154291D02*
Y170856D01*
X132659Y87256D02*
Y97603D01*
Y154291D02*
Y170856D01*
X135027Y87256D02*
Y103821D01*
Y154291D02*
Y170856D01*
X137395Y87256D02*
Y103821D01*
Y154291D02*
Y170856D01*
X139763Y87256D02*
Y103821D01*
Y154291D02*
Y170856D01*
X142131Y87256D02*
Y103821D01*
Y154291D02*
Y170856D01*
X144499Y87256D02*
Y103821D01*
Y154291D02*
Y170856D01*
X146867Y87256D02*
Y103821D01*
Y154291D02*
Y170856D01*
X149235Y87256D02*
Y103821D01*
Y154291D02*
Y170856D01*
X151603Y87256D02*
Y103821D01*
Y154291D02*
Y170856D01*
X153971Y87256D02*
Y103821D01*
Y154291D02*
Y170856D01*
X156339Y87256D02*
Y103821D01*
Y154291D02*
Y170856D01*
X158707Y87256D02*
Y103821D01*
Y154291D02*
Y170856D01*
X161075Y87256D02*
Y103821D01*
Y154291D02*
Y170856D01*
X163443Y87256D02*
Y103821D01*
Y154291D02*
Y170856D01*
X165811Y87256D02*
Y103821D01*
Y154291D02*
Y170856D01*
X168179Y87256D02*
Y103821D01*
Y154291D02*
Y170856D01*
X170547Y87256D02*
Y103821D01*
Y154291D02*
Y170856D01*
X172915Y87256D02*
Y104899D01*
Y153214D02*
Y170856D01*
X175283Y87256D02*
Y128606D01*
Y129506D02*
Y170856D01*
X177651Y87256D02*
Y128606D01*
Y129506D02*
Y170856D01*
X180019Y88656D02*
Y170856D01*
X182387Y88656D02*
Y170856D01*
X184755Y92650D02*
Y165462D01*
X187123Y93553D02*
Y164560D01*
X189491Y93556D02*
Y164556D01*
X87441Y128606D02*
Y105821D01*
G75*
G03X89441Y103821I2000*
G01*
X131841*
Y131856*
G75*
G02X131742Y132968I450J600*
G01*
X130972Y133738*
G75*
G02X130841Y134056I318J317*
G01*
Y134956*
G75*
G02X130754Y135032I452J605*
G01*
G75*
G02X129827I-463J524*
G01*
G75*
G02X129741Y134956I-538J523*
G01*
Y134056*
G75*
G02X129609Y133738I-450*
G01*
X128839Y132968*
G75*
G02X129041Y132456I-548J-512*
G01*
G75*
G02X127541I-750*
G01*
G75*
G02X127841Y133056I750*
G01*
G75*
G02X127972Y133374I449J1*
G01*
X128841Y134243*
Y134956*
G75*
G02X128791Y134997I450J600*
G01*
G75*
G02X128741Y134956I-500J559*
G01*
Y134556*
G75*
G02X128609Y134238I-450*
G01*
X126741Y132370*
Y131656*
G75*
G02Y130456I-450J-600*
G01*
Y130056*
G75*
G02X126609Y129738I-450*
G01*
X125609Y128738*
G75*
G02X125291Y128606I-318J318*
G01*
X87441*
X130291Y131756D02*
G75*
G02X129591Y132456J700D01*
G01*
G75*
G02X130991I700*
G01*
G75*
G02X130291Y131756I-700*
G01*
G75*
G02X130991Y131056J-700*
G01*
G75*
G02X129591I-700*
G01*
G75*
G02X130291Y131756I700*
G01*
X88138Y104303D02*
X131841D01*
X87554Y105157D02*
X131841D01*
X87441Y106010D02*
X131841D01*
X87441Y106864D02*
X131841D01*
X87441Y107718D02*
X131841D01*
X87441Y108571D02*
X131841D01*
X87441Y109425D02*
X131841D01*
X87441Y110278D02*
X131841D01*
X87441Y111132D02*
X131841D01*
X87441Y111985D02*
X131841D01*
X87441Y112839D02*
X131841D01*
X87441Y113692D02*
X131841D01*
X87441Y114546D02*
X131841D01*
X87441Y115399D02*
X131841D01*
X87441Y116253D02*
X131841D01*
X87441Y117107D02*
X131841D01*
X87441Y117960D02*
X131841D01*
X87441Y118814D02*
X131841D01*
X87441Y119667D02*
X131841D01*
X87441Y120521D02*
X131841D01*
X87441Y121374D02*
X131841D01*
X87441Y122228D02*
X131841D01*
X87441Y123081D02*
X131841D01*
X87441Y123935D02*
X131841D01*
X87441Y124789D02*
X131841D01*
X87441Y125642D02*
X131841D01*
X87441Y126496D02*
X131841D01*
X87441Y127349D02*
X131841D01*
X87441Y128203D02*
X131841D01*
X125927Y129056D02*
X131841D01*
X126716Y129910D02*
X131841D01*
X126981Y130763D02*
X129655D01*
X130926D02*
X131841D01*
X126789Y131617D02*
X129872D01*
X130710D02*
X131841D01*
X126841Y132470D02*
X127541D01*
X129041D02*
X129591D01*
X130990D02*
X131541D01*
X127695Y133324D02*
X127929D01*
X129195D02*
X131386D01*
X128548Y134178D02*
X128776D01*
X129741D02*
X130841D01*
X129826Y135031D02*
X129828D01*
X130753D02*
X130755D01*
X88467Y104074D02*
Y128606D01*
X89320Y103825D02*
Y128606D01*
X90174Y103821D02*
Y128606D01*
X91027Y103821D02*
Y128606D01*
X91881Y103821D02*
Y128606D01*
X92734Y103821D02*
Y128606D01*
X93588Y103821D02*
Y128606D01*
X94442Y103821D02*
Y128606D01*
X95295Y103821D02*
Y128606D01*
X96149Y103821D02*
Y128606D01*
X97002Y103821D02*
Y128606D01*
X97856Y103821D02*
Y128606D01*
X98709Y103821D02*
Y128606D01*
X99563Y103821D02*
Y128606D01*
X100416Y103821D02*
Y128606D01*
X101270Y103821D02*
Y128606D01*
X102123Y103821D02*
Y128606D01*
X102977Y103821D02*
Y128606D01*
X103831Y103821D02*
Y128606D01*
X104684Y103821D02*
Y128606D01*
X105538Y103821D02*
Y128606D01*
X106391Y103821D02*
Y128606D01*
X107245Y103821D02*
Y128606D01*
X108098Y103821D02*
Y128606D01*
X108952Y103821D02*
Y128606D01*
X109805Y103821D02*
Y128606D01*
X110659Y103821D02*
Y128606D01*
X111513Y103821D02*
Y128606D01*
X112366Y103821D02*
Y128606D01*
X113220Y103821D02*
Y128606D01*
X114073Y103821D02*
Y128606D01*
X114927Y103821D02*
Y128606D01*
X115780Y103821D02*
Y128606D01*
X116634Y103821D02*
Y128606D01*
X117487Y103821D02*
Y128606D01*
X118341Y103821D02*
Y128606D01*
X119194Y103821D02*
Y128606D01*
X120048Y103821D02*
Y128606D01*
X120902Y103821D02*
Y128606D01*
X121755Y103821D02*
Y128606D01*
X122609Y103821D02*
Y128606D01*
X123462Y103821D02*
Y128606D01*
X124316Y103821D02*
Y128606D01*
X125169Y103821D02*
Y128606D01*
X126023Y103821D02*
Y129152D01*
X126876Y103821D02*
Y130588D01*
Y131525D02*
Y132506D01*
X127730Y103821D02*
Y131958D01*
Y132954D02*
Y133359D01*
X128584Y103821D02*
Y131766D01*
Y133986D02*
Y134213D01*
X129437Y103821D02*
Y133566D01*
X130291Y103821D02*
Y130356D01*
Y133156D02*
Y134856D01*
X131144Y103821D02*
Y133566D01*
X87441Y129506D02*
X125104D01*
X125841Y130243*
Y130456*
G75*
G02Y131656I450J600*
G01*
Y132556*
G75*
G02X125972Y132874I449J1*
G01*
X127841Y134743*
Y134956*
G75*
G02X127791Y134997I450J600*
G01*
G75*
G02X126833Y134962I-500J559*
G01*
X126033Y134162*
G75*
G02X125185Y133314I-742J-106*
G01*
X124839Y132968*
G75*
G02X124560Y131756I-548J-512*
G01*
G75*
G02X125041Y131056I-269J-700*
G01*
G75*
G02X123541I-750*
G01*
G75*
G02X124021Y131756I750J1*
G01*
G75*
G02X123841Y133056I270J700*
G01*
G75*
G02X123972Y133374I449J1*
G01*
X124548Y133950*
G75*
G02X125397Y134799I743J106*
G01*
X126472Y135874*
G75*
G02X126681Y135993I320J-319*
G01*
G75*
G02X127791Y136115I610J-437*
G01*
G75*
G02X128791I500J-559*
G01*
G75*
G02X128841Y136156I500J-559*
G01*
Y154291*
X89441*
G75*
G03X87441Y152291J-2000*
G01*
Y129506*
Y129910D02*
X125508D01*
X87441Y130763D02*
X123600D01*
X124981D02*
X125600D01*
X87441Y131617D02*
X123792D01*
X124789D02*
X125792D01*
X87441Y132470D02*
X123541D01*
X125041D02*
X125841D01*
X87441Y133324D02*
X123929D01*
X125453D02*
X126422D01*
X87441Y134178D02*
X124551D01*
X126048D02*
X127276D01*
X87441Y135031D02*
X125629D01*
X87441Y135885D02*
X126483D01*
X87441Y136738D02*
X128841D01*
X87441Y137592D02*
X128841D01*
X87441Y138445D02*
X128841D01*
X87441Y139299D02*
X128841D01*
X87441Y140152D02*
X128841D01*
X87441Y141006D02*
X128841D01*
X87441Y141860D02*
X128841D01*
X87441Y142713D02*
X128841D01*
X87441Y143567D02*
X128841D01*
X87441Y144420D02*
X128841D01*
X87441Y145274D02*
X128841D01*
X87441Y146127D02*
X128841D01*
X87441Y146981D02*
X128841D01*
X87441Y147834D02*
X128841D01*
X87441Y148688D02*
X128841D01*
X87441Y149541D02*
X128841D01*
X87441Y150395D02*
X128841D01*
X87441Y151249D02*
X128841D01*
X87441Y152102D02*
X128841D01*
X87554Y152956D02*
X128841D01*
X88138Y153809D02*
X128841D01*
X88467Y129506D02*
Y154038D01*
X89320Y129506D02*
Y154288D01*
X90174Y129506D02*
Y154291D01*
X91027Y129506D02*
Y154291D01*
X91881Y129506D02*
Y154291D01*
X92734Y129506D02*
Y154291D01*
X93588Y129506D02*
Y154291D01*
X94442Y129506D02*
Y154291D01*
X95295Y129506D02*
Y154291D01*
X96149Y129506D02*
Y154291D01*
X97002Y129506D02*
Y154291D01*
X97856Y129506D02*
Y154291D01*
X98709Y129506D02*
Y154291D01*
X99563Y129506D02*
Y154291D01*
X100416Y129506D02*
Y154291D01*
X101270Y129506D02*
Y154291D01*
X102123Y129506D02*
Y154291D01*
X102977Y129506D02*
Y154291D01*
X103831Y129506D02*
Y154291D01*
X104684Y129506D02*
Y154291D01*
X105538Y129506D02*
Y154291D01*
X106391Y129506D02*
Y154291D01*
X107245Y129506D02*
Y154291D01*
X108098Y129506D02*
Y154291D01*
X108952Y129506D02*
Y154291D01*
X109805Y129506D02*
Y154291D01*
X110659Y129506D02*
Y154291D01*
X111513Y129506D02*
Y154291D01*
X112366Y129506D02*
Y154291D01*
X113220Y129506D02*
Y154291D01*
X114073Y129506D02*
Y154291D01*
X114927Y129506D02*
Y154291D01*
X115780Y129506D02*
Y154291D01*
X116634Y129506D02*
Y154291D01*
X117487Y129506D02*
Y154291D01*
X118341Y129506D02*
Y154291D01*
X119194Y129506D02*
Y154291D01*
X120048Y129506D02*
Y154291D01*
X120902Y129506D02*
Y154291D01*
X121755Y129506D02*
Y154291D01*
X122609Y129506D02*
Y154291D01*
X123462Y129506D02*
Y154291D01*
X124316Y129506D02*
Y130307D01*
Y133718D02*
Y154291D01*
X125169Y129571D02*
Y133299D01*
Y134796D02*
Y154291D01*
X126023Y132925D02*
Y133894D01*
Y135425D02*
Y154291D01*
X126876Y133778D02*
Y134931D01*
Y136182D02*
Y154291D01*
X127730Y134632D02*
Y134948D01*
Y136164D02*
Y154291D01*
X128584Y136247D02*
Y154291D01*
X129741D02*
Y136156D01*
G75*
G02X129827Y136081I-446J-598*
G01*
G75*
G02X130754I464J-524*
G01*
G75*
G02X131791Y136115I536J-525*
G01*
G75*
G02X133041Y135556I500J-559*
G01*
G75*
G02X132741Y134956I-750*
G01*
Y134743*
X134609Y132874*
G75*
G02X134741Y132556I-318J-318*
G01*
Y131656*
G75*
G02Y130456I-450J-600*
G01*
Y130243*
X135477Y129506*
X173141*
Y152291*
G75*
G03X171141Y154291I-2000*
G01*
X129741*
X136291Y131756D02*
G75*
G02X135591Y132456J700D01*
G01*
G75*
G02X136991I700*
G01*
G75*
G02X136291Y131756I-700*
G01*
G75*
G02X136991Y131056J-700*
G01*
G75*
G02X135591I-700*
G01*
G75*
G02X136291Y131756I700*
G01*
X135073Y129910D02*
X173141D01*
X134981Y130763D02*
X135655D01*
X136926D02*
X173141D01*
X134789Y131617D02*
X135872D01*
X136710D02*
X173141D01*
X134741Y132470D02*
X135591D01*
X136990D02*
X173141D01*
X134159Y133324D02*
X173141D01*
X133306Y134178D02*
X173141D01*
X132826Y135031D02*
X173141D01*
X132965Y135885D02*
X173141D01*
X129741Y136738D02*
X173141D01*
X129741Y137592D02*
X173141D01*
X129741Y138445D02*
X173141D01*
X129741Y139299D02*
X173141D01*
X129741Y140152D02*
X173141D01*
X129741Y141006D02*
X173141D01*
X129741Y141860D02*
X173141D01*
X129741Y142713D02*
X173141D01*
X129741Y143567D02*
X173141D01*
X129741Y144420D02*
X173141D01*
X129741Y145274D02*
X173141D01*
X129741Y146127D02*
X173141D01*
X129741Y146981D02*
X173141D01*
X129741Y147834D02*
X173141D01*
X129741Y148688D02*
X173141D01*
X129741Y149541D02*
X173141D01*
X129741Y150395D02*
X173141D01*
X129741Y151249D02*
X173141D01*
X129741Y152102D02*
X173141D01*
X129741Y152956D02*
X173027D01*
X129741Y153809D02*
X172443D01*
X130291Y136256D02*
Y154291D01*
X131144Y136292D02*
Y154291D01*
X131998Y136247D02*
Y154291D01*
X132851Y134632D02*
Y135058D01*
Y136054D02*
Y154291D01*
X133705Y133778D02*
Y154291D01*
X134558Y132925D02*
Y154291D01*
X135412Y129571D02*
Y154291D01*
X136265Y129506D02*
Y130357D01*
Y131756D02*
Y131757D01*
Y133156D02*
Y154291D01*
X137119Y129506D02*
Y154291D01*
X137973Y129506D02*
Y154291D01*
X138826Y129506D02*
Y154291D01*
X139680Y129506D02*
Y154291D01*
X140533Y129506D02*
Y154291D01*
X141387Y129506D02*
Y154291D01*
X142240Y129506D02*
Y154291D01*
X143094Y129506D02*
Y154291D01*
X143947Y129506D02*
Y154291D01*
X144801Y129506D02*
Y154291D01*
X145655Y129506D02*
Y154291D01*
X146508Y129506D02*
Y154291D01*
X147362Y129506D02*
Y154291D01*
X148215Y129506D02*
Y154291D01*
X149069Y129506D02*
Y154291D01*
X149922Y129506D02*
Y154291D01*
X150776Y129506D02*
Y154291D01*
X151629Y129506D02*
Y154291D01*
X152483Y129506D02*
Y154291D01*
X153336Y129506D02*
Y154291D01*
X154190Y129506D02*
Y154291D01*
X155044Y129506D02*
Y154291D01*
X155897Y129506D02*
Y154291D01*
X156751Y129506D02*
Y154291D01*
X157604Y129506D02*
Y154291D01*
X158458Y129506D02*
Y154291D01*
X159311Y129506D02*
Y154291D01*
X160165Y129506D02*
Y154291D01*
X161018Y129506D02*
Y154291D01*
X161872Y129506D02*
Y154291D01*
X162726Y129506D02*
Y154291D01*
X163579Y129506D02*
Y154291D01*
X164433Y129506D02*
Y154291D01*
X165286Y129506D02*
Y154291D01*
X166140Y129506D02*
Y154291D01*
X166993Y129506D02*
Y154291D01*
X167847Y129506D02*
Y154291D01*
X168700Y129506D02*
Y154291D01*
X169554Y129506D02*
Y154291D01*
X170407Y129506D02*
Y154291D01*
X171261Y129506D02*
Y154288D01*
X172115Y129506D02*
Y154038D01*
X172968Y129506D02*
Y153104D01*
X132741Y103821D02*
X171141D01*
G75*
G03X173141Y105821J2000*
G01*
Y128606*
X135291*
G75*
G02X134972Y128738J451*
G01*
X133972Y129738*
G75*
G02X133841Y130056I318J317*
G01*
Y130456*
G75*
G02Y131656I450J600*
G01*
Y132370*
X131972Y134238*
G75*
G02X131841Y134556I318J317*
G01*
Y134956*
G75*
G02X131791Y134997I450J600*
G01*
G75*
G02X131741Y134956I-500J559*
G01*
Y134243*
X132609Y133374*
G75*
G02X132741Y133056I-318J-318*
G01*
G75*
G02Y131856I-450J-600*
G01*
Y103821*
Y104303D02*
X172443D01*
X132741Y105157D02*
X173027D01*
X132741Y106010D02*
X173141D01*
X132741Y106864D02*
X173141D01*
X132741Y107718D02*
X173141D01*
X132741Y108571D02*
X173141D01*
X132741Y109425D02*
X173141D01*
X132741Y110278D02*
X173141D01*
X132741Y111132D02*
X173141D01*
X132741Y111985D02*
X173141D01*
X132741Y112839D02*
X173141D01*
X132741Y113692D02*
X173141D01*
X132741Y114546D02*
X173141D01*
X132741Y115399D02*
X173141D01*
X132741Y116253D02*
X173141D01*
X132741Y117107D02*
X173141D01*
X132741Y117960D02*
X173141D01*
X132741Y118814D02*
X173141D01*
X132741Y119667D02*
X173141D01*
X132741Y120521D02*
X173141D01*
X132741Y121374D02*
X173141D01*
X132741Y122228D02*
X173141D01*
X132741Y123081D02*
X173141D01*
X132741Y123935D02*
X173141D01*
X132741Y124789D02*
X173141D01*
X132741Y125642D02*
X173141D01*
X132741Y126496D02*
X173141D01*
X132741Y127349D02*
X173141D01*
X132741Y128203D02*
X173141D01*
X132741Y129056D02*
X134654D01*
X132741Y129910D02*
X133865D01*
X132741Y130763D02*
X133600D01*
X132741Y131617D02*
X133792D01*
X133041Y132470D02*
X133740D01*
X132652Y133324D02*
X132886D01*
X131806Y134178D02*
X132033D01*
X131998Y133986D02*
Y134213D01*
X132851Y103821D02*
Y131958D01*
Y132954D02*
Y133359D01*
X133705Y103821D02*
Y130588D01*
Y131525D02*
Y132506D01*
X134558Y103821D02*
Y129152D01*
X135412Y103821D02*
Y128606D01*
X136265Y103821D02*
Y128606D01*
X137119Y103821D02*
Y128606D01*
X137973Y103821D02*
Y128606D01*
X138826Y103821D02*
Y128606D01*
X139680Y103821D02*
Y128606D01*
X140533Y103821D02*
Y128606D01*
X141387Y103821D02*
Y128606D01*
X142240Y103821D02*
Y128606D01*
X143094Y103821D02*
Y128606D01*
X143947Y103821D02*
Y128606D01*
X144801Y103821D02*
Y128606D01*
X145655Y103821D02*
Y128606D01*
X146508Y103821D02*
Y128606D01*
X147362Y103821D02*
Y128606D01*
X148215Y103821D02*
Y128606D01*
X149069Y103821D02*
Y128606D01*
X149922Y103821D02*
Y128606D01*
X150776Y103821D02*
Y128606D01*
X151629Y103821D02*
Y128606D01*
X152483Y103821D02*
Y128606D01*
X153336Y103821D02*
Y128606D01*
X154190Y103821D02*
Y128606D01*
X155044Y103821D02*
Y128606D01*
X155897Y103821D02*
Y128606D01*
X156751Y103821D02*
Y128606D01*
X157604Y103821D02*
Y128606D01*
X158458Y103821D02*
Y128606D01*
X159311Y103821D02*
Y128606D01*
X160165Y103821D02*
Y128606D01*
X161018Y103821D02*
Y128606D01*
X161872Y103821D02*
Y128606D01*
X162726Y103821D02*
Y128606D01*
X163579Y103821D02*
Y128606D01*
X164433Y103821D02*
Y128606D01*
X165286Y103821D02*
Y128606D01*
X166140Y103821D02*
Y128606D01*
X166993Y103821D02*
Y128606D01*
X167847Y103821D02*
Y128606D01*
X168700Y103821D02*
Y128606D01*
X169554Y103821D02*
Y128606D01*
X170407Y103821D02*
Y128606D01*
X171261Y103825D02*
Y128606D01*
X172115Y104074D02*
Y128606D01*
X172968Y105009D02*
Y128606D01*
D02*
D345*
X81891Y129056D02*
X125291D01*
X126291Y130056*
Y131056*
X125291Y134056D02*
X126791Y135556D01*
X127291*
X125291Y134056D02*
X124291Y133056D01*
Y132456*
X126291Y131056D02*
Y132556D01*
X128291Y134556*
Y135556*
X129291D02*
Y134056D01*
X128291Y133056*
Y132456*
X129291Y159856D02*
Y135556D01*
X130291Y132456D02*
Y135556D01*
X132291Y132456D02*
Y133056D01*
X131291Y134056*
Y135556*
X132291Y132456D02*
Y98256D01*
X134291Y131056D02*
Y132556D01*
X132291Y134556*
Y135556*
X134291Y131056D02*
Y130056D01*
X135291Y129056*
X178691*
D02*
D1893*
X81891D03*
X124291Y131056D03*
Y132456D03*
X125291Y134056D03*
X126291Y131056D03*
X127291Y135556D03*
X128291Y132456D03*
Y135556D03*
X129291D03*
Y159856D03*
X130291Y131056D03*
Y132456D03*
Y135556D03*
X131291D03*
X132291Y98256D03*
Y132456D03*
Y135556D03*
X134291Y131056D03*
X136291D03*
Y132456D03*
X178691Y129056D03*
X0Y0D02*
M02*
