G04 GENERATED BY PULSONIX 7.0 GERBER.DLL 4573*
%INHILLSTAR_95X60_4LAYER_EL_V1_0_2*%
%LNGERBER_TOP*%
%FSLAX33Y33*%
%IPPOS*%
%LPD*%
%OFA0B0*%
%MOMM*%
%ADD15C,0.125*%
%ADD180C,0.600*%
%ADD345C,0.150*%
X0Y0D02*
D02*
D15*
X180138Y87152D02*
X180432Y87152D01*
X180285D02*
X180285Y88034D01*
X180138Y87887*
D02*
D180*
X81891Y129056D03*
X124291Y131056D03*
Y132456D03*
X125291Y134056D03*
X126291Y131056D03*
X127291Y135556D03*
X128291Y132456D03*
Y135556D03*
X129291D03*
Y159856D03*
X130291Y131056D03*
Y132456D03*
Y135556D03*
X131291D03*
X132291Y98256D03*
Y132456D03*
Y135556D03*
X134291Y131056D03*
X136291D03*
Y132456D03*
X178691Y129056D03*
D02*
D345*
X80441Y164291D02*
X79441D01*
G75*
G03X77441Y162291J-2000*
G01*
Y95821*
G75*
G03X79441Y93821I2000*
G01*
X80441*
G75*
G03X82441Y95821J2000*
G01*
Y162291*
G75*
G03X80441Y164291I-2000*
G01*
G36*
X79441*
G75*
G03X77441Y162291J-2000*
G01*
Y95821*
G75*
G03X79441Y93821I2000*
G01*
X80441*
G75*
G03X82441Y95821J2000*
G01*
Y162291*
G75*
G03X80441Y164291I-2000*
G01*
G37*
X84441Y96821D02*
Y95821D01*
G75*
G03X86441Y93821I2000*
G01*
X174141*
G75*
G03X176141Y95821J2000*
G01*
Y96821*
G75*
G03X174141Y98821I-2000*
G01*
X86441*
G75*
G03X84441Y96821J-2000*
G01*
G36*
Y95821*
G75*
G03X86441Y93821I2000*
G01*
X174141*
G75*
G03X176141Y95821J2000*
G01*
Y96821*
G75*
G03X174141Y98821I-2000*
G01*
X86441*
G75*
G03X84441Y96821J-2000*
G01*
G37*
Y162291D02*
Y161291D01*
G75*
G03X86441Y159291I2000*
G01*
X174141*
G75*
G03X176141Y161291J2000*
G01*
Y162291*
G75*
G03X174141Y164291I-2000*
G01*
X86441*
G75*
G03X84441Y162291J-2000*
G01*
G36*
Y161291*
G75*
G03X86441Y159291I2000*
G01*
X174141*
G75*
G03X176141Y161291J2000*
G01*
Y162291*
G75*
G03X174141Y164291I-2000*
G01*
X86441*
G75*
G03X84441Y162291J-2000*
G01*
G37*
X89441Y154291D02*
G75*
G03X87441Y152291J-2000D01*
G01*
Y105821*
G75*
G03X89441Y103821I2000*
G01*
X171141*
G75*
G03X173141Y105821J2000*
G01*
Y152291*
G75*
G03X171141Y154291I-2000*
G01*
X89441*
X161197Y103821D02*
X173141Y115765D01*
X147161Y103821D02*
X173141Y129800D01*
X133126Y103821D02*
X173141Y143836D01*
X119091Y103821D02*
X169561Y154291D01*
X105056Y103821D02*
X155526Y154291D01*
X91020Y103821D02*
X141490Y154291D01*
X87441Y114277D02*
X127455Y154291D01*
X87441Y128312D02*
X113420Y154291D01*
X87441Y142347D02*
X99385Y154291D01*
Y103821D02*
X87441Y115765D01*
X113420Y103821D02*
X87441Y129800D01*
X127455Y103821D02*
X87441Y143836D01*
X141490Y103821D02*
X91020Y154291D01*
X155526Y103821D02*
X105056Y154291D01*
X169561Y103821D02*
X119091Y154291D01*
X173141Y114277D02*
X133126Y154291D01*
X173141Y128312D02*
X147161Y154291D01*
X173141Y142347D02*
X161197Y154291D01*
X178141Y162291D02*
Y95821D01*
G75*
G03X180141Y93821I2000*
G01*
X181141*
G75*
G03X183141Y95821J2000*
G01*
Y162291*
G75*
G03X181141Y164291I-2000*
G01*
X180141*
G75*
G03X178141Y162291J-2000*
G01*
G36*
Y95821*
G75*
G03X180141Y93821I2000*
G01*
X181141*
G75*
G03X183141Y95821J2000*
G01*
Y162291*
G75*
G03X181141Y164291I-2000*
G01*
X180141*
G75*
G03X178141Y162291J-2000*
G01*
G37*
X0Y0D02*
M02*
