M48
;Layer_Color=9474304
;FILE_FORMAT=2:5
INCH,TZ
;TYPE=PLATED
T1F00S00C0.01181
T2F00S00C0.03543
;TYPE=NON_PLATED
T3F00S00C0.02165
%
T01
X-32236Y-84640
X-20425
X-8614
X3198
X15009
X26820
X38631
Y-37396
X15009
X3198
X-8614
X-32236
X-44047
X-38141Y-49207
X-26330Y-25585
X-19685Y0
X-14625Y-2098
X-11841Y4882
X-7666Y9057
X-13605Y17257
X-17137Y16271
X-17782Y13081
X-10217Y20951
X-5799Y23939
X-2761Y20901
X2761Y20902
X2098Y14625
X4882Y11841
X9057Y7665
X13234Y-3489
X9057Y-7666
X3198Y-13774
X705Y-16017
X9103Y-25585
X20914Y-49207
X21654Y0
X16400Y15800
Y19200
X15009Y33470
X38631
X44536Y21659
X5120Y49882
Y52819
X2560Y54819
X-0Y49882
X-5700
X-26330Y45281
X-32236Y33470
X-38141Y21659
X-9057Y-7665
T02
X-47244Y-82913
Y-72913
X-47244Y-62913
X-47244Y-52913
Y-42913
Y-32913
X-47244Y-22913
X-47244Y-12913
Y-2913
Y7087
Y17087
X-47244Y27087
X-47244Y37087
Y47087
Y57087
X47244
Y47087
X47244Y37087
Y27087
X47244Y17087
X47244Y7087
Y-2913
X47244Y-12913
Y-22913
Y-32913
X47244Y-42913
X47244Y-52913
Y-62913
X47244Y-72913
X47244Y-82913
T03
X-7873Y44978
X7875Y44978
M30
