G04*
G04 #@! TF.GenerationSoftware,Altium Limited,Altium Designer,23.2.1 (34)*
G04*
G04 Layer_Physical_Order=1*
G04 Layer_Color=255*
%FSLAX25Y25*%
%MOIN*%
G70*
G04*
G04 #@! TF.SameCoordinates,2D16543A-974C-4BE6-9D28-3C7F8BE36A88*
G04*
G04*
G04 #@! TF.FilePolarity,Positive*
G04*
G01*
G75*
%ADD11C,0.01181*%
%ADD13C,0.00787*%
%ADD36C,0.00984*%
%ADD37C,0.01575*%
%ADD38R,0.07874X0.05512*%
%ADD39R,0.06299X0.03937*%
%ADD40R,0.01575X0.07874*%
G04:AMPARAMS|DCode=41|XSize=35.43mil|YSize=38mil|CornerRadius=3.54mil|HoleSize=0mil|Usage=FLASHONLY|Rotation=270.000|XOffset=0mil|YOffset=0mil|HoleType=Round|Shape=RoundedRectangle|*
%AMROUNDEDRECTD41*
21,1,0.03543,0.03091,0,0,270.0*
21,1,0.02835,0.03800,0,0,270.0*
1,1,0.00709,-0.01546,-0.01417*
1,1,0.00709,-0.01546,0.01417*
1,1,0.00709,0.01546,0.01417*
1,1,0.00709,0.01546,-0.01417*
%
%ADD41ROUNDEDRECTD41*%
%ADD42C,0.03000*%
G04:AMPARAMS|DCode=43|XSize=35.43mil|YSize=38mil|CornerRadius=3.54mil|HoleSize=0mil|Usage=FLASHONLY|Rotation=180.000|XOffset=0mil|YOffset=0mil|HoleType=Round|Shape=RoundedRectangle|*
%AMROUNDEDRECTD43*
21,1,0.03543,0.03091,0,0,180.0*
21,1,0.02835,0.03800,0,0,180.0*
1,1,0.00709,-0.01417,0.01546*
1,1,0.00709,0.01417,0.01546*
1,1,0.00709,0.01417,-0.01546*
1,1,0.00709,-0.01417,-0.01546*
%
%ADD43ROUNDEDRECTD43*%
%ADD44O,0.01102X0.03543*%
%ADD45O,0.03543X0.01102*%
%ADD46R,0.14567X0.14567*%
%ADD47R,0.05512X0.04724*%
G04:AMPARAMS|DCode=48|XSize=47.24mil|YSize=55.12mil|CornerRadius=9.45mil|HoleSize=0mil|Usage=FLASHONLY|Rotation=270.000|XOffset=0mil|YOffset=0mil|HoleType=Round|Shape=RoundedRectangle|*
%AMROUNDEDRECTD48*
21,1,0.04724,0.03622,0,0,270.0*
21,1,0.02835,0.05512,0,0,270.0*
1,1,0.01890,-0.01811,-0.01417*
1,1,0.01890,-0.01811,0.01417*
1,1,0.01890,0.01811,0.01417*
1,1,0.01890,0.01811,-0.01417*
%
%ADD48ROUNDEDRECTD48*%
G04:AMPARAMS|DCode=49|XSize=31mil|YSize=38mil|CornerRadius=7.75mil|HoleSize=0mil|Usage=FLASHONLY|Rotation=0.000|XOffset=0mil|YOffset=0mil|HoleType=Round|Shape=RoundedRectangle|*
%AMROUNDEDRECTD49*
21,1,0.03100,0.02250,0,0,0.0*
21,1,0.01550,0.03800,0,0,0.0*
1,1,0.01550,0.00775,-0.01125*
1,1,0.01550,-0.00775,-0.01125*
1,1,0.01550,-0.00775,0.01125*
1,1,0.01550,0.00775,0.01125*
%
%ADD49ROUNDEDRECTD49*%
G04:AMPARAMS|DCode=50|XSize=31mil|YSize=38mil|CornerRadius=7.75mil|HoleSize=0mil|Usage=FLASHONLY|Rotation=270.000|XOffset=0mil|YOffset=0mil|HoleType=Round|Shape=RoundedRectangle|*
%AMROUNDEDRECTD50*
21,1,0.03100,0.02250,0,0,270.0*
21,1,0.01550,0.03800,0,0,270.0*
1,1,0.01550,-0.01125,-0.00775*
1,1,0.01550,-0.01125,0.00775*
1,1,0.01550,0.01125,0.00775*
1,1,0.01550,0.01125,-0.00775*
%
%ADD50ROUNDEDRECTD50*%
G04:AMPARAMS|DCode=51|XSize=20mil|YSize=25mil|CornerRadius=5mil|HoleSize=0mil|Usage=FLASHONLY|Rotation=0.000|XOffset=0mil|YOffset=0mil|HoleType=Round|Shape=RoundedRectangle|*
%AMROUNDEDRECTD51*
21,1,0.02000,0.01500,0,0,0.0*
21,1,0.01000,0.02500,0,0,0.0*
1,1,0.01000,0.00500,-0.00750*
1,1,0.01000,-0.00500,-0.00750*
1,1,0.01000,-0.00500,0.00750*
1,1,0.01000,0.00500,0.00750*
%
%ADD51ROUNDEDRECTD51*%
G04:AMPARAMS|DCode=52|XSize=20mil|YSize=25mil|CornerRadius=5mil|HoleSize=0mil|Usage=FLASHONLY|Rotation=270.000|XOffset=0mil|YOffset=0mil|HoleType=Round|Shape=RoundedRectangle|*
%AMROUNDEDRECTD52*
21,1,0.02000,0.01500,0,0,270.0*
21,1,0.01000,0.02500,0,0,270.0*
1,1,0.01000,-0.00750,-0.00500*
1,1,0.01000,-0.00750,0.00500*
1,1,0.01000,0.00750,0.00500*
1,1,0.01000,0.00750,-0.00500*
%
%ADD52ROUNDEDRECTD52*%
%ADD53C,0.02362*%
%ADD54R,0.06693X0.07087*%
%ADD55O,0.06693X0.07087*%
%ADD56C,0.02362*%
G36*
X33983Y50463D02*
X34422Y50170D01*
X34716Y49731D01*
X34811Y49253D01*
X34794Y49213D01*
Y107D01*
X32836D01*
X32811Y305D01*
X32540Y958D01*
X32110Y1518D01*
X31550Y1948D01*
X30897Y2218D01*
X30197Y2310D01*
Y2309D01*
X27562D01*
X27281Y2770D01*
X27281Y2809D01*
X27360Y3205D01*
Y4205D01*
X27276Y4630D01*
X27035Y4991D01*
X26674Y5232D01*
X26248Y5317D01*
X24748D01*
X24323Y5232D01*
X24060Y5056D01*
X23945Y5009D01*
X23930Y4974D01*
X23897Y4955D01*
X23877Y4930D01*
X23872Y4927D01*
X23845Y4913D01*
X23798Y4896D01*
X23731Y4878D01*
X23652Y4863D01*
X23401Y4839D01*
X23253Y4836D01*
X23191Y4809D01*
X21864D01*
Y4832D01*
X20512Y4654D01*
X20366Y4594D01*
X20013Y4947D01*
X20134Y5240D01*
X20287Y6405D01*
X20287D01*
X20277Y6418D01*
X20372Y6895D01*
X20649Y7310D01*
X21065Y7588D01*
X21308Y7636D01*
X21638Y7465D01*
X21818Y7327D01*
X21881Y7008D01*
X22090Y6695D01*
X22402Y6486D01*
X22771Y6413D01*
X25863D01*
X26231Y6486D01*
X26544Y6695D01*
X26752Y7008D01*
X26826Y7376D01*
Y10211D01*
X26752Y10580D01*
X26544Y10892D01*
X26231Y11101D01*
X25863Y11174D01*
X22771D01*
X22402Y11101D01*
X22090Y10892D01*
X21881Y10580D01*
X21808Y10211D01*
Y9937D01*
X21802Y9937D01*
X21691Y9928D01*
X21541Y9925D01*
X21475Y9896D01*
X20649Y9787D01*
X19804Y9437D01*
X19079Y8881D01*
X18523Y8156D01*
X18370Y7787D01*
X17870Y7886D01*
Y8506D01*
X17873D01*
X17975Y9281D01*
X18274Y10003D01*
X18750Y10623D01*
X18748Y10625D01*
X20046Y11923D01*
X20063Y11907D01*
X20893Y12989D01*
X21415Y14250D01*
X21416Y14253D01*
X21421Y14261D01*
X21456Y14429D01*
X21490Y14556D01*
X21525Y14656D01*
X21556Y14726D01*
X21567Y14746D01*
X21883D01*
X22252Y14819D01*
X22565Y15028D01*
X22773Y15340D01*
X22847Y15709D01*
Y18800D01*
X22773Y19169D01*
X22565Y19482D01*
X22252Y19691D01*
X21883Y19764D01*
X19049D01*
X18680Y19691D01*
X18368Y19482D01*
X18159Y19169D01*
X18085Y18800D01*
Y15709D01*
X18159Y15340D01*
X18368Y15028D01*
X18680Y14819D01*
X18741Y14807D01*
X19022Y14278D01*
X19021Y14257D01*
X18958Y14107D01*
X18483Y13487D01*
X18485Y13484D01*
X17186Y12186D01*
X17170Y12203D01*
X16339Y11120D01*
X16220Y10833D01*
X15720Y10932D01*
Y14298D01*
X15747Y14359D01*
X15752Y14529D01*
X15763Y14655D01*
X15778Y14746D01*
X16034D01*
X16402Y14819D01*
X16715Y15028D01*
X16924Y15340D01*
X16997Y15709D01*
Y18800D01*
X16924Y19169D01*
X16715Y19482D01*
X16402Y19691D01*
X16034Y19764D01*
X13199D01*
X12830Y19691D01*
X12518Y19482D01*
X12309Y19169D01*
X12235Y18800D01*
Y15709D01*
X12309Y15340D01*
X12518Y15028D01*
X12830Y14819D01*
X13199Y14746D01*
X13455D01*
X13470Y14655D01*
X13481Y14529D01*
X13485Y14359D01*
X13512Y14298D01*
Y7321D01*
X13508D01*
X13410Y6826D01*
X13130Y6407D01*
X12900Y6253D01*
X12826Y6230D01*
X12559Y6157D01*
X12336Y6111D01*
X12255Y6100D01*
X12183Y6094D01*
X12126Y6093D01*
X12087Y6095D01*
X12033Y6103D01*
X11952Y6082D01*
X11941Y6085D01*
X11879D01*
X11816Y6097D01*
X11811Y6094D01*
X11311Y6188D01*
Y10631D01*
X8735D01*
Y11261D01*
X8692Y11475D01*
X8744Y11600D01*
X8743Y11602D01*
X9361Y12408D01*
X9749Y13346D01*
X9875Y14302D01*
X9897Y14352D01*
X9902Y14530D01*
X9913Y14665D01*
X9929Y14768D01*
X9942Y14817D01*
X10074Y14843D01*
X10526Y15145D01*
X10827Y15597D01*
X10933Y16130D01*
Y18380D01*
X10827Y18913D01*
X10526Y19364D01*
X10074Y19666D01*
X9541Y19772D01*
X7991D01*
X7458Y19666D01*
X7007Y19364D01*
X6705Y18913D01*
X6599Y18380D01*
Y16130D01*
X6705Y15597D01*
X7007Y15145D01*
X7458Y14843D01*
X7487Y14442D01*
X7431Y14414D01*
X7019Y14327D01*
X6604Y14742D01*
X5953Y15012D01*
X5248D01*
X5152Y14972D01*
X4797Y15210D01*
X4729Y15338D01*
X4418Y16089D01*
X3830Y16677D01*
X3061Y16995D01*
X2230D01*
X1461Y16677D01*
X1147Y16363D01*
X647Y16570D01*
Y18800D01*
X574Y19169D01*
X365Y19482D01*
X52Y19691D01*
X-316Y19764D01*
X-3151D01*
X-3520Y19691D01*
X-3832Y19482D01*
X-4041Y19169D01*
X-4115Y18800D01*
Y18416D01*
X-4205Y18401D01*
X-4331Y18390D01*
X-4501Y18386D01*
X-4562Y18359D01*
X-4780D01*
X-4842Y18386D01*
X-5011Y18390D01*
X-5137Y18401D01*
X-5228Y18416D01*
Y18800D01*
X-5302Y19169D01*
X-5510Y19482D01*
X-5823Y19691D01*
X-6191Y19764D01*
X-9026D01*
X-9395Y19691D01*
X-9707Y19482D01*
X-9916Y19169D01*
X-9990Y18800D01*
Y15709D01*
X-9930Y15409D01*
X-9995Y15232D01*
X-10229Y14909D01*
X-10931D01*
X-11198Y15409D01*
X-11176Y15440D01*
X-11103Y15809D01*
Y18900D01*
X-11176Y19269D01*
X-11385Y19582D01*
X-11698Y19791D01*
X-12066Y19864D01*
X-14901D01*
X-15270Y19791D01*
X-15582Y19582D01*
X-15791Y19269D01*
X-15865Y18900D01*
Y15809D01*
X-15791Y15440D01*
X-15582Y15128D01*
X-15270Y14919D01*
X-14901Y14846D01*
X-14571D01*
X-14431Y14145D01*
X-14274Y13909D01*
X-14541Y13409D01*
X-16959D01*
Y13413D01*
X-17453Y13511D01*
X-17873Y13791D01*
X-18153Y14210D01*
X-18180Y14346D01*
X-18070Y14576D01*
X-17826Y14869D01*
X-17573Y14919D01*
X-17260Y15128D01*
X-17052Y15440D01*
X-16978Y15809D01*
Y18900D01*
X-17052Y19269D01*
X-17260Y19582D01*
X-17573Y19791D01*
X-17942Y19864D01*
X-20776D01*
X-21145Y19791D01*
X-21457Y19582D01*
X-21666Y19269D01*
X-21740Y18900D01*
Y16129D01*
X-21813Y16098D01*
X-22303Y16023D01*
X-22641Y16388D01*
X-22751Y16524D01*
X-22834Y16643D01*
X-22853Y16677D01*
Y17007D01*
X-22843Y17040D01*
X-22853Y17059D01*
Y18900D01*
X-22927Y19269D01*
X-23135Y19582D01*
X-23448Y19791D01*
X-23817Y19864D01*
X-26651D01*
X-27020Y19791D01*
X-27332Y19582D01*
X-27541Y19269D01*
X-27615Y18900D01*
Y15809D01*
X-27541Y15440D01*
X-27332Y15128D01*
X-27020Y14919D01*
X-26651Y14846D01*
X-24800D01*
X-24778Y14834D01*
X-24744Y14846D01*
X-24705D01*
X-24672Y14836D01*
X-24653Y14846D01*
X-24561D01*
X-24375Y14627D01*
X-24607Y14127D01*
X-26779D01*
X-27148Y14053D01*
X-27461Y13844D01*
X-27670Y13532D01*
X-27743Y13163D01*
Y10328D01*
X-27670Y9960D01*
X-27461Y9647D01*
X-27148Y9438D01*
X-26779Y9365D01*
X-23688D01*
X-23320Y9438D01*
X-23007Y9647D01*
X-22816Y9933D01*
X-22776Y9965D01*
X-22265Y10075D01*
X-19994Y7804D01*
X-20228Y7331D01*
X-20588Y7378D01*
Y7369D01*
X-22277D01*
X-22338Y7396D01*
X-22508Y7401D01*
X-22634Y7412D01*
X-22725Y7427D01*
Y7683D01*
X-22798Y8051D01*
X-23007Y8364D01*
X-23320Y8573D01*
X-23688Y8646D01*
X-26779D01*
X-27148Y8573D01*
X-27461Y8364D01*
X-27670Y8051D01*
X-27743Y7683D01*
Y4848D01*
X-27670Y4479D01*
X-27461Y4167D01*
X-27148Y3958D01*
X-26779Y3884D01*
X-23688D01*
X-23320Y3958D01*
X-23007Y4167D01*
X-22798Y4479D01*
X-22725Y4848D01*
Y5104D01*
X-22634Y5119D01*
X-22508Y5130D01*
X-22338Y5134D01*
X-22277Y5161D01*
X-20588D01*
Y5157D01*
X-20094Y5059D01*
X-19675Y4779D01*
X-19672Y4782D01*
X-17178Y2287D01*
X-17411Y1814D01*
X-18045Y1897D01*
Y1888D01*
X-22277D01*
X-22338Y1916D01*
X-22508Y1920D01*
X-22634Y1931D01*
X-22725Y1946D01*
Y2202D01*
X-22798Y2571D01*
X-23007Y2883D01*
X-23320Y3092D01*
X-23688Y3165D01*
X-26779D01*
X-27148Y3092D01*
X-27461Y2883D01*
X-27670Y2571D01*
X-27743Y2202D01*
Y-633D01*
X-27670Y-1001D01*
X-27461Y-1314D01*
X-27148Y-1523D01*
X-26779Y-1596D01*
X-26043D01*
X-25940Y-2080D01*
X-25940Y-2096D01*
X-26436Y-2592D01*
X-26706Y-3243D01*
Y-3948D01*
X-26436Y-4599D01*
X-25937Y-5097D01*
X-25286Y-5367D01*
X-24581D01*
X-23957Y-5108D01*
X-23873Y-5130D01*
X-23762Y-5168D01*
X-23682Y-5206D01*
X-23631Y-5239D01*
X-23604Y-5263D01*
X-23556Y-5322D01*
X-23525Y-5339D01*
X-23511Y-5372D01*
X-23395Y-5420D01*
X-23042Y-5657D01*
X-22509Y-5763D01*
X-20939D01*
X-20858Y-5810D01*
X-20749Y-5885D01*
X-20446Y-6139D01*
X-20274Y-6305D01*
X-20211Y-6329D01*
X-19450Y-7090D01*
X-19450Y-7090D01*
X-19459Y-7099D01*
X-18891Y-7478D01*
X-18221Y-7612D01*
X-18221Y-7612D01*
Y-7599D01*
X-18221Y-7599D01*
X-14307D01*
Y-7614D01*
X-13222Y-7471D01*
X-12211Y-7052D01*
X-11670Y-7267D01*
X-11656Y-7335D01*
X-11404Y-7713D01*
X-11026Y-7965D01*
X-10815Y-8007D01*
X-10697Y-8355D01*
X-11021Y-8796D01*
X-25597D01*
Y-8789D01*
X-26750Y-8902D01*
X-27859Y-9239D01*
X-28881Y-9785D01*
X-29777Y-10520D01*
X-30512Y-11416D01*
X-31058Y-12438D01*
X-31394Y-13547D01*
X-31508Y-14700D01*
X-31501D01*
Y-17170D01*
X-31528Y-17231D01*
X-31532Y-17401D01*
X-31543Y-17527D01*
X-31558Y-17618D01*
X-31814D01*
X-32183Y-17691D01*
X-32495Y-17900D01*
X-32704Y-18213D01*
X-32778Y-18581D01*
Y-21673D01*
X-32704Y-22041D01*
X-32495Y-22354D01*
X-32183Y-22562D01*
X-31814Y-22636D01*
X-28980D01*
X-28611Y-22562D01*
X-28298Y-22354D01*
X-28090Y-22041D01*
X-28016Y-21673D01*
Y-18581D01*
X-28090Y-18213D01*
X-28298Y-17900D01*
X-28611Y-17691D01*
X-28980Y-17618D01*
X-29236D01*
X-29250Y-17527D01*
X-29261Y-17401D01*
X-29266Y-17231D01*
X-29293Y-17170D01*
Y-14700D01*
X-29295Y-14691D01*
X-29170Y-13743D01*
X-28800Y-12851D01*
X-28212Y-12084D01*
X-27446Y-11497D01*
X-26554Y-11127D01*
X-25606Y-11002D01*
X-25597Y-11004D01*
X-22686D01*
X-22561Y-11504D01*
X-22910Y-11690D01*
X-23806Y-12426D01*
X-24541Y-13321D01*
X-25087Y-14343D01*
X-25423Y-15452D01*
X-25537Y-16605D01*
X-25530D01*
Y-17170D01*
X-25557Y-17231D01*
X-25561Y-17401D01*
X-25572Y-17527D01*
X-25587Y-17618D01*
X-25843D01*
X-26212Y-17691D01*
X-26524Y-17900D01*
X-26733Y-18213D01*
X-26807Y-18581D01*
Y-21673D01*
X-26733Y-22041D01*
X-26524Y-22354D01*
X-26212Y-22562D01*
X-25843Y-22636D01*
X-23009D01*
X-22640Y-22562D01*
X-22327Y-22354D01*
X-22118Y-22041D01*
X-22045Y-21673D01*
Y-18581D01*
X-22118Y-18213D01*
X-22327Y-17900D01*
X-22640Y-17691D01*
X-23009Y-17618D01*
X-23141D01*
X-23280Y-17525D01*
X-23290Y-17401D01*
X-23295Y-17231D01*
X-23322Y-17170D01*
Y-16605D01*
X-23324Y-16597D01*
X-23199Y-15648D01*
X-22829Y-14756D01*
X-22241Y-13990D01*
X-21475Y-13402D01*
X-20583Y-13032D01*
X-19635Y-12908D01*
X-19626Y-12909D01*
X-16922D01*
X-16797Y-13409D01*
X-16939Y-13485D01*
X-17834Y-14220D01*
X-18570Y-15116D01*
X-19116Y-16138D01*
X-19396Y-17063D01*
X-19453Y-17153D01*
X-19480Y-17323D01*
X-19509Y-17449D01*
X-19539Y-17548D01*
X-19566Y-17616D01*
X-19567Y-17618D01*
X-19872D01*
X-20241Y-17691D01*
X-20553Y-17900D01*
X-20762Y-18213D01*
X-20835Y-18581D01*
Y-21673D01*
X-20762Y-22041D01*
X-20553Y-22354D01*
X-20241Y-22562D01*
X-19872Y-22636D01*
X-17037D01*
X-16669Y-22562D01*
X-16356Y-22354D01*
X-16147Y-22041D01*
X-16074Y-21673D01*
Y-18581D01*
X-16147Y-18213D01*
X-16356Y-17900D01*
X-16669Y-17691D01*
X-16856Y-17654D01*
X-17082Y-17218D01*
X-17093Y-17118D01*
X-16858Y-16551D01*
X-16270Y-15784D01*
X-15504Y-15197D01*
X-14612Y-14827D01*
X-13663Y-14702D01*
X-13655Y-14704D01*
X-11024D01*
X-10903Y-15189D01*
X-10976Y-15228D01*
X-11869Y-15961D01*
X-12602Y-16854D01*
X-12615Y-16879D01*
X-12617Y-16879D01*
X-12627Y-16901D01*
X-12666Y-16973D01*
X-12737Y-17027D01*
X-12829Y-17182D01*
X-12910Y-17304D01*
X-12985Y-17404D01*
X-13054Y-17482D01*
X-13113Y-17538D01*
X-13160Y-17575D01*
X-13193Y-17594D01*
X-13210Y-17602D01*
X-13215Y-17603D01*
X-13267Y-17607D01*
X-13289Y-17618D01*
X-13901D01*
X-14270Y-17691D01*
X-14582Y-17900D01*
X-14791Y-18213D01*
X-14864Y-18581D01*
Y-21673D01*
X-14791Y-22041D01*
X-14582Y-22354D01*
X-14270Y-22562D01*
X-13901Y-22636D01*
X-11066D01*
X-10698Y-22562D01*
X-10385Y-22354D01*
X-10176Y-22041D01*
X-10103Y-21673D01*
Y-18581D01*
X-10176Y-18213D01*
X-10385Y-17900D01*
X-10184Y-17433D01*
X-9543Y-16940D01*
X-8655Y-16573D01*
X-7711Y-16449D01*
X-7703Y-16450D01*
X-5844D01*
X-5703Y-16950D01*
X-5775Y-16984D01*
X-6085Y-17330D01*
X-6204Y-17446D01*
X-6309Y-17537D01*
X-6393Y-17598D01*
X-6426Y-17618D01*
X-7930D01*
X-8298Y-17691D01*
X-8611Y-17900D01*
X-8820Y-18213D01*
X-8893Y-18581D01*
Y-21673D01*
X-8820Y-22041D01*
X-8611Y-22354D01*
X-8298Y-22562D01*
X-7930Y-22636D01*
X-5095D01*
X-4727Y-22562D01*
X-4414Y-22354D01*
X-4205Y-22041D01*
X-4132Y-21673D01*
Y-19052D01*
X-4125Y-19026D01*
X-4132Y-19015D01*
Y-18798D01*
X-3801Y-18319D01*
X-3686Y-18178D01*
X-3594Y-18116D01*
X-3044Y-18007D01*
X-3033Y-18016D01*
Y-18016D01*
X-2581Y-18131D01*
X-2351Y-18430D01*
X-2381Y-18581D01*
Y-21673D01*
X-2308Y-22041D01*
X-2099Y-22354D01*
X-1786Y-22562D01*
X-1418Y-22636D01*
X1417D01*
X1786Y-22562D01*
X2098Y-22354D01*
X2307Y-22041D01*
X2380Y-21673D01*
Y-18960D01*
X2383Y-18941D01*
X2427Y-18904D01*
X2461Y-18837D01*
X2465Y-18783D01*
X2500Y-18741D01*
X2621Y-18355D01*
X2723Y-18318D01*
X3153Y-18296D01*
X3411Y-18644D01*
X3523Y-18816D01*
X3590Y-18935D01*
Y-19233D01*
X3588Y-19238D01*
X3590Y-19249D01*
Y-19323D01*
X3577Y-19354D01*
X3590Y-19385D01*
Y-21673D01*
X3663Y-22041D01*
X3872Y-22354D01*
X4185Y-22562D01*
X4553Y-22636D01*
X7388D01*
X7757Y-22562D01*
X8069Y-22354D01*
X8278Y-22041D01*
X8352Y-21673D01*
Y-18581D01*
X8278Y-18213D01*
X8069Y-17900D01*
X7757Y-17691D01*
X7388Y-17618D01*
X5934D01*
X5930Y-17615D01*
X5918Y-17618D01*
X5641D01*
X5290Y-17383D01*
X5172Y-17241D01*
X5147Y-17228D01*
X4858Y-16795D01*
X4733Y-16166D01*
X4735Y-16158D01*
Y-15409D01*
X5235Y-15240D01*
X5287Y-15309D01*
X5848Y-15739D01*
X6500Y-16009D01*
X7201Y-16101D01*
Y-16099D01*
X10342D01*
X10358Y-16096D01*
X10700Y-16238D01*
X10841Y-16579D01*
X10838Y-16595D01*
Y-17170D01*
X10811Y-17231D01*
X10806Y-17401D01*
X10795Y-17527D01*
X10780Y-17618D01*
X10525D01*
X10156Y-17691D01*
X9843Y-17900D01*
X9634Y-18213D01*
X9561Y-18581D01*
Y-21673D01*
X9634Y-22041D01*
X9843Y-22354D01*
X10156Y-22562D01*
X10525Y-22636D01*
X13359D01*
X13728Y-22562D01*
X14040Y-22354D01*
X14249Y-22041D01*
X14323Y-21673D01*
Y-18581D01*
X14249Y-18213D01*
X14040Y-17900D01*
X13728Y-17691D01*
X13359Y-17618D01*
X13103D01*
X13088Y-17527D01*
X13077Y-17401D01*
X13073Y-17231D01*
X13046Y-17170D01*
Y-16595D01*
X13048D01*
X12956Y-15895D01*
X12685Y-15242D01*
X12255Y-14682D01*
X12147Y-14599D01*
X12317Y-14099D01*
X13113D01*
X13122Y-14097D01*
X14070Y-14222D01*
X14963Y-14592D01*
X15729Y-15180D01*
X16316Y-15946D01*
X16686Y-16838D01*
X16750Y-17327D01*
X16496Y-17618D01*
X16127Y-17691D01*
X15814Y-17900D01*
X15606Y-18213D01*
X15532Y-18581D01*
Y-21673D01*
X15606Y-22041D01*
X15814Y-22354D01*
X16127Y-22562D01*
X16496Y-22636D01*
X19330D01*
X19699Y-22562D01*
X20012Y-22354D01*
X20220Y-22041D01*
X20294Y-21673D01*
Y-18581D01*
X20220Y-18213D01*
X20012Y-17900D01*
X19699Y-17691D01*
X19330Y-17618D01*
X19007D01*
X18911Y-16642D01*
X18574Y-15533D01*
X18389Y-15186D01*
X18795Y-14885D01*
X20196Y-16286D01*
X20542Y-16632D01*
X20835Y-17010D01*
X21132Y-17396D01*
X21261Y-17709D01*
X21306Y-17851D01*
X21426Y-18259D01*
X21469Y-18444D01*
X21478Y-18497D01*
X21482Y-18528D01*
X21483Y-18561D01*
X21503Y-18605D01*
Y-18662D01*
X21493Y-18718D01*
X21503Y-18733D01*
Y-21673D01*
X21577Y-22041D01*
X21786Y-22354D01*
X22098Y-22562D01*
X22467Y-22636D01*
X25302D01*
X25670Y-22562D01*
X25983Y-22354D01*
X26191Y-22041D01*
X26265Y-21673D01*
Y-18581D01*
X26191Y-18213D01*
X25983Y-17900D01*
X25670Y-17691D01*
X25302Y-17618D01*
X23690D01*
X23673Y-17594D01*
X23631Y-17525D01*
X23510Y-17252D01*
X23449Y-17077D01*
X23402Y-17026D01*
X23389Y-16983D01*
X22843Y-15961D01*
X22108Y-15066D01*
X22103Y-15071D01*
X22103Y-15071D01*
X17319Y-10287D01*
X17511Y-9825D01*
X17661D01*
X18087Y-9741D01*
X18448Y-9500D01*
X18513Y-9402D01*
X18534Y-9393D01*
X18558Y-9334D01*
X18689Y-9139D01*
X18689Y-9136D01*
X18727Y-9127D01*
X18835Y-9110D01*
X18975Y-9099D01*
X19159Y-9095D01*
X19220Y-9067D01*
X19300D01*
X19356Y-9094D01*
X19759Y-9358D01*
Y-10562D01*
X19878Y-11161D01*
X20217Y-11669D01*
X20725Y-12009D01*
X21324Y-12128D01*
X24946D01*
X25545Y-12009D01*
X26053Y-11669D01*
X26393Y-11161D01*
X26512Y-10562D01*
Y-7728D01*
X26393Y-7129D01*
X26053Y-6621D01*
X25545Y-6281D01*
X24946Y-6162D01*
X21324D01*
X20725Y-6281D01*
X20372Y-6517D01*
X20267Y-6544D01*
X20226Y-6615D01*
X20217Y-6621D01*
X20216Y-6622D01*
X20149Y-6660D01*
X20117Y-6701D01*
X20109Y-6708D01*
X20090Y-6722D01*
X20055Y-6741D01*
X20001Y-6762D01*
X19927Y-6784D01*
X19843Y-6801D01*
X19580Y-6829D01*
X19425Y-6832D01*
X19363Y-6860D01*
X19220D01*
X19159Y-6832D01*
X18975Y-6828D01*
X18835Y-6817D01*
X18727Y-6800D01*
X18689Y-6791D01*
X18689Y-6788D01*
X18558Y-6593D01*
X18534Y-6534D01*
X18513Y-6525D01*
X18448Y-6427D01*
X18087Y-6186D01*
X17661Y-6101D01*
X16661D01*
X16236Y-6186D01*
X16157Y-6239D01*
X16093Y-6252D01*
X15675Y-5977D01*
X14194Y-4496D01*
X14211Y-4479D01*
X13775Y-4188D01*
X13831Y-3624D01*
X14427Y-3377D01*
X15510Y-2546D01*
X15493Y-2529D01*
X19746Y1723D01*
X19748Y1721D01*
X20368Y2197D01*
X21090Y2496D01*
X21864Y2598D01*
Y2601D01*
X23191D01*
X23253Y2574D01*
X23410Y2570D01*
X23535Y2562D01*
X23643Y2548D01*
X23731Y2532D01*
X23799Y2513D01*
X23845Y2496D01*
X23872Y2483D01*
X23877Y2479D01*
X23897Y2454D01*
X23930Y2436D01*
X23945Y2401D01*
X24060Y2353D01*
X24323Y2177D01*
X24414Y2159D01*
X24546Y1495D01*
X25044Y750D01*
X25788Y253D01*
X26666Y78D01*
Y101D01*
X28450D01*
Y-5798D01*
X34794D01*
Y-49213D01*
X34811Y-49253D01*
X34716Y-49731D01*
X34422Y-50170D01*
X33983Y-50463D01*
X33505Y-50559D01*
X33465Y-50542D01*
X-33465D01*
X-33505Y-50559D01*
X-33983Y-50463D01*
X-34422Y-50170D01*
X-34716Y-49731D01*
X-34811Y-49253D01*
X-34794Y-49213D01*
Y49213D01*
X-34811Y49253D01*
X-34716Y49731D01*
X-34422Y50170D01*
X-33983Y50463D01*
X-33505Y50559D01*
X-33465Y50542D01*
X33465D01*
X33505Y50559D01*
X33983Y50463D01*
D02*
G37*
G36*
X-3488Y16271D02*
X-3498Y16364D01*
X-3528Y16448D01*
X-3578Y16521D01*
X-3648Y16585D01*
X-3737Y16640D01*
X-3847Y16684D01*
X-3976Y16718D01*
X-4126Y16743D01*
X-4295Y16758D01*
X-4484Y16763D01*
Y17747D01*
X-4295Y17752D01*
X-4126Y17766D01*
X-3976Y17791D01*
X-3847Y17826D01*
X-3737Y17870D01*
X-3648Y17924D01*
X-3578Y17988D01*
X-3528Y18062D01*
X-3498Y18146D01*
X-3488Y18239D01*
Y16271D01*
D02*
G37*
G36*
X-5844Y18146D02*
X-5815Y18062D01*
X-5765Y17988D01*
X-5695Y17924D01*
X-5605Y17870D01*
X-5496Y17826D01*
X-5366Y17791D01*
X-5217Y17766D01*
X-5048Y17752D01*
X-4858Y17747D01*
Y16763D01*
X-5048Y16758D01*
X-5217Y16743D01*
X-5366Y16718D01*
X-5496Y16684D01*
X-5605Y16640D01*
X-5695Y16585D01*
X-5765Y16521D01*
X-5815Y16448D01*
X-5844Y16364D01*
X-5855Y16271D01*
Y18239D01*
X-5844Y18146D01*
D02*
G37*
G36*
X-23528Y16899D02*
X-23550Y16805D01*
X-23546Y16698D01*
X-23515Y16578D01*
X-23458Y16445D01*
X-23373Y16300D01*
X-23263Y16141D01*
X-23126Y15970D01*
X-22772Y15588D01*
X-23339Y14764D01*
X-23548Y14966D01*
X-23919Y15282D01*
X-24081Y15397D01*
X-24228Y15482D01*
X-24360Y15538D01*
X-24475Y15565D01*
X-24576Y15563D01*
X-24661Y15532D01*
X-24731Y15472D01*
X-23480Y16980D01*
X-23528Y16899D01*
D02*
G37*
G36*
X-18654Y15464D02*
X-18698Y15441D01*
X-18738Y15403D01*
X-18772Y15349D01*
X-18801Y15280D01*
X-18825Y15196D01*
X-18843Y15096D01*
X-18856Y14981D01*
X-18864Y14851D01*
X-18867Y14705D01*
X-19851D01*
X-19854Y14851D01*
X-19875Y15096D01*
X-19893Y15196D01*
X-19917Y15280D01*
X-19946Y15349D01*
X-19980Y15403D01*
X-20019Y15441D01*
X-20064Y15464D01*
X-20114Y15472D01*
X-18604D01*
X-18654Y15464D01*
D02*
G37*
G36*
X21363Y15362D02*
X21276Y15333D01*
X21194Y15284D01*
X21119Y15215D01*
X21050Y15127D01*
X20987Y15019D01*
X20930Y14891D01*
X20879Y14744D01*
X20834Y14577D01*
X20795Y14390D01*
X19767Y14399D01*
X19796Y14584D01*
X19811Y14749D01*
X19814Y14895D01*
X19803Y15022D01*
X19779Y15129D01*
X19742Y15216D01*
X19691Y15284D01*
X19628Y15333D01*
X19551Y15362D01*
X19461Y15372D01*
X21457D01*
X21363Y15362D01*
D02*
G37*
G36*
X15507Y15362D02*
X15423Y15332D01*
X15349Y15282D01*
X15285Y15213D01*
X15231Y15123D01*
X15187Y15013D01*
X15153Y14884D01*
X15128Y14734D01*
X15113Y14565D01*
X15108Y14376D01*
X14124D01*
X14119Y14565D01*
X14104Y14734D01*
X14080Y14884D01*
X14045Y15013D01*
X14001Y15123D01*
X13947Y15213D01*
X13883Y15282D01*
X13809Y15332D01*
X13725Y15362D01*
X13632Y15372D01*
X15600D01*
X15507Y15362D01*
D02*
G37*
G36*
X-1285Y15372D02*
X-1379Y15363D01*
X-1462Y15334D01*
X-1536Y15284D01*
X-1600Y15215D01*
X-1654Y15125D01*
X-1698Y15016D01*
X-1733Y14886D01*
X-1758Y14736D01*
X-1772Y14566D01*
X-1777Y14376D01*
X-2761D01*
X-2766Y14568D01*
X-2781Y14740D01*
X-2806Y14892D01*
X-2840Y15024D01*
X-2884Y15136D01*
X-2938Y15227D01*
X-3001Y15299D01*
X-3075Y15350D01*
X-3158Y15381D01*
X-3251Y15392D01*
X-1285Y15372D01*
D02*
G37*
G36*
X9655Y15395D02*
X9572Y15364D01*
X9498Y15312D01*
X9435Y15239D01*
X9381Y15146D01*
X9337Y15032D01*
X9302Y14897D01*
X9278Y14741D01*
X9263Y14565D01*
X9258Y14367D01*
X8274D01*
X8269Y14565D01*
X8254Y14741D01*
X8230Y14897D01*
X8196Y15032D01*
X8152Y15146D01*
X8098Y15239D01*
X8034Y15312D01*
X7961Y15364D01*
X7877Y15395D01*
X7784Y15405D01*
X9748D01*
X9655Y15395D01*
D02*
G37*
G36*
X1509Y13926D02*
X1460Y13973D01*
X1406Y14006D01*
X1349Y14025D01*
X1287Y14030D01*
X1221Y14019D01*
X1151Y13995D01*
X1077Y13956D01*
X998Y13902D01*
X916Y13834D01*
X829Y13752D01*
X591Y14592D01*
X696Y14675D01*
X1011Y14957D01*
X1064Y15015D01*
X1107Y15068D01*
X1140Y15116D01*
X1162Y15159D01*
X1174Y15197D01*
X1509Y13926D01*
D02*
G37*
G36*
X-5844Y12268D02*
X-5712Y11845D01*
X-5695Y11752D01*
X-5693Y11683D01*
X-5704Y11639D01*
X-5729Y11618D01*
X-5768Y11622D01*
X-5821Y11650D01*
X-6759Y11261D01*
X-6748Y11339D01*
X-6745Y11425D01*
X-6750Y11520D01*
X-6762Y11624D01*
X-6781Y11735D01*
X-6844Y11984D01*
X-6886Y12121D01*
X-6995Y12421D01*
X-5915Y12457D01*
X-5844Y12268D01*
D02*
G37*
G36*
X-1761Y11471D02*
X-2777D01*
X-2774Y11486D01*
X-2772Y11519D01*
X-2764Y11846D01*
X-2761Y12479D01*
X-1777D01*
X-1761Y11471D01*
D02*
G37*
G36*
X6094Y12397D02*
X6427D01*
X6364Y12329D01*
X6307Y12254D01*
X6257Y12175D01*
X6213Y12089D01*
X6176Y11998D01*
X6146Y11902D01*
X6123Y11799D01*
X6106Y11691D01*
X6105Y11681D01*
X6109Y11471D01*
X6093D01*
X6093Y11458D01*
X5108D01*
X5108Y11471D01*
X5093D01*
X5096Y11486D01*
X5098Y11519D01*
X5101Y11626D01*
X5095Y11691D01*
X5078Y11799D01*
X5055Y11902D01*
X5025Y11998D01*
X4988Y12089D01*
X4944Y12175D01*
X4894Y12254D01*
X4837Y12329D01*
X4774Y12397D01*
X5108D01*
X5108Y12479D01*
X6093D01*
X6094Y12397D01*
D02*
G37*
G36*
X-23341Y12655D02*
X-23312Y12569D01*
X-23263Y12488D01*
X-23195Y12412D01*
X-23107Y12341D01*
X-23000Y12275D01*
X-22873Y12214D01*
X-22727Y12158D01*
X-22561Y12108D01*
X-22376Y12062D01*
X-22402Y10990D01*
X-22582Y11026D01*
X-22744Y11048D01*
X-22886Y11056D01*
X-23009Y11052D01*
X-23114Y11034D01*
X-23199Y11003D01*
X-23266Y10958D01*
X-23313Y10900D01*
X-23342Y10829D01*
X-23351Y10745D01*
Y12747D01*
X-23341Y12655D01*
D02*
G37*
G36*
X22434Y7927D02*
X22425Y7998D01*
X22399Y8062D01*
X22355Y8118D01*
X22294Y8167D01*
X22214Y8208D01*
X22118Y8242D01*
X22003Y8268D01*
X21871Y8286D01*
X21722Y8298D01*
X21555Y8302D01*
Y9286D01*
X21722Y9290D01*
X21871Y9301D01*
X22003Y9319D01*
X22118Y9346D01*
X22214Y9380D01*
X22294Y9421D01*
X22355Y9470D01*
X22399Y9526D01*
X22425Y9589D01*
X22434Y9661D01*
Y7927D01*
D02*
G37*
G36*
X4117Y8569D02*
X4097Y8517D01*
X4080Y8452D01*
X4065Y8374D01*
X4043Y8183D01*
X4029Y7942D01*
X4028Y7907D01*
X4040Y7772D01*
X4060Y7652D01*
X4087Y7548D01*
X4123Y7460D01*
X4166Y7388D01*
X4217Y7332D01*
X4276Y7292D01*
X4343Y7268D01*
X4418Y7260D01*
X2843D01*
X2918Y7268D01*
X2985Y7292D01*
X3044Y7332D01*
X3095Y7388D01*
X3139Y7460D01*
X3174Y7548D01*
X3201Y7652D01*
X3221Y7772D01*
X3230Y7879D01*
X3196Y8374D01*
X3181Y8452D01*
X3164Y8517D01*
X3144Y8569D01*
X3123Y8610D01*
X4138D01*
X4117Y8569D01*
D02*
G37*
G36*
X2147D02*
X2127Y8517D01*
X2110Y8452D01*
X2095Y8374D01*
X2073Y8183D01*
X2059Y7942D01*
X2058Y7907D01*
X2070Y7772D01*
X2090Y7652D01*
X2117Y7548D01*
X2153Y7460D01*
X2196Y7388D01*
X2247Y7332D01*
X2306Y7292D01*
X2373Y7268D01*
X2448Y7260D01*
X873D01*
X948Y7268D01*
X1015Y7292D01*
X1074Y7332D01*
X1125Y7388D01*
X1168Y7460D01*
X1204Y7548D01*
X1232Y7652D01*
X1251Y7772D01*
X1261Y7879D01*
X1226Y8374D01*
X1211Y8452D01*
X1194Y8517D01*
X1174Y8569D01*
X1153Y8610D01*
X2169D01*
X2147Y8569D01*
D02*
G37*
G36*
X9289Y6383D02*
X9249Y6404D01*
X9196Y6424D01*
X9131Y6441D01*
X9054Y6456D01*
X8862Y6479D01*
X8621Y6492D01*
X8587Y6493D01*
X8453Y6481D01*
X8333Y6461D01*
X8230Y6434D01*
X8142Y6398D01*
X8070Y6355D01*
X8014Y6304D01*
X7973Y6245D01*
X7949Y6178D01*
X7940Y6103D01*
X7952Y7272D01*
X7960Y7274D01*
X7984Y7276D01*
X8149Y7281D01*
X8331Y7282D01*
Y7284D01*
X8482Y7285D01*
X9054Y7325D01*
X9131Y7340D01*
X9196Y7357D01*
X9249Y7377D01*
X9289Y7398D01*
Y6383D01*
D02*
G37*
G36*
X13661Y4815D02*
X13324Y4705D01*
X12116Y4383D01*
X12151Y4413D01*
X11941Y5470D01*
X12023Y5458D01*
X12115Y5453D01*
X12216Y5455D01*
X12325Y5464D01*
X12444Y5481D01*
X12707Y5534D01*
X13007Y5616D01*
X13170Y5668D01*
X13661Y4815D01*
D02*
G37*
G36*
X-23341Y7156D02*
X-23311Y7072D01*
X-23261Y6999D01*
X-23192Y6934D01*
X-23102Y6880D01*
X-22993Y6836D01*
X-22863Y6802D01*
X-22714Y6777D01*
X-22544Y6762D01*
X-22355Y6757D01*
Y5773D01*
X-22544Y5768D01*
X-22714Y5753D01*
X-22863Y5729D01*
X-22993Y5694D01*
X-23102Y5650D01*
X-23192Y5596D01*
X-23261Y5532D01*
X-23311Y5458D01*
X-23341Y5375D01*
X-23351Y5281D01*
Y7249D01*
X-23341Y7156D01*
D02*
G37*
G36*
X-10791Y4413D02*
X-10805Y4416D01*
X-10839Y4418D01*
X-11165Y4426D01*
X-11799Y4428D01*
Y5413D01*
X-10791Y5428D01*
Y4413D01*
D02*
G37*
G36*
X24396Y2853D02*
X24342Y2921D01*
X24274Y2982D01*
X24194Y3036D01*
X24100Y3083D01*
X23994Y3123D01*
X23874Y3155D01*
X23742Y3180D01*
X23596Y3198D01*
X23438Y3209D01*
X23267Y3213D01*
Y4197D01*
X23438Y4200D01*
X23742Y4229D01*
X23874Y4254D01*
X23994Y4287D01*
X24100Y4326D01*
X24194Y4373D01*
X24274Y4427D01*
X24342Y4488D01*
X24396Y4557D01*
Y2853D01*
D02*
G37*
G36*
X-10791Y2443D02*
X-10805Y2446D01*
X-10839Y2448D01*
X-11165Y2456D01*
X-11799Y2458D01*
Y3443D01*
X-10791Y3458D01*
Y2443D01*
D02*
G37*
G36*
X12165Y1485D02*
X12199Y1483D01*
X12525Y1475D01*
X13159Y1473D01*
Y488D01*
X12151Y473D01*
Y1488D01*
X12165Y1485D01*
D02*
G37*
G36*
X-10791Y473D02*
X-10805Y476D01*
X-10839Y478D01*
X-11165Y486D01*
X-11799Y488D01*
Y1473D01*
X-10791Y1488D01*
Y473D01*
D02*
G37*
G36*
X-23341Y1675D02*
X-23311Y1592D01*
X-23261Y1518D01*
X-23192Y1454D01*
X-23102Y1400D01*
X-22993Y1355D01*
X-22863Y1321D01*
X-22714Y1297D01*
X-22544Y1282D01*
X-22355Y1277D01*
Y292D01*
X-22544Y288D01*
X-22714Y273D01*
X-22863Y248D01*
X-22993Y214D01*
X-23102Y169D01*
X-23192Y115D01*
X-23261Y51D01*
X-23311Y-22D01*
X-23341Y-106D01*
X-23351Y-200D01*
Y1769D01*
X-23341Y1675D01*
D02*
G37*
G36*
X7049Y-1180D02*
X5718Y-1373D01*
X5352Y-586D01*
X5475Y-582D01*
X5583Y-572D01*
X5677Y-555D01*
X5756Y-530D01*
X5821Y-499D01*
X5872Y-460D01*
X5908Y-415D01*
X5929Y-363D01*
X5937Y-304D01*
X5930Y-238D01*
X7049Y-1180D01*
D02*
G37*
G36*
X7948Y-267D02*
X7972Y-334D01*
X8012Y-393D01*
X8035Y-414D01*
X8244Y-238D01*
X8236Y-304D01*
X8244Y-363D01*
X8265Y-415D01*
X8302Y-460D01*
X8352Y-499D01*
X8417Y-530D01*
X8496Y-555D01*
X8590Y-572D01*
X8622Y-575D01*
X9054Y-545D01*
X9131Y-530D01*
X9196Y-513D01*
X9249Y-493D01*
X9289Y-472D01*
Y-1487D01*
X9249Y-1466D01*
X9196Y-1446D01*
X9131Y-1429D01*
X9054Y-1414D01*
X8862Y-1391D01*
X8621Y-1378D01*
X8587Y-1377D01*
X8452Y-1389D01*
X8332Y-1409D01*
X8228Y-1436D01*
X8140Y-1472D01*
X8068Y-1515D01*
X8012Y-1566D01*
X7972Y-1625D01*
X7948Y-1692D01*
X7940Y-1767D01*
Y-1299D01*
X7124Y-1180D01*
X7940Y-493D01*
Y-192D01*
X7948Y-267D01*
D02*
G37*
G36*
X-10791Y-1487D02*
X-10805Y-1484D01*
X-10839Y-1482D01*
X-11165Y-1474D01*
X-11799Y-1472D01*
Y-487D01*
X-10791Y-472D01*
Y-1487D01*
D02*
G37*
G36*
X13163Y-3239D02*
X12935Y-3305D01*
X12127Y-3492D01*
X12125Y-3480D01*
X12151Y-3457D01*
X11941Y-2400D01*
X12010Y-2409D01*
X12090Y-2413D01*
X12180Y-2410D01*
X12281Y-2401D01*
X12514Y-2365D01*
X12789Y-2304D01*
X13106Y-2218D01*
X13163Y-3239D01*
D02*
G37*
G36*
X-6591Y-3737D02*
X-6599Y-3662D01*
X-6622Y-3595D01*
X-6662Y-3536D01*
X-6717Y-3485D01*
X-6788Y-3442D01*
X-6874Y-3406D01*
X-6977Y-3379D01*
X-7095Y-3359D01*
X-7199Y-3350D01*
X-7694Y-3384D01*
X-7771Y-3399D01*
X-7836Y-3416D01*
X-7889Y-3436D01*
X-7929Y-3457D01*
Y-2442D01*
X-7889Y-2463D01*
X-7836Y-2483D01*
X-7771Y-2500D01*
X-7694Y-2515D01*
X-7502Y-2537D01*
X-7261Y-2551D01*
X-7227Y-2552D01*
X-7095Y-2540D01*
X-6977Y-2520D01*
X-6874Y-2493D01*
X-6788Y-2457D01*
X-6717Y-2414D01*
X-6662Y-2363D01*
X-6622Y-2304D01*
X-6599Y-2237D01*
X-6591Y-2162D01*
Y-3737D01*
D02*
G37*
G36*
X-18045Y-323D02*
X-17550Y-422D01*
X-17131Y-702D01*
X-17128Y-699D01*
X-16770Y-1057D01*
X-16776Y-1063D01*
X-16049Y-1622D01*
X-15202Y-1973D01*
X-14292Y-2092D01*
Y-2083D01*
X-11867D01*
X-11801Y-2111D01*
X-11174Y-2113D01*
X-10872Y-2120D01*
X-10856Y-2122D01*
X-10826Y-2112D01*
X-10791Y-2127D01*
X-10750Y-2110D01*
X-10580Y-2144D01*
X-9949D01*
Y-3755D01*
X-10580D01*
X-10817Y-3802D01*
X-10865Y-3775D01*
X-10908Y-3769D01*
X-11004Y-3794D01*
X-11100Y-3773D01*
X-11169Y-3785D01*
X-11207Y-3808D01*
X-11251Y-3804D01*
X-11345Y-3834D01*
X-11375Y-3859D01*
X-11415Y-3860D01*
X-11848Y-4054D01*
X-11860Y-4067D01*
X-11878Y-4068D01*
X-12073Y-4168D01*
X-12126Y-4230D01*
X-12212Y-4266D01*
X-12920Y-4809D01*
X-12920Y-4809D01*
X-13305Y-5087D01*
X-13550Y-5250D01*
X-14284Y-5396D01*
X-14307Y-5391D01*
X-18027D01*
X-18389Y-5029D01*
X-18415Y-4965D01*
X-18600Y-4773D01*
X-18745Y-4610D01*
X-18856Y-4470D01*
X-18880Y-4436D01*
X-18867Y-4370D01*
Y-4184D01*
X-18856Y-4165D01*
X-18867Y-4132D01*
Y-2820D01*
X-18972Y-2287D01*
X-19274Y-1836D01*
X-19726Y-1534D01*
X-20259Y-1428D01*
X-22482D01*
X-22567Y-1342D01*
X-22798Y-1001D01*
X-22725Y-633D01*
Y-377D01*
X-22634Y-362D01*
X-22508Y-351D01*
X-22338Y-347D01*
X-22277Y-319D01*
X-18045D01*
Y-323D01*
D02*
G37*
G36*
X-23059Y-4920D02*
X-23142Y-4818D01*
X-23246Y-4727D01*
X-23372Y-4646D01*
X-23519Y-4576D01*
X-23689Y-4517D01*
X-23879Y-4469D01*
X-24092Y-4431D01*
X-24326Y-4404D01*
X-24859Y-4383D01*
Y-2808D01*
X-24582Y-2802D01*
X-24092Y-2760D01*
X-23879Y-2722D01*
X-23689Y-2674D01*
X-23519Y-2614D01*
X-23372Y-2544D01*
X-23246Y-2464D01*
X-23142Y-2372D01*
X-23059Y-2270D01*
Y-4920D01*
D02*
G37*
G36*
X-10948Y-4408D02*
X-10930Y-4432D01*
X-10937Y-4472D01*
X-10969Y-4531D01*
X-10580Y-5469D01*
X-10642Y-5463D01*
X-10715Y-5466D01*
X-10797Y-5478D01*
X-10889Y-5499D01*
X-10992Y-5531D01*
X-11228Y-5621D01*
X-11361Y-5680D01*
X-11658Y-5827D01*
X-11782Y-4737D01*
X-11587Y-4637D01*
X-11154Y-4444D01*
X-11060Y-4414D01*
X-10992Y-4403D01*
X-10948Y-4408D01*
D02*
G37*
G36*
X-20585Y-3623D02*
X-20552Y-3672D01*
X-20497Y-3742D01*
X-20197Y-4071D01*
X-19916Y-4358D01*
X-19493Y-4106D01*
X-19564Y-4165D01*
X-19605Y-4240D01*
X-19617Y-4331D01*
X-19600Y-4437D01*
X-19553Y-4560D01*
X-19476Y-4698D01*
X-19370Y-4852D01*
X-19234Y-5022D01*
X-19069Y-5207D01*
X-18874Y-5409D01*
X-19831Y-5844D01*
X-20018Y-5664D01*
X-20361Y-5376D01*
X-20516Y-5269D01*
X-20661Y-5186D01*
X-20794Y-5127D01*
X-20918Y-5093D01*
X-21030Y-5083D01*
X-21132Y-5097D01*
X-21223Y-5136D01*
X-20825Y-4899D01*
X-21384Y-4383D01*
X-20596Y-3595D01*
X-20585Y-3623D01*
D02*
G37*
G36*
X16202Y-8904D02*
X16173Y-8794D01*
X16131Y-8685D01*
X16075Y-8576D01*
X16005Y-8468D01*
X15922Y-8360D01*
X15825Y-8252D01*
X15715Y-8144D01*
X15590Y-8037D01*
X15452Y-7930D01*
X15301Y-7823D01*
X15698Y-6865D01*
X15830Y-6948D01*
X15949Y-7010D01*
X16055Y-7052D01*
X16149Y-7074D01*
X16231Y-7076D01*
X16300Y-7057D01*
X16357Y-7019D01*
X16401Y-6960D01*
X16432Y-6881D01*
X16452Y-6781D01*
X16202Y-8904D01*
D02*
G37*
G36*
X12365Y-6547D02*
X12415Y-6599D01*
X12479Y-6658D01*
X12649Y-6792D01*
X12875Y-6951D01*
X13319Y-7235D01*
X12279Y-7752D01*
X12084Y-7638D01*
X11724Y-7465D01*
X11560Y-7405D01*
X11406Y-7363D01*
X11263Y-7340D01*
X11131Y-7335D01*
X11008Y-7348D01*
X10897Y-7378D01*
X10796Y-7427D01*
X12329Y-6501D01*
X12365Y-6547D01*
D02*
G37*
G36*
X-8469Y-7437D02*
X-8553Y-7467D01*
X-8627Y-7517D01*
X-8691Y-7587D01*
X-8745Y-7676D01*
X-8789Y-7786D01*
X-8824Y-7915D01*
X-8848Y-8065D01*
X-8863Y-8234D01*
X-8868Y-8423D01*
X-9852D01*
X-9857Y-8234D01*
X-9872Y-8065D01*
X-9896Y-7915D01*
X-9931Y-7786D01*
X-9975Y-7676D01*
X-10029Y-7587D01*
X-10093Y-7517D01*
X-10167Y-7467D01*
X-10251Y-7437D01*
X-10344Y-7427D01*
X-8376D01*
X-8469Y-7437D01*
D02*
G37*
G36*
X18092Y-7078D02*
X18124Y-7161D01*
X18177Y-7233D01*
X18252Y-7297D01*
X18347Y-7350D01*
X18464Y-7394D01*
X18602Y-7428D01*
X18761Y-7452D01*
X18942Y-7467D01*
X19143Y-7471D01*
Y-8456D01*
X18942Y-8460D01*
X18761Y-8475D01*
X18602Y-8499D01*
X18464Y-8533D01*
X18347Y-8577D01*
X18252Y-8630D01*
X18177Y-8693D01*
X18124Y-8766D01*
X18092Y-8849D01*
X18082Y-8941D01*
Y-6986D01*
X18092Y-7078D01*
D02*
G37*
G36*
X20385Y-8948D02*
X20388Y-8854D01*
X20368Y-8771D01*
X20325Y-8697D01*
X20259Y-8633D01*
X20171Y-8579D01*
X20060Y-8534D01*
X19926Y-8500D01*
X19770Y-8475D01*
X19591Y-8461D01*
X19389Y-8456D01*
X19440Y-7471D01*
X19620Y-7467D01*
X19941Y-7434D01*
X20082Y-7405D01*
X20210Y-7367D01*
X20324Y-7322D01*
X20426Y-7267D01*
X20514Y-7205D01*
X20590Y-7134D01*
X20652Y-7055D01*
X20385Y-8948D01*
D02*
G37*
G36*
X8053Y-10845D02*
X8019Y-10935D01*
X8008Y-11044D01*
X8019Y-11170D01*
X8051Y-11315D01*
X8106Y-11478D01*
X8183Y-11659D01*
X8282Y-11858D01*
X8546Y-12311D01*
X7355Y-12434D01*
X7221Y-12218D01*
X6976Y-11752D01*
X6946Y-11659D01*
X6942Y-11595D01*
X6963Y-11563D01*
X7010Y-11561D01*
X7083Y-11589D01*
X7182Y-11649D01*
X8108Y-10773D01*
X8053Y-10845D01*
D02*
G37*
G36*
X6106Y-11485D02*
X6103Y-11518D01*
X6095Y-11845D01*
X6093Y-12478D01*
X5108D01*
X5093Y-11470D01*
X6109D01*
X6106Y-11485D01*
D02*
G37*
G36*
X4135D02*
X4133Y-11518D01*
X4125Y-11845D01*
X4123Y-12478D01*
X3139D01*
X3123Y-11470D01*
X4138D01*
X4135Y-11485D01*
D02*
G37*
G36*
X2166D02*
X2163Y-11518D01*
X2155Y-11845D01*
X2153Y-12478D01*
X1168D01*
X1153Y-11470D01*
X2169D01*
X2166Y-11485D01*
D02*
G37*
G36*
X206D02*
X203Y-11518D01*
X195Y-11845D01*
X193Y-12478D01*
X-792D01*
X-807Y-11470D01*
X209D01*
X206Y-11485D01*
D02*
G37*
G36*
X-1764D02*
X-1767Y-11518D01*
X-1775Y-11845D01*
X-1777Y-12478D01*
X-2761D01*
X-2777Y-11470D01*
X-1761D01*
X-1764Y-11485D01*
D02*
G37*
G36*
X-3734D02*
X-3737Y-11518D01*
X-3745Y-11845D01*
X-3747Y-12478D01*
X-4732D01*
X-4747Y-11470D01*
X-3731D01*
X-3734Y-11485D01*
D02*
G37*
G36*
X12439Y-17437D02*
X12454Y-17606D01*
X12478Y-17756D01*
X12513Y-17886D01*
X12557Y-17995D01*
X12611Y-18085D01*
X12675Y-18154D01*
X12749Y-18204D01*
X12833Y-18234D01*
X12926Y-18244D01*
X10958D01*
X11051Y-18234D01*
X11135Y-18204D01*
X11209Y-18154D01*
X11273Y-18085D01*
X11327Y-17995D01*
X11371Y-17886D01*
X11406Y-17756D01*
X11430Y-17606D01*
X11445Y-17437D01*
X11450Y-17248D01*
X12434D01*
X12439Y-17437D01*
D02*
G37*
G36*
X-17809Y-17262D02*
X-17830Y-17448D01*
X-17839Y-17615D01*
X-17835Y-17763D01*
X-17819Y-17890D01*
X-17790Y-17998D01*
X-17749Y-18087D01*
X-17695Y-18156D01*
X-17629Y-18205D01*
X-17551Y-18234D01*
X-17460Y-18244D01*
X-19444D01*
X-19350Y-18234D01*
X-19263Y-18205D01*
X-19184Y-18155D01*
X-19111Y-18086D01*
X-19046Y-17997D01*
X-18987Y-17889D01*
X-18935Y-17760D01*
X-18891Y-17612D01*
X-18853Y-17445D01*
X-18822Y-17257D01*
X-17809Y-17262D01*
D02*
G37*
G36*
X-23929Y-17437D02*
X-23914Y-17606D01*
X-23889Y-17756D01*
X-23855Y-17886D01*
X-23811Y-17995D01*
X-23756Y-18085D01*
X-23693Y-18154D01*
X-23619Y-18204D01*
X-23535Y-18234D01*
X-23442Y-18244D01*
X-25410D01*
X-25317Y-18234D01*
X-25233Y-18204D01*
X-25159Y-18154D01*
X-25095Y-18085D01*
X-25041Y-17995D01*
X-24997Y-17886D01*
X-24962Y-17756D01*
X-24938Y-17606D01*
X-24923Y-17437D01*
X-24918Y-17248D01*
X-23934D01*
X-23929Y-17437D01*
D02*
G37*
G36*
X-29900D02*
X-29885Y-17606D01*
X-29860Y-17756D01*
X-29826Y-17886D01*
X-29782Y-17995D01*
X-29728Y-18085D01*
X-29664Y-18154D01*
X-29590Y-18204D01*
X-29506Y-18234D01*
X-29413Y-18244D01*
X-31381D01*
X-31288Y-18234D01*
X-31204Y-18204D01*
X-31130Y-18154D01*
X-31066Y-18085D01*
X-31012Y-17995D01*
X-30968Y-17886D01*
X-30933Y-17756D01*
X-30909Y-17606D01*
X-30894Y-17437D01*
X-30889Y-17248D01*
X-29905D01*
X-29900Y-17437D01*
D02*
G37*
G36*
X2125Y-17764D02*
X2069Y-17981D01*
X1890Y-18549D01*
X1856Y-18616D01*
X1827Y-18652D01*
X1802Y-18659D01*
X1782Y-18635D01*
X1766Y-18581D01*
X571Y-18244D01*
X643Y-18254D01*
X711Y-18243D01*
X777Y-18212D01*
X841Y-18159D01*
X902Y-18086D01*
X960Y-17992D01*
X1016Y-17877D01*
X1070Y-17742D01*
X1120Y-17585D01*
X1168Y-17408D01*
X2125Y-17764D01*
D02*
G37*
G36*
X-11018Y-17406D02*
X-11104Y-17568D01*
X-11169Y-17713D01*
X-11215Y-17841D01*
X-11241Y-17952D01*
X-11247Y-18046D01*
X-11233Y-18123D01*
X-11199Y-18183D01*
X-11145Y-18226D01*
X-11072Y-18252D01*
X-10978Y-18262D01*
X-13218Y-18244D01*
X-13113Y-18236D01*
X-13007Y-18210D01*
X-12903Y-18166D01*
X-12799Y-18103D01*
X-12695Y-18023D01*
X-12592Y-17925D01*
X-12490Y-17809D01*
X-12388Y-17674D01*
X-12287Y-17522D01*
X-12186Y-17352D01*
X-11018Y-17406D01*
D02*
G37*
G36*
X-4122Y-17701D02*
X-4312Y-17936D01*
X-4714Y-18516D01*
X-4792Y-18667D01*
X-4841Y-18799D01*
X-4863Y-18909D01*
X-4856Y-18998D01*
X-4821Y-19066D01*
X-4758Y-19114D01*
X-6558Y-18244D01*
X-6472Y-18271D01*
X-6378Y-18273D01*
X-6275Y-18251D01*
X-6163Y-18204D01*
X-6041Y-18133D01*
X-5911Y-18038D01*
X-5772Y-17918D01*
X-5623Y-17773D01*
X-5299Y-17411D01*
X-4122Y-17701D01*
D02*
G37*
G36*
X22916Y-17489D02*
X23063Y-17819D01*
X23140Y-17949D01*
X23220Y-18056D01*
X23302Y-18140D01*
X23386Y-18201D01*
X23473Y-18238D01*
X23562Y-18253D01*
X23653Y-18244D01*
X22118Y-18581D01*
X22122Y-18536D01*
X22120Y-18476D01*
X22111Y-18403D01*
X22095Y-18315D01*
X22044Y-18097D01*
X21918Y-17664D01*
X21862Y-17491D01*
X22845Y-17289D01*
X22916Y-17489D01*
D02*
G37*
G36*
X4819Y-17816D02*
X4952Y-17959D01*
X5079Y-18078D01*
X5201Y-18173D01*
X5317Y-18244D01*
X5428Y-18292D01*
X5533Y-18315D01*
X5633Y-18315D01*
X5727Y-18292D01*
X5816Y-18244D01*
X4216Y-19352D01*
X4279Y-19288D01*
X4314Y-19205D01*
X4321Y-19102D01*
X4300Y-18978D01*
X4251Y-18834D01*
X4174Y-18669D01*
X4069Y-18485D01*
X3937Y-18280D01*
X3588Y-17810D01*
X4681Y-17650D01*
X4819Y-17816D01*
D02*
G37*
%LPC*%
G36*
X2912Y45664D02*
X2208D01*
X1556Y45395D01*
X1058Y44896D01*
X788Y44245D01*
Y43540D01*
X1058Y42889D01*
X1228Y42720D01*
X1271Y42608D01*
X1338Y42538D01*
X1382Y42484D01*
X1419Y42433D01*
X1449Y42383D01*
X1473Y42333D01*
X1492Y42284D01*
X1507Y42235D01*
X1518Y42183D01*
X1524Y42129D01*
X1528Y42045D01*
X1556Y41982D01*
Y40612D01*
X1056Y40404D01*
X1004Y40457D01*
X352Y40727D01*
X-352D01*
X-1004Y40457D01*
X-1502Y39959D01*
X-1772Y39308D01*
Y38603D01*
X-1502Y37952D01*
X-1332Y37782D01*
X-1289Y37671D01*
X-1222Y37601D01*
X-1178Y37547D01*
X-1141Y37496D01*
X-1111Y37446D01*
X-1087Y37396D01*
X-1068Y37347D01*
X-1053Y37298D01*
X-1042Y37246D01*
X-1036Y37192D01*
X-1032Y37108D01*
X-1003Y37045D01*
Y35876D01*
X-1033Y35810D01*
X-1036Y35680D01*
X-1042Y35609D01*
X-1378D01*
Y35095D01*
X-1415Y35006D01*
X-1401Y34973D01*
X-1411Y34938D01*
X-1378Y34877D01*
Y26554D01*
X6498D01*
Y30946D01*
X6525Y31082D01*
Y32382D01*
X7025Y32593D01*
X7542Y32379D01*
X8208D01*
X8823Y32634D01*
X9294Y33104D01*
X9548Y33719D01*
Y34385D01*
X9294Y35000D01*
X8823Y35471D01*
X8208Y35725D01*
X7542D01*
X7025Y35511D01*
X6525Y35722D01*
Y37313D01*
X6547Y37365D01*
X6547Y37493D01*
X6556Y37874D01*
X6557Y37887D01*
X6622Y37952D01*
X6892Y38603D01*
Y39308D01*
X6622Y39959D01*
X6576Y40005D01*
X6549Y40516D01*
X6556Y40811D01*
X6557Y40824D01*
X6622Y40889D01*
X6892Y41540D01*
Y42245D01*
X6622Y42896D01*
X6124Y43395D01*
X5472Y43664D01*
X4768D01*
X4332Y44025D01*
Y44245D01*
X4062Y44896D01*
X3564Y45395D01*
X2912Y45664D01*
D02*
G37*
G36*
X-7540Y35725D02*
X-8206D01*
X-8821Y35471D01*
X-9291Y35000D01*
X-9546Y34385D01*
Y33719D01*
X-9291Y33104D01*
X-8821Y32634D01*
X-8206Y32379D01*
X-7540D01*
X-6925Y32634D01*
X-6454Y33104D01*
X-6200Y33719D01*
Y34385D01*
X-6454Y35000D01*
X-6925Y35471D01*
X-7540Y35725D01*
D02*
G37*
G36*
X-12067Y26164D02*
X-14901D01*
X-15270Y26090D01*
X-15582Y25882D01*
X-15791Y25569D01*
X-15833Y25360D01*
X-15868Y25295D01*
X-15874Y25238D01*
X-15917Y25212D01*
X-16008Y25175D01*
X-16147Y25139D01*
X-16331Y25108D01*
X-16421Y25100D01*
X-16511Y25108D01*
X-16696Y25139D01*
X-16835Y25175D01*
X-16926Y25212D01*
X-16968Y25238D01*
X-16974Y25295D01*
X-17010Y25360D01*
X-17052Y25569D01*
X-17260Y25882D01*
X-17573Y26090D01*
X-17942Y26164D01*
X-20776D01*
X-21145Y26090D01*
X-21457Y25882D01*
X-21666Y25569D01*
X-21708Y25360D01*
X-21743Y25295D01*
X-21749Y25238D01*
X-21792Y25212D01*
X-21883Y25175D01*
X-22022Y25139D01*
X-22207Y25108D01*
X-22296Y25100D01*
X-22386Y25108D01*
X-22571Y25139D01*
X-22709Y25175D01*
X-22801Y25212D01*
X-22843Y25238D01*
X-22850Y25295D01*
X-22885Y25360D01*
X-22927Y25569D01*
X-23135Y25882D01*
X-23448Y26090D01*
X-23817Y26164D01*
X-26651D01*
X-27020Y26090D01*
X-27332Y25882D01*
X-27541Y25569D01*
X-27583Y25360D01*
X-27618Y25295D01*
X-27624Y25238D01*
X-27667Y25212D01*
X-27758Y25175D01*
X-27897Y25139D01*
X-28082Y25108D01*
X-28308Y25089D01*
X-28592Y25081D01*
X-28640Y25060D01*
X-29134D01*
Y25065D01*
X-30120Y24935D01*
X-31039Y24555D01*
X-31828Y23949D01*
X-32322Y23306D01*
X-32408Y23224D01*
X-32675Y22619D01*
X-33036Y22258D01*
X-33305Y21607D01*
Y20902D01*
X-33036Y20251D01*
X-32990Y20205D01*
X-32960Y19632D01*
X-32939Y19589D01*
Y15152D01*
X-32960Y15103D01*
X-32968Y14820D01*
X-32987Y14593D01*
X-33018Y14409D01*
X-33055Y14270D01*
X-33091Y14179D01*
X-33117Y14136D01*
X-33174Y14130D01*
X-33239Y14095D01*
X-33448Y14053D01*
X-33761Y13844D01*
X-33970Y13532D01*
X-34043Y13163D01*
Y10328D01*
X-33970Y9960D01*
X-33761Y9647D01*
X-33448Y9438D01*
X-33079Y9365D01*
X-29988D01*
X-29620Y9438D01*
X-29307Y9647D01*
X-29098Y9960D01*
X-29025Y10328D01*
Y13163D01*
X-29098Y13532D01*
X-29307Y13844D01*
X-29620Y14053D01*
X-29829Y14095D01*
X-29893Y14130D01*
X-29951Y14136D01*
X-29976Y14179D01*
X-30013Y14270D01*
X-30050Y14409D01*
X-30080Y14593D01*
X-30100Y14820D01*
X-30107Y15103D01*
X-30129Y15152D01*
Y19612D01*
X-30107Y19664D01*
X-30107Y19792D01*
X-30098Y20174D01*
X-30097Y20186D01*
X-30032Y20251D01*
X-29762Y20902D01*
Y21607D01*
X-29876Y21882D01*
X-29508Y22171D01*
X-29134Y22246D01*
Y22250D01*
X-28640D01*
X-28592Y22228D01*
X-28308Y22221D01*
X-28082Y22201D01*
X-27897Y22171D01*
X-27758Y22134D01*
X-27667Y22097D01*
X-27624Y22072D01*
X-27618Y22014D01*
X-27583Y21949D01*
X-27541Y21740D01*
X-27332Y21428D01*
X-27020Y21219D01*
X-26651Y21146D01*
X-23817D01*
X-23448Y21219D01*
X-23135Y21428D01*
X-22927Y21740D01*
X-22885Y21949D01*
X-22850Y22014D01*
X-22843Y22072D01*
X-22801Y22097D01*
X-22709Y22134D01*
X-22571Y22171D01*
X-22386Y22201D01*
X-22296Y22209D01*
X-22207Y22201D01*
X-22022Y22171D01*
X-21883Y22134D01*
X-21792Y22097D01*
X-21749Y22072D01*
X-21743Y22014D01*
X-21708Y21949D01*
X-21666Y21740D01*
X-21457Y21428D01*
X-21145Y21219D01*
X-20776Y21146D01*
X-17942D01*
X-17573Y21219D01*
X-17260Y21428D01*
X-17052Y21740D01*
X-17010Y21949D01*
X-16974Y22014D01*
X-16968Y22072D01*
X-16926Y22097D01*
X-16835Y22134D01*
X-16696Y22171D01*
X-16511Y22201D01*
X-16421Y22209D01*
X-16331Y22201D01*
X-16147Y22171D01*
X-16008Y22134D01*
X-15917Y22097D01*
X-15874Y22072D01*
X-15868Y22014D01*
X-15833Y21949D01*
X-15791Y21740D01*
X-15582Y21428D01*
X-15270Y21219D01*
X-14901Y21146D01*
X-12067D01*
X-11698Y21219D01*
X-11385Y21428D01*
X-11176Y21740D01*
X-11103Y22109D01*
Y25200D01*
X-11176Y25569D01*
X-11385Y25882D01*
X-11698Y26090D01*
X-12067Y26164D01*
D02*
G37*
G36*
X21883Y26064D02*
X19049D01*
X18680Y25990D01*
X18368Y25782D01*
X18159Y25469D01*
X18085Y25100D01*
Y22009D01*
X18159Y21640D01*
X18368Y21328D01*
X18680Y21119D01*
X19049Y21046D01*
X21883D01*
X22252Y21119D01*
X22565Y21328D01*
X22773Y21640D01*
X22847Y22009D01*
Y25100D01*
X22773Y25469D01*
X22565Y25782D01*
X22252Y25990D01*
X21883Y26064D01*
D02*
G37*
G36*
X16033D02*
X13199D01*
X12830Y25990D01*
X12518Y25782D01*
X12309Y25469D01*
X12235Y25100D01*
Y22009D01*
X12309Y21640D01*
X12518Y21328D01*
X12830Y21119D01*
X13199Y21046D01*
X16033D01*
X16402Y21119D01*
X16715Y21328D01*
X16924Y21640D01*
X16997Y22009D01*
Y25100D01*
X16924Y25469D01*
X16715Y25782D01*
X16402Y25990D01*
X16033Y26064D01*
D02*
G37*
G36*
X-6192Y26064D02*
X-9026D01*
X-9395Y25990D01*
X-9707Y25782D01*
X-9916Y25469D01*
X-9990Y25100D01*
Y22009D01*
X-9916Y21640D01*
X-9707Y21328D01*
X-9395Y21119D01*
X-9026Y21046D01*
X-6192D01*
X-5823Y21119D01*
X-5510Y21328D01*
X-5302Y21640D01*
X-5228Y22009D01*
Y25100D01*
X-5302Y25469D01*
X-5510Y25782D01*
X-5823Y25990D01*
X-6192Y26064D01*
D02*
G37*
G36*
X29117Y26961D02*
X28942Y26927D01*
X28765D01*
X28600Y26859D01*
X28426Y26824D01*
X28278Y26725D01*
X28113Y26657D01*
X27988Y26531D01*
X27840Y26432D01*
X27741Y26285D01*
X27615Y26159D01*
X27547Y25994D01*
X27448Y25846D01*
X27413Y25672D01*
X27345Y25508D01*
Y25330D01*
X27311Y25155D01*
Y22155D01*
X27345Y21981D01*
Y21803D01*
X27413Y21638D01*
X27448Y21464D01*
X27547Y21316D01*
X27615Y21152D01*
X27741Y21026D01*
X27840Y20878D01*
X27988Y20779D01*
X28113Y20653D01*
X28278Y20585D01*
X28426Y20486D01*
X28600Y20452D01*
X28765Y20383D01*
X28942D01*
X29117Y20349D01*
X29291Y20383D01*
X29469D01*
X29634Y20452D01*
X29808Y20486D01*
X29956Y20585D01*
X30121Y20653D01*
X30246Y20779D01*
X30394Y20878D01*
X30493Y21026D01*
X30619Y21152D01*
X30687Y21316D01*
X30786Y21464D01*
X30821Y21638D01*
X30889Y21803D01*
Y21981D01*
X30923Y22155D01*
Y25155D01*
X30889Y25330D01*
Y25508D01*
X30821Y25672D01*
X30786Y25846D01*
X30687Y25994D01*
X30619Y26159D01*
X30493Y26285D01*
X30394Y26432D01*
X30246Y26531D01*
X30121Y26657D01*
X29956Y26725D01*
X29808Y26824D01*
X29634Y26859D01*
X29469Y26927D01*
X29291D01*
X29117Y26961D01*
D02*
G37*
G36*
X25302Y-23918D02*
X22467D01*
X22098Y-23991D01*
X21786Y-24200D01*
X21577Y-24512D01*
X21504Y-24881D01*
Y-26452D01*
X21493Y-26474D01*
X21504Y-26507D01*
Y-26931D01*
X21467Y-26994D01*
X21367Y-27137D01*
X21037Y-27527D01*
X20823Y-27749D01*
X20335Y-27624D01*
X20294Y-27607D01*
Y-24881D01*
X20220Y-24512D01*
X20012Y-24200D01*
X19699Y-23991D01*
X19330Y-23918D01*
X16496D01*
X16127Y-23991D01*
X15814Y-24200D01*
X15606Y-24512D01*
X15532Y-24881D01*
Y-26452D01*
X15521Y-26474D01*
X15532Y-26507D01*
Y-26931D01*
X15496Y-26994D01*
X15396Y-27137D01*
X15066Y-27527D01*
X14852Y-27749D01*
X14364Y-27624D01*
X14323Y-27607D01*
Y-24881D01*
X14249Y-24512D01*
X14040Y-24200D01*
X13728Y-23991D01*
X13359Y-23918D01*
X10525D01*
X10156Y-23991D01*
X9843Y-24200D01*
X9635Y-24512D01*
X9561Y-24881D01*
Y-26452D01*
X9550Y-26474D01*
X9561Y-26507D01*
Y-26931D01*
X9525Y-26994D01*
X9425Y-27137D01*
X9095Y-27527D01*
X8880Y-27749D01*
X8393Y-27624D01*
X8352Y-27607D01*
Y-24881D01*
X8278Y-24512D01*
X8069Y-24200D01*
X7757Y-23991D01*
X7388Y-23918D01*
X4553D01*
X4185Y-23991D01*
X3872Y-24200D01*
X3663Y-24512D01*
X3590Y-24881D01*
Y-27972D01*
X3663Y-28341D01*
X3872Y-28654D01*
X4136Y-28830D01*
X4199Y-29154D01*
X4209Y-29377D01*
X4008Y-29639D01*
X3713Y-30017D01*
X3368Y-30362D01*
X2475Y-31255D01*
X2419Y-31276D01*
X2417Y-31280D01*
X2412Y-31282D01*
X2239Y-31447D01*
X2094Y-31572D01*
X1970Y-31664D01*
X1872Y-31725D01*
X1843Y-31738D01*
X1028Y-31401D01*
X0Y-31265D01*
X-1028Y-31401D01*
X-1986Y-31797D01*
X-2808Y-32428D01*
X-3169Y-32899D01*
X-3648Y-32701D01*
X-3610Y-32416D01*
X-3250Y-31548D01*
X-2970Y-31183D01*
X-2676Y-30805D01*
X-2322Y-30452D01*
X-1551Y-29680D01*
X-1517Y-29672D01*
X-1496Y-29638D01*
X-1459Y-29624D01*
X-996Y-29193D01*
X-818Y-29049D01*
X-663Y-28941D01*
X-655Y-28936D01*
X-296D01*
X-274Y-28947D01*
X-240Y-28936D01*
X-202D01*
X-169Y-28946D01*
X-149Y-28936D01*
X1417D01*
X1786Y-28863D01*
X2098Y-28654D01*
X2307Y-28341D01*
X2380Y-27972D01*
Y-24881D01*
X2307Y-24512D01*
X2098Y-24200D01*
X1786Y-23991D01*
X1417Y-23918D01*
X-1418D01*
X-1786Y-23991D01*
X-2099Y-24200D01*
X-2308Y-24512D01*
X-2381Y-24881D01*
Y-26452D01*
X-2392Y-26474D01*
X-2381Y-26507D01*
Y-26931D01*
X-2417Y-26994D01*
X-2517Y-27137D01*
X-2847Y-27527D01*
X-3062Y-27749D01*
X-3085Y-27808D01*
X-3714Y-28438D01*
X-4175Y-28192D01*
X-4132Y-27972D01*
Y-24881D01*
X-4205Y-24512D01*
X-4414Y-24200D01*
X-4726Y-23991D01*
X-5095Y-23918D01*
X-7930D01*
X-8298Y-23991D01*
X-8611Y-24200D01*
X-8820Y-24512D01*
X-8893Y-24881D01*
Y-27972D01*
X-8820Y-28341D01*
X-8611Y-28654D01*
X-8298Y-28863D01*
X-7930Y-28936D01*
X-7807D01*
X-7805Y-28942D01*
X-7782Y-29029D01*
X-7761Y-29153D01*
X-7747Y-29312D01*
X-7742Y-29519D01*
X-7717Y-29576D01*
Y-29957D01*
X-7714Y-29969D01*
X-7835Y-30889D01*
X-7985Y-31250D01*
X-8080Y-31397D01*
X-8190Y-31549D01*
X-8283Y-31661D01*
X-8301Y-31679D01*
X-8972Y-31401D01*
X-10000Y-31265D01*
X-11028Y-31401D01*
X-11986Y-31797D01*
X-12808Y-32428D01*
X-13329Y-33107D01*
X-13829Y-32937D01*
Y-30964D01*
X-13831Y-30953D01*
X-13710Y-30033D01*
X-13531Y-29601D01*
X-13390Y-29347D01*
X-13247Y-29112D01*
X-13125Y-28936D01*
X-12994D01*
X-12986Y-28941D01*
X-12965Y-28936D01*
X-11066D01*
X-10698Y-28863D01*
X-10385Y-28654D01*
X-10176Y-28341D01*
X-10103Y-27972D01*
Y-24881D01*
X-10176Y-24512D01*
X-10385Y-24200D01*
X-10698Y-23991D01*
X-11066Y-23918D01*
X-13901D01*
X-14269Y-23991D01*
X-14582Y-24200D01*
X-14791Y-24512D01*
X-14864Y-24881D01*
Y-26564D01*
X-14872Y-26594D01*
X-14938Y-26801D01*
X-15324Y-27689D01*
X-15503Y-28035D01*
X-15587Y-28087D01*
X-15714Y-28057D01*
X-16074Y-27799D01*
Y-24881D01*
X-16147Y-24512D01*
X-16356Y-24200D01*
X-16669Y-23991D01*
X-17037Y-23918D01*
X-19872D01*
X-20241Y-23991D01*
X-20553Y-24200D01*
X-20762Y-24512D01*
X-20835Y-24881D01*
Y-27972D01*
X-20762Y-28341D01*
X-20553Y-28654D01*
X-20241Y-28863D01*
X-19872Y-28936D01*
X-17037D01*
X-16669Y-28863D01*
X-16356Y-28654D01*
X-16325Y-28607D01*
X-16177Y-28489D01*
X-15854Y-28634D01*
X-15816Y-28765D01*
X-15786Y-28665D01*
X-15786Y-28665D01*
X-15849Y-28875D01*
X-16128Y-29792D01*
X-16243Y-30964D01*
X-16237D01*
Y-32851D01*
X-16737Y-33021D01*
X-17192Y-32428D01*
X-18014Y-31797D01*
X-18972Y-31401D01*
X-20000Y-31265D01*
X-21028Y-31401D01*
X-21906Y-31764D01*
X-22053Y-31639D01*
X-22156Y-31538D01*
X-22207Y-31518D01*
X-22743Y-30819D01*
X-23103Y-29951D01*
X-23171Y-29436D01*
X-23009Y-28936D01*
X-22640Y-28863D01*
X-22327Y-28654D01*
X-22118Y-28341D01*
X-22045Y-27972D01*
Y-24881D01*
X-22118Y-24512D01*
X-22327Y-24200D01*
X-22640Y-23991D01*
X-23009Y-23918D01*
X-25843D01*
X-26212Y-23991D01*
X-26524Y-24200D01*
X-26733Y-24512D01*
X-26807Y-24881D01*
Y-27972D01*
X-26733Y-28341D01*
X-26524Y-28654D01*
X-26212Y-28863D01*
X-25843Y-28936D01*
X-25656D01*
X-25655Y-29024D01*
X-25629Y-29086D01*
X-25520Y-30192D01*
X-25178Y-31319D01*
X-24623Y-32358D01*
X-23920Y-33215D01*
X-23895Y-33278D01*
X-23780Y-33395D01*
X-23602Y-33593D01*
X-23588Y-33611D01*
X-23836Y-34209D01*
X-23971Y-35236D01*
Y-35630D01*
X-23836Y-36658D01*
X-23439Y-37615D01*
X-22808Y-38438D01*
X-21985Y-39069D01*
X-21028Y-39466D01*
X-20000Y-39601D01*
X-18972Y-39466D01*
X-18014Y-39069D01*
X-17192Y-38438D01*
X-16737Y-37845D01*
X-16237Y-38015D01*
Y-38478D01*
X-16235Y-38490D01*
X-16356Y-39410D01*
X-16716Y-40278D01*
X-16996Y-40643D01*
X-17290Y-41021D01*
X-17582Y-41276D01*
X-17583Y-41280D01*
X-17588Y-41282D01*
X-17761Y-41447D01*
X-17906Y-41572D01*
X-18030Y-41664D01*
X-18128Y-41725D01*
X-18157Y-41738D01*
X-18972Y-41401D01*
X-20000Y-41265D01*
X-21028Y-41401D01*
X-21985Y-41797D01*
X-22808Y-42428D01*
X-23439Y-43251D01*
X-23836Y-44208D01*
X-23971Y-45236D01*
Y-45630D01*
X-23836Y-46658D01*
X-23439Y-47615D01*
X-22808Y-48438D01*
X-21985Y-49069D01*
X-21028Y-49466D01*
X-20000Y-49601D01*
X-18972Y-49466D01*
X-18014Y-49069D01*
X-17192Y-48438D01*
X-16561Y-47615D01*
X-16164Y-46658D01*
X-16029Y-45630D01*
Y-45236D01*
X-16164Y-44208D01*
X-16357Y-43743D01*
X-16371Y-43687D01*
X-16366Y-43674D01*
X-16332Y-43602D01*
X-16267Y-43500D01*
X-16172Y-43373D01*
X-16046Y-43225D01*
X-15879Y-43051D01*
X-15583Y-42728D01*
X-15583Y-42728D01*
X-14836Y-41817D01*
X-14280Y-40778D01*
X-13938Y-39650D01*
X-13823Y-38478D01*
X-13829D01*
Y-37929D01*
X-13329Y-37759D01*
X-12808Y-38438D01*
X-11986Y-39069D01*
X-11028Y-39466D01*
X-10000Y-39601D01*
X-8972Y-39466D01*
X-8015Y-39069D01*
X-7192Y-38438D01*
X-6637Y-37715D01*
X-6216Y-37802D01*
X-6137Y-37845D01*
Y-38378D01*
X-6135Y-38390D01*
X-6256Y-39310D01*
X-6616Y-40178D01*
X-6896Y-40543D01*
X-7191Y-40920D01*
X-7525Y-41255D01*
X-7581Y-41276D01*
X-7583Y-41280D01*
X-7588Y-41282D01*
X-7761Y-41447D01*
X-7906Y-41572D01*
X-8030Y-41664D01*
X-8128Y-41725D01*
X-8157Y-41738D01*
X-8972Y-41401D01*
X-10000Y-41265D01*
X-11028Y-41401D01*
X-11986Y-41797D01*
X-12808Y-42428D01*
X-13439Y-43251D01*
X-13836Y-44208D01*
X-13971Y-45236D01*
Y-45630D01*
X-13836Y-46658D01*
X-13439Y-47615D01*
X-12808Y-48438D01*
X-11986Y-49069D01*
X-11028Y-49466D01*
X-10000Y-49601D01*
X-8972Y-49466D01*
X-8015Y-49069D01*
X-7192Y-48438D01*
X-6561Y-47615D01*
X-6164Y-46658D01*
X-6029Y-45630D01*
Y-45236D01*
X-6164Y-44208D01*
X-6357Y-43743D01*
X-6370Y-43687D01*
X-6366Y-43674D01*
X-6332Y-43602D01*
X-6267Y-43500D01*
X-6172Y-43373D01*
X-6046Y-43225D01*
X-5879Y-43051D01*
X-5857Y-42993D01*
X-5841Y-42977D01*
X-5483Y-42628D01*
X-5483Y-42628D01*
X-4736Y-41717D01*
X-4180Y-40678D01*
X-3839Y-39550D01*
X-3723Y-38378D01*
X-3619Y-38202D01*
X-3041Y-38134D01*
X-2808Y-38438D01*
X-1986Y-39069D01*
X-1028Y-39466D01*
X0Y-39601D01*
X1028Y-39466D01*
X1986Y-39069D01*
X2808Y-38438D01*
X3363Y-37715D01*
X3784Y-37802D01*
X3863Y-37845D01*
Y-38378D01*
X3865Y-38390D01*
X3744Y-39310D01*
X3384Y-40178D01*
X3104Y-40543D01*
X2809Y-40920D01*
X2475Y-41255D01*
X2419Y-41276D01*
X2417Y-41280D01*
X2412Y-41282D01*
X2239Y-41447D01*
X2094Y-41572D01*
X1970Y-41664D01*
X1872Y-41725D01*
X1843Y-41738D01*
X1028Y-41401D01*
X0Y-41265D01*
X-1028Y-41401D01*
X-1986Y-41797D01*
X-2808Y-42428D01*
X-3439Y-43251D01*
X-3836Y-44208D01*
X-3971Y-45236D01*
Y-45630D01*
X-3836Y-46658D01*
X-3439Y-47615D01*
X-2808Y-48438D01*
X-1986Y-49069D01*
X-1028Y-49466D01*
X0Y-49601D01*
X1028Y-49466D01*
X1986Y-49069D01*
X2808Y-48438D01*
X3439Y-47615D01*
X3836Y-46658D01*
X3971Y-45630D01*
Y-45236D01*
X3836Y-44208D01*
X3643Y-43743D01*
X3630Y-43687D01*
X3634Y-43674D01*
X3668Y-43602D01*
X3733Y-43500D01*
X3828Y-43373D01*
X3954Y-43225D01*
X4121Y-43051D01*
X4143Y-42993D01*
X4159Y-42977D01*
X4517Y-42628D01*
X4517Y-42628D01*
X5264Y-41717D01*
X5819Y-40678D01*
X6162Y-39550D01*
X6277Y-38378D01*
X6381Y-38202D01*
X6959Y-38134D01*
X7192Y-38438D01*
X8015Y-39069D01*
X8972Y-39466D01*
X10000Y-39601D01*
X11028Y-39466D01*
X11986Y-39069D01*
X12808Y-38438D01*
X13363Y-37715D01*
X13784Y-37802D01*
X13863Y-37845D01*
Y-38378D01*
X13865Y-38390D01*
X13744Y-39310D01*
X13384Y-40178D01*
X13104Y-40543D01*
X12810Y-40920D01*
X12475Y-41255D01*
X12419Y-41276D01*
X12417Y-41280D01*
X12412Y-41282D01*
X12239Y-41447D01*
X12094Y-41572D01*
X11970Y-41664D01*
X11872Y-41725D01*
X11843Y-41738D01*
X11028Y-41401D01*
X10000Y-41265D01*
X8972Y-41401D01*
X8015Y-41797D01*
X7192Y-42428D01*
X6561Y-43251D01*
X6164Y-44208D01*
X6029Y-45236D01*
Y-45630D01*
X6164Y-46658D01*
X6561Y-47615D01*
X7192Y-48438D01*
X8015Y-49069D01*
X8972Y-49466D01*
X10000Y-49601D01*
X11028Y-49466D01*
X11986Y-49069D01*
X12808Y-48438D01*
X13439Y-47615D01*
X13836Y-46658D01*
X13971Y-45630D01*
Y-45236D01*
X13836Y-44208D01*
X13643Y-43743D01*
X13630Y-43687D01*
X13634Y-43674D01*
X13668Y-43602D01*
X13733Y-43500D01*
X13828Y-43373D01*
X13954Y-43225D01*
X14121Y-43051D01*
X14143Y-42993D01*
X14159Y-42977D01*
X14517Y-42628D01*
X14517Y-42628D01*
X15264Y-41717D01*
X15820Y-40678D01*
X16161Y-39550D01*
X16277Y-38378D01*
X16381Y-38202D01*
X16959Y-38134D01*
X17192Y-38438D01*
X18014Y-39069D01*
X18972Y-39466D01*
X20000Y-39601D01*
X21028Y-39466D01*
X21985Y-39069D01*
X22808Y-38438D01*
X23439Y-37615D01*
X23836Y-36658D01*
X23971Y-35630D01*
Y-35236D01*
X23836Y-34209D01*
X23439Y-33251D01*
X22808Y-32428D01*
X21985Y-31797D01*
X21182Y-31464D01*
X21073Y-31043D01*
X21091Y-30904D01*
X21171Y-30843D01*
X21171Y-30843D01*
X21173Y-30842D01*
X21172Y-30841D01*
X22334Y-29680D01*
X22367Y-29672D01*
X22388Y-29638D01*
X22425Y-29624D01*
X22888Y-29193D01*
X23067Y-29049D01*
X23221Y-28941D01*
X23229Y-28936D01*
X23589D01*
X23610Y-28947D01*
X23644Y-28936D01*
X23683D01*
X23716Y-28946D01*
X23736Y-28936D01*
X25302D01*
X25670Y-28863D01*
X25983Y-28654D01*
X26192Y-28341D01*
X26265Y-27972D01*
Y-24881D01*
X26192Y-24512D01*
X25983Y-24200D01*
X25670Y-23991D01*
X25302Y-23918D01*
D02*
G37*
G36*
X-28980D02*
X-31814D01*
X-32183Y-23991D01*
X-32495Y-24200D01*
X-32704Y-24512D01*
X-32778Y-24881D01*
Y-27972D01*
X-32704Y-28341D01*
X-32495Y-28654D01*
X-32183Y-28863D01*
X-31814Y-28936D01*
X-31692D01*
X-31689Y-28942D01*
X-31666Y-29029D01*
X-31646Y-29153D01*
X-31632Y-29312D01*
X-31626Y-29519D01*
X-31601Y-29576D01*
Y-30647D01*
X-31626Y-30704D01*
X-31632Y-30911D01*
X-31646Y-31070D01*
X-31666Y-31194D01*
X-31689Y-31281D01*
X-31697Y-31299D01*
X-33937D01*
Y-39567D01*
X-26063D01*
Y-31299D01*
X-29097D01*
X-29105Y-31281D01*
X-29128Y-31194D01*
X-29148Y-31070D01*
X-29162Y-30911D01*
X-29167Y-30704D01*
X-29193Y-30647D01*
Y-29576D01*
X-29167Y-29519D01*
X-29162Y-29312D01*
X-29148Y-29153D01*
X-29128Y-29029D01*
X-29105Y-28942D01*
X-29102Y-28936D01*
X-28980D01*
X-28611Y-28863D01*
X-28298Y-28654D01*
X-28089Y-28341D01*
X-28016Y-27972D01*
Y-24881D01*
X-28089Y-24512D01*
X-28298Y-24200D01*
X-28611Y-23991D01*
X-28980Y-23918D01*
D02*
G37*
G36*
X20000Y-41265D02*
X18972Y-41401D01*
X18014Y-41797D01*
X17192Y-42428D01*
X16561Y-43251D01*
X16164Y-44208D01*
X16029Y-45236D01*
Y-45630D01*
X16164Y-46658D01*
X16561Y-47615D01*
X17192Y-48438D01*
X18014Y-49069D01*
X18972Y-49466D01*
X20000Y-49601D01*
X21028Y-49466D01*
X21985Y-49069D01*
X22808Y-48438D01*
X23439Y-47615D01*
X23836Y-46658D01*
X23971Y-45630D01*
Y-45236D01*
X23836Y-44208D01*
X23439Y-43251D01*
X22808Y-42428D01*
X21985Y-41797D01*
X21028Y-41401D01*
X20000Y-41265D01*
D02*
G37*
G36*
X-30000D02*
X-31028Y-41401D01*
X-31986Y-41797D01*
X-32808Y-42428D01*
X-33439Y-43251D01*
X-33836Y-44208D01*
X-33971Y-45236D01*
Y-45630D01*
X-33836Y-46658D01*
X-33439Y-47615D01*
X-32808Y-48438D01*
X-31986Y-49069D01*
X-31028Y-49466D01*
X-30000Y-49601D01*
X-28972Y-49466D01*
X-28014Y-49069D01*
X-27192Y-48438D01*
X-26561Y-47615D01*
X-26164Y-46658D01*
X-26029Y-45630D01*
Y-45236D01*
X-26164Y-44208D01*
X-26561Y-43251D01*
X-27192Y-42428D01*
X-28014Y-41797D01*
X-28972Y-41401D01*
X-30000Y-41265D01*
D02*
G37*
%LPD*%
G36*
X3305Y42963D02*
X3231Y42874D01*
X3166Y42783D01*
X3110Y42689D01*
X3062Y42592D01*
X3023Y42493D01*
X2993Y42391D01*
X2971Y42287D01*
X2958Y42180D01*
X2954Y42070D01*
X2166D01*
X2162Y42180D01*
X2149Y42287D01*
X2127Y42391D01*
X2097Y42493D01*
X2058Y42592D01*
X2010Y42689D01*
X1954Y42783D01*
X1889Y42874D01*
X1815Y42963D01*
X1733Y43049D01*
X3387D01*
X3305Y42963D01*
D02*
G37*
G36*
X5939Y41035D02*
X5933Y41007D01*
X5927Y40966D01*
X5917Y40843D01*
X5909Y40507D01*
X5947Y39799D01*
X4293D01*
X4301Y39813D01*
X4307Y39841D01*
X4313Y39882D01*
X4323Y40005D01*
X4331Y40341D01*
X4293Y41049D01*
X5947D01*
X5939Y41035D01*
D02*
G37*
G36*
Y38098D02*
X5933Y38070D01*
X5927Y38029D01*
X5917Y37906D01*
X5908Y37501D01*
X5907Y37367D01*
X4333D01*
X4293Y38112D01*
X5947D01*
X5939Y38098D01*
D02*
G37*
G36*
X745Y38026D02*
X671Y37937D01*
X606Y37846D01*
X550Y37752D01*
X502Y37655D01*
X463Y37556D01*
X433Y37454D01*
X411Y37350D01*
X398Y37243D01*
X394Y37133D01*
X-394D01*
X-398Y37243D01*
X-411Y37350D01*
X-433Y37454D01*
X-463Y37556D01*
X-502Y37655D01*
X-550Y37752D01*
X-606Y37846D01*
X-671Y37937D01*
X-745Y38026D01*
X-827Y38112D01*
X827D01*
X745Y38026D01*
D02*
G37*
G36*
X2957Y35644D02*
X2969Y35510D01*
X2988Y35392D01*
X3015Y35290D01*
X3049Y35203D01*
X3091Y35133D01*
X3141Y35077D01*
X3198Y35038D01*
X3263Y35014D01*
X3335Y35006D01*
X1785D01*
X1857Y35014D01*
X1922Y35038D01*
X1979Y35077D01*
X2029Y35133D01*
X2071Y35203D01*
X2105Y35290D01*
X2132Y35392D01*
X2151Y35510D01*
X2162Y35644D01*
X2166Y35794D01*
X2954D01*
X2957Y35644D01*
D02*
G37*
G36*
X398D02*
X409Y35510D01*
X428Y35392D01*
X455Y35290D01*
X489Y35203D01*
X531Y35133D01*
X581Y35077D01*
X638Y35038D01*
X703Y35014D01*
X775Y35006D01*
X-775D01*
X-703Y35014D01*
X-638Y35038D01*
X-581Y35077D01*
X-531Y35133D01*
X-489Y35203D01*
X-455Y35290D01*
X-428Y35392D01*
X-409Y35510D01*
X-398Y35644D01*
X-394Y35794D01*
X394D01*
X398Y35644D01*
D02*
G37*
G36*
X-15233Y22082D02*
X-15249Y22231D01*
X-15296Y22365D01*
X-15376Y22483D01*
X-15487Y22585D01*
X-15631Y22671D01*
X-15806Y22742D01*
X-16013Y22797D01*
X-16252Y22836D01*
X-16421Y22851D01*
X-16591Y22836D01*
X-16830Y22797D01*
X-17037Y22742D01*
X-17212Y22671D01*
X-17355Y22585D01*
X-17467Y22483D01*
X-17546Y22365D01*
X-17594Y22231D01*
X-17610Y22082D01*
Y25227D01*
X-17594Y25078D01*
X-17546Y24945D01*
X-17467Y24827D01*
X-17355Y24725D01*
X-17212Y24638D01*
X-17037Y24568D01*
X-16830Y24513D01*
X-16591Y24474D01*
X-16421Y24459D01*
X-16252Y24474D01*
X-16013Y24513D01*
X-15806Y24568D01*
X-15631Y24638D01*
X-15487Y24725D01*
X-15376Y24827D01*
X-15296Y24945D01*
X-15249Y25078D01*
X-15233Y25227D01*
Y22082D01*
D02*
G37*
G36*
X-21108D02*
X-21124Y22231D01*
X-21171Y22365D01*
X-21251Y22483D01*
X-21362Y22585D01*
X-21506Y22671D01*
X-21681Y22742D01*
X-21888Y22797D01*
X-22127Y22836D01*
X-22296Y22851D01*
X-22466Y22836D01*
X-22705Y22797D01*
X-22912Y22742D01*
X-23087Y22671D01*
X-23230Y22585D01*
X-23342Y22483D01*
X-23421Y22365D01*
X-23469Y22231D01*
X-23485Y22082D01*
Y25227D01*
X-23469Y25078D01*
X-23421Y24945D01*
X-23342Y24827D01*
X-23230Y24725D01*
X-23087Y24638D01*
X-22912Y24568D01*
X-22705Y24513D01*
X-22466Y24474D01*
X-22296Y24459D01*
X-22127Y24474D01*
X-21888Y24513D01*
X-21681Y24568D01*
X-21506Y24638D01*
X-21362Y24725D01*
X-21251Y24827D01*
X-21171Y24945D01*
X-21124Y25078D01*
X-21108Y25227D01*
Y22082D01*
D02*
G37*
G36*
X-26983D02*
X-26999Y22231D01*
X-27046Y22365D01*
X-27126Y22483D01*
X-27237Y22585D01*
X-27381Y22671D01*
X-27556Y22742D01*
X-27763Y22797D01*
X-28002Y22836D01*
X-28273Y22860D01*
X-28575Y22867D01*
Y24442D01*
X-28273Y24450D01*
X-28002Y24474D01*
X-27763Y24513D01*
X-27556Y24568D01*
X-27381Y24638D01*
X-27237Y24725D01*
X-27126Y24827D01*
X-27046Y24945D01*
X-26999Y25078D01*
X-26983Y25227D01*
Y22082D01*
D02*
G37*
G36*
X-30086Y22557D02*
X-30197Y22472D01*
X-30374Y22312D01*
X-30441Y22238D01*
X-30492Y22168D01*
X-30529Y22101D01*
X-30550Y22037D01*
X-30557Y21978D01*
X-30548Y21921D01*
X-30525Y21869D01*
X-32128Y22276D01*
X-31823Y22966D01*
X-30086Y22557D01*
D02*
G37*
G36*
X-30714Y20397D02*
X-30721Y20369D01*
X-30727Y20328D01*
X-30737Y20206D01*
X-30746Y19800D01*
X-30746Y19666D01*
X-32321D01*
X-32361Y20411D01*
X-30707D01*
X-30714Y20397D01*
D02*
G37*
G36*
X-30739Y14784D02*
X-30715Y14514D01*
X-30676Y14275D01*
X-30621Y14068D01*
X-30550Y13893D01*
X-30464Y13749D01*
X-30362Y13638D01*
X-30244Y13558D01*
X-30110Y13510D01*
X-29961Y13495D01*
X-33106D01*
X-32957Y13510D01*
X-32824Y13558D01*
X-32706Y13638D01*
X-32604Y13749D01*
X-32517Y13893D01*
X-32447Y14068D01*
X-32392Y14275D01*
X-32353Y14514D01*
X-32329Y14784D01*
X-32321Y15087D01*
X-30746D01*
X-30739Y14784D01*
D02*
G37*
G36*
X23660Y-28310D02*
X23575Y-28238D01*
X23471Y-28201D01*
X23350Y-28199D01*
X23210Y-28232D01*
X23052Y-28300D01*
X22876Y-28402D01*
X22682Y-28538D01*
X22469Y-28710D01*
X21990Y-29157D01*
X21283Y-28193D01*
X21512Y-27956D01*
X21874Y-27527D01*
X22007Y-27337D01*
X22108Y-27162D01*
X22176Y-27003D01*
X22213Y-26859D01*
X22217Y-26732D01*
X22190Y-26619D01*
X22130Y-26523D01*
X23660Y-28310D01*
D02*
G37*
G36*
X17689D02*
X17604Y-28238D01*
X17500Y-28201D01*
X17379Y-28199D01*
X17239Y-28232D01*
X17081Y-28300D01*
X16905Y-28402D01*
X16711Y-28538D01*
X16498Y-28710D01*
X16018Y-29157D01*
X15312Y-28193D01*
X15541Y-27956D01*
X15903Y-27527D01*
X16036Y-27337D01*
X16137Y-27162D01*
X16205Y-27003D01*
X16242Y-26859D01*
X16246Y-26732D01*
X16219Y-26619D01*
X16159Y-26523D01*
X17689Y-28310D01*
D02*
G37*
G36*
X11717D02*
X11632Y-28238D01*
X11529Y-28201D01*
X11408Y-28199D01*
X11268Y-28232D01*
X11110Y-28300D01*
X10934Y-28402D01*
X10740Y-28538D01*
X10527Y-28710D01*
X10047Y-29157D01*
X9340Y-28193D01*
X9570Y-27956D01*
X9932Y-27527D01*
X10065Y-27337D01*
X10166Y-27162D01*
X10234Y-27003D01*
X10271Y-26859D01*
X10275Y-26732D01*
X10248Y-26619D01*
X10188Y-26523D01*
X11717Y-28310D01*
D02*
G37*
G36*
X-225D02*
X-310Y-28238D01*
X-413Y-28201D01*
X-534Y-28199D01*
X-674Y-28232D01*
X-832Y-28300D01*
X-1008Y-28402D01*
X-1203Y-28538D01*
X-1415Y-28710D01*
X-1895Y-29157D01*
X-2602Y-28193D01*
X-2372Y-27956D01*
X-2010Y-27527D01*
X-1877Y-27337D01*
X-1777Y-27162D01*
X-1708Y-27003D01*
X-1671Y-26859D01*
X-1667Y-26732D01*
X-1695Y-26619D01*
X-1755Y-26523D01*
X-225Y-28310D01*
D02*
G37*
G36*
X-12887D02*
X-12962Y-28207D01*
X-13047Y-28150D01*
X-13143Y-28139D01*
X-13250Y-28173D01*
X-13367Y-28252D01*
X-13495Y-28377D01*
X-13633Y-28548D01*
X-13783Y-28764D01*
X-13942Y-29025D01*
X-14113Y-29332D01*
X-14935Y-28329D01*
X-14746Y-27963D01*
X-14339Y-27027D01*
X-14256Y-26767D01*
X-14199Y-26535D01*
X-14169Y-26329D01*
X-14166Y-26149D01*
X-14189Y-25997D01*
X-14238Y-25870D01*
X-12887Y-28310D01*
D02*
G37*
G36*
X-23749Y-28317D02*
X-23767Y-28338D01*
X-23783Y-28373D01*
X-23797Y-28423D01*
X-23809Y-28487D01*
X-23818Y-28565D01*
X-23831Y-28764D01*
X-23835Y-29019D01*
X-25016D01*
X-25017Y-28884D01*
X-25043Y-28487D01*
X-25055Y-28423D01*
X-25069Y-28373D01*
X-25085Y-28338D01*
X-25103Y-28317D01*
X-25123Y-28310D01*
X-23728D01*
X-23749Y-28317D01*
D02*
G37*
G36*
X7013Y-28321D02*
X6902Y-28355D01*
X6796Y-28413D01*
X6694Y-28493D01*
X6597Y-28597D01*
X6505Y-28723D01*
X6418Y-28872D01*
X6335Y-29045D01*
X6256Y-29240D01*
X6183Y-29458D01*
X4898Y-29430D01*
X4958Y-29217D01*
X5000Y-29027D01*
X5023Y-28859D01*
X5027Y-28713D01*
X5013Y-28590D01*
X4980Y-28489D01*
X4928Y-28410D01*
X4858Y-28354D01*
X4769Y-28321D01*
X4662Y-28310D01*
X7129D01*
X7013Y-28321D01*
D02*
G37*
G36*
X-5443Y-28321D02*
X-5544Y-28357D01*
X-5632Y-28417D01*
X-5709Y-28500D01*
X-5774Y-28608D01*
X-5827Y-28739D01*
X-5869Y-28894D01*
X-5898Y-29073D01*
X-5916Y-29276D01*
X-5922Y-29503D01*
X-7103D01*
X-7109Y-29276D01*
X-7127Y-29073D01*
X-7156Y-28894D01*
X-7198Y-28739D01*
X-7251Y-28608D01*
X-7316Y-28500D01*
X-7392Y-28417D01*
X-7481Y-28357D01*
X-7581Y-28321D01*
X-7694Y-28310D01*
X-5331D01*
X-5443Y-28321D01*
D02*
G37*
G36*
X13171Y-32004D02*
X12992Y-32191D01*
X12844Y-32365D01*
X12724Y-32526D01*
X12634Y-32674D01*
X12573Y-32810D01*
X12541Y-32934D01*
X12539Y-33044D01*
X12566Y-33142D01*
X12623Y-33227D01*
X12709Y-33300D01*
X10701Y-31977D01*
X10805Y-32030D01*
X10919Y-32056D01*
X11042Y-32057D01*
X11175Y-32032D01*
X11317Y-31980D01*
X11469Y-31903D01*
X11630Y-31800D01*
X11801Y-31670D01*
X11981Y-31515D01*
X12171Y-31334D01*
X13171Y-32004D01*
D02*
G37*
G36*
X-6531Y-32447D02*
X-6667Y-32679D01*
X-6872Y-33098D01*
X-6941Y-33284D01*
X-6987Y-33455D01*
X-7010Y-33610D01*
X-7011Y-33750D01*
X-6990Y-33875D01*
X-6946Y-33984D01*
X-6879Y-34078D01*
X-8518Y-32261D01*
X-8436Y-32333D01*
X-8348Y-32372D01*
X-8253Y-32380D01*
X-8152Y-32356D01*
X-8044Y-32300D01*
X-7931Y-32213D01*
X-7811Y-32093D01*
X-7684Y-31941D01*
X-7552Y-31758D01*
X-7413Y-31543D01*
X-6531Y-32447D01*
D02*
G37*
G36*
X3659Y-32610D02*
X3480Y-32796D01*
X3329Y-32972D01*
X3205Y-33138D01*
X3108Y-33292D01*
X3038Y-33437D01*
X2996Y-33570D01*
X2980Y-33693D01*
X2992Y-33806D01*
X3031Y-33908D01*
X3097Y-33999D01*
X1498Y-32270D01*
X1583Y-32342D01*
X1680Y-32387D01*
X1788Y-32403D01*
X1906Y-32393D01*
X2036Y-32354D01*
X2177Y-32287D01*
X2330Y-32193D01*
X2493Y-32071D01*
X2668Y-31922D01*
X2854Y-31744D01*
X3659Y-32610D01*
D02*
G37*
G36*
X-22484Y-32111D02*
X-22188Y-32365D01*
X-22108Y-32419D01*
X-22038Y-32457D01*
X-21978Y-32481D01*
X-21927Y-32489D01*
X-21886Y-32482D01*
X-21854Y-32460D01*
X-22913Y-33639D01*
X-22894Y-33604D01*
X-22891Y-33558D01*
X-22904Y-33503D01*
X-22933Y-33438D01*
X-22977Y-33362D01*
X-23038Y-33276D01*
X-23114Y-33180D01*
X-23314Y-32957D01*
X-23438Y-32831D01*
X-22602Y-31996D01*
X-22484Y-32111D01*
D02*
G37*
G36*
X13658Y-42610D02*
X13480Y-42796D01*
X13329Y-42972D01*
X13205Y-43138D01*
X13108Y-43292D01*
X13038Y-43437D01*
X12996Y-43570D01*
X12980Y-43693D01*
X12992Y-43806D01*
X13031Y-43908D01*
X13097Y-43999D01*
X11498Y-42270D01*
X11583Y-42342D01*
X11680Y-42387D01*
X11788Y-42404D01*
X11906Y-42393D01*
X12036Y-42354D01*
X12178Y-42287D01*
X12330Y-42193D01*
X12493Y-42071D01*
X12668Y-41922D01*
X12854Y-41744D01*
X13658Y-42610D01*
D02*
G37*
G36*
X3659D02*
X3480Y-42796D01*
X3329Y-42972D01*
X3205Y-43138D01*
X3108Y-43292D01*
X3038Y-43437D01*
X2996Y-43570D01*
X2980Y-43693D01*
X2992Y-43806D01*
X3031Y-43908D01*
X3097Y-43999D01*
X1498Y-42270D01*
X1583Y-42342D01*
X1680Y-42387D01*
X1788Y-42404D01*
X1906Y-42393D01*
X2036Y-42354D01*
X2177Y-42287D01*
X2330Y-42193D01*
X2493Y-42071D01*
X2668Y-41922D01*
X2854Y-41744D01*
X3659Y-42610D01*
D02*
G37*
G36*
X-6341D02*
X-6520Y-42796D01*
X-6671Y-42972D01*
X-6795Y-43138D01*
X-6892Y-43292D01*
X-6962Y-43437D01*
X-7004Y-43570D01*
X-7020Y-43693D01*
X-7008Y-43806D01*
X-6969Y-43908D01*
X-6903Y-43999D01*
X-8502Y-42270D01*
X-8417Y-42342D01*
X-8320Y-42387D01*
X-8212Y-42404D01*
X-8094Y-42393D01*
X-7964Y-42354D01*
X-7823Y-42287D01*
X-7670Y-42193D01*
X-7507Y-42071D01*
X-7332Y-41922D01*
X-7146Y-41744D01*
X-6341Y-42610D01*
D02*
G37*
G36*
X-16341D02*
X-16520Y-42796D01*
X-16671Y-42972D01*
X-16795Y-43138D01*
X-16892Y-43292D01*
X-16962Y-43437D01*
X-17004Y-43570D01*
X-17020Y-43693D01*
X-17008Y-43806D01*
X-16969Y-43908D01*
X-16903Y-43999D01*
X-18502Y-42270D01*
X-18417Y-42342D01*
X-18320Y-42387D01*
X-18213Y-42404D01*
X-18094Y-42393D01*
X-17964Y-42354D01*
X-17822Y-42287D01*
X-17670Y-42193D01*
X-17507Y-42071D01*
X-17332Y-41922D01*
X-17146Y-41744D01*
X-16341Y-42610D01*
D02*
G37*
G36*
X-29328Y-28321D02*
X-29428Y-28357D01*
X-29517Y-28417D01*
X-29594Y-28500D01*
X-29659Y-28608D01*
X-29712Y-28739D01*
X-29753Y-28894D01*
X-29783Y-29073D01*
X-29801Y-29276D01*
X-29806Y-29503D01*
X-30988D01*
X-30993Y-29276D01*
X-31011Y-29073D01*
X-31041Y-28894D01*
X-31082Y-28739D01*
X-31135Y-28608D01*
X-31200Y-28500D01*
X-31277Y-28417D01*
X-31365Y-28357D01*
X-31466Y-28321D01*
X-31578Y-28310D01*
X-29216D01*
X-29328Y-28321D01*
D02*
G37*
G36*
X-29801Y-30947D02*
X-29783Y-31150D01*
X-29753Y-31329D01*
X-29712Y-31484D01*
X-29659Y-31615D01*
X-29594Y-31723D01*
X-29517Y-31806D01*
X-29428Y-31866D01*
X-29328Y-31902D01*
X-29216Y-31914D01*
X-31578D01*
X-31466Y-31902D01*
X-31365Y-31866D01*
X-31277Y-31806D01*
X-31200Y-31723D01*
X-31135Y-31615D01*
X-31082Y-31484D01*
X-31041Y-31329D01*
X-31011Y-31150D01*
X-30993Y-30947D01*
X-30988Y-30721D01*
X-29806D01*
X-29801Y-30947D01*
D02*
G37*
D11*
X13661Y-41772D02*
X14258Y-41045D01*
X14702Y-40215D01*
X14975Y-39314D01*
X15067Y-38378D01*
X19251Y-30433D02*
X18320Y-30538D01*
X17436Y-30847D01*
X16642Y-31346D01*
X15980Y-32008D01*
X15481Y-32802D01*
X15172Y-33686D01*
X15067Y-34617D01*
X20320Y-29991D02*
X20321Y-29990D01*
X19251Y-30433D02*
X20320Y-29991D01*
X10773Y-33567D02*
X10201Y-34423D01*
X10000Y-35433D01*
X3661Y-41772D02*
X4258Y-41045D01*
X4702Y-40215D01*
X4975Y-39314D01*
X5067Y-38378D01*
X6473Y-31896D02*
X5876Y-32623D01*
X5432Y-33453D01*
X5159Y-34354D01*
X5067Y-35290D01*
X4565Y-30868D02*
X5162Y-30141D01*
X5605Y-29311D01*
X5879Y-28411D01*
X5971Y-27474D01*
X-6339Y-41772D02*
X-5742Y-41045D01*
X-5298Y-40215D01*
X-5025Y-39314D01*
X-4933Y-38378D01*
X-3527Y-29954D02*
X-4124Y-30681D01*
X-4568Y-31511D01*
X-4841Y-32411D01*
X-4933Y-33348D01*
X-7918Y-33351D02*
X-7321Y-32624D01*
X-6878Y-31794D01*
X-6605Y-30894D01*
X-6512Y-29957D01*
X-13627Y-27570D02*
X-14224Y-28298D01*
X-14668Y-29128D01*
X-14941Y-30028D01*
X-15033Y-30964D01*
X-16439Y-41872D02*
X-15842Y-41145D01*
X-15398Y-40315D01*
X-15125Y-39414D01*
X-15033Y-38478D01*
X-24426Y-29019D02*
X-24334Y-29956D01*
X-24060Y-30856D01*
X-23617Y-31686D01*
X-23020Y-32413D01*
X-30397Y-34475D02*
X-30000Y-35433D01*
X10000Y-45433D02*
X13661Y-41772D01*
X20321Y-29990D02*
X23884Y-26427D01*
X20320Y-29991D02*
X20321Y-29990D01*
X15067Y-38378D02*
Y-34617D01*
X10773Y-33567D02*
X17913Y-26427D01*
X0Y-45433D02*
X3661Y-41772D01*
X6473Y-31896D02*
X11942Y-26427D01*
X5067Y-38378D02*
Y-35290D01*
X0Y-35433D02*
X4565Y-30868D01*
X5971Y-27474D02*
Y-26427D01*
X-10000Y-45433D02*
X-6339Y-41772D01*
X-3527Y-29954D02*
X-0Y-26427D01*
X-4933Y-38378D02*
Y-33348D01*
X-10000Y-35433D02*
X-7918Y-33351D01*
X-6512Y-29957D02*
Y-26427D01*
X-13627Y-27570D02*
X-12483Y-26427D01*
X-20000Y-45433D02*
X-16439Y-41872D01*
X-15033Y-38478D02*
Y-30964D01*
X-23020Y-32413D02*
X-20000Y-35433D01*
X-24426Y-29019D02*
Y-26427D01*
X-30397Y-34475D02*
Y-26427D01*
D13*
X-11557Y-2681D02*
X-11974Y-2508D01*
X-11557Y-2681D02*
X-10907Y-2950D01*
X-13996Y-2508D02*
X-14765Y-2826D01*
X-15084Y-3595D01*
X2646Y14905D02*
X1736Y14761D01*
X915Y14342D01*
X263Y13691D01*
X-155Y12870D01*
X-299Y11960D01*
X0Y31082D02*
Y38956D01*
X2560Y31082D02*
Y43892D01*
X23135Y-2846D02*
X31797Y-9145D01*
X-10907Y-2950D02*
X-9360D01*
X-13996Y-2508D02*
X-11974D01*
X-299Y10041D02*
Y11960D01*
X3631Y2950D02*
X7571Y6891D01*
X1661Y981D02*
X3631Y2950D01*
X681Y0D02*
X1661Y981D01*
X3631Y2950D02*
Y10041D01*
X681Y0D02*
X1661Y-979D01*
X10720D01*
X7571Y6891D02*
X10720D01*
X1661Y981D02*
Y10041D01*
X-2269Y-2950D02*
X681Y0D01*
X-9360Y-2950D02*
X-2269D01*
D36*
X-18670Y-6310D02*
X-18221Y-6495D01*
X22728Y-19245D02*
X22636Y-18309D01*
X22363Y-17409D01*
X21919Y-16579D01*
X21322Y-15851D01*
X17913Y-17795D02*
X17821Y-16859D01*
X17548Y-15958D01*
X17104Y-15128D01*
X16507Y-14401D01*
X15780Y-13804D01*
X14950Y-13361D01*
X14049Y-13088D01*
X13113Y-12995D01*
X7571Y-11395D02*
X7785Y-12195D01*
X8371Y-12781D01*
X9171Y-12995D01*
X11942Y-16595D02*
X11727Y-15795D01*
X11142Y-15210D01*
X10342Y-14995D01*
X5601Y-13395D02*
X5815Y-14195D01*
X6401Y-14781D01*
X7201Y-14995D01*
X-108Y-19176D02*
X776Y-18939D01*
X1424Y-18292D01*
X1661Y-17408D01*
X5971Y-18891D02*
X6396Y-18924D01*
X3631Y-16158D02*
X3802Y-17117D01*
X4296Y-17957D01*
X5050Y-18574D01*
X5971Y-18891D01*
X-25597Y-9900D02*
X-26533Y-9992D01*
X-27434Y-10265D01*
X-28264Y-10709D01*
X-28991Y-11306D01*
X-29588Y-12033D01*
X-30032Y-12863D01*
X-30305Y-13764D01*
X-30397Y-14700D01*
X-10633Y-9900D02*
X-9733Y-9527D01*
X-9360Y-8627D01*
X-23756Y-18509D02*
X-24252Y-19251D01*
X-24426Y-20127D01*
X-19626Y-11805D02*
X-20562Y-11897D01*
X-21463Y-12171D01*
X-22293Y-12614D01*
X-23020Y-13211D01*
X-23617Y-13939D01*
X-24060Y-14768D01*
X-24334Y-15669D01*
X-24426Y-16605D01*
X-6650Y-11805D02*
X-6209Y-11365D01*
X-13655Y-13600D02*
X-14591Y-13692D01*
X-15492Y-13965D01*
X-16321Y-14409D01*
X-17049Y-15006D01*
X-17646Y-15733D01*
X-18089Y-16563D01*
X-18362Y-17464D01*
X-18455Y-18400D01*
X-5333Y-13600D02*
X-4560Y-13280D01*
X-4239Y-12506D01*
X-7703Y-15346D02*
X-8636Y-15438D01*
X-9533Y-15710D01*
X-10359Y-16152D01*
X-11083Y-16747D01*
X-11678Y-17471D01*
X-12120Y-18297D01*
X-12392Y-19194D01*
X-12484Y-20127D01*
X-3976Y-15346D02*
X-3123Y-15118D01*
X-2498Y-14493D01*
X-2269Y-13640D01*
X-5758Y-20127D02*
X-5602Y-19972D01*
X-3033Y-16900D02*
X-4016Y-17096D01*
X-4850Y-17653D01*
X-5407Y-18486D01*
X-5602Y-19469D01*
X-3033Y-16900D02*
X-1987Y-16692D01*
X-1100Y-16099D01*
X-508Y-15213D01*
X-299Y-14166D01*
X13520Y-8049D02*
X12700Y-7420D01*
X11745Y-7024D01*
X10720Y-6889D01*
X31797Y-395D02*
X31582Y405D01*
X30997Y990D01*
X30197Y1205D01*
X25498Y2373D02*
X25840Y1547D01*
X26666Y1205D01*
X11814Y-2950D02*
X12875Y-2810D01*
X13864Y-2400D01*
X14713Y-1749D01*
X21864Y3705D02*
X20803Y3565D01*
X19814Y3155D01*
X18965Y2504D01*
X21555Y8794D02*
X20641Y8612D01*
X19866Y8094D01*
X19348Y7319D01*
X19166Y6405D01*
X13444Y981D02*
X14505Y1120D01*
X15494Y1530D01*
X16343Y2181D01*
X18176Y4015D02*
X18713Y4715D01*
X19051Y5530D01*
X19166Y6405D01*
X15350Y-7213D02*
X16181Y-7768D01*
X17161Y-7964D01*
X13413Y-5276D02*
X12552Y-4919D01*
X19265Y12704D02*
X19917Y13553D01*
X20326Y14542D01*
X20466Y15603D01*
X17967Y11406D02*
X17315Y10556D01*
X16906Y9568D01*
X16766Y8506D01*
X12666Y2950D02*
X13727Y3090D01*
X14716Y3500D01*
X15565Y4151D01*
X16217Y5001D01*
X16626Y5989D01*
X16766Y7051D01*
X12216Y4921D02*
X13135Y5103D01*
X13913Y5623D01*
X14433Y6402D01*
X14616Y7321D01*
X23135Y-9145D02*
X22789Y-8309D01*
X21954Y-7964D01*
X-16348Y82D02*
X-17127Y602D01*
X-18045Y785D01*
X-15990Y-277D02*
X-15211Y-797D01*
X-14292Y-979D01*
X-15013Y1683D02*
X-14234Y1163D01*
X-13316Y981D01*
X-18891Y5562D02*
X-19670Y6083D01*
X-20588Y6265D01*
X-14283Y3653D02*
X-13504Y3133D01*
X-12585Y2950D01*
X-21672Y11043D02*
X-22451Y11563D01*
X-23369Y11746D01*
X-13502Y5623D02*
X-12724Y5103D01*
X-11806Y4921D01*
X-19359Y14705D02*
X-19176Y13786D01*
X-18656Y13008D01*
X-17877Y12487D01*
X-16959Y12305D01*
X-11849Y10120D02*
X-12142Y11212D01*
X-12942Y12012D01*
X-14034Y12305D01*
X-11849Y7583D02*
X-11157Y6891D01*
X-6209Y11405D02*
X-6392Y12323D01*
X-6912Y13102D01*
X-7691Y13622D01*
X-8609Y13805D01*
X-13484Y15055D02*
X-13118Y14171D01*
X-12234Y13805D01*
X-1734Y17255D02*
X-2269Y15962D01*
X7954Y12391D02*
X8555Y13291D01*
X8766Y14353D01*
X7954Y12391D02*
X7571Y11467D01*
X-14307Y-6495D02*
X-13131Y-6261D01*
X-12134Y-5595D01*
X-10502Y-4919D02*
X-11385Y-5095D01*
X-12134Y-5595D01*
X-18221Y-6495D02*
X-14307D01*
X-21384Y-3595D02*
X-18670Y-6310D01*
X-10502Y-4919D02*
X-9360D01*
X22728Y-19465D02*
Y-19245D01*
X13520Y-8049D02*
X21322Y-15851D01*
X17913Y-20127D02*
Y-17795D01*
X9171Y-12995D02*
X13113D01*
X11942Y-20127D02*
Y-16595D01*
X7201Y-14995D02*
X10342D01*
X1661Y-17408D02*
Y-10040D01*
X5971Y-20127D02*
Y-18891D01*
X3631Y-16158D02*
Y-10040D01*
X-30397Y-20127D02*
Y-14700D01*
X-25597Y-9900D02*
X-10633D01*
X-9360Y-8627D02*
Y-6889D01*
X-24426Y-20127D02*
Y-16605D01*
X-19626Y-11805D02*
X-6650D01*
X-6209Y-11365D02*
Y-10040D01*
X-18455Y-20127D02*
Y-18400D01*
X-13655Y-13600D02*
X-5333D01*
X-4239Y-12506D02*
Y-10040D01*
X-7703Y-15346D02*
X-3976D01*
X-2269Y-13640D02*
Y-10040D01*
X-6513Y-20127D02*
X-5758D01*
X-5602Y-19972D02*
Y-19469D01*
X-299Y-14166D02*
Y-10040D01*
X7571Y-11395D02*
Y-10040D01*
X5601Y-13395D02*
Y-10040D01*
X31797Y-2846D02*
Y-395D01*
X26666Y1205D02*
X30197D01*
X21864Y3705D02*
X25498D01*
Y2373D02*
Y3705D01*
X14713Y-1749D02*
X18965Y2504D01*
X21555Y8794D02*
X24317D01*
X16343Y2181D02*
X18176Y4015D01*
X17161Y-7964D02*
X21954D01*
X13413Y-5276D02*
X15350Y-7213D01*
X10720Y-4919D02*
X12552D01*
X10720Y-2950D02*
X11814D01*
X10720Y981D02*
X13444D01*
X17967Y11406D02*
X19265Y12704D01*
X10720Y2950D02*
X12666D01*
X20466Y15603D02*
Y17255D01*
X16766Y7051D02*
Y8506D01*
X10720Y4921D02*
X12216D01*
X14616Y7321D02*
Y17255D01*
X-25234Y785D02*
X-18045D01*
X-14292Y-979D02*
X-9360D01*
X-16348Y82D02*
X-15990Y-277D01*
X-13316Y981D02*
X-9360D01*
X-25234Y6265D02*
X-20588D01*
X-18891Y5562D02*
X-15013Y1683D01*
X-12585Y2950D02*
X-9360D01*
X-25234Y11746D02*
X-23369D01*
X-21672Y11043D02*
X-14283Y3653D01*
X-11806Y4921D02*
X-9360D01*
X-25234Y17355D02*
X-13502Y5623D01*
X-19359Y14705D02*
Y17355D01*
X-16959Y12305D02*
X-14034D01*
X-11849Y7583D02*
Y10120D01*
X-11157Y6891D02*
X-9360D01*
X-12234Y13805D02*
X-8609D01*
X-6209Y10041D02*
Y11405D01*
X-13484Y15055D02*
Y17355D01*
X-2269Y10041D02*
Y15962D01*
X-7587Y17255D02*
X-1734D01*
X7571Y10041D02*
Y11467D01*
X8766Y14353D02*
Y17255D01*
X5601Y10041D02*
Y13240D01*
D37*
X-29134Y23655D02*
X-30052Y23472D01*
X-30831Y22952D01*
X-31351Y22173D01*
X-31534Y21255D01*
X5120Y38956D02*
Y41892D01*
Y31082D02*
Y38956D01*
X-31534Y11746D02*
Y21255D01*
X-19359Y23655D02*
X-13484D01*
X-25234D02*
X-19359D01*
X-29134D02*
X-25234D01*
X-24934Y-3595D02*
X-21384D01*
D38*
X-12599Y42518D02*
D03*
X12599D02*
D03*
D39*
X12598Y33250D02*
D03*
X-12598D02*
D03*
D40*
X5120Y31082D02*
D03*
X2560D02*
D03*
X0D02*
D03*
X-2560D02*
D03*
X-5120D02*
D03*
D41*
X24317Y8794D02*
D03*
X30617Y8794D02*
D03*
X-25234Y11746D02*
D03*
X-31534Y11746D02*
D03*
Y785D02*
D03*
X-25234Y785D02*
D03*
X-31534Y6265D02*
D03*
X-25234Y6265D02*
D03*
D42*
X2646Y14905D02*
D03*
D43*
X-24426Y-20127D02*
D03*
X-24426Y-26427D02*
D03*
X-18455Y-20127D02*
D03*
X-18455Y-26427D02*
D03*
X-12484Y-20127D02*
D03*
X-12483Y-26427D02*
D03*
X-6513Y-20127D02*
D03*
X-6512Y-26427D02*
D03*
X-0Y-20127D02*
D03*
X-0Y-26427D02*
D03*
X5971Y-20127D02*
D03*
X5971Y-26427D02*
D03*
X11942Y-20127D02*
D03*
X11942Y-26427D02*
D03*
X17913Y-20127D02*
D03*
X17913Y-26427D02*
D03*
X-13484Y17355D02*
D03*
X-13484Y23655D02*
D03*
X-25234Y17355D02*
D03*
X-25234Y23655D02*
D03*
X-19359Y17355D02*
D03*
X-19359Y23655D02*
D03*
X-7609Y17255D02*
D03*
X-7609Y23555D02*
D03*
X-30397Y-26427D02*
D03*
X-30397Y-20127D02*
D03*
X23884Y-26427D02*
D03*
X23884Y-20127D02*
D03*
X14616Y17255D02*
D03*
X14616Y23555D02*
D03*
X20466Y17255D02*
D03*
X20466Y23555D02*
D03*
X-1734Y23555D02*
D03*
X-1734Y17255D02*
D03*
D44*
X-6209Y10041D02*
D03*
X-4239D02*
D03*
X-2269D02*
D03*
X-299D02*
D03*
X1661D02*
D03*
X3631D02*
D03*
X5601D02*
D03*
X7571D02*
D03*
Y-10040D02*
D03*
X5601D02*
D03*
X3631D02*
D03*
X1661D02*
D03*
X-299D02*
D03*
X-2269D02*
D03*
X-4239D02*
D03*
X-6209D02*
D03*
D45*
X10720Y6891D02*
D03*
Y4921D02*
D03*
Y2950D02*
D03*
Y981D02*
D03*
Y-979D02*
D03*
Y-2950D02*
D03*
Y-4919D02*
D03*
Y-6889D02*
D03*
X-9360D02*
D03*
Y-4919D02*
D03*
Y-2950D02*
D03*
Y-979D02*
D03*
Y981D02*
D03*
Y2950D02*
D03*
Y4921D02*
D03*
Y6891D02*
D03*
D46*
X681Y0D02*
D03*
D47*
X31797Y-2846D02*
D03*
D48*
X23135D02*
D03*
Y-9145D02*
D03*
X31797D02*
D03*
D49*
X8766Y23555D02*
D03*
Y17255D02*
D03*
D50*
X-15084Y-3595D02*
D03*
X-21384D02*
D03*
D51*
X17161Y-7964D02*
D03*
Y-4027D02*
D03*
D52*
X25498Y3705D02*
D03*
X29435D02*
D03*
D53*
X29117Y22155D02*
Y25155D01*
D54*
X-30000Y-35433D02*
D03*
D55*
Y-45433D02*
D03*
X-20000Y-35433D02*
D03*
Y-45433D02*
D03*
X-10000Y-35433D02*
D03*
Y-45433D02*
D03*
X0Y-35433D02*
D03*
Y-45433D02*
D03*
X10000Y-35433D02*
D03*
Y-45433D02*
D03*
X20000Y-35433D02*
D03*
Y-45433D02*
D03*
X30000Y-35433D02*
D03*
Y-45433D02*
D03*
D56*
X7087Y0D02*
D03*
X29117Y22155D02*
D03*
Y25155D02*
D03*
X-7609Y23555D02*
D03*
X5120Y38956D02*
D03*
Y41892D02*
D03*
X2560Y43892D02*
D03*
X0Y38956D02*
D03*
X14616Y23555D02*
D03*
X20466D02*
D03*
X-18455Y-26427D02*
D03*
X-31730Y-3595D02*
D03*
X-31534Y21255D02*
D03*
X5601Y23555D02*
D03*
X-24934Y-3595D02*
D03*
X5601Y13240D02*
D03*
M02*
