G04*
G04 #@! TF.GenerationSoftware,Altium Limited,Altium Designer,23.2.1 (34)*
G04*
G04 Layer_Color=32896*
%FSLAX25Y25*%
%MOIN*%
G70*
G04*
G04 #@! TF.SameCoordinates,2D16543A-974C-4BE6-9D28-3C7F8BE36A88*
G04*
G04*
G04 #@! TF.FilePolarity,Positive*
G04*
G01*
G75*
%ADD13C,0.00787*%
%ADD14C,0.00750*%
%ADD16C,0.00500*%
%ADD36C,0.00984*%
%ADD68C,0.00591*%
D13*
X13780Y-30512D02*
Y-21654D01*
X-34449Y0D02*
X-24606D01*
Y-13780D02*
Y0D01*
Y-13780D02*
X-5906D01*
X-14764Y-30512D02*
X5906D01*
Y-21654D01*
X13780D01*
Y-13780D01*
X-5906Y-21654D02*
Y-13780D01*
X-14764Y-21654D02*
X-5906D01*
X-14764Y-30512D02*
Y-21654D01*
X5974Y-11024D02*
X11880D01*
X5974Y16535D02*
X11880D01*
Y-11024D02*
Y393D01*
X15816D01*
Y5117D01*
X11880D02*
Y16535D01*
Y5117D02*
X15816D01*
D14*
X25967Y15787D02*
Y19724D01*
X32267Y15787D02*
Y19724D01*
X23150Y-22641D02*
Y-18704D01*
X16850Y-22641D02*
Y-18704D01*
X28840Y-3390D02*
Y-2799D01*
X25494Y-3390D02*
Y-2799D01*
X8455Y17481D02*
X9046D01*
X8455Y20828D02*
X9046D01*
D16*
X10654Y39940D02*
X11639Y39940D01*
X10654Y37971D02*
X11638Y37971D01*
D36*
X9380Y48588D02*
X12266D01*
Y46423D01*
X10823D01*
X12266D01*
Y44259D01*
X7937Y48588D02*
X5051D01*
X6494D01*
Y44259D01*
X1443D02*
Y48588D01*
X3608Y46423D01*
X722D01*
X-3608Y44259D02*
X-722D01*
X-3608Y47145D01*
Y47866D01*
X-2886Y48588D01*
X-1443D01*
X-722Y47866D01*
X-7937Y44259D02*
X-5051D01*
X-7937Y47145D01*
Y47866D01*
X-7215Y48588D01*
X-5772D01*
X-5051Y47866D01*
X-12266Y44259D02*
X-9380D01*
X-12266Y47145D01*
Y47866D01*
X-11545Y48588D01*
X-10102D01*
X-9380Y47866D01*
X18039Y33473D02*
Y29866D01*
X17317Y29144D01*
X15874D01*
X15153Y29866D01*
Y33473D01*
X10823Y32752D02*
X11545Y33473D01*
X12988D01*
X13710Y32752D01*
Y32030D01*
X12988Y31309D01*
X11545D01*
X10823Y30587D01*
Y29866D01*
X11545Y29144D01*
X12988D01*
X13710Y29866D01*
X9380Y33473D02*
Y29144D01*
X7215D01*
X6494Y29866D01*
Y30587D01*
X7215Y31309D01*
X9380D01*
X7215D01*
X6494Y32030D01*
Y32752D01*
X7215Y33473D01*
X9380D01*
X5051Y31309D02*
X2165D01*
X-2165Y29866D02*
Y32752D01*
X-1443Y33473D01*
X0D01*
X722Y32752D01*
Y29866D01*
X0Y29144D01*
X-1443D01*
X-722Y30587D02*
X-2165Y29144D01*
X-1443D02*
X-2165Y29866D01*
X-3608Y29144D02*
X-6494Y32030D01*
X-10823Y32752D02*
X-10102Y33473D01*
X-8659D01*
X-7937Y32752D01*
Y32030D01*
X-8659Y31309D01*
X-10102D01*
X-10823Y30587D01*
Y29866D01*
X-10102Y29144D01*
X-8659D01*
X-7937Y29866D01*
X-12266Y29144D02*
Y33473D01*
X-14431D01*
X-15153Y32752D01*
Y31309D01*
X-14431Y30587D01*
X-12266D01*
X-16596Y33473D02*
X-18039D01*
X-17317D01*
Y29144D01*
X-16596D01*
X-18039D01*
D68*
X1574Y-17718D02*
Y-18767D01*
Y-18243D01*
X-1574D01*
X-1050Y-17718D01*
X1574Y-25589D02*
Y-23490D01*
X-525Y-25589D01*
X-1050D01*
X-1574Y-25065D01*
Y-24015D01*
X-1050Y-23490D01*
X25514Y-12011D02*
X27613D01*
X28663Y-13060D01*
X27613Y-14110D01*
X25514D01*
Y-15159D02*
Y-16209D01*
Y-15684D01*
X28663D01*
Y-15159D01*
Y-16209D01*
X25514Y-19357D02*
Y-18308D01*
X26039Y-17783D01*
X28138D01*
X28663Y-18308D01*
Y-19357D01*
X28138Y-19882D01*
X26039D01*
X25514Y-19357D01*
Y-26179D02*
Y-24080D01*
X27088D01*
X26564Y-25130D01*
Y-25655D01*
X27088Y-26179D01*
X28138D01*
X28663Y-25655D01*
Y-24605D01*
X28138Y-24080D01*
X25514Y-27229D02*
X27613D01*
X28663Y-28278D01*
X27613Y-29328D01*
X25514D01*
X31234Y-18570D02*
X30710Y-18045D01*
Y-16996D01*
X31234Y-16471D01*
X33334D01*
X33858Y-16996D01*
Y-18045D01*
X33334Y-18570D01*
X32284D01*
Y-17521D01*
X33858Y-19620D02*
X30710D01*
X33858Y-21719D01*
X30710D01*
Y-22768D02*
X33858D01*
Y-24343D01*
X33334Y-24867D01*
X31234D01*
X30710Y-24343D01*
Y-22768D01*
X-18426Y-17718D02*
Y-18767D01*
Y-18243D01*
X-21574D01*
X-21050Y-17718D01*
X-18426Y-25589D02*
Y-23490D01*
X-20525Y-25589D01*
X-21050D01*
X-21574Y-25065D01*
Y-24015D01*
X-21050Y-23490D01*
X-11050Y-17455D02*
X-11574Y-17980D01*
Y-19030D01*
X-11050Y-19554D01*
X-10525D01*
X-10000Y-19030D01*
Y-18505D01*
Y-19030D01*
X-9475Y-19554D01*
X-8951D01*
X-8426Y-19030D01*
Y-17980D01*
X-8951Y-17455D01*
X-11050Y-23753D02*
X-11574Y-24277D01*
Y-25327D01*
X-11050Y-25852D01*
X-8951D01*
X-8426Y-25327D01*
Y-24277D01*
X-8951Y-23753D01*
X-11050D01*
X-31050Y-19554D02*
X-31574Y-19030D01*
Y-17980D01*
X-31050Y-17455D01*
X-28951D01*
X-28426Y-17980D01*
Y-19030D01*
X-28951Y-19554D01*
X-31050Y-23753D02*
X-31574Y-24277D01*
Y-25327D01*
X-31050Y-25852D01*
X-28951D01*
X-28426Y-25327D01*
Y-24277D01*
X-28951Y-23753D01*
X-31050D01*
X8950Y-16865D02*
X8426Y-17390D01*
Y-18440D01*
X8950Y-18964D01*
X9475D01*
X10000Y-18440D01*
Y-17915D01*
Y-18440D01*
X10525Y-18964D01*
X11050D01*
X11574Y-18440D01*
Y-17390D01*
X11050Y-16865D01*
X8950Y-25262D02*
X8426Y-24737D01*
Y-23687D01*
X8950Y-23163D01*
X9475D01*
X10000Y-23687D01*
Y-24737D01*
X10525Y-25262D01*
X11050D01*
X11574Y-24737D01*
Y-23687D01*
X11050Y-23163D01*
X8950Y-26311D02*
X8426Y-26836D01*
Y-27885D01*
X8950Y-28410D01*
X11050D01*
X11574Y-27885D01*
Y-26836D01*
X11050Y-26311D01*
X8950D01*
X-31050Y12269D02*
X-31574Y12794D01*
Y13844D01*
X-31050Y14368D01*
X-28951D01*
X-28426Y13844D01*
Y12794D01*
X-28951Y12269D01*
X-30000D01*
Y13319D01*
X-28426Y11220D02*
X-31574D01*
Y9645D01*
X-31050Y9121D01*
X-30000D01*
X-29475Y9645D01*
Y11220D01*
X-31574Y8071D02*
Y7022D01*
Y7546D01*
X-28426D01*
Y8071D01*
Y7022D01*
X-31574Y3873D02*
Y4923D01*
X-31050Y5447D01*
X-28951D01*
X-28426Y4923D01*
Y3873D01*
X-28951Y3348D01*
X-31050D01*
X-31574Y3873D01*
X-28951Y-3741D02*
X-31050D01*
X-31574Y-3216D01*
Y-2167D01*
X-31050Y-1642D01*
X-28951D01*
X-28426Y-2167D01*
Y-3216D01*
X-29475Y-2692D02*
X-28426Y-3741D01*
Y-3216D02*
X-28951Y-3741D01*
X-31050Y-6890D02*
X-31574Y-6365D01*
Y-5315D01*
X-31050Y-4791D01*
X-30525D01*
X-30000Y-5315D01*
Y-6365D01*
X-29475Y-6890D01*
X-28951D01*
X-28426Y-6365D01*
Y-5315D01*
X-28951Y-4791D01*
X-28426Y-7939D02*
X-31574D01*
Y-9514D01*
X-31050Y-10038D01*
X-30000D01*
X-29475Y-9514D01*
Y-7939D01*
X-31574Y-11088D02*
Y-12137D01*
Y-11613D01*
X-28426D01*
Y-11088D01*
Y-12137D01*
M02*
