G04*
G04 #@! TF.GenerationSoftware,Altium Limited,Altium Designer,23.2.1 (34)*
G04*
G04 Layer_Color=65535*
%FSLAX25Y25*%
%MOIN*%
G70*
G04*
G04 #@! TF.SameCoordinates,2D16543A-974C-4BE6-9D28-3C7F8BE36A88*
G04*
G04*
G04 #@! TF.FilePolarity,Positive*
G04*
G01*
G75*
%ADD10C,0.00100*%
%ADD11C,0.01181*%
%ADD12C,0.01000*%
%ADD13C,0.00787*%
%ADD14C,0.00750*%
%ADD15C,0.00600*%
%ADD16C,0.00500*%
%ADD17R,0.15748X0.11811*%
D10*
X4249Y14905D02*
X3943Y15847D01*
X3141Y16429D01*
X2150D01*
X1349Y15847D01*
X1043Y14905D01*
X1349Y13962D01*
X2150Y13380D01*
X3141D01*
X3943Y13962D01*
X4249Y14905D01*
D11*
X-11329Y9953D02*
X-11923Y10539D01*
X-12511Y9948D01*
X-11923Y9358D01*
X-11329Y9943D01*
D12*
X-15750Y30371D02*
Y30568D01*
Y35932D02*
Y39048D01*
Y45987D02*
Y46242D01*
X15750Y30371D02*
Y30568D01*
Y35932D02*
Y39048D01*
Y45987D02*
Y46242D01*
Y52031D01*
X-15750Y46242D02*
Y52512D01*
Y30371D02*
X-6920D01*
X6920D02*
X15750D01*
X15790Y52031D02*
X17200Y53681D01*
Y53881D01*
X16550D02*
X17200D01*
X15536Y52867D02*
X16550Y53881D01*
X-15266Y52867D02*
X15536D01*
X-16080Y53681D02*
X-15266Y52867D01*
X-17230Y53681D02*
X-16080D01*
X-17230D02*
X-15710Y52031D01*
D13*
X35000Y-50433D02*
Y-30433D01*
X-35000Y-50433D02*
Y-30433D01*
Y-50433D02*
X35000D01*
X-35000Y-30433D02*
X35000D01*
X11311Y9036D02*
Y10631D01*
X9716D02*
X11311D01*
Y-10629D02*
Y-9034D01*
X9716Y-10629D02*
X11311D01*
X-9949Y10631D02*
X-8354D01*
X-9949Y9036D02*
Y10631D01*
Y-10629D02*
X-8354D01*
X-9949D02*
Y-9034D01*
D14*
X26482Y10467D02*
X28451Y10467D01*
X26483Y7120D02*
X28451Y7120D01*
X-22753Y-24261D02*
X-22753Y-22293D01*
X-26099Y-24261D02*
X-26099Y-22293D01*
X-16781Y-24261D02*
X-16781Y-22293D01*
X-20128Y-24261D02*
X-20128Y-22293D01*
X-10810Y-24261D02*
X-10810Y-22293D01*
X-14157Y-24261D02*
X-14157Y-22293D01*
X-4839Y-24261D02*
X-4839Y-22293D01*
X-8186Y-24261D02*
X-8186Y-22293D01*
X1673Y-24261D02*
X1673Y-22293D01*
X-1674Y-24261D02*
X-1674Y-22293D01*
X7644Y-24261D02*
X7644Y-22293D01*
X4298Y-24261D02*
X4298Y-22293D01*
X13615Y-24261D02*
X13615Y-22293D01*
X10269Y-24261D02*
X10269Y-22293D01*
X19586Y-24261D02*
X19586Y-22293D01*
X16240Y-24261D02*
X16240Y-22293D01*
X-15157Y19521D02*
X-15157Y21489D01*
X-11811Y19521D02*
X-11811Y21489D01*
X-26907Y19521D02*
X-26907Y21489D01*
X-23561Y19521D02*
X-23561Y21489D01*
X-29368Y10073D02*
X-27400Y10073D01*
X-29368Y13419D02*
X-27400Y13419D01*
X-21032Y19521D02*
X-21032Y21489D01*
X-17686Y19521D02*
X-17686Y21489D01*
X-9282Y19420D02*
X-9282Y21389D01*
X-5936Y19420D02*
X-5936Y21389D01*
X-32070Y-24261D02*
X-32070Y-22293D01*
X-28724Y-24261D02*
X-28724Y-22293D01*
X22211Y-24261D02*
X22211Y-22293D01*
X25557Y-24261D02*
X25557Y-22293D01*
X12943Y19421D02*
X12943Y21389D01*
X16289Y19421D02*
X16289Y21389D01*
X18793Y19421D02*
X18793Y21389D01*
X22139Y19421D02*
X22139Y21389D01*
X-29368Y2458D02*
X-27400Y2458D01*
X-29368Y-889D02*
X-27400Y-889D01*
X-29368Y7938D02*
X-27400Y7938D01*
X-29368Y4592D02*
X-27400Y4592D01*
X-61Y19421D02*
X-61Y21389D01*
X-3407Y19420D02*
X-3407Y21389D01*
X10439Y20109D02*
Y20700D01*
X7093Y20109D02*
Y20700D01*
X-18529Y-5269D02*
X-17939D01*
X-18529Y-1922D02*
X-17939D01*
D15*
X35242Y-12195D02*
Y-10227D01*
X33273Y-12195D02*
X35242D01*
X19692D02*
Y-10227D01*
Y-12195D02*
X21660D01*
X19692Y-1763D02*
Y206D01*
X21660D01*
X35242Y-1763D02*
Y206D01*
X33273D02*
X35242D01*
D16*
X18146Y-5503D02*
X18146Y-6487D01*
X16177Y-5503D02*
X16177Y-6487D01*
X26975Y2720D02*
X27959Y2720D01*
X26975Y4689D02*
X27959Y4689D01*
D17*
X0Y42223D02*
D03*
M02*
