G04*
G04 #@! TF.GenerationSoftware,Altium Limited,Altium Designer,23.2.1 (34)*
G04*
G04 Layer_Physical_Order=2*
G04 Layer_Color=16711680*
%FSLAX25Y25*%
%MOIN*%
G70*
G04*
G04 #@! TF.SameCoordinates,2D16543A-974C-4BE6-9D28-3C7F8BE36A88*
G04*
G04*
G04 #@! TF.FilePolarity,Positive*
G04*
G01*
G75*
%ADD11C,0.01181*%
%ADD13C,0.00787*%
%ADD36C,0.00984*%
%ADD37C,0.01575*%
G04:AMPARAMS|DCode=49|XSize=31mil|YSize=38mil|CornerRadius=7.75mil|HoleSize=0mil|Usage=FLASHONLY|Rotation=0.000|XOffset=0mil|YOffset=0mil|HoleType=Round|Shape=RoundedRectangle|*
%AMROUNDEDRECTD49*
21,1,0.03100,0.02250,0,0,0.0*
21,1,0.01550,0.03800,0,0,0.0*
1,1,0.01550,0.00775,-0.01125*
1,1,0.01550,-0.00775,-0.01125*
1,1,0.01550,-0.00775,0.01125*
1,1,0.01550,0.00775,0.01125*
%
%ADD49ROUNDEDRECTD49*%
G04:AMPARAMS|DCode=50|XSize=31mil|YSize=38mil|CornerRadius=7.75mil|HoleSize=0mil|Usage=FLASHONLY|Rotation=270.000|XOffset=0mil|YOffset=0mil|HoleType=Round|Shape=RoundedRectangle|*
%AMROUNDEDRECTD50*
21,1,0.03100,0.02250,0,0,270.0*
21,1,0.01550,0.03800,0,0,270.0*
1,1,0.01550,-0.01125,-0.00775*
1,1,0.01550,-0.01125,0.00775*
1,1,0.01550,0.01125,0.00775*
1,1,0.01550,0.01125,-0.00775*
%
%ADD50ROUNDEDRECTD50*%
G04:AMPARAMS|DCode=52|XSize=20mil|YSize=25mil|CornerRadius=5mil|HoleSize=0mil|Usage=FLASHONLY|Rotation=270.000|XOffset=0mil|YOffset=0mil|HoleType=Round|Shape=RoundedRectangle|*
%AMROUNDEDRECTD52*
21,1,0.02000,0.01500,0,0,270.0*
21,1,0.01000,0.02500,0,0,270.0*
1,1,0.01000,-0.00750,-0.00500*
1,1,0.01000,-0.00750,0.00500*
1,1,0.01000,0.00750,0.00500*
1,1,0.01000,0.00750,-0.00500*
%
%ADD52ROUNDEDRECTD52*%
%ADD53C,0.02362*%
%ADD54R,0.06693X0.07087*%
%ADD55O,0.06693X0.07087*%
%ADD56C,0.02362*%
%ADD57C,0.01968*%
%ADD58C,0.00709*%
G04:AMPARAMS|DCode=59|XSize=70mil|YSize=60mil|CornerRadius=3mil|HoleSize=0mil|Usage=FLASHONLY|Rotation=180.000|XOffset=0mil|YOffset=0mil|HoleType=Round|Shape=RoundedRectangle|*
%AMROUNDEDRECTD59*
21,1,0.07000,0.05400,0,0,180.0*
21,1,0.06400,0.06000,0,0,180.0*
1,1,0.00600,-0.03200,0.02700*
1,1,0.00600,0.03200,0.02700*
1,1,0.00600,0.03200,-0.02700*
1,1,0.00600,-0.03200,-0.02700*
%
%ADD59ROUNDEDRECTD59*%
G04:AMPARAMS|DCode=60|XSize=275.59mil|YSize=275.59mil|CornerRadius=13.78mil|HoleSize=0mil|Usage=FLASHONLY|Rotation=0.000|XOffset=0mil|YOffset=0mil|HoleType=Round|Shape=RoundedRectangle|*
%AMROUNDEDRECTD60*
21,1,0.27559,0.24803,0,0,0.0*
21,1,0.24803,0.27559,0,0,0.0*
1,1,0.02756,0.12402,-0.12402*
1,1,0.02756,-0.12402,-0.12402*
1,1,0.02756,-0.12402,0.12402*
1,1,0.02756,0.12402,0.12402*
%
%ADD60ROUNDEDRECTD60*%
G04:AMPARAMS|DCode=61|XSize=98.43mil|YSize=59.06mil|CornerRadius=2.95mil|HoleSize=0mil|Usage=FLASHONLY|Rotation=0.000|XOffset=0mil|YOffset=0mil|HoleType=Round|Shape=RoundedRectangle|*
%AMROUNDEDRECTD61*
21,1,0.09843,0.05315,0,0,0.0*
21,1,0.09252,0.05906,0,0,0.0*
1,1,0.00591,0.04626,-0.02657*
1,1,0.00591,-0.04626,-0.02657*
1,1,0.00591,-0.04626,0.02657*
1,1,0.00591,0.04626,0.02657*
%
%ADD61ROUNDEDRECTD61*%
%ADD62R,0.09843X0.05906*%
%ADD63C,0.03150*%
G36*
X33983Y50463D02*
X34422Y50170D01*
X34716Y49731D01*
X34811Y49253D01*
X34794Y49213D01*
Y-49213D01*
X34811Y-49253D01*
X34716Y-49731D01*
X34422Y-50170D01*
X33983Y-50463D01*
X33505Y-50559D01*
X33465Y-50542D01*
X-33465D01*
X-33505Y-50559D01*
X-33983Y-50463D01*
X-34422Y-50170D01*
X-34716Y-49731D01*
X-34811Y-49253D01*
X-34794Y-49213D01*
Y49213D01*
X-34811Y49253D01*
X-34716Y49731D01*
X-34422Y50170D01*
X-33983Y50463D01*
X-33505Y50559D01*
X-33465Y50542D01*
X33465D01*
X33505Y50559D01*
X33983Y50463D01*
D02*
G37*
%LPC*%
G36*
X2912Y45664D02*
X2208D01*
X1556Y45395D01*
X1058Y44896D01*
X788Y44245D01*
Y43540D01*
X1058Y42889D01*
X1228Y42720D01*
X1271Y42608D01*
X1338Y42538D01*
X1382Y42484D01*
X1419Y42433D01*
X1449Y42383D01*
X1473Y42333D01*
X1492Y42284D01*
X1507Y42235D01*
X1518Y42183D01*
X1524Y42129D01*
X1528Y42045D01*
X1556Y41982D01*
Y40612D01*
X1056Y40404D01*
X1004Y40457D01*
X352Y40727D01*
X-352D01*
X-1004Y40457D01*
X-1502Y39959D01*
X-1772Y39308D01*
Y38603D01*
X-1502Y37952D01*
X-1331Y37781D01*
X-1287Y37669D01*
X-1225Y37604D01*
X-1181Y37552D01*
X-1142Y37499D01*
X-1108Y37444D01*
X-1076Y37386D01*
X-1049Y37326D01*
X-1025Y37262D01*
X-1004Y37194D01*
X-987Y37121D01*
X-970Y37026D01*
X-909Y36930D01*
X-835Y36368D01*
X-252Y34961D01*
X675Y33753D01*
X696Y33774D01*
X696Y33774D01*
X5917Y28554D01*
X5683Y28080D01*
X5330Y28127D01*
Y28108D01*
X-2031D01*
Y28139D01*
X-3531Y27942D01*
X-4928Y27363D01*
X-6128Y26442D01*
X-6106Y26420D01*
X-6106Y26420D01*
X-6927Y25599D01*
X-6993Y25575D01*
X-7049Y25523D01*
X-7086Y25495D01*
X-7126Y25470D01*
X-7171Y25447D01*
X-7222Y25427D01*
X-7279Y25409D01*
X-7344Y25395D01*
X-7418Y25384D01*
X-7500Y25377D01*
X-7609Y25375D01*
X-7720Y25326D01*
X-7961D01*
X-8612Y25057D01*
X-9111Y24558D01*
X-9381Y23907D01*
Y23202D01*
X-9111Y22551D01*
X-8612Y22053D01*
X-7961Y21783D01*
X-7256D01*
X-6605Y22053D01*
X-6107Y22551D01*
X-5837Y23202D01*
Y23443D01*
X-5789Y23554D01*
X-5787Y23664D01*
X-5780Y23746D01*
X-5769Y23820D01*
X-5754Y23885D01*
X-5737Y23942D01*
X-5716Y23992D01*
X-5694Y24037D01*
X-5668Y24077D01*
X-5640Y24114D01*
X-5589Y24171D01*
X-5565Y24236D01*
X-5089Y24712D01*
X-4744Y25057D01*
X-4365Y25350D01*
X-3950Y25668D01*
X-3024Y26052D01*
X-2035Y26182D01*
X-2031Y26181D01*
X5330D01*
X5369Y26189D01*
X6272Y26010D01*
X7037Y25498D01*
X7059Y25465D01*
X10373Y22151D01*
X10373Y22151D01*
X10351Y22129D01*
X11551Y21208D01*
X12949Y20629D01*
X14448Y20432D01*
Y20463D01*
X17072D01*
X17076Y20464D01*
X18065Y20334D01*
X18991Y19950D01*
X19406Y19632D01*
X19785Y19339D01*
X20130Y18994D01*
X24577Y14547D01*
X24581Y14523D01*
X24633Y14486D01*
X24655Y14427D01*
X24912Y14152D01*
X24989Y14056D01*
X25009Y14028D01*
Y13950D01*
X25000Y13934D01*
X25009Y13904D01*
Y13860D01*
X24997Y13826D01*
X25009Y13802D01*
Y9055D01*
X25078Y8708D01*
X25275Y8413D01*
X25569Y8216D01*
X25917Y8147D01*
X28695D01*
X28719Y8136D01*
X28865Y8126D01*
X28911Y8112D01*
X28951Y8086D01*
X29004Y8029D01*
X29073Y7917D01*
X29144Y7741D01*
X29208Y7498D01*
X29259Y7192D01*
X29290Y6824D01*
X29302Y6383D01*
X29315Y6352D01*
Y-3840D01*
X29202Y-3926D01*
X28820Y-4060D01*
X28811Y-4058D01*
X28475Y-3833D01*
X27942Y-3728D01*
X26392D01*
X26135Y-3779D01*
X26094Y-3762D01*
X25979Y-3810D01*
X25859Y-3833D01*
X25846Y-3842D01*
X25762Y-3855D01*
X25577Y-3968D01*
X25398Y-4058D01*
X25199Y-4140D01*
X24982Y-4213D01*
X24745Y-4276D01*
X24530Y-4319D01*
X24337Y-4268D01*
X24160Y-4196D01*
X24045Y-4126D01*
X23981Y-4067D01*
X23949Y-4019D01*
X23930Y-3965D01*
X23914Y-3815D01*
X23905Y-3798D01*
Y-3587D01*
X23836Y-3242D01*
X23640Y-2949D01*
X23347Y-2753D01*
X23002Y-2684D01*
X13750D01*
X13404Y-2753D01*
X13111Y-2949D01*
X12915Y-3242D01*
X12846Y-3587D01*
Y-8902D01*
X12915Y-9248D01*
X13111Y-9541D01*
X13404Y-9737D01*
X13750Y-9805D01*
X23002D01*
X23347Y-9737D01*
X23640Y-9541D01*
X23836Y-9248D01*
X23905Y-8902D01*
Y-8691D01*
X23914Y-8674D01*
X23930Y-8525D01*
X23949Y-8471D01*
X23981Y-8423D01*
X24045Y-8364D01*
X24160Y-8294D01*
X24337Y-8222D01*
X24530Y-8170D01*
X24745Y-8214D01*
X24982Y-8277D01*
X25199Y-8350D01*
X25230Y-8362D01*
X25238Y-8406D01*
X25344Y-9971D01*
X25347Y-10383D01*
X25361Y-10416D01*
Y-27598D01*
X25374Y-27668D01*
X25218Y-28452D01*
X24995Y-28785D01*
X24715Y-29156D01*
X24607Y-29166D01*
X24108Y-28748D01*
Y-23972D01*
X24039Y-23625D01*
X23842Y-23330D01*
X23548Y-23134D01*
X23200Y-23065D01*
X16800D01*
X16453Y-23134D01*
X16158Y-23330D01*
X15961Y-23625D01*
X15892Y-23972D01*
Y-29373D01*
X15961Y-29720D01*
X16158Y-30015D01*
X16453Y-30211D01*
X16747Y-30270D01*
X16783Y-30290D01*
X17007Y-30314D01*
X17128Y-30356D01*
X17235Y-30428D01*
X17346Y-30547D01*
X17459Y-30733D01*
X17566Y-30997D01*
X17589Y-31080D01*
X17508Y-31403D01*
X17389Y-31770D01*
X17250Y-32109D01*
X17092Y-32421D01*
X16915Y-32707D01*
X16702Y-32992D01*
X16674Y-33104D01*
X16561Y-33251D01*
X16164Y-34209D01*
X16029Y-35236D01*
Y-35630D01*
X16164Y-36658D01*
X16561Y-37615D01*
X17192Y-38438D01*
X18014Y-39069D01*
X18972Y-39466D01*
X20000Y-39601D01*
X21028Y-39466D01*
X21985Y-39069D01*
X22808Y-38438D01*
X23363Y-37715D01*
X23784Y-37802D01*
X23863Y-37845D01*
Y-38378D01*
X23865Y-38390D01*
X23744Y-39310D01*
X23384Y-40178D01*
X23104Y-40543D01*
X22809Y-40920D01*
X22475Y-41255D01*
X22419Y-41276D01*
X22417Y-41280D01*
X22412Y-41282D01*
X22239Y-41447D01*
X22094Y-41572D01*
X21970Y-41664D01*
X21872Y-41725D01*
X21843Y-41738D01*
X21028Y-41401D01*
X20000Y-41265D01*
X18972Y-41401D01*
X18014Y-41797D01*
X17192Y-42428D01*
X16561Y-43251D01*
X16164Y-44208D01*
X16029Y-45236D01*
Y-45630D01*
X16164Y-46658D01*
X16561Y-47615D01*
X17192Y-48438D01*
X18014Y-49069D01*
X18972Y-49466D01*
X20000Y-49601D01*
X21028Y-49466D01*
X21985Y-49069D01*
X22808Y-48438D01*
X23439Y-47615D01*
X23836Y-46658D01*
X23971Y-45630D01*
Y-45236D01*
X23836Y-44208D01*
X23643Y-43743D01*
X23629Y-43687D01*
X23634Y-43674D01*
X23668Y-43602D01*
X23733Y-43500D01*
X23828Y-43373D01*
X23954Y-43225D01*
X24121Y-43051D01*
X24143Y-42993D01*
X24159Y-42977D01*
X24517Y-42628D01*
X24517Y-42628D01*
X25264Y-41717D01*
X25820Y-40678D01*
X26162Y-39550D01*
X26277Y-38378D01*
X26271D01*
Y-32668D01*
X26266Y-32641D01*
X26360Y-32166D01*
X26684Y-32102D01*
X27270Y-31710D01*
X27281Y-31721D01*
X28207Y-30514D01*
X28790Y-29107D01*
X28989Y-27598D01*
X28973D01*
Y-10420D01*
X28987Y-10388D01*
X29000Y-9574D01*
X29035Y-8922D01*
X29093Y-8421D01*
X29126Y-8246D01*
X29160Y-8115D01*
X29187Y-8039D01*
X29195Y-8025D01*
X30018Y-7916D01*
X30965Y-7524D01*
X31777Y-6900D01*
X32401Y-6088D01*
X32793Y-5141D01*
X32925Y-4142D01*
X32928Y-4125D01*
Y6358D01*
X32942Y6390D01*
X32953Y7157D01*
X32986Y7770D01*
X33038Y8238D01*
X33068Y8399D01*
X33098Y8519D01*
X33121Y8582D01*
X33153Y8643D01*
X33162Y8739D01*
X33186Y8858D01*
X33227Y8971D01*
X33214Y8999D01*
X33225Y9055D01*
Y14455D01*
X33156Y14803D01*
X32959Y15097D01*
X32664Y15294D01*
X32317Y15363D01*
X26829D01*
X26813Y15372D01*
X26783Y15363D01*
X26583D01*
X26525Y15404D01*
X26308Y15588D01*
X26182Y15710D01*
X26111Y15737D01*
X21147Y20702D01*
X21147Y20702D01*
X21169Y20724D01*
X20440Y21283D01*
X20610Y21783D01*
X20819D01*
X21470Y22053D01*
X21968Y22551D01*
X22238Y23202D01*
Y23907D01*
X21968Y24558D01*
X21470Y25057D01*
X20819Y25326D01*
X20139D01*
X19035Y26173D01*
X17668Y26740D01*
X16200Y26933D01*
Y26904D01*
X14512D01*
X14506Y26902D01*
X13529Y27031D01*
X12612Y27411D01*
X12206Y27723D01*
X11827Y28016D01*
X11482Y28361D01*
X7964Y31879D01*
X8171Y32379D01*
X8208D01*
X8823Y32634D01*
X9294Y33104D01*
X9548Y33719D01*
Y34385D01*
X9294Y35000D01*
X8823Y35471D01*
X8208Y35725D01*
X7542D01*
X6927Y35471D01*
X6457Y35000D01*
X6202Y34385D01*
Y34348D01*
X5702Y34141D01*
X5021Y34822D01*
X4676Y35167D01*
X4383Y35546D01*
X4071Y35952D01*
X3691Y36869D01*
X3647Y37208D01*
X3664Y37227D01*
X4116Y37454D01*
X4281Y37385D01*
X4429Y37287D01*
X4603Y37252D01*
X4768Y37184D01*
X4945D01*
X5120Y37149D01*
X5294Y37184D01*
X5472D01*
X5637Y37252D01*
X5811Y37287D01*
X5906Y37350D01*
X8397D01*
X8428Y37344D01*
X9928D01*
X10353Y37428D01*
X10714Y37669D01*
X10869Y37901D01*
X10968Y37928D01*
X11325Y37928D01*
X11424Y37901D01*
X11579Y37669D01*
X11940Y37428D01*
X12365Y37344D01*
X13865D01*
X13896Y37350D01*
X17056D01*
X17081Y37355D01*
X17885Y37249D01*
X18657Y36929D01*
X18939Y36713D01*
X19315Y36414D01*
X19669Y36061D01*
X26227Y29503D01*
X26576Y29154D01*
X26875Y28777D01*
X27090Y28496D01*
X27353Y27863D01*
X27145Y27421D01*
X27094Y27363D01*
X25917D01*
X25569Y27294D01*
X25275Y27097D01*
X25078Y26803D01*
X25009Y26455D01*
Y21055D01*
X25078Y20708D01*
X25275Y20413D01*
X25569Y20216D01*
X25917Y20147D01*
X32317D01*
X32664Y20216D01*
X32959Y20413D01*
X33156Y20708D01*
X33225Y21055D01*
Y26455D01*
X33156Y26803D01*
X32959Y27097D01*
X32664Y27294D01*
X32317Y27363D01*
X30676D01*
X30599Y28144D01*
X30235Y29346D01*
X29643Y30454D01*
X28846Y31424D01*
X28846Y31424D01*
X21586Y38685D01*
X21586Y38685D01*
X20615Y39482D01*
X19508Y40074D01*
X18306Y40438D01*
X17056Y40561D01*
X17056Y40561D01*
X13896D01*
X13865Y40567D01*
X12365D01*
X11940Y40483D01*
X11579Y40242D01*
X11424Y40011D01*
X11325Y39983D01*
X10968Y39983D01*
X10869Y40011D01*
X10714Y40242D01*
X10353Y40483D01*
X9928Y40567D01*
X8428D01*
X8396Y40561D01*
X6926D01*
Y41892D01*
X6892Y42067D01*
Y42245D01*
X6824Y42409D01*
X6789Y42584D01*
X6690Y42732D01*
X6622Y42896D01*
X6496Y43022D01*
X6397Y43170D01*
X6249Y43269D01*
X6124Y43395D01*
X5959Y43462D01*
X5811Y43561D01*
X5637Y43596D01*
X5472Y43664D01*
X5294D01*
X5120Y43699D01*
X4945Y43664D01*
X4768D01*
X4409Y43922D01*
X4332Y44052D01*
Y44245D01*
X4062Y44896D01*
X3564Y45395D01*
X2912Y45664D01*
D02*
G37*
G36*
X-7540Y35725D02*
X-8206D01*
X-8821Y35471D01*
X-9291Y35000D01*
X-9546Y34385D01*
Y33719D01*
X-9291Y33104D01*
X-8821Y32634D01*
X-8206Y32379D01*
X-7540D01*
X-6925Y32634D01*
X-6454Y33104D01*
X-6200Y33719D01*
Y34385D01*
X-6454Y35000D01*
X-6925Y35471D01*
X-7540Y35725D01*
D02*
G37*
G36*
X-31181Y23026D02*
X-31886D01*
X-32537Y22757D01*
X-33036Y22258D01*
X-33305Y21607D01*
Y20902D01*
X-33036Y20251D01*
X-32537Y19753D01*
X-31886Y19483D01*
X-31181D01*
X-30530Y19753D01*
X-30484Y19799D01*
X-29911Y19829D01*
X-29868Y19850D01*
X-29641D01*
X-29623Y19853D01*
X-28761Y19740D01*
X-27941Y19400D01*
X-27618Y19152D01*
X-27241Y18855D01*
X-26895Y18510D01*
X-24162Y15777D01*
X-24143Y15727D01*
X-23855Y15429D01*
X-23620Y15163D01*
X-23429Y14923D01*
X-23282Y14712D01*
X-23198Y14565D01*
Y-2007D01*
X-23199Y-2012D01*
X-23242Y-2038D01*
X-23332Y-2075D01*
X-23470Y-2111D01*
X-23653Y-2142D01*
X-23854Y-2159D01*
X-23865Y-2158D01*
X-23930Y-2093D01*
X-24581Y-1824D01*
X-25286D01*
X-25937Y-2093D01*
X-26436Y-2592D01*
X-26706Y-3243D01*
Y-3948D01*
X-26436Y-4599D01*
X-25937Y-5097D01*
X-25286Y-5367D01*
X-24581D01*
X-23930Y-5097D01*
X-23884Y-5051D01*
X-23722Y-5043D01*
X-23653Y-5049D01*
X-23470Y-5079D01*
X-23332Y-5116D01*
X-23242Y-5153D01*
X-23199Y-5178D01*
X-23198Y-5184D01*
Y-9646D01*
X-23046Y-10414D01*
X-22611Y-11066D01*
X-21959Y-11501D01*
X-21191Y-11654D01*
X2721D01*
X2907Y-11760D01*
X3244Y-11995D01*
X4075Y-12700D01*
X4546Y-13154D01*
X4578Y-13167D01*
X5955Y-14544D01*
X5979Y-14560D01*
X6957Y-15363D01*
X8099Y-15973D01*
X9338Y-16349D01*
X10597Y-16473D01*
X10626Y-16479D01*
X14097D01*
X14127Y-16493D01*
X14559Y-16504D01*
X14919Y-16535D01*
X15220Y-16585D01*
X15460Y-16650D01*
X15636Y-16722D01*
X15752Y-16792D01*
X15816Y-16851D01*
X15848Y-16899D01*
X15867Y-16953D01*
X15883Y-17102D01*
X15892Y-17119D01*
Y-17372D01*
X15961Y-17720D01*
X16158Y-18014D01*
X16453Y-18211D01*
X16800Y-18281D01*
X23200D01*
X23548Y-18211D01*
X23842Y-18014D01*
X24039Y-17720D01*
X24108Y-17372D01*
Y-11972D01*
X24039Y-11625D01*
X23842Y-11330D01*
X23548Y-11134D01*
X23200Y-11065D01*
X16800D01*
X16453Y-11134D01*
X16158Y-11330D01*
X15961Y-11625D01*
X15892Y-11972D01*
Y-12226D01*
X15883Y-12243D01*
X15867Y-12392D01*
X15848Y-12446D01*
X15816Y-12494D01*
X15752Y-12553D01*
X15636Y-12623D01*
X15460Y-12695D01*
X15220Y-12760D01*
X14919Y-12810D01*
X14559Y-12841D01*
X14127Y-12852D01*
X14097Y-12866D01*
X10626D01*
X10595Y-12872D01*
X9849Y-12774D01*
X9124Y-12474D01*
X8885Y-12290D01*
X8509Y-11989D01*
X8163Y-11643D01*
X7140Y-10620D01*
X7128Y-10589D01*
X6273Y-9669D01*
X5966Y-9285D01*
X5725Y-8941D01*
X5619Y-8756D01*
Y11150D01*
X6060D01*
X6178Y11198D01*
X6305D01*
X6931Y11458D01*
X7021Y11548D01*
X7139Y11597D01*
X7618Y12076D01*
X7667Y12194D01*
X7757Y12283D01*
X8016Y12910D01*
Y13037D01*
X8065Y13155D01*
Y18113D01*
X8118Y18380D01*
Y19930D01*
X8012Y20462D01*
X7710Y20914D01*
X7258Y21216D01*
X7229Y21222D01*
X6908Y21355D01*
X6781D01*
X6664Y21404D01*
X4368D01*
X4307Y21378D01*
X4243Y21391D01*
X3687Y21281D01*
X3632Y21244D01*
X3567D01*
X3042Y21027D01*
X2996Y20981D01*
X2932Y20968D01*
X2460Y20653D01*
X2424Y20598D01*
X2363Y20573D01*
X2162Y20372D01*
X2162Y20372D01*
X151Y18361D01*
X-152Y18087D01*
X-843Y17625D01*
X-1596Y17313D01*
X-2345Y17164D01*
X-21191D01*
X-21361Y17130D01*
X-21547Y17258D01*
X-22073Y17702D01*
X-22376Y17995D01*
X-22426Y18015D01*
X-22458Y18047D01*
X-22479Y18076D01*
X-22489Y18078D01*
X-25254Y20842D01*
X-25254Y20842D01*
X-25252Y20844D01*
X-26192Y21616D01*
X-27266Y22190D01*
X-28430Y22543D01*
X-29641Y22663D01*
X-29641Y22663D01*
X-29942Y22681D01*
X-29943Y22681D01*
X-30071Y22682D01*
X-30453Y22691D01*
X-30465Y22692D01*
X-30530Y22757D01*
X-31181Y23026D01*
D02*
G37*
G36*
X-18102Y-24655D02*
X-18807D01*
X-19458Y-24925D01*
X-19957Y-25423D01*
X-20226Y-26074D01*
Y-26310D01*
X-20275Y-26415D01*
X-20277Y-26478D01*
X-20281Y-26512D01*
X-20289Y-26546D01*
X-20301Y-26584D01*
X-20318Y-26624D01*
X-20342Y-26669D01*
X-20372Y-26717D01*
X-20411Y-26770D01*
X-20459Y-26827D01*
X-20527Y-26900D01*
X-20551Y-26962D01*
X-24408Y-30819D01*
X-24408Y-30819D01*
X-24413Y-30814D01*
X-25148Y-31709D01*
X-25563Y-32486D01*
X-26063Y-32361D01*
Y-31299D01*
X-33937D01*
Y-39567D01*
X-26765D01*
X-26487Y-39983D01*
X-26630Y-40327D01*
X-26926Y-40713D01*
X-27220Y-41091D01*
X-27586Y-41458D01*
X-27648Y-41482D01*
X-27649Y-41483D01*
X-27650Y-41484D01*
X-27789Y-41616D01*
X-27902Y-41712D01*
X-27995Y-41781D01*
X-28018Y-41796D01*
X-28972Y-41401D01*
X-30000Y-41265D01*
X-31028Y-41401D01*
X-31986Y-41797D01*
X-32808Y-42428D01*
X-33439Y-43251D01*
X-33836Y-44208D01*
X-33971Y-45236D01*
Y-45630D01*
X-33836Y-46658D01*
X-33439Y-47615D01*
X-32808Y-48438D01*
X-31986Y-49069D01*
X-31028Y-49466D01*
X-30000Y-49601D01*
X-28972Y-49466D01*
X-28014Y-49069D01*
X-27192Y-48438D01*
X-26561Y-47615D01*
X-26164Y-46658D01*
X-26029Y-45630D01*
Y-45236D01*
X-26164Y-44208D01*
X-26435Y-43555D01*
X-26425Y-43534D01*
X-26378Y-43458D01*
X-26305Y-43361D01*
X-26205Y-43244D01*
X-26070Y-43103D01*
X-26046Y-43040D01*
X-25658Y-42653D01*
X-25658Y-42653D01*
X-25653Y-42658D01*
X-24918Y-41762D01*
X-24372Y-40740D01*
X-24035Y-39631D01*
X-23922Y-38478D01*
X-23929D01*
Y-37738D01*
X-23471Y-37623D01*
X-23429Y-37628D01*
X-22808Y-38438D01*
X-21985Y-39069D01*
X-21028Y-39466D01*
X-20000Y-39601D01*
X-18972Y-39466D01*
X-18014Y-39069D01*
X-17192Y-38438D01*
X-16561Y-37615D01*
X-16164Y-36658D01*
X-16029Y-35630D01*
Y-35236D01*
X-16164Y-34209D01*
X-16561Y-33251D01*
X-17192Y-32428D01*
X-18014Y-31797D01*
X-18972Y-31401D01*
X-20000Y-31265D01*
X-21028Y-31401D01*
X-21254Y-31494D01*
X-21537Y-31070D01*
X-18990Y-28523D01*
X-18928Y-28499D01*
X-18855Y-28431D01*
X-18798Y-28383D01*
X-18745Y-28345D01*
X-18697Y-28314D01*
X-18652Y-28290D01*
X-18611Y-28273D01*
X-18574Y-28261D01*
X-18540Y-28253D01*
X-18506Y-28249D01*
X-18443Y-28247D01*
X-18338Y-28198D01*
X-18102D01*
X-17451Y-27929D01*
X-16953Y-27430D01*
X-16683Y-26779D01*
Y-26074D01*
X-16953Y-25423D01*
X-17451Y-24925D01*
X-18102Y-24655D01*
D02*
G37*
G36*
X10000Y-31265D02*
X8972Y-31401D01*
X8015Y-31797D01*
X7192Y-32428D01*
X6561Y-33251D01*
X6164Y-34209D01*
X6029Y-35236D01*
Y-35630D01*
X6164Y-36658D01*
X6561Y-37615D01*
X7192Y-38438D01*
X8015Y-39069D01*
X8972Y-39466D01*
X10000Y-39601D01*
X11028Y-39466D01*
X11986Y-39069D01*
X12808Y-38438D01*
X13439Y-37615D01*
X13836Y-36658D01*
X13971Y-35630D01*
Y-35236D01*
X13836Y-34209D01*
X13439Y-33251D01*
X12808Y-32428D01*
X11986Y-31797D01*
X11028Y-31401D01*
X10000Y-31265D01*
D02*
G37*
G36*
X0D02*
X-1028Y-31401D01*
X-1986Y-31797D01*
X-2808Y-32428D01*
X-3439Y-33251D01*
X-3836Y-34209D01*
X-3971Y-35236D01*
Y-35630D01*
X-3836Y-36658D01*
X-3439Y-37615D01*
X-2808Y-38438D01*
X-1986Y-39069D01*
X-1028Y-39466D01*
X0Y-39601D01*
X1028Y-39466D01*
X1986Y-39069D01*
X2808Y-38438D01*
X3439Y-37615D01*
X3836Y-36658D01*
X3971Y-35630D01*
Y-35236D01*
X3836Y-34209D01*
X3439Y-33251D01*
X2808Y-32428D01*
X1986Y-31797D01*
X1028Y-31401D01*
X0Y-31265D01*
D02*
G37*
G36*
X-10000D02*
X-11028Y-31401D01*
X-11986Y-31797D01*
X-12808Y-32428D01*
X-13439Y-33251D01*
X-13836Y-34209D01*
X-13971Y-35236D01*
Y-35630D01*
X-13836Y-36658D01*
X-13439Y-37615D01*
X-12808Y-38438D01*
X-11986Y-39069D01*
X-11028Y-39466D01*
X-10000Y-39601D01*
X-8972Y-39466D01*
X-8015Y-39069D01*
X-7192Y-38438D01*
X-6561Y-37615D01*
X-6164Y-36658D01*
X-6029Y-35630D01*
Y-35236D01*
X-6164Y-34209D01*
X-6561Y-33251D01*
X-7192Y-32428D01*
X-8015Y-31797D01*
X-8972Y-31401D01*
X-10000Y-31265D01*
D02*
G37*
G36*
X10000Y-41265D02*
X8972Y-41401D01*
X8015Y-41797D01*
X7192Y-42428D01*
X6561Y-43251D01*
X6164Y-44208D01*
X6029Y-45236D01*
Y-45630D01*
X6164Y-46658D01*
X6561Y-47615D01*
X7192Y-48438D01*
X8015Y-49069D01*
X8972Y-49466D01*
X10000Y-49601D01*
X11028Y-49466D01*
X11986Y-49069D01*
X12808Y-48438D01*
X13439Y-47615D01*
X13836Y-46658D01*
X13971Y-45630D01*
Y-45236D01*
X13836Y-44208D01*
X13439Y-43251D01*
X12808Y-42428D01*
X11986Y-41797D01*
X11028Y-41401D01*
X10000Y-41265D01*
D02*
G37*
G36*
X0D02*
X-1028Y-41401D01*
X-1986Y-41797D01*
X-2808Y-42428D01*
X-3439Y-43251D01*
X-3836Y-44208D01*
X-3971Y-45236D01*
Y-45630D01*
X-3836Y-46658D01*
X-3439Y-47615D01*
X-2808Y-48438D01*
X-1986Y-49069D01*
X-1028Y-49466D01*
X0Y-49601D01*
X1028Y-49466D01*
X1986Y-49069D01*
X2808Y-48438D01*
X3439Y-47615D01*
X3836Y-46658D01*
X3971Y-45630D01*
Y-45236D01*
X3836Y-44208D01*
X3439Y-43251D01*
X2808Y-42428D01*
X1986Y-41797D01*
X1028Y-41401D01*
X0Y-41265D01*
D02*
G37*
G36*
X-10000D02*
X-11028Y-41401D01*
X-11986Y-41797D01*
X-12808Y-42428D01*
X-13439Y-43251D01*
X-13836Y-44208D01*
X-13971Y-45236D01*
Y-45630D01*
X-13836Y-46658D01*
X-13439Y-47615D01*
X-12808Y-48438D01*
X-11986Y-49069D01*
X-11028Y-49466D01*
X-10000Y-49601D01*
X-8972Y-49466D01*
X-8015Y-49069D01*
X-7192Y-48438D01*
X-6561Y-47615D01*
X-6164Y-46658D01*
X-6029Y-45630D01*
Y-45236D01*
X-6164Y-44208D01*
X-6561Y-43251D01*
X-7192Y-42428D01*
X-8015Y-41797D01*
X-8972Y-41401D01*
X-10000Y-41265D01*
D02*
G37*
G36*
X-20000D02*
X-21028Y-41401D01*
X-21985Y-41797D01*
X-22808Y-42428D01*
X-23439Y-43251D01*
X-23836Y-44208D01*
X-23971Y-45236D01*
Y-45630D01*
X-23836Y-46658D01*
X-23439Y-47615D01*
X-22808Y-48438D01*
X-21985Y-49069D01*
X-21028Y-49466D01*
X-20000Y-49601D01*
X-18972Y-49466D01*
X-18014Y-49069D01*
X-17192Y-48438D01*
X-16561Y-47615D01*
X-16164Y-46658D01*
X-16029Y-45630D01*
Y-45236D01*
X-16164Y-44208D01*
X-16561Y-43251D01*
X-17192Y-42428D01*
X-18014Y-41797D01*
X-18972Y-41401D01*
X-20000Y-41265D01*
D02*
G37*
%LPD*%
G36*
X3305Y42963D02*
X3231Y42874D01*
X3166Y42783D01*
X3110Y42689D01*
X3062Y42592D01*
X3023Y42493D01*
X2993Y42391D01*
X2971Y42287D01*
X2958Y42180D01*
X2954Y42070D01*
X2166D01*
X2162Y42180D01*
X2149Y42287D01*
X2127Y42391D01*
X2097Y42493D01*
X2058Y42592D01*
X2010Y42689D01*
X1954Y42783D01*
X1889Y42874D01*
X1815Y42963D01*
X1733Y43049D01*
X3387D01*
X3305Y42963D01*
D02*
G37*
G36*
X741Y38022D02*
X665Y37929D01*
X601Y37835D01*
X547Y37740D01*
X505Y37643D01*
X473Y37544D01*
X452Y37445D01*
X443Y37343D01*
X444Y37241D01*
X457Y37137D01*
X-340Y37136D01*
X-360Y37251D01*
X-387Y37361D01*
X-419Y37468D01*
X-459Y37572D01*
X-504Y37671D01*
X-556Y37767D01*
X-614Y37859D01*
X-678Y37947D01*
X-749Y38031D01*
X-826Y38111D01*
X828Y38113D01*
X741Y38022D01*
D02*
G37*
G36*
X13717Y22789D02*
X13642Y22872D01*
X13563Y22951D01*
X13480Y23024D01*
X13393Y23092D01*
X13302Y23155D01*
X13208Y23213D01*
X13109Y23265D01*
X13007Y23313D01*
X12901Y23355D01*
X12791Y23392D01*
X12847Y24203D01*
X12949Y24173D01*
X13051Y24154D01*
X13151Y24148D01*
X13251Y24153D01*
X13350Y24171D01*
X13448Y24200D01*
X13546Y24242D01*
X13642Y24295D01*
X13738Y24361D01*
X13832Y24438D01*
X13717Y22789D01*
D02*
G37*
G36*
X-6061Y24602D02*
X-6132Y24524D01*
X-6195Y24441D01*
X-6251Y24352D01*
X-6299Y24257D01*
X-6339Y24156D01*
X-6372Y24050D01*
X-6398Y23937D01*
X-6415Y23820D01*
X-6425Y23696D01*
X-6428Y23566D01*
X-7597Y24736D01*
X-7468Y24738D01*
X-7344Y24748D01*
X-7226Y24766D01*
X-7114Y24791D01*
X-7007Y24824D01*
X-6907Y24865D01*
X-6812Y24913D01*
X-6723Y24969D01*
X-6639Y25032D01*
X-6562Y25103D01*
X-6061Y24602D01*
D02*
G37*
G36*
X25879Y15113D02*
X26134Y14897D01*
X26248Y14818D01*
X26353Y14757D01*
X26448Y14715D01*
X26535Y14692D01*
X26612Y14688D01*
X26681Y14703D01*
X26740Y14737D01*
X25635Y13861D01*
X25679Y13910D01*
X25702Y13970D01*
X25704Y14042D01*
X25684Y14125D01*
X25643Y14220D01*
X25581Y14325D01*
X25498Y14443D01*
X25394Y14571D01*
X25122Y14863D01*
X25738Y15250D01*
X25879Y15113D01*
D02*
G37*
G36*
X32534Y8840D02*
X32485Y8704D01*
X32443Y8535D01*
X32405Y8331D01*
X32348Y7822D01*
X32314Y7178D01*
X32303Y6399D01*
X29941D01*
X29929Y6860D01*
X29893Y7271D01*
X29834Y7632D01*
X29752Y7944D01*
X29645Y8206D01*
X29515Y8419D01*
X29362Y8582D01*
X29185Y8695D01*
X28984Y8759D01*
X28760Y8773D01*
X32588Y8943D01*
X32534Y8840D01*
D02*
G37*
G36*
X23302Y-4107D02*
X23373Y-4308D01*
X23492Y-4485D01*
X23658Y-4639D01*
X23872Y-4768D01*
X24133Y-4875D01*
X24442Y-4957D01*
X24517Y-4970D01*
X24599Y-4958D01*
X24891Y-4898D01*
X25165Y-4825D01*
X25423Y-4739D01*
X25664Y-4640D01*
X25887Y-4527D01*
X26094Y-4401D01*
Y-7667D01*
X28661D01*
X28601Y-7779D01*
X28548Y-7926D01*
X28501Y-8108D01*
X28461Y-8326D01*
X28398Y-8868D01*
X28361Y-9552D01*
X28348Y-10378D01*
X25986D01*
X25983Y-9947D01*
X25873Y-8326D01*
X25833Y-8108D01*
X25786Y-7926D01*
X25780Y-7908D01*
X25664Y-7850D01*
X25423Y-7751D01*
X25165Y-7665D01*
X24891Y-7592D01*
X24599Y-7532D01*
X24517Y-7520D01*
X24442Y-7532D01*
X24133Y-7615D01*
X23872Y-7721D01*
X23658Y-7851D01*
X23492Y-8005D01*
X23373Y-8182D01*
X23302Y-8383D01*
X23278Y-8607D01*
Y-7426D01*
X23263Y-7426D01*
Y-5064D01*
X23278Y-5063D01*
Y-3883D01*
X23302Y-4107D01*
D02*
G37*
G36*
X21586Y-29654D02*
X23150D01*
X22850Y-29686D01*
X22583Y-29781D01*
X22346Y-29939D01*
X22142Y-30160D01*
X21969Y-30444D01*
X21827Y-30792D01*
X21754Y-31064D01*
X21769Y-31145D01*
X21878Y-31580D01*
X22011Y-31990D01*
X22168Y-32375D01*
X22350Y-32733D01*
X22556Y-33067D01*
X22786Y-33375D01*
X17214D01*
X17444Y-33067D01*
X17650Y-32733D01*
X17832Y-32375D01*
X17989Y-31990D01*
X18122Y-31580D01*
X18231Y-31145D01*
X18246Y-31064D01*
X18173Y-30792D01*
X18032Y-30444D01*
X17858Y-30160D01*
X17653Y-29939D01*
X17417Y-29781D01*
X17150Y-29686D01*
X16850Y-29654D01*
X18414D01*
X18425Y-29147D01*
X21575D01*
X21586Y-29654D01*
D02*
G37*
G36*
X23659Y-42610D02*
X23480Y-42796D01*
X23329Y-42972D01*
X23205Y-43138D01*
X23108Y-43292D01*
X23038Y-43437D01*
X22996Y-43570D01*
X22980Y-43693D01*
X22992Y-43806D01*
X23031Y-43908D01*
X23097Y-43999D01*
X21498Y-42270D01*
X21583Y-42342D01*
X21680Y-42387D01*
X21788Y-42404D01*
X21906Y-42393D01*
X22036Y-42354D01*
X22177Y-42287D01*
X22330Y-42193D01*
X22493Y-42071D01*
X22668Y-41922D01*
X22854Y-41744D01*
X23659Y-42610D01*
D02*
G37*
G36*
X-30676Y22074D02*
X-30648Y22067D01*
X-30607Y22061D01*
X-30485Y22052D01*
X-30079Y22042D01*
X-29945Y22042D01*
Y20467D01*
X-30690Y20428D01*
Y22082D01*
X-30676Y22074D01*
D02*
G37*
G36*
X7013Y20619D02*
X7281Y20352D01*
X7426Y20002D01*
Y19813D01*
Y13494D01*
Y13155D01*
X7166Y12528D01*
X6687Y12049D01*
X6060Y11789D01*
X1503D01*
X1527Y11796D01*
X-3471D01*
Y16492D01*
X-2802D01*
X-2332Y16515D01*
X-1409Y16698D01*
X-540Y17058D01*
X243Y17581D01*
X592Y17898D01*
X2615Y19920D01*
Y19920D01*
X2815Y20121D01*
X3287Y20436D01*
X3811Y20654D01*
X4368Y20764D01*
X6664D01*
X7013Y20619D01*
D02*
G37*
G36*
X-22501Y17228D02*
X-21935Y16749D01*
X-21688Y16579D01*
X-21464Y16455D01*
X-21265Y16377D01*
X-21089Y16344D01*
X-20938Y16358D01*
X-20810Y16417D01*
X-20706Y16522D01*
X-22557Y13944D01*
X-22486Y14081D01*
X-22455Y14238D01*
X-22465Y14413D01*
X-22516Y14608D01*
X-22608Y14821D01*
X-22741Y15053D01*
X-22915Y15304D01*
X-23130Y15574D01*
X-23386Y15863D01*
X-23683Y16171D01*
X-22820Y17535D01*
X-22501Y17228D01*
D02*
G37*
G36*
X-22557Y-5170D02*
X-22573Y-5020D01*
X-22621Y-4887D01*
X-22700Y-4769D01*
X-22811Y-4666D01*
X-22954Y-4580D01*
X-23128Y-4509D01*
X-23335Y-4453D01*
X-23573Y-4414D01*
X-23711Y-4402D01*
X-24090Y-4422D01*
Y-4384D01*
X-24144Y-4383D01*
Y-2808D01*
X-24090Y-2806D01*
Y-2768D01*
X-24076Y-2776D01*
X-24048Y-2783D01*
X-24007Y-2789D01*
X-23885Y-2798D01*
X-23833Y-2799D01*
X-23573Y-2776D01*
X-23335Y-2737D01*
X-23128Y-2682D01*
X-22954Y-2611D01*
X-22811Y-2524D01*
X-22700Y-2422D01*
X-22621Y-2304D01*
X-22573Y-2170D01*
X-22557Y-2021D01*
Y-5170D01*
D02*
G37*
G36*
X4845Y-7866D02*
X4780Y-8082D01*
X4781Y-8332D01*
X4849Y-8616D01*
X4984Y-8933D01*
X5185Y-9284D01*
X5454Y-9669D01*
X5789Y-10087D01*
X6660Y-11024D01*
X4990Y-12695D01*
X4504Y-12226D01*
X3634Y-11488D01*
X3249Y-11220D01*
X2899Y-11018D01*
X2581Y-10883D01*
X2298Y-10815D01*
X2048Y-10814D01*
X1832Y-10880D01*
X1649Y-11012D01*
X4978Y-7683D01*
X4845Y-7866D01*
D02*
G37*
G36*
X16518Y-17035D02*
X16495Y-16810D01*
X16423Y-16610D01*
X16305Y-16432D01*
X16138Y-16279D01*
X15925Y-16149D01*
X15664Y-16043D01*
X15355Y-15960D01*
X14999Y-15901D01*
X14595Y-15865D01*
X14144Y-15854D01*
Y-13491D01*
X14595Y-13480D01*
X14999Y-13444D01*
X15355Y-13385D01*
X15664Y-13302D01*
X15925Y-13196D01*
X16138Y-13066D01*
X16305Y-12913D01*
X16423Y-12735D01*
X16495Y-12535D01*
X16518Y-12310D01*
Y-17035D01*
D02*
G37*
G36*
X-18466Y-27608D02*
X-18560Y-27611D01*
X-18652Y-27623D01*
X-18744Y-27644D01*
X-18835Y-27674D01*
X-18926Y-27712D01*
X-19016Y-27759D01*
X-19105Y-27815D01*
X-19193Y-27880D01*
X-19280Y-27953D01*
X-19367Y-28035D01*
X-20063Y-27339D01*
X-19981Y-27252D01*
X-19908Y-27165D01*
X-19843Y-27077D01*
X-19787Y-26988D01*
X-19740Y-26898D01*
X-19702Y-26808D01*
X-19672Y-26716D01*
X-19651Y-26625D01*
X-19639Y-26532D01*
X-19636Y-26439D01*
X-18466Y-27608D01*
D02*
G37*
G36*
X-26532Y-42661D02*
X-26680Y-42815D01*
X-26804Y-42961D01*
X-26906Y-43097D01*
X-26986Y-43226D01*
X-27043Y-43345D01*
X-27078Y-43456D01*
X-27091Y-43558D01*
X-27081Y-43652D01*
X-27048Y-43737D01*
X-26993Y-43813D01*
X-28321Y-42367D01*
X-28250Y-42427D01*
X-28170Y-42465D01*
X-28082Y-42480D01*
X-27984Y-42472D01*
X-27877Y-42442D01*
X-27762Y-42388D01*
X-27637Y-42312D01*
X-27503Y-42213D01*
X-27361Y-42091D01*
X-27209Y-41946D01*
X-26532Y-42661D01*
D02*
G37*
D11*
X25993Y-30433D02*
X25308Y-31459D01*
X25067Y-32668D01*
X23661Y-41772D02*
X24258Y-41045D01*
X24702Y-40215D01*
X24975Y-39314D01*
X25067Y-38378D01*
Y-32668D01*
X20000Y-45433D02*
X23661Y-41772D01*
D13*
X2560Y37852D02*
X2652Y36915D01*
X2925Y36015D01*
X3369Y35185D01*
X3966Y34457D01*
X11117Y27306D02*
X11845Y26709D01*
X12675Y26265D01*
X13575Y25992D01*
X14512Y25900D01*
X19478Y24542D02*
X18776Y25119D01*
X17974Y25547D01*
X17105Y25811D01*
X16200Y25900D01*
X19479Y24542D02*
X19478Y24542D01*
X0Y37878D02*
X92Y36942D01*
X365Y36041D01*
X809Y35211D01*
X1406Y34484D01*
X10929Y24961D02*
X11657Y24364D01*
X12487Y23920D01*
X13387Y23647D01*
X14323Y23555D01*
X2560Y37852D02*
Y43892D01*
X3966Y34457D02*
X11117Y27306D01*
X14512Y25900D02*
X16200D01*
X19479Y24542D02*
X20466Y23555D01*
X19478Y24542D02*
X19479Y24542D01*
X0Y37878D02*
Y38956D01*
X1406Y34484D02*
X10929Y24961D01*
X14323Y23555D02*
X14616D01*
D36*
X-23627Y-31599D02*
X-24224Y-32327D01*
X-24668Y-33156D01*
X-24941Y-34057D01*
X-25033Y-34993D01*
X-26439Y-41872D02*
X-25842Y-41145D01*
X-25398Y-40315D01*
X-25125Y-39414D01*
X-25033Y-38478D01*
X-23627Y-31599D02*
X-18455Y-26427D01*
X-30000Y-45433D02*
X-26439Y-41872D01*
X-25033Y-38478D02*
Y-34993D01*
D37*
X-26247Y19849D02*
X-26975Y20446D01*
X-27804Y20889D01*
X-28705Y21162D01*
X-29641Y21255D01*
X-9154Y-1497D02*
Y2755D01*
X-15419Y13240D02*
X-6D01*
X-31534Y21255D02*
X-29641D01*
X-15419Y9021D02*
Y13240D01*
Y9021D02*
X-9154Y2755D01*
X-26247Y19849D02*
X-15419Y9021D01*
X-24934Y-3595D02*
X-11252D01*
X-9154Y-1497D01*
D49*
X27167Y-6245D02*
D03*
Y55D02*
D03*
D50*
X5601Y19155D02*
D03*
X11901D02*
D03*
D52*
X9178Y38956D02*
D03*
X13115Y38956D02*
D03*
D53*
X29002Y-6245D02*
X30062Y-5961D01*
X30838Y-5185D01*
X31122Y-4125D01*
X25993Y-30433D02*
X26630Y-29603D01*
X27030Y-28636D01*
X27167Y-27598D01*
X7232Y-13267D02*
X7959Y-13863D01*
X8789Y-14307D01*
X9690Y-14580D01*
X10626Y-14672D01*
X29010Y12428D02*
X31122Y10316D01*
X27167Y-6245D02*
X29002D01*
X5120Y38956D02*
Y41892D01*
X-8790Y2755D02*
X7232Y-13267D01*
X10626Y-14672D02*
X20000D01*
X27167Y-27598D02*
Y-6245D01*
X31122Y-4125D02*
Y10316D01*
X18376Y-6245D02*
X27167D01*
X-6Y13240D02*
X5601D01*
D54*
X-30000Y-35433D02*
D03*
D55*
Y-45433D02*
D03*
X-20000Y-35433D02*
D03*
Y-45433D02*
D03*
X-10000Y-35433D02*
D03*
Y-45433D02*
D03*
X0Y-35433D02*
D03*
Y-45433D02*
D03*
X10000Y-35433D02*
D03*
Y-45433D02*
D03*
X20000Y-35433D02*
D03*
Y-45433D02*
D03*
X30000Y-35433D02*
D03*
Y-45433D02*
D03*
D56*
X7087Y0D02*
D03*
X29117Y22155D02*
D03*
Y25155D02*
D03*
X-7609Y23555D02*
D03*
X5120Y38956D02*
D03*
Y41892D02*
D03*
X2560Y43892D02*
D03*
X0Y38956D02*
D03*
X14616Y23555D02*
D03*
X20466D02*
D03*
X-18455Y-26427D02*
D03*
X-31730Y-3595D02*
D03*
X-31534Y21255D02*
D03*
X5601Y23555D02*
D03*
X-24934Y-3595D02*
D03*
X5601Y13240D02*
D03*
D57*
X20450Y37550D02*
X19723Y38147D01*
X18893Y38590D01*
X17993Y38863D01*
X17056Y38956D01*
X29117Y26895D02*
X29025Y27831D01*
X28752Y28732D01*
X28308Y29562D01*
X27711Y30289D01*
X20450Y37550D02*
X20450Y37550D01*
X27711Y30289D01*
X13115Y38956D02*
X17056D01*
X9178Y38956D02*
Y38956D01*
X5120Y38956D02*
X9178D01*
X29117Y25155D02*
Y26895D01*
D58*
X28534Y11952D02*
X29010Y11755D01*
X-2031Y27145D02*
X-2967Y27052D01*
X-3868Y26779D01*
X-4698Y26336D01*
X-5425Y25739D01*
X7740Y26146D02*
X7034Y26688D01*
X6212Y27028D01*
X5330Y27145D01*
X11054Y22832D02*
X11782Y22235D01*
X12611Y21792D01*
X13512Y21519D01*
X14448Y21426D01*
X20466Y20020D02*
X19738Y20617D01*
X18909Y21061D01*
X18008Y21334D01*
X17072Y21426D01*
X20466Y20020D02*
X28534Y11952D01*
X29010Y11755D02*
X29117D01*
X-2031Y27145D02*
X5330D01*
X7740Y26146D02*
X11054Y22832D01*
X-7609Y23555D02*
X-5425Y25739D01*
X14448Y21426D02*
X17072D01*
D59*
X29117Y23755D02*
D03*
Y11755D02*
D03*
X20000Y-26673D02*
D03*
Y-14672D02*
D03*
D60*
X-8790Y2755D02*
D03*
D61*
X18376Y-6245D02*
D03*
D62*
Y11755D02*
D03*
D63*
X20000Y-35433D02*
Y-26673D01*
M02*
