G04*
G04 #@! TF.GenerationSoftware,Altium Limited,Altium Designer,23.2.1 (34)*
G04*
G04 Layer_Color=8388736*
%FSLAX25Y25*%
%MOIN*%
G70*
G04*
G04 #@! TF.SameCoordinates,2D16543A-974C-4BE6-9D28-3C7F8BE36A88*
G04*
G04*
G04 #@! TF.FilePolarity,Negative*
G04*
G01*
G75*
%ADD18R,0.08674X0.06312*%
%ADD19R,0.07099X0.04737*%
%ADD20R,0.01968X0.08268*%
G04:AMPARAMS|DCode=21|XSize=39.37mil|YSize=41.94mil|CornerRadius=5.51mil|HoleSize=0mil|Usage=FLASHONLY|Rotation=270.000|XOffset=0mil|YOffset=0mil|HoleType=Round|Shape=RoundedRectangle|*
%AMROUNDEDRECTD21*
21,1,0.03937,0.03091,0,0,270.0*
21,1,0.02835,0.04194,0,0,270.0*
1,1,0.01102,-0.01546,-0.01417*
1,1,0.01102,-0.01546,0.01417*
1,1,0.01102,0.01546,0.01417*
1,1,0.01102,0.01546,-0.01417*
%
%ADD21ROUNDEDRECTD21*%
%ADD22C,0.03800*%
G04:AMPARAMS|DCode=23|XSize=39.37mil|YSize=41.94mil|CornerRadius=5.51mil|HoleSize=0mil|Usage=FLASHONLY|Rotation=180.000|XOffset=0mil|YOffset=0mil|HoleType=Round|Shape=RoundedRectangle|*
%AMROUNDEDRECTD23*
21,1,0.03937,0.03091,0,0,180.0*
21,1,0.02835,0.04194,0,0,180.0*
1,1,0.01102,-0.01417,0.01546*
1,1,0.01102,0.01417,0.01546*
1,1,0.01102,0.01417,-0.01546*
1,1,0.01102,-0.01417,-0.01546*
%
%ADD23ROUNDEDRECTD23*%
%ADD24O,0.01902X0.04343*%
%ADD25O,0.04343X0.01902*%
%ADD26R,0.15367X0.15367*%
%ADD27R,0.05906X0.05118*%
G04:AMPARAMS|DCode=28|XSize=51.18mil|YSize=59.06mil|CornerRadius=11.42mil|HoleSize=0mil|Usage=FLASHONLY|Rotation=270.000|XOffset=0mil|YOffset=0mil|HoleType=Round|Shape=RoundedRectangle|*
%AMROUNDEDRECTD28*
21,1,0.05118,0.03622,0,0,270.0*
21,1,0.02835,0.05906,0,0,270.0*
1,1,0.02284,-0.01811,-0.01417*
1,1,0.02284,-0.01811,0.01417*
1,1,0.02284,0.01811,0.01417*
1,1,0.02284,0.01811,-0.01417*
%
%ADD28ROUNDEDRECTD28*%
G04:AMPARAMS|DCode=29|XSize=34.94mil|YSize=41.94mil|CornerRadius=9.72mil|HoleSize=0mil|Usage=FLASHONLY|Rotation=0.000|XOffset=0mil|YOffset=0mil|HoleType=Round|Shape=RoundedRectangle|*
%AMROUNDEDRECTD29*
21,1,0.03494,0.02250,0,0,0.0*
21,1,0.01550,0.04194,0,0,0.0*
1,1,0.01944,0.00775,-0.01125*
1,1,0.01944,-0.00775,-0.01125*
1,1,0.01944,-0.00775,0.01125*
1,1,0.01944,0.00775,0.01125*
%
%ADD29ROUNDEDRECTD29*%
G04:AMPARAMS|DCode=30|XSize=34.94mil|YSize=41.94mil|CornerRadius=9.72mil|HoleSize=0mil|Usage=FLASHONLY|Rotation=270.000|XOffset=0mil|YOffset=0mil|HoleType=Round|Shape=RoundedRectangle|*
%AMROUNDEDRECTD30*
21,1,0.03494,0.02250,0,0,270.0*
21,1,0.01550,0.04194,0,0,270.0*
1,1,0.01944,-0.01125,-0.00775*
1,1,0.01944,-0.01125,0.00775*
1,1,0.01944,0.01125,0.00775*
1,1,0.01944,0.01125,-0.00775*
%
%ADD30ROUNDEDRECTD30*%
G04:AMPARAMS|DCode=31|XSize=23.94mil|YSize=28.94mil|CornerRadius=6.97mil|HoleSize=0mil|Usage=FLASHONLY|Rotation=0.000|XOffset=0mil|YOffset=0mil|HoleType=Round|Shape=RoundedRectangle|*
%AMROUNDEDRECTD31*
21,1,0.02394,0.01500,0,0,0.0*
21,1,0.01000,0.02894,0,0,0.0*
1,1,0.01394,0.00500,-0.00750*
1,1,0.01394,-0.00500,-0.00750*
1,1,0.01394,-0.00500,0.00750*
1,1,0.01394,0.00500,0.00750*
%
%ADD31ROUNDEDRECTD31*%
G04:AMPARAMS|DCode=32|XSize=23.94mil|YSize=28.94mil|CornerRadius=6.97mil|HoleSize=0mil|Usage=FLASHONLY|Rotation=270.000|XOffset=0mil|YOffset=0mil|HoleType=Round|Shape=RoundedRectangle|*
%AMROUNDEDRECTD32*
21,1,0.02394,0.01500,0,0,270.0*
21,1,0.01000,0.02894,0,0,270.0*
1,1,0.01394,-0.00750,-0.00500*
1,1,0.01394,-0.00750,0.00500*
1,1,0.01394,0.00750,0.00500*
1,1,0.01394,0.00750,-0.00500*
%
%ADD32ROUNDEDRECTD32*%
%ADD33C,0.00800*%
%ADD34R,0.07493X0.07887*%
%ADD35O,0.07493X0.07887*%
D18*
X-12599Y42518D02*
D03*
X12599D02*
D03*
D19*
X12598Y33250D02*
D03*
X-12598D02*
D03*
D20*
X5120Y31082D02*
D03*
X2560D02*
D03*
X0D02*
D03*
X-2560D02*
D03*
X-5120D02*
D03*
D21*
X24317Y8794D02*
D03*
X30617Y8794D02*
D03*
X-25234Y11746D02*
D03*
X-31534Y11746D02*
D03*
Y785D02*
D03*
X-25234Y785D02*
D03*
X-31534Y6265D02*
D03*
X-25234Y6265D02*
D03*
D22*
X2646Y14905D02*
D03*
D23*
X-24426Y-20127D02*
D03*
X-24426Y-26427D02*
D03*
X-18455Y-20127D02*
D03*
X-18455Y-26427D02*
D03*
X-12484Y-20127D02*
D03*
X-12483Y-26427D02*
D03*
X-6513Y-20127D02*
D03*
X-6512Y-26427D02*
D03*
X-0Y-20127D02*
D03*
X-0Y-26427D02*
D03*
X5971Y-20127D02*
D03*
X5971Y-26427D02*
D03*
X11942Y-20127D02*
D03*
X11942Y-26427D02*
D03*
X17913Y-20127D02*
D03*
X17913Y-26427D02*
D03*
X-13484Y17355D02*
D03*
X-13484Y23655D02*
D03*
X-25234Y17355D02*
D03*
X-25234Y23655D02*
D03*
X-19359Y17355D02*
D03*
X-19359Y23655D02*
D03*
X-7609Y17255D02*
D03*
X-7609Y23555D02*
D03*
X-30397Y-26427D02*
D03*
X-30397Y-20127D02*
D03*
X23884Y-26427D02*
D03*
X23884Y-20127D02*
D03*
X14616Y17255D02*
D03*
X14616Y23555D02*
D03*
X20466Y17255D02*
D03*
X20466Y23555D02*
D03*
X-1734Y23555D02*
D03*
X-1734Y17255D02*
D03*
D24*
X-6209Y10041D02*
D03*
X-4239D02*
D03*
X-2269D02*
D03*
X-299D02*
D03*
X1661D02*
D03*
X3631D02*
D03*
X5601D02*
D03*
X7571D02*
D03*
Y-10040D02*
D03*
X5601D02*
D03*
X3631D02*
D03*
X1661D02*
D03*
X-299D02*
D03*
X-2269D02*
D03*
X-4239D02*
D03*
X-6209D02*
D03*
D25*
X10720Y6891D02*
D03*
Y4921D02*
D03*
Y2950D02*
D03*
Y981D02*
D03*
Y-979D02*
D03*
Y-2950D02*
D03*
Y-4919D02*
D03*
Y-6889D02*
D03*
X-9360D02*
D03*
Y-4919D02*
D03*
Y-2950D02*
D03*
Y-979D02*
D03*
Y981D02*
D03*
Y2950D02*
D03*
Y4921D02*
D03*
Y6891D02*
D03*
D26*
X681Y0D02*
D03*
D27*
X31797Y-2846D02*
D03*
D28*
X23135D02*
D03*
Y-9145D02*
D03*
X31797D02*
D03*
D29*
X8766Y23555D02*
D03*
Y17255D02*
D03*
D30*
X-15084Y-3595D02*
D03*
X-21384D02*
D03*
D31*
X17161Y-7964D02*
D03*
Y-4027D02*
D03*
D32*
X25498Y3705D02*
D03*
X29435D02*
D03*
D33*
X-7873Y34052D02*
D03*
X7875D02*
D03*
D34*
X-30000Y-35433D02*
D03*
D35*
Y-45433D02*
D03*
X-20000Y-35433D02*
D03*
Y-45433D02*
D03*
X-10000Y-35433D02*
D03*
Y-45433D02*
D03*
X0Y-35433D02*
D03*
Y-45433D02*
D03*
X10000Y-35433D02*
D03*
Y-45433D02*
D03*
X20000Y-35433D02*
D03*
Y-45433D02*
D03*
X30000Y-35433D02*
D03*
Y-45433D02*
D03*
M02*
