M48
;Layer_Color=9474304
;FILE_FORMAT=2:5
INCH,TZ
;TYPE=PLATED
T1F00S00C0.01181
T2F00S00C0.03543
;TYPE=NON_PLATED
T3F00S00C0.02165
%
T01
X-18455Y-26427
X-24934Y-3595
X-31730
X-31534Y21255
X-7609Y23555
X5601Y23555
X14616
X20466
X29117Y22155
Y25155
X5601Y13240
X7087Y0
X5120Y38956
Y41892
X2560Y43892
X0Y38956
T02
X-30000Y-45433
Y-35433
X-20000
Y-45433
X-10000
Y-35433
X0
Y-45433
X10000
Y-35433
X20000
Y-45433
X30000
Y-35433
T03
X-7873Y34052
X7875
M30
