M48
INCH
T01C00.010
T02C00.126
%
M70
T01
X03055Y05533
X04876Y06195
X04876Y06250
X04955Y06195
X04955Y06250
X04979Y05722
X05034Y06104
X05034Y06195
X05034Y06250
X05113Y06195
X05113Y06250
X05152Y04061
X05191Y06195
X05191Y06250
X05270Y06195
X05270Y06250
X05349Y06195
X05349Y06250
X07170Y05533
T02
X02711Y03699
X02711Y06297
X07514Y03699
X07514Y06297
M30
