G04 GENERATED BY PULSONIX 7.0 GERBER.DLL 4573*
%INHILLSTAR_100X50_EL_V1_0*%
%LNGERBER_TOP*%
%FSLAX33Y33*%
%IPPOS*%
%LPD*%
%OFA0B0*%
%MOMM*%
%ADD15C,0.125*%
%ADD180C,0.600*%
%ADD345C,0.150*%
X0Y0D02*
D02*
D15*
X183926Y91545D02*
X183926Y92427D01*
X183559D02*
X184294Y92427D01*
X184571Y91839D02*
X184571Y92133D01*
X184645Y92280*
X184718Y92354*
X184865Y92427*
X185012*
X185159Y92354*
X185233Y92280*
X185307Y92133*
Y91839*
X185233Y91692*
X185159Y91619*
X185012Y91545*
X184865*
X184718Y91619*
X184645Y91692*
X184571Y91839*
X185584Y91545D02*
X185584Y92427D01*
X186098*
X186245Y92354*
X186319Y92207*
X186245Y92060*
X186098Y91986*
X185584*
D02*
D180*
X77609Y140540D03*
X123859Y157350D03*
Y158750D03*
X125859Y157350D03*
Y158750D03*
X126459Y145350D03*
X127859Y155040D03*
Y157350D03*
Y158750D03*
X129859Y157350D03*
Y158750D03*
X130859Y103160D03*
X131859Y157350D03*
Y158750D03*
X133859Y157350D03*
Y158750D03*
X135859Y157350D03*
Y158750D03*
X182109Y140540D03*
D02*
D345*
X76059Y155350D02*
X75059D01*
G75*
G03X73059Y153350J-2000*
G01*
Y100550*
G75*
G03X75059Y98550I2000*
G01*
X76059*
G75*
G03X78059Y100550J2000*
G01*
Y153350*
G75*
G03X76059Y155350I-2000*
G01*
G36*
X75059*
G75*
G03X73059Y153350J-2000*
G01*
Y100550*
G75*
G03X75059Y98550I2000*
G01*
X76059*
G75*
G03X78059Y100550J2000*
G01*
Y153350*
G75*
G03X76059Y155350I-2000*
G01*
G37*
X80059Y101550D02*
Y100550D01*
G75*
G03X82059Y98550I2000*
G01*
X177659*
G75*
G03X179659Y100550J2000*
G01*
Y101550*
G75*
G03X177659Y103550I-2000*
G01*
X82059*
G75*
G03X80059Y101550J-2000*
G01*
G36*
Y100550*
G75*
G03X82059Y98550I2000*
G01*
X177659*
G75*
G03X179659Y100550J2000*
G01*
Y101550*
G75*
G03X177659Y103550I-2000*
G01*
X82059*
G75*
G03X80059Y101550J-2000*
G01*
G37*
Y153350D02*
Y152350D01*
G75*
G03X82059Y150350I2000*
G01*
X177659*
G75*
G03X179659Y152350J2000*
G01*
Y153350*
G75*
G03X177659Y155350I-2000*
G01*
X82059*
G75*
G03X80059Y153350J-2000*
G01*
G36*
Y152350*
G75*
G03X82059Y150350I2000*
G01*
X177659*
G75*
G03X179659Y152350J2000*
G01*
Y153350*
G75*
G03X177659Y155350I-2000*
G01*
X82059*
G75*
G03X80059Y153350J-2000*
G01*
G37*
X85059Y145350D02*
G75*
G03X83059Y143350J-2000D01*
G01*
Y110550*
G75*
G03X85059Y108550I2000*
G01*
X174659*
G75*
G03X176659Y110550J2000*
G01*
Y143350*
G75*
G03X174659Y145350I-2000*
G01*
X85059*
X170104Y108550D02*
X176659Y115105D01*
X161726Y108550D02*
X176659Y123482D01*
X153348Y108550D02*
X176659Y131860D01*
X144970Y108550D02*
X176659Y140238D01*
X136592Y108550D02*
X173392Y145350D01*
X128214Y108550D02*
X165014Y145350D01*
X119837Y108550D02*
X156637Y145350D01*
X111459Y108550D02*
X148259Y145350D01*
X103081Y108550D02*
X139881Y145350D01*
X94703Y108550D02*
X131503Y145350D01*
X86325Y108550D02*
X123125Y145350D01*
X83059Y113661D02*
X114747Y145350D01*
X83059Y122039D02*
X106369Y145350D01*
X83059Y130417D02*
X97992Y145350D01*
X83059Y138794D02*
X89614Y145350D01*
Y108550D02*
X83059Y115105D01*
X97992Y108550D02*
X83059Y123482D01*
X106369Y108550D02*
X83059Y131860D01*
X114747Y108550D02*
X83059Y140238D01*
X123125Y108550D02*
X86325Y145350D01*
X131503Y108550D02*
X94703Y145350D01*
X139881Y108550D02*
X103081Y145350D01*
X148259Y108550D02*
X111459Y145350D01*
X156637Y108550D02*
X119837Y145350D01*
X165014Y108550D02*
X128214Y145350D01*
X173392Y108550D02*
X136592Y145350D01*
X176659Y113661D02*
X144970Y145350D01*
X176659Y122039D02*
X153348Y145350D01*
X176659Y130417D02*
X161726Y145350D01*
X176659Y138794D02*
X170104Y145350D01*
X181659Y153350D02*
Y100550D01*
G75*
G03X183659Y98550I2000*
G01*
X184659*
G75*
G03X186659Y100550J2000*
G01*
Y153350*
G75*
G03X184659Y155350I-2000*
G01*
X183659*
G75*
G03X181659Y153350J-2000*
G01*
G36*
Y100550*
G75*
G03X183659Y98550I2000*
G01*
X184659*
G75*
G03X186659Y100550J2000*
G01*
Y153350*
G75*
G03X184659Y155350I-2000*
G01*
X183659*
G75*
G03X181659Y153350J-2000*
G01*
G37*
X0Y0D02*
M02*
