G04 GENERATED BY PULSONIX 7.0 GERBER.DLL 4573*
%INHILLSTAR_100X50_EL_V1_0*%
%LNGERBER_BOTTOM*%
%FSLAX33Y33*%
%IPPOS*%
%LPD*%
%OFA0B0*%
%MOMM*%
%ADD15C,0.125*%
%ADD145C,0.400*%
%ADD146C,0.250*%
%ADD180C,0.600*%
%ADD345C,0.150*%
%ADD403R,0.600X1.900*%
%ADD410R,2.700X3.600*%
%ADD5672R,0.900X2.500*%
X0Y0D02*
D02*
D15*
X185982Y91986D02*
X185834Y91913D01*
X185761Y91766*
X185834Y91619*
X185982Y91545*
X186496*
Y92427*
X185982*
X185834Y92354*
X185761Y92207*
X185834Y92060*
X185982Y91986*
X186496*
X185484Y91839D02*
X185484Y92133D01*
X185410Y92280*
X185337Y92354*
X185190Y92427*
X185043*
X184895Y92354*
X184822Y92280*
X184748Y92133*
Y91839*
X184822Y91692*
X184895Y91619*
X185043Y91545*
X185190*
X185337Y91619*
X185410Y91692*
X185484Y91839*
X184104Y91545D02*
X184104Y92427D01*
X184471D02*
X183736Y92427D01*
D02*
D145*
X129859Y147190D02*
Y146590D01*
Y148690D02*
Y149290D01*
Y157000D02*
Y156400D01*
Y159100D02*
Y159700D01*
D02*
D146*
X66559Y155950D02*
Y97950D01*
X68859*
G75*
G02X72859Y93950J-4000*
G01*
Y91650*
X183059*
Y92975*
G75*
G02X183259Y93175I200*
G01*
X186859*
Y93950*
G75*
G02X190859Y97950I4000*
G01*
X193159*
Y155950*
X190859*
G75*
G02X186859Y159950J4000*
G01*
Y162250*
X72859*
Y159950*
G75*
G02X68859Y155950I-4000*
G01*
X66559*
X78112Y140090D02*
G75*
G02X76934Y140540I-503J450D01*
G01*
G75*
G02X78112Y140990I675*
G01*
X83059*
Y143350*
G75*
G02X85059Y145350I2000*
G01*
X125784*
G75*
G02X126009Y145853I675*
G01*
Y147540*
G75*
G02X126141Y147858I450*
G01*
X126184Y147901*
Y148890*
G75*
G02X126409Y149233I374*
G01*
Y151953*
X125834Y152528*
Y148940*
G75*
G02X125209Y148315I-625*
G01*
X122509*
G75*
G02X121884Y148940J625*
G01*
Y152540*
G75*
G02X122509Y153165I625*
G01*
X125197*
X123513Y154849*
G75*
G02X123381Y155168I319J319*
G01*
Y156426*
G75*
G02X123034Y156800I28J374*
G01*
Y159300*
G75*
G02X123409Y159675I375*
G01*
X124309*
G75*
G02X124684Y159300J-375*
G01*
Y156800*
G75*
G02X124309Y156425I-375*
G01*
X124281*
Y155354*
X127177Y152458*
G75*
G02X127309Y152140I-318J-318*
G01*
Y149233*
G75*
G02X127359Y149207I-147J-343*
G01*
G75*
G02X127409Y149233I197J-317*
G01*
Y152953*
X125541Y154821*
G75*
G02X125409Y155140I319J319*
G01*
Y156425*
G75*
G02X125034Y156800J375*
G01*
Y159300*
G75*
G02X125409Y159675I375*
G01*
X126309*
G75*
G02X126684Y159300J-375*
G01*
Y156800*
G75*
G02X126309Y156425I-375*
G01*
Y155326*
X128177Y153458*
G75*
G02X128309Y153140I-318J-318*
G01*
Y149233*
G75*
G02X128359Y149207I-147J-343*
G01*
G75*
G02X128409Y149233I197J-317*
G01*
Y153853*
X127896Y154366*
G75*
G02X127409Y155543I-37J674*
G01*
Y156425*
G75*
G02X127034Y156800J375*
G01*
Y159300*
G75*
G02X127409Y159675I375*
G01*
X128309*
G75*
G02X128684Y159300J-375*
G01*
Y156800*
G75*
G02X128309Y156425I-375*
G01*
Y155543*
G75*
G02X128533Y155002I-450J-503*
G01*
X129177Y154358*
G75*
G02X129309Y154040I-318J-318*
G01*
Y149233*
G75*
G02X129402Y149174I-151J-341*
G01*
G75*
G02X129559Y149215I159J-286*
G01*
X130159*
G75*
G02X130315Y149174I-2J-325*
G01*
G75*
G02X130401Y149230I247J-285*
G01*
Y154140*
G75*
G02X130535Y154463I457*
G01*
X131401Y155329*
Y156425*
G75*
G02X131034Y156800I8J375*
G01*
Y159300*
G75*
G02X131409Y159675I375*
G01*
X132309*
G75*
G02X132684Y159300J-375*
G01*
Y156800*
G75*
G02X132317Y156425I-375*
G01*
Y155140*
G75*
G02X132183Y154816I-458*
G01*
X131317Y153950*
Y149230*
G75*
G02X131359Y149207I-159J-340*
G01*
G75*
G02X131409Y149233I197J-317*
G01*
Y153140*
G75*
G02X131541Y153458I450*
G01*
X133409Y155326*
Y156425*
G75*
G02X133034Y156800J375*
G01*
Y159300*
G75*
G02X133409Y159675I375*
G01*
X134309*
G75*
G02X134684Y159300J-375*
G01*
Y156800*
G75*
G02X134309Y156425I-375*
G01*
Y155140*
G75*
G02X134177Y154821I-451*
G01*
X132309Y152953*
Y149233*
G75*
G02X132402Y149174I-151J-341*
G01*
G75*
G02X132559Y149215I159J-286*
G01*
X133159*
G75*
G02X133484Y148890J-325*
G01*
Y146990*
G75*
G02X133159Y146665I-325*
G01*
X132559*
G75*
G02X132402Y146705J326*
G01*
G75*
G02X132309Y146646I-244J282*
G01*
Y145350*
X174659*
G75*
G02X176659Y143350J-2000*
G01*
Y140990*
X181606*
G75*
G02X182784Y140540I503J-450*
G01*
G75*
G02X181606Y140090I-675*
G01*
X176659*
Y110550*
G75*
G02X174659Y108550I-2000*
G01*
X131317*
Y103655*
G75*
G02X131534Y103160I-457J-495*
G01*
G75*
G02X130184I-675*
G01*
G75*
G02X130401Y103655I674*
G01*
Y108550*
X85059*
G75*
G02X83059Y110550J2000*
G01*
Y140090*
X78112*
X129084Y156800D02*
Y159300D01*
G75*
G02X129409Y159625I325*
G01*
X130309*
G75*
G02X130634Y159300J-325*
G01*
Y156800*
G75*
G02X130309Y156475I-325*
G01*
X129409*
G75*
G02X129084Y156800J325*
G01*
X133884Y148940D02*
Y152540D01*
G75*
G02X134509Y153165I625*
G01*
X137209*
G75*
G02X137834Y152540J-625*
G01*
Y148940*
G75*
G02X137209Y148315I-625*
G01*
X134509*
G75*
G02X133884Y148940J625*
G01*
X135084Y156800D02*
Y159300D01*
G75*
G02X135409Y159625I325*
G01*
X136309*
G75*
G02X136634Y159300J-325*
G01*
Y156800*
G75*
G02X136309Y156475I-325*
G01*
X135409*
G75*
G02X135084Y156800J325*
G01*
X72859Y93797D02*
X186859D01*
X72189Y96165D02*
X187528D01*
X66559Y98533D02*
X193159D01*
X66559Y100901D02*
X193159D01*
X66559Y103269D02*
X130193D01*
X131525D02*
X193159D01*
X66559Y105637D02*
X130401D01*
X131317D02*
X193159D01*
X66559Y108005D02*
X130401D01*
X131317D02*
X193159D01*
X66559Y110373D02*
X83067D01*
X176651D02*
X193159D01*
X66559Y112741D02*
X83059D01*
X176659D02*
X193159D01*
X66559Y115109D02*
X83059D01*
X176659D02*
X193159D01*
X66559Y117477D02*
X83059D01*
X176659D02*
X193159D01*
X66559Y119845D02*
X83059D01*
X176659D02*
X193159D01*
X66559Y122213D02*
X83059D01*
X176659D02*
X193159D01*
X66559Y124581D02*
X83059D01*
X176659D02*
X193159D01*
X66559Y126950D02*
X83059D01*
X176659D02*
X193159D01*
X66559Y129318D02*
X83059D01*
X176659D02*
X193159D01*
X66559Y131686D02*
X83059D01*
X176659D02*
X193159D01*
X66559Y134054D02*
X83059D01*
X176659D02*
X193159D01*
X66559Y136422D02*
X83059D01*
X176659D02*
X193159D01*
X66559Y138790D02*
X83059D01*
X176659D02*
X193159D01*
X66559Y141158D02*
X77338D01*
X77880D02*
X83059D01*
X176659D02*
X181838D01*
X182380D02*
X193159D01*
X66559Y143526D02*
X83067D01*
X176651D02*
X193159D01*
X66559Y145894D02*
X126009D01*
X132309D02*
X193159D01*
X66559Y148262D02*
X126184D01*
X133484D02*
X193159D01*
X66559Y150630D02*
X121884D01*
X125834D02*
X126409D01*
X127309D02*
X127409D01*
X128309D02*
X128409D01*
X129309D02*
X130401D01*
X131317D02*
X131409D01*
X132309D02*
X133884D01*
X137834D02*
X193159D01*
X66559Y152998D02*
X122084D01*
X126637D02*
X127364D01*
X128309D02*
X128409D01*
X129309D02*
X130401D01*
X131317D02*
X131409D01*
X132353D02*
X134084D01*
X137634D02*
X193159D01*
X66559Y155366D02*
X123381D01*
X124281D02*
X125409D01*
X126309D02*
X127268D01*
X128450D02*
X131401D01*
X132317D02*
X133409D01*
X134309D02*
X193159D01*
X72189Y157734D02*
X123034D01*
X124684D02*
X125034D01*
X126684D02*
X127034D01*
X128684D02*
X129084D01*
X130634D02*
X131034D01*
X132684D02*
X133034D01*
X134684D02*
X135084D01*
X136634D02*
X187528D01*
X72859Y160102D02*
X186859D01*
X68290Y97950D02*
Y155950D01*
X70658Y97522D02*
Y156377D01*
X73026Y91650D02*
Y162250D01*
X75394Y91650D02*
Y162250D01*
X77762Y91650D02*
Y139882D01*
Y141197D02*
Y162250D01*
X80130Y91650D02*
Y140090D01*
Y140990D02*
Y162250D01*
X82498Y91650D02*
Y140090D01*
Y140990D02*
Y162250D01*
X84866Y91650D02*
Y108559D01*
Y145340D02*
Y162250D01*
X87234Y91650D02*
Y108550D01*
Y145350D02*
Y162250D01*
X89602Y91650D02*
Y108550D01*
Y145350D02*
Y162250D01*
X91970Y91650D02*
Y108550D01*
Y145350D02*
Y162250D01*
X94338Y91650D02*
Y108550D01*
Y145350D02*
Y162250D01*
X96706Y91650D02*
Y108550D01*
Y145350D02*
Y162250D01*
X99074Y91650D02*
Y108550D01*
Y145350D02*
Y162250D01*
X101442Y91650D02*
Y108550D01*
Y145350D02*
Y162250D01*
X103810Y91650D02*
Y108550D01*
Y145350D02*
Y162250D01*
X106178Y91650D02*
Y108550D01*
Y145350D02*
Y162250D01*
X108546Y91650D02*
Y108550D01*
Y145350D02*
Y162250D01*
X110914Y91650D02*
Y108550D01*
Y145350D02*
Y162250D01*
X113283Y91650D02*
Y108550D01*
Y145350D02*
Y162250D01*
X115651Y91650D02*
Y108550D01*
Y145350D02*
Y162250D01*
X118019Y91650D02*
Y108550D01*
Y145350D02*
Y162250D01*
X120387Y91650D02*
Y108550D01*
Y145350D02*
Y162250D01*
X122755Y91650D02*
Y108550D01*
Y145350D02*
Y148315D01*
Y153165D02*
Y162250D01*
X125123Y91650D02*
Y108550D01*
Y145350D02*
Y148315D01*
Y153165D02*
Y153239D01*
Y154512D02*
Y156557D01*
Y159542D02*
Y162250D01*
X127491Y91650D02*
Y108550D01*
Y154144D02*
Y154474D01*
Y159675D02*
Y162250D01*
X129859Y91650D02*
Y108550D01*
Y149215D02*
Y156475D01*
Y159625D02*
Y162250D01*
X132227Y91650D02*
Y108550D01*
Y154144D02*
Y154867D01*
Y159675D02*
Y162250D01*
X134595Y91650D02*
Y108550D01*
Y145350D02*
Y148315D01*
Y153165D02*
Y156557D01*
Y159542D02*
Y162250D01*
X136963Y91650D02*
Y108550D01*
Y145350D02*
Y148315D01*
Y153165D02*
Y162250D01*
X139331Y91650D02*
Y108550D01*
Y145350D02*
Y162250D01*
X141699Y91650D02*
Y108550D01*
Y145350D02*
Y162250D01*
X144067Y91650D02*
Y108550D01*
Y145350D02*
Y162250D01*
X146435Y91650D02*
Y108550D01*
Y145350D02*
Y162250D01*
X148803Y91650D02*
Y108550D01*
Y145350D02*
Y162250D01*
X151171Y91650D02*
Y108550D01*
Y145350D02*
Y162250D01*
X153539Y91650D02*
Y108550D01*
Y145350D02*
Y162250D01*
X155907Y91650D02*
Y108550D01*
Y145350D02*
Y162250D01*
X158275Y91650D02*
Y108550D01*
Y145350D02*
Y162250D01*
X160643Y91650D02*
Y108550D01*
Y145350D02*
Y162250D01*
X163011Y91650D02*
Y108550D01*
Y145350D02*
Y162250D01*
X165379Y91650D02*
Y108550D01*
Y145350D02*
Y162250D01*
X167747Y91650D02*
Y108550D01*
Y145350D02*
Y162250D01*
X170115Y91650D02*
Y108550D01*
Y145350D02*
Y162250D01*
X172483Y91650D02*
Y108550D01*
Y145350D02*
Y162250D01*
X174851Y91650D02*
Y108559D01*
Y145340D02*
Y162250D01*
X177219Y91650D02*
Y140090D01*
Y140990D02*
Y162250D01*
X179587Y91650D02*
Y140090D01*
Y140990D02*
Y162250D01*
X181955Y91650D02*
Y139882D01*
Y141197D02*
Y162250D01*
X184323Y93175D02*
Y162250D01*
X186691Y93175D02*
Y162250D01*
X189059Y97522D02*
Y156377D01*
X191428Y97950D02*
Y155950D01*
X83059Y140090D02*
Y110550D01*
G75*
G03X85059Y108550I2000*
G01*
X130401*
Y146649*
G75*
G02X130315Y146705I161J341*
G01*
G75*
G02X130159Y146665I-156J285*
G01*
X129559*
G75*
G02X129402Y146705J326*
G01*
G75*
G02X129159Y146615I-243J284*
G01*
X128559*
G75*
G02X128359Y146672I-1J375*
G01*
G75*
G02X128309Y146646I-197J317*
G01*
Y142140*
G75*
G02X128177Y141821I-451*
G01*
X126577Y140221*
G75*
G02X126259Y140090I-317J318*
G01*
X83059*
X83764Y109025D02*
X130401D01*
X83175Y109879D02*
X130401D01*
X83059Y110732D02*
X130401D01*
X83059Y111586D02*
X130401D01*
X83059Y112439D02*
X130401D01*
X83059Y113293D02*
X130401D01*
X83059Y114146D02*
X130401D01*
X83059Y115000D02*
X130401D01*
X83059Y115853D02*
X130401D01*
X83059Y116707D02*
X130401D01*
X83059Y117560D02*
X130401D01*
X83059Y118414D02*
X130401D01*
X83059Y119268D02*
X130401D01*
X83059Y120121D02*
X130401D01*
X83059Y120975D02*
X130401D01*
X83059Y121828D02*
X130401D01*
X83059Y122682D02*
X130401D01*
X83059Y123535D02*
X130401D01*
X83059Y124389D02*
X130401D01*
X83059Y125242D02*
X130401D01*
X83059Y126096D02*
X130401D01*
X83059Y126950D02*
X130401D01*
X83059Y127803D02*
X130401D01*
X83059Y128657D02*
X130401D01*
X83059Y129510D02*
X130401D01*
X83059Y130364D02*
X130401D01*
X83059Y131217D02*
X130401D01*
X83059Y132071D02*
X130401D01*
X83059Y132924D02*
X130401D01*
X83059Y133778D02*
X130401D01*
X83059Y134631D02*
X130401D01*
X83059Y135485D02*
X130401D01*
X83059Y136339D02*
X130401D01*
X83059Y137192D02*
X130401D01*
X83059Y138046D02*
X130401D01*
X83059Y138899D02*
X130401D01*
X83059Y139753D02*
X130401D01*
X126962Y140606D02*
X130401D01*
X127815Y141460D02*
X130401D01*
X128309Y142313D02*
X130401D01*
X128309Y143167D02*
X130401D01*
X128309Y144021D02*
X130401D01*
X128309Y144874D02*
X130401D01*
X128309Y145728D02*
X130401D01*
X128309Y146581D02*
X130401D01*
X83767Y109023D02*
Y140090D01*
X84621Y108598D02*
Y140090D01*
X85474Y108550D02*
Y140090D01*
X86328Y108550D02*
Y140090D01*
X87181Y108550D02*
Y140090D01*
X88035Y108550D02*
Y140090D01*
X88888Y108550D02*
Y140090D01*
X89742Y108550D02*
Y140090D01*
X90595Y108550D02*
Y140090D01*
X91449Y108550D02*
Y140090D01*
X92303Y108550D02*
Y140090D01*
X93156Y108550D02*
Y140090D01*
X94010Y108550D02*
Y140090D01*
X94863Y108550D02*
Y140090D01*
X95717Y108550D02*
Y140090D01*
X96570Y108550D02*
Y140090D01*
X97424Y108550D02*
Y140090D01*
X98277Y108550D02*
Y140090D01*
X99131Y108550D02*
Y140090D01*
X99984Y108550D02*
Y140090D01*
X100838Y108550D02*
Y140090D01*
X101692Y108550D02*
Y140090D01*
X102545Y108550D02*
Y140090D01*
X103399Y108550D02*
Y140090D01*
X104252Y108550D02*
Y140090D01*
X105106Y108550D02*
Y140090D01*
X105959Y108550D02*
Y140090D01*
X106813Y108550D02*
Y140090D01*
X107666Y108550D02*
Y140090D01*
X108520Y108550D02*
Y140090D01*
X109374Y108550D02*
Y140090D01*
X110227Y108550D02*
Y140090D01*
X111081Y108550D02*
Y140090D01*
X111934Y108550D02*
Y140090D01*
X112788Y108550D02*
Y140090D01*
X113641Y108550D02*
Y140090D01*
X114495Y108550D02*
Y140090D01*
X115348Y108550D02*
Y140090D01*
X116202Y108550D02*
Y140090D01*
X117055Y108550D02*
Y140090D01*
X117909Y108550D02*
Y140090D01*
X118763Y108550D02*
Y140090D01*
X119616Y108550D02*
Y140090D01*
X120470Y108550D02*
Y140090D01*
X121323Y108550D02*
Y140090D01*
X122177Y108550D02*
Y140090D01*
X123030Y108550D02*
Y140090D01*
X123884Y108550D02*
Y140090D01*
X124737Y108550D02*
Y140090D01*
X125591Y108550D02*
Y140090D01*
X126445Y108550D02*
Y140130D01*
X127298Y108550D02*
Y140942D01*
X128152Y108550D02*
Y141796D01*
X129005Y108550D02*
Y146615D01*
X129859Y108550D02*
Y146665D01*
X83059Y140990D02*
X126072D01*
X127409Y142326*
Y146646*
G75*
G02X127359Y146672I147J343*
G01*
G75*
G02X127159Y146615I-199J318*
G01*
X126909*
Y145853*
G75*
G02X127134Y145350I-450J-503*
G01*
G75*
G02X125784I-675*
G01*
X85059*
G75*
G03X83059Y143350J-2000*
G01*
Y140990*
Y141460D02*
X126543D01*
X83059Y142313D02*
X127396D01*
X83059Y143167D02*
X127409D01*
X83175Y144021D02*
X127409D01*
X83764Y144874D02*
X125980D01*
X126938D02*
X127409D01*
X127018Y145728D02*
X127409D01*
X126909Y146581D02*
X127409D01*
X83767Y140990D02*
Y144876D01*
X84621Y140990D02*
Y145301D01*
X85474Y140990D02*
Y145350D01*
X86328Y140990D02*
Y145350D01*
X87181Y140990D02*
Y145350D01*
X88035Y140990D02*
Y145350D01*
X88888Y140990D02*
Y145350D01*
X89742Y140990D02*
Y145350D01*
X90595Y140990D02*
Y145350D01*
X91449Y140990D02*
Y145350D01*
X92303Y140990D02*
Y145350D01*
X93156Y140990D02*
Y145350D01*
X94010Y140990D02*
Y145350D01*
X94863Y140990D02*
Y145350D01*
X95717Y140990D02*
Y145350D01*
X96570Y140990D02*
Y145350D01*
X97424Y140990D02*
Y145350D01*
X98277Y140990D02*
Y145350D01*
X99131Y140990D02*
Y145350D01*
X99984Y140990D02*
Y145350D01*
X100838Y140990D02*
Y145350D01*
X101692Y140990D02*
Y145350D01*
X102545Y140990D02*
Y145350D01*
X103399Y140990D02*
Y145350D01*
X104252Y140990D02*
Y145350D01*
X105106Y140990D02*
Y145350D01*
X105959Y140990D02*
Y145350D01*
X106813Y140990D02*
Y145350D01*
X107666Y140990D02*
Y145350D01*
X108520Y140990D02*
Y145350D01*
X109374Y140990D02*
Y145350D01*
X110227Y140990D02*
Y145350D01*
X111081Y140990D02*
Y145350D01*
X111934Y140990D02*
Y145350D01*
X112788Y140990D02*
Y145350D01*
X113641Y140990D02*
Y145350D01*
X114495Y140990D02*
Y145350D01*
X115348Y140990D02*
Y145350D01*
X116202Y140990D02*
Y145350D01*
X117055Y140990D02*
Y145350D01*
X117909Y140990D02*
Y145350D01*
X118763Y140990D02*
Y145350D01*
X119616Y140990D02*
Y145350D01*
X120470Y140990D02*
Y145350D01*
X121323Y140990D02*
Y145350D01*
X122177Y140990D02*
Y145350D01*
X123030Y140990D02*
Y145350D01*
X123884Y140990D02*
Y145350D01*
X124737Y140990D02*
Y145350D01*
X125591Y140990D02*
Y145350D01*
X126445Y141362D02*
Y144675D01*
X127298Y142215D02*
Y146641D01*
X131317Y108550D02*
X174659D01*
G75*
G03X176659Y110550J2000*
G01*
Y140090*
X133459*
G75*
G02X133141Y140221I-1J449*
G01*
X131541Y141821*
G75*
G02X131409Y142140I319J319*
G01*
Y146646*
G75*
G02X131359Y146672I147J343*
G01*
G75*
G02X131317Y146649I-201J317*
G01*
Y108550*
Y109025D02*
X175953D01*
X131317Y109879D02*
X176543D01*
X131317Y110732D02*
X176659D01*
X131317Y111586D02*
X176659D01*
X131317Y112439D02*
X176659D01*
X131317Y113293D02*
X176659D01*
X131317Y114146D02*
X176659D01*
X131317Y115000D02*
X176659D01*
X131317Y115853D02*
X176659D01*
X131317Y116707D02*
X176659D01*
X131317Y117560D02*
X176659D01*
X131317Y118414D02*
X176659D01*
X131317Y119268D02*
X176659D01*
X131317Y120121D02*
X176659D01*
X131317Y120975D02*
X176659D01*
X131317Y121828D02*
X176659D01*
X131317Y122682D02*
X176659D01*
X131317Y123535D02*
X176659D01*
X131317Y124389D02*
X176659D01*
X131317Y125242D02*
X176659D01*
X131317Y126096D02*
X176659D01*
X131317Y126950D02*
X176659D01*
X131317Y127803D02*
X176659D01*
X131317Y128657D02*
X176659D01*
X131317Y129510D02*
X176659D01*
X131317Y130364D02*
X176659D01*
X131317Y131217D02*
X176659D01*
X131317Y132071D02*
X176659D01*
X131317Y132924D02*
X176659D01*
X131317Y133778D02*
X176659D01*
X131317Y134631D02*
X176659D01*
X131317Y135485D02*
X176659D01*
X131317Y136339D02*
X176659D01*
X131317Y137192D02*
X176659D01*
X131317Y138046D02*
X176659D01*
X131317Y138899D02*
X176659D01*
X131317Y139753D02*
X176659D01*
X131317Y140606D02*
X132756D01*
X131317Y141460D02*
X131902D01*
X131317Y142313D02*
X131409D01*
X131317Y143167D02*
X131409D01*
X131317Y144021D02*
X131409D01*
X131317Y144874D02*
X131409D01*
X131317Y145728D02*
X131409D01*
X131317Y146581D02*
X131409D01*
X131566Y108550D02*
Y141796D01*
X132419Y108550D02*
Y140942D01*
X133273Y108550D02*
Y140130D01*
X134126Y108550D02*
Y140090D01*
X134980Y108550D02*
Y140090D01*
X135834Y108550D02*
Y140090D01*
X136687Y108550D02*
Y140090D01*
X137541Y108550D02*
Y140090D01*
X138394Y108550D02*
Y140090D01*
X139248Y108550D02*
Y140090D01*
X140101Y108550D02*
Y140090D01*
X140955Y108550D02*
Y140090D01*
X141808Y108550D02*
Y140090D01*
X142662Y108550D02*
Y140090D01*
X143516Y108550D02*
Y140090D01*
X144369Y108550D02*
Y140090D01*
X145223Y108550D02*
Y140090D01*
X146076Y108550D02*
Y140090D01*
X146930Y108550D02*
Y140090D01*
X147783Y108550D02*
Y140090D01*
X148637Y108550D02*
Y140090D01*
X149490Y108550D02*
Y140090D01*
X150344Y108550D02*
Y140090D01*
X151197Y108550D02*
Y140090D01*
X152051Y108550D02*
Y140090D01*
X152905Y108550D02*
Y140090D01*
X153758Y108550D02*
Y140090D01*
X154612Y108550D02*
Y140090D01*
X155465Y108550D02*
Y140090D01*
X156319Y108550D02*
Y140090D01*
X157172Y108550D02*
Y140090D01*
X158026Y108550D02*
Y140090D01*
X158879Y108550D02*
Y140090D01*
X159733Y108550D02*
Y140090D01*
X160587Y108550D02*
Y140090D01*
X161440Y108550D02*
Y140090D01*
X162294Y108550D02*
Y140090D01*
X163147Y108550D02*
Y140090D01*
X164001Y108550D02*
Y140090D01*
X164854Y108550D02*
Y140090D01*
X165708Y108550D02*
Y140090D01*
X166561Y108550D02*
Y140090D01*
X167415Y108550D02*
Y140090D01*
X168268Y108550D02*
Y140090D01*
X169122Y108550D02*
Y140090D01*
X169976Y108550D02*
Y140090D01*
X170829Y108550D02*
Y140090D01*
X171683Y108550D02*
Y140090D01*
X172536Y108550D02*
Y140090D01*
X173390Y108550D02*
Y140090D01*
X174243Y108550D02*
Y140090D01*
X175097Y108598D02*
Y140090D01*
X175950Y109023D02*
Y140090D01*
X132309Y145350D02*
Y142326D01*
X133645Y140990*
X176659*
Y143350*
G75*
G03X174659Y145350I-2000*
G01*
X132309*
X133175Y141460D02*
X176659D01*
X132321Y142313D02*
X176659D01*
X132309Y143167D02*
X176659D01*
X132309Y144021D02*
X176543D01*
X132309Y144874D02*
X175953D01*
X132419Y142215D02*
Y145350D01*
X133273Y141362D02*
Y145350D01*
X134126Y140990D02*
Y145350D01*
X134980Y140990D02*
Y145350D01*
X135834Y140990D02*
Y145350D01*
X136687Y140990D02*
Y145350D01*
X137541Y140990D02*
Y145350D01*
X138394Y140990D02*
Y145350D01*
X139248Y140990D02*
Y145350D01*
X140101Y140990D02*
Y145350D01*
X140955Y140990D02*
Y145350D01*
X141808Y140990D02*
Y145350D01*
X142662Y140990D02*
Y145350D01*
X143516Y140990D02*
Y145350D01*
X144369Y140990D02*
Y145350D01*
X145223Y140990D02*
Y145350D01*
X146076Y140990D02*
Y145350D01*
X146930Y140990D02*
Y145350D01*
X147783Y140990D02*
Y145350D01*
X148637Y140990D02*
Y145350D01*
X149490Y140990D02*
Y145350D01*
X150344Y140990D02*
Y145350D01*
X151197Y140990D02*
Y145350D01*
X152051Y140990D02*
Y145350D01*
X152905Y140990D02*
Y145350D01*
X153758Y140990D02*
Y145350D01*
X154612Y140990D02*
Y145350D01*
X155465Y140990D02*
Y145350D01*
X156319Y140990D02*
Y145350D01*
X157172Y140990D02*
Y145350D01*
X158026Y140990D02*
Y145350D01*
X158879Y140990D02*
Y145350D01*
X159733Y140990D02*
Y145350D01*
X160587Y140990D02*
Y145350D01*
X161440Y140990D02*
Y145350D01*
X162294Y140990D02*
Y145350D01*
X163147Y140990D02*
Y145350D01*
X164001Y140990D02*
Y145350D01*
X164854Y140990D02*
Y145350D01*
X165708Y140990D02*
Y145350D01*
X166561Y140990D02*
Y145350D01*
X167415Y140990D02*
Y145350D01*
X168268Y140990D02*
Y145350D01*
X169122Y140990D02*
Y145350D01*
X169976Y140990D02*
Y145350D01*
X170829Y140990D02*
Y145350D01*
X171683Y140990D02*
Y145350D01*
X172536Y140990D02*
Y145350D01*
X173390Y140990D02*
Y145350D01*
X174243Y140990D02*
Y145350D01*
X175097Y140990D02*
Y145301D01*
X175950Y140990D02*
Y144876D01*
D02*
D180*
X77609Y140540D03*
X123859Y157350D03*
Y158750D03*
X125859Y157350D03*
Y158750D03*
X126459Y145350D03*
X127859Y155040D03*
Y157350D03*
Y158750D03*
X129859Y157350D03*
Y158750D03*
X130859Y103160D03*
X131859Y157350D03*
Y158750D03*
X133859Y157350D03*
Y158750D03*
X135859Y157350D03*
Y158750D03*
X182109Y140540D03*
D02*
D345*
X77609D02*
X126259D01*
X127859Y142140*
Y153140*
X125859Y155140*
Y157350*
X123859D02*
X123831D01*
Y155168*
X126859Y152140*
Y147940*
X126459Y147540*
Y145350*
X127859Y155040D02*
Y157350D01*
Y155040D02*
X128859Y154040D01*
Y147940*
X130859D02*
Y103160D01*
Y147940D02*
Y154140D01*
X131859Y155140*
Y157350*
Y147940D02*
Y142140D01*
X133459Y140540*
X182109*
X131859Y147940D02*
Y153140D01*
X133859Y155140*
Y157350*
D02*
D403*
X126859Y147940D03*
X127859D03*
X128859D03*
X129859D03*
X130859D03*
X131859D03*
X132859D03*
D02*
D410*
X123859Y150740D03*
X135859D03*
D02*
D5672*
X123859Y158050D03*
X125859D03*
X127859D03*
X129859D03*
X131859D03*
X133859D03*
X135859D03*
X0Y0D02*
M02*
