G04 GENERATED BY PULSONIX 7.0 GERBER.DLL 4573*
%INHILLSTAR_80X80_EL_V1_0*%
%LNGERBER_DOCUMENTATION*%
%FSLAX33Y33*%
%IPPOS*%
%LPD*%
%OFA0B0*%
%MOMM*%
%ADD15C,0.125*%
%ADD17C,0.200*%
%ADD281C,0.025*%
%ADD394C,0.001*%
X0Y0D02*
D02*
D15*
X71281Y127458D02*
X71576Y127458D01*
X71429D02*
X71429Y128340D01*
X71281Y128193*
X72058Y127531D02*
X72205Y127458D01*
X72352*
X72499Y127531*
X72573Y127678*
Y128119*
X72499Y128266*
X72352Y128340*
X72205*
X72058Y128266*
X71984Y128119*
Y127678*
X72058Y127531*
X72499Y128266*
X73202Y127458D02*
X73202Y128340D01*
X72834Y127752*
X73423*
X73758Y127458D02*
X73831Y127531D01*
X73758Y127605*
X73684Y127531*
X73758Y127458*
X74145Y127531D02*
X74292Y127458D01*
X74440*
X74587Y127531*
X74660Y127678*
Y128119*
X74587Y128266*
X74440Y128340*
X74292*
X74145Y128266*
X74072Y128119*
Y127678*
X74145Y127531*
X74587Y128266*
X74922Y127458D02*
X74922Y128046D01*
Y127972D02*
X74995Y128046D01*
X75142*
X75216Y127972*
Y127752*
Y127972D02*
X75290Y128046D01*
X75437*
X75510Y127972*
Y127458*
X75772D02*
X75772Y128046D01*
Y127972D02*
X75845Y128046D01*
X75992*
X76066Y127972*
Y127752*
Y127972D02*
X76140Y128046D01*
X76287*
X76360Y127972*
Y127458*
X128281Y70458D02*
X128576Y70458D01*
X128429D02*
X128429Y71340D01*
X128281Y71193*
X129058Y70531D02*
X129205Y70458D01*
X129352*
X129499Y70531*
X129573Y70678*
Y71119*
X129499Y71266*
X129352Y71340*
X129205*
X129058Y71266*
X128984Y71119*
Y70678*
X129058Y70531*
X129499Y71266*
X130202Y70458D02*
X130202Y71340D01*
X129834Y70752*
X130423*
X130758Y70458D02*
X130831Y70531D01*
X130758Y70605*
X130684Y70531*
X130758Y70458*
X131145Y70531D02*
X131292Y70458D01*
X131440*
X131587Y70531*
X131660Y70678*
Y71119*
X131587Y71266*
X131440Y71340*
X131292*
X131145Y71266*
X131072Y71119*
Y70678*
X131145Y70531*
X131587Y71266*
X131922Y70458D02*
X131922Y71046D01*
Y70972D02*
X131995Y71046D01*
X132142*
X132216Y70972*
Y70752*
Y70972D02*
X132290Y71046D01*
X132437*
X132510Y70972*
Y70458*
X132772D02*
X132772Y71046D01*
Y70972D02*
X132845Y71046D01*
X132992*
X133066Y70972*
Y70752*
Y70972D02*
X133140Y71046D01*
X133287*
X133360Y70972*
Y70458*
D02*
D17*
X73878Y76662D02*
Y126675D01*
Y129050D02*
Y179062D01*
X79678Y70862D02*
X127572D01*
X134184D02*
X182078D01*
D02*
D281*
X78878Y79380D02*
Y70362D01*
X81447Y75862D02*
X73378D01*
X83200Y179862D02*
X73378D01*
X182878Y82199D02*
Y70362D01*
D02*
D394*
X73878Y75862D02*
G36*
X73478Y77462D01*
X74278*
X73878Y75862*
G37*
Y179862D02*
G36*
X74278Y178262D01*
X73478*
X73878Y179862*
G37*
X78878Y70862D02*
G36*
X80478Y71262D01*
Y70462*
X78878Y70862*
G37*
X182878D02*
G36*
X181278Y70462D01*
Y71262*
X182878Y70862*
G37*
X0Y0D02*
M02*
