G04 GENERATED BY PULSONIX 7.0 GERBER.DLL 4573*
%INHILLSTAR_80X80_EL_V1_0*%
%LNGERBER_SILKSCREEN_BOTTOM*%
%FSLAX33Y33*%
%IPPOS*%
%LPD*%
%OFA0B0*%
%MOMM*%
%ADD15C,0.125*%
%ADD17C,0.200*%
%ADD71C,0.127*%
%ADD78C,0.203*%
X0Y0D02*
D02*
D15*
X124600Y178966D02*
X124894Y178966D01*
X124747D02*
X124747Y178084D01*
X124600Y178231*
X126715Y167556D02*
X127009Y167556D01*
X126862D02*
X126862Y166674D01*
X126715Y166821*
X127041Y178966D02*
X126453Y178966D01*
X126968Y178452*
X127041Y178305*
X126968Y178158*
X126821Y178084*
X126600*
X126453Y178158*
X128527Y178893D02*
X128674Y178966D01*
X128821*
X128968Y178893*
X129041Y178746*
X128968Y178599*
X128821Y178525*
X128674*
X128821D02*
X128968Y178452D01*
X129041Y178305*
X128968Y178158*
X128821Y178084*
X128674*
X128527Y178158*
X127503Y167356D02*
X127871Y166474D01*
X128238Y167356*
X127650Y166989D02*
X128091Y166989D01*
X128589Y167356D02*
X128516Y167356D01*
Y166474*
X128828Y166768D02*
X129122Y166768D01*
X128975Y166621D02*
X128975Y167283D01*
X129049Y167356*
X129122*
X129196Y167283*
X130041D02*
X129968Y167356D01*
X129821*
X129674*
X129527Y167283*
X129453Y167136*
Y166915*
X129527Y166842*
X129674Y166768*
X129821*
X129968Y166842*
X130041Y166915*
Y166989*
X129968Y167062*
X129821Y167136*
X129674*
X129527Y167062*
X129453Y166989*
X130303Y167356D02*
X130303Y166768D01*
Y166989D02*
X130377Y166842D01*
X130524Y166768*
X130671*
X130818Y166842*
X131078Y167356D02*
X131078Y166768D01*
Y166989D02*
X131152Y166842D01*
X131299Y166768*
X131446*
X131593Y166842*
X131666Y166989*
Y167356*
X131928Y166842D02*
X132075Y166768D01*
X132296*
X132443Y166842*
X132516Y166989*
Y167209*
X132443Y167283*
X132296Y167356*
X132149*
X132002Y167283*
X131928Y167209*
Y167136*
X132002Y167062*
X132149Y166989*
X132296*
X132443Y167062*
X132516Y167136*
Y167209D02*
X132516Y167356D01*
X132778Y166768D02*
X133072Y166768D01*
X132925Y166621D02*
X132925Y167283D01*
X132999Y167356*
X133072*
X133146Y167283*
X133991D02*
X133918Y167356D01*
X133771*
X133624*
X133477Y167283*
X133403Y167136*
Y166915*
X133477Y166842*
X133624Y166768*
X133771*
X133918Y166842*
X133991Y166915*
Y166989*
X133918Y167062*
X133771Y167136*
X133624*
X133477Y167062*
X133403Y166989*
X128666Y168856D02*
X128666Y167974D01*
X129401*
X129254Y168415D02*
X128666Y168415D01*
X129678Y168856D02*
X129678Y167974D01*
X130193*
X130340Y168048*
X130413Y168195*
X130340Y168342*
X130193Y168415*
X129678*
X131426Y168709D02*
X131352Y168783D01*
X131205Y168856*
X130985*
X130838Y168783*
X130764Y168709*
X130691Y168562*
Y168268*
X130764Y168121*
X130838Y168048*
X130985Y167974*
X131205*
X131352Y168048*
X131426Y168121*
X132241Y168562D02*
X132829Y168562D01*
X127857Y170209D02*
X127784Y170283D01*
X127637Y170356*
X127416*
X127269Y170283*
X127195Y170209*
X127122Y170062*
Y169768*
X127195Y169621*
X127269Y169548*
X127416Y169474*
X127637*
X127784Y169548*
X127857Y169621*
X128134Y170136D02*
X128208Y170283D01*
X128355Y170356*
X128502*
X128649Y170283*
X128723Y170136*
Y169989*
X128649Y169842*
X128502Y169768*
X128355*
X128208Y169842*
X128134Y169989*
Y170136*
X128984Y170356D02*
X128984Y169768D01*
Y169989D02*
X129058Y169842D01*
X129205Y169768*
X129352*
X129499Y169842*
X129573Y169989*
Y170356*
X129834D02*
X129834Y169768D01*
Y169989D02*
X129908Y169842D01*
X130055Y169768*
X130202*
X130349Y169842*
X130423Y169989*
Y170356*
X131273Y170283D02*
X131199Y170356D01*
X131052*
X130905*
X130758Y170283*
X130684Y170136*
Y169915*
X130758Y169842*
X130905Y169768*
X131052*
X131199Y169842*
X131273Y169915*
Y169989*
X131199Y170062*
X131052Y170136*
X130905*
X130758Y170062*
X130684Y169989*
X132123Y169842D02*
X131976Y169768D01*
X131755*
X131608Y169842*
X131534Y169989*
Y170136*
X131608Y170283*
X131755Y170356*
X131976*
X132123Y170283*
X132384Y169768D02*
X132679Y169768D01*
X132531Y169621D02*
X132531Y170283D01*
X132605Y170356*
X132679*
X132752Y170283*
X133009Y170136D02*
X133083Y170283D01*
X133230Y170356*
X133377*
X133524Y170283*
X133598Y170136*
Y169989*
X133524Y169842*
X133377Y169768*
X133230*
X133083Y169842*
X133009Y169989*
Y170136*
X133859Y170356D02*
X133859Y169768D01*
Y169989D02*
X133933Y169842D01*
X134080Y169768*
X134227*
X134374Y169842*
X129441Y173221D02*
X129514Y173368D01*
X129661Y173441*
X129955*
X130102Y173368*
X130176Y173221*
X130102Y173074*
X129955Y173000*
X129661*
X129514Y172927*
X129441Y172780*
X129514Y172633*
X129661Y172559*
X129955*
X130102Y172633*
X130176Y172780*
X130821Y173441D02*
X130821Y172559D01*
X130453D02*
X131188Y172559D01*
X131613Y173441D02*
X131907Y173441D01*
X131760D02*
X131760Y172559D01*
X131613Y172706*
X130821Y178966D02*
X130821Y178084D01*
X130453Y178672*
X131041*
X132453Y178893D02*
X132600Y178966D01*
X132821*
X132968Y178893*
X133041Y178746*
Y178672*
X132968Y178525*
X132821Y178452*
X132453*
Y178084*
X133041*
X134731Y167556D02*
X135319Y166674D01*
X134731*
X134453Y178746D02*
X134527Y178599D01*
X134674Y178525*
X134821*
X134968Y178599*
X135041Y178746*
X134968Y178893*
X134821Y178966*
X134674*
X134527Y178893*
X134453Y178746*
Y178525*
X134527Y178305*
X134674Y178158*
X134821Y178084*
X136453Y178966D02*
X137041Y178084D01*
X136453*
D02*
D17*
X127378Y170586D02*
X127878Y171477D01*
X128378Y170586*
X127378*
G36*
X127878Y171477*
X128378Y170586*
X127378*
G37*
D02*
D71*
X124078Y166115D02*
Y170865D01*
X123378*
Y171676*
X123379Y171677*
X138377*
X138378Y171676*
Y170865*
X137678*
Y166115*
X124078*
X124573Y179762D02*
Y183457D01*
X124878Y183762*
X125183Y179762D02*
Y183457D01*
X124878Y183762*
X125183Y183457D02*
X124573D01*
X126573Y179762D02*
Y183457D01*
X126878Y183762*
X127183Y179762D02*
Y183457D01*
X126878Y183762*
X127183Y183457D02*
X126573D01*
X128573Y179762D02*
Y183457D01*
X128878Y183762*
X129183Y179762D02*
Y183457D01*
X128878Y183762*
X129183Y183457D02*
X128573D01*
X130573Y179762D02*
Y183457D01*
X130878Y183762*
X131183Y179762D02*
Y183457D01*
X130878Y183762*
X131183Y183457D02*
X130573D01*
X132573Y179762D02*
Y183457D01*
X132878Y183762*
X133183Y179762D02*
Y183457D01*
X132878Y183762*
X133183Y183457D02*
X132573D01*
X134573Y179762D02*
Y183457D01*
X134878Y183762*
X135183Y179762D02*
Y183457D01*
X134878Y183762*
X135183Y183457D02*
X134573D01*
X136573Y179762D02*
Y183457D01*
X136878Y183762*
X137183Y179762D02*
Y183457D01*
X136878Y183762*
X137183Y183457D02*
X136573D01*
D02*
D78*
X123878Y177262D02*
Y179762D01*
X137878*
Y177262*
X123878*
X0Y0D02*
M02*
