G04 GENERATED BY PULSONIX 7.0 GERBER.DLL 4573*
%INHILLSTAR_80X80_EL_V1_0*%
%LNGERBER_BOTTOM*%
%FSLAX33Y33*%
%IPPOS*%
%LPD*%
%OFA0B0*%
%MOMM*%
%ADD15C,0.125*%
%ADD145C,0.400*%
%ADD146C,0.250*%
%ADD180C,0.600*%
%ADD345C,0.150*%
%ADD403R,0.600X1.900*%
%ADD410R,2.700X3.600*%
%ADD5672R,0.900X2.500*%
X0Y0D02*
D02*
D15*
X175001Y76899D02*
X174854Y76825D01*
X174780Y76678*
X174854Y76531*
X175001Y76458*
X175516*
Y77340*
X175001*
X174854Y77266*
X174780Y77119*
X174854Y76972*
X175001Y76899*
X175516*
X174503Y76752D02*
X174503Y77046D01*
X174430Y77193*
X174356Y77266*
X174209Y77340*
X174062*
X173915Y77266*
X173841Y77193*
X173768Y77046*
Y76752*
X173841Y76605*
X173915Y76531*
X174062Y76458*
X174209*
X174356Y76531*
X174430Y76605*
X174503Y76752*
X173123Y76458D02*
X173123Y77340D01*
X173491D02*
X172755Y77340D01*
D02*
D145*
X130878Y164527D02*
Y163927D01*
Y166027D02*
Y166627D01*
Y173912D02*
Y173312D01*
Y176012D02*
Y176612D01*
D02*
D146*
X79578Y172762D02*
Y82862D01*
X81878*
G75*
G02X85878Y78862J-4000*
G01*
Y76562*
X172078*
Y77762*
G75*
G02X172278Y77962I200*
G01*
X175878*
Y78862*
G75*
G02X179878Y82862I4000*
G01*
X182178*
Y172862*
X179878*
G75*
G02X175878Y176862J4000*
G01*
Y179162*
X85878*
Y176862*
G75*
G02X81878Y172862I-4000*
G01*
X79678*
G75*
G03X79578Y172762J-100*
G01*
X91031Y157477D02*
G75*
G02X89853Y157927I-503J450D01*
G01*
G75*
G02X91031Y158377I675*
G01*
X95978*
Y160762*
G75*
G02X97978Y162762I2000*
G01*
X126803*
G75*
G02X127028Y163265I675*
G01*
Y164877*
G75*
G02X127160Y165195I450*
G01*
X127203Y165238*
Y166227*
G75*
G02X127428Y166571I375*
G01*
Y169291*
X126853Y169866*
Y166277*
G75*
G02X126228Y165652I-625*
G01*
X123528*
G75*
G02X122903Y166277J625*
G01*
Y169877*
G75*
G02X123528Y170502I625*
G01*
X126217*
X124532Y172187*
G75*
G02X124400Y172505I318J318*
G01*
Y173338*
G75*
G02X124053Y173712I28J374*
G01*
Y176212*
G75*
G02X124428Y176587I375*
G01*
X125328*
G75*
G02X125703Y176212J-375*
G01*
Y173712*
G75*
G02X125328Y173337I-375*
G01*
X125300*
Y172691*
X128196Y169795*
G75*
G02X128328Y169477I-318J-318*
G01*
Y166571*
G75*
G02X128378Y166544I-153J-344*
G01*
G75*
G02X128428Y166571I203J-317*
G01*
Y170291*
X126560Y172159*
G75*
G02X126428Y172477I318J318*
G01*
Y173337*
G75*
G02X126053Y173712J375*
G01*
Y176212*
G75*
G02X126428Y176587I375*
G01*
X127328*
G75*
G02X127703Y176212J-375*
G01*
Y173712*
G75*
G02X127328Y173337I-375*
G01*
Y172663*
X129196Y170795*
G75*
G02X129328Y170477I-318J-318*
G01*
Y166571*
G75*
G02X129378Y166544I-153J-344*
G01*
G75*
G02X129428Y166571I203J-317*
G01*
Y171191*
X128916Y171703*
G75*
G02X128428Y172880I-38J674*
G01*
Y173337*
G75*
G02X128053Y173712J375*
G01*
Y176212*
G75*
G02X128428Y176587I375*
G01*
X129328*
G75*
G02X129703Y176212J-375*
G01*
Y173712*
G75*
G02X129328Y173337I-375*
G01*
Y172880*
G75*
G02X129552Y172339I-450J-503*
G01*
X130196Y171695*
G75*
G02X130328Y171377I-318J-318*
G01*
Y166571*
G75*
G02X130422Y166512I-151J-345*
G01*
G75*
G02X130578Y166552I156J-285*
G01*
X131178*
G75*
G02X131334Y166512J-325*
G01*
G75*
G02X131420Y166567I243J-286*
G01*
Y171477*
G75*
G02X131554Y171801I458*
G01*
X132420Y172667*
Y173337*
G75*
G02X132053Y173712I8J375*
G01*
Y176212*
G75*
G02X132428Y176587I375*
G01*
X133328*
G75*
G02X133703Y176212J-375*
G01*
Y173712*
G75*
G02X133336Y173337I-375*
G01*
Y172477*
G75*
G02X133202Y172153I-458*
G01*
X132336Y171287*
Y166567*
G75*
G02X132378Y166544I-159J-340*
G01*
G75*
G02X132420Y166567I201J-317*
G01*
Y170477*
G75*
G02X132554Y170801I458*
G01*
X134420Y172667*
Y173337*
G75*
G02X134053Y173712I8J375*
G01*
Y176212*
G75*
G02X134428Y176587I375*
G01*
X135328*
G75*
G02X135703Y176212J-375*
G01*
Y173712*
G75*
G02X135336Y173337I-375*
G01*
Y172477*
G75*
G02X135202Y172153I-458*
G01*
X133336Y170287*
Y166567*
G75*
G02X133422Y166512I-157J-341*
G01*
G75*
G02X133578Y166552I156J-285*
G01*
X134178*
G75*
G02X134503Y166227J-325*
G01*
Y164327*
G75*
G02X134178Y164002I-325*
G01*
X133578*
G75*
G02X133422Y164042J325*
G01*
G75*
G02X133336Y163987I-243J286*
G01*
Y162762*
X163778*
G75*
G02X165778Y160762J-2000*
G01*
Y158385*
X170732*
G75*
G02X171903Y157927I496J-458*
G01*
G75*
G02X170732Y157469I-675*
G01*
X165778*
Y94962*
G75*
G02X163778Y92962I-2000*
G01*
X132336*
Y88093*
G75*
G02X132553Y87597I-458J-496*
G01*
G75*
G02X131203I-675*
G01*
G75*
G02X131420Y88093I675*
G01*
Y92962*
X97978*
G75*
G02X95978Y94962J2000*
G01*
Y157477*
X91031*
X130103Y173712D02*
Y176212D01*
G75*
G02X130428Y176537I325*
G01*
X131328*
G75*
G02X131653Y176212J-325*
G01*
Y173712*
G75*
G02X131328Y173387I-325*
G01*
X130428*
G75*
G02X130103Y173712J325*
G01*
X134903Y166277D02*
Y169877D01*
G75*
G02X135528Y170502I625*
G01*
X138228*
G75*
G02X138853Y169877J-625*
G01*
Y166277*
G75*
G02X138228Y165652I-625*
G01*
X135528*
G75*
G02X134903Y166277J625*
G01*
X136103Y173712D02*
Y176212D01*
G75*
G02X136428Y176537I325*
G01*
X137328*
G75*
G02X137653Y176212J-325*
G01*
Y173712*
G75*
G02X137328Y173387I-325*
G01*
X136428*
G75*
G02X136103Y173712J325*
G01*
X85878Y78133D02*
X175878D01*
X85527Y80501D02*
X176230D01*
X79578Y82869D02*
X182178D01*
X79578Y85237D02*
X182178D01*
X79578Y87605D02*
X131203D01*
X132553D02*
X182178D01*
X79578Y89974D02*
X131420D01*
X132336D02*
X182178D01*
X79578Y92342D02*
X131420D01*
X132336D02*
X182178D01*
X79578Y94710D02*
X95994D01*
X165762D02*
X182178D01*
X79578Y97078D02*
X95978D01*
X165778D02*
X182178D01*
X79578Y99446D02*
X95978D01*
X165778D02*
X182178D01*
X79578Y101814D02*
X95978D01*
X165778D02*
X182178D01*
X79578Y104182D02*
X95978D01*
X165778D02*
X182178D01*
X79578Y106550D02*
X95978D01*
X165778D02*
X182178D01*
X79578Y108918D02*
X95978D01*
X165778D02*
X182178D01*
X79578Y111286D02*
X95978D01*
X165778D02*
X182178D01*
X79578Y113654D02*
X95978D01*
X165778D02*
X182178D01*
X79578Y116022D02*
X95978D01*
X165778D02*
X182178D01*
X79578Y118390D02*
X95978D01*
X165778D02*
X182178D01*
X79578Y120758D02*
X95978D01*
X165778D02*
X182178D01*
X79578Y123126D02*
X95978D01*
X165778D02*
X182178D01*
X79578Y125494D02*
X95978D01*
X165778D02*
X182178D01*
X79578Y127862D02*
X95978D01*
X165778D02*
X182178D01*
X79578Y130230D02*
X95978D01*
X165778D02*
X182178D01*
X79578Y132598D02*
X95978D01*
X165778D02*
X182178D01*
X79578Y134966D02*
X95978D01*
X165778D02*
X182178D01*
X79578Y137334D02*
X95978D01*
X165778D02*
X182178D01*
X79578Y139702D02*
X95978D01*
X165778D02*
X182178D01*
X79578Y142070D02*
X95978D01*
X165778D02*
X182178D01*
X79578Y144438D02*
X95978D01*
X165778D02*
X182178D01*
X79578Y146806D02*
X95978D01*
X165778D02*
X182178D01*
X79578Y149174D02*
X95978D01*
X165778D02*
X182178D01*
X79578Y151542D02*
X95978D01*
X165778D02*
X182178D01*
X79578Y153910D02*
X95978D01*
X165778D02*
X182178D01*
X79578Y156278D02*
X95978D01*
X165778D02*
X182178D01*
X79578Y158646D02*
X95978D01*
X165778D02*
X182178D01*
X79578Y161014D02*
X95994D01*
X165762D02*
X182178D01*
X79578Y163382D02*
X127028D01*
X133336D02*
X182178D01*
X79578Y165750D02*
X123191D01*
X126565D02*
X127203D01*
X134503D02*
X135191D01*
X138565D02*
X182178D01*
X79578Y168119D02*
X122903D01*
X126853D02*
X127428D01*
X128328D02*
X128428D01*
X129328D02*
X129428D01*
X130328D02*
X131420D01*
X132336D02*
X132420D01*
X133336D02*
X134903D01*
X138853D02*
X182178D01*
X79578Y170487D02*
X123390D01*
X127505D02*
X128232D01*
X129328D02*
X129428D01*
X130328D02*
X131420D01*
X132336D02*
X132420D01*
X133535D02*
X135390D01*
X138366D02*
X182178D01*
X79640Y172855D02*
X124400D01*
X125300D02*
X126428D01*
X127328D02*
X128401D01*
X129355D02*
X132420D01*
X133336D02*
X134420D01*
X135336D02*
X182178D01*
X85527Y175223D02*
X124053D01*
X125703D02*
X126053D01*
X127703D02*
X128053D01*
X129703D02*
X130103D01*
X131653D02*
X132053D01*
X133703D02*
X134053D01*
X135703D02*
X136103D01*
X137653D02*
X176230D01*
X85878Y177591D02*
X175878D01*
X81150Y82862D02*
Y172862D01*
X83518Y82511D02*
Y173213D01*
X85886Y76562D02*
Y179162D01*
X88254Y76562D02*
Y179162D01*
X90622Y76562D02*
Y157259D01*
Y158596D02*
Y179162D01*
X92990Y76562D02*
Y157477D01*
Y158377D02*
Y179162D01*
X95358Y76562D02*
Y157477D01*
Y158377D02*
Y179162D01*
X97726Y76562D02*
Y92978D01*
Y162746D02*
Y179162D01*
X100094Y76562D02*
Y92962D01*
Y162762D02*
Y179162D01*
X102462Y76562D02*
Y92962D01*
Y162762D02*
Y179162D01*
X104830Y76562D02*
Y92962D01*
Y162762D02*
Y179162D01*
X107198Y76562D02*
Y92962D01*
Y162762D02*
Y179162D01*
X109566Y76562D02*
Y92962D01*
Y162762D02*
Y179162D01*
X111934Y76562D02*
Y92962D01*
Y162762D02*
Y179162D01*
X114302Y76562D02*
Y92962D01*
Y162762D02*
Y179162D01*
X116670Y76562D02*
Y92962D01*
Y162762D02*
Y179162D01*
X119038Y76562D02*
Y92962D01*
Y162762D02*
Y179162D01*
X121406Y76562D02*
Y92962D01*
Y162762D02*
Y179162D01*
X123774Y76562D02*
Y92962D01*
Y162762D02*
Y165652D01*
Y170502D02*
Y179162D01*
X126142Y76562D02*
Y92962D01*
Y162762D02*
Y165652D01*
Y170502D02*
Y170577D01*
Y171849D02*
Y173470D01*
Y176454D02*
Y179162D01*
X128510Y76562D02*
Y92962D01*
Y171481D02*
Y171811D01*
Y176587D02*
Y179162D01*
X130878Y76562D02*
Y92962D01*
Y166552D02*
Y173387D01*
Y176537D02*
Y179162D01*
X133246Y76562D02*
Y92962D01*
Y171493D02*
Y172204D01*
Y176587D02*
Y179162D01*
X135614Y76562D02*
Y92962D01*
Y162762D02*
Y165652D01*
Y170502D02*
Y173470D01*
Y176454D02*
Y179162D01*
X137982Y76562D02*
Y92962D01*
Y162762D02*
Y165652D01*
Y170502D02*
Y179162D01*
X140350Y76562D02*
Y92962D01*
Y162762D02*
Y179162D01*
X142718Y76562D02*
Y92962D01*
Y162762D02*
Y179162D01*
X145086Y76562D02*
Y92962D01*
Y162762D02*
Y179162D01*
X147454Y76562D02*
Y92962D01*
Y162762D02*
Y179162D01*
X149822Y76562D02*
Y92962D01*
Y162762D02*
Y179162D01*
X152190Y76562D02*
Y92962D01*
Y162762D02*
Y179162D01*
X154558Y76562D02*
Y92962D01*
Y162762D02*
Y179162D01*
X156926Y76562D02*
Y92962D01*
Y162762D02*
Y179162D01*
X159294Y76562D02*
Y92962D01*
Y162762D02*
Y179162D01*
X161663Y76562D02*
Y92962D01*
Y162762D02*
Y179162D01*
X164031Y76562D02*
Y92978D01*
Y162746D02*
Y179162D01*
X166399Y76562D02*
Y157469D01*
Y158385D02*
Y179162D01*
X168767Y76562D02*
Y157469D01*
Y158385D02*
Y179162D01*
X171135Y76562D02*
Y157259D01*
Y158595D02*
Y179162D01*
X173503Y77962D02*
Y179162D01*
X175871Y77962D02*
Y179162D01*
X178239Y82511D02*
Y173213D01*
X180607Y82862D02*
Y172862D01*
X95978Y157477D02*
Y94962D01*
G75*
G03X97978Y92962I2000*
G01*
X131420*
Y163987*
G75*
G02X131334Y164042I157J341*
G01*
G75*
G02X131178Y164002I-156J285*
G01*
X130578*
G75*
G02X130422Y164042J325*
G01*
G75*
G02X130178Y163952I-244J285*
G01*
X129578*
G75*
G02X129378Y164010J375*
G01*
G75*
G02X129328Y163983I-203J317*
G01*
Y160362*
G75*
G02X129196Y160044I-450*
G01*
X126761Y157609*
G75*
G02X126443Y157477I-318J318*
G01*
X95978*
X96411Y93720D02*
X131420D01*
X96016Y94574D02*
X131420D01*
X95978Y95427D02*
X131420D01*
X95978Y96281D02*
X131420D01*
X95978Y97134D02*
X131420D01*
X95978Y97988D02*
X131420D01*
X95978Y98841D02*
X131420D01*
X95978Y99695D02*
X131420D01*
X95978Y100548D02*
X131420D01*
X95978Y101402D02*
X131420D01*
X95978Y102256D02*
X131420D01*
X95978Y103109D02*
X131420D01*
X95978Y103963D02*
X131420D01*
X95978Y104816D02*
X131420D01*
X95978Y105670D02*
X131420D01*
X95978Y106523D02*
X131420D01*
X95978Y107377D02*
X131420D01*
X95978Y108230D02*
X131420D01*
X95978Y109084D02*
X131420D01*
X95978Y109937D02*
X131420D01*
X95978Y110791D02*
X131420D01*
X95978Y111645D02*
X131420D01*
X95978Y112498D02*
X131420D01*
X95978Y113352D02*
X131420D01*
X95978Y114205D02*
X131420D01*
X95978Y115059D02*
X131420D01*
X95978Y115912D02*
X131420D01*
X95978Y116766D02*
X131420D01*
X95978Y117619D02*
X131420D01*
X95978Y118473D02*
X131420D01*
X95978Y119327D02*
X131420D01*
X95978Y120180D02*
X131420D01*
X95978Y121034D02*
X131420D01*
X95978Y121887D02*
X131420D01*
X95978Y122741D02*
X131420D01*
X95978Y123594D02*
X131420D01*
X95978Y124448D02*
X131420D01*
X95978Y125301D02*
X131420D01*
X95978Y126155D02*
X131420D01*
X95978Y127008D02*
X131420D01*
X95978Y127862D02*
X131420D01*
X95978Y128716D02*
X131420D01*
X95978Y129569D02*
X131420D01*
X95978Y130423D02*
X131420D01*
X95978Y131276D02*
X131420D01*
X95978Y132130D02*
X131420D01*
X95978Y132983D02*
X131420D01*
X95978Y133837D02*
X131420D01*
X95978Y134690D02*
X131420D01*
X95978Y135544D02*
X131420D01*
X95978Y136398D02*
X131420D01*
X95978Y137251D02*
X131420D01*
X95978Y138105D02*
X131420D01*
X95978Y138958D02*
X131420D01*
X95978Y139812D02*
X131420D01*
X95978Y140665D02*
X131420D01*
X95978Y141519D02*
X131420D01*
X95978Y142372D02*
X131420D01*
X95978Y143226D02*
X131420D01*
X95978Y144079D02*
X131420D01*
X95978Y144933D02*
X131420D01*
X95978Y145787D02*
X131420D01*
X95978Y146640D02*
X131420D01*
X95978Y147494D02*
X131420D01*
X95978Y148347D02*
X131420D01*
X95978Y149201D02*
X131420D01*
X95978Y150054D02*
X131420D01*
X95978Y150908D02*
X131420D01*
X95978Y151761D02*
X131420D01*
X95978Y152615D02*
X131420D01*
X95978Y153469D02*
X131420D01*
X95978Y154322D02*
X131420D01*
X95978Y155176D02*
X131420D01*
X95978Y156029D02*
X131420D01*
X95978Y156883D02*
X131420D01*
X126889Y157736D02*
X131420D01*
X127742Y158590D02*
X131420D01*
X128596Y159443D02*
X131420D01*
X129323Y160297D02*
X131420D01*
X129328Y161150D02*
X131420D01*
X129328Y162004D02*
X131420D01*
X129328Y162858D02*
X131420D01*
X129328Y163711D02*
X131420D01*
X96736Y93394D02*
Y157477D01*
X97590Y93000D02*
Y157477D01*
X98443Y92962D02*
Y157477D01*
X99297Y92962D02*
Y157477D01*
X100150Y92962D02*
Y157477D01*
X101004Y92962D02*
Y157477D01*
X101857Y92962D02*
Y157477D01*
X102711Y92962D02*
Y157477D01*
X103565Y92962D02*
Y157477D01*
X104418Y92962D02*
Y157477D01*
X105272Y92962D02*
Y157477D01*
X106125Y92962D02*
Y157477D01*
X106979Y92962D02*
Y157477D01*
X107832Y92962D02*
Y157477D01*
X108686Y92962D02*
Y157477D01*
X109539Y92962D02*
Y157477D01*
X110393Y92962D02*
Y157477D01*
X111246Y92962D02*
Y157477D01*
X112100Y92962D02*
Y157477D01*
X112954Y92962D02*
Y157477D01*
X113807Y92962D02*
Y157477D01*
X114661Y92962D02*
Y157477D01*
X115514Y92962D02*
Y157477D01*
X116368Y92962D02*
Y157477D01*
X117221Y92962D02*
Y157477D01*
X118075Y92962D02*
Y157477D01*
X118928Y92962D02*
Y157477D01*
X119782Y92962D02*
Y157477D01*
X120636Y92962D02*
Y157477D01*
X121489Y92962D02*
Y157477D01*
X122343Y92962D02*
Y157477D01*
X123196Y92962D02*
Y157477D01*
X124050Y92962D02*
Y157477D01*
X124903Y92962D02*
Y157477D01*
X125757Y92962D02*
Y157477D01*
X126610Y92962D02*
Y157509D01*
X127464Y92962D02*
Y158311D01*
X128317Y92962D02*
Y159165D01*
X129171Y92962D02*
Y160019D01*
X130025Y92962D02*
Y163952D01*
X130878Y92962D02*
Y164002D01*
X95978Y158377D02*
X126257D01*
X128428Y160548*
Y163983*
G75*
G02X128378Y164010I153J344*
G01*
G75*
G02X128178Y163952I-200J317*
G01*
X127928*
Y163265*
G75*
G02X128153Y162762I-450J-503*
G01*
G75*
G02X126803I-675*
G01*
X97978*
G75*
G03X95978Y160762J-2000*
G01*
Y158377*
Y158590D02*
X126470D01*
X95978Y159443D02*
X127323D01*
X95978Y160297D02*
X128177D01*
X96016Y161150D02*
X128428D01*
X96411Y162004D02*
X128428D01*
X128146Y162858D02*
X128428D01*
X127928Y163711D02*
X128428D01*
X96736Y158377D02*
Y162330D01*
X97590Y158377D02*
Y162724D01*
X98443Y158377D02*
Y162762D01*
X99297Y158377D02*
Y162762D01*
X100150Y158377D02*
Y162762D01*
X101004Y158377D02*
Y162762D01*
X101857Y158377D02*
Y162762D01*
X102711Y158377D02*
Y162762D01*
X103565Y158377D02*
Y162762D01*
X104418Y158377D02*
Y162762D01*
X105272Y158377D02*
Y162762D01*
X106125Y158377D02*
Y162762D01*
X106979Y158377D02*
Y162762D01*
X107832Y158377D02*
Y162762D01*
X108686Y158377D02*
Y162762D01*
X109539Y158377D02*
Y162762D01*
X110393Y158377D02*
Y162762D01*
X111246Y158377D02*
Y162762D01*
X112100Y158377D02*
Y162762D01*
X112954Y158377D02*
Y162762D01*
X113807Y158377D02*
Y162762D01*
X114661Y158377D02*
Y162762D01*
X115514Y158377D02*
Y162762D01*
X116368Y158377D02*
Y162762D01*
X117221Y158377D02*
Y162762D01*
X118075Y158377D02*
Y162762D01*
X118928Y158377D02*
Y162762D01*
X119782Y158377D02*
Y162762D01*
X120636Y158377D02*
Y162762D01*
X121489Y158377D02*
Y162762D01*
X122343Y158377D02*
Y162762D01*
X123196Y158377D02*
Y162762D01*
X124050Y158377D02*
Y162762D01*
X124903Y158377D02*
Y162762D01*
X125757Y158377D02*
Y162762D01*
X126610Y158731D02*
Y162762D01*
X127464Y159584D02*
Y162087D01*
X128317Y160438D02*
Y163979D01*
X132336Y92962D02*
X163778D01*
G75*
G03X165778Y94962J2000*
G01*
Y157469*
X135313*
G75*
G02X134989Y157603J458*
G01*
X132554Y160038*
G75*
G02X132420Y160362I324J324*
G01*
Y163987*
G75*
G02X132378Y164010I159J340*
G01*
G75*
G02X132336Y163987I-201J317*
G01*
Y92962*
Y93720D02*
X165346D01*
X132336Y94574D02*
X165740D01*
X132336Y95427D02*
X165778D01*
X132336Y96281D02*
X165778D01*
X132336Y97134D02*
X165778D01*
X132336Y97988D02*
X165778D01*
X132336Y98841D02*
X165778D01*
X132336Y99695D02*
X165778D01*
X132336Y100548D02*
X165778D01*
X132336Y101402D02*
X165778D01*
X132336Y102256D02*
X165778D01*
X132336Y103109D02*
X165778D01*
X132336Y103963D02*
X165778D01*
X132336Y104816D02*
X165778D01*
X132336Y105670D02*
X165778D01*
X132336Y106523D02*
X165778D01*
X132336Y107377D02*
X165778D01*
X132336Y108230D02*
X165778D01*
X132336Y109084D02*
X165778D01*
X132336Y109937D02*
X165778D01*
X132336Y110791D02*
X165778D01*
X132336Y111645D02*
X165778D01*
X132336Y112498D02*
X165778D01*
X132336Y113352D02*
X165778D01*
X132336Y114205D02*
X165778D01*
X132336Y115059D02*
X165778D01*
X132336Y115912D02*
X165778D01*
X132336Y116766D02*
X165778D01*
X132336Y117619D02*
X165778D01*
X132336Y118473D02*
X165778D01*
X132336Y119327D02*
X165778D01*
X132336Y120180D02*
X165778D01*
X132336Y121034D02*
X165778D01*
X132336Y121887D02*
X165778D01*
X132336Y122741D02*
X165778D01*
X132336Y123594D02*
X165778D01*
X132336Y124448D02*
X165778D01*
X132336Y125301D02*
X165778D01*
X132336Y126155D02*
X165778D01*
X132336Y127008D02*
X165778D01*
X132336Y127862D02*
X165778D01*
X132336Y128716D02*
X165778D01*
X132336Y129569D02*
X165778D01*
X132336Y130423D02*
X165778D01*
X132336Y131276D02*
X165778D01*
X132336Y132130D02*
X165778D01*
X132336Y132983D02*
X165778D01*
X132336Y133837D02*
X165778D01*
X132336Y134690D02*
X165778D01*
X132336Y135544D02*
X165778D01*
X132336Y136398D02*
X165778D01*
X132336Y137251D02*
X165778D01*
X132336Y138105D02*
X165778D01*
X132336Y138958D02*
X165778D01*
X132336Y139812D02*
X165778D01*
X132336Y140665D02*
X165778D01*
X132336Y141519D02*
X165778D01*
X132336Y142372D02*
X165778D01*
X132336Y143226D02*
X165778D01*
X132336Y144079D02*
X165778D01*
X132336Y144933D02*
X165778D01*
X132336Y145787D02*
X165778D01*
X132336Y146640D02*
X165778D01*
X132336Y147494D02*
X165778D01*
X132336Y148347D02*
X165778D01*
X132336Y149201D02*
X165778D01*
X132336Y150054D02*
X165778D01*
X132336Y150908D02*
X165778D01*
X132336Y151761D02*
X165778D01*
X132336Y152615D02*
X165778D01*
X132336Y153469D02*
X165778D01*
X132336Y154322D02*
X165778D01*
X132336Y155176D02*
X165778D01*
X132336Y156029D02*
X165778D01*
X132336Y156883D02*
X165778D01*
X132336Y157736D02*
X134856D01*
X132336Y158590D02*
X134003D01*
X132336Y159443D02*
X133149D01*
X132336Y160297D02*
X132425D01*
X132336Y161150D02*
X132420D01*
X132336Y162004D02*
X132420D01*
X132336Y162858D02*
X132420D01*
X132336Y163711D02*
X132420D01*
X132585Y92962D02*
Y160007D01*
X133439Y92962D02*
Y159154D01*
X134292Y92962D02*
Y158300D01*
X135146Y92962D02*
Y157501D01*
X135999Y92962D02*
Y157469D01*
X136853Y92962D02*
Y157469D01*
X137707Y92962D02*
Y157469D01*
X138560Y92962D02*
Y157469D01*
X139414Y92962D02*
Y157469D01*
X140267Y92962D02*
Y157469D01*
X141121Y92962D02*
Y157469D01*
X141974Y92962D02*
Y157469D01*
X142828Y92962D02*
Y157469D01*
X143681Y92962D02*
Y157469D01*
X144535Y92962D02*
Y157469D01*
X145388Y92962D02*
Y157469D01*
X146242Y92962D02*
Y157469D01*
X147096Y92962D02*
Y157469D01*
X147949Y92962D02*
Y157469D01*
X148803Y92962D02*
Y157469D01*
X149656Y92962D02*
Y157469D01*
X150510Y92962D02*
Y157469D01*
X151363Y92962D02*
Y157469D01*
X152217Y92962D02*
Y157469D01*
X153070Y92962D02*
Y157469D01*
X153924Y92962D02*
Y157469D01*
X154778Y92962D02*
Y157469D01*
X155631Y92962D02*
Y157469D01*
X156485Y92962D02*
Y157469D01*
X157338Y92962D02*
Y157469D01*
X158192Y92962D02*
Y157469D01*
X159045Y92962D02*
Y157469D01*
X159899Y92962D02*
Y157469D01*
X160752Y92962D02*
Y157469D01*
X161606Y92962D02*
Y157469D01*
X162459Y92962D02*
Y157469D01*
X163313Y92962D02*
Y157469D01*
X164167Y93000D02*
Y157469D01*
X165020Y93394D02*
Y157469D01*
X133336Y162762D02*
Y160552D01*
X135503Y158385*
X165778*
Y160762*
G75*
G03X163778Y162762I-2000*
G01*
X133336*
X135298Y158590D02*
X165778D01*
X134444Y159443D02*
X165778D01*
X133591Y160297D02*
X165778D01*
X133336Y161150D02*
X165740D01*
X133336Y162004D02*
X165346D01*
X133439Y160449D02*
Y162762D01*
X134292Y159596D02*
Y162762D01*
X135146Y158742D02*
Y162762D01*
X135999Y158385D02*
Y162762D01*
X136853Y158385D02*
Y162762D01*
X137707Y158385D02*
Y162762D01*
X138560Y158385D02*
Y162762D01*
X139414Y158385D02*
Y162762D01*
X140267Y158385D02*
Y162762D01*
X141121Y158385D02*
Y162762D01*
X141974Y158385D02*
Y162762D01*
X142828Y158385D02*
Y162762D01*
X143681Y158385D02*
Y162762D01*
X144535Y158385D02*
Y162762D01*
X145388Y158385D02*
Y162762D01*
X146242Y158385D02*
Y162762D01*
X147096Y158385D02*
Y162762D01*
X147949Y158385D02*
Y162762D01*
X148803Y158385D02*
Y162762D01*
X149656Y158385D02*
Y162762D01*
X150510Y158385D02*
Y162762D01*
X151363Y158385D02*
Y162762D01*
X152217Y158385D02*
Y162762D01*
X153070Y158385D02*
Y162762D01*
X153924Y158385D02*
Y162762D01*
X154778Y158385D02*
Y162762D01*
X155631Y158385D02*
Y162762D01*
X156485Y158385D02*
Y162762D01*
X157338Y158385D02*
Y162762D01*
X158192Y158385D02*
Y162762D01*
X159045Y158385D02*
Y162762D01*
X159899Y158385D02*
Y162762D01*
X160752Y158385D02*
Y162762D01*
X161606Y158385D02*
Y162762D01*
X162459Y158385D02*
Y162762D01*
X163313Y158385D02*
Y162762D01*
X164167Y158385D02*
Y162724D01*
X165020Y158385D02*
Y162330D01*
D02*
D180*
X90528Y157927D03*
X124878Y174262D03*
Y175662D03*
X126878Y174262D03*
Y175662D03*
X127478Y162762D03*
X128878Y172377D03*
Y174262D03*
Y175662D03*
X130878Y174262D03*
Y175662D03*
X131878Y87597D03*
X132878Y174262D03*
Y175662D03*
X134878Y174262D03*
Y175662D03*
X136878Y174262D03*
Y175662D03*
X171228Y157927D03*
D02*
D345*
X90528D02*
X126443D01*
X128878Y160362*
Y170477*
X126878Y172477*
Y174262*
X124878D02*
X124850D01*
Y172505*
X127878Y169477*
Y165277*
X127478Y164877*
Y162762*
X128878Y172377D02*
Y174262D01*
Y172377D02*
X129878Y171377D01*
Y165277*
X131878D02*
Y87597D01*
Y165277D02*
Y171477D01*
X132878Y172477*
Y174262*
Y165277D02*
Y160362D01*
X135313Y157927*
X171228*
X132878Y165277D02*
Y170477D01*
X134878Y172477*
Y174262*
D02*
D403*
X127878Y165277D03*
X128878D03*
X129878D03*
X130878D03*
X131878D03*
X132878D03*
X133878D03*
D02*
D410*
X124878Y168077D03*
X136878D03*
D02*
D5672*
X124878Y174962D03*
X126878D03*
X128878D03*
X130878D03*
X132878D03*
X134878D03*
X136878D03*
X0Y0D02*
M02*
