M48
INCH
T01C00.010
T02C00.126
%
M70
T01
X03564Y06218
X04916Y06861
X04916Y06916
X04995Y06861
X04995Y06916
X05019Y06408
X05074Y06786
X05074Y06861
X05074Y06916
X05153Y06861
X05153Y06916
X05192Y03449
X05231Y06861
X05231Y06916
X05310Y06861
X05310Y06916
X05389Y06861
X05389Y06916
X06741Y06218
T02
X03224Y03105
X03224Y06963
X07082Y03105
X07082Y06963
M30
