M48
INCH
T01C00.010
T02C00.126
%
M70
T01
X04510Y05231
X04943Y05122
X04943Y05177
X05022Y05122
X05022Y05177
X05061Y04764
X05101Y04764
X05101Y05122
X05101Y05177
X05101Y05782
X05140Y04764
X05179Y04764
X05179Y05122
X05179Y05177
X05219Y04443
X05219Y04764
X05258Y04764
X05258Y05122
X05258Y05177
X05337Y05122
X05337Y05177
X05415Y05122
X05849Y05231
T02
X04333Y04266
X04333Y05959
X06026Y04266
X06026Y05959
M30
