G04 GENERATED BY PULSONIX 7.0 GERBER.DLL 4573*
%INHILLSTAR_30X30_EL_4LAYER_V1_0*%
%LNGERBER_INNER2*%
%FSLAX33Y33*%
%IPPOS*%
%LPD*%
%OFA0B0*%
%MOMM*%
%ADD12C,0.150*%
%ADD105C,0.400*%
%ADD112C,0.600*%
X0Y0D02*
D02*
D12*
X125553Y130106D02*
Y131506D01*
X127553D02*
X126203Y132856D01*
X114553*
X127553Y131506D02*
Y130106D01*
X128553Y121006D02*
Y125031D01*
X125553Y128031*
Y130106*
X129553Y121006D02*
Y125756D01*
X127553Y127756*
Y130106*
X129553D02*
Y128106D01*
X130553Y127106*
Y121006*
X129553Y131506D02*
Y146856D01*
Y131506D02*
Y130106D01*
X131553Y131506D02*
Y130106D01*
Y153806D02*
G75*
G03Y105906J-23950D01*
G01*
G75*
G03Y153806J23950*
G01*
X115033Y132456D02*
G75*
G02X113928Y132856I-480J400D01*
G01*
G75*
G02X115033Y133256I625*
G01*
X126203*
G75*
G02X126486Y133139J-400*
G01*
X127496Y132129*
G75*
G02X127953Y131026I57J-623*
G01*
Y130586*
G75*
G02Y129626I-400J-480*
G01*
Y127922*
X129836Y126039*
G75*
G02X129953Y125756I-283J-283*
G01*
Y121486*
G75*
G02X130053Y121381I-399J-480*
G01*
G75*
G02X130153Y121486I499J-375*
G01*
Y126941*
X129270Y127823*
G75*
G02X129153Y128106I283J283*
G01*
Y129626*
G75*
G02Y130586I400J480*
G01*
Y131026*
G75*
G02Y131986I400J480*
G01*
Y146376*
G75*
G02X128928Y146856I400J480*
G01*
G75*
G02X130178I625*
G01*
G75*
G02X129953Y146376I-625*
G01*
Y131986*
G75*
G02Y131026I-400J-480*
G01*
Y130586*
G75*
G02Y129626I-400J-480*
G01*
Y128272*
X130836Y127389*
G75*
G02X130953Y127106I-283J-283*
G01*
Y121486*
G75*
G02X131083Y121338I-397J-480*
G01*
G75*
G02X132023I470J-331*
G01*
G75*
G02X132153Y121486I527J-332*
G01*
Y127106*
G75*
G02X132270Y127389I400*
G01*
X133153Y128272*
Y129626*
G75*
G02Y130586I400J480*
G01*
Y131026*
G75*
G02X132928Y131506I400J480*
G01*
G75*
G02X134178I625*
G01*
G75*
G02X133953Y131026I-625*
G01*
Y130586*
G75*
G02Y129626I-400J-480*
G01*
Y128106*
G75*
G02X133836Y127823I-400*
G01*
X132953Y126941*
Y121486*
G75*
G02X133053Y121381I-399J-480*
G01*
G75*
G02X133153Y121486I499J-375*
G01*
Y125756*
G75*
G02X133270Y126039I400*
G01*
X135153Y127922*
Y129626*
G75*
G02Y130586I400J480*
G01*
Y131026*
G75*
G02X135610Y132129I400J480*
G01*
X136620Y133139*
G75*
G02X136903Y133256I283J-283*
G01*
X148073*
G75*
G02X149178Y132856I480J-400*
G01*
G75*
G02X148073Y132456I-625*
G01*
X137069*
X136176Y131563*
G75*
G02X135953Y131026I-623J-56*
G01*
Y130586*
G75*
G02Y129626I-400J-480*
G01*
Y127756*
G75*
G02X135836Y127473I-400*
G01*
X133953Y125591*
Y121486*
G75*
G02X134178Y121006I-400J-480*
G01*
G75*
G02X133053Y120631I-625*
G01*
G75*
G02X132953Y120526I-499J375*
G01*
Y113336*
G75*
G02X133178Y112856I-400J-480*
G01*
G75*
G02X131928I-625*
G01*
G75*
G02X132153Y113336I625*
G01*
Y120526*
G75*
G02X132023Y120675I400J480*
G01*
G75*
G02X131083I-470J331*
G01*
G75*
G02X130053Y120631I-530J331*
G01*
G75*
G02X129053I-500J375*
G01*
G75*
G02X127928Y121006I-500J375*
G01*
G75*
G02X128153Y121486I625*
G01*
Y124866*
X125270Y127748*
G75*
G02X125153Y128031I283J283*
G01*
Y129626*
G75*
G02Y130586I400J480*
G01*
Y131026*
G75*
G02X124928Y131506I400J480*
G01*
G75*
G02X126178I625*
G01*
G75*
G02X125953Y131026I-625*
G01*
Y130586*
G75*
G02Y129626I-400J-480*
G01*
Y128197*
X128836Y125314*
G75*
G02X128953Y125031I-283J-283*
G01*
Y121486*
G75*
G02X129053Y121381I-399J-480*
G01*
G75*
G02X129153Y121486I499J-375*
G01*
Y125591*
X127270Y127473*
G75*
G02X127153Y127756I283J283*
G01*
Y129626*
G75*
G02Y130586I400J480*
G01*
Y131026*
G75*
G02X126931Y131563I400J480*
G01*
X126037Y132456*
X115033*
X130978Y130106D02*
G75*
G02X132128I575D01*
G01*
G75*
G02X130978I-575*
G01*
Y131506D02*
G75*
G02X132128I575D01*
G01*
G75*
G02X130978I-575*
G01*
X137553Y130681D02*
G75*
G02X136978Y131256J575D01*
G01*
G75*
G02X138128I575*
G01*
G75*
G02X137553Y130681I-575*
G01*
G75*
G02X138128Y130106J-575*
G01*
G75*
G02X136978I-575*
G01*
G75*
G02X137553Y130681I575*
G01*
X107603Y129856D02*
G36*
G75*
G03X131553Y105906I23950D01*
G01*
G75*
G03X155503Y129856J23950*
G01*
X138071*
G75*
G02X137035I-518J250*
G01*
X136126*
G75*
G02X135953Y129626I-572J250*
G01*
Y127756*
G75*
G02X135836Y127473I-400*
G01*
X133953Y125591*
Y121486*
G75*
G02X134178Y121006I-400J-480*
G01*
G75*
G02X133053Y120631I-625*
G01*
G75*
G02X132953Y120526I-499J375*
G01*
Y113336*
G75*
G02X133178Y112856I-400J-480*
G01*
G75*
G02X131928I-625*
G01*
G75*
G02X132153Y113336I625*
G01*
Y120526*
G75*
G02X132023Y120675I400J480*
G01*
G75*
G02X131083I-470J331*
G01*
G75*
G02X130053Y120631I-530J331*
G01*
G75*
G02X129053I-500J375*
G01*
G75*
G02X127928Y121006I-500J375*
G01*
G75*
G02X128153Y121486I625*
G01*
Y124866*
X125270Y127748*
G75*
G02X125153Y128031I283J283*
G01*
Y129626*
G75*
G02X124980Y129856I399J480*
G01*
X107603*
G37*
X124980D02*
G36*
G75*
G02X125153Y130586I573J250D01*
G01*
Y131026*
G75*
G02X124928Y131506I400J480*
G01*
X107660*
G75*
G03X107603Y129856I23893J-1651*
G01*
X124980*
G37*
X130126D02*
G36*
G75*
G02X129953Y129626I-572J250D01*
G01*
Y128272*
X130836Y127389*
G75*
G02X130953Y127106I-283J-283*
G01*
Y121486*
G75*
G02X131083Y121338I-397J-480*
G01*
G75*
G02X132023I470J-331*
G01*
G75*
G02X132153Y121486I527J-332*
G01*
Y127106*
G75*
G02X132270Y127389I400*
G01*
X133153Y128272*
Y129626*
G75*
G02X132980Y129856I399J480*
G01*
X132071*
G75*
G02X131035I-518J250*
G01*
X130126*
G37*
X131035D02*
G36*
G75*
G02X130978Y130106I518J250D01*
G01*
G75*
G02X132128I575*
G01*
G75*
G02X132071Y129856I-575*
G01*
X132980*
G75*
G02X133153Y130586I573J250*
G01*
Y131026*
G75*
G02X132928Y131506I400J480*
G01*
X132128*
G75*
G02X130978I-575*
G01*
X130178*
G75*
G02X129953Y131026I-625*
G01*
Y130586*
G75*
G02X130126Y129856I-400J-480*
G01*
X131035*
G37*
X137035D02*
G36*
G75*
G02X137553Y130681I518J250D01*
G01*
G75*
G02X137035Y131506J575*
G01*
X136178*
G75*
G02X135953Y131026I-625*
G01*
Y130586*
G75*
G02X136126Y129856I-400J-480*
G01*
X137035*
G37*
X137553Y130681D02*
G36*
G75*
G02X138071Y129856J-575D01*
G01*
X155503*
G75*
G03X155446Y131506I-23950J-1*
G01*
X138071*
G75*
G02X137553Y130681I-518J-250*
G01*
G37*
X124928Y131506D02*
G36*
G75*
G02X126178I625D01*
G01*
G75*
G02X125953Y131026I-625*
G01*
Y130586*
G75*
G02Y129626I-400J-480*
G01*
Y128197*
X128836Y125314*
G75*
G02X128953Y125031I-283J-283*
G01*
Y121486*
G75*
G02X129053Y121381I-399J-480*
G01*
G75*
G02X129153Y121486I499J-375*
G01*
Y125591*
X127270Y127473*
G75*
G02X127153Y127756I283J283*
G01*
Y129626*
G75*
G02Y130586I400J480*
G01*
Y131026*
G75*
G02X126931Y131563I400J480*
G01*
X126037Y132456*
X115033*
G75*
G02X113928Y132856I-480J400*
G01*
G75*
G02X115033Y133256I625*
G01*
X126203*
G75*
G02X126486Y133139J-400*
G01*
X127496Y132129*
G75*
G02X127953Y131026I57J-623*
G01*
Y130586*
G75*
G02Y129626I-400J-480*
G01*
Y127922*
X129836Y126039*
G75*
G02X129953Y125756I-283J-283*
G01*
Y121486*
G75*
G02X130053Y121381I-399J-480*
G01*
G75*
G02X130153Y121486I499J-375*
G01*
Y126941*
X129270Y127823*
G75*
G02X129153Y128106I283J283*
G01*
Y129626*
G75*
G02Y130586I400J480*
G01*
Y131026*
G75*
G02Y131986I400J480*
G01*
Y146376*
G75*
G02X128928Y146856I400J480*
G01*
G75*
G02X130178I625*
G01*
G75*
G02X129953Y146376I-625*
G01*
Y131986*
G75*
G02X130178Y131506I-400J-480*
G01*
X130978*
G75*
G02X132128I575*
G01*
X132928*
G75*
G02X134178I625*
G01*
G75*
G02X133953Y131026I-625*
G01*
Y130586*
G75*
G02Y129626I-400J-480*
G01*
Y128106*
G75*
G02X133836Y127823I-400*
G01*
X132953Y126941*
Y121486*
G75*
G02X133053Y121381I-399J-480*
G01*
G75*
G02X133153Y121486I499J-375*
G01*
Y125756*
G75*
G02X133270Y126039I400*
G01*
X135153Y127922*
Y129626*
G75*
G02Y130586I400J480*
G01*
Y131026*
G75*
G02X135610Y132129I400J480*
G01*
X136620Y133139*
G75*
G02X136903Y133256I283J-283*
G01*
X148073*
G75*
G02X149178Y132856I480J-400*
G01*
G75*
G02X148073Y132456I-625*
G01*
X137069*
X136176Y131563*
G75*
G02X136178Y131506I-626J-50*
G01*
X137035*
G75*
G02X138071I518J-250*
G01*
X155446*
G75*
G03X107660I-23893J-1650*
G01*
X124928*
G37*
X132553Y121006D02*
Y112856D01*
X133553Y121006D02*
Y125756D01*
X135553Y127756*
Y130106*
X133553D02*
Y128106D01*
X132553Y127106*
Y121006*
X133553Y131506D02*
Y130106D01*
X135553Y131506D02*
X136903Y132856D01*
X148553*
X135553Y131506D02*
Y130106D01*
D02*
D105*
X131553Y120783D02*
Y120431D01*
Y121230D02*
Y121581D01*
Y129883D02*
Y129531D01*
Y130330D02*
Y130681D01*
Y131283D02*
Y130931D01*
Y131730D02*
Y132081D01*
D02*
D112*
X114553Y132856D03*
X125553Y130106D03*
Y131506D03*
X127553Y130106D03*
Y131506D03*
X128553Y121006D03*
X129553D03*
Y130106D03*
Y131506D03*
Y146856D03*
X130553Y121006D03*
X131553D03*
Y130106D03*
Y131506D03*
X132553Y112856D03*
Y121006D03*
X133553D03*
Y130106D03*
Y131506D03*
X135553Y130106D03*
Y131506D03*
X137553Y130106D03*
X148553Y132856D03*
X0Y0D02*
M02*
