G04 GENERATED BY PULSONIX 7.0 GERBER.DLL 4573*
%INHILLSTAR_30X30_EL_4LAYER_V1_0*%
%LNGERBER_DRILL*%
%FSLAX33Y33*%
%IPPOS*%
%LPD*%
%OFA0B0*%
%MOMM*%
%ADD10C,0.250*%
%ADD21C,0.125*%
%ADD106C,3.200*%
X0Y0D02*
D02*
D10*
X114553Y132856D03*
X125553Y130106D03*
Y131506D03*
X127553Y130106D03*
Y131506D03*
X128553Y121006D03*
X129553D03*
Y130106D03*
Y131506D03*
Y146856D03*
X130553Y121006D03*
X131553D03*
Y130106D03*
Y131506D03*
X132553Y112856D03*
Y121006D03*
X133553D03*
Y130106D03*
Y131506D03*
X135553Y130106D03*
Y131506D03*
X137553Y130106D03*
X148553Y132856D03*
D02*
D21*
X112230Y109018D02*
X112377Y108944D01*
X112451Y108797*
X112377Y108650*
X112230Y108577*
X111716*
Y109459*
X112230*
X112377Y109386*
X112451Y109239*
X112377Y109092*
X112230Y109018*
X111716*
X112230Y152018D02*
X112377Y151944D01*
X112451Y151797*
X112377Y151650*
X112230Y151577*
X111716*
Y152459*
X112230*
X112377Y152386*
X112451Y152239*
X112377Y152092*
X112230Y152018*
X111716*
X114741Y133077D02*
X115108Y133959D01*
X115476Y133077*
X114888Y133444D02*
X115329Y133444D01*
X125741Y130327D02*
X126108Y131209D01*
X126476Y130327*
X125888Y130694D02*
X126329Y130694D01*
X125741Y131727D02*
X126108Y132609D01*
X126476Y131727*
X125888Y132094D02*
X126329Y132094D01*
X127741Y130327D02*
X128108Y131209D01*
X128476Y130327*
X127888Y130694D02*
X128329Y130694D01*
X127741Y131727D02*
X128108Y132609D01*
X128476Y131727*
X127888Y132094D02*
X128329Y132094D01*
X128741Y121227D02*
X129108Y122109D01*
X129476Y121227*
X128888Y121594D02*
X129329Y121594D01*
X129741Y121227D02*
X130108Y122109D01*
X130476Y121227*
X129888Y121594D02*
X130329Y121594D01*
X129741Y130327D02*
X130108Y131209D01*
X130476Y130327*
X129888Y130694D02*
X130329Y130694D01*
X129741Y131727D02*
X130108Y132609D01*
X130476Y131727*
X129888Y132094D02*
X130329Y132094D01*
X129741Y147077D02*
X130108Y147959D01*
X130476Y147077*
X129888Y147444D02*
X130329Y147444D01*
X130741Y121227D02*
X131108Y122109D01*
X131476Y121227*
X130888Y121594D02*
X131329Y121594D01*
X131741Y121227D02*
X132108Y122109D01*
X132476Y121227*
X131888Y121594D02*
X132329Y121594D01*
X131741Y130327D02*
X132108Y131209D01*
X132476Y130327*
X131888Y130694D02*
X132329Y130694D01*
X131741Y131727D02*
X132108Y132609D01*
X132476Y131727*
X131888Y132094D02*
X132329Y132094D01*
X132741Y113077D02*
X133108Y113959D01*
X133476Y113077*
X132888Y113444D02*
X133329Y113444D01*
X132741Y121227D02*
X133108Y122109D01*
X133476Y121227*
X132888Y121594D02*
X133329Y121594D01*
X133741Y121227D02*
X134108Y122109D01*
X134476Y121227*
X133888Y121594D02*
X134329Y121594D01*
X133741Y130327D02*
X134108Y131209D01*
X134476Y130327*
X133888Y130694D02*
X134329Y130694D01*
X133741Y131727D02*
X134108Y132609D01*
X134476Y131727*
X133888Y132094D02*
X134329Y132094D01*
X135741Y130327D02*
X136108Y131209D01*
X136476Y130327*
X135888Y130694D02*
X136329Y130694D01*
X135741Y131727D02*
X136108Y132609D01*
X136476Y131727*
X135888Y132094D02*
X136329Y132094D01*
X137741Y130327D02*
X138108Y131209D01*
X138476Y130327*
X137888Y130694D02*
X138329Y130694D01*
X148741Y133077D02*
X149108Y133959D01*
X149476Y133077*
X148888Y133444D02*
X149329Y133444D01*
X155230Y109018D02*
X155377Y108944D01*
X155451Y108797*
X155377Y108650*
X155230Y108577*
X154716*
Y109459*
X155230*
X155377Y109386*
X155451Y109239*
X155377Y109092*
X155230Y109018*
X154716*
X155230Y152018D02*
X155377Y151944D01*
X155451Y151797*
X155377Y151650*
X155230Y151577*
X154716*
Y152459*
X155230*
X155377Y152386*
X155451Y152239*
X155377Y152092*
X155230Y152018*
X154716*
D02*
D106*
X110053Y108356D03*
Y151356D03*
X153053Y108356D03*
Y151356D03*
X0Y0D02*
M02*
