G04 GENERATED BY PULSONIX 7.0 GERBER.DLL 4573*
%INHILLSTAR_30X30_EL_4LAYER_V1_0*%
%LNGERBER_INNER1*%
%FSLAX33Y33*%
%IPPOS*%
%LPD*%
%OFA0B0*%
%MOMM*%
%ADD21C,0.125*%
%ADD112C,0.600*%
X0Y0D02*
D02*
D21*
X116153Y103852D02*
X116447Y103852D01*
X116300D02*
X116300Y104734D01*
X116153D02*
X116447Y104734D01*
X116691Y103852D02*
X116691Y104440D01*
Y104219D02*
X116764Y104367D01*
X116911Y104440*
X117058*
X117205Y104367*
X117279Y104219*
Y103852*
X117541D02*
X117541Y104440D01*
Y104219D02*
X117614Y104367D01*
X117761Y104440*
X117908*
X118055Y104367*
X118129Y104219*
Y103852*
X118979Y103925D02*
X118905Y103852D01*
X118758*
X118611*
X118464Y103925*
X118391Y104072*
Y104293*
X118464Y104367*
X118611Y104440*
X118758*
X118905Y104367*
X118979Y104293*
Y104219*
X118905Y104146*
X118758Y104072*
X118611*
X118464Y104146*
X118391Y104219*
X119241Y103852D02*
X119241Y104440D01*
Y104219D02*
X119314Y104367D01*
X119461Y104440*
X119608*
X119755Y104367*
X120700Y103852D02*
X120994Y103852D01*
X120847D02*
X120847Y104734D01*
X120700Y104587*
X121941Y104146D02*
X122529Y104146D01*
X123328Y103852D02*
X123328Y104734D01*
X124063Y103852*
Y104734*
X124341Y104146D02*
X124341Y104440D01*
X124414Y104587*
X124488Y104661*
X124635Y104734*
X124782*
X124929Y104661*
X125002Y104587*
X125076Y104440*
Y104146*
X125002Y103999*
X124929Y103925*
X124782Y103852*
X124635*
X124488Y103925*
X124414Y103999*
X124341Y104146*
X126479Y104367D02*
X126332Y104440D01*
X126111*
X125964Y104367*
X125891Y104219*
Y104072*
X125964Y103925*
X126111Y103852*
X126332*
X126479Y103925*
X126741Y104072D02*
X126814Y103925D01*
X126961Y103852*
X127108*
X127255Y103925*
X127329Y104072*
Y104219*
X127255Y104367*
X127108Y104440*
X126961*
X126814Y104367*
X126741Y104219*
Y104072*
X127591Y104440D02*
X127591Y103631D01*
Y104072D02*
X127664Y103925D01*
X127811Y103852*
X127958*
X128105Y103925*
X128179Y104072*
Y104219*
X128105Y104367*
X127958Y104440*
X127811*
X127664Y104367*
X127591Y104219*
Y104072*
X128441Y104440D02*
X128441Y103631D01*
Y104072D02*
X128514Y103925D01*
X128661Y103852*
X128808*
X128955Y103925*
X129029Y104072*
Y104219*
X128955Y104367*
X128808Y104440*
X128661*
X128514Y104367*
X128441Y104219*
Y104072*
X129879Y103925D02*
X129805Y103852D01*
X129658*
X129511*
X129364Y103925*
X129291Y104072*
Y104293*
X129364Y104367*
X129511Y104440*
X129658*
X129805Y104367*
X129879Y104293*
Y104219*
X129805Y104146*
X129658Y104072*
X129511*
X129364Y104146*
X129291Y104219*
X130141Y103852D02*
X130141Y104440D01*
Y104219D02*
X130214Y104367D01*
X130361Y104440*
X130508*
X130655Y104367*
X131453Y104146D02*
X132041Y104146D01*
X133429Y104219D02*
X133355Y104367D01*
X133208Y104440*
X133061*
X132914Y104367*
X132841Y104219*
Y104072*
X132914Y103925*
X133061Y103852*
X133208*
X133355Y103925*
X133429Y104072*
Y103852D02*
X133429Y104734D01*
X133691Y104440D02*
X133691Y104072D01*
X133764Y103925*
X133911Y103852*
X134058*
X134205Y103925*
X134279Y104072*
Y104440D02*
X134279Y103852D01*
X134541D02*
X134541Y104440D01*
Y104367D02*
X134614Y104440D01*
X134761*
X134835Y104367*
Y104146*
Y104367D02*
X134908Y104440D01*
X135055*
X135129Y104367*
Y103852*
X135391D02*
X135391Y104440D01*
Y104367D02*
X135464Y104440D01*
X135611*
X135685Y104367*
Y104146*
Y104367D02*
X135758Y104440D01*
X135905*
X135979Y104367*
Y103852*
X136241Y104440D02*
X136314Y104146D01*
X136461Y103999*
X136608*
X136755Y104146*
X136829Y104440*
X136755Y104146D02*
X136682Y103852D01*
X136608Y103705*
X136461Y103631*
X136314Y103705*
X137091Y103852D02*
X137826Y104734D01*
X138691Y103925D02*
X138618Y103852D01*
X138471*
X138324*
X138177Y103925*
X138103Y104072*
Y104293*
X138177Y104367*
X138324Y104440*
X138471*
X138618Y104367*
X138691Y104293*
Y104219*
X138618Y104146*
X138471Y104072*
X138324*
X138177Y104146*
X138103Y104219*
X138953Y103852D02*
X138953Y104440D01*
Y104367D02*
X139027Y104440D01*
X139174*
X139247Y104367*
Y104146*
Y104367D02*
X139321Y104440D01*
X139468*
X139541Y104367*
Y103852*
X139803Y104440D02*
X139803Y103631D01*
Y104072D02*
X139877Y103925D01*
X140024Y103852*
X140171*
X140318Y103925*
X140391Y104072*
Y104219*
X140318Y104367*
X140171Y104440*
X140024*
X139877Y104367*
X139803Y104219*
Y104072*
X140653Y104440D02*
X140947Y104440D01*
X140800Y104587D02*
X140800Y103925D01*
X140874Y103852*
X140947*
X141021Y103925*
X141278Y104440D02*
X141352Y104146D01*
X141499Y103999*
X141646*
X141793Y104146*
X141866Y104440*
X141793Y104146D02*
X141719Y103852D01*
X141646Y103705*
X141499Y103631*
X141352Y103705*
X142739Y103852D02*
X142666Y103852D01*
Y104734*
X142978Y104367D02*
X143125Y104440D01*
X143346*
X143493Y104367*
X143566Y104219*
Y103999*
X143493Y103925*
X143346Y103852*
X143199*
X143052Y103925*
X142978Y103999*
Y104072*
X143052Y104146*
X143199Y104219*
X143346*
X143493Y104146*
X143566Y104072*
Y103999D02*
X143566Y103852D01*
X143828Y104440D02*
X143902Y104146D01*
X144049Y103999*
X144196*
X144343Y104146*
X144416Y104440*
X144343Y104146D02*
X144269Y103852D01*
X144196Y103705*
X144049Y103631*
X143902Y103705*
X145266Y103925D02*
X145193Y103852D01*
X145046*
X144899*
X144752Y103925*
X144678Y104072*
Y104293*
X144752Y104367*
X144899Y104440*
X145046*
X145193Y104367*
X145266Y104293*
Y104219*
X145193Y104146*
X145046Y104072*
X144899*
X144752Y104146*
X144678Y104219*
X145528Y103852D02*
X145528Y104440D01*
Y104219D02*
X145602Y104367D01*
X145749Y104440*
X145896*
X146043Y104367*
X146303Y103852D02*
X146304Y103853D01*
Y103999D02*
X146303Y104734D01*
X146841Y103852D02*
X146842Y103853D01*
Y103999D02*
X146841Y104734D01*
D02*
D112*
X114553Y132856D03*
X125553Y130106D03*
Y131506D03*
X127553Y130106D03*
Y131506D03*
X128553Y121006D03*
X129553D03*
Y130106D03*
Y131506D03*
Y146856D03*
X130553Y121006D03*
X131553D03*
Y130106D03*
Y131506D03*
X132553Y112856D03*
Y121006D03*
X133553D03*
Y130106D03*
Y131506D03*
X135553Y130106D03*
Y131506D03*
X137553Y130106D03*
X148553Y132856D03*
X0Y0D02*
M02*
