G04 GENERATED BY PULSONIX 7.0 GERBER.DLL 4573*
%INHILLSTAR_30X30_EL_4LAYER_V1_0*%
%LNGERBER_SILKSCREEN_BOTTOM*%
%FSLAX33Y33*%
%IPPOS*%
%LPD*%
%OFA0B0*%
%MOMM*%
%ADD12C,0.150*%
%ADD20C,0.200*%
%ADD21C,0.125*%
%ADD22C,0.127*%
%ADD238C,0.203*%
X0Y0D02*
D02*
D12*
X122238Y109559D02*
X121796Y110001D01*
X121608Y109813*
X121594Y109801*
G75*
G02X126342Y108756I2259J-1045*
G01*
X126749*
X125936Y108070*
X125250Y108756*
X125657*
G75*
G03X122238Y109559I-1804*
G01*
G36*
X121796Y110001*
X121608Y109813*
X121594Y109801*
G75*
G02X126342Y108756I2259J-1045*
G01*
X126749*
X125936Y108070*
X125250Y108756*
X125657*
G75*
G03X122238Y109559I-1804*
G01*
G37*
X125468Y107954D02*
X125911Y107512D01*
X126099Y107700*
X126112Y107711*
G75*
G02X121364Y108756I-2259J1045*
G01*
X120958*
X121770Y109442*
X122456Y108756*
X122050*
G75*
G03X125468Y107954I1803*
G01*
G36*
X125911Y107512*
X126099Y107700*
X126112Y107711*
G75*
G02X121364Y108756I-2259J1045*
G01*
X120958*
X121770Y109442*
X122456Y108756*
X122050*
G75*
G03X125468Y107954I1803*
G01*
G37*
X131924Y141056D02*
X131924Y141350D01*
Y141203D02*
X132806Y141203D01*
Y141056D02*
X132806Y141350D01*
X131924Y141594D02*
X132512Y141594D01*
X132291D02*
X132438Y141667D01*
X132512Y141814*
Y141961*
X132438Y142108*
X132291Y142182*
X131924*
X131997Y142444D02*
X131924Y142591D01*
Y142885*
X131997Y143032*
X132144*
X132218Y142885*
Y142591*
X132291Y142444*
X132438*
X132512Y142591*
Y142885*
X132438Y143032*
X131997Y143882D02*
X131924Y143808D01*
Y143661*
Y143514*
X131997Y143367*
X132144Y143294*
X132365*
X132438Y143367*
X132512Y143514*
Y143661*
X132438Y143808*
X132365Y143882*
X132291*
X132218Y143808*
X132144Y143661*
Y143514*
X132218Y143367*
X132291Y143294*
X131924Y144144D02*
X132512Y144144D01*
X132291D02*
X132438Y144217D01*
X132512Y144364*
Y144511*
X132438Y144658*
X132512Y144919D02*
X132512Y145213D01*
X132659Y145066D02*
X131997Y145066D01*
X131924Y145139*
Y145213*
X131997Y145286*
X130424Y141056D02*
X131306Y141056D01*
X130865Y141424*
X131306Y141792*
X130424*
X130791Y142583D02*
X130791Y142804D01*
X130718*
X130571Y142731*
X130497Y142657*
X130424Y142510*
Y142363*
X130497Y142216*
X130571Y142142*
X130718Y142069*
X131012*
X131159Y142142*
X131233Y142216*
X131306Y142363*
Y142510*
X131233Y142657*
X131159Y142731*
X131012Y142804*
X130571Y143817D02*
X130497Y143743D01*
X130424Y143596*
Y143375*
X130497Y143228*
X130571Y143155*
X130718Y143081*
X131012*
X131159Y143155*
X131233Y143228*
X131306Y143375*
Y143596*
X131233Y143743*
X131159Y143817*
X130497Y144167D02*
X130424Y144314D01*
Y144461*
X130497Y144608*
X130644Y144682*
X130791Y144608*
X130865Y144461*
Y144314*
Y144461D02*
X130938Y144608D01*
X131085Y144682*
X131233Y144608*
X131306Y144461*
Y144314*
X131233Y144167*
X130424Y145091D02*
X130424Y145385D01*
Y145238D02*
X131306Y145238D01*
X131159Y145091*
X130497Y145867D02*
X130424Y146014D01*
Y146161*
X130497Y146308*
X130644Y146382*
X130791Y146308*
X130865Y146161*
Y146014*
Y146161D02*
X130938Y146308D01*
X131085Y146382*
X131233Y146308*
X131306Y146161*
Y146014*
X131233Y145867*
X130497Y146717D02*
X130424Y146864D01*
Y147011*
X130497Y147158*
X130644Y147232*
X131085*
X131233Y147158*
X131306Y147011*
Y146864*
X131233Y146717*
X131085Y146644*
X130644*
X130497Y146717*
X131233Y147158*
X131306Y148569D02*
X130644Y148569D01*
X130497Y148642*
X130424Y148789*
Y149083*
X130497Y149231*
X130644Y149304*
X131306*
X130424Y149581D02*
X131012Y149581D01*
X130791D02*
X130938Y149655D01*
X131012Y149802*
Y149949*
X130938Y150096*
X130791Y150169*
X130424*
Y150431D02*
X131012Y150431D01*
X131233D02*
X131234Y150432D01*
X131012Y150969D02*
X131012Y151263D01*
X131159Y151116D02*
X130497Y151116D01*
X130424Y151189*
Y151263*
X130497Y151336*
X139268Y131856D02*
X140327Y131856D01*
Y132739*
X139797Y132562D02*
X139797Y131856D01*
X139268D02*
X139268Y132739D01*
X140327Y133071D02*
X139268Y133071D01*
Y133954*
D02*
D20*
X124514Y108502D02*
Y108604D01*
X122772*
G75*
G02X123853Y109848I1081J152*
G01*
G75*
G02Y107664J-1092*
G01*
G75*
G02X122839Y108274I-56J1054*
G01*
X122863*
G75*
G03X124514Y108502I774J487*
G01*
X124488Y108807D02*
G75*
G03X123117I-685D01*
G01*
X124488*
X122834Y109150D02*
G36*
G75*
G03X122772Y108604I1019J-392D01*
G01*
X124514*
Y108502*
G75*
G02X122863Y108274I-877J259*
G01*
X122839*
G75*
G03X123853Y107664I958J444*
G01*
G75*
G03X124872Y109150J1092*
G01*
X124396*
G75*
G02X124488Y108807I-594J-343*
G01*
X123117*
G75*
G02X123208Y109150I686J2*
G01*
X122834*
G37*
X123208D02*
G36*
G75*
G02X124396I594J-343D01*
G01*
X124872*
G75*
G03X122834I-1019J-394*
G01*
X123208*
G37*
X128743Y111416D02*
G75*
G02Y111236J-90D01*
G01*
G75*
G02Y111416J90*
G01*
X135880Y108601D02*
X134442D01*
Y109312*
X135875*
G75*
G03X133959Y110627I-1662J-368*
G01*
Y111318*
G75*
G02X134213Y111332I258J-2374*
G01*
G75*
G02Y106557J-2387*
G01*
G75*
G02X133959Y106570I-5J2387*
G01*
Y107262*
G75*
G03X135880Y108601I254J1683*
G01*
G36*
X134442*
Y109312*
X135875*
G75*
G03X133959Y110627I-1662J-368*
G01*
Y111318*
G75*
G02X134213Y111332I258J-2374*
G01*
G75*
G02Y106557J-2387*
G01*
G75*
G02X133959Y106570I-5J2387*
G01*
Y107262*
G75*
G03X135880Y108601I254J1683*
G01*
G37*
X137553Y129081D02*
X138353Y127681D01*
X136753*
X137553Y129081*
G36*
X138353Y127681*
X136753*
X137553Y129081*
G37*
X138099Y106582D02*
Y107274D01*
G75*
G03X138353Y107254I260J1682*
G01*
G75*
G03Y110658J1702*
G01*
G75*
G03X138099Y110639J-1702*
G01*
Y111330*
G75*
G02X138353Y111344I258J-2374*
G01*
G75*
G02Y106569J-2387*
G01*
G75*
G02X138099Y106582I-5J2387*
G01*
G36*
Y107274*
G75*
G03X138353Y107254I260J1682*
G01*
G75*
G03Y110658J1702*
G01*
G75*
G03X138099Y110639J-1702*
G01*
Y111330*
G75*
G02X138353Y111344I258J-2374*
G01*
G75*
G02Y106569J-2387*
G01*
G75*
G02X138099Y106582I-5J2387*
G01*
G37*
X139153Y134656D02*
X138153D01*
X136153D02*
X135153D01*
X133153D02*
X132153D01*
X130153D02*
X129153D01*
X127153D02*
X126153D01*
X124153D02*
X123953D01*
Y135656*
Y137656D02*
Y138656D01*
Y140656D02*
Y141656D01*
Y143656D02*
Y144656D01*
Y146656D02*
Y147656D01*
Y149656D02*
Y150656D01*
Y152656D02*
Y153656D01*
Y153856D03*
X124953D01*
X126953D02*
X127953D01*
X129953D02*
X130953D01*
X132953D02*
X133953D01*
X135953D02*
X136953D01*
X138953D02*
X139153D01*
Y152856*
Y150856D02*
Y149856D01*
Y147856D02*
Y146856D01*
Y144856D02*
Y143856D01*
Y141856D02*
Y140856D01*
Y138856D02*
Y137856D01*
Y135856D02*
Y134856D01*
Y134656D03*
D02*
D21*
X124578Y130077D02*
X123990Y130959D01*
X124578*
X128178Y123286D02*
X128546Y122403D01*
X128913Y123286*
X128325Y122918D02*
X128766Y122918D01*
X129264Y123286D02*
X129191Y123286D01*
Y122403*
X129503Y122697D02*
X129797Y122697D01*
X129650Y122550D02*
X129650Y123212D01*
X129724Y123286*
X129797*
X129871Y123212*
X130716D02*
X130643Y123286D01*
X130496*
X130349*
X130202Y123212*
X130128Y123065*
Y122844*
X130202Y122771*
X130349Y122697*
X130496*
X130643Y122771*
X130716Y122844*
Y122918*
X130643Y122992*
X130496Y123065*
X130349*
X130202Y122992*
X130128Y122918*
X130978Y123286D02*
X130978Y122697D01*
Y122918D02*
X131052Y122771D01*
X131199Y122697*
X131346*
X131493Y122771*
X131753Y123286D02*
X131753Y122697D01*
Y122918D02*
X131827Y122771D01*
X131974Y122697*
X132121*
X132268Y122771*
X132341Y122918*
Y123286*
X132603Y122771D02*
X132750Y122697D01*
X132971*
X133118Y122771*
X133191Y122918*
Y123139*
X133118Y123212*
X132971Y123286*
X132824*
X132677Y123212*
X132603Y123139*
Y123065*
X132677Y122992*
X132824Y122918*
X132971*
X133118Y122992*
X133191Y123065*
Y123139D02*
X133191Y123286D01*
X133453Y122697D02*
X133747Y122697D01*
X133600Y122550D02*
X133600Y123212D01*
X133674Y123286*
X133747*
X133821Y123212*
X134666D02*
X134593Y123286D01*
X134446*
X134299*
X134152Y123212*
X134078Y123065*
Y122844*
X134152Y122771*
X134299Y122697*
X134446*
X134593Y122771*
X134666Y122844*
Y122918*
X134593Y122992*
X134446Y123065*
X134299*
X134152Y122992*
X134078Y122918*
X129341Y124786D02*
X129341Y123903D01*
X130076*
X129929Y124344D02*
X129341Y124344D01*
X130353Y124786D02*
X130353Y123903D01*
X130868*
X131015Y123977*
X131088Y124124*
X131015Y124271*
X130868Y124344*
X130353*
X132101Y124639D02*
X132027Y124712D01*
X131880Y124786*
X131660*
X131513Y124712*
X131439Y124639*
X131366Y124492*
Y124197*
X131439Y124050*
X131513Y123977*
X131660Y123903*
X131880*
X132027Y123977*
X132101Y124050*
X132916Y124492D02*
X133504Y124492D01*
X128532Y126139D02*
X128459Y126212D01*
X128312Y126286*
X128091*
X127944Y126212*
X127870Y126139*
X127797Y125992*
Y125697*
X127870Y125550*
X127944Y125477*
X128091Y125403*
X128312*
X128459Y125477*
X128532Y125550*
X128809Y126065D02*
X128883Y126212D01*
X129030Y126286*
X129177*
X129324Y126212*
X129398Y126065*
Y125918*
X129324Y125771*
X129177Y125697*
X129030*
X128883Y125771*
X128809Y125918*
Y126065*
X129659Y126286D02*
X129659Y125697D01*
Y125918D02*
X129733Y125771D01*
X129880Y125697*
X130027*
X130174Y125771*
X130248Y125918*
Y126286*
X130509D02*
X130509Y125697D01*
Y125918D02*
X130583Y125771D01*
X130730Y125697*
X130877*
X131024Y125771*
X131098Y125918*
Y126286*
X131948Y126212D02*
X131874Y126286D01*
X131727*
X131580*
X131433Y126212*
X131359Y126065*
Y125844*
X131433Y125771*
X131580Y125697*
X131727*
X131874Y125771*
X131948Y125844*
Y125918*
X131874Y125992*
X131727Y126065*
X131580*
X131433Y125992*
X131359Y125918*
X132798Y125771D02*
X132651Y125697D01*
X132430*
X132283Y125771*
X132209Y125918*
Y126065*
X132283Y126212*
X132430Y126286*
X132651*
X132798Y126212*
X133059Y125697D02*
X133354Y125697D01*
X133206Y125550D02*
X133206Y126212D01*
X133280Y126286*
X133354*
X133427Y126212*
X133684Y126065D02*
X133758Y126212D01*
X133905Y126286*
X134052*
X134199Y126212*
X134273Y126065*
Y125918*
X134199Y125771*
X134052Y125697*
X133905*
X133758Y125771*
X133684Y125918*
Y126065*
X134534Y126286D02*
X134534Y125697D01*
Y125918D02*
X134608Y125771D01*
X134755Y125697*
X134902*
X135049Y125771*
X138831Y130077D02*
X138537Y130077D01*
X138684D02*
X138684Y130959D01*
X138831Y130812*
D02*
D22*
X125248Y134606D02*
Y138301D01*
X125553Y138606*
X125858Y134606D02*
Y138301D01*
X125553Y138606*
X125858Y138301D02*
X125248D01*
X127248Y134606D02*
Y138301D01*
X127553Y138606*
X127858Y134606D02*
Y138301D01*
X127553Y138606*
X127858Y138301D02*
X127248D01*
X127963Y111796D02*
X131613Y108026D01*
X128863Y111196D02*
X129033Y108826D01*
X128873Y110996D02*
X128583D01*
Y110636*
X128873*
Y110996*
X129173Y108586D02*
G75*
G02Y108386J-100D01*
G01*
G75*
G02Y108586J100*
G01*
G36*
G75*
G02Y108386J-100*
G01*
G75*
G02Y108586J100*
G01*
G37*
Y108856D02*
G75*
G02Y108116J-370D01*
G01*
G75*
G02Y108856J370*
G01*
Y108836D02*
G75*
G02Y108136J-350D01*
G01*
G75*
G02Y108836J350*
G01*
X128803Y108486D02*
G36*
G75*
G03X129173Y108116I370D01*
G01*
G75*
G03X129543Y108486J370*
G01*
X129523*
G75*
G02X129173Y108136I-350*
G01*
G75*
G02X128823Y108486J350*
G01*
X128803*
G37*
X128823D02*
G36*
G75*
G02X129173Y108836I350D01*
G01*
G75*
G02X129523Y108486J-350*
G01*
X129543*
G75*
G03X129173Y108856I-370*
G01*
G75*
G03X128803Y108486J-370*
G01*
X128823*
G37*
X129248Y134606D02*
Y138301D01*
X129553Y138606*
X129433Y111566D02*
G75*
G03X128873Y111386I-42J-829D01*
G01*
Y111396*
X129858Y134606D02*
Y138301D01*
X129553Y138606*
X129858Y138301D02*
X129248D01*
X129943Y111686D02*
X129443D01*
Y111446*
X129943*
Y111686*
X129983Y110346D02*
X129253D01*
Y110516*
X129983*
Y110346*
G36*
X129253*
Y110516*
X129983*
Y110346*
G37*
X130323Y111546D02*
X129943Y111586D01*
X130433Y108436D02*
X130273D01*
Y108116*
X130433*
Y108436*
G36*
X130273*
Y108116*
X130433*
Y108436*
G37*
X130493Y111476D02*
G75*
G02X130743Y111226I-38J-288D01*
G01*
Y111196*
X130493Y111626D02*
X130323D01*
Y111196*
X130493*
Y111626*
X130673Y111196D02*
X130473Y108436D01*
X129543*
X130873Y111196D02*
X128723D01*
X131248Y134606D02*
Y138301D01*
X131553Y138606*
X131503Y107046D02*
X128203D01*
Y106196*
X131503*
Y107046*
G36*
X128203*
Y106196*
X131503*
Y107046*
G37*
X131743Y111796D02*
X128093Y108026D01*
X131858Y134606D02*
Y138301D01*
X131553Y138606*
X131858Y138301D02*
X131248D01*
X133248Y134606D02*
Y138301D01*
X133553Y138606*
X133858Y134606D02*
Y138301D01*
X133553Y138606*
X133858Y138301D02*
X133248D01*
X135248Y134606D02*
Y138301D01*
X135553Y138606*
X135858Y134606D02*
Y138301D01*
X135553Y138606*
X135858Y138301D02*
X135248D01*
X137248Y134606D02*
Y138301D01*
X137553Y138606*
X137858Y134606D02*
Y138301D01*
X137553Y138606*
X137858Y138301D02*
X137248D01*
D02*
D238*
X124553Y133106D02*
Y134606D01*
X138553*
Y133106*
X124553*
X0Y0D02*
M02*
