G04 GENERATED BY PULSONIX 7.0 GERBER.DLL 4573*
%INHILLSTAR_100X50_EL_4LAYER_V1_0*%
%LNGERBER_INNER2*%
%FSLAX33Y33*%
%IPPOS*%
%LPD*%
%OFA0B0*%
%MOMM*%
%ADD10C,0.250*%
%ADD12C,0.150*%
%ADD105C,0.400*%
%ADD112C,0.600*%
X0Y0D02*
D02*
D10*
X63734Y157400D02*
Y99400D01*
X66034*
G75*
G02X70034Y95400J-4000*
G01*
Y93100*
X180234*
Y94425*
G75*
G02X180434Y94625I200*
G01*
X184034*
Y95400*
G75*
G02X188034Y99400I4000*
G01*
X190334*
Y157400*
X188034*
G75*
G02X184034Y161400J4000*
G01*
Y163700*
X70034*
Y161400*
G75*
G02X66034Y157400I-4000*
G01*
X63734*
X75287Y134450D02*
G75*
G02X74109Y134900I-503J450D01*
G01*
G75*
G02X75287Y135350I675*
G01*
X80234*
Y144800*
G75*
G02X82234Y146800I2000*
G01*
X124584*
Y151897*
G75*
G02X124359Y152400I450J503*
G01*
G75*
G02X125709I675*
G01*
G75*
G02X125484Y151897I-675*
G01*
Y146800*
X171834*
G75*
G02X173834Y144800J-2000*
G01*
Y135350*
X178781*
G75*
G02X179959Y134900I503J-450*
G01*
G75*
G02X178781Y134450I-675*
G01*
X173834*
Y112000*
G75*
G02X171834Y110000I-2000*
G01*
X128484*
Y104903*
G75*
G02X128709Y104400I-450J-503*
G01*
G75*
G02X127359I-675*
G01*
G75*
G02X127584Y104903I675*
G01*
Y110000*
X82234*
G75*
G02X80234Y112000J2000*
G01*
Y134450*
X75287*
X70034Y95248D02*
X184034D01*
X69364Y97616D02*
X184703D01*
X63734Y99984D02*
X190334D01*
X63734Y102352D02*
X190334D01*
X63734Y104720D02*
X127439D01*
X128628D02*
X190334D01*
X63734Y107088D02*
X127584D01*
X128484D02*
X190334D01*
X63734Y109456D02*
X127584D01*
X128484D02*
X190334D01*
X63734Y111824D02*
X80242D01*
X173826D02*
X190334D01*
X63734Y114192D02*
X80234D01*
X173834D02*
X190334D01*
X63734Y116560D02*
X80234D01*
X173834D02*
X190334D01*
X63734Y118928D02*
X80234D01*
X173834D02*
X190334D01*
X63734Y121296D02*
X80234D01*
X173834D02*
X190334D01*
X63734Y123664D02*
X80234D01*
X173834D02*
X190334D01*
X63734Y126032D02*
X80234D01*
X173834D02*
X190334D01*
X63734Y128400D02*
X80234D01*
X173834D02*
X190334D01*
X63734Y130768D02*
X80234D01*
X173834D02*
X190334D01*
X63734Y133136D02*
X80234D01*
X173834D02*
X190334D01*
X63734Y135504D02*
X74483D01*
X75085D02*
X80234D01*
X173834D02*
X178983D01*
X179585D02*
X190334D01*
X63734Y137872D02*
X80234D01*
X173834D02*
X190334D01*
X63734Y140240D02*
X80234D01*
X173834D02*
X190334D01*
X63734Y142608D02*
X80234D01*
X173834D02*
X190334D01*
X63734Y144976D02*
X80242D01*
X173826D02*
X190334D01*
X63734Y147344D02*
X124584D01*
X125484D02*
X190334D01*
X63734Y149712D02*
X124584D01*
X125484D02*
X190334D01*
X63734Y152080D02*
X124439D01*
X125628D02*
X190334D01*
X63734Y154448D02*
X190334D01*
X63734Y156816D02*
X190334D01*
X69364Y159184D02*
X184703D01*
X70034Y161552D02*
X184034D01*
X65465Y99400D02*
Y157400D01*
X67833Y98972D02*
Y157828D01*
X70201Y93100D02*
Y163700D01*
X72569Y93100D02*
Y163700D01*
X74937Y93100D02*
Y134243D01*
Y135557D02*
Y163700D01*
X77305Y93100D02*
Y134450D01*
Y135350D02*
Y163700D01*
X79673Y93100D02*
Y134450D01*
Y135350D02*
Y163700D01*
X82041Y93100D02*
Y110009D01*
Y146791D02*
Y163700D01*
X84409Y93100D02*
Y110000D01*
Y146800D02*
Y163700D01*
X86777Y93100D02*
Y110000D01*
Y146800D02*
Y163700D01*
X89145Y93100D02*
Y110000D01*
Y146800D02*
Y163700D01*
X91513Y93100D02*
Y110000D01*
Y146800D02*
Y163700D01*
X93881Y93100D02*
Y110000D01*
Y146800D02*
Y163700D01*
X96249Y93100D02*
Y110000D01*
Y146800D02*
Y163700D01*
X98617Y93100D02*
Y110000D01*
Y146800D02*
Y163700D01*
X100985Y93100D02*
Y110000D01*
Y146800D02*
Y163700D01*
X103353Y93100D02*
Y110000D01*
Y146800D02*
Y163700D01*
X105721Y93100D02*
Y110000D01*
Y146800D02*
Y163700D01*
X108089Y93100D02*
Y110000D01*
Y146800D02*
Y163700D01*
X110458Y93100D02*
Y110000D01*
Y146800D02*
Y163700D01*
X112826Y93100D02*
Y110000D01*
Y146800D02*
Y163700D01*
X115194Y93100D02*
Y110000D01*
Y146800D02*
Y163700D01*
X117562Y93100D02*
Y110000D01*
Y146800D02*
Y163700D01*
X119930Y93100D02*
Y110000D01*
Y146800D02*
Y163700D01*
X122298Y93100D02*
Y110000D01*
Y146800D02*
Y163700D01*
X124666Y93100D02*
Y110000D01*
Y152966D02*
Y163700D01*
X127034Y93100D02*
Y110000D01*
Y146800D02*
Y163700D01*
X129402Y93100D02*
Y110000D01*
Y146800D02*
Y163700D01*
X131770Y93100D02*
Y110000D01*
Y146800D02*
Y163700D01*
X134138Y93100D02*
Y110000D01*
Y146800D02*
Y163700D01*
X136506Y93100D02*
Y110000D01*
Y146800D02*
Y163700D01*
X138874Y93100D02*
Y110000D01*
Y146800D02*
Y163700D01*
X141242Y93100D02*
Y110000D01*
Y146800D02*
Y163700D01*
X143610Y93100D02*
Y110000D01*
Y146800D02*
Y163700D01*
X145978Y93100D02*
Y110000D01*
Y146800D02*
Y163700D01*
X148346Y93100D02*
Y110000D01*
Y146800D02*
Y163700D01*
X150714Y93100D02*
Y110000D01*
Y146800D02*
Y163700D01*
X153082Y93100D02*
Y110000D01*
Y146800D02*
Y163700D01*
X155450Y93100D02*
Y110000D01*
Y146800D02*
Y163700D01*
X157818Y93100D02*
Y110000D01*
Y146800D02*
Y163700D01*
X160186Y93100D02*
Y110000D01*
Y146800D02*
Y163700D01*
X162554Y93100D02*
Y110000D01*
Y146800D02*
Y163700D01*
X164922Y93100D02*
Y110000D01*
Y146800D02*
Y163700D01*
X167290Y93100D02*
Y110000D01*
Y146800D02*
Y163700D01*
X169658Y93100D02*
Y110000D01*
Y146800D02*
Y163700D01*
X172026Y93100D02*
Y110009D01*
Y146791D02*
Y163700D01*
X174394Y93100D02*
Y134450D01*
Y135350D02*
Y163700D01*
X176762Y93100D02*
Y134450D01*
Y135350D02*
Y163700D01*
X179130Y93100D02*
Y134243D01*
Y135557D02*
Y163700D01*
X181498Y94625D02*
Y163700D01*
X183866Y94625D02*
Y163700D01*
X186234Y98972D02*
Y157828D01*
X188603Y99400D02*
Y157400D01*
X80234Y134450D02*
Y112000D01*
G75*
G03X82234Y110000I2000*
G01*
X127584*
Y122312*
G75*
G02X127497Y122406I452J505*
G01*
G75*
G02X126570I-463J420*
G01*
G75*
G02X125574Y122321I-537J409*
G01*
G75*
G02X124489Y122327I-540J404*
G01*
G75*
G02X123359Y122825I-455J498*
G01*
G75*
G02X123584Y123328I675*
G01*
Y126214*
X120716Y129082*
G75*
G02X120584Y129400I318J318*
G01*
Y132397*
G75*
G02X120359Y132900I450J503*
G01*
G75*
G02X121709I675*
G01*
G75*
G02X121484Y132397I-675*
G01*
Y129586*
X124352Y126718*
G75*
G02X124484Y126400I-318J-318*
G01*
Y123328*
G75*
G02X124579Y123223I-452J-504*
G01*
G75*
G02X124584Y123228I488J-483*
G01*
Y127214*
X122716Y129082*
G75*
G02X122584Y129400I318J318*
G01*
Y132397*
G75*
G02Y133403I450J503*
G01*
Y134314*
X122447Y134450*
X80234*
X80939Y110475D02*
X127584D01*
X80350Y111329D02*
X127584D01*
X80234Y112183D02*
X127584D01*
X80234Y113036D02*
X127584D01*
X80234Y113890D02*
X127584D01*
X80234Y114743D02*
X127584D01*
X80234Y115597D02*
X127584D01*
X80234Y116450D02*
X127584D01*
X80234Y117304D02*
X127584D01*
X80234Y118157D02*
X127584D01*
X80234Y119011D02*
X127584D01*
X80234Y119865D02*
X127584D01*
X80234Y120718D02*
X127584D01*
X80234Y121572D02*
X127584D01*
X80234Y122425D02*
X123490D01*
X80234Y123279D02*
X123534D01*
X124534D02*
X124584D01*
X80234Y124132D02*
X123584D01*
X124484D02*
X124584D01*
X80234Y124986D02*
X123584D01*
X124484D02*
X124584D01*
X80234Y125839D02*
X123584D01*
X124484D02*
X124584D01*
X80234Y126693D02*
X123104D01*
X124375D02*
X124584D01*
X80234Y127546D02*
X122251D01*
X123524D02*
X124251D01*
X80234Y128400D02*
X121397D01*
X122670D02*
X123397D01*
X80234Y129254D02*
X120608D01*
X121817D02*
X122608D01*
X80234Y130107D02*
X120584D01*
X121484D02*
X122584D01*
X80234Y130961D02*
X120584D01*
X121484D02*
X122584D01*
X80234Y131814D02*
X120584D01*
X121484D02*
X122584D01*
X80234Y132668D02*
X120400D01*
X121668D02*
X122400D01*
X80234Y133521D02*
X120770D01*
X121298D02*
X122584D01*
X80234Y134375D02*
X122522D01*
X80942Y110473D02*
Y134450D01*
X81796Y110049D02*
Y134450D01*
X82649Y110000D02*
Y134450D01*
X83503Y110000D02*
Y134450D01*
X84356Y110000D02*
Y134450D01*
X85210Y110000D02*
Y134450D01*
X86063Y110000D02*
Y134450D01*
X86917Y110000D02*
Y134450D01*
X87770Y110000D02*
Y134450D01*
X88624Y110000D02*
Y134450D01*
X89478Y110000D02*
Y134450D01*
X90331Y110000D02*
Y134450D01*
X91185Y110000D02*
Y134450D01*
X92038Y110000D02*
Y134450D01*
X92892Y110000D02*
Y134450D01*
X93745Y110000D02*
Y134450D01*
X94599Y110000D02*
Y134450D01*
X95452Y110000D02*
Y134450D01*
X96306Y110000D02*
Y134450D01*
X97159Y110000D02*
Y134450D01*
X98013Y110000D02*
Y134450D01*
X98867Y110000D02*
Y134450D01*
X99720Y110000D02*
Y134450D01*
X100574Y110000D02*
Y134450D01*
X101427Y110000D02*
Y134450D01*
X102281Y110000D02*
Y134450D01*
X103134Y110000D02*
Y134450D01*
X103988Y110000D02*
Y134450D01*
X104841Y110000D02*
Y134450D01*
X105695Y110000D02*
Y134450D01*
X106549Y110000D02*
Y134450D01*
X107402Y110000D02*
Y134450D01*
X108256Y110000D02*
Y134450D01*
X109109Y110000D02*
Y134450D01*
X109963Y110000D02*
Y134450D01*
X110816Y110000D02*
Y134450D01*
X111670Y110000D02*
Y134450D01*
X112523Y110000D02*
Y134450D01*
X113377Y110000D02*
Y134450D01*
X114230Y110000D02*
Y134450D01*
X115084Y110000D02*
Y134450D01*
X115938Y110000D02*
Y134450D01*
X116791Y110000D02*
Y134450D01*
X117645Y110000D02*
Y134450D01*
X118498Y110000D02*
Y134450D01*
X119352Y110000D02*
Y134450D01*
X120205Y110000D02*
Y134450D01*
X121059Y110000D02*
Y128738D01*
Y133575D02*
Y134450D01*
X121912Y110000D02*
Y127885D01*
Y129158D02*
Y134450D01*
X122766Y110000D02*
Y127031D01*
Y128304D02*
Y129031D01*
X123620Y110000D02*
Y122292D01*
Y127451D02*
Y128178D01*
X124473Y110000D02*
Y122313D01*
Y126497D02*
Y127324D01*
X125327Y110000D02*
Y122117D01*
X126180Y110000D02*
Y122156D01*
X127034Y110000D02*
Y122200D01*
X80234Y135350D02*
X122634D01*
G75*
G02X122952Y135218J-450*
G01*
X123352Y134818*
G75*
G02X123484Y134500I-318J-318*
G01*
Y133403*
G75*
G02Y132397I-450J-503*
G01*
Y129586*
X125352Y127718*
G75*
G02X125484Y127400I-318J-318*
G01*
Y123228*
G75*
G02X125493Y123219I-465J-474*
G01*
G75*
G02X125584Y123318I542J-407*
G01*
Y128214*
X124716Y129082*
G75*
G02X124584Y129400I318J318*
G01*
Y132397*
G75*
G02Y133403I450J503*
G01*
Y146800*
X82234*
G75*
G03X80234Y144800J-2000*
G01*
Y135350*
X125484Y123279D02*
X125543D01*
X125484Y124132D02*
X125584D01*
X125484Y124986D02*
X125584D01*
X125484Y125839D02*
X125584D01*
X125484Y126693D02*
X125584D01*
X125459Y127546D02*
X125584D01*
X124670Y128400D02*
X125397D01*
X123817Y129254D02*
X124608D01*
X123484Y130107D02*
X124584D01*
X123484Y130961D02*
X124584D01*
X123484Y131814D02*
X124584D01*
X123668Y132668D02*
X124400D01*
X123484Y133521D02*
X124584D01*
X123484Y134375D02*
X124584D01*
X122941Y135228D02*
X124584D01*
X80234Y136082D02*
X124584D01*
X80234Y136936D02*
X124584D01*
X80234Y137789D02*
X124584D01*
X80234Y138643D02*
X124584D01*
X80234Y139496D02*
X124584D01*
X80234Y140350D02*
X124584D01*
X80234Y141203D02*
X124584D01*
X80234Y142057D02*
X124584D01*
X80234Y142910D02*
X124584D01*
X80234Y143764D02*
X124584D01*
X80234Y144617D02*
X124584D01*
X80350Y145471D02*
X124584D01*
X80939Y146325D02*
X124584D01*
X80942Y135350D02*
Y146327D01*
X81796Y135350D02*
Y146751D01*
X82649Y135350D02*
Y146800D01*
X83503Y135350D02*
Y146800D01*
X84356Y135350D02*
Y146800D01*
X85210Y135350D02*
Y146800D01*
X86063Y135350D02*
Y146800D01*
X86917Y135350D02*
Y146800D01*
X87770Y135350D02*
Y146800D01*
X88624Y135350D02*
Y146800D01*
X89478Y135350D02*
Y146800D01*
X90331Y135350D02*
Y146800D01*
X91185Y135350D02*
Y146800D01*
X92038Y135350D02*
Y146800D01*
X92892Y135350D02*
Y146800D01*
X93745Y135350D02*
Y146800D01*
X94599Y135350D02*
Y146800D01*
X95452Y135350D02*
Y146800D01*
X96306Y135350D02*
Y146800D01*
X97159Y135350D02*
Y146800D01*
X98013Y135350D02*
Y146800D01*
X98867Y135350D02*
Y146800D01*
X99720Y135350D02*
Y146800D01*
X100574Y135350D02*
Y146800D01*
X101427Y135350D02*
Y146800D01*
X102281Y135350D02*
Y146800D01*
X103134Y135350D02*
Y146800D01*
X103988Y135350D02*
Y146800D01*
X104841Y135350D02*
Y146800D01*
X105695Y135350D02*
Y146800D01*
X106549Y135350D02*
Y146800D01*
X107402Y135350D02*
Y146800D01*
X108256Y135350D02*
Y146800D01*
X109109Y135350D02*
Y146800D01*
X109963Y135350D02*
Y146800D01*
X110816Y135350D02*
Y146800D01*
X111670Y135350D02*
Y146800D01*
X112523Y135350D02*
Y146800D01*
X113377Y135350D02*
Y146800D01*
X114230Y135350D02*
Y146800D01*
X115084Y135350D02*
Y146800D01*
X115938Y135350D02*
Y146800D01*
X116791Y135350D02*
Y146800D01*
X117645Y135350D02*
Y146800D01*
X118498Y135350D02*
Y146800D01*
X119352Y135350D02*
Y146800D01*
X120205Y135350D02*
Y146800D01*
X121059Y135350D02*
Y146800D01*
X121912Y135350D02*
Y146800D01*
X122766Y135330D02*
Y146800D01*
X123620Y129451D02*
Y132565D01*
Y133235D02*
Y146800D01*
X124473Y128597D02*
Y132524D01*
Y133276D02*
Y146800D01*
X125327Y127744D02*
Y128471D01*
X125484Y146800D02*
Y133403D01*
G75*
G02Y132397I-450J-503*
G01*
Y129586*
X126352Y128718*
G75*
G02X126484Y128400I-318J-318*
G01*
Y123318*
G75*
G02X126562Y123235I-450J-501*
G01*
G75*
G02X127505I472J-410*
G01*
G75*
G02X127584Y123318I528J-424*
G01*
Y128400*
G75*
G02X127716Y128718I450*
G01*
X128584Y129586*
Y132397*
G75*
G02X128359Y132900I450J503*
G01*
G75*
G02X129709I675*
G01*
G75*
G02X129484Y132397I-675*
G01*
Y129400*
G75*
G02X129352Y129082I-450*
G01*
X128484Y128214*
Y123318*
G75*
G02X128534Y123268I-453J-503*
G01*
G75*
G02X128584Y123318I503J-453*
G01*
Y127400*
G75*
G02X128716Y127718I450*
G01*
X130584Y129586*
Y132397*
G75*
G02Y133403I450J503*
G01*
Y134500*
G75*
G02X130716Y134818I450*
G01*
X131116Y135218*
G75*
G02X131434Y135350I318J-318*
G01*
X173834*
Y144800*
G75*
G03X171834Y146800I-2000*
G01*
X125484*
X126409Y132900D02*
G75*
G02X127659I625D01*
G01*
G75*
G02X126409I-625*
G01*
X126524Y123279D02*
X126604D01*
X127464D02*
X127543D01*
X128524D02*
X128543D01*
X126484Y124132D02*
X127584D01*
X128484D02*
X128584D01*
X126484Y124986D02*
X127584D01*
X128484D02*
X128584D01*
X126484Y125839D02*
X127584D01*
X128484D02*
X128584D01*
X126484Y126693D02*
X127584D01*
X128484D02*
X128584D01*
X126484Y127546D02*
X127584D01*
X128484D02*
X128608D01*
X126484Y128400D02*
X127584D01*
X128670D02*
X129397D01*
X125817Y129254D02*
X128251D01*
X129459D02*
X130251D01*
X125484Y130107D02*
X128584D01*
X129484D02*
X130584D01*
X125484Y130961D02*
X128584D01*
X129484D02*
X130584D01*
X125484Y131814D02*
X128584D01*
X129484D02*
X130584D01*
X125668Y132668D02*
X126453D01*
X127614D02*
X128400D01*
X129668D02*
X130400D01*
X125484Y133521D02*
X126966D01*
X127102D02*
X128770D01*
X129298D02*
X130584D01*
X125484Y134375D02*
X130584D01*
X125484Y135228D02*
X131126D01*
X125484Y136082D02*
X173834D01*
X125484Y136936D02*
X173834D01*
X125484Y137789D02*
X173834D01*
X125484Y138643D02*
X173834D01*
X125484Y139496D02*
X173834D01*
X125484Y140350D02*
X173834D01*
X125484Y141203D02*
X173834D01*
X125484Y142057D02*
X173834D01*
X125484Y142910D02*
X173834D01*
X125484Y143764D02*
X173834D01*
X125484Y144617D02*
X173834D01*
X125484Y145471D02*
X173718D01*
X125484Y146325D02*
X173128D01*
X126180Y128890D02*
Y146800D01*
X127034Y123450D02*
Y132275D01*
Y133525D02*
Y146800D01*
X127887Y128890D02*
Y146800D01*
X128741Y127744D02*
Y128471D01*
Y133508D02*
Y146800D01*
X129594Y128597D02*
Y132524D01*
Y133276D02*
Y146800D01*
X130448Y129451D02*
Y132565D01*
Y133235D02*
Y146800D01*
X131301Y135330D02*
Y146800D01*
X132155Y135350D02*
Y146800D01*
X133009Y135350D02*
Y146800D01*
X133862Y135350D02*
Y146800D01*
X134716Y135350D02*
Y146800D01*
X135569Y135350D02*
Y146800D01*
X136423Y135350D02*
Y146800D01*
X137276Y135350D02*
Y146800D01*
X138130Y135350D02*
Y146800D01*
X138983Y135350D02*
Y146800D01*
X139837Y135350D02*
Y146800D01*
X140691Y135350D02*
Y146800D01*
X141544Y135350D02*
Y146800D01*
X142398Y135350D02*
Y146800D01*
X143251Y135350D02*
Y146800D01*
X144105Y135350D02*
Y146800D01*
X144958Y135350D02*
Y146800D01*
X145812Y135350D02*
Y146800D01*
X146665Y135350D02*
Y146800D01*
X147519Y135350D02*
Y146800D01*
X148372Y135350D02*
Y146800D01*
X149226Y135350D02*
Y146800D01*
X150080Y135350D02*
Y146800D01*
X150933Y135350D02*
Y146800D01*
X151787Y135350D02*
Y146800D01*
X152640Y135350D02*
Y146800D01*
X153494Y135350D02*
Y146800D01*
X154347Y135350D02*
Y146800D01*
X155201Y135350D02*
Y146800D01*
X156054Y135350D02*
Y146800D01*
X156908Y135350D02*
Y146800D01*
X157762Y135350D02*
Y146800D01*
X158615Y135350D02*
Y146800D01*
X159469Y135350D02*
Y146800D01*
X160322Y135350D02*
Y146800D01*
X161176Y135350D02*
Y146800D01*
X162029Y135350D02*
Y146800D01*
X162883Y135350D02*
Y146800D01*
X163736Y135350D02*
Y146800D01*
X164590Y135350D02*
Y146800D01*
X165443Y135350D02*
Y146800D01*
X166297Y135350D02*
Y146800D01*
X167151Y135350D02*
Y146800D01*
X168004Y135350D02*
Y146800D01*
X168858Y135350D02*
Y146800D01*
X169711Y135350D02*
Y146800D01*
X170565Y135350D02*
Y146800D01*
X171418Y135350D02*
Y146800D01*
X172272Y135350D02*
Y146751D01*
X173125Y135350D02*
Y146327D01*
X128484Y110000D02*
X171834D01*
G75*
G03X173834Y112000J2000*
G01*
Y134450*
X131620*
X131484Y134314*
Y133403*
G75*
G02Y132397I-450J-503*
G01*
Y129400*
G75*
G02X131352Y129082I-450*
G01*
X129484Y127214*
Y123318*
G75*
G02X129709Y122815I-450J-503*
G01*
G75*
G02X128534Y122362I-675*
G01*
G75*
G02X128484Y122312I-503J453*
G01*
Y110000*
X132409Y132900D02*
G75*
G02X133659I625D01*
G01*
G75*
G02X132409I-625*
G01*
X128484Y110475D02*
X173128D01*
X128484Y111329D02*
X173718D01*
X128484Y112183D02*
X173834D01*
X128484Y113036D02*
X173834D01*
X128484Y113890D02*
X173834D01*
X128484Y114743D02*
X173834D01*
X128484Y115597D02*
X173834D01*
X128484Y116450D02*
X173834D01*
X128484Y117304D02*
X173834D01*
X128484Y118157D02*
X173834D01*
X128484Y119011D02*
X173834D01*
X128484Y119865D02*
X173834D01*
X128484Y120718D02*
X173834D01*
X128484Y121572D02*
X173834D01*
X129585Y122425D02*
X173834D01*
X129524Y123279D02*
X173834D01*
X129484Y124132D02*
X173834D01*
X129484Y124986D02*
X173834D01*
X129484Y125839D02*
X173834D01*
X129484Y126693D02*
X173834D01*
X129817Y127546D02*
X173834D01*
X130670Y128400D02*
X173834D01*
X131459Y129254D02*
X173834D01*
X131484Y130107D02*
X173834D01*
X131484Y130961D02*
X173834D01*
X131484Y131814D02*
X173834D01*
X131668Y132668D02*
X132453D01*
X133614D02*
X173834D01*
X131484Y133521D02*
X132966D01*
X133102D02*
X173834D01*
X131545Y134375D02*
X173834D01*
X128741Y110000D02*
Y122207D01*
X129594Y110000D02*
Y122439D01*
Y123191D02*
Y127324D01*
X130448Y110000D02*
Y128178D01*
X131301Y110000D02*
Y129031D01*
X132155Y110000D02*
Y134450D01*
X133009Y110000D02*
Y132276D01*
Y133524D02*
Y134450D01*
X133862Y110000D02*
Y134450D01*
X134716Y110000D02*
Y134450D01*
X135569Y110000D02*
Y134450D01*
X136423Y110000D02*
Y134450D01*
X137276Y110000D02*
Y134450D01*
X138130Y110000D02*
Y134450D01*
X138983Y110000D02*
Y134450D01*
X139837Y110000D02*
Y134450D01*
X140691Y110000D02*
Y134450D01*
X141544Y110000D02*
Y134450D01*
X142398Y110000D02*
Y134450D01*
X143251Y110000D02*
Y134450D01*
X144105Y110000D02*
Y134450D01*
X144958Y110000D02*
Y134450D01*
X145812Y110000D02*
Y134450D01*
X146665Y110000D02*
Y134450D01*
X147519Y110000D02*
Y134450D01*
X148372Y110000D02*
Y134450D01*
X149226Y110000D02*
Y134450D01*
X150080Y110000D02*
Y134450D01*
X150933Y110000D02*
Y134450D01*
X151787Y110000D02*
Y134450D01*
X152640Y110000D02*
Y134450D01*
X153494Y110000D02*
Y134450D01*
X154347Y110000D02*
Y134450D01*
X155201Y110000D02*
Y134450D01*
X156054Y110000D02*
Y134450D01*
X156908Y110000D02*
Y134450D01*
X157762Y110000D02*
Y134450D01*
X158615Y110000D02*
Y134450D01*
X159469Y110000D02*
Y134450D01*
X160322Y110000D02*
Y134450D01*
X161176Y110000D02*
Y134450D01*
X162029Y110000D02*
Y134450D01*
X162883Y110000D02*
Y134450D01*
X163736Y110000D02*
Y134450D01*
X164590Y110000D02*
Y134450D01*
X165443Y110000D02*
Y134450D01*
X166297Y110000D02*
Y134450D01*
X167151Y110000D02*
Y134450D01*
X168004Y110000D02*
Y134450D01*
X168858Y110000D02*
Y134450D01*
X169711Y110000D02*
Y134450D01*
X170565Y110000D02*
Y134450D01*
X171418Y110000D02*
Y134450D01*
X172272Y110049D02*
Y134450D01*
X173125Y110473D02*
Y134450D01*
D02*
D12*
X121034Y132900D02*
Y129400D01*
X124034Y126400*
Y122825*
X123034Y132900D02*
Y134500D01*
X122634Y134900*
X74784*
X123034Y132900D02*
Y129400D01*
X125034Y127400*
Y122725*
Y132900D02*
Y152400D01*
Y132900D02*
Y129400D01*
X126034Y128400*
Y122815*
X128034D02*
Y128400D01*
X129034Y129400*
Y132900*
X128034Y122815D02*
Y104400D01*
X131034Y132900D02*
Y134500D01*
X131434Y134900*
X179284*
X131034Y132900D02*
Y129400D01*
X129034Y127400*
Y122815*
D02*
D105*
X127034Y122601D02*
Y122200D01*
Y123049D02*
Y123450D01*
Y132676D02*
Y132275D01*
Y133124D02*
Y133525D01*
D02*
D112*
X74784Y134900D03*
X121034Y132900D03*
X123034D03*
X124034Y122825D03*
X125034Y122725D03*
Y132900D03*
Y152400D03*
X126034Y122815D03*
X127034Y122825D03*
Y132900D03*
X128034Y104400D03*
Y122815D03*
X129034D03*
Y132900D03*
X131034D03*
X133034D03*
X179284Y134900D03*
X0Y0D02*
M02*
