M48
INCH
T01C00.010
T02C00.126
%
M70
T01
X02944Y05311
X04765Y05232
X04844Y05232
X04883Y04836
X04923Y04832
X04923Y05232
X04923Y06000
X04962Y04835
X05001Y04836
X05001Y05232
X05041Y04110
X05041Y04835
X05080Y04835
X05080Y05232
X05159Y05232
X05238Y05232
X07058Y05311
T02
X02600Y03756
X02600Y06354
X07403Y03756
X07403Y06354
M30
