G04 GENERATED BY PULSONIX 7.0 GERBER.DLL 4573*
%INHILLSTAR_100X50_EL_4LAYER_V1_0*%
%LNGERBER_TOP*%
%FSLAX33Y33*%
%IPPOS*%
%LPD*%
%OFA0B0*%
%MOMM*%
%ADD12C,0.150*%
%ADD21C,0.125*%
%ADD112C,0.600*%
X0Y0D02*
D02*
D12*
X73234Y156800D02*
X72234D01*
G75*
G03X70234Y154800J-2000*
G01*
Y102000*
G75*
G03X72234Y100000I2000*
G01*
X73234*
G75*
G03X75234Y102000J2000*
G01*
Y154800*
G75*
G03X73234Y156800I-2000*
G01*
G36*
X72234*
G75*
G03X70234Y154800J-2000*
G01*
Y102000*
G75*
G03X72234Y100000I2000*
G01*
X73234*
G75*
G03X75234Y102000J2000*
G01*
Y154800*
G75*
G03X73234Y156800I-2000*
G01*
G37*
X77234Y103000D02*
Y102000D01*
G75*
G03X79234Y100000I2000*
G01*
X174834*
G75*
G03X176834Y102000J2000*
G01*
Y103000*
G75*
G03X174834Y105000I-2000*
G01*
X79234*
G75*
G03X77234Y103000J-2000*
G01*
G36*
Y102000*
G75*
G03X79234Y100000I2000*
G01*
X174834*
G75*
G03X176834Y102000J2000*
G01*
Y103000*
G75*
G03X174834Y105000I-2000*
G01*
X79234*
G75*
G03X77234Y103000J-2000*
G01*
G37*
Y154800D02*
Y153800D01*
G75*
G03X79234Y151800I2000*
G01*
X174834*
G75*
G03X176834Y153800J2000*
G01*
Y154800*
G75*
G03X174834Y156800I-2000*
G01*
X79234*
G75*
G03X77234Y154800J-2000*
G01*
G36*
Y153800*
G75*
G03X79234Y151800I2000*
G01*
X174834*
G75*
G03X176834Y153800J2000*
G01*
Y154800*
G75*
G03X174834Y156800I-2000*
G01*
X79234*
G75*
G03X77234Y154800J-2000*
G01*
G37*
X82234Y146800D02*
G75*
G03X80234Y144800J-2000D01*
G01*
Y112000*
G75*
G03X82234Y110000I2000*
G01*
X171834*
G75*
G03X173834Y112000J2000*
G01*
Y144800*
G75*
G03X171834Y146800I-2000*
G01*
X82234*
X122409Y132900D02*
G75*
G02X123659I625D01*
G01*
G75*
G02X122409I-625*
G01*
X125500Y123141D02*
G75*
G02X126530Y123195I534J-326D01*
G01*
G75*
G02X127537I504J-370*
G01*
G75*
G02X128534Y123190I497J-380*
G01*
G75*
G02X129659Y122815I500J-375*
G01*
G75*
G02X128534Y122440I-625*
G01*
G75*
G02X127530Y122445I-500J375*
G01*
G75*
G02X126537I-496J380*
G01*
G75*
G02X125567Y122399I-504J370*
G01*
G75*
G02X124409Y122725I-533J326*
G01*
G75*
G02X125500Y123141I625*
G01*
X130409Y132900D02*
G75*
G02X131659I625D01*
G01*
G75*
G02X130409I-625*
G01*
X167279Y110000D02*
X173834Y116555D01*
X158901Y110000D02*
X173834Y124933D01*
X150523Y110000D02*
X173834Y133311D01*
X142145Y110000D02*
X173834Y141689D01*
X133767Y110000D02*
X170567Y146800D01*
X125389Y110000D02*
X162189Y146800D01*
X117012Y110000D02*
X129235Y122223D01*
X129625Y122614D02*
X153812Y146800D01*
X108634Y110000D02*
X130919Y132286D01*
X131648Y133014D02*
X145434Y146800D01*
X100256Y110000D02*
X122657Y132401D01*
X123533Y133277D02*
X137056Y146800D01*
X91878Y110000D02*
X128678Y146800D01*
X83500Y110000D02*
X120300Y146800D01*
X80234Y115111D02*
X111922Y146800D01*
X80234Y123489D02*
X103544Y146800D01*
X80234Y131867D02*
X95167Y146800D01*
X80234Y140245D02*
X86789Y146800D01*
Y110000D02*
X80234Y116555D01*
X95167Y110000D02*
X80234Y124933D01*
X103544Y110000D02*
X80234Y133311D01*
X111922Y110000D02*
X80234Y141689D01*
X120300Y110000D02*
X83500Y146800D01*
X128678Y110000D02*
X91878Y146800D01*
X137056Y110000D02*
X124950Y122106D01*
X124414Y122642D02*
X100256Y146800D01*
X145434Y110000D02*
X123148Y132286D01*
X122419Y133014D02*
X108634Y146800D01*
X153812Y110000D02*
X131410Y132401D01*
X130535Y133277D02*
X117012Y146800D01*
X162189Y110000D02*
X125389Y146800D01*
X170567Y110000D02*
X133767Y146800D01*
X173834Y115111D02*
X142145Y146800D01*
X173834Y123489D02*
X150523Y146800D01*
X173834Y131867D02*
X158901Y146800D01*
X173834Y140245D02*
X167279Y146800D01*
X178834Y154800D02*
Y102000D01*
G75*
G03X180834Y100000I2000*
G01*
X181834*
G75*
G03X183834Y102000J2000*
G01*
Y154800*
G75*
G03X181834Y156800I-2000*
G01*
X180834*
G75*
G03X178834Y154800J-2000*
G01*
G36*
Y102000*
G75*
G03X180834Y100000I2000*
G01*
X181834*
G75*
G03X183834Y102000J2000*
G01*
Y154800*
G75*
G03X181834Y156800I-2000*
G01*
X180834*
G75*
G03X178834Y154800J-2000*
G01*
G37*
D02*
D21*
X181101Y92996D02*
X181101Y93878D01*
X180734D02*
X181469Y93878D01*
X181746Y93290D02*
X181746Y93584D01*
X181820Y93731*
X181893Y93804*
X182040Y93878*
X182187*
X182334Y93804*
X182408Y93731*
X182482Y93584*
Y93290*
X182408Y93143*
X182334Y93069*
X182187Y92996*
X182040*
X181893Y93069*
X181820Y93143*
X181746Y93290*
X182759Y92996D02*
X182759Y93878D01*
X183273*
X183420Y93804*
X183494Y93657*
X183420Y93510*
X183273Y93437*
X182759*
D02*
D112*
X74784Y134900D03*
X121034Y132900D03*
X123034D03*
X124034Y122825D03*
X125034Y122725D03*
Y132900D03*
Y152400D03*
X126034Y122815D03*
X127034Y122825D03*
Y132900D03*
X128034Y104400D03*
Y122815D03*
X129034D03*
Y132900D03*
X131034D03*
X133034D03*
X179284Y134900D03*
X0Y0D02*
M02*
