G04 GENERATED BY PULSONIX 7.0 GERBER.DLL 4573*
%INHILLSTAR_100X50_EL_4LAYER_V1_0*%
%LNGERBER_SILKSCREEN_BOTTOM*%
%FSLAX33Y33*%
%IPPOS*%
%LPD*%
%OFA0B0*%
%MOMM*%
%ADD12C,0.150*%
%ADD20C,0.200*%
%ADD21C,0.125*%
%ADD22C,0.127*%
%ADD238C,0.203*%
X0Y0D02*
D02*
D12*
X75319Y97302D02*
X74876Y97745D01*
X74688Y97557*
X74674Y97545*
G75*
G02X79423Y96500I2260J-1045*
G01*
X79829*
X79017Y95814*
X78331Y96500*
X78737*
G75*
G03X75319Y97302I-1803*
G01*
G36*
X74876Y97745*
X74688Y97557*
X74674Y97545*
G75*
G02X79423Y96500I2260J-1045*
G01*
X79829*
X79017Y95814*
X78331Y96500*
X78737*
G75*
G03X75319Y97302I-1803*
G01*
G37*
X78549Y95698D02*
X78991Y95255D01*
X79179Y95443*
X79193Y95455*
G75*
G02X74445Y96500I-2259J1045*
G01*
X74038*
X74851Y97186*
X75537Y96500*
X75130*
G75*
G03X78549Y95698I1804*
G01*
G36*
X78991Y95255*
X79179Y95443*
X79193Y95455*
G75*
G02X74445Y96500I-2259J1045*
G01*
X74038*
X74851Y97186*
X75537Y96500*
X75130*
G75*
G03X78549Y95698I1804*
G01*
G37*
X127304Y146100D02*
X127304Y146394D01*
Y146247D02*
X128187Y146247D01*
Y146100D02*
X128187Y146394D01*
X127304Y146638D02*
X127893Y146638D01*
X127672D02*
X127819Y146711D01*
X127893Y146858*
Y147005*
X127819Y147152*
X127672Y147226*
X127304*
X127378Y147488D02*
X127304Y147635D01*
Y147929*
X127378Y148076*
X127525*
X127598Y147929*
Y147635*
X127672Y147488*
X127819*
X127893Y147635*
Y147929*
X127819Y148076*
X127378Y148926D02*
X127304Y148852D01*
Y148705*
Y148558*
X127378Y148411*
X127525Y148338*
X127745*
X127819Y148411*
X127893Y148558*
Y148705*
X127819Y148852*
X127745Y148926*
X127672*
X127598Y148852*
X127525Y148705*
Y148558*
X127598Y148411*
X127672Y148338*
X127304Y149188D02*
X127893Y149188D01*
X127672D02*
X127819Y149261D01*
X127893Y149408*
Y149555*
X127819Y149702*
X127893Y149963D02*
X127893Y150257D01*
X128040Y150110D02*
X127378Y150110D01*
X127304Y150183*
Y150257*
X127378Y150330*
X125804Y146100D02*
X126687Y146100D01*
X126245Y146468*
X126687Y146835*
X125804*
X126172Y147627D02*
X126172Y147848D01*
X126098*
X125951Y147774*
X125878Y147701*
X125804Y147554*
Y147407*
X125878Y147260*
X125951Y147186*
X126098Y147113*
X126393*
X126540Y147186*
X126613Y147260*
X126687Y147407*
Y147554*
X126613Y147701*
X126540Y147774*
X126393Y147848*
X125951Y148860D02*
X125878Y148787D01*
X125804Y148640*
Y148419*
X125878Y148272*
X125951Y148199*
X126098Y148125*
X126393*
X126540Y148199*
X126613Y148272*
X126687Y148419*
Y148640*
X126613Y148787*
X126540Y148860*
X125878Y149211D02*
X125804Y149358D01*
Y149505*
X125878Y149652*
X126025Y149726*
X126172Y149652*
X126245Y149505*
Y149358*
Y149505D02*
X126319Y149652D01*
X126466Y149726*
X126613Y149652*
X126687Y149505*
Y149358*
X126613Y149211*
X125804Y150135D02*
X125804Y150429D01*
Y150282D02*
X126687Y150282D01*
X126540Y150135*
X125878Y150911D02*
X125804Y151058D01*
Y151205*
X125878Y151352*
X126025Y151426*
X126172Y151352*
X126245Y151205*
Y151058*
Y151205D02*
X126319Y151352D01*
X126466Y151426*
X126613Y151352*
X126687Y151205*
Y151058*
X126613Y150911*
X125878Y151761D02*
X125804Y151908D01*
Y152055*
X125878Y152202*
X126025Y152276*
X126466*
X126613Y152202*
X126687Y152055*
Y151908*
X126613Y151761*
X126466Y151688*
X126025*
X125878Y151761*
X126613Y152202*
X126687Y153613D02*
X126025Y153613D01*
X125878Y153686*
X125804Y153833*
Y154127*
X125878Y154274*
X126025Y154348*
X126687*
X125804Y154625D02*
X126393Y154625D01*
X126172D02*
X126319Y154699D01*
X126393Y154846*
Y154993*
X126319Y155140*
X126172Y155213*
X125804*
Y155475D02*
X126393Y155475D01*
X126613D02*
X126614Y155476D01*
X126393Y156013D02*
X126393Y156307D01*
X126540Y156160D02*
X125878Y156160D01*
X125804Y156233*
Y156307*
X125878Y156380*
X134773Y133950D02*
X135832Y133950D01*
Y134832*
X135303Y134656D02*
X135303Y133950D01*
X134773D02*
X134773Y134832D01*
X135832Y135165D02*
X134773Y135165D01*
Y136047*
D02*
D20*
X77594Y96246D02*
Y96348D01*
X75852*
G75*
G02X76934Y97592I1081J152*
G01*
G75*
G02Y95408J-1092*
G01*
G75*
G02X75920Y96017I-57J1054*
G01*
X75943*
G75*
G03X77594Y96246I774J487*
G01*
X77569Y96551D02*
G75*
G03X76197I-686D01*
G01*
X77569*
X75915Y96894D02*
G36*
G75*
G03X75852Y96348I1018J-394D01*
G01*
X77594*
Y96246*
G75*
G02X75943Y96017I-877J258*
G01*
X75920*
G75*
G03X76934Y95408I957J445*
G01*
G75*
G03X77953Y96894J1092*
G01*
X77477*
G75*
G02X77569Y96551I-594J-343*
G01*
X76197*
G75*
G02X76289Y96894I686*
G01*
X75915*
G37*
X76289D02*
G36*
G75*
G02X77477I594J-343D01*
G01*
X77953*
G75*
G03X75915I-1019J-394*
G01*
X76289*
G37*
X81824Y99160D02*
G75*
G02Y98980J-90D01*
G01*
G75*
G02Y99160J90*
G01*
X88960Y96344D02*
X87522D01*
Y97056*
X88955*
G75*
G03X87040Y98371I-1661J-367*
G01*
Y99062*
G75*
G02X87294Y99076I258J-2374*
G01*
G75*
G02Y94301J-2387*
G01*
G75*
G02X87040Y94314I-5J2387*
G01*
Y95005*
G75*
G03X88960Y96344I254J1682*
G01*
G36*
X87522*
Y97056*
X88955*
G75*
G03X87040Y98371I-1661J-367*
G01*
Y99062*
G75*
G02X87294Y99076I258J-2374*
G01*
G75*
G02Y94301J-2387*
G01*
G75*
G02X87040Y94314I-5J2387*
G01*
Y95005*
G75*
G03X88960Y96344I254J1682*
G01*
G37*
X91180Y94326D02*
Y95017D01*
G75*
G03X91434Y94998I254J1683*
G01*
G75*
G03Y98402J1702*
G01*
G75*
G03X91180Y98383J-1702*
G01*
Y99074*
G75*
G02X91434Y99088I258J-2374*
G01*
G75*
G02Y94312J-2388*
G01*
G75*
G02X91180Y94326I4J2388*
G01*
G36*
Y95017*
G75*
G03X91434Y94998I254J1683*
G01*
G75*
G03Y98402J1702*
G01*
G75*
G03X91180Y98383J-1702*
G01*
Y99074*
G75*
G02X91434Y99088I258J-2374*
G01*
G75*
G02Y94312J-2388*
G01*
G75*
G02X91180Y94326I4J2388*
G01*
G37*
X133059Y131175D02*
X133859Y129775D01*
X132259*
X133059Y131175*
G36*
X133859Y129775*
X132259*
X133059Y131175*
G37*
X134634Y136725D02*
X133634D01*
X131634D02*
X130634D01*
X128634D02*
X127634D01*
X125634D02*
X124634D01*
X122634D02*
X121634D01*
X119634D02*
X119434D01*
Y137725*
Y139725D02*
Y140725D01*
Y142725D02*
Y143725D01*
Y145725D02*
Y146725D01*
Y148725D02*
Y149725D01*
Y151725D02*
Y152725D01*
Y154725D02*
Y155725D01*
Y157725D02*
Y158725D01*
Y160725D02*
Y161725D01*
Y163725D02*
Y163900D01*
X120434*
X122434D02*
X123434D01*
X125434D02*
X126434D01*
X128434D02*
X129434D01*
X131434D02*
X132434D01*
X134434D02*
X134634D01*
Y162900*
Y160900D02*
Y159900D01*
Y157900D02*
Y156900D01*
Y154900D02*
Y153900D01*
Y151900D02*
Y150900D01*
Y148900D02*
Y147900D01*
Y145900D02*
Y144900D01*
Y142900D02*
Y141900D01*
Y139900D02*
Y138900D01*
Y136900D02*
Y136725D01*
D02*
D21*
X120159Y132121D02*
X119570Y133003D01*
X120159*
X123659Y125129D02*
X124026Y124247D01*
X124394Y125129*
X123806Y124762D02*
X124247Y124762D01*
X124745Y125129D02*
X124671Y125129D01*
Y124247*
X124984Y124541D02*
X125278Y124541D01*
X125131Y124394D02*
X125131Y125056D01*
X125204Y125129*
X125278*
X125351Y125056*
X126197D02*
X126123Y125129D01*
X125976*
X125829*
X125682Y125056*
X125609Y124909*
Y124688*
X125682Y124615*
X125829Y124541*
X125976*
X126123Y124615*
X126197Y124688*
Y124762*
X126123Y124835*
X125976Y124909*
X125829*
X125682Y124835*
X125609Y124762*
X126459Y125129D02*
X126459Y124541D01*
Y124762D02*
X126532Y124615D01*
X126679Y124541*
X126826*
X126973Y124615*
X127234Y125129D02*
X127234Y124541D01*
Y124762D02*
X127307Y124615D01*
X127454Y124541*
X127601*
X127748Y124615*
X127822Y124762*
Y125129*
X128084Y124615D02*
X128231Y124541D01*
X128451*
X128598Y124615*
X128672Y124762*
Y124982*
X128598Y125056*
X128451Y125129*
X128304*
X128157Y125056*
X128084Y124982*
Y124909*
X128157Y124835*
X128304Y124762*
X128451*
X128598Y124835*
X128672Y124909*
Y124982D02*
X128672Y125129D01*
X128934Y124541D02*
X129228Y124541D01*
X129081Y124394D02*
X129081Y125056D01*
X129154Y125129*
X129228*
X129301Y125056*
X130147D02*
X130073Y125129D01*
X129926*
X129779*
X129632Y125056*
X129559Y124909*
Y124688*
X129632Y124615*
X129779Y124541*
X129926*
X130073Y124615*
X130147Y124688*
Y124762*
X130073Y124835*
X129926Y124909*
X129779*
X129632Y124835*
X129559Y124762*
X124821Y126629D02*
X124821Y125747D01*
X125557*
X125409Y126188D02*
X124821Y126188D01*
X125834Y126629D02*
X125834Y125747D01*
X126348*
X126495Y125821*
X126569Y125968*
X126495Y126115*
X126348Y126188*
X125834*
X127582Y126482D02*
X127508Y126556D01*
X127361Y126629*
X127140*
X126993Y126556*
X126920Y126482*
X126846Y126335*
Y126041*
X126920Y125894*
X126993Y125821*
X127140Y125747*
X127361*
X127508Y125821*
X127582Y125894*
X128396Y126335D02*
X128984Y126335D01*
X124013Y127982D02*
X123939Y128056D01*
X123792Y128129*
X123572*
X123425Y128056*
X123351Y127982*
X123277Y127835*
Y127541*
X123351Y127394*
X123425Y127321*
X123572Y127247*
X123792*
X123939Y127321*
X124013Y127394*
X124290Y127909D02*
X124364Y128056D01*
X124511Y128129*
X124658*
X124805Y128056*
X124878Y127909*
Y127762*
X124805Y127615*
X124658Y127541*
X124511*
X124364Y127615*
X124290Y127762*
Y127909*
X125140Y128129D02*
X125140Y127541D01*
Y127762D02*
X125214Y127615D01*
X125361Y127541*
X125508*
X125655Y127615*
X125728Y127762*
Y128129*
X125990D02*
X125990Y127541D01*
Y127762D02*
X126064Y127615D01*
X126211Y127541*
X126358*
X126505Y127615*
X126578Y127762*
Y128129*
X127428Y128056D02*
X127355Y128129D01*
X127208*
X127061*
X126914Y128056*
X126840Y127909*
Y127688*
X126914Y127615*
X127061Y127541*
X127208*
X127355Y127615*
X127428Y127688*
Y127762*
X127355Y127835*
X127208Y127909*
X127061*
X126914Y127835*
X126840Y127762*
X128278Y127615D02*
X128131Y127541D01*
X127911*
X127764Y127615*
X127690Y127762*
Y127909*
X127764Y128056*
X127911Y128129*
X128131*
X128278Y128056*
X128540Y127541D02*
X128834Y127541D01*
X128687Y127394D02*
X128687Y128056D01*
X128761Y128129*
X128834*
X128908Y128056*
X129165Y127909D02*
X129239Y128056D01*
X129386Y128129*
X129533*
X129680Y128056*
X129753Y127909*
Y127762*
X129680Y127615*
X129533Y127541*
X129386*
X129239Y127615*
X129165Y127762*
Y127909*
X130015Y128129D02*
X130015Y127541D01*
Y127762D02*
X130089Y127615D01*
X130236Y127541*
X130383*
X130530Y127615*
X134412Y132121D02*
X134118Y132121D01*
X134265D02*
X134265Y133003D01*
X134412Y132856*
D02*
D22*
X81044Y99540D02*
X84694Y95770D01*
X81944Y98940D02*
X82114Y96570D01*
X81954Y98740D02*
X81664D01*
Y98380*
X81954*
Y98740*
X82254Y96330D02*
G75*
G02Y96130J-100D01*
G01*
G75*
G02Y96330J100*
G01*
G36*
G75*
G02Y96130J-100*
G01*
G75*
G02Y96330J100*
G01*
G37*
Y96600D02*
G75*
G02Y95860J-370D01*
G01*
G75*
G02Y96600J370*
G01*
Y96580D02*
G75*
G02Y95880J-350D01*
G01*
G75*
G02Y96580J350*
G01*
X81884Y96230D02*
G36*
G75*
G03X82254Y95860I370D01*
G01*
G75*
G03X82624Y96230J370*
G01*
X82604*
G75*
G02X82254Y95880I-350*
G01*
G75*
G02X81904Y96230J350*
G01*
X81884*
G37*
X81904D02*
G36*
G75*
G02X82254Y96580I350D01*
G01*
G75*
G02X82604Y96230J-350*
G01*
X82624*
G75*
G03X82254Y96600I-370*
G01*
G75*
G03X81884Y96230J-370*
G01*
X81904*
G37*
X82514Y99310D02*
G75*
G03X81954Y99130I-42J-829D01*
G01*
Y99140*
X83024Y99430D02*
X82524D01*
Y99190*
X83024*
Y99430*
X83064Y98090D02*
X82334D01*
Y98260*
X83064*
Y98090*
G36*
X82334*
Y98260*
X83064*
Y98090*
G37*
X83404Y99290D02*
X83024Y99330D01*
X83514Y96180D02*
X83354D01*
Y95860*
X83514*
Y96180*
G36*
X83354*
Y95860*
X83514*
Y96180*
G37*
X83574Y99220D02*
G75*
G02X83824Y98970I-38J-288D01*
G01*
Y98940*
X83574Y99370D02*
X83404D01*
Y98940*
X83574*
Y99370*
X83754Y98940D02*
X83554Y96180D01*
X82624*
X83954Y98940D02*
X81804D01*
X84584Y94790D02*
X81284D01*
Y93940*
X84584*
Y94790*
G36*
X81284*
Y93940*
X84584*
Y94790*
G37*
X84824Y99540D02*
X81174Y95770D01*
X120729Y136725D02*
Y140420D01*
X121034Y140725*
X121339Y136725D02*
Y140420D01*
X121034Y140725*
X121339Y140420D02*
X120729D01*
X122729Y136725D02*
Y140420D01*
X123034Y140725*
X123339Y136725D02*
Y140420D01*
X123034Y140725*
X123339Y140420D02*
X122729D01*
X124729Y136725D02*
Y140420D01*
X125034Y140725*
X125339Y136725D02*
Y140420D01*
X125034Y140725*
X125339Y140420D02*
X124729D01*
X126729Y136725D02*
Y140420D01*
X127034Y140725*
X127339Y136725D02*
Y140420D01*
X127034Y140725*
X127339Y140420D02*
X126729D01*
X128729Y136725D02*
Y140420D01*
X129034Y140725*
X129339Y136725D02*
Y140420D01*
X129034Y140725*
X129339Y140420D02*
X128729D01*
X130729Y136725D02*
Y140420D01*
X131034Y140725*
X131339Y136725D02*
Y140420D01*
X131034Y140725*
X131339Y140420D02*
X130729D01*
X132729Y136725D02*
Y140420D01*
X133034Y140725*
X133339Y136725D02*
Y140420D01*
X133034Y140725*
X133339Y140420D02*
X132729D01*
D02*
D238*
X120034Y135225D02*
Y136725D01*
X134034*
Y135225*
X120034*
X0Y0D02*
M02*
