G04 GENERATED BY PULSONIX 7.0 GERBER.DLL 4573*
%INHILLSTAR_100X50_EL_4LAYER_V1_0*%
%LNGERBER_SILKSCREEN_TOP*%
%FSLAX33Y33*%
%IPPOS*%
%LPD*%
%OFA0B0*%
%MOMM*%
%ADD20C,0.200*%
%ADD21C,0.125*%
%ADD24C,0.010*%
X0Y0D02*
D02*
D20*
X68034Y105000D02*
X69034D01*
X71034D02*
X72034D01*
X74034D02*
X75034D01*
X77034D02*
X78034D01*
X80034D02*
X81034D01*
X83034D02*
X84034D01*
X86034D02*
X87034D01*
X89034D02*
X90034D01*
X92034D02*
X93034D01*
X95034D02*
X96034D01*
X98034D02*
X99034D01*
X101034D02*
X102034D01*
X104034D02*
X105034D01*
X107034D02*
X108034D01*
X110034D02*
X111034D01*
X113034D02*
X114034D01*
X116034D02*
X117034D01*
X119034D02*
X120034D01*
X122034D02*
X123034D01*
X125034D02*
X126034D01*
X128034D02*
X129034D01*
X131034D02*
X132034D01*
X134034D02*
X135034D01*
X137034D02*
X138034D01*
X140034D02*
X141034D01*
X143034D02*
X144034D01*
X146034D02*
X147034D01*
X149034D02*
X150034D01*
X152034D02*
X153034D01*
X155034D02*
X156034D01*
X158034D02*
X159034D01*
X161034D02*
X162034D01*
X164034D02*
X165034D01*
X167034D02*
X168034D01*
X170034D02*
X171034D01*
X173034D02*
X174034D01*
X176034D02*
X177034D01*
X179034D02*
X180034D01*
X182034D02*
X183034D01*
X185034D02*
X186034D01*
X68034Y128400D02*
X69034D01*
X71034D02*
X72034D01*
X74034D02*
X75034D01*
X77034D02*
X78034D01*
X80034D02*
X81034D01*
X83034D02*
X84034D01*
X86034D02*
X87034D01*
X89034D02*
X90034D01*
X92034D02*
X93034D01*
X95034D02*
X96034D01*
X98034D02*
X99034D01*
X101034D02*
X102034D01*
X104034D02*
X105034D01*
X107034D02*
X108034D01*
X110034D02*
X111034D01*
X113034D02*
X114034D01*
X116034D02*
X117034D01*
X119034D02*
X120034D01*
X122034D02*
X123034D01*
X125034D02*
X126034D01*
X128034D02*
X129034D01*
X131034D02*
X132034D01*
X134034D02*
X135034D01*
X137034D02*
X138034D01*
X140034D02*
X141034D01*
X143034D02*
X144034D01*
X146034D02*
X147034D01*
X149034D02*
X150034D01*
X152034D02*
X153034D01*
X155034D02*
X156034D01*
X158034D02*
X159034D01*
X161034D02*
X162034D01*
X164034D02*
X165034D01*
X167034D02*
X168034D01*
X170034D02*
X171034D01*
X173034D02*
X174034D01*
X176034D02*
X177034D01*
X179034D02*
X180034D01*
X182034D02*
X183034D01*
X185034D02*
X186034D01*
X68034Y151800D02*
X69034D01*
X71034D02*
X72034D01*
X74034D02*
X75034D01*
X77034D02*
X78034D01*
X80034D02*
X81034D01*
X83034D02*
X84034D01*
X86034D02*
X87034D01*
X89034D02*
X90034D01*
X92034D02*
X93034D01*
X95034D02*
X96034D01*
X98034D02*
X99034D01*
X101034D02*
X102034D01*
X104034D02*
X105034D01*
X107034D02*
X108034D01*
X110034D02*
X111034D01*
X113034D02*
X114034D01*
X116034D02*
X117034D01*
X119034D02*
X120034D01*
X122034D02*
X123034D01*
X125034D02*
X126034D01*
X128034D02*
X129034D01*
X131034D02*
X132034D01*
X134034D02*
X135034D01*
X137034D02*
X138034D01*
X140034D02*
X141034D01*
X143034D02*
X144034D01*
X146034D02*
X147034D01*
X149034D02*
X150034D01*
X152034D02*
X153034D01*
X155034D02*
X156034D01*
X158034D02*
X159034D01*
X161034D02*
X162034D01*
X164034D02*
X165034D01*
X167034D02*
X168034D01*
X170034D02*
X171034D01*
X173034D02*
X174034D01*
X176034D02*
X177034D01*
X179034D02*
X180034D01*
X182034D02*
X183034D01*
X185034D02*
X186034D01*
X71819Y122490D02*
X73231Y122608D01*
X72525Y123078*
X73231Y123549*
X71819Y123666*
X73113Y125051D02*
X73231Y124934D01*
Y124698*
Y124463*
X73113Y124228*
X72878Y124110*
X72525*
X72407Y124228*
X72290Y124463*
Y124698*
X72407Y124934*
X72525Y125051*
X72643*
X72760Y124934*
X72878Y124698*
Y124463*
X72760Y124228*
X72643Y124110*
X73113Y125470D02*
X73231Y125705D01*
Y126176*
X73113Y126411*
X72878*
X72760Y126176*
Y125705*
X72643Y125470*
X72407*
X72290Y125705*
Y126176*
X72407Y126411*
X72290Y126830D02*
X72290Y127301D01*
X72054Y127065D02*
X73113Y127065D01*
X73231Y127183*
Y127301*
X73113Y127418*
X73231Y129550D02*
X71819Y129550D01*
Y130726*
X72525Y130491D02*
X72525Y129550D01*
X73231D02*
X73231Y130726D01*
Y131288D02*
X73231Y131170D01*
X71819*
X73113Y132611D02*
X73231Y132494D01*
Y132258*
Y132023*
X73113Y131788*
X72878Y131670*
X72525*
X72407Y131788*
X72290Y132023*
Y132258*
X72407Y132494*
X72525Y132611*
X72643*
X72760Y132494*
X72878Y132258*
Y132023*
X72760Y131788*
X72643Y131670*
X72407Y133971D02*
X72290Y133736D01*
Y133383*
X72407Y133148*
X72643Y133030*
X72878*
X73113Y133148*
X73231Y133383*
Y133736*
X73113Y133971*
X72290Y134390D02*
X72290Y134861D01*
X72054Y134625D02*
X73113Y134625D01*
X73231Y134743*
Y134861*
X73113Y134978*
X73231Y135390D02*
X72290Y135390D01*
X72643D02*
X72407Y135508D01*
X72290Y135743*
Y135978*
X72407Y136214*
X72878Y136630D02*
X73113Y136748D01*
X73231Y136983*
Y137218*
X73113Y137454*
X72878Y137571*
X72643*
X72407Y137454*
X72290Y137218*
Y136983*
X72407Y136748*
X72643Y136630*
X72878*
X72643Y138931D02*
X72407Y138814D01*
X72290Y138578*
Y138343*
X72407Y138108*
X72643Y137990*
X72878*
X73113Y138108*
X73231Y138343*
Y138578*
X73113Y138814*
X72878Y138931*
X73231D02*
X71819Y138931D01*
X73113Y140291D02*
X73231Y140174D01*
Y139938*
Y139703*
X73113Y139468*
X72878Y139350*
X72525*
X72407Y139468*
X72290Y139703*
Y139938*
X72407Y140174*
X72525Y140291*
X72643*
X72760Y140174*
X72878Y139938*
Y139703*
X72760Y139468*
X72643Y139350*
X75234Y96400D02*
Y97400D01*
Y99400D02*
Y100400D01*
Y102400D02*
Y103400D01*
Y105400D02*
Y106400D01*
Y108400D02*
Y109400D01*
Y111400D02*
Y112400D01*
Y114400D02*
Y115400D01*
Y117400D02*
Y118400D01*
Y120400D02*
Y121400D01*
Y123400D02*
Y124400D01*
Y126400D02*
Y127400D01*
Y129400D02*
Y130400D01*
Y132400D02*
Y133400D01*
Y135400D02*
Y136400D01*
Y138400D02*
Y139400D01*
Y141400D02*
Y142400D01*
Y144400D02*
Y145400D01*
Y147400D02*
Y148400D01*
Y150400D02*
Y151400D01*
Y153400D02*
Y154400D01*
Y156400D02*
Y157400D01*
Y159400D02*
Y160400D01*
X127034Y96400D02*
Y97400D01*
Y99400D02*
Y100400D01*
Y102400D02*
Y103400D01*
Y105400D02*
Y106400D01*
Y108400D02*
Y109400D01*
Y111400D02*
Y112400D01*
Y114400D02*
Y115400D01*
Y117400D02*
Y118400D01*
Y120400D02*
Y121400D01*
Y123400D02*
Y124400D01*
Y126400D02*
Y127400D01*
Y129400D02*
Y130400D01*
Y132400D02*
Y133400D01*
Y135400D02*
Y136400D01*
Y138400D02*
Y139400D01*
Y141400D02*
Y142400D01*
Y144400D02*
Y145400D01*
Y147400D02*
Y148400D01*
Y150400D02*
Y151400D01*
Y153400D02*
Y154400D01*
Y156400D02*
Y157400D01*
Y159400D02*
Y160400D01*
X119700Y129388D02*
X119583Y129271D01*
X119347Y129153*
X118994*
X118759Y129271*
X118641Y129388*
X118524Y129624*
Y130094*
X118641Y130329*
X118759Y130447*
X118994Y130565*
X119347*
X119583Y130447*
X119700Y130329*
X121085Y129271D02*
X120967Y129153D01*
X120732*
X120497*
X120261Y129271*
X120144Y129506*
Y129859*
X120261Y129976*
X120497Y130094*
X120732*
X120967Y129976*
X121085Y129859*
Y129741*
X120967Y129624*
X120732Y129506*
X120497*
X120261Y129624*
X120144Y129741*
X121504Y129153D02*
X121504Y130094D01*
Y129741D02*
X121621Y129976D01*
X121857Y130094*
X122092*
X122327Y129976*
X122445Y129741*
Y129153*
X122864Y130094D02*
X123334Y130094D01*
X123099Y130329D02*
X123099Y129271D01*
X123217Y129153*
X123334*
X123452Y129271*
X124805D02*
X124687Y129153D01*
X124452*
X124217*
X123981Y129271*
X123864Y129506*
Y129859*
X123981Y129976*
X124217Y130094*
X124452*
X124687Y129976*
X124805Y129859*
Y129741*
X124687Y129624*
X124452Y129506*
X124217*
X123981Y129624*
X123864Y129741*
X125224Y129153D02*
X125224Y130094D01*
Y129741D02*
X125341Y129976D01*
X125577Y130094*
X125812*
X126047Y129976*
X128184Y129153D02*
X128184Y130565D01*
X129360*
X129125Y129859D02*
X128184Y129859D01*
Y129153D02*
X129360Y129153D01*
X129921D02*
X129804Y129153D01*
Y130565*
X131245Y129271D02*
X131127Y129153D01*
X130892*
X130657*
X130421Y129271*
X130304Y129506*
Y129859*
X130421Y129976*
X130657Y130094*
X130892*
X131127Y129976*
X131245Y129859*
Y129741*
X131127Y129624*
X130892Y129506*
X130657*
X130421Y129624*
X130304Y129741*
X132605Y129976D02*
X132370Y130094D01*
X132017*
X131781Y129976*
X131664Y129741*
Y129506*
X131781Y129271*
X132017Y129153*
X132370*
X132605Y129271*
X133024Y130094D02*
X133494Y130094D01*
X133259Y130329D02*
X133259Y129271D01*
X133377Y129153*
X133494*
X133612Y129271*
X134024Y129153D02*
X134024Y130094D01*
Y129741D02*
X134141Y129976D01*
X134377Y130094*
X134612*
X134847Y129976*
X135264Y129506D02*
X135381Y129271D01*
X135617Y129153*
X135852*
X136087Y129271*
X136205Y129506*
Y129741*
X136087Y129976*
X135852Y130094*
X135617*
X135381Y129976*
X135264Y129741*
Y129506*
X137565Y129741D02*
X137447Y129976D01*
X137212Y130094*
X136977*
X136741Y129976*
X136624Y129741*
Y129506*
X136741Y129271*
X136977Y129153*
X137212*
X137447Y129271*
X137565Y129506*
Y129153D02*
X137565Y130565D01*
X138925Y129271D02*
X138807Y129153D01*
X138572*
X138337*
X138101Y129271*
X137984Y129506*
Y129859*
X138101Y129976*
X138337Y130094*
X138572*
X138807Y129976*
X138925Y129859*
Y129741*
X138807Y129624*
X138572Y129506*
X138337*
X138101Y129624*
X137984Y129741*
X119644Y101941D02*
X119761Y101706D01*
X119997Y101588*
X120467*
X120703Y101706*
X120820Y101941*
X120703Y102176*
X120467Y102294*
X119997*
X119761Y102411*
X119644Y102647*
X119761Y102882*
X119997Y103000*
X120467*
X120703Y102882*
X120820Y102647*
X121264Y101941D02*
X121381Y101706D01*
X121617Y101588*
X121852*
X122087Y101706*
X122205Y101941*
Y102176*
X122087Y102411*
X121852Y102529*
X121617*
X121381Y102411*
X121264Y102176*
Y101941*
X122624Y102529D02*
X122624Y101941D01*
X122741Y101706*
X122977Y101588*
X123212*
X123447Y101706*
X123565Y101941*
Y102529D02*
X123565Y101588D01*
X123984Y102529D02*
X124454Y102529D01*
X124219Y102764D02*
X124219Y101706D01*
X124337Y101588*
X124454*
X124572Y101706*
X124984Y101588D02*
X124984Y103000D01*
Y102176D02*
X125101Y102411D01*
X125337Y102529*
X125572*
X125807Y102411*
X125925Y102176*
Y101588*
X128064D02*
X128064Y103000D01*
X129240*
X129005Y102294D02*
X128064Y102294D01*
Y101588D02*
X129240Y101588D01*
X129801D02*
X129684Y101588D01*
Y103000*
X131125Y101706D02*
X131007Y101588D01*
X130772*
X130537*
X130301Y101706*
X130184Y101941*
Y102294*
X130301Y102411*
X130537Y102529*
X130772*
X131007Y102411*
X131125Y102294*
Y102176*
X131007Y102059*
X130772Y101941*
X130537*
X130301Y102059*
X130184Y102176*
X132485Y102411D02*
X132250Y102529D01*
X131897*
X131661Y102411*
X131544Y102176*
Y101941*
X131661Y101706*
X131897Y101588*
X132250*
X132485Y101706*
X132904Y102529D02*
X133374Y102529D01*
X133139Y102764D02*
X133139Y101706D01*
X133257Y101588*
X133374*
X133492Y101706*
X133904Y101588D02*
X133904Y102529D01*
Y102176D02*
X134021Y102411D01*
X134257Y102529*
X134492*
X134727Y102411*
X135144Y101941D02*
X135261Y101706D01*
X135497Y101588*
X135732*
X135967Y101706*
X136085Y101941*
Y102176*
X135967Y102411*
X135732Y102529*
X135497*
X135261Y102411*
X135144Y102176*
Y101941*
X137445Y102176D02*
X137327Y102411D01*
X137092Y102529*
X136857*
X136621Y102411*
X136504Y102176*
Y101941*
X136621Y101706*
X136857Y101588*
X137092*
X137327Y101706*
X137445Y101941*
Y101588D02*
X137445Y103000D01*
X138805Y101706D02*
X138687Y101588D01*
X138452*
X138217*
X137981Y101706*
X137864Y101941*
Y102294*
X137981Y102411*
X138217Y102529*
X138452*
X138687Y102411*
X138805Y102294*
Y102176*
X138687Y102059*
X138452Y101941*
X138217*
X137981Y102059*
X137864Y102176*
X119704Y153918D02*
X119704Y155330D01*
X120880Y153918*
Y155330*
X121324Y154271D02*
X121441Y154036D01*
X121677Y153918*
X121912*
X122147Y154036*
X122265Y154271*
Y154506*
X122147Y154741*
X121912Y154859*
X121677*
X121441Y154741*
X121324Y154506*
Y154271*
X122684Y153918D02*
X122684Y154859D01*
Y154506D02*
X122801Y154741D01*
X123037Y154859*
X123272*
X123507Y154741*
X123924Y154859D02*
X124394Y154859D01*
X124159Y155094D02*
X124159Y154036D01*
X124277Y153918*
X124394*
X124512Y154036*
X124924Y153918D02*
X124924Y155330D01*
Y154506D02*
X125041Y154741D01*
X125277Y154859*
X125512*
X125747Y154741*
X125865Y154506*
Y153918*
X128004D02*
X128004Y155330D01*
X129180*
X128945Y154624D02*
X128004Y154624D01*
Y153918D02*
X129180Y153918D01*
X129741D02*
X129624Y153918D01*
Y155330*
X131065Y154036D02*
X130947Y153918D01*
X130712*
X130477*
X130241Y154036*
X130124Y154271*
Y154624*
X130241Y154741*
X130477Y154859*
X130712*
X130947Y154741*
X131065Y154624*
Y154506*
X130947Y154389*
X130712Y154271*
X130477*
X130241Y154389*
X130124Y154506*
X132425Y154741D02*
X132190Y154859D01*
X131837*
X131601Y154741*
X131484Y154506*
Y154271*
X131601Y154036*
X131837Y153918*
X132190*
X132425Y154036*
X132844Y154859D02*
X133314Y154859D01*
X133079Y155094D02*
X133079Y154036D01*
X133197Y153918*
X133314*
X133432Y154036*
X133844Y153918D02*
X133844Y154859D01*
Y154506D02*
X133961Y154741D01*
X134197Y154859*
X134432*
X134667Y154741*
X135084Y154271D02*
X135201Y154036D01*
X135437Y153918*
X135672*
X135907Y154036*
X136025Y154271*
Y154506*
X135907Y154741*
X135672Y154859*
X135437*
X135201Y154741*
X135084Y154506*
Y154271*
X137385Y154506D02*
X137267Y154741D01*
X137032Y154859*
X136797*
X136561Y154741*
X136444Y154506*
Y154271*
X136561Y154036*
X136797Y153918*
X137032*
X137267Y154036*
X137385Y154271*
Y153918D02*
X137385Y155330D01*
X138745Y154036D02*
X138627Y153918D01*
X138392*
X138157*
X137921Y154036*
X137804Y154271*
Y154624*
X137921Y154741*
X138157Y154859*
X138392*
X138627Y154741*
X138745Y154624*
Y154506*
X138627Y154389*
X138392Y154271*
X138157*
X137921Y154389*
X137804Y154506*
X178834Y96400D02*
Y97400D01*
Y99400D02*
Y100400D01*
Y102400D02*
Y103400D01*
Y105400D02*
Y106400D01*
Y108400D02*
Y109400D01*
Y111400D02*
Y112400D01*
Y114400D02*
Y115400D01*
Y117400D02*
Y118400D01*
Y120400D02*
Y121400D01*
Y123400D02*
Y124400D01*
Y126400D02*
Y127400D01*
Y129400D02*
Y130400D01*
Y132400D02*
Y133400D01*
Y135400D02*
Y136400D01*
Y138400D02*
Y139400D01*
Y141400D02*
Y142400D01*
Y144400D02*
Y145400D01*
Y147400D02*
Y148400D01*
Y150400D02*
Y151400D01*
Y153400D02*
Y154400D01*
Y156400D02*
Y157400D01*
Y159400D02*
Y160400D01*
X182131Y122490D02*
X180719Y122490D01*
Y123666*
X181425Y123431D02*
X181425Y122490D01*
X182131D02*
X182131Y123666D01*
X181307Y124110D02*
X181190Y124345D01*
Y124698*
X181307Y124934*
X181543Y125051*
X181895*
X182013Y124934*
X182131Y124698*
Y124463*
X182013Y124228*
X181895Y124110*
X181778*
X181660Y124228*
X181543Y124463*
Y124698*
X181660Y124934*
X181778Y125051*
X181895D02*
X182131Y125051D01*
X182013Y125470D02*
X182131Y125705D01*
Y126176*
X182013Y126411*
X181778*
X181660Y126176*
Y125705*
X181543Y125470*
X181307*
X181190Y125705*
Y126176*
X181307Y126411*
X181190Y126830D02*
X181190Y127301D01*
X180954Y127065D02*
X182013Y127065D01*
X182131Y127183*
Y127301*
X182013Y127418*
X182131Y129550D02*
X180719Y129550D01*
Y130726*
X181425Y130491D02*
X181425Y129550D01*
X182131D02*
X182131Y130726D01*
Y131288D02*
X182131Y131170D01*
X180719*
X182013Y132611D02*
X182131Y132494D01*
Y132258*
Y132023*
X182013Y131788*
X181778Y131670*
X181425*
X181307Y131788*
X181190Y132023*
Y132258*
X181307Y132494*
X181425Y132611*
X181543*
X181660Y132494*
X181778Y132258*
Y132023*
X181660Y131788*
X181543Y131670*
X181307Y133971D02*
X181190Y133736D01*
Y133383*
X181307Y133148*
X181543Y133030*
X181778*
X182013Y133148*
X182131Y133383*
Y133736*
X182013Y133971*
X181190Y134390D02*
X181190Y134861D01*
X180954Y134625D02*
X182013Y134625D01*
X182131Y134743*
Y134861*
X182013Y134978*
X182131Y135390D02*
X181190Y135390D01*
X181543D02*
X181307Y135508D01*
X181190Y135743*
Y135978*
X181307Y136214*
X181778Y136630D02*
X182013Y136748D01*
X182131Y136983*
Y137218*
X182013Y137454*
X181778Y137571*
X181543*
X181307Y137454*
X181190Y137218*
Y136983*
X181307Y136748*
X181543Y136630*
X181778*
X181543Y138931D02*
X181307Y138814D01*
X181190Y138578*
Y138343*
X181307Y138108*
X181543Y137990*
X181778*
X182013Y138108*
X182131Y138343*
Y138578*
X182013Y138814*
X181778Y138931*
X182131D02*
X180719Y138931D01*
X182013Y140291D02*
X182131Y140174D01*
Y139938*
Y139703*
X182013Y139468*
X181778Y139350*
X181425*
X181307Y139468*
X181190Y139703*
Y139938*
X181307Y140174*
X181425Y140291*
X181543*
X181660Y140174*
X181778Y139938*
Y139703*
X181660Y139468*
X181543Y139350*
D02*
D21*
X160034Y162296D02*
X160034Y163178D01*
Y162737D02*
X160769Y162737D01*
Y162296D02*
X160769Y163178D01*
X161046Y162296D02*
X161046Y162884D01*
Y163104D02*
X161047Y163105D01*
X161657Y162296D02*
X161584Y162296D01*
Y163178*
X161970Y162296D02*
X161896Y162296D01*
Y163178*
X162209Y162369D02*
X162356Y162296D01*
X162650*
X162797Y162369*
Y162516*
X162650Y162590*
X162356*
X162209Y162663*
Y162810*
X162356Y162884*
X162650*
X162797Y162810*
X163059Y162884D02*
X163353Y162884D01*
X163206Y163031D02*
X163206Y162369D01*
X163279Y162296*
X163353*
X163426Y162369*
X163684Y162810D02*
X163831Y162884D01*
X164051*
X164198Y162810*
X164272Y162663*
Y162443*
X164198Y162369*
X164051Y162296*
X163904*
X163757Y162369*
X163684Y162443*
Y162516*
X163757Y162590*
X163904Y162663*
X164051*
X164198Y162590*
X164272Y162516*
Y162443D02*
X164272Y162296D01*
X164534D02*
X164534Y162884D01*
Y162663D02*
X164607Y162810D01*
X164754Y162884*
X164901*
X165048Y162810*
X165846Y162296D02*
X165846Y163178D01*
X166287*
X166434Y163104*
X166508Y163031*
X166582Y162884*
Y162590*
X166508Y162443*
X166434Y162369*
X166287Y162296*
X165846*
X167447Y162369D02*
X167373Y162296D01*
X167226*
X167079*
X166932Y162369*
X166859Y162516*
Y162737*
X166932Y162810*
X167079Y162884*
X167226*
X167373Y162810*
X167447Y162737*
Y162663*
X167373Y162590*
X167226Y162516*
X167079*
X166932Y162590*
X166859Y162663*
X167709Y162884D02*
X168003Y162296D01*
X168297Y162884*
X169147Y162369D02*
X169073Y162296D01*
X168926*
X168779*
X168632Y162369*
X168559Y162516*
Y162737*
X168632Y162810*
X168779Y162884*
X168926*
X169073Y162810*
X169147Y162737*
Y162663*
X169073Y162590*
X168926Y162516*
X168779*
X168632Y162590*
X168559Y162663*
X169482Y162296D02*
X169409Y162296D01*
Y163178*
X169721Y162516D02*
X169795Y162369D01*
X169942Y162296*
X170089*
X170236Y162369*
X170309Y162516*
Y162663*
X170236Y162810*
X170089Y162884*
X169942*
X169795Y162810*
X169721Y162663*
Y162516*
X170571Y162884D02*
X170571Y162075D01*
Y162516D02*
X170645Y162369D01*
X170792Y162296*
X170939*
X171086Y162369*
X171159Y162516*
Y162663*
X171086Y162810*
X170939Y162884*
X170792*
X170645Y162810*
X170571Y162663*
Y162516*
X171421Y162296D02*
X171421Y162884D01*
Y162810D02*
X171495Y162884D01*
X171642*
X171715Y162810*
Y162590*
Y162810D02*
X171789Y162884D01*
X171936*
X172009Y162810*
Y162296*
X172859Y162369D02*
X172786Y162296D01*
X172639*
X172492*
X172345Y162369*
X172271Y162516*
Y162737*
X172345Y162810*
X172492Y162884*
X172639*
X172786Y162810*
X172859Y162737*
Y162663*
X172786Y162590*
X172639Y162516*
X172492*
X172345Y162590*
X172271Y162663*
X173121Y162296D02*
X173121Y162884D01*
Y162663D02*
X173195Y162810D01*
X173342Y162884*
X173489*
X173636Y162810*
X173709Y162663*
Y162296*
X173971Y162884D02*
X174265Y162884D01*
X174118Y163031D02*
X174118Y162369D01*
X174192Y162296*
X174265*
X174339Y162369*
X175134Y162296D02*
X175134Y163178D01*
Y162737D02*
X175354Y162737D01*
X175869Y163178*
X175354Y162737D02*
X175869Y162296D01*
X176146D02*
X176146Y162884D01*
Y163104D02*
X176147Y163105D01*
X176684Y162884D02*
X176978Y162884D01*
X176831Y163031D02*
X176831Y162369D01*
X176904Y162296*
X176978*
X177051Y162369*
X160181Y160796D02*
X160475Y160796D01*
X160328D02*
X160328Y161678D01*
X160181Y161531*
X160957Y160869D02*
X161104Y160796D01*
X161251*
X161398Y160869*
X161472Y161016*
Y161457*
X161398Y161604*
X161251Y161678*
X161104*
X160957Y161604*
X160884Y161457*
Y161016*
X160957Y160869*
X161398Y161604*
X161807Y160869D02*
X161954Y160796D01*
X162101*
X162248Y160869*
X162322Y161016*
Y161457*
X162248Y161604*
X162101Y161678*
X161954*
X161807Y161604*
X161734Y161457*
Y161016*
X161807Y160869*
X162248Y161604*
X162584Y160796D02*
X163172Y161384D01*
Y160796D02*
X162584Y161384D01*
X163434Y160869D02*
X163581Y160796D01*
X163801*
X163948Y160869*
X164022Y161016*
Y161090*
X163948Y161237*
X163801Y161310*
X163434*
Y161678*
X164022*
X164357Y160869D02*
X164504Y160796D01*
X164651*
X164798Y160869*
X164872Y161016*
Y161457*
X164798Y161604*
X164651Y161678*
X164504*
X164357Y161604*
X164284Y161457*
Y161016*
X164357Y160869*
X164798Y161604*
X165134Y160796D02*
X165134Y161384D01*
Y161310D02*
X165207Y161384D01*
X165354*
X165428Y161310*
Y161090*
Y161310D02*
X165501Y161384D01*
X165648*
X165722Y161310*
Y160796*
X165984D02*
X165984Y161384D01*
Y161310D02*
X166057Y161384D01*
X166204*
X166278Y161310*
Y161090*
Y161310D02*
X166351Y161384D01*
X166498*
X166572Y161310*
Y160796*
X167371D02*
X167371Y161678D01*
X168107*
X167959Y161237D02*
X167371Y161237D01*
Y160796D02*
X168107Y160796D01*
X168457D02*
X168384Y160796D01*
Y161678*
X169284Y160869D02*
X169211Y160796D01*
X169064*
X168917*
X168770Y160869*
X168696Y161016*
Y161237*
X168770Y161310*
X168917Y161384*
X169064*
X169211Y161310*
X169284Y161237*
Y161163*
X169211Y161090*
X169064Y161016*
X168917*
X168770Y161090*
X168696Y161163*
X170134Y161310D02*
X169987Y161384D01*
X169767*
X169620Y161310*
X169546Y161163*
Y161016*
X169620Y160869*
X169767Y160796*
X169987*
X170134Y160869*
X170396Y161384D02*
X170690Y161384D01*
X170543Y161531D02*
X170543Y160869D01*
X170617Y160796*
X170690*
X170764Y160869*
X171021Y160796D02*
X171021Y161384D01*
Y161163D02*
X171095Y161310D01*
X171242Y161384*
X171389*
X171536Y161310*
X171796Y161016D02*
X171870Y160869D01*
X172017Y160796*
X172164*
X172311Y160869*
X172384Y161016*
Y161163*
X172311Y161310*
X172164Y161384*
X172017*
X171870Y161310*
X171796Y161163*
Y161016*
X173234Y161163D02*
X173161Y161310D01*
X173014Y161384*
X172867*
X172720Y161310*
X172646Y161163*
Y161016*
X172720Y160869*
X172867Y160796*
X173014*
X173161Y160869*
X173234Y161016*
Y160796D02*
X173234Y161678D01*
X174084Y160869D02*
X174011Y160796D01*
X173864*
X173717*
X173570Y160869*
X173496Y161016*
Y161237*
X173570Y161310*
X173717Y161384*
X173864*
X174011Y161310*
X174084Y161237*
Y161163*
X174011Y161090*
X173864Y161016*
X173717*
X173570Y161090*
X173496Y161163*
X174884Y161678D02*
X175251Y160796D01*
X175619Y161678*
X176043Y160796D02*
X176337Y160796D01*
X176190D02*
X176190Y161678D01*
X176043Y161531*
X176820Y160796D02*
X176893Y160869D01*
X176820Y160943*
X176746Y160869*
X176820Y160796*
X177207Y160869D02*
X177354Y160796D01*
X177501*
X177648Y160869*
X177722Y161016*
Y161457*
X177648Y161604*
X177501Y161678*
X177354*
X177207Y161604*
X177134Y161457*
Y161016*
X177207Y160869*
X177648Y161604*
X160401Y159296D02*
X160401Y160178D01*
X160034Y159590*
X160622*
X161421Y160178D02*
X161421Y159296D01*
X162157*
X162434Y159810D02*
X162581Y159884D01*
X162801*
X162948Y159810*
X163022Y159663*
Y159443*
X162948Y159369*
X162801Y159296*
X162654*
X162507Y159369*
X162434Y159443*
Y159516*
X162507Y159590*
X162654Y159663*
X162801*
X162948Y159590*
X163022Y159516*
Y159443D02*
X163022Y159296D01*
X163284Y159884D02*
X163357Y159590D01*
X163504Y159443*
X163651*
X163798Y159590*
X163872Y159884*
X163798Y159590D02*
X163725Y159296D01*
X163651Y159149*
X163504Y159075*
X163357Y159149*
X164722Y159369D02*
X164648Y159296D01*
X164501*
X164354*
X164207Y159369*
X164134Y159516*
Y159737*
X164207Y159810*
X164354Y159884*
X164501*
X164648Y159810*
X164722Y159737*
Y159663*
X164648Y159590*
X164501Y159516*
X164354*
X164207Y159590*
X164134Y159663*
X164984Y159296D02*
X164984Y159884D01*
Y159663D02*
X165057Y159810D01*
X165204Y159884*
X165351*
X165498Y159810*
X166296Y159296D02*
X167032Y160178D01*
X167993Y159296D02*
X168287Y159296D01*
X168140D02*
X168140Y160178D01*
X167993Y160031*
X168770Y159296D02*
X168843Y159369D01*
X168770Y159443*
X168696Y159369*
X168770Y159296*
X169084Y159369D02*
X169231Y159296D01*
X169451*
X169598Y159369*
X169672Y159516*
Y159590*
X169598Y159737*
X169451Y159810*
X169084*
Y160178*
X169672*
X169934Y159296D02*
X169934Y159884D01*
Y159810D02*
X170007Y159884D01*
X170154*
X170228Y159810*
Y159590*
Y159810D02*
X170301Y159884D01*
X170448*
X170522Y159810*
Y159296*
X170784D02*
X170784Y159884D01*
Y159810D02*
X170857Y159884D01*
X171004*
X171078Y159810*
Y159590*
Y159810D02*
X171151Y159884D01*
X171298*
X171372Y159810*
Y159296*
X172171D02*
X172171Y160178D01*
X172686*
X172833Y160104*
X172907Y159957*
X172833Y159810*
X172686Y159737*
X172171*
X173919Y159443D02*
X173845Y159369D01*
X173698Y159296*
X173478*
X173331Y159369*
X173257Y159443*
X173184Y159590*
Y159884*
X173257Y160031*
X173331Y160104*
X173478Y160178*
X173698*
X173845Y160104*
X173919Y160031*
X174711Y159737D02*
X174858Y159663D01*
X174932Y159516*
X174858Y159369*
X174711Y159296*
X174196*
Y160178*
X174711*
X174858Y160104*
X174932Y159957*
X174858Y159810*
X174711Y159737*
X174196*
D02*
D24*
X81623Y162533D02*
G75*
G03Y161967J-283D01*
G01*
G75*
G03Y162533J283*
G01*
X81622Y162486D02*
G75*
G03Y162014J-236D01*
G01*
G75*
G03Y162486J236*
G01*
X81340Y162250D02*
G36*
G75*
G03X81623Y161967I283D01*
G01*
G75*
G03X81906Y162250J283*
G01*
X81858*
G75*
G02X81622Y162014I-236*
G01*
G75*
G02X81386Y162250J236*
G01*
X81340*
G37*
X81386D02*
G36*
G75*
G02X81622Y162486I236D01*
G01*
G75*
G02X81858Y162250J-236*
G01*
X81906*
G75*
G03X81623Y162533I-283*
G01*
G75*
G03X81340Y162250J-283*
G01*
X81386*
G37*
X81755Y162095D02*
X81665Y162235D01*
X81705Y162245*
X81730Y162260*
X81745Y162290*
X81750Y162325*
X81745Y162360*
X81725Y162390*
X81690Y162405*
X81640Y162410*
X81515*
Y162095*
X81560*
Y162230*
X81620*
X81700Y162095*
X81755*
X81695Y162325D02*
X81690Y162305D01*
X81675Y162290*
X81655Y162275*
X81620Y162270*
X81560*
Y162375*
X81630*
X81660Y162370*
X81680Y162360*
X81695Y162345*
Y162325*
X81515Y162323D02*
G36*
Y162095D01*
X81560*
Y162230*
X81620*
X81700Y162095*
X81755*
X81665Y162235*
X81705Y162245*
X81730Y162260*
X81745Y162290*
X81749Y162323*
X81694*
X81690Y162305*
X81675Y162290*
X81655Y162275*
X81620Y162270*
X81560*
Y162323*
X81515*
G37*
X81560D02*
G36*
Y162375D01*
X81630*
X81660Y162370*
X81680Y162360*
X81695Y162345*
Y162325*
X81694Y162323*
X81749*
X81750Y162325*
X81745Y162360*
X81725Y162390*
X81690Y162405*
X81640Y162410*
X81515*
Y162323*
X81560*
G37*
X82305Y160140D02*
X82295Y160050D01*
X82285Y159970*
X82270Y159905*
X82260Y159855*
X82245Y159805*
X82225Y159740*
X82200Y159660*
X82170Y159565*
X80835Y161665*
X80805Y161705*
X80775Y161740*
X80745Y161770*
X80715Y161795*
X80655Y161825*
X80620Y161830*
X80590Y161835*
X80530Y161820*
X80475Y161790*
X80420Y161745*
X80365Y161675*
X79925Y161055*
X81490Y158575*
X81290Y158415*
X81185Y158340*
X80975Y158210*
X80865Y158155*
X80755Y158105*
X80525Y158015*
X80405Y157980*
X80285Y157950*
X80165Y157930*
X80040Y157910*
X79915Y157895*
X79655Y157885*
X79520Y157890*
X79390Y157895*
X79260Y157915*
X79135Y157935*
X79010Y157960*
X78890Y157995*
X78770Y158035*
X78650Y158085*
X78535Y158135*
X78425Y158195*
X78315Y158260*
X78205Y158330*
X78100Y158410*
X77995Y158495*
X77895Y158585*
X77795Y158680*
X78475Y159615*
X78495Y159655*
X78510Y159695*
X78520Y159785*
X78510Y159815*
X78495Y159855*
X78470Y159900*
X78440Y159955*
X77940Y160740*
X77205Y159705*
X77165Y159865*
X77135Y160030*
X77120Y160205*
X77115Y160380*
X77125Y160620*
X77140Y160735*
X77160Y160850*
X77185Y160960*
X77215Y161070*
X77255Y161180*
X77295Y161285*
X77345Y161385*
X77395Y161490*
X77455Y161585*
X77520Y161685*
X77590Y161780*
X77665Y161870*
X77835Y162050*
X77935Y162140*
X78035Y162225*
X78135Y162300*
X78240Y162375*
X78350Y162440*
X78465Y162500*
X78575Y162555*
X78695Y162605*
X78815Y162650*
X78940Y162685*
X79065Y162715*
X79195Y162745*
X79325Y162765*
X79460Y162780*
X79740Y162790*
X79860Y162785*
X79985Y162775*
X80110Y162755*
X80240Y162730*
X80370Y162695*
X80505Y162655*
X80640Y162605*
X80775Y162550*
X82305Y160140*
X80400Y159589D02*
X79080Y161674D01*
X79055Y161714*
X79025Y161749*
X79000Y161779*
X78940Y161819*
X78905Y161834*
X78875Y161839*
X78840Y161844*
X78785Y161834*
X78725Y161804*
X78670Y161754*
X78610Y161684*
X78170Y161064*
X79500Y158979*
X79530Y158934*
X79560Y158894*
X79585Y158859*
X79610Y158834*
X79635Y158814*
X79660Y158799*
X79685Y158789*
X79705Y158784*
X79775Y158794*
X79835Y158819*
X79890Y158864*
X79940Y158924*
X80400Y159589*
X78211Y160314D02*
G36*
X78440Y159955D01*
X78470Y159900*
X78495Y159855*
X78510Y159815*
X78520Y159785*
X78510Y159695*
X78495Y159655*
X78475Y159615*
X77795Y158680*
X77895Y158585*
X77995Y158495*
X78100Y158410*
X78205Y158330*
X78315Y158260*
X78425Y158195*
X78535Y158135*
X78650Y158085*
X78770Y158035*
X78890Y157995*
X79010Y157960*
X79135Y157935*
X79260Y157915*
X79390Y157895*
X79520Y157890*
X79655Y157885*
X79915Y157895*
X80040Y157910*
X80165Y157930*
X80285Y157950*
X80405Y157980*
X80525Y158015*
X80755Y158105*
X80865Y158155*
X80975Y158210*
X81185Y158340*
X81290Y158415*
X81490Y158575*
X80392Y160314*
X79941*
X80400Y159589*
X79940Y158924*
X79890Y158864*
X79835Y158819*
X79775Y158794*
X79705Y158784*
X79685Y158789*
X79660Y158799*
X79635Y158814*
X79610Y158834*
X79585Y158859*
X79560Y158894*
X79530Y158934*
X79500Y158979*
X78649Y160314*
X78211*
G37*
X78649D02*
G36*
X78170Y161064D01*
X78610Y161684*
X78670Y161754*
X78725Y161804*
X78785Y161834*
X78840Y161844*
X78875Y161839*
X78905Y161834*
X78940Y161819*
X79000Y161779*
X79025Y161749*
X79055Y161714*
X79080Y161674*
X79941Y160314*
X80392*
X79925Y161055*
X80365Y161675*
X80420Y161745*
X80475Y161790*
X80530Y161820*
X80590Y161835*
X80620Y161830*
X80655Y161825*
X80715Y161795*
X80745Y161770*
X80775Y161740*
X80805Y161705*
X80835Y161665*
X82170Y159565*
X82200Y159660*
X82225Y159740*
X82245Y159805*
X82260Y159855*
X82270Y159905*
X82285Y159970*
X82295Y160050*
X82305Y160140*
X80775Y162550*
X80640Y162605*
X80505Y162655*
X80370Y162695*
X80240Y162730*
X80110Y162755*
X79985Y162775*
X79860Y162785*
X79740Y162790*
X79460Y162780*
X79325Y162765*
X79195Y162745*
X79065Y162715*
X78940Y162685*
X78815Y162650*
X78695Y162605*
X78575Y162555*
X78465Y162500*
X78350Y162440*
X78240Y162375*
X78135Y162300*
X78035Y162225*
X77935Y162140*
X77835Y162050*
X77665Y161870*
X77590Y161780*
X77520Y161685*
X77455Y161585*
X77395Y161490*
X77345Y161385*
X77295Y161285*
X77255Y161180*
X77215Y161070*
X77185Y160960*
X77160Y160850*
X77140Y160735*
X77125Y160620*
X77115Y160380*
X77120Y160205*
X77135Y160030*
X77165Y159865*
X77205Y159705*
X77940Y160740*
X78211Y160314*
X78649*
G37*
X85710Y159250D02*
X85255D01*
X85125Y160820*
X85120*
X84640Y159565*
X84615Y159515*
X84590Y159475*
X84560Y159435*
X84525Y159405*
X84490Y159380*
X84450Y159365*
X84405Y159355*
X84355Y159350*
X84305Y159355*
X84260Y159365*
X84220Y159380*
X84185Y159405*
X84150Y159435*
X84120Y159475*
X84095Y159515*
X84070Y159565*
X83600Y160800*
X83595*
X83460Y159250*
X82995*
X83230Y161455*
X83240Y161505*
X83260Y161550*
X83285Y161595*
X83315Y161635*
X83355Y161675*
X83395Y161700*
X83440Y161715*
X83485Y161720*
X83545Y161715*
X83595Y161705*
X83645Y161685*
X83690Y161660*
X83730Y161625*
X83765Y161580*
X83795Y161535*
X83820Y161475*
X84355Y160135*
X84360*
X84890Y161475*
X84915Y161535*
X84985Y161625*
X85025Y161660*
X85065Y161685*
X85115Y161705*
X85165Y161715*
X85225Y161720*
X85270Y161715*
X85315Y161700*
X85355Y161670*
X85395Y161635*
X85425Y161590*
X85450Y161540*
X85470Y161490*
X85480Y161430*
X85710Y159250*
G36*
X85255*
X85125Y160820*
X85120*
X84640Y159565*
X84615Y159515*
X84590Y159475*
X84560Y159435*
X84525Y159405*
X84490Y159380*
X84450Y159365*
X84405Y159355*
X84355Y159350*
X84305Y159355*
X84260Y159365*
X84220Y159380*
X84185Y159405*
X84150Y159435*
X84120Y159475*
X84095Y159515*
X84070Y159565*
X83600Y160800*
X83595*
X83460Y159250*
X82995*
X83230Y161455*
X83240Y161505*
X83260Y161550*
X83285Y161595*
X83315Y161635*
X83355Y161675*
X83395Y161700*
X83440Y161715*
X83485Y161720*
X83545Y161715*
X83595Y161705*
X83645Y161685*
X83690Y161660*
X83730Y161625*
X83765Y161580*
X83795Y161535*
X83820Y161475*
X84355Y160135*
X84360*
X84890Y161475*
X84915Y161535*
X84985Y161625*
X85025Y161660*
X85065Y161685*
X85115Y161705*
X85165Y161715*
X85225Y161720*
X85270Y161715*
X85315Y161700*
X85355Y161670*
X85395Y161635*
X85425Y161590*
X85450Y161540*
X85470Y161490*
X85480Y161430*
X85710Y159250*
G37*
X86380D02*
X85955D01*
Y161115*
X86380*
Y159250*
G36*
X85955*
Y161115*
X86380*
Y159250*
G37*
X88280Y159710D02*
Y159640D01*
X88275Y159580*
X88270Y159525*
X88265Y159475*
X88260Y159435*
X88250Y159400*
X88240Y159370*
X88225Y159345*
X88205Y159320*
X88175Y159295*
X88145Y159275*
X88105Y159260*
X88060Y159245*
X88010Y159235*
X87950Y159230*
X87180*
X87055Y159235*
X86950Y159255*
X86865Y159290*
X86795Y159335*
X86755Y159380*
X86720Y159430*
X86690Y159490*
X86665Y159555*
X86645Y159630*
X86630Y159715*
X86625Y159805*
X86620Y159905*
Y160460*
X86625Y160550*
X86630Y160635*
X86640Y160715*
X86655Y160785*
X86675Y160845*
X86695Y160900*
X86725Y160950*
X86755Y160990*
X86790Y161025*
X86830Y161055*
X86875Y161080*
X86925Y161100*
X86985Y161115*
X87045Y161125*
X87110Y161135*
X87995*
X88045Y161130*
X88090Y161120*
X88130Y161100*
X88165Y161080*
X88195Y161055*
X88215Y161025*
X88235Y160990*
X88245Y160950*
X88255Y160895*
X88260Y160825*
X88265Y160745*
Y160645*
X87260*
X87185Y160640*
X87130Y160620*
X87085Y160585*
X87055Y160535*
X87040Y160490*
X87030Y160435*
X87025Y160365*
Y160020*
X87030Y159960*
X87035Y159910*
X87040Y159865*
X87050Y159830*
X87065Y159800*
X87080Y159775*
X87095Y159755*
X87125Y159735*
X87160Y159720*
X87200Y159710*
X88280*
G36*
Y159640*
X88275Y159580*
X88270Y159525*
X88265Y159475*
X88260Y159435*
X88250Y159400*
X88240Y159370*
X88225Y159345*
X88205Y159320*
X88175Y159295*
X88145Y159275*
X88105Y159260*
X88060Y159245*
X88010Y159235*
X87950Y159230*
X87180*
X87055Y159235*
X86950Y159255*
X86865Y159290*
X86795Y159335*
X86755Y159380*
X86720Y159430*
X86690Y159490*
X86665Y159555*
X86645Y159630*
X86630Y159715*
X86625Y159805*
X86620Y159905*
Y160460*
X86625Y160550*
X86630Y160635*
X86640Y160715*
X86655Y160785*
X86675Y160845*
X86695Y160900*
X86725Y160950*
X86755Y160990*
X86790Y161025*
X86830Y161055*
X86875Y161080*
X86925Y161100*
X86985Y161115*
X87045Y161125*
X87110Y161135*
X87995*
X88045Y161130*
X88090Y161120*
X88130Y161100*
X88165Y161080*
X88195Y161055*
X88215Y161025*
X88235Y160990*
X88245Y160950*
X88255Y160895*
X88260Y160825*
X88265Y160745*
Y160645*
X87260*
X87185Y160640*
X87130Y160620*
X87085Y160585*
X87055Y160535*
X87040Y160490*
X87030Y160435*
X87025Y160365*
Y160020*
X87030Y159960*
X87035Y159910*
X87040Y159865*
X87050Y159830*
X87065Y159800*
X87080Y159775*
X87095Y159755*
X87125Y159735*
X87160Y159720*
X87200Y159710*
X88280*
G37*
X89765Y160345D02*
Y160455D01*
X89760Y160515*
X89750Y160565*
X89735Y160600*
X89710Y160625*
X89690Y160635*
X89665Y160645*
X89630Y160650*
X88905*
Y160200*
X89655*
X89685Y160210*
X89710Y160225*
X89730Y160240*
X89745Y160265*
X89755Y160300*
X89765Y160345*
X90150Y160445D02*
X90145Y160355D01*
X90140Y160275*
X90125Y160205*
X90110Y160150*
X90080Y160095*
X90040Y160050*
X89990Y160010*
X89925Y159985*
Y159980*
X89980Y159960*
X90020Y159930*
X90060Y159895*
X90090Y159845*
X90115Y159790*
X90130Y159725*
X90140Y159650*
X90145Y159565*
Y159250*
X89750*
Y159535*
X89745Y159580*
X89740Y159620*
X89730Y159650*
X89710Y159685*
X89680Y159715*
X89640Y159730*
X89590Y159735*
X88905*
Y159250*
X88515*
Y161115*
X89765*
X89855Y161110*
X89935Y161085*
X90000Y161045*
X90055Y160990*
X90075Y160955*
X90095Y160915*
X90110Y160870*
X90125Y160820*
X90135Y160765*
X90145Y160635*
X90150Y160565*
Y160445*
X89764Y160345D02*
Y160455D01*
X89759Y160515*
X89749Y160565*
X89734Y160600*
X89709Y160625*
X89689Y160635*
X89664Y160645*
X89629Y160650*
X88904*
Y160200*
X89654*
X89684Y160210*
X89709Y160225*
X89729Y160240*
X89744Y160265*
X89754Y160300*
X89764Y160345*
X88515Y160425D02*
G36*
Y159250D01*
X88905*
Y159735*
X89590*
X89640Y159730*
X89680Y159715*
X89710Y159685*
X89730Y159650*
X89740Y159620*
X89745Y159580*
X89750Y159535*
Y159250*
X90145*
Y159565*
X90140Y159650*
X90130Y159725*
X90115Y159790*
X90090Y159845*
X90060Y159895*
X90020Y159930*
X89980Y159960*
X89925Y159980*
Y159985*
X89990Y160010*
X90040Y160050*
X90080Y160095*
X90110Y160150*
X90125Y160205*
X90140Y160275*
X90145Y160355*
X90148Y160425*
X89764*
Y160345*
X89754Y160300*
X89744Y160265*
X89729Y160240*
X89709Y160225*
X89684Y160210*
X89654Y160200*
X88904*
Y160425*
X88515*
G37*
X88904D02*
G36*
Y160650D01*
X89629*
X89664Y160645*
X89689Y160635*
X89709Y160625*
X89734Y160600*
X89749Y160565*
X89759Y160515*
X89764Y160455*
Y160425*
X90148*
X90150Y160445*
Y160565*
X90145Y160635*
X90135Y160765*
X90125Y160820*
X90110Y160870*
X90095Y160915*
X90075Y160955*
X90055Y160990*
X90000Y161045*
X89935Y161085*
X89855Y161110*
X89765Y161115*
X88515*
Y160425*
X88904*
G37*
X92130Y160545D02*
Y159815D01*
X92120Y159730*
X92110Y159650*
X92095Y159580*
X92070Y159515*
X92045Y159455*
X92015Y159405*
X91985Y159360*
X91910Y159305*
X91815Y159260*
X91705Y159235*
X91570Y159230*
X90865*
X90795Y159240*
X90730Y159255*
X90670Y159275*
X90615Y159300*
X90565Y159330*
X90525Y159370*
X90490Y159410*
X90465Y159450*
X90425Y159550*
X90410Y159610*
X90400Y159675*
X90390Y159745*
X90385Y159825*
Y160570*
X90395Y160670*
X90415Y160760*
X90435Y160840*
X90465Y160910*
X90500Y160970*
X90545Y161020*
X90595Y161060*
X90660Y161090*
X90740Y161115*
X90835Y161130*
X90945Y161135*
X91645*
X91720Y161125*
X91785Y161110*
X91840Y161090*
X91895Y161065*
X91940Y161035*
X91980Y161000*
X92015Y160955*
X92045Y160915*
X92085Y160815*
X92100Y160755*
X92115Y160690*
X92125Y160620*
X92130Y160545*
X91729Y160079D02*
Y160284D01*
X91724Y160379*
X91714Y160459*
X91694Y160524*
X91669Y160574*
X91634Y160609*
X91594Y160634*
X91539Y160649*
X91479Y160654*
X91024*
X90954Y160649*
X90894Y160624*
X90849Y160589*
X90814Y160539*
X90799Y160494*
X90789Y160434*
X90784Y160364*
X90779Y160284*
Y160024*
X90784Y159969*
X90789Y159919*
X90794Y159879*
X90804Y159839*
X90814Y159809*
X90829Y159784*
X90844Y159764*
X90874Y159739*
X90909Y159724*
X90954Y159714*
X91004Y159709*
X91504*
X91574Y159714*
X91629Y159739*
X91674Y159779*
X91704Y159829*
X91714Y159869*
X91719Y159924*
X91724Y159994*
X91729Y160079*
X90385Y160182D02*
G36*
Y159825D01*
X90390Y159745*
X90400Y159675*
X90410Y159610*
X90425Y159550*
X90465Y159450*
X90490Y159410*
X90525Y159370*
X90565Y159330*
X90615Y159300*
X90670Y159275*
X90730Y159255*
X90795Y159240*
X90865Y159230*
X91570*
X91705Y159235*
X91815Y159260*
X91910Y159305*
X91985Y159360*
X92015Y159405*
X92045Y159455*
X92070Y159515*
X92095Y159580*
X92110Y159650*
X92120Y159730*
X92130Y159815*
Y160182*
X91729*
Y160079*
X91724Y159994*
X91719Y159924*
X91714Y159869*
X91704Y159829*
X91674Y159779*
X91629Y159739*
X91574Y159714*
X91504Y159709*
X91004*
X90954Y159714*
X90909Y159724*
X90874Y159739*
X90844Y159764*
X90829Y159784*
X90814Y159809*
X90804Y159839*
X90794Y159879*
X90789Y159919*
X90784Y159969*
X90779Y160024*
Y160182*
X90385*
G37*
X90779D02*
G36*
Y160284D01*
X90784Y160364*
X90789Y160434*
X90799Y160494*
X90814Y160539*
X90849Y160589*
X90894Y160624*
X90954Y160649*
X91024Y160654*
X91479*
X91539Y160649*
X91594Y160634*
X91634Y160609*
X91669Y160574*
X91694Y160524*
X91714Y160459*
X91724Y160379*
X91729Y160284*
Y160182*
X92130*
Y160545*
X92125Y160620*
X92115Y160690*
X92100Y160755*
X92085Y160815*
X92045Y160915*
X92015Y160955*
X91980Y161000*
X91940Y161035*
X91895Y161065*
X91840Y161090*
X91785Y161110*
X91720Y161125*
X91645Y161135*
X90945*
X90835Y161130*
X90740Y161115*
X90660Y161090*
X90595Y161060*
X90545Y161020*
X90500Y160970*
X90465Y160910*
X90435Y160840*
X90415Y160760*
X90395Y160670*
X90385Y160570*
Y160182*
X90779*
G37*
X94005Y159705D02*
Y159640D01*
X94000Y159580*
X93995Y159525*
X93990Y159475*
X93985Y159435*
X93975Y159400*
X93960Y159370*
X93950Y159345*
X93930Y159320*
X93900Y159295*
X93865Y159270*
X93825Y159255*
X93780Y159240*
X93730Y159230*
X93670Y159225*
X92825*
X92755Y159235*
X92690Y159250*
X92630Y159270*
X92575Y159295*
X92530Y159325*
X92490Y159365*
X92455Y159405*
X92425Y159445*
X92385Y159545*
X92370Y159605*
X92355Y159670*
X92350Y159740*
X92340Y159900*
Y160460*
X92345Y160545*
X92350Y160620*
X92355Y160690*
X92370Y160755*
X92385Y160815*
X92425Y160915*
X92455Y160955*
X92490Y161000*
X92530Y161035*
X92575Y161065*
X92630Y161090*
X92690Y161110*
X92755Y161125*
X92825Y161135*
X93560*
X93645Y161130*
X93715Y161125*
X93775Y161115*
X93820Y161110*
X93855Y161100*
X93880Y161090*
X93905Y161065*
X93930Y161035*
X93945Y160990*
X93960Y160940*
X93970Y160880*
X93980Y160810*
X93985Y160730*
Y160640*
X92980Y160645*
X92910Y160640*
X92850Y160615*
X92810Y160580*
X92775Y160530*
X92760Y160485*
X92750Y160435*
X92745Y160365*
Y159980*
X92755Y159895*
X92770Y159830*
X92790Y159785*
X92820Y159750*
X92860Y159725*
X92910Y159710*
X92970Y159705*
X94005*
G36*
Y159640*
X94000Y159580*
X93995Y159525*
X93990Y159475*
X93985Y159435*
X93975Y159400*
X93960Y159370*
X93950Y159345*
X93930Y159320*
X93900Y159295*
X93865Y159270*
X93825Y159255*
X93780Y159240*
X93730Y159230*
X93670Y159225*
X92825*
X92755Y159235*
X92690Y159250*
X92630Y159270*
X92575Y159295*
X92530Y159325*
X92490Y159365*
X92455Y159405*
X92425Y159445*
X92385Y159545*
X92370Y159605*
X92355Y159670*
X92350Y159740*
X92340Y159900*
Y160460*
X92345Y160545*
X92350Y160620*
X92355Y160690*
X92370Y160755*
X92385Y160815*
X92425Y160915*
X92455Y160955*
X92490Y161000*
X92530Y161035*
X92575Y161065*
X92630Y161090*
X92690Y161110*
X92755Y161125*
X92825Y161135*
X93560*
X93645Y161130*
X93715Y161125*
X93775Y161115*
X93820Y161110*
X93855Y161100*
X93880Y161090*
X93905Y161065*
X93930Y161035*
X93945Y160990*
X93960Y160940*
X93970Y160880*
X93980Y160810*
X93985Y160730*
Y160640*
X92980Y160645*
X92910Y160640*
X92850Y160615*
X92810Y160580*
X92775Y160530*
X92760Y160485*
X92750Y160435*
X92745Y160365*
Y159980*
X92755Y159895*
X92770Y159830*
X92790Y159785*
X92820Y159750*
X92860Y159725*
X92910Y159710*
X92970Y159705*
X94005*
G37*
X95840Y159250D02*
X95445D01*
Y159955*
X94620*
Y159250*
X94235*
Y161115*
X94620*
Y160450*
X95445*
Y161115*
X95840*
Y159250*
G36*
X95445*
Y159955*
X94620*
Y159250*
X94235*
Y161115*
X94620*
Y160450*
X95445*
Y161115*
X95840*
Y159250*
G37*
X96545D02*
X96115D01*
Y161115*
X96545*
Y159250*
G36*
X96115*
Y161115*
X96545*
Y159250*
G37*
X98465Y160320D02*
X98460Y160175D01*
X98445Y160055*
X98415Y159955*
X98375Y159870*
X98325Y159805*
X98265Y159755*
X98190Y159730*
X98105Y159720*
X97185*
Y159250*
X96800*
Y161115*
X98005*
X98120Y161105*
X98215Y161080*
X98295Y161030*
X98360Y160960*
X98385Y160920*
X98405Y160875*
X98425Y160820*
X98440Y160765*
X98460Y160635*
X98465Y160560*
Y160320*
X98064Y160335D02*
Y160455D01*
X98059Y160500*
X98054Y160540*
X98039Y160575*
X98024Y160600*
X97999Y160625*
X97974Y160640*
X97939Y160650*
X97184*
Y160185*
X97934*
X97994Y160195*
X98034Y160235*
X98044Y160260*
X98054Y160295*
X98064Y160335*
X96800Y160418D02*
G36*
Y159250D01*
X97185*
Y159720*
X98105*
X98190Y159730*
X98265Y159755*
X98325Y159805*
X98375Y159870*
X98415Y159955*
X98445Y160055*
X98460Y160175*
X98465Y160320*
Y160418*
X98064*
Y160335*
X98054Y160295*
X98044Y160260*
X98034Y160235*
X97994Y160195*
X97934Y160185*
X97184*
Y160418*
X96800*
G37*
X97184D02*
G36*
Y160650D01*
X97939*
X97974Y160640*
X97999Y160625*
X98024Y160600*
X98039Y160575*
X98054Y160540*
X98059Y160500*
X98064Y160455*
Y160418*
X98465*
Y160560*
X98460Y160635*
X98440Y160765*
X98425Y160820*
X98405Y160875*
X98385Y160920*
X98360Y160960*
X98295Y161030*
X98215Y161080*
X98120Y161105*
X98005Y161115*
X96800*
Y160418*
X97184*
G37*
X0Y0D02*
M02*
