G04 GENERATED BY PULSONIX 7.0 GERBER.DLL 4573*
%INHILLSTAR_100X50_EL_4LAYER_V1_0*%
%LNGERBER_INNER1*%
%FSLAX33Y33*%
%IPPOS*%
%LPD*%
%OFA0B0*%
%MOMM*%
%ADD21C,0.125*%
%ADD112C,0.600*%
X0Y0D02*
D02*
D21*
X111421Y90796D02*
X111715Y90796D01*
X111568D02*
X111568Y91678D01*
X111421D02*
X111715Y91678D01*
X111959Y90796D02*
X111959Y91384D01*
Y91163D02*
X112032Y91310D01*
X112179Y91384*
X112326*
X112473Y91310*
X112547Y91163*
Y90796*
X112809D02*
X112809Y91384D01*
Y91163D02*
X112882Y91310D01*
X113029Y91384*
X113176*
X113323Y91310*
X113397Y91163*
Y90796*
X114247Y90869D02*
X114173Y90796D01*
X114026*
X113879*
X113732Y90869*
X113659Y91016*
Y91237*
X113732Y91310*
X113879Y91384*
X114026*
X114173Y91310*
X114247Y91237*
Y91163*
X114173Y91090*
X114026Y91016*
X113879*
X113732Y91090*
X113659Y91163*
X114509Y90796D02*
X114509Y91384D01*
Y91163D02*
X114582Y91310D01*
X114729Y91384*
X114876*
X115023Y91310*
X115968Y90796D02*
X116262Y90796D01*
X116115D02*
X116115Y91678D01*
X115968Y91531*
X117209Y91090D02*
X117797Y91090D01*
X118596Y90796D02*
X118596Y91678D01*
X119332Y90796*
Y91678*
X119609Y91090D02*
X119609Y91384D01*
X119682Y91531*
X119756Y91604*
X119903Y91678*
X120050*
X120197Y91604*
X120270Y91531*
X120344Y91384*
Y91090*
X120270Y90943*
X120197Y90869*
X120050Y90796*
X119903*
X119756Y90869*
X119682Y90943*
X119609Y91090*
X121747Y91310D02*
X121600Y91384D01*
X121379*
X121232Y91310*
X121159Y91163*
Y91016*
X121232Y90869*
X121379Y90796*
X121600*
X121747Y90869*
X122009Y91016D02*
X122082Y90869D01*
X122229Y90796*
X122376*
X122523Y90869*
X122597Y91016*
Y91163*
X122523Y91310*
X122376Y91384*
X122229*
X122082Y91310*
X122009Y91163*
Y91016*
X122859Y91384D02*
X122859Y90575D01*
Y91016D02*
X122932Y90869D01*
X123079Y90796*
X123226*
X123373Y90869*
X123447Y91016*
Y91163*
X123373Y91310*
X123226Y91384*
X123079*
X122932Y91310*
X122859Y91163*
Y91016*
X123709Y91384D02*
X123709Y90575D01*
Y91016D02*
X123782Y90869D01*
X123929Y90796*
X124076*
X124223Y90869*
X124297Y91016*
Y91163*
X124223Y91310*
X124076Y91384*
X123929*
X123782Y91310*
X123709Y91163*
Y91016*
X125147Y90869D02*
X125073Y90796D01*
X124926*
X124779*
X124632Y90869*
X124559Y91016*
Y91237*
X124632Y91310*
X124779Y91384*
X124926*
X125073Y91310*
X125147Y91237*
Y91163*
X125073Y91090*
X124926Y91016*
X124779*
X124632Y91090*
X124559Y91163*
X125409Y90796D02*
X125409Y91384D01*
Y91163D02*
X125482Y91310D01*
X125629Y91384*
X125776*
X125923Y91310*
X126721Y91090D02*
X127309Y91090D01*
X128697Y91163D02*
X128623Y91310D01*
X128476Y91384*
X128329*
X128182Y91310*
X128109Y91163*
Y91016*
X128182Y90869*
X128329Y90796*
X128476*
X128623Y90869*
X128697Y91016*
Y90796D02*
X128697Y91678D01*
X128959Y91384D02*
X128959Y91016D01*
X129032Y90869*
X129179Y90796*
X129326*
X129473Y90869*
X129547Y91016*
Y91384D02*
X129547Y90796D01*
X129809D02*
X129809Y91384D01*
Y91310D02*
X129882Y91384D01*
X130029*
X130103Y91310*
Y91090*
Y91310D02*
X130176Y91384D01*
X130323*
X130397Y91310*
Y90796*
X130659D02*
X130659Y91384D01*
Y91310D02*
X130732Y91384D01*
X130879*
X130953Y91310*
Y91090*
Y91310D02*
X131026Y91384D01*
X131173*
X131247Y91310*
Y90796*
X131509Y91384D02*
X131582Y91090D01*
X131729Y90943*
X131876*
X132023Y91090*
X132097Y91384*
X132023Y91090D02*
X131950Y90796D01*
X131876Y90649*
X131729Y90575*
X131582Y90649*
X132359Y90796D02*
X133094Y91678D01*
X133959Y90869D02*
X133886Y90796D01*
X133739*
X133592*
X133445Y90869*
X133371Y91016*
Y91237*
X133445Y91310*
X133592Y91384*
X133739*
X133886Y91310*
X133959Y91237*
Y91163*
X133886Y91090*
X133739Y91016*
X133592*
X133445Y91090*
X133371Y91163*
X134221Y90796D02*
X134221Y91384D01*
Y91310D02*
X134295Y91384D01*
X134442*
X134515Y91310*
Y91090*
Y91310D02*
X134589Y91384D01*
X134736*
X134809Y91310*
Y90796*
X135071Y91384D02*
X135071Y90575D01*
Y91016D02*
X135145Y90869D01*
X135292Y90796*
X135439*
X135586Y90869*
X135659Y91016*
Y91163*
X135586Y91310*
X135439Y91384*
X135292*
X135145Y91310*
X135071Y91163*
Y91016*
X135921Y91384D02*
X136215Y91384D01*
X136068Y91531D02*
X136068Y90869D01*
X136142Y90796*
X136215*
X136289Y90869*
X136546Y91384D02*
X136620Y91090D01*
X136767Y90943*
X136914*
X137061Y91090*
X137134Y91384*
X137061Y91090D02*
X136987Y90796D01*
X136914Y90649*
X136767Y90575*
X136620Y90649*
X138007Y90796D02*
X137934Y90796D01*
Y91678*
X138246Y91310D02*
X138393Y91384D01*
X138614*
X138761Y91310*
X138834Y91163*
Y90943*
X138761Y90869*
X138614Y90796*
X138467*
X138320Y90869*
X138246Y90943*
Y91016*
X138320Y91090*
X138467Y91163*
X138614*
X138761Y91090*
X138834Y91016*
Y90943D02*
X138834Y90796D01*
X139096Y91384D02*
X139170Y91090D01*
X139317Y90943*
X139464*
X139611Y91090*
X139684Y91384*
X139611Y91090D02*
X139537Y90796D01*
X139464Y90649*
X139317Y90575*
X139170Y90649*
X140534Y90869D02*
X140461Y90796D01*
X140314*
X140167*
X140020Y90869*
X139946Y91016*
Y91237*
X140020Y91310*
X140167Y91384*
X140314*
X140461Y91310*
X140534Y91237*
Y91163*
X140461Y91090*
X140314Y91016*
X140167*
X140020Y91090*
X139946Y91163*
X140796Y90796D02*
X140796Y91384D01*
Y91163D02*
X140870Y91310D01*
X141017Y91384*
X141164*
X141311Y91310*
X141571Y90796D02*
X141572Y90797D01*
Y90943D02*
X141571Y91678D01*
X142109Y90796D02*
X142110Y90797D01*
Y90943D02*
X142109Y91678D01*
D02*
D112*
X74784Y134900D03*
X121034Y132900D03*
X123034D03*
X124034Y122825D03*
X125034Y122725D03*
Y132900D03*
Y152400D03*
X126034Y122815D03*
X127034Y122825D03*
Y132900D03*
X128034Y104400D03*
Y122815D03*
X129034D03*
Y132900D03*
X131034D03*
X133034D03*
X179284Y134900D03*
X0Y0D02*
M02*
