G04 GENERATED BY PULSONIX 7.0 GERBER.DLL 4573*
%INHILLSTAR_30X30_EL_V1_0*%
%LNGERBER_DOCUMENTATION*%
%FSLAX33Y33*%
%IPPOS*%
%LPD*%
%OFA0B0*%
%MOMM*%
%ADD15C,0.125*%
%ADD17C,0.200*%
%ADD281C,0.025*%
%ADD394C,0.001*%
X0Y0D02*
D02*
D15*
X99672Y126631D02*
X99819Y126558D01*
X100040*
X100187Y126631*
X100260Y126778*
Y126852*
X100187Y126999*
X100040Y127072*
X99672*
Y127440*
X100260*
X100669Y126558D02*
X100963Y126558D01*
X100816D02*
X100816Y127440D01*
X100669Y127293*
X101445Y126558D02*
X101519Y126631D01*
X101445Y126705*
X101372Y126631*
X101445Y126558*
X101833Y126631D02*
X101980Y126558D01*
X102127*
X102274Y126631*
X102348Y126778*
Y127219*
X102274Y127366*
X102127Y127440*
X101980*
X101833Y127366*
X101759Y127219*
Y126778*
X101833Y126631*
X102274Y127366*
X102609Y126558D02*
X102609Y127146D01*
Y127072D02*
X102683Y127146D01*
X102830*
X102904Y127072*
Y126852*
Y127072D02*
X102977Y127146D01*
X103124*
X103198Y127072*
Y126558*
X103459D02*
X103459Y127146D01*
Y127072D02*
X103533Y127146D01*
X103680*
X103754Y127072*
Y126852*
Y127072D02*
X103827Y127146D01*
X103974*
X104048Y127072*
Y126558*
X127840Y97858D02*
X127840Y98740D01*
X127472Y98152*
X128060*
X128542Y97858D02*
X128690Y97931D01*
X128837Y98078*
X128910Y98299*
Y98519*
X128837Y98666*
X128690Y98740*
X128542*
X128395Y98666*
X128322Y98519*
X128395Y98372*
X128542Y98299*
X128690*
X128837Y98372*
X128910Y98519*
X129245Y97858D02*
X129319Y97931D01*
X129245Y98005*
X129172Y97931*
X129245Y97858*
X129633Y97931D02*
X129780Y97858D01*
X129927*
X130074Y97931*
X130148Y98078*
Y98519*
X130074Y98666*
X129927Y98740*
X129780*
X129633Y98666*
X129559Y98519*
Y98078*
X129633Y97931*
X130074Y98666*
X130409Y97858D02*
X130409Y98446D01*
Y98372D02*
X130483Y98446D01*
X130630*
X130703Y98372*
Y98152*
Y98372D02*
X130777Y98446D01*
X130924*
X130998Y98372*
Y97858*
X131259D02*
X131259Y98446D01*
Y98372D02*
X131333Y98446D01*
X131480*
X131554Y98372*
Y98152*
Y98372D02*
X131627Y98446D01*
X131774*
X131848Y98372*
Y97858*
D02*
D17*
X101991Y102262D02*
Y125775D01*
Y128149D02*
Y151662D01*
X106091Y98262D02*
X126909D01*
X132672D02*
X153491D01*
D02*
D281*
X105291Y104980D02*
Y97762D01*
X107860Y101462D02*
X101491D01*
X109612Y152462D02*
X101491D01*
X154291Y107799D02*
Y97762D01*
D02*
D394*
X101991Y101462D02*
G36*
X101591Y103062D01*
X102391*
X101991Y101462*
G37*
Y152462D02*
G36*
X102391Y150862D01*
X101591*
X101991Y152462*
G37*
X105291Y98262D02*
G36*
X106891Y98662D01*
Y97862*
X105291Y98262*
G37*
X154291D02*
G36*
X152691Y97862D01*
Y98662*
X154291Y98262*
G37*
X0Y0D02*
M02*
