M48
INCH
T01C00.010
T02C00.126
%
M70
T01
X04441Y05274
X04874Y05782
X04874Y05837
X04952Y05782
X04952Y05837
X04960Y05467
X05031Y05703
X05031Y05782
X05031Y05837
X05110Y05782
X05110Y05837
X05149Y04290
X05189Y05782
X05189Y05837
X05267Y05782
X05267Y05837
X05346Y05782
X05346Y05837
X05779Y05274
T02
X04263Y04113
X04263Y05884
X05956Y04113
X05956Y05884
M30
