G04 GENERATED BY PULSONIX 7.0 GERBER.DLL 4573*
%INHILLSTAR_30X30_EL_V1_0*%
%LNGERBER_BOTTOM*%
%FSLAX33Y33*%
%IPPOS*%
%LPD*%
%OFA0B0*%
%MOMM*%
%ADD15C,0.125*%
%ADD145C,0.400*%
%ADD180C,0.600*%
%ADD345C,0.150*%
%ADD403R,0.600X1.900*%
%ADD410R,2.700X3.600*%
%ADD5672R,0.900X2.500*%
X0Y0D02*
D02*
D15*
X146613Y102499D02*
X146466Y102425D01*
X146393Y102278*
X146466Y102131*
X146613Y102058*
X147128*
Y102940*
X146613*
X146466Y102866*
X146393Y102719*
X146466Y102572*
X146613Y102499*
X147128*
X146116Y102352D02*
X146116Y102646D01*
X146042Y102793*
X145969Y102866*
X145822Y102940*
X145674*
X145527Y102866*
X145454Y102793*
X145380Y102646*
Y102352*
X145454Y102205*
X145527Y102131*
X145674Y102058*
X145822*
X145969Y102131*
X146042Y102205*
X146116Y102352*
X144735Y102058D02*
X144735Y102940D01*
X145103D02*
X144368Y102940D01*
D02*
D145*
X129791Y137012D02*
Y136412D01*
Y138512D02*
Y139112D01*
Y146512D02*
Y145912D01*
Y148612D02*
Y149212D01*
D02*
D180*
X112791Y133962D03*
X123791Y146862D03*
Y148262D03*
X125791Y146862D03*
Y148262D03*
X125991Y138862D03*
X127791Y144862D03*
Y146862D03*
Y148262D03*
X129791Y146862D03*
Y148262D03*
X130791Y108962D03*
X131791Y146862D03*
Y148262D03*
X133791Y146862D03*
Y148262D03*
X135791Y146862D03*
Y148262D03*
X146791Y133962D03*
D02*
D345*
X116891Y133562D02*
Y115062D01*
G75*
G03X118891Y113062I2000*
G01*
X130391*
Y136503*
G75*
G02X130253Y136590I99J310*
G01*
G75*
G02X130091Y136537I-162J221*
G01*
X129491*
G75*
G02X129328Y136590J276*
G01*
G75*
G02X129091Y136487I-237J221*
G01*
X128491*
G75*
G02X128291Y136556J325*
G01*
G75*
G02X128191Y136503I-200J256*
G01*
Y134962*
G75*
G02X128073Y134679I-401J1*
G01*
X127073Y133679*
G75*
G02X126791Y133562I-282J282*
G01*
X116891*
X118276Y113159D02*
X130391D01*
X117454Y113671D02*
X130391D01*
X117094Y114183D02*
X130391D01*
X116925Y114695D02*
X130391D01*
X116891Y115207D02*
X130391D01*
X116891Y115719D02*
X130391D01*
X116891Y116232D02*
X130391D01*
X116891Y116744D02*
X130391D01*
X116891Y117256D02*
X130391D01*
X116891Y117768D02*
X130391D01*
X116891Y118280D02*
X130391D01*
X116891Y118792D02*
X130391D01*
X116891Y119304D02*
X130391D01*
X116891Y119816D02*
X130391D01*
X116891Y120329D02*
X130391D01*
X116891Y120841D02*
X130391D01*
X116891Y121353D02*
X130391D01*
X116891Y121865D02*
X130391D01*
X116891Y122377D02*
X130391D01*
X116891Y122889D02*
X130391D01*
X116891Y123401D02*
X130391D01*
X116891Y123913D02*
X130391D01*
X116891Y124426D02*
X130391D01*
X116891Y124938D02*
X130391D01*
X116891Y125450D02*
X130391D01*
X116891Y125962D02*
X130391D01*
X116891Y126474D02*
X130391D01*
X116891Y126986D02*
X130391D01*
X116891Y127498D02*
X130391D01*
X116891Y128011D02*
X130391D01*
X116891Y128523D02*
X130391D01*
X116891Y129035D02*
X130391D01*
X116891Y129547D02*
X130391D01*
X116891Y130059D02*
X130391D01*
X116891Y130571D02*
X130391D01*
X116891Y131083D02*
X130391D01*
X116891Y131595D02*
X130391D01*
X116891Y132108D02*
X130391D01*
X116891Y132620D02*
X130391D01*
X116891Y133132D02*
X130391D01*
X127033Y133644D02*
X130391D01*
X127550Y134156D02*
X130391D01*
X128063Y134668D02*
X130391D01*
X128191Y135180D02*
X130391D01*
X128191Y135692D02*
X130391D01*
X128191Y136205D02*
X130391D01*
X117500Y113625D02*
Y133562D01*
X118012Y113266D02*
Y133562D01*
X118524Y113096D02*
Y133562D01*
X119036Y113062D02*
Y133562D01*
X119548Y113062D02*
Y133562D01*
X120060Y113062D02*
Y133562D01*
X120572Y113062D02*
Y133562D01*
X121084Y113062D02*
Y133562D01*
X121597Y113062D02*
Y133562D01*
X122109Y113062D02*
Y133562D01*
X122621Y113062D02*
Y133562D01*
X123133Y113062D02*
Y133562D01*
X123645Y113062D02*
Y133562D01*
X124157Y113062D02*
Y133562D01*
X124669Y113062D02*
Y133562D01*
X125181Y113062D02*
Y133562D01*
X125694Y113062D02*
Y133562D01*
X126206Y113062D02*
Y133562D01*
X126718Y113062D02*
Y133562D01*
X127230Y113062D02*
Y133836D01*
X127742Y113062D02*
Y134348D01*
X128254Y113062D02*
Y136531D01*
X128766Y113062D02*
Y136487D01*
X129279Y113062D02*
Y136547D01*
X129791Y113062D02*
Y136537D01*
X130303Y113062D02*
Y136547D01*
X116891Y134362D02*
X126625D01*
X127391Y135128*
Y136503*
G75*
G02X127291Y136556I100J309*
G01*
G75*
G02X127091Y136487I-200J256*
G01*
X126491*
G75*
G02X126166Y136812J325*
G01*
Y137359*
G75*
G02X125905Y137476I24J403*
G01*
X125705Y137676*
G75*
G02X125591Y138019I286J286*
G01*
Y138382*
G75*
G02X125580Y138391I393J491*
G01*
G75*
G02X125141Y138187I-439J371*
G01*
X122441*
G75*
G02X121866Y138762J575*
G01*
Y138862*
X118891*
G75*
G03X116891Y136862J-2000*
G01*
Y134362*
Y134668D02*
X126931D01*
X116891Y135180D02*
X127391D01*
X116891Y135692D02*
X127391D01*
X116891Y136205D02*
X127391D01*
X116891Y136717D02*
X126180D01*
X116925Y137229D02*
X126166D01*
X117094Y137741D02*
X125652D01*
X117454Y138253D02*
X122173D01*
X125408D02*
X125591D01*
X118276Y138765D02*
X121866D01*
X117500Y134362D02*
Y138299D01*
X118012Y134362D02*
Y138658D01*
X118524Y134362D02*
Y138828D01*
X119036Y134362D02*
Y138862D01*
X119548Y134362D02*
Y138862D01*
X120060Y134362D02*
Y138862D01*
X120572Y134362D02*
Y138862D01*
X121084Y134362D02*
Y138862D01*
X121597Y134362D02*
Y138862D01*
X122109Y134362D02*
Y138293D01*
X122621Y134362D02*
Y138187D01*
X123133Y134362D02*
Y138187D01*
X123645Y134362D02*
Y138187D01*
X124157Y134362D02*
Y138187D01*
X124669Y134362D02*
Y138187D01*
X125181Y134362D02*
Y138188D01*
X125694Y134362D02*
Y137688D01*
X126206Y134362D02*
Y136656D01*
X126718Y134455D02*
Y136487D01*
X127230Y134967D02*
Y136518D01*
X123043Y148942D02*
G75*
G03X129791Y102012I6748J-22980D01*
G01*
G75*
G03X136472Y148961J23950*
G01*
G75*
G02X136516Y148812I-230J-149*
G01*
Y146312*
G75*
G02X136241Y146037I-275*
G01*
X135341*
G75*
G02X135066Y146312J275*
G01*
Y148812*
G75*
G02X135341Y149087I275*
G01*
X136023*
G75*
G03X123747Y149137I-6232J-23126*
G01*
X124241*
G75*
G02X124566Y148812J-325*
G01*
Y146312*
G75*
G02X124241Y145987I-325*
G01*
X124163*
Y145686*
X127073Y142775*
G75*
G02X127191Y142492I-283J-284*
G01*
Y139021*
G75*
G02X127291Y138968I-100J-309*
G01*
G75*
G02X127391Y139021I200J-256*
G01*
Y142796*
X125508Y144679*
G75*
G02X125391Y144962I283J283*
G01*
Y145987*
X125341*
G75*
G02X125016Y146312J325*
G01*
Y148812*
G75*
G02X125341Y149137I325*
G01*
X126241*
G75*
G02X126566Y148812J-325*
G01*
Y146312*
G75*
G02X126241Y145987I-325*
G01*
X126191*
Y145128*
X128073Y143245*
G75*
G02X128191Y142962I-283J-284*
G01*
Y139021*
G75*
G02X128291Y138968I-100J-309*
G01*
G75*
G02X128391Y139021I200J-256*
G01*
Y143696*
X127847Y144240*
G75*
G02X127391Y145342I-56J622*
G01*
Y145987*
X127341*
G75*
G02X127016Y146312J325*
G01*
Y148812*
G75*
G02X127341Y149137I325*
G01*
X128241*
G75*
G02X128566Y148812J-325*
G01*
Y146312*
G75*
G02X128241Y145987I-325*
G01*
X128191*
Y145342*
G75*
G02X128413Y144805I-400J-480*
G01*
X129073Y144145*
G75*
G02X129191Y143862I-283J-284*
G01*
Y139021*
G75*
G02X129328Y138934I-100J-308*
G01*
G75*
G02X129491Y138987I163J-223*
G01*
X130091*
G75*
G02X130253Y138934J-274*
G01*
G75*
G02X130391Y139021I237J-223*
G01*
Y143962*
G75*
G02X130508Y144245I400*
G01*
X131391Y145128*
Y145987*
X131341*
G75*
G02X131016Y146312J325*
G01*
Y148812*
G75*
G02X131341Y149137I325*
G01*
X132241*
G75*
G02X132566Y148812J-325*
G01*
Y146312*
G75*
G02X132241Y145987I-325*
G01*
X132191*
Y144962*
G75*
G02X132073Y144679I-401J1*
G01*
X131191Y143796*
Y139021*
G75*
G02X131291Y138968I-100J-309*
G01*
G75*
G02X131391Y139021I200J-256*
G01*
Y142962*
G75*
G02X131508Y143245I400*
G01*
X133391Y145128*
Y145987*
X133341*
G75*
G02X133016Y146312J325*
G01*
Y148812*
G75*
G02X133341Y149137I325*
G01*
X134241*
G75*
G02X134566Y148812J-325*
G01*
Y146312*
G75*
G02X134241Y145987I-325*
G01*
X134191*
Y144962*
G75*
G02X134073Y144679I-401J1*
G01*
X132191Y142796*
Y139021*
G75*
G02X132328Y138934I-100J-308*
G01*
G75*
G02X132491Y138987I163J-223*
G01*
X133091*
G75*
G02X133321Y138862J-275*
G01*
X133866*
Y142362*
G75*
G02X134441Y142937I575*
G01*
X137141*
G75*
G02X137716Y142362J-575*
G01*
Y138862*
X140691*
G75*
G02X142691Y136862J-2000*
G01*
Y134362*
X146310*
G75*
G02X147416Y133962I481J-400*
G01*
G75*
G02X146310Y133562I-625*
G01*
X142691*
Y115062*
G75*
G02X140691Y113062I-2000*
G01*
X131191*
Y109442*
G75*
G02X131416Y108962I-400J-480*
G01*
G75*
G02X130166I-625*
G01*
G75*
G02X130391Y109442I625*
G01*
Y113062*
X118891*
G75*
G02X116891Y115062J2000*
G01*
Y133562*
X113271*
G75*
G02X112166Y133962I-480J400*
G01*
G75*
G02X113271Y134362I625*
G01*
X116891*
Y136862*
G75*
G02X118891Y138862I2000*
G01*
X121866*
Y142362*
G75*
G02X122441Y142937I575*
G01*
X125141*
G75*
G02X125716Y142362J-575*
G01*
Y139423*
G75*
G02X126391Y139342I275J-561*
G01*
Y142326*
X123480Y145237*
G75*
G02X123363Y145520I283J283*
G01*
Y145987*
X123341*
G75*
G02X123016Y146312J325*
G01*
Y148812*
G75*
G02X123043Y148942I326*
G01*
X130516Y146312D02*
G75*
G02X130241Y146037I-275D01*
G01*
X129341*
G75*
G02X129066Y146312J275*
G01*
Y148812*
G75*
G02X129341Y149087I275*
G01*
X130241*
G75*
G02X130516Y148812J-275*
G01*
Y146312*
X122254Y103229D02*
X137328D01*
X118864Y104650D02*
X140717D01*
X116452Y106071D02*
X143130D01*
X114545Y107491D02*
X145037D01*
X112971Y108912D02*
X130168D01*
X131414D02*
X146610D01*
X111643Y110333D02*
X130391D01*
X131191D02*
X147938D01*
X110510Y111754D02*
X130391D01*
X131191D02*
X149071D01*
X109540Y113175D02*
X118229D01*
X141352D02*
X150041D01*
X108710Y114595D02*
X116946D01*
X142635D02*
X150872D01*
X108003Y116016D02*
X116891D01*
X142691D02*
X151578D01*
X107409Y117437D02*
X116891D01*
X142691D02*
X152172D01*
X106919Y118858D02*
X116891D01*
X142691D02*
X152663D01*
X106525Y120279D02*
X116891D01*
X142691D02*
X153057D01*
X106223Y121700D02*
X116891D01*
X142691D02*
X153358D01*
X106010Y123120D02*
X116891D01*
X142691D02*
X153571D01*
X105883Y124541D02*
X116891D01*
X142691D02*
X153698D01*
X105841Y125962D02*
X116891D01*
X142691D02*
X153741D01*
X105883Y127383D02*
X116891D01*
X142691D02*
X153698D01*
X106010Y128804D02*
X116891D01*
X142691D02*
X153571D01*
X106223Y130224D02*
X116891D01*
X142691D02*
X153358D01*
X106525Y131645D02*
X116891D01*
X142691D02*
X153057D01*
X106919Y133066D02*
X116891D01*
X142691D02*
X152663D01*
X107409Y134487D02*
X112451D01*
X113130D02*
X116891D01*
X142691D02*
X146451D01*
X147130D02*
X152172D01*
X108003Y135908D02*
X116891D01*
X142691D02*
X151578D01*
X108710Y137329D02*
X116946D01*
X142635D02*
X150872D01*
X109540Y138749D02*
X118229D01*
X141352D02*
X150041D01*
X110510Y140170D02*
X121866D01*
X125716D02*
X126391D01*
X127191D02*
X127391D01*
X128191D02*
X128391D01*
X129191D02*
X130391D01*
X131191D02*
X131391D01*
X132191D02*
X133866D01*
X137716D02*
X149071D01*
X111643Y141591D02*
X121866D01*
X125716D02*
X126391D01*
X127191D02*
X127391D01*
X128191D02*
X128391D01*
X129191D02*
X130391D01*
X131191D02*
X131391D01*
X132191D02*
X133866D01*
X137716D02*
X147938D01*
X112971Y143012D02*
X125705D01*
X126836D02*
X127175D01*
X128188D02*
X128391D01*
X129191D02*
X130391D01*
X131191D02*
X131394D01*
X132406D02*
X146610D01*
X114545Y144433D02*
X124284D01*
X125416D02*
X125754D01*
X126886D02*
X127336D01*
X128786D02*
X130696D01*
X131827D02*
X132696D01*
X133827D02*
X145037D01*
X116452Y145853D02*
X123363D01*
X124163D02*
X125391D01*
X126191D02*
X127391D01*
X128191D02*
X131391D01*
X132191D02*
X133391D01*
X134191D02*
X143130D01*
X118864Y147274D02*
X123016D01*
X124566D02*
X125016D01*
X126566D02*
X127016D01*
X128566D02*
X129066D01*
X130516D02*
X131016D01*
X132566D02*
X133016D01*
X134566D02*
X135066D01*
X136516D02*
X140717D01*
X122254Y148695D02*
X123016D01*
X124566D02*
X125016D01*
X126566D02*
X127016D01*
X128566D02*
X129066D01*
X130516D02*
X131016D01*
X132566D02*
X133016D01*
X134566D02*
X135066D01*
X136516D02*
X137328D01*
X107058Y118425D02*
Y133499D01*
X108478Y115036D02*
Y136889D01*
X109899Y112623D02*
Y139301D01*
X111320Y110716D02*
Y141208D01*
X112741Y109142D02*
Y133339D01*
Y134585D02*
Y142782D01*
X114162Y107814D02*
Y133562D01*
Y134362D02*
Y144110D01*
X115582Y106682D02*
Y133562D01*
Y134362D02*
Y145242D01*
X117003Y105711D02*
Y114400D01*
Y137524D02*
Y146213D01*
X118424Y104881D02*
Y113117D01*
Y138807D02*
Y147043D01*
X119845Y104175D02*
Y113062D01*
Y138862D02*
Y147749D01*
X121266Y103581D02*
Y113062D01*
Y138862D02*
Y148343D01*
X122687Y103090D02*
Y113062D01*
Y142937D02*
Y148834D01*
X124107Y102696D02*
Y113062D01*
Y142937D02*
Y144610D01*
Y149137D02*
Y149228D01*
X125528Y102394D02*
Y113062D01*
Y142787D02*
Y143189D01*
Y144320D02*
Y144659D01*
Y149137D02*
Y149530D01*
X126949Y102181D02*
Y113062D01*
Y142899D02*
Y143238D01*
Y144369D02*
Y149743D01*
X128370Y102054D02*
Y113062D01*
Y139014D02*
Y143717D01*
Y145097D02*
Y146014D01*
Y149110D02*
Y149870D01*
X129791Y102012D02*
Y113062D01*
Y138987D02*
Y146037D01*
Y149087D02*
Y149912D01*
X131211Y102054D02*
Y108500D01*
Y109424D02*
Y113062D01*
Y139014D02*
Y143817D01*
Y144949D02*
Y146014D01*
Y149110D02*
Y149870D01*
X132632Y102181D02*
Y113062D01*
Y138987D02*
Y143238D01*
Y144369D02*
Y149743D01*
X134053Y102394D02*
Y113062D01*
Y142787D02*
Y144659D01*
Y149137D02*
Y149530D01*
X135474Y102696D02*
Y113062D01*
Y142937D02*
Y146037D01*
Y149087D02*
Y149228D01*
X136895Y103090D02*
Y113062D01*
Y142937D02*
Y148834D01*
X138316Y103581D02*
Y113062D01*
Y138862D02*
Y148343D01*
X139736Y104175D02*
Y113062D01*
Y138862D02*
Y147749D01*
X141157Y104881D02*
Y113117D01*
Y138807D02*
Y147043D01*
X142578Y105711D02*
Y114400D01*
Y137524D02*
Y146213D01*
X143999Y106682D02*
Y133562D01*
Y134362D02*
Y145242D01*
X145420Y107814D02*
Y133562D01*
Y134362D02*
Y144110D01*
X146840Y109142D02*
Y133339D01*
Y134585D02*
Y142782D01*
X148261Y110716D02*
Y141208D01*
X149682Y112623D02*
Y139301D01*
X151103Y115036D02*
Y136889D01*
X152524Y118425D02*
Y133499D01*
X125991Y138862D02*
Y137962D01*
X126191Y137762*
X126791*
Y142492*
X123763Y145520*
Y146862*
X123791*
X127791Y137762D02*
Y142962D01*
X125791Y144962*
Y147562*
X127791Y137762D02*
Y134962D01*
X126791Y133962*
X112791*
X127791Y144862D02*
Y146862D01*
Y144862D02*
X128791Y143862D01*
Y137762*
X130791D02*
Y108962D01*
Y137762D02*
Y143962D01*
X131791Y144962*
Y146862*
X131191Y113062D02*
X140691D01*
G75*
G03X142691Y115062J2000*
G01*
Y133562*
X132791*
G75*
G02X132508Y133679J400*
G01*
X131508Y134679*
G75*
G02X131391Y134962I283J283*
G01*
Y136503*
G75*
G02X131291Y136556I100J309*
G01*
G75*
G02X131191Y136503I-200J256*
G01*
Y113062*
Y113159D02*
X141305D01*
X131191Y113671D02*
X142128D01*
X131191Y114183D02*
X142487D01*
X131191Y114695D02*
X142657D01*
X131191Y115207D02*
X142691D01*
X131191Y115719D02*
X142691D01*
X131191Y116232D02*
X142691D01*
X131191Y116744D02*
X142691D01*
X131191Y117256D02*
X142691D01*
X131191Y117768D02*
X142691D01*
X131191Y118280D02*
X142691D01*
X131191Y118792D02*
X142691D01*
X131191Y119304D02*
X142691D01*
X131191Y119816D02*
X142691D01*
X131191Y120329D02*
X142691D01*
X131191Y120841D02*
X142691D01*
X131191Y121353D02*
X142691D01*
X131191Y121865D02*
X142691D01*
X131191Y122377D02*
X142691D01*
X131191Y122889D02*
X142691D01*
X131191Y123401D02*
X142691D01*
X131191Y123913D02*
X142691D01*
X131191Y124426D02*
X142691D01*
X131191Y124938D02*
X142691D01*
X131191Y125450D02*
X142691D01*
X131191Y125962D02*
X142691D01*
X131191Y126474D02*
X142691D01*
X131191Y126986D02*
X142691D01*
X131191Y127498D02*
X142691D01*
X131191Y128011D02*
X142691D01*
X131191Y128523D02*
X142691D01*
X131191Y129035D02*
X142691D01*
X131191Y129547D02*
X142691D01*
X131191Y130059D02*
X142691D01*
X131191Y130571D02*
X142691D01*
X131191Y131083D02*
X142691D01*
X131191Y131595D02*
X142691D01*
X131191Y132108D02*
X142691D01*
X131191Y132620D02*
X142691D01*
X131191Y133132D02*
X142691D01*
X131191Y133644D02*
X132548D01*
X131191Y134156D02*
X132031D01*
X131191Y134668D02*
X131519D01*
X131191Y135180D02*
X131391D01*
X131191Y135692D02*
X131391D01*
X131191Y136205D02*
X131391D01*
X131327Y113062D02*
Y136531D01*
X131839Y113062D02*
Y134348D01*
X132351Y113062D02*
Y133836D01*
X132863Y113062D02*
Y133562D01*
X133376Y113062D02*
Y133562D01*
X133888Y113062D02*
Y133562D01*
X134400Y113062D02*
Y133562D01*
X134912Y113062D02*
Y133562D01*
X135424Y113062D02*
Y133562D01*
X135936Y113062D02*
Y133562D01*
X136448Y113062D02*
Y133562D01*
X136960Y113062D02*
Y133562D01*
X137473Y113062D02*
Y133562D01*
X137985Y113062D02*
Y133562D01*
X138497Y113062D02*
Y133562D01*
X139009Y113062D02*
Y133562D01*
X139521Y113062D02*
Y133562D01*
X140033Y113062D02*
Y133562D01*
X140545Y113062D02*
Y133562D01*
X141057Y113096D02*
Y133562D01*
X141570Y113266D02*
Y133562D01*
X142082Y113625D02*
Y133562D01*
X142594Y114447D02*
Y133562D01*
X131791Y137762D02*
Y134962D01*
X132791Y133962*
X146791*
X131791Y137762D02*
Y142962D01*
X133791Y144962*
Y146862*
X133321Y138862D02*
G75*
G02X133366Y138712I-230J-151D01*
G01*
Y136812*
G75*
G02X133091Y136537I-275*
G01*
X132491*
G75*
G02X132328Y136590J276*
G01*
G75*
G02X132191Y136503I-237J221*
G01*
Y135128*
X132956Y134362*
X142691*
Y136862*
G75*
G03X140691Y138862I-2000*
G01*
X137716*
Y138762*
G75*
G02X137141Y138187I-575*
G01*
X134441*
G75*
G02X133866Y138762J575*
G01*
Y138862*
X133321*
X132650Y134668D02*
X142691D01*
X132191Y135180D02*
X142691D01*
X132191Y135692D02*
X142691D01*
X132191Y136205D02*
X142691D01*
X133349Y136717D02*
X142691D01*
X133366Y137229D02*
X142657D01*
X133366Y137741D02*
X142487D01*
X133366Y138253D02*
X134173D01*
X137408D02*
X142128D01*
X133360Y138765D02*
X133866D01*
X137716D02*
X141305D01*
X132351Y134967D02*
Y136575D01*
X132863Y134455D02*
Y136537D01*
X133376Y134362D02*
Y138862D01*
X133888Y134362D02*
Y138604D01*
X134400Y134362D02*
Y138188D01*
X134912Y134362D02*
Y138187D01*
X135424Y134362D02*
Y138187D01*
X135936Y134362D02*
Y138187D01*
X136448Y134362D02*
Y138187D01*
X136960Y134362D02*
Y138187D01*
X137473Y134362D02*
Y138293D01*
X137985Y134362D02*
Y138862D01*
X138497Y134362D02*
Y138862D01*
X139009Y134362D02*
Y138862D01*
X139521Y134362D02*
Y138862D01*
X140033Y134362D02*
Y138862D01*
X140545Y134362D02*
Y138862D01*
X141057Y134362D02*
Y138828D01*
X141570Y134362D02*
Y138658D01*
X142082Y134362D02*
Y138299D01*
X142594Y134362D02*
Y137477D01*
D02*
D403*
X126791Y137762D03*
X127791D03*
X128791D03*
X129791D03*
X130791D03*
X131791D03*
X132791D03*
D02*
D410*
X123791Y140562D03*
X135791D03*
D02*
D5672*
X123791Y147562D03*
X125791D03*
X127791D03*
X129791D03*
X131791D03*
X133791D03*
X135791D03*
X0Y0D02*
M02*
