G04 GENERATED BY PULSONIX 7.0 GERBER.DLL 4573*
%INHILLSTAR_30X30_EL_V1_0*%
%LNGERBER_TOP*%
%FSLAX33Y33*%
%IPPOS*%
%LPD*%
%OFA0B0*%
%MOMM*%
%ADD15C,0.125*%
%ADD180C,0.600*%
%ADD345C,0.150*%
X0Y0D02*
D02*
D15*
X144558Y102058D02*
X144558Y102940D01*
X144191D02*
X144926Y102940D01*
X145203Y102352D02*
X145203Y102646D01*
X145277Y102793*
X145350Y102866*
X145497Y102940*
X145644*
X145791Y102866*
X145865Y102793*
X145938Y102646*
Y102352*
X145865Y102205*
X145791Y102131*
X145644Y102058*
X145497*
X145350Y102131*
X145277Y102205*
X145203Y102352*
X146216Y102058D02*
X146216Y102940D01*
X146730*
X146877Y102866*
X146951Y102719*
X146877Y102572*
X146730Y102499*
X146216*
D02*
D180*
X112791Y133962D03*
X123791Y146862D03*
Y148262D03*
X125791Y146862D03*
Y148262D03*
X125991Y138862D03*
X127791Y144862D03*
Y146862D03*
Y148262D03*
X129791Y146862D03*
Y148262D03*
X130791Y108962D03*
X131791Y146862D03*
Y148262D03*
X133791Y146862D03*
Y148262D03*
X135791Y146862D03*
Y148262D03*
X146791Y133962D03*
D02*
D345*
X110391Y118054D02*
G75*
G03X113891Y112320I19402J7908D01*
G01*
Y139604*
G75*
G03X110391Y133870I15902J-13642*
G01*
Y118054*
G36*
G75*
G03X113891Y112320I19402J7908*
G01*
Y139604*
G75*
G03X110391Y133870I15902J-13642*
G01*
Y118054*
G37*
X118891Y138862D02*
G75*
G03X116891Y136862J-2000D01*
G01*
Y115062*
G75*
G03X118891Y113062I2000*
G01*
X140691*
G75*
G03X142691Y115062J2000*
G01*
Y136862*
G75*
G03X140691Y138862I-2000*
G01*
X118891*
X133646Y113062D02*
X142691Y122106D01*
X125268Y113062D02*
X142691Y130484D01*
X117476Y113648D02*
X142105Y138276D01*
X116891Y121440D02*
X134313Y138862D01*
X116891Y129818D02*
X125935Y138862D01*
Y113062D02*
X116891Y122106D01*
X134313Y113062D02*
X116891Y130484D01*
X142105Y113648D02*
X117476Y138276D01*
X142691Y121440D02*
X125268Y138862D01*
X142691Y129818D02*
X133646Y138862D01*
X121882Y106562D02*
X137699D01*
G75*
G03X143432Y110062I-7908J19399*
G01*
X116149*
G75*
G03X121882Y106562I13641J15899*
G01*
G36*
X137699*
G75*
G03X143432Y110062I-7908J19399*
G01*
X116149*
G75*
G03X121882Y106562I13641J15899*
G01*
G37*
Y145362D02*
G75*
G03X116149Y141862I7908J-19399D01*
G01*
X143432*
G75*
G03X137699Y145362I-13641J-15899*
G01*
X121882*
G36*
G75*
G03X116149Y141862I7908J-19399*
G01*
X143432*
G75*
G03X137699Y145362I-13641J-15899*
G01*
X121882*
G37*
X149191Y118054D02*
Y133870D01*
G75*
G03X145691Y139604I-19402J-7908*
G01*
Y112320*
G75*
G03X149191Y118054I-15902J13642*
G01*
G36*
Y133870*
G75*
G03X145691Y139604I-19402J-7908*
G01*
Y112320*
G75*
G03X149191Y118054I-15902J13642*
G01*
G37*
X0Y0D02*
M02*
