M48
INCH
T01C00.010
T02C00.126
%
M70
T01
X04096Y05210
X04863Y05679
X04863Y05734
X04942Y05679
X04942Y05734
X04981Y05407
X05021Y05588
X05021Y05679
X05021Y05734
X05100Y05679
X05100Y05734
X05139Y04324
X05178Y05679
X05178Y05734
X05257Y05679
X05257Y05734
X05336Y05679
X05336Y05734
X06103Y05210
T02
X03958Y04147
X03958Y05801
X06241Y04147
X06241Y05801
M30
