G04 GENERATED BY PULSONIX 7.0 GERBER.DLL 4573*
%INHILLSTAR_50X30_EL_V1_0*%
%LNGERBER_TOP*%
%FSLAX33Y33*%
%IPPOS*%
%LPD*%
%OFA0B0*%
%MOMM*%
%ADD180C,0.600*%
%ADD345C,0.150*%
X0Y0D02*
D02*
D180*
X104028Y132337D03*
X123528Y144237D03*
Y145637D03*
X125528Y144237D03*
Y145637D03*
X126528Y137337D03*
X127528Y141927D03*
Y144237D03*
Y145637D03*
X129528Y144237D03*
Y145637D03*
X130528Y109837D03*
X131528Y144237D03*
Y145637D03*
X133528Y144237D03*
Y145637D03*
X135528Y144237D03*
Y145637D03*
X155028Y132337D03*
D02*
D345*
X103528Y142837D02*
X103028D01*
G75*
G03X102028Y141837J-1000*
G01*
Y108837*
G75*
G03X103028Y107837I1000*
G01*
X103528*
G75*
G03X104528Y108837J1000*
G01*
Y141837*
G75*
G03X103528Y142837I-1000*
G01*
G36*
X103028*
G75*
G03X102028Y141837J-1000*
G01*
Y108837*
G75*
G03X103028Y107837I1000*
G01*
X103528*
G75*
G03X104528Y108837J1000*
G01*
Y141837*
G75*
G03X103528Y142837I-1000*
G01*
G37*
X106528Y109337D02*
Y108837D01*
G75*
G03X107528Y107837I1000*
G01*
X151528*
G75*
G03X152528Y108837J1000*
G01*
Y109337*
G75*
G03X151528Y110337I-1000*
G01*
X107528*
G75*
G03X106528Y109337J-1000*
G01*
G36*
Y108837*
G75*
G03X107528Y107837I1000*
G01*
X151528*
G75*
G03X152528Y108837J1000*
G01*
Y109337*
G75*
G03X151528Y110337I-1000*
G01*
X107528*
G75*
G03X106528Y109337J-1000*
G01*
G37*
Y141837D02*
Y141337D01*
G75*
G03X107528Y140337I1000*
G01*
X151528*
G75*
G03X152528Y141337J1000*
G01*
Y141837*
G75*
G03X151528Y142837I-1000*
G01*
X107528*
G75*
G03X106528Y141837J-1000*
G01*
G36*
Y141337*
G75*
G03X107528Y140337I1000*
G01*
X151528*
G75*
G03X152528Y141337J1000*
G01*
Y141837*
G75*
G03X151528Y142837I-1000*
G01*
X107528*
G75*
G03X106528Y141837J-1000*
G01*
G37*
X109528Y137337D02*
G75*
G03X107528Y135337J-2000D01*
G01*
Y115337*
G75*
G03X109528Y113337I2000*
G01*
X149528*
G75*
G03X151528Y115337J2000*
G01*
Y135337*
G75*
G03X149528Y137337I-2000*
G01*
X109528*
X142662Y113337D02*
X151528Y122203D01*
X134284Y113337D02*
X151528Y130581D01*
X125906Y113337D02*
X149876Y137307D01*
X117528Y113337D02*
X141528Y137337D01*
X109181Y113367D02*
X133150Y137337D01*
X107528Y120093D02*
X124772Y137337D01*
X107528Y128471D02*
X116395Y137337D01*
Y113337D02*
X107528Y122203D01*
X124772Y113337D02*
X107528Y130581D01*
X133150Y113337D02*
X109181Y137307D01*
X141528Y113337D02*
X117528Y137337D01*
X149876Y113367D02*
X125906Y137337D01*
X151528Y120093D02*
X134284Y137337D01*
X151528Y128471D02*
X142662Y137337D01*
X154528Y141837D02*
Y108837D01*
G75*
G03X155528Y107837I1000*
G01*
X156028*
G75*
G03X157028Y108837J1000*
G01*
Y141837*
G75*
G03X156028Y142837I-1000*
G01*
X155528*
G75*
G03X154528Y141837J-1000*
G01*
G36*
Y108837*
G75*
G03X155528Y107837I1000*
G01*
X156028*
G75*
G03X157028Y108837J1000*
G01*
Y141837*
G75*
G03X156028Y142837I-1000*
G01*
X155528*
G75*
G03X154528Y141837J-1000*
G01*
G37*
X0Y0D02*
M02*
