G04 GENERATED BY PULSONIX 7.0 GERBER.DLL 4573*
%INHILLSTAR_50X30_EL_V1_0*%
%LNGERBER_DOCUMENTATION*%
%FSLAX33Y33*%
%IPPOS*%
%LPD*%
%OFA0B0*%
%MOMM*%
%ADD15C,0.125*%
%ADD17C,0.200*%
%ADD281C,0.025*%
%ADD394C,0.001*%
X0Y0D02*
D02*
D15*
X93352Y125933D02*
X93352Y126815D01*
X92984Y126227*
X93573*
X93834Y125933D02*
X94423Y126815D01*
X93834*
X94758Y125933D02*
X94831Y126006D01*
X94758Y126080*
X94684Y126006*
X94758Y125933*
X95145Y126006D02*
X95292Y125933D01*
X95440*
X95587Y126006*
X95660Y126153*
Y126594*
X95587Y126741*
X95440Y126815*
X95292*
X95145Y126741*
X95072Y126594*
Y126153*
X95145Y126006*
X95587Y126741*
X95922Y125933D02*
X95922Y126521D01*
Y126447D02*
X95995Y126521D01*
X96142*
X96216Y126447*
Y126227*
Y126447D02*
X96290Y126521D01*
X96437*
X96510Y126447*
Y125933*
X96772D02*
X96772Y126521D01*
Y126447D02*
X96845Y126521D01*
X96992*
X97066Y126447*
Y126227*
Y126447D02*
X97140Y126521D01*
X97287*
X97360Y126447*
Y125933*
X127209Y100703D02*
X127283Y100850D01*
X127430Y100924*
X127577*
X127724Y100850*
X127798Y100703*
X127724Y100556*
X127577Y100483*
X127430*
X127283Y100556*
X127209Y100703*
Y100924*
X127283Y101144*
X127430Y101291*
X127577Y101365*
X128133Y100556D02*
X128280Y100483D01*
X128427*
X128574Y100556*
X128648Y100703*
X128574Y100850*
X128427Y100924*
X128280*
X128427D02*
X128574Y100997D01*
X128648Y101144*
X128574Y101291*
X128427Y101365*
X128280*
X128133Y101291*
X128983Y100483D02*
X129056Y100556D01*
X128983Y100630*
X128909Y100556*
X128983Y100483*
X129370Y100556D02*
X129517Y100483D01*
X129665*
X129812Y100556*
X129885Y100703*
Y101144*
X129812Y101291*
X129665Y101365*
X129517*
X129370Y101291*
X129297Y101144*
Y100703*
X129370Y100556*
X129812Y101291*
X130147Y100483D02*
X130147Y101071D01*
Y100997D02*
X130220Y101071D01*
X130367*
X130441Y100997*
Y100777*
Y100997D02*
X130515Y101071D01*
X130662*
X130735Y100997*
Y100483*
X130997D02*
X130997Y101071D01*
Y100997D02*
X131070Y101071D01*
X131217*
X131291Y100997*
Y100777*
Y100997D02*
X131365Y101071D01*
X131512*
X131585Y100997*
Y100483*
D02*
D17*
X95303Y103637D02*
Y125150D01*
Y127525D02*
Y149037D01*
X98828Y100887D02*
X126647D01*
X132409D02*
X160228D01*
D02*
D281*
X98028Y106355D02*
Y100387D01*
X100597Y102837D02*
X94803D01*
X102350Y149837D02*
X94803D01*
X161028Y109174D02*
Y100387D01*
D02*
D394*
X95303Y102837D02*
G36*
X94903Y104437D01*
X95703*
X95303Y102837*
G37*
Y149837D02*
G36*
X95703Y148237D01*
X94903*
X95303Y149837*
G37*
X98028Y100887D02*
G36*
X99628Y101287D01*
Y100487*
X98028Y100887*
G37*
X161028D02*
G36*
X159428Y100487D01*
Y101287*
X161028Y100887*
G37*
X0Y0D02*
M02*
