G04 GENERATED BY PULSONIX 7.0 GERBER.DLL 4573*
%INHILLSTAR_50X30_EL_V1_0*%
%LNGERBER_DRILL*%
%FSLAX33Y33*%
%IPPOS*%
%LPD*%
%OFA0B0*%
%MOMM*%
%ADD15C,0.125*%
%ADD146C,0.250*%
%ADD698C,3.200*%
X0Y0D02*
D02*
D15*
X102705Y105999D02*
X102852Y105925D01*
X102926Y105778*
X102852Y105631*
X102705Y105558*
X102191*
Y106440*
X102705*
X102852Y106366*
X102926Y106219*
X102852Y106072*
X102705Y105999*
X102191*
X102705Y147999D02*
X102852Y147925D01*
X102926Y147778*
X102852Y147631*
X102705Y147558*
X102191*
Y148440*
X102705*
X102852Y148366*
X102926Y148219*
X102852Y148072*
X102705Y147999*
X102191*
X104216Y132558D02*
X104583Y133440D01*
X104951Y132558*
X104363Y132925D02*
X104804Y132925D01*
X123716Y144458D02*
X124083Y145340D01*
X124451Y144458*
X123863Y144825D02*
X124304Y144825D01*
X123716Y145858D02*
X124083Y146740D01*
X124451Y145858*
X123863Y146225D02*
X124304Y146225D01*
X125716Y144458D02*
X126083Y145340D01*
X126451Y144458*
X125863Y144825D02*
X126304Y144825D01*
X125716Y145858D02*
X126083Y146740D01*
X126451Y145858*
X125863Y146225D02*
X126304Y146225D01*
X126716Y137558D02*
X127083Y138440D01*
X127451Y137558*
X126863Y137925D02*
X127304Y137925D01*
X127716Y142148D02*
X128083Y143030D01*
X128451Y142148*
X127863Y142515D02*
X128304Y142515D01*
X127716Y144458D02*
X128083Y145340D01*
X128451Y144458*
X127863Y144825D02*
X128304Y144825D01*
X127716Y145858D02*
X128083Y146740D01*
X128451Y145858*
X127863Y146225D02*
X128304Y146225D01*
X129716Y144458D02*
X130083Y145340D01*
X130451Y144458*
X129863Y144825D02*
X130304Y144825D01*
X129716Y145858D02*
X130083Y146740D01*
X130451Y145858*
X129863Y146225D02*
X130304Y146225D01*
X130716Y110058D02*
X131083Y110940D01*
X131451Y110058*
X130863Y110425D02*
X131304Y110425D01*
X131716Y144458D02*
X132083Y145340D01*
X132451Y144458*
X131863Y144825D02*
X132304Y144825D01*
X131716Y145858D02*
X132083Y146740D01*
X132451Y145858*
X131863Y146225D02*
X132304Y146225D01*
X133716Y144458D02*
X134083Y145340D01*
X134451Y144458*
X133863Y144825D02*
X134304Y144825D01*
X133716Y145858D02*
X134083Y146740D01*
X134451Y145858*
X133863Y146225D02*
X134304Y146225D01*
X135716Y144458D02*
X136083Y145340D01*
X136451Y144458*
X135863Y144825D02*
X136304Y144825D01*
X135716Y145858D02*
X136083Y146740D01*
X136451Y145858*
X135863Y146225D02*
X136304Y146225D01*
X155216Y132558D02*
X155583Y133440D01*
X155951Y132558*
X155363Y132925D02*
X155804Y132925D01*
X160705Y105999D02*
X160852Y105925D01*
X160926Y105778*
X160852Y105631*
X160705Y105558*
X160191*
Y106440*
X160705*
X160852Y106366*
X160926Y106219*
X160852Y106072*
X160705Y105999*
X160191*
X160705Y147999D02*
X160852Y147925D01*
X160926Y147778*
X160852Y147631*
X160705Y147558*
X160191*
Y148440*
X160705*
X160852Y148366*
X160926Y148219*
X160852Y148072*
X160705Y147999*
X160191*
D02*
D146*
X104028Y132337D03*
X123528Y144237D03*
Y145637D03*
X125528Y144237D03*
Y145637D03*
X126528Y137337D03*
X127528Y141927D03*
Y144237D03*
Y145637D03*
X129528Y144237D03*
Y145637D03*
X130528Y109837D03*
X131528Y144237D03*
Y145637D03*
X133528Y144237D03*
Y145637D03*
X135528Y144237D03*
Y145637D03*
X155028Y132337D03*
D02*
D698*
X100528Y105337D03*
Y147337D03*
X158528Y105337D03*
Y147337D03*
X0Y0D02*
M02*
