G04*
G04 #@! TF.GenerationSoftware,Altium Limited,Altium Designer,23.2.1 (34)*
G04*
G04 Layer_Color=65535*
%FSLAX25Y25*%
%MOIN*%
G70*
G04*
G04 #@! TF.SameCoordinates,9329C3C2-16CE-4A0C-8BE9-04AE65E2FBF7*
G04*
G04*
G04 #@! TF.FilePolarity,Positive*
G04*
G01*
G75*
%ADD10C,0.01575*%
%ADD11C,0.01000*%
%ADD12C,0.00787*%
%ADD13C,0.00750*%
%ADD14C,0.00984*%
%ADD15R,0.15748X0.11811*%
D10*
X-1865Y20740D02*
X-1725Y21653D01*
X-2550Y22071D01*
X-3203Y21417D01*
X-2786Y20593D01*
X-1872Y20733D01*
D11*
X86Y15172D02*
X-585Y15843D01*
X-1256Y15172D01*
X-585Y14501D01*
X86Y15172D01*
X-15750Y41298D02*
X-15750Y41495D01*
X-15750Y49975D02*
X-15750Y46858D01*
X-15750Y57168D02*
X-15750Y56913D01*
X15750Y41298D02*
Y41495D01*
Y46858D02*
Y49975D01*
Y56913D02*
Y57168D01*
Y62958D01*
X-15750Y57168D02*
X-15750Y63438D01*
X-15750Y41298D02*
X-6920Y41298D01*
X6920Y41298D02*
X15750Y41298D01*
X15790Y62957D02*
X17200Y64607D01*
Y64807D01*
X16550Y64807D02*
X17200Y64807D01*
X15536Y63793D02*
X16550Y64807D01*
X-15266Y63793D02*
X15536Y63793D01*
X-16080Y64607D02*
X-15266Y63793D01*
X-17230Y64607D02*
X-16080D01*
X-17230D02*
X-15710Y62957D01*
D12*
X16440Y-2157D02*
X18562Y-35D01*
X35Y18491D02*
X18562Y-35D01*
X-18420Y35D02*
X35Y18491D01*
X-18420Y35D02*
X106Y-18491D01*
X17359Y-1237D01*
X-52244Y-87913D02*
X-52244Y62087D01*
X-42244Y-87913D02*
Y54587D01*
Y62087D01*
X-52244Y62087D02*
X-42244Y62087D01*
X-52244Y-87913D02*
X-42244D01*
X42244D02*
X42244Y62087D01*
X52244Y-87913D02*
X52244Y54587D01*
X52244Y62087D02*
X52244Y54587D01*
X42244Y62087D02*
X52244Y62087D01*
X42244Y-87913D02*
X52244D01*
D13*
X9489Y22831D02*
X9907Y22413D01*
X11856Y25197D02*
X12273Y24780D01*
X34917Y-71240D02*
X36885Y-71240D01*
X34917Y-74587D02*
X36885Y-74587D01*
X34449Y-51240D02*
X36417Y-51240D01*
X34449Y-54587D02*
X36417Y-54587D01*
X34449Y-41240D02*
X36417Y-41240D01*
X34449Y-44587D02*
X36417D01*
X34449Y-31240D02*
X36417Y-31240D01*
X34449Y-34587D02*
X36417D01*
X34449Y-21240D02*
X36417Y-21240D01*
X34449Y-24587D02*
X36417Y-24587D01*
X34449Y-11240D02*
X36417Y-11240D01*
X34449Y-14587D02*
X36417Y-14587D01*
X34449Y-1240D02*
X36417Y-1240D01*
X34449Y-4587D02*
X36417Y-4587D01*
X34449Y8760D02*
X36417Y8760D01*
X34449Y5413D02*
X36417Y5413D01*
X34449Y18760D02*
X36417Y18760D01*
X34449Y15413D02*
X36417D01*
X34449Y28760D02*
X36417Y28760D01*
X34449Y25413D02*
X36417D01*
X34449Y38760D02*
X36417Y38760D01*
X34449Y35413D02*
X36417D01*
X34449Y48760D02*
X36417Y48760D01*
X34449Y45413D02*
X36417Y45413D01*
X34449Y58760D02*
X36417Y58760D01*
X34449Y55413D02*
X36417Y55413D01*
X34917Y-61240D02*
X36885Y-61240D01*
X34917Y-64587D02*
X36885Y-64587D01*
X-13287Y21504D02*
X-11895Y22896D01*
X-15654Y23870D02*
X-14262Y25262D01*
X-4849Y29942D02*
X-3457Y31334D01*
X-7216Y32308D02*
X-5824Y33700D01*
X-36417Y-54587D02*
X-34449Y-54587D01*
X-36417Y-51240D02*
X-34449D01*
X-36417Y35413D02*
X-34449Y35413D01*
X-36417Y38760D02*
X-34449D01*
X-36417Y-4587D02*
X-34449Y-4587D01*
X-36417Y-1240D02*
X-34449D01*
X-36417Y25413D02*
X-34449Y25413D01*
X-36417Y28760D02*
X-34449D01*
X-36417Y-14587D02*
X-34449Y-14587D01*
X-36417Y-11240D02*
X-34449Y-11240D01*
X-36417Y15413D02*
X-34449Y15413D01*
X-36417Y18760D02*
X-34449Y18760D01*
X-36417Y-24587D02*
X-34449Y-24587D01*
X-36417Y-21240D02*
X-34449Y-21240D01*
X-36417Y5413D02*
X-34449Y5413D01*
X-36417Y8760D02*
X-34449Y8760D01*
X-36417Y55413D02*
X-34449Y55413D01*
X-36417Y58760D02*
X-34449Y58760D01*
X-36417Y-34587D02*
X-34449Y-34587D01*
X-36417Y-31240D02*
X-34449Y-31240D01*
X-36417Y-44587D02*
X-34449Y-44587D01*
X-36417Y-41240D02*
X-34449Y-41240D01*
X-36417Y45413D02*
X-34449Y45413D01*
X-36417Y48760D02*
X-34449Y48760D01*
X-36417Y-61240D02*
X-34449Y-61240D01*
X-36417Y-64587D02*
X-34449Y-64587D01*
D14*
X-11545Y-34056D02*
X-14431D01*
Y-36221D01*
X-12988D01*
X-14431D01*
Y-38386D01*
X-10102Y-34056D02*
X-7215D01*
X-8659D01*
Y-38386D01*
X-2886D02*
X-5772D01*
X-2886Y-35500D01*
Y-34778D01*
X-3608Y-34056D01*
X-5051D01*
X-5772Y-34778D01*
X1443Y-38386D02*
X-1443D01*
X1443Y-35500D01*
Y-34778D01*
X722Y-34056D01*
X-722D01*
X-1443Y-34778D01*
X2886D02*
X3608Y-34056D01*
X5051D01*
X5772Y-34778D01*
Y-35500D01*
X5051Y-36221D01*
X4329D01*
X5051D01*
X5772Y-36943D01*
Y-37664D01*
X5051Y-38386D01*
X3608D01*
X2886Y-37664D01*
X10102Y-38386D02*
X7215D01*
X10102Y-35500D01*
Y-34778D01*
X9380Y-34056D01*
X7937D01*
X7215Y-34778D01*
X11545Y-34056D02*
Y-38386D01*
X13710D01*
X14431Y-37664D01*
Y-34778D01*
X13710Y-34056D01*
X11545D01*
D15*
X0Y53150D02*
D03*
M02*
