G04*
G04 #@! TF.GenerationSoftware,Altium Limited,Altium Designer,23.2.1 (34)*
G04*
G04 Layer_Physical_Order=1*
G04 Layer_Color=255*
%FSLAX25Y25*%
%MOIN*%
G70*
G04*
G04 #@! TF.SameCoordinates,9329C3C2-16CE-4A0C-8BE9-04AE65E2FBF7*
G04*
G04*
G04 #@! TF.FilePolarity,Positive*
G04*
G01*
G75*
%ADD10C,0.01575*%
%ADD12C,0.00787*%
%ADD14C,0.00984*%
%ADD27C,0.01102*%
%ADD28C,0.02362*%
G04:AMPARAMS|DCode=29|XSize=59.06mil|YSize=10.63mil|CornerRadius=0mil|HoleSize=0mil|Usage=FLASHONLY|Rotation=225.000|XOffset=0mil|YOffset=0mil|HoleType=Round|Shape=Round|*
%AMOVALD29*
21,1,0.04842,0.01063,0.00000,0.00000,225.0*
1,1,0.01063,0.01712,0.01712*
1,1,0.01063,-0.01712,-0.01712*
%
%ADD29OVALD29*%

G04:AMPARAMS|DCode=30|XSize=10.63mil|YSize=59.06mil|CornerRadius=0mil|HoleSize=0mil|Usage=FLASHONLY|Rotation=225.000|XOffset=0mil|YOffset=0mil|HoleType=Round|Shape=Round|*
%AMOVALD30*
21,1,0.04842,0.01063,0.00000,0.00000,315.0*
1,1,0.01063,-0.01712,0.01712*
1,1,0.01063,0.01712,-0.01712*
%
%ADD30OVALD30*%

G04:AMPARAMS|DCode=31|XSize=31mil|YSize=38mil|CornerRadius=7.75mil|HoleSize=0mil|Usage=FLASHONLY|Rotation=225.000|XOffset=0mil|YOffset=0mil|HoleType=Round|Shape=RoundedRectangle|*
%AMROUNDEDRECTD31*
21,1,0.03100,0.02250,0,0,225.0*
21,1,0.01550,0.03800,0,0,225.0*
1,1,0.01550,-0.01344,0.00248*
1,1,0.01550,-0.00248,0.01344*
1,1,0.01550,0.01344,-0.00248*
1,1,0.01550,0.00248,-0.01344*
%
%ADD31ROUNDEDRECTD31*%
G04:AMPARAMS|DCode=32|XSize=35.43mil|YSize=38mil|CornerRadius=3.54mil|HoleSize=0mil|Usage=FLASHONLY|Rotation=270.000|XOffset=0mil|YOffset=0mil|HoleType=Round|Shape=RoundedRectangle|*
%AMROUNDEDRECTD32*
21,1,0.03543,0.03091,0,0,270.0*
21,1,0.02835,0.03800,0,0,270.0*
1,1,0.00709,-0.01546,-0.01417*
1,1,0.00709,-0.01546,0.01417*
1,1,0.00709,0.01546,0.01417*
1,1,0.00709,0.01546,-0.01417*
%
%ADD32ROUNDEDRECTD32*%
G04:AMPARAMS|DCode=33|XSize=35.43mil|YSize=38mil|CornerRadius=3.54mil|HoleSize=0mil|Usage=FLASHONLY|Rotation=135.000|XOffset=0mil|YOffset=0mil|HoleType=Round|Shape=RoundedRectangle|*
%AMROUNDEDRECTD33*
21,1,0.03543,0.03091,0,0,135.0*
21,1,0.02835,0.03800,0,0,135.0*
1,1,0.00709,0.00091,0.02095*
1,1,0.00709,0.02095,0.00091*
1,1,0.00709,-0.00091,-0.02095*
1,1,0.00709,-0.02095,-0.00091*
%
%ADD33ROUNDEDRECTD33*%
%ADD34R,0.07874X0.05512*%
%ADD35R,0.06299X0.03937*%
%ADD36R,0.01575X0.07874*%
%ADD37C,0.05906*%
%ADD38R,0.05906X0.05906*%
%ADD39C,0.02362*%
G36*
X52510Y-87944D02*
X-52510D01*
Y62353D01*
X52510D01*
Y-87944D01*
D02*
G37*
%LPC*%
G36*
X50787Y60630D02*
X43701D01*
Y59555D01*
X43680Y59516D01*
X43664Y59367D01*
X43645Y59313D01*
X43613Y59265D01*
X43549Y59206D01*
X43433Y59136D01*
X43257Y59064D01*
X43017Y59000D01*
X42715Y58950D01*
X42365Y58919D01*
X42093Y58925D01*
X41498Y58979D01*
X41277Y59016D01*
X41097Y59058D01*
X40968Y59100D01*
X40896Y59133D01*
X40883Y59143D01*
X40850Y59179D01*
X40834Y59186D01*
X40828Y59203D01*
X40712Y59250D01*
X40497Y59394D01*
X40129Y59467D01*
X37037D01*
X36669Y59394D01*
X36356Y59185D01*
X36147Y58872D01*
X36074Y58504D01*
Y55669D01*
X36147Y55300D01*
X36356Y54988D01*
X36669Y54779D01*
X37037Y54706D01*
X40129D01*
X40497Y54779D01*
X40712Y54922D01*
X40828Y54970D01*
X40834Y54987D01*
X40850Y54994D01*
X40883Y55031D01*
X40896Y55040D01*
X40968Y55073D01*
X41097Y55115D01*
X41278Y55157D01*
X41492Y55193D01*
X42360Y55255D01*
X42715Y55224D01*
X43017Y55174D01*
X43257Y55109D01*
X43433Y55037D01*
X43549Y54967D01*
X43613Y54908D01*
X43645Y54860D01*
X43664Y54806D01*
X43680Y54657D01*
X43701Y54618D01*
Y53543D01*
X50787D01*
Y60630D01*
D02*
G37*
G36*
X-43701D02*
X-50787D01*
Y53543D01*
X-43701D01*
Y54618D01*
X-43680Y54657D01*
X-43664Y54806D01*
X-43645Y54860D01*
X-43613Y54908D01*
X-43549Y54967D01*
X-43433Y55037D01*
X-43257Y55109D01*
X-43017Y55174D01*
X-42715Y55224D01*
X-42365Y55254D01*
X-42093Y55248D01*
X-41498Y55194D01*
X-41278Y55157D01*
X-41097Y55115D01*
X-40968Y55073D01*
X-40896Y55040D01*
X-40883Y55031D01*
X-40850Y54994D01*
X-40834Y54987D01*
X-40828Y54971D01*
X-40712Y54923D01*
X-40497Y54779D01*
X-40129Y54706D01*
X-37037D01*
X-36669Y54779D01*
X-36356Y54988D01*
X-36147Y55301D01*
X-36074Y55669D01*
Y58504D01*
X-36147Y58873D01*
X-36356Y59185D01*
X-36669Y59394D01*
X-37037Y59467D01*
X-40129D01*
X-40497Y59394D01*
X-40712Y59251D01*
X-40828Y59203D01*
X-40834Y59186D01*
X-40850Y59179D01*
X-40883Y59143D01*
X-40896Y59134D01*
X-40968Y59100D01*
X-41097Y59058D01*
X-41277Y59016D01*
X-41492Y58981D01*
X-42360Y58918D01*
X-42715Y58950D01*
X-43017Y59000D01*
X-43257Y59064D01*
X-43433Y59136D01*
X-43549Y59206D01*
X-43613Y59265D01*
X-43645Y59313D01*
X-43664Y59367D01*
X-43680Y59516D01*
X-43701Y59555D01*
Y60630D01*
D02*
G37*
G36*
X33829Y59467D02*
X30737D01*
X30369Y59394D01*
X30056Y59185D01*
X29847Y58872D01*
X29774Y58504D01*
Y55669D01*
X29847Y55300D01*
X30056Y54988D01*
X30369Y54779D01*
X30737Y54706D01*
X30790Y54645D01*
X30977Y54206D01*
X30736Y53624D01*
X30286Y53037D01*
X30288Y53035D01*
X27202Y49948D01*
X26833Y49610D01*
X26833Y49610D01*
X26009Y48536D01*
X25491Y47285D01*
X25314Y45943D01*
X25336D01*
Y37457D01*
X25332D01*
X25236Y36724D01*
X24953Y36041D01*
X24503Y35454D01*
X24505Y35452D01*
X23002Y33948D01*
X22633Y33610D01*
X22633Y33610D01*
X21809Y32536D01*
X21291Y31285D01*
X21114Y29943D01*
X21136D01*
Y19780D01*
X21133D01*
X21036Y19047D01*
X20753Y18364D01*
X20303Y17777D01*
X20305Y17775D01*
X18634Y16103D01*
X18114Y16291D01*
X17902Y16804D01*
X17506Y17199D01*
X17444Y17500D01*
X17506Y17801D01*
X17902Y18196D01*
X18172Y18848D01*
Y19552D01*
X17902Y20204D01*
X17404Y20702D01*
X16752Y20972D01*
X16048D01*
X15396Y20702D01*
X14984Y20290D01*
X14911Y20246D01*
X14882Y20208D01*
X14862Y20184D01*
X14836Y20159D01*
X14728Y20068D01*
X14678Y20032D01*
X14406Y19863D01*
X14303Y19806D01*
X14267Y19762D01*
X14179Y19726D01*
X13259Y19020D01*
X13271Y19008D01*
X10818Y16554D01*
X10646Y16440D01*
X7222Y13016D01*
X6974Y12645D01*
X6887Y12207D01*
X6974Y11769D01*
X7222Y11398D01*
X7593Y11150D01*
X7827Y11103D01*
X8128Y10912D01*
X8320Y10611D01*
X8367Y10377D01*
X8615Y10006D01*
X8718Y9937D01*
X8712Y9697D01*
X8619Y9402D01*
X8054Y9167D01*
X7555Y8669D01*
X7286Y8018D01*
Y7313D01*
X7555Y6662D01*
X8054Y6163D01*
X8705Y5894D01*
X9410D01*
X10061Y6163D01*
X10559Y6662D01*
X10794Y7228D01*
X11088Y7320D01*
X11329Y7326D01*
X11399Y7222D01*
X11770Y6974D01*
X12003Y6928D01*
X12304Y6735D01*
X12496Y6435D01*
X12542Y6201D01*
X12790Y5830D01*
X13161Y5582D01*
X13395Y5536D01*
X13695Y5344D01*
X13888Y5043D01*
X13935Y4809D01*
X14183Y4438D01*
X14554Y4190D01*
X14786Y4144D01*
X15088Y3951D01*
X15279Y3651D01*
X15326Y3417D01*
X15574Y3046D01*
X15945Y2798D01*
X16179Y2752D01*
X16479Y2560D01*
X16672Y2259D01*
X16718Y2025D01*
X16966Y1654D01*
X17338Y1406D01*
X17775Y1319D01*
X18213Y1406D01*
X18584Y1654D01*
X20225Y3295D01*
X20311Y3352D01*
X31009Y14050D01*
X31067Y14072D01*
X31468Y14444D01*
X31623Y14567D01*
X31759Y14662D01*
X31835Y14706D01*
X32270D01*
X32291Y14701D01*
X32299Y14706D01*
X33829D01*
X34197Y14779D01*
X34510Y14988D01*
X34719Y15301D01*
X34792Y15669D01*
Y18504D01*
X34719Y18872D01*
X34510Y19185D01*
X34197Y19394D01*
X33829Y19467D01*
X30737D01*
X30369Y19394D01*
X30056Y19185D01*
X29964Y19047D01*
X29464Y19199D01*
Y21447D01*
X29467D01*
X29564Y22180D01*
X29847Y22863D01*
X30297Y23449D01*
X30295Y23452D01*
X30893Y24051D01*
X30952Y24072D01*
X31363Y24454D01*
X31520Y24580D01*
X31658Y24676D01*
X31710Y24706D01*
X32095D01*
X32129Y24695D01*
X32149Y24706D01*
X33829D01*
X34197Y24779D01*
X34510Y24988D01*
X34719Y25300D01*
X34792Y25669D01*
Y28504D01*
X34719Y28872D01*
X34510Y29185D01*
X34197Y29394D01*
X33829Y29467D01*
X30737D01*
X30369Y29394D01*
X30304Y29351D01*
X29985Y29739D01*
X31935Y31688D01*
X31950Y31673D01*
X32774Y32747D01*
X33292Y33998D01*
X33304Y34086D01*
X33327Y34122D01*
X33359Y34314D01*
X33393Y34461D01*
X33429Y34577D01*
X33463Y34661D01*
X33487Y34706D01*
X33829D01*
X34197Y34779D01*
X34510Y34988D01*
X34719Y35300D01*
X34792Y35669D01*
Y38504D01*
X34719Y38873D01*
X34510Y39185D01*
X34197Y39394D01*
X33829Y39467D01*
X30737D01*
X30564Y39433D01*
X30064Y39746D01*
Y42047D01*
X30068D01*
X30164Y42780D01*
X30447Y43463D01*
X30897Y44050D01*
X30959Y44080D01*
X30959Y44080D01*
X31405Y44508D01*
X31606Y44680D01*
X31639Y44706D01*
X33829D01*
X34197Y44779D01*
X34510Y44988D01*
X34719Y45300D01*
X34792Y45669D01*
Y48504D01*
X34719Y48873D01*
X34510Y49185D01*
X34197Y49394D01*
X33829Y49467D01*
X30737D01*
X30716Y49463D01*
X30470Y49924D01*
X31935Y51388D01*
X31950Y51373D01*
X32774Y52447D01*
X33292Y53698D01*
X33425Y54706D01*
X33829D01*
X34197Y54779D01*
X34510Y54988D01*
X34719Y55300D01*
X34792Y55669D01*
Y58504D01*
X34719Y58872D01*
X34510Y59185D01*
X34197Y59394D01*
X33829Y59467D01*
D02*
G37*
G36*
X2912Y56590D02*
X2208D01*
X1556Y56321D01*
X1058Y55822D01*
X788Y55171D01*
Y54466D01*
X1058Y53815D01*
X1228Y53646D01*
X1271Y53534D01*
X1338Y53464D01*
X1382Y53411D01*
X1419Y53359D01*
X1449Y53309D01*
X1473Y53260D01*
X1492Y53211D01*
X1507Y53161D01*
X1518Y53110D01*
X1524Y53055D01*
X1528Y52971D01*
X1556Y52909D01*
Y51538D01*
X1056Y51331D01*
X1004Y51384D01*
X352Y51653D01*
X-352D01*
X-1004Y51384D01*
X-1502Y50885D01*
X-1772Y50234D01*
Y49529D01*
X-1502Y48878D01*
X-1332Y48709D01*
X-1289Y48597D01*
X-1222Y48527D01*
X-1178Y48474D01*
X-1141Y48422D01*
X-1111Y48372D01*
X-1087Y48323D01*
X-1068Y48274D01*
X-1053Y48224D01*
X-1042Y48173D01*
X-1036Y48118D01*
X-1032Y48034D01*
X-1003Y47972D01*
Y46802D01*
X-1033Y46737D01*
X-1036Y46606D01*
X-1042Y46535D01*
X-1378D01*
Y46021D01*
X-1415Y45933D01*
X-1401Y45899D01*
X-1411Y45864D01*
X-1378Y45804D01*
Y37480D01*
X3938D01*
Y37480D01*
X6498D01*
Y41872D01*
X6525Y42008D01*
Y43309D01*
X7025Y43519D01*
X7542Y43305D01*
X8208D01*
X8823Y43560D01*
X9294Y44031D01*
X9548Y44646D01*
Y45311D01*
X9294Y45926D01*
X8823Y46397D01*
X8208Y46652D01*
X7542D01*
X7025Y46437D01*
X6525Y46648D01*
Y48239D01*
X6547Y48291D01*
X6547Y48419D01*
X6556Y48801D01*
X6557Y48813D01*
X6622Y48878D01*
X6892Y49529D01*
Y50234D01*
X6622Y50885D01*
X6576Y50931D01*
X6549Y51443D01*
X6556Y51738D01*
X6557Y51750D01*
X6622Y51815D01*
X6892Y52466D01*
Y53171D01*
X6622Y53822D01*
X6124Y54321D01*
X5472Y54590D01*
X4768D01*
X4332Y54951D01*
Y55171D01*
X4062Y55822D01*
X3564Y56321D01*
X2912Y56590D01*
D02*
G37*
G36*
X47711Y50630D02*
X46778D01*
X45876Y50388D01*
X45068Y49922D01*
X44808Y49661D01*
X44699Y49620D01*
X44539Y49472D01*
X44392Y49356D01*
X44234Y49254D01*
X44065Y49165D01*
X43885Y49088D01*
X43691Y49025D01*
X43482Y48974D01*
X43259Y48937D01*
X43020Y48915D01*
X42798Y48908D01*
X42093Y48926D01*
X41498Y48979D01*
X41277Y49016D01*
X41097Y49058D01*
X40968Y49100D01*
X40896Y49134D01*
X40883Y49143D01*
X40850Y49179D01*
X40834Y49186D01*
X40828Y49203D01*
X40712Y49251D01*
X40497Y49394D01*
X40129Y49467D01*
X37037D01*
X36669Y49394D01*
X36356Y49185D01*
X36147Y48873D01*
X36074Y48504D01*
Y45669D01*
X36147Y45300D01*
X36356Y44988D01*
X36669Y44779D01*
X37037Y44706D01*
X40129D01*
X40497Y44779D01*
X40712Y44923D01*
X40828Y44970D01*
X40834Y44987D01*
X40850Y44994D01*
X40883Y45031D01*
X40896Y45040D01*
X40968Y45073D01*
X41097Y45115D01*
X41277Y45157D01*
X41492Y45193D01*
X42456Y45262D01*
X42781Y45266D01*
X43020Y45258D01*
X43259Y45236D01*
X43482Y45199D01*
X43691Y45149D01*
X43885Y45085D01*
X44065Y45009D01*
X44234Y44919D01*
X44392Y44817D01*
X44539Y44702D01*
X44699Y44553D01*
X44808Y44512D01*
X45068Y44251D01*
X45876Y43785D01*
X46778Y43543D01*
X47711D01*
X48612Y43785D01*
X49420Y44251D01*
X50079Y44911D01*
X50546Y45719D01*
X50787Y46620D01*
Y47553D01*
X50546Y48454D01*
X50079Y49262D01*
X49420Y49922D01*
X48612Y50388D01*
X47711Y50630D01*
D02*
G37*
G36*
X-46778D02*
X-47711D01*
X-48612Y50388D01*
X-49420Y49922D01*
X-50080Y49262D01*
X-50546Y48454D01*
X-50787Y47553D01*
Y46620D01*
X-50546Y45719D01*
X-50080Y44911D01*
X-49420Y44251D01*
X-48612Y43785D01*
X-47711Y43543D01*
X-46778D01*
X-45877Y43785D01*
X-45068Y44251D01*
X-44808Y44512D01*
X-44699Y44553D01*
X-44540Y44702D01*
X-44392Y44818D01*
X-44234Y44919D01*
X-44065Y45009D01*
X-43885Y45085D01*
X-43691Y45149D01*
X-43482Y45199D01*
X-43259Y45236D01*
X-43020Y45258D01*
X-42798Y45265D01*
X-42093Y45248D01*
X-41498Y45194D01*
X-41278Y45157D01*
X-41097Y45115D01*
X-40968Y45073D01*
X-40896Y45040D01*
X-40883Y45031D01*
X-40850Y44995D01*
X-40834Y44987D01*
X-40828Y44971D01*
X-40712Y44923D01*
X-40497Y44779D01*
X-40129Y44706D01*
X-37037D01*
X-36669Y44779D01*
X-36356Y44988D01*
X-36147Y45301D01*
X-36074Y45669D01*
Y48504D01*
X-36147Y48873D01*
X-36356Y49185D01*
X-36669Y49394D01*
X-37037Y49467D01*
X-40129D01*
X-40497Y49394D01*
X-40712Y49251D01*
X-40828Y49203D01*
X-40834Y49186D01*
X-40850Y49179D01*
X-40883Y49143D01*
X-40896Y49134D01*
X-40968Y49100D01*
X-41097Y49058D01*
X-41278Y49016D01*
X-41492Y48981D01*
X-42456Y48911D01*
X-42781Y48908D01*
X-43020Y48915D01*
X-43259Y48937D01*
X-43482Y48974D01*
X-43691Y49025D01*
X-43885Y49088D01*
X-44065Y49165D01*
X-44234Y49254D01*
X-44392Y49356D01*
X-44539Y49471D01*
X-44699Y49620D01*
X-44808Y49661D01*
X-45068Y49922D01*
X-45877Y50388D01*
X-46778Y50630D01*
D02*
G37*
G36*
X-7540Y46652D02*
X-8206D01*
X-8821Y46397D01*
X-9291Y45926D01*
X-9546Y45311D01*
Y44646D01*
X-9291Y44031D01*
X-8821Y43560D01*
X-8206Y43305D01*
X-7540D01*
X-6925Y43560D01*
X-6454Y44031D01*
X-6200Y44646D01*
Y45311D01*
X-6454Y45926D01*
X-6925Y46397D01*
X-7540Y46652D01*
D02*
G37*
G36*
X47711Y40630D02*
X46778D01*
X45876Y40389D01*
X45068Y39922D01*
X44808Y39661D01*
X44699Y39620D01*
X44539Y39472D01*
X44392Y39356D01*
X44234Y39254D01*
X44065Y39165D01*
X43885Y39088D01*
X43691Y39025D01*
X43482Y38974D01*
X43259Y38937D01*
X43020Y38915D01*
X42798Y38908D01*
X42093Y38925D01*
X41498Y38980D01*
X41277Y39016D01*
X41097Y39058D01*
X40968Y39100D01*
X40896Y39134D01*
X40883Y39143D01*
X40850Y39179D01*
X40834Y39186D01*
X40828Y39203D01*
X40712Y39250D01*
X40497Y39394D01*
X40129Y39467D01*
X37037D01*
X36669Y39394D01*
X36356Y39185D01*
X36147Y38873D01*
X36074Y38504D01*
Y35669D01*
X36147Y35300D01*
X36356Y34988D01*
X36669Y34779D01*
X37037Y34706D01*
X40129D01*
X40497Y34779D01*
X40712Y34923D01*
X40828Y34970D01*
X40834Y34987D01*
X40850Y34994D01*
X40883Y35030D01*
X40896Y35040D01*
X40968Y35073D01*
X41097Y35115D01*
X41278Y35157D01*
X41492Y35193D01*
X42456Y35262D01*
X42781Y35266D01*
X43020Y35258D01*
X43259Y35236D01*
X43482Y35199D01*
X43691Y35149D01*
X43885Y35085D01*
X44065Y35008D01*
X44234Y34920D01*
X44392Y34817D01*
X44539Y34702D01*
X44699Y34553D01*
X44808Y34512D01*
X45068Y34251D01*
X45876Y33785D01*
X46778Y33543D01*
X47711D01*
X48612Y33785D01*
X49420Y34251D01*
X50079Y34911D01*
X50546Y35719D01*
X50787Y36620D01*
Y37553D01*
X50546Y38454D01*
X50079Y39262D01*
X49420Y39922D01*
X48612Y40389D01*
X47711Y40630D01*
D02*
G37*
G36*
X-30737Y59467D02*
X-33829D01*
X-34197Y59394D01*
X-34510Y59185D01*
X-34719Y58873D01*
X-34792Y58504D01*
Y55669D01*
X-34719Y55301D01*
X-34510Y54988D01*
X-34197Y54779D01*
X-33829Y54706D01*
X-31987D01*
X-31968Y54696D01*
X-31935Y54706D01*
X-31605D01*
X-31571Y54686D01*
X-31460Y54609D01*
X-31143Y54340D01*
X-30961Y54164D01*
X-30897Y54139D01*
X-22652Y45895D01*
X-22655Y45892D01*
X-22195Y45293D01*
X-21906Y44595D01*
X-21808Y43847D01*
X-21804D01*
Y38332D01*
X-22304Y38232D01*
X-22460Y38610D01*
X-23275Y39672D01*
X-23291Y39656D01*
X-23291Y39656D01*
X-29160Y45524D01*
X-29166Y45555D01*
X-29208Y45581D01*
X-29225Y45628D01*
X-29584Y46013D01*
X-29700Y46157D01*
X-29774Y46262D01*
Y46505D01*
X-29764Y46525D01*
X-29774Y46557D01*
Y46597D01*
X-29763Y46631D01*
X-29774Y46653D01*
Y48504D01*
X-29847Y48873D01*
X-30056Y49185D01*
X-30369Y49394D01*
X-30737Y49467D01*
X-33829D01*
X-34197Y49394D01*
X-34510Y49185D01*
X-34719Y48873D01*
X-34792Y48504D01*
Y45669D01*
X-34719Y45301D01*
X-34510Y44988D01*
X-34197Y44779D01*
X-33829Y44706D01*
X-31987D01*
X-31968Y44696D01*
X-31935Y44706D01*
X-31605D01*
X-31571Y44686D01*
X-31460Y44609D01*
X-31143Y44340D01*
X-30961Y44164D01*
X-30897Y44139D01*
X-24852Y38095D01*
X-24855Y38092D01*
X-24395Y37493D01*
X-24106Y36795D01*
X-24008Y36047D01*
X-24004D01*
Y30673D01*
X-24504Y30574D01*
X-24560Y30710D01*
X-25375Y31772D01*
X-25391Y31756D01*
X-25391Y31756D01*
X-29160Y35524D01*
X-29166Y35555D01*
X-29208Y35581D01*
X-29225Y35628D01*
X-29584Y36013D01*
X-29700Y36157D01*
X-29774Y36262D01*
Y36505D01*
X-29764Y36525D01*
X-29774Y36557D01*
Y36597D01*
X-29763Y36631D01*
X-29774Y36653D01*
Y38504D01*
X-29847Y38873D01*
X-30056Y39185D01*
X-30369Y39394D01*
X-30737Y39467D01*
X-33829D01*
X-34197Y39394D01*
X-34510Y39185D01*
X-34719Y38873D01*
X-34792Y38504D01*
Y35669D01*
X-34719Y35301D01*
X-34510Y34988D01*
X-34197Y34779D01*
X-33829Y34706D01*
X-31987D01*
X-31968Y34696D01*
X-31935Y34706D01*
X-31605D01*
X-31572Y34686D01*
X-31460Y34609D01*
X-31143Y34340D01*
X-30961Y34164D01*
X-30897Y34139D01*
X-26952Y30195D01*
X-26955Y30192D01*
X-26495Y29593D01*
X-26206Y28895D01*
X-26108Y28147D01*
X-26104D01*
Y22773D01*
X-26604Y22674D01*
X-26660Y22810D01*
X-27475Y23872D01*
X-27491Y23856D01*
X-27491Y23856D01*
X-29160Y25524D01*
X-29166Y25554D01*
X-29208Y25581D01*
X-29225Y25628D01*
X-29584Y26013D01*
X-29700Y26157D01*
X-29774Y26262D01*
Y26506D01*
X-29764Y26525D01*
X-29774Y26557D01*
Y26597D01*
X-29763Y26631D01*
X-29774Y26653D01*
Y28504D01*
X-29847Y28873D01*
X-30056Y29185D01*
X-30369Y29394D01*
X-30737Y29467D01*
X-33829D01*
X-34197Y29394D01*
X-34510Y29185D01*
X-34719Y28873D01*
X-34792Y28504D01*
Y25669D01*
X-34719Y25301D01*
X-34510Y24988D01*
X-34197Y24779D01*
X-33829Y24706D01*
X-31987D01*
X-31968Y24696D01*
X-31935Y24706D01*
X-31605D01*
X-31572Y24687D01*
X-31460Y24609D01*
X-31143Y24340D01*
X-30961Y24164D01*
X-30897Y24139D01*
X-29052Y22295D01*
X-29055Y22292D01*
X-28595Y21693D01*
X-28306Y20995D01*
X-28208Y20247D01*
X-28204D01*
Y15127D01*
X-28704Y14958D01*
X-29175Y15572D01*
X-29175Y15572D01*
X-29234Y15638D01*
X-29234Y15638D01*
X-29281Y15686D01*
X-29511Y15933D01*
X-29672Y16115D01*
X-29752Y16221D01*
X-29774Y16254D01*
Y16298D01*
X-29765Y16315D01*
X-29774Y16346D01*
Y16418D01*
X-29765Y16450D01*
X-29774Y16467D01*
Y18504D01*
X-29847Y18873D01*
X-30056Y19185D01*
X-30369Y19394D01*
X-30737Y19467D01*
X-33829D01*
X-34197Y19394D01*
X-34510Y19185D01*
X-34719Y18873D01*
X-34792Y18504D01*
Y15669D01*
X-34719Y15301D01*
X-34510Y14988D01*
X-34197Y14779D01*
X-33829Y14706D01*
X-31794D01*
X-31778Y14697D01*
X-31747Y14706D01*
X-31592D01*
X-31533Y14667D01*
X-31124Y14323D01*
X-30962Y14166D01*
X-30962Y14166D01*
X-30755Y13992D01*
X-30295Y13393D01*
X-30007Y12695D01*
X-29908Y11947D01*
X-29904D01*
Y9685D01*
X-30354Y9403D01*
X-30404Y9401D01*
X-30737Y9467D01*
X-33829D01*
X-34197Y9394D01*
X-34510Y9185D01*
X-34719Y8873D01*
X-34792Y8504D01*
Y5669D01*
X-34719Y5301D01*
X-34510Y4988D01*
X-34197Y4779D01*
X-33829Y4706D01*
X-33415D01*
X-33414Y4631D01*
X-33406Y4611D01*
X-33235Y3313D01*
X-32723Y2077D01*
X-31908Y1015D01*
X-31892Y1031D01*
X-31892Y1031D01*
X-30828Y-33D01*
X-30884Y-288D01*
X-31062Y-533D01*
X-33829D01*
X-34197Y-606D01*
X-34510Y-815D01*
X-34719Y-1127D01*
X-34792Y-1496D01*
Y-4331D01*
X-34719Y-4699D01*
X-34510Y-5012D01*
X-34197Y-5221D01*
X-33829Y-5294D01*
X-33415D01*
X-33414Y-5369D01*
X-33406Y-5389D01*
X-33235Y-6687D01*
X-32723Y-7923D01*
X-31908Y-8985D01*
X-31892Y-8969D01*
X-31892Y-8969D01*
X-30828Y-10033D01*
X-31036Y-10533D01*
X-33829D01*
X-34197Y-10606D01*
X-34510Y-10815D01*
X-34719Y-11127D01*
X-34792Y-11496D01*
Y-14331D01*
X-34719Y-14699D01*
X-34510Y-15012D01*
X-34197Y-15221D01*
X-33829Y-15294D01*
X-31856D01*
X-31825Y-15303D01*
X-31685Y-15356D01*
X-31030Y-15688D01*
X-30775Y-15841D01*
X-30720Y-15849D01*
X-30603Y-15940D01*
X-29366Y-16452D01*
X-28040Y-16626D01*
Y-16604D01*
X-15766D01*
Y-16626D01*
X-14560Y-16468D01*
X-14277Y-16892D01*
X-18347Y-20961D01*
X-18350Y-20958D01*
X-18948Y-21418D01*
X-19646Y-21707D01*
X-20394Y-21805D01*
Y-21810D01*
X-29326D01*
X-29388Y-21782D01*
X-29557Y-21778D01*
X-29683Y-21767D01*
X-29774Y-21752D01*
Y-21496D01*
X-29847Y-21127D01*
X-30056Y-20815D01*
X-30369Y-20606D01*
X-30737Y-20533D01*
X-33829D01*
X-34197Y-20606D01*
X-34510Y-20815D01*
X-34719Y-21127D01*
X-34792Y-21496D01*
Y-24331D01*
X-34719Y-24699D01*
X-34510Y-25012D01*
X-34197Y-25221D01*
X-33829Y-25294D01*
X-30737D01*
X-30369Y-25221D01*
X-30056Y-25012D01*
X-29847Y-24699D01*
X-29774Y-24331D01*
Y-24075D01*
X-29683Y-24060D01*
X-29557Y-24049D01*
X-29388Y-24045D01*
X-29326Y-24017D01*
X-20394D01*
Y-24040D01*
X-19191Y-23881D01*
X-18910Y-24307D01*
X-25563Y-30961D01*
X-25566Y-30958D01*
X-26165Y-31418D01*
X-26863Y-31707D01*
X-27611Y-31805D01*
Y-31809D01*
X-29326D01*
X-29388Y-31782D01*
X-29557Y-31778D01*
X-29683Y-31767D01*
X-29774Y-31752D01*
Y-31496D01*
X-29847Y-31127D01*
X-30056Y-30815D01*
X-30369Y-30606D01*
X-30737Y-30533D01*
X-33829D01*
X-34197Y-30606D01*
X-34510Y-30815D01*
X-34719Y-31127D01*
X-34792Y-31496D01*
Y-34331D01*
X-34719Y-34699D01*
X-34510Y-35012D01*
X-34197Y-35221D01*
X-33829Y-35294D01*
X-30737D01*
X-30369Y-35221D01*
X-30056Y-35012D01*
X-29847Y-34699D01*
X-29774Y-34331D01*
Y-34075D01*
X-29683Y-34060D01*
X-29557Y-34049D01*
X-29388Y-34045D01*
X-29326Y-34017D01*
X-27611D01*
Y-34040D01*
X-26406Y-33881D01*
X-26123Y-34305D01*
X-30788Y-38971D01*
X-30788Y-38971D01*
X-30804Y-38954D01*
X-31535Y-39907D01*
X-31581Y-39944D01*
X-31679Y-40119D01*
X-31766Y-40257D01*
X-31844Y-40367D01*
X-31913Y-40450D01*
X-31967Y-40505D01*
X-32002Y-40532D01*
X-32008Y-40533D01*
X-33829D01*
X-34197Y-40606D01*
X-34510Y-40815D01*
X-34719Y-41127D01*
X-34792Y-41496D01*
Y-44331D01*
X-34719Y-44699D01*
X-34510Y-45012D01*
X-34197Y-45221D01*
X-33829Y-45294D01*
X-30737D01*
X-30369Y-45221D01*
X-30104Y-45044D01*
X-29880Y-45099D01*
X-29604Y-45235D01*
Y-47473D01*
X-29608D01*
X-29706Y-48222D01*
X-29995Y-48919D01*
X-30455Y-49518D01*
X-30452Y-49521D01*
X-30891Y-49960D01*
X-30952Y-49983D01*
X-31316Y-50321D01*
X-31453Y-50430D01*
X-31571Y-50513D01*
X-31605Y-50533D01*
X-31935D01*
X-31968Y-50523D01*
X-31987Y-50533D01*
X-33829D01*
X-34197Y-50606D01*
X-34510Y-50815D01*
X-34719Y-51127D01*
X-34792Y-51496D01*
Y-54331D01*
X-34719Y-54699D01*
X-34510Y-55012D01*
X-34197Y-55221D01*
X-33829Y-55294D01*
X-30737D01*
X-30449Y-55237D01*
X-30161Y-55396D01*
X-29971Y-55556D01*
X-29975Y-55614D01*
X-31892Y-57531D01*
X-31892Y-57531D01*
X-31908Y-57515D01*
X-32723Y-58577D01*
X-33235Y-59813D01*
X-33330Y-60533D01*
X-33829D01*
X-34197Y-60606D01*
X-34510Y-60815D01*
X-34719Y-61127D01*
X-34792Y-61496D01*
Y-64331D01*
X-34719Y-64699D01*
X-34510Y-65012D01*
X-34197Y-65221D01*
X-33829Y-65294D01*
X-30737D01*
X-30369Y-65221D01*
X-30056Y-65012D01*
X-29847Y-64699D01*
X-29774Y-64331D01*
Y-61496D01*
X-29847Y-61127D01*
X-30056Y-60815D01*
X-30369Y-60606D01*
X-30605Y-60559D01*
X-30845Y-60251D01*
X-30928Y-60033D01*
X-30788Y-59694D01*
X-30328Y-59095D01*
X-30331Y-59092D01*
X-26791Y-55552D01*
X-26791Y-55552D01*
X-26775Y-55568D01*
X-25960Y-54506D01*
X-25448Y-53270D01*
X-25273Y-51943D01*
X-25296D01*
Y-43368D01*
X-25292D01*
X-25194Y-42620D01*
X-24905Y-41922D01*
X-24445Y-41323D01*
X-24448Y-41320D01*
X-5250Y-22122D01*
X-5079Y-22008D01*
X-1654Y-18584D01*
X-1407Y-18213D01*
X-1319Y-17775D01*
X-1407Y-17337D01*
X-1654Y-16966D01*
X-2026Y-16718D01*
X-2260Y-16671D01*
X-2560Y-16480D01*
X-2753Y-16178D01*
X-2799Y-15945D01*
X-3047Y-15574D01*
X-3418Y-15326D01*
X-3651Y-15280D01*
X-3953Y-15087D01*
X-4144Y-14786D01*
X-4190Y-14553D01*
X-4438Y-14182D01*
X-4809Y-13934D01*
X-5043Y-13887D01*
X-5344Y-13696D01*
X-5537Y-13395D01*
X-5583Y-13161D01*
X-5831Y-12790D01*
X-6202Y-12542D01*
X-6435Y-12496D01*
X-6736Y-12303D01*
X-6928Y-12002D01*
X-6974Y-11769D01*
X-7222Y-11398D01*
X-7593Y-11150D01*
X-7827Y-11103D01*
X-8128Y-10912D01*
X-8320Y-10611D01*
X-8367Y-10377D01*
X-8615Y-10006D01*
X-8986Y-9758D01*
X-9424Y-9671D01*
X-9862Y-9758D01*
X-10233Y-10006D01*
X-13555Y-13329D01*
X-13578Y-13333D01*
X-13613Y-13387D01*
X-13657Y-13430D01*
X-13665Y-13442D01*
X-13737Y-13485D01*
X-13766Y-13525D01*
X-13785Y-13547D01*
X-13889Y-13647D01*
X-13938Y-13689D01*
X-14346Y-13983D01*
X-14467Y-14061D01*
X-14472Y-14068D01*
X-15017Y-14293D01*
X-15766Y-14392D01*
Y-14396D01*
X-16990D01*
X-17089Y-13896D01*
X-16470Y-13640D01*
X-15408Y-12825D01*
X-15425Y-12809D01*
X-15424Y-12809D01*
X-14994Y-12378D01*
X-14823Y-12264D01*
X-11399Y-8840D01*
X-11151Y-8469D01*
X-11064Y-8031D01*
X-11151Y-7593D01*
X-11399Y-7222D01*
X-11770Y-6974D01*
X-12003Y-6928D01*
X-12304Y-6735D01*
X-12496Y-6435D01*
X-12542Y-6201D01*
X-12790Y-5830D01*
X-13161Y-5582D01*
X-13395Y-5536D01*
X-13695Y-5344D01*
X-13888Y-5043D01*
X-13935Y-4809D01*
X-14183Y-4438D01*
X-14286Y-4369D01*
X-14280Y-4129D01*
X-14187Y-3834D01*
X-13622Y-3599D01*
X-13123Y-3101D01*
X-12854Y-2450D01*
Y-1745D01*
X-13123Y-1094D01*
X-13622Y-596D01*
X-14273Y-326D01*
X-14977D01*
X-15629Y-596D01*
X-16127Y-1094D01*
X-16361Y-1660D01*
X-16656Y-1752D01*
X-16897Y-1759D01*
X-16966Y-1654D01*
X-17338Y-1406D01*
X-17775Y-1319D01*
X-18213Y-1406D01*
X-18584Y-1654D01*
X-19475Y-2545D01*
X-19550Y-2491D01*
X-19647Y-2410D01*
X-19770Y-2293D01*
X-19832Y-2269D01*
X-25148Y3046D01*
X-25145Y3049D01*
X-25605Y3648D01*
X-25894Y4345D01*
X-25992Y5094D01*
X-25996D01*
Y8818D01*
X-25496Y8918D01*
X-25440Y8782D01*
X-24625Y7720D01*
X-24609Y7736D01*
X-24609Y7736D01*
X-22122Y5249D01*
X-22008Y5078D01*
X-18584Y1654D01*
X-18213Y1406D01*
X-17775Y1319D01*
X-17337Y1406D01*
X-16966Y1654D01*
X-16718Y2025D01*
X-16671Y2259D01*
X-16479Y2560D01*
X-16179Y2752D01*
X-15945Y2799D01*
X-15573Y3047D01*
X-15325Y3418D01*
X-15279Y3650D01*
X-15087Y3952D01*
X-14786Y4144D01*
X-14553Y4190D01*
X-14182Y4438D01*
X-13934Y4809D01*
X-13847Y5247D01*
X-13934Y5685D01*
X-14182Y6056D01*
X-17606Y9480D01*
X-17777Y9594D01*
X-18748Y10565D01*
X-18745Y10568D01*
X-19044Y10957D01*
X-19027Y11167D01*
X-18502Y11461D01*
X-18134Y11309D01*
X-17429D01*
X-17309Y11359D01*
X-17222Y11349D01*
X-17151Y11370D01*
X-17118Y11375D01*
X-17094Y11377D01*
X-17075Y11376D01*
X-17058Y11373D01*
X-17041Y11367D01*
X-17018Y11357D01*
X-16990Y11340D01*
X-16963Y11320D01*
X-16834Y11178D01*
X-16740Y11062D01*
X-16721Y11035D01*
X-16715Y11025D01*
X-16706Y11007D01*
X-16701Y11003D01*
X-16699Y10999D01*
X-16688Y10992D01*
X-16647Y10956D01*
X-16621Y10916D01*
X-16573Y10800D01*
X-16532Y10784D01*
X-16440Y10646D01*
X-13016Y7222D01*
X-12645Y6974D01*
X-12207Y6887D01*
X-11769Y6974D01*
X-11398Y7222D01*
X-11150Y7593D01*
X-11104Y7827D01*
X-10911Y8128D01*
X-10611Y8320D01*
X-10377Y8366D01*
X-10006Y8614D01*
X-9937Y8717D01*
X-9698Y8711D01*
X-9402Y8618D01*
X-9168Y8053D01*
X-8669Y7555D01*
X-8018Y7285D01*
X-7313D01*
X-6662Y7555D01*
X-6164Y8053D01*
X-5894Y8704D01*
Y9409D01*
X-6164Y10061D01*
X-6662Y10559D01*
X-7228Y10793D01*
X-7320Y11089D01*
X-7326Y11329D01*
X-7222Y11398D01*
X-6974Y11769D01*
X-6928Y12002D01*
X-6736Y12303D01*
X-6434Y12495D01*
X-6202Y12541D01*
X-5831Y12789D01*
X-5583Y13161D01*
X-5536Y13395D01*
X-5344Y13695D01*
X-5043Y13888D01*
X-4809Y13934D01*
X-4438Y14182D01*
X-4190Y14553D01*
X-4144Y14786D01*
X-3952Y15087D01*
X-3650Y15279D01*
X-3418Y15325D01*
X-3047Y15573D01*
X-2799Y15945D01*
X-2752Y16179D01*
X-2560Y16479D01*
X-2259Y16671D01*
X-2025Y16718D01*
X-1654Y16966D01*
X-1406Y17337D01*
X-1319Y17775D01*
X-1406Y18213D01*
X-1654Y18584D01*
X-1943Y18873D01*
X-1845Y19363D01*
X-1757Y19399D01*
X-1259Y19898D01*
X-989Y20549D01*
Y21254D01*
X-1259Y21905D01*
X-1757Y22403D01*
X-2409Y22673D01*
X-3113D01*
X-3765Y22403D01*
X-4263Y21905D01*
X-4642Y22047D01*
X-4622Y22612D01*
X-4297Y22936D01*
X-4027Y23587D01*
Y24292D01*
X-4297Y24943D01*
X-4795Y25441D01*
X-5447Y25711D01*
X-6151D01*
X-6803Y25441D01*
X-7301Y24943D01*
X-7571Y24292D01*
Y24052D01*
X-7619Y23943D01*
X-7621Y23846D01*
X-7628Y23777D01*
X-7638Y23714D01*
X-7653Y23658D01*
X-7670Y23606D01*
X-7691Y23558D01*
X-7716Y23512D01*
X-7745Y23468D01*
X-7779Y23425D01*
X-7835Y23363D01*
X-7859Y23299D01*
X-8255Y22903D01*
X-8276Y22924D01*
X-8359Y22799D01*
X-8879Y22920D01*
X-8913Y23175D01*
X-9203Y23875D01*
X-9512Y24278D01*
X-8771Y25020D01*
X-8562Y25332D01*
X-8489Y25701D01*
X-8505Y25783D01*
X-8496Y25804D01*
X-8521Y25863D01*
X-8562Y26070D01*
X-8423Y26469D01*
X-8023Y26608D01*
X-7816Y26567D01*
X-7758Y26543D01*
X-7737Y26551D01*
X-7655Y26535D01*
X-7286Y26608D01*
X-6973Y26817D01*
X-4787Y29003D01*
X-4579Y29315D01*
X-4505Y29684D01*
X-4579Y30053D01*
X-4787Y30365D01*
X-6792Y32370D01*
X-7104Y32579D01*
X-7473Y32652D01*
X-7842Y32579D01*
X-8154Y32370D01*
X-10340Y30184D01*
X-10549Y29871D01*
X-10622Y29503D01*
X-10606Y29420D01*
X-10615Y29400D01*
X-10590Y29341D01*
X-10549Y29134D01*
X-10688Y28734D01*
X-11088Y28595D01*
X-11295Y28637D01*
X-11353Y28661D01*
X-11374Y28652D01*
X-11456Y28669D01*
X-11825Y28595D01*
X-12138Y28387D01*
X-14323Y26201D01*
X-14532Y25888D01*
X-14606Y25519D01*
X-14532Y25151D01*
X-14323Y24838D01*
X-12319Y22834D01*
X-12080Y22674D01*
X-12007Y22625D01*
X-12006Y22625D01*
X-11661Y22478D01*
X-11639Y22423D01*
X-11717Y21956D01*
X-11718Y21954D01*
X-11988Y21303D01*
Y21215D01*
X-12488Y21008D01*
X-12977Y21497D01*
X-12976Y21497D01*
X-12997Y21513D01*
X-13017Y21615D01*
X-13226Y21927D01*
X-15230Y23932D01*
X-15542Y24140D01*
X-15911Y24214D01*
X-16280Y24140D01*
X-16592Y23932D01*
X-18778Y21746D01*
X-18987Y21433D01*
X-19060Y21065D01*
X-18987Y20696D01*
X-18778Y20383D01*
X-16937Y18542D01*
X-17144Y18042D01*
X-17490D01*
X-18141Y17773D01*
X-18639Y17274D01*
X-18909Y16623D01*
Y15918D01*
X-18639Y15267D01*
X-18516Y15144D01*
X-18614Y14654D01*
X-18785Y14583D01*
X-19096Y14272D01*
X-19596Y14479D01*
Y43847D01*
X-19573D01*
X-19748Y45174D01*
X-20260Y46410D01*
X-21075Y47472D01*
X-21091Y47456D01*
X-21091Y47456D01*
X-29160Y55524D01*
X-29166Y55554D01*
X-29208Y55581D01*
X-29225Y55628D01*
X-29584Y56013D01*
X-29700Y56157D01*
X-29774Y56262D01*
Y56506D01*
X-29764Y56525D01*
X-29774Y56557D01*
Y56597D01*
X-29763Y56631D01*
X-29774Y56653D01*
Y58504D01*
X-29847Y58873D01*
X-30056Y59185D01*
X-30369Y59394D01*
X-30737Y59467D01*
D02*
G37*
G36*
X-46778Y40630D02*
X-47711D01*
X-48612Y40388D01*
X-49420Y39922D01*
X-50080Y39262D01*
X-50546Y38454D01*
X-50787Y37553D01*
Y36620D01*
X-50546Y35719D01*
X-50080Y34911D01*
X-49420Y34251D01*
X-48612Y33785D01*
X-47711Y33543D01*
X-46778D01*
X-45877Y33785D01*
X-45068Y34251D01*
X-44808Y34512D01*
X-44699Y34553D01*
X-44540Y34702D01*
X-44392Y34817D01*
X-44234Y34920D01*
X-44065Y35009D01*
X-43885Y35085D01*
X-43691Y35149D01*
X-43482Y35199D01*
X-43259Y35236D01*
X-43020Y35258D01*
X-42798Y35265D01*
X-42093Y35248D01*
X-41499Y35194D01*
X-41277Y35157D01*
X-41097Y35115D01*
X-40968Y35073D01*
X-40896Y35040D01*
X-40883Y35030D01*
X-40850Y34995D01*
X-40834Y34987D01*
X-40828Y34971D01*
X-40712Y34923D01*
X-40497Y34779D01*
X-40129Y34706D01*
X-37037D01*
X-36669Y34779D01*
X-36356Y34988D01*
X-36147Y35301D01*
X-36074Y35669D01*
Y38504D01*
X-36147Y38873D01*
X-36356Y39185D01*
X-36669Y39394D01*
X-37037Y39467D01*
X-40129D01*
X-40497Y39394D01*
X-40712Y39251D01*
X-40828Y39203D01*
X-40834Y39186D01*
X-40850Y39179D01*
X-40883Y39143D01*
X-40896Y39134D01*
X-40968Y39100D01*
X-41097Y39058D01*
X-41278Y39016D01*
X-41492Y38980D01*
X-42456Y38912D01*
X-42781Y38908D01*
X-43020Y38915D01*
X-43259Y38937D01*
X-43482Y38974D01*
X-43691Y39025D01*
X-43885Y39088D01*
X-44065Y39165D01*
X-44234Y39254D01*
X-44392Y39356D01*
X-44539Y39471D01*
X-44699Y39620D01*
X-44808Y39661D01*
X-45068Y39922D01*
X-45877Y40388D01*
X-46778Y40630D01*
D02*
G37*
G36*
X47711Y30630D02*
X46778D01*
X45876Y30389D01*
X45068Y29922D01*
X44808Y29661D01*
X44699Y29620D01*
X44539Y29471D01*
X44392Y29356D01*
X44234Y29254D01*
X44065Y29165D01*
X43885Y29088D01*
X43691Y29025D01*
X43482Y28974D01*
X43259Y28938D01*
X43020Y28915D01*
X42798Y28908D01*
X42093Y28925D01*
X41498Y28980D01*
X41277Y29016D01*
X41097Y29058D01*
X40968Y29100D01*
X40896Y29134D01*
X40883Y29143D01*
X40850Y29179D01*
X40834Y29186D01*
X40828Y29203D01*
X40712Y29250D01*
X40497Y29394D01*
X40129Y29467D01*
X37037D01*
X36669Y29394D01*
X36356Y29185D01*
X36147Y28872D01*
X36074Y28504D01*
Y25669D01*
X36147Y25300D01*
X36356Y24988D01*
X36669Y24779D01*
X37037Y24706D01*
X40129D01*
X40497Y24779D01*
X40712Y24923D01*
X40828Y24970D01*
X40834Y24987D01*
X40850Y24994D01*
X40883Y25030D01*
X40896Y25040D01*
X40968Y25073D01*
X41097Y25115D01*
X41278Y25157D01*
X41492Y25193D01*
X42456Y25262D01*
X42781Y25266D01*
X43020Y25258D01*
X43259Y25236D01*
X43482Y25199D01*
X43691Y25148D01*
X43885Y25085D01*
X44065Y25008D01*
X44234Y24919D01*
X44392Y24817D01*
X44539Y24702D01*
X44699Y24553D01*
X44808Y24512D01*
X45068Y24251D01*
X45876Y23785D01*
X46778Y23543D01*
X47711D01*
X48612Y23785D01*
X49420Y24251D01*
X50079Y24911D01*
X50546Y25719D01*
X50787Y26620D01*
Y27553D01*
X50546Y28454D01*
X50079Y29262D01*
X49420Y29922D01*
X48612Y30389D01*
X47711Y30630D01*
D02*
G37*
G36*
X-46778D02*
X-47711D01*
X-48612Y30389D01*
X-49420Y29922D01*
X-50080Y29262D01*
X-50546Y28454D01*
X-50787Y27553D01*
Y26620D01*
X-50546Y25719D01*
X-50080Y24911D01*
X-49420Y24251D01*
X-48612Y23785D01*
X-47711Y23543D01*
X-46778D01*
X-45876Y23785D01*
X-45068Y24251D01*
X-44808Y24512D01*
X-44699Y24553D01*
X-44540Y24702D01*
X-44392Y24817D01*
X-44234Y24919D01*
X-44065Y25008D01*
X-43885Y25085D01*
X-43691Y25148D01*
X-43482Y25199D01*
X-43259Y25236D01*
X-43020Y25258D01*
X-42798Y25265D01*
X-42093Y25248D01*
X-41498Y25194D01*
X-41278Y25157D01*
X-41097Y25115D01*
X-40968Y25073D01*
X-40896Y25040D01*
X-40883Y25030D01*
X-40850Y24994D01*
X-40834Y24987D01*
X-40828Y24971D01*
X-40712Y24923D01*
X-40497Y24779D01*
X-40129Y24706D01*
X-37037D01*
X-36669Y24779D01*
X-36356Y24988D01*
X-36147Y25301D01*
X-36074Y25669D01*
Y28504D01*
X-36147Y28873D01*
X-36356Y29185D01*
X-36669Y29394D01*
X-37037Y29467D01*
X-40129D01*
X-40497Y29394D01*
X-40712Y29251D01*
X-40828Y29203D01*
X-40834Y29186D01*
X-40850Y29179D01*
X-40883Y29143D01*
X-40896Y29134D01*
X-40968Y29100D01*
X-41097Y29058D01*
X-41278Y29016D01*
X-41492Y28980D01*
X-42456Y28912D01*
X-42781Y28908D01*
X-43020Y28915D01*
X-43259Y28938D01*
X-43482Y28974D01*
X-43691Y29025D01*
X-43885Y29088D01*
X-44065Y29165D01*
X-44234Y29254D01*
X-44392Y29356D01*
X-44539Y29471D01*
X-44699Y29620D01*
X-44808Y29661D01*
X-45068Y29922D01*
X-45876Y30389D01*
X-46778Y30630D01*
D02*
G37*
G36*
X47711Y20630D02*
X46778D01*
X45876Y20388D01*
X45068Y19922D01*
X44808Y19661D01*
X44699Y19620D01*
X44539Y19471D01*
X44392Y19356D01*
X44234Y19254D01*
X44065Y19165D01*
X43885Y19088D01*
X43691Y19025D01*
X43482Y18974D01*
X43259Y18937D01*
X43020Y18915D01*
X42798Y18908D01*
X42093Y18925D01*
X41498Y18980D01*
X41277Y19016D01*
X41097Y19058D01*
X40968Y19100D01*
X40896Y19133D01*
X40883Y19143D01*
X40850Y19179D01*
X40834Y19186D01*
X40828Y19203D01*
X40712Y19251D01*
X40497Y19394D01*
X40129Y19467D01*
X37037D01*
X36669Y19394D01*
X36356Y19185D01*
X36147Y18872D01*
X36074Y18504D01*
Y15669D01*
X36147Y15301D01*
X36356Y14988D01*
X36669Y14779D01*
X37037Y14706D01*
X40129D01*
X40497Y14779D01*
X40712Y14923D01*
X40828Y14970D01*
X40834Y14987D01*
X40850Y14994D01*
X40883Y15031D01*
X40896Y15040D01*
X40968Y15073D01*
X41097Y15115D01*
X41278Y15157D01*
X41492Y15193D01*
X42456Y15262D01*
X42781Y15266D01*
X43020Y15258D01*
X43259Y15236D01*
X43482Y15199D01*
X43691Y15148D01*
X43885Y15085D01*
X44065Y15009D01*
X44234Y14920D01*
X44392Y14817D01*
X44539Y14702D01*
X44699Y14553D01*
X44808Y14512D01*
X45068Y14251D01*
X45876Y13785D01*
X46778Y13543D01*
X47711D01*
X48612Y13785D01*
X49420Y14251D01*
X50079Y14911D01*
X50546Y15719D01*
X50787Y16620D01*
Y17553D01*
X50546Y18454D01*
X50079Y19262D01*
X49420Y19922D01*
X48612Y20388D01*
X47711Y20630D01*
D02*
G37*
G36*
X3114Y22673D02*
X2409D01*
X1758Y22404D01*
X1259Y21905D01*
X990Y21254D01*
Y20549D01*
X1259Y19898D01*
X1758Y19400D01*
X1846Y19363D01*
X1944Y18873D01*
X1654Y18584D01*
X1407Y18213D01*
X1319Y17775D01*
X1407Y17337D01*
X1654Y16966D01*
X2026Y16718D01*
X2463Y16631D01*
X2901Y16718D01*
X3272Y16966D01*
X6697Y20390D01*
X6945Y20761D01*
X7032Y21199D01*
X6945Y21637D01*
X6697Y22008D01*
X6325Y22256D01*
X5888Y22343D01*
X5450Y22256D01*
X5079Y22008D01*
X4790Y21719D01*
X4300Y21817D01*
X4263Y21905D01*
X3765Y22404D01*
X3114Y22673D01*
D02*
G37*
G36*
X-46778Y20630D02*
X-47711D01*
X-48612Y20389D01*
X-49420Y19922D01*
X-50080Y19262D01*
X-50546Y18454D01*
X-50787Y17553D01*
Y16620D01*
X-50546Y15719D01*
X-50080Y14911D01*
X-49420Y14251D01*
X-48612Y13785D01*
X-47711Y13543D01*
X-46778D01*
X-45877Y13785D01*
X-45068Y14251D01*
X-44808Y14512D01*
X-44699Y14553D01*
X-44540Y14702D01*
X-44392Y14818D01*
X-44234Y14920D01*
X-44065Y15009D01*
X-43885Y15085D01*
X-43691Y15148D01*
X-43482Y15199D01*
X-43259Y15236D01*
X-43020Y15258D01*
X-42798Y15265D01*
X-42093Y15248D01*
X-41498Y15194D01*
X-41278Y15157D01*
X-41097Y15115D01*
X-40968Y15073D01*
X-40896Y15040D01*
X-40883Y15031D01*
X-40850Y14995D01*
X-40834Y14987D01*
X-40828Y14970D01*
X-40712Y14923D01*
X-40497Y14779D01*
X-40129Y14706D01*
X-37037D01*
X-36669Y14779D01*
X-36356Y14988D01*
X-36147Y15301D01*
X-36074Y15669D01*
Y18504D01*
X-36147Y18873D01*
X-36356Y19185D01*
X-36669Y19394D01*
X-37037Y19467D01*
X-40129D01*
X-40497Y19394D01*
X-40712Y19251D01*
X-40828Y19203D01*
X-40834Y19186D01*
X-40850Y19179D01*
X-40883Y19143D01*
X-40896Y19134D01*
X-40968Y19100D01*
X-41097Y19058D01*
X-41277Y19016D01*
X-41492Y18981D01*
X-42456Y18912D01*
X-42781Y18908D01*
X-43020Y18915D01*
X-43259Y18937D01*
X-43482Y18974D01*
X-43691Y19025D01*
X-43885Y19088D01*
X-44065Y19165D01*
X-44234Y19254D01*
X-44392Y19356D01*
X-44539Y19471D01*
X-44699Y19620D01*
X-44808Y19661D01*
X-45068Y19922D01*
X-45877Y20389D01*
X-46778Y20630D01*
D02*
G37*
G36*
X-3018Y37107D02*
X-3387Y37033D01*
X-3700Y36825D01*
X-5886Y34639D01*
X-6094Y34326D01*
X-6168Y33957D01*
X-6094Y33589D01*
X-5886Y33276D01*
X-3881Y31272D01*
X-3569Y31063D01*
X-3200Y30990D01*
X-2831Y31063D01*
X-2519Y31272D01*
X-1088Y32702D01*
X-1069Y32708D01*
X-1053Y32738D01*
X-1021Y32769D01*
X-990Y32785D01*
X-982Y32809D01*
X-926Y32864D01*
X-918Y32865D01*
X-766Y32858D01*
X-295Y32796D01*
X-41Y32747D01*
X428Y32553D01*
X1027Y32093D01*
X1029Y32096D01*
X5777Y27348D01*
X5801Y27286D01*
X5924Y27156D01*
X6012Y27053D01*
X6073Y26969D01*
X6099Y26925D01*
X6024Y26813D01*
X5918Y26280D01*
X6024Y25747D01*
X6326Y25296D01*
X7696Y23926D01*
X7711Y23893D01*
X7737Y23884D01*
X7917Y23705D01*
X7936Y23692D01*
X7943Y23651D01*
X7978Y23233D01*
X7982Y22972D01*
X8010Y22909D01*
Y19478D01*
X8010Y19476D01*
X7922Y19264D01*
X7863Y19224D01*
X4438Y15800D01*
X4190Y15429D01*
X4103Y14991D01*
X4190Y14553D01*
X4438Y14182D01*
X4809Y13934D01*
X5247Y13847D01*
X5685Y13934D01*
X6056Y14182D01*
X9480Y17606D01*
X9728Y17977D01*
X9732Y17997D01*
X9870Y18176D01*
X10130Y18804D01*
X10219Y19478D01*
X10217D01*
Y23234D01*
X10245Y23297D01*
X10249Y23547D01*
X10262Y23754D01*
X10282Y23929D01*
X10307Y24068D01*
X10328Y24147D01*
X10982Y24801D01*
X11284Y25252D01*
X11390Y25785D01*
X11284Y26318D01*
X10982Y26770D01*
X9391Y28361D01*
X8939Y28662D01*
X8406Y28769D01*
X7874Y28662D01*
X7762Y28587D01*
X7718Y28613D01*
X7633Y28675D01*
X7530Y28762D01*
X7401Y28885D01*
X7338Y28909D01*
X2591Y33657D01*
X2591Y33657D01*
X2607Y33673D01*
X1545Y34488D01*
X308Y35000D01*
X226Y35011D01*
X193Y35034D01*
X-103Y35100D01*
X-592Y35237D01*
X-766Y35300D01*
X-848Y35335D01*
X-1187Y35675D01*
X-1203Y35706D01*
X-1227Y35714D01*
X-2337Y36825D01*
X-2650Y37033D01*
X-3018Y37107D01*
D02*
G37*
G36*
X47711Y10630D02*
X46778D01*
X45876Y10389D01*
X45068Y9922D01*
X44808Y9661D01*
X44699Y9620D01*
X44539Y9471D01*
X44392Y9356D01*
X44234Y9254D01*
X44065Y9165D01*
X43885Y9088D01*
X43691Y9025D01*
X43482Y8974D01*
X43259Y8937D01*
X43020Y8915D01*
X42798Y8908D01*
X42093Y8925D01*
X41499Y8980D01*
X41277Y9016D01*
X41097Y9058D01*
X40968Y9100D01*
X40896Y9134D01*
X40883Y9143D01*
X40850Y9179D01*
X40834Y9186D01*
X40828Y9203D01*
X40712Y9251D01*
X40497Y9394D01*
X40129Y9467D01*
X37037D01*
X36669Y9394D01*
X36356Y9185D01*
X36147Y8873D01*
X36074Y8504D01*
Y5669D01*
X36147Y5300D01*
X36356Y4988D01*
X36669Y4779D01*
X37037Y4706D01*
X40129D01*
X40497Y4779D01*
X40712Y4923D01*
X40828Y4970D01*
X40834Y4987D01*
X40850Y4994D01*
X40883Y5031D01*
X40896Y5040D01*
X40968Y5073D01*
X41097Y5115D01*
X41278Y5157D01*
X41492Y5193D01*
X42456Y5262D01*
X42781Y5266D01*
X43020Y5258D01*
X43259Y5236D01*
X43482Y5199D01*
X43691Y5148D01*
X43885Y5085D01*
X44065Y5009D01*
X44234Y4919D01*
X44392Y4817D01*
X44539Y4702D01*
X44699Y4553D01*
X44808Y4512D01*
X45068Y4251D01*
X45876Y3785D01*
X46778Y3543D01*
X47711D01*
X48612Y3785D01*
X49420Y4251D01*
X50079Y4911D01*
X50546Y5719D01*
X50787Y6620D01*
Y7553D01*
X50546Y8454D01*
X50079Y9262D01*
X49420Y9922D01*
X48612Y10389D01*
X47711Y10630D01*
D02*
G37*
G36*
X-46778D02*
X-47711D01*
X-48612Y10389D01*
X-49420Y9922D01*
X-50080Y9262D01*
X-50546Y8454D01*
X-50787Y7553D01*
Y6620D01*
X-50546Y5719D01*
X-50080Y4911D01*
X-49420Y4251D01*
X-48612Y3785D01*
X-47711Y3543D01*
X-46778D01*
X-45877Y3785D01*
X-45068Y4251D01*
X-44808Y4512D01*
X-44699Y4553D01*
X-44540Y4702D01*
X-44392Y4817D01*
X-44234Y4919D01*
X-44065Y5009D01*
X-43885Y5085D01*
X-43691Y5148D01*
X-43482Y5199D01*
X-43259Y5236D01*
X-43020Y5258D01*
X-42798Y5265D01*
X-42093Y5248D01*
X-41498Y5194D01*
X-41278Y5157D01*
X-41097Y5115D01*
X-40968Y5073D01*
X-40896Y5040D01*
X-40883Y5031D01*
X-40850Y4995D01*
X-40834Y4987D01*
X-40828Y4970D01*
X-40712Y4923D01*
X-40497Y4779D01*
X-40129Y4706D01*
X-37037D01*
X-36669Y4779D01*
X-36356Y4988D01*
X-36147Y5301D01*
X-36074Y5669D01*
Y8504D01*
X-36147Y8873D01*
X-36356Y9185D01*
X-36669Y9394D01*
X-37037Y9467D01*
X-40129D01*
X-40497Y9394D01*
X-40712Y9251D01*
X-40828Y9203D01*
X-40834Y9186D01*
X-40850Y9179D01*
X-40883Y9143D01*
X-40896Y9134D01*
X-40968Y9100D01*
X-41097Y9058D01*
X-41277Y9016D01*
X-41492Y8980D01*
X-42456Y8912D01*
X-42781Y8908D01*
X-43020Y8915D01*
X-43259Y8937D01*
X-43482Y8974D01*
X-43691Y9025D01*
X-43885Y9088D01*
X-44065Y9165D01*
X-44234Y9254D01*
X-44392Y9356D01*
X-44539Y9471D01*
X-44699Y9620D01*
X-44808Y9661D01*
X-45068Y9922D01*
X-45877Y10389D01*
X-46778Y10630D01*
D02*
G37*
G36*
X33829Y9467D02*
X30737D01*
X30369Y9394D01*
X30056Y9185D01*
X29847Y8873D01*
X29774Y8504D01*
Y6653D01*
X29763Y6631D01*
X29774Y6597D01*
Y6557D01*
X29764Y6525D01*
X29774Y6505D01*
Y6262D01*
X29705Y6164D01*
X29421Y5830D01*
X29233Y5636D01*
X29212Y5584D01*
X29166Y5554D01*
X29159Y5524D01*
X20599Y-3036D01*
X20537Y-3060D01*
X20414Y-3177D01*
X20317Y-3258D01*
X20242Y-3312D01*
X18584Y-1654D01*
X18213Y-1406D01*
X17775Y-1319D01*
X17337Y-1406D01*
X16966Y-1654D01*
X16718Y-2025D01*
X16671Y-2259D01*
X16479Y-2560D01*
X16179Y-2752D01*
X15945Y-2799D01*
X15573Y-3047D01*
X15325Y-3418D01*
X15238Y-3856D01*
X15325Y-4293D01*
X15573Y-4665D01*
X17214Y-6305D01*
X17271Y-6391D01*
X18774Y-7893D01*
X18765Y-7902D01*
X18997Y-8089D01*
X19086Y-8148D01*
X19149Y-8196D01*
X19149Y-8196D01*
X19324Y-8330D01*
X19334Y-8341D01*
X19342Y-8344D01*
X19596Y-8539D01*
X20562Y-8939D01*
X20834Y-8975D01*
X21038Y-9040D01*
X21105Y-9035D01*
X21163Y-9067D01*
X21600Y-9076D01*
Y-9064D01*
X25640D01*
Y-9086D01*
X26982Y-8909D01*
X28233Y-8391D01*
X29307Y-7567D01*
X29291Y-7552D01*
X29291Y-7552D01*
X30893Y-5949D01*
X30952Y-5928D01*
X31363Y-5546D01*
X31520Y-5420D01*
X31658Y-5324D01*
X31710Y-5294D01*
X32095D01*
X32129Y-5305D01*
X32149Y-5294D01*
X33829D01*
X34197Y-5221D01*
X34510Y-5012D01*
X34719Y-4699D01*
X34792Y-4331D01*
Y-1496D01*
X34719Y-1127D01*
X34510Y-815D01*
X34197Y-606D01*
X33829Y-533D01*
X30737D01*
X30369Y-606D01*
X30056Y-815D01*
X29847Y-1127D01*
X29774Y-1496D01*
Y-3176D01*
X29763Y-3197D01*
X29774Y-3230D01*
Y-3269D01*
X29763Y-3302D01*
X29774Y-3323D01*
Y-3637D01*
X29681Y-3769D01*
X29360Y-4146D01*
X29149Y-4364D01*
X29131Y-4410D01*
X29089Y-4436D01*
X29082Y-4468D01*
X27645Y-5905D01*
X27643Y-5903D01*
X27056Y-6353D01*
X26373Y-6636D01*
X25640Y-6733D01*
Y-6736D01*
X22583D01*
X22447Y-6566D01*
X22274Y-6236D01*
X22343Y-5887D01*
X22256Y-5449D01*
X22008Y-5078D01*
X21884Y-4955D01*
X21938Y-4880D01*
X22019Y-4783D01*
X22136Y-4660D01*
X22160Y-4597D01*
X30891Y4133D01*
X30952Y4156D01*
X31316Y4494D01*
X31453Y4603D01*
X31571Y4686D01*
X31605Y4706D01*
X31935D01*
X31968Y4696D01*
X31987Y4706D01*
X33829D01*
X34197Y4779D01*
X34510Y4988D01*
X34719Y5300D01*
X34792Y5669D01*
Y8504D01*
X34719Y8873D01*
X34510Y9185D01*
X34197Y9394D01*
X33829Y9467D01*
D02*
G37*
G36*
X47711Y630D02*
X46778D01*
X45876Y388D01*
X45068Y-78D01*
X44808Y-339D01*
X44699Y-380D01*
X44539Y-528D01*
X44392Y-644D01*
X44234Y-746D01*
X44065Y-835D01*
X43885Y-912D01*
X43691Y-975D01*
X43482Y-1026D01*
X43259Y-1063D01*
X43020Y-1085D01*
X42798Y-1092D01*
X42093Y-1075D01*
X41499Y-1020D01*
X41277Y-984D01*
X41097Y-942D01*
X40968Y-900D01*
X40896Y-867D01*
X40883Y-857D01*
X40850Y-821D01*
X40834Y-814D01*
X40828Y-797D01*
X40712Y-750D01*
X40497Y-606D01*
X40129Y-533D01*
X37037D01*
X36669Y-606D01*
X36356Y-815D01*
X36147Y-1127D01*
X36074Y-1496D01*
Y-4331D01*
X36147Y-4699D01*
X36356Y-5012D01*
X36669Y-5221D01*
X37037Y-5294D01*
X40129D01*
X40497Y-5221D01*
X40712Y-5077D01*
X40828Y-5030D01*
X40834Y-5013D01*
X40850Y-5006D01*
X40883Y-4970D01*
X40896Y-4960D01*
X40968Y-4927D01*
X41097Y-4885D01*
X41277Y-4843D01*
X41492Y-4807D01*
X42456Y-4738D01*
X42781Y-4734D01*
X43020Y-4742D01*
X43259Y-4764D01*
X43482Y-4801D01*
X43691Y-4851D01*
X43885Y-4915D01*
X44065Y-4992D01*
X44234Y-5080D01*
X44392Y-5183D01*
X44539Y-5298D01*
X44699Y-5447D01*
X44808Y-5488D01*
X45068Y-5749D01*
X45876Y-6215D01*
X46778Y-6457D01*
X47711D01*
X48612Y-6215D01*
X49420Y-5749D01*
X50079Y-5089D01*
X50546Y-4281D01*
X50787Y-3380D01*
Y-2447D01*
X50546Y-1546D01*
X50079Y-738D01*
X49420Y-78D01*
X48612Y388D01*
X47711Y630D01*
D02*
G37*
G36*
X-46778D02*
X-47711D01*
X-48612Y388D01*
X-49420Y-78D01*
X-50080Y-738D01*
X-50546Y-1546D01*
X-50787Y-2447D01*
Y-3380D01*
X-50546Y-4281D01*
X-50080Y-5089D01*
X-49420Y-5749D01*
X-48612Y-6215D01*
X-47711Y-6457D01*
X-46778D01*
X-45877Y-6215D01*
X-45068Y-5749D01*
X-44808Y-5488D01*
X-44699Y-5447D01*
X-44540Y-5298D01*
X-44392Y-5183D01*
X-44234Y-5080D01*
X-44065Y-4991D01*
X-43885Y-4915D01*
X-43691Y-4851D01*
X-43482Y-4801D01*
X-43259Y-4764D01*
X-43020Y-4742D01*
X-42798Y-4735D01*
X-42093Y-4752D01*
X-41499Y-4806D01*
X-41277Y-4843D01*
X-41097Y-4885D01*
X-40968Y-4927D01*
X-40896Y-4960D01*
X-40883Y-4969D01*
X-40850Y-5006D01*
X-40834Y-5013D01*
X-40828Y-5029D01*
X-40712Y-5077D01*
X-40497Y-5221D01*
X-40129Y-5294D01*
X-37037D01*
X-36669Y-5221D01*
X-36356Y-5012D01*
X-36147Y-4699D01*
X-36074Y-4331D01*
Y-1496D01*
X-36147Y-1127D01*
X-36356Y-815D01*
X-36669Y-606D01*
X-37037Y-533D01*
X-40129D01*
X-40497Y-606D01*
X-40712Y-749D01*
X-40828Y-797D01*
X-40834Y-814D01*
X-40850Y-821D01*
X-40883Y-857D01*
X-40896Y-866D01*
X-40968Y-900D01*
X-41097Y-942D01*
X-41278Y-984D01*
X-41492Y-1020D01*
X-42456Y-1089D01*
X-42781Y-1092D01*
X-43020Y-1085D01*
X-43259Y-1063D01*
X-43482Y-1026D01*
X-43691Y-975D01*
X-43885Y-912D01*
X-44065Y-835D01*
X-44234Y-746D01*
X-44392Y-644D01*
X-44539Y-529D01*
X-44699Y-380D01*
X-44808Y-339D01*
X-45068Y-78D01*
X-45877Y388D01*
X-46778Y630D01*
D02*
G37*
G36*
X13599Y-5495D02*
X13161Y-5583D01*
X12789Y-5831D01*
X12541Y-6202D01*
X12495Y-6434D01*
X12303Y-6736D01*
X12002Y-6928D01*
X11769Y-6974D01*
X11398Y-7222D01*
X11329Y-7326D01*
X11089Y-7320D01*
X10793Y-7228D01*
X10559Y-6662D01*
X10061Y-6164D01*
X9409Y-5894D01*
X8704D01*
X8053Y-6164D01*
X7555Y-6662D01*
X7285Y-7313D01*
Y-8018D01*
X7555Y-8669D01*
X8053Y-9168D01*
X8618Y-9402D01*
X8711Y-9698D01*
X8717Y-9937D01*
X8614Y-10006D01*
X8366Y-10377D01*
X8320Y-10611D01*
X8128Y-10911D01*
X7827Y-11104D01*
X7593Y-11150D01*
X7222Y-11398D01*
X6974Y-11769D01*
X6928Y-12002D01*
X6736Y-12303D01*
X6434Y-12495D01*
X6202Y-12541D01*
X5831Y-12789D01*
X5583Y-13161D01*
X5536Y-13395D01*
X5344Y-13695D01*
X5043Y-13888D01*
X4809Y-13934D01*
X4438Y-14182D01*
X4190Y-14553D01*
X4144Y-14786D01*
X3952Y-15087D01*
X3650Y-15279D01*
X3418Y-15325D01*
X3047Y-15573D01*
X2799Y-15945D01*
X2712Y-16382D01*
X2799Y-16820D01*
X3047Y-17191D01*
X4688Y-18832D01*
X4745Y-18918D01*
X20105Y-34278D01*
X20103Y-34281D01*
X20553Y-34867D01*
X20836Y-35550D01*
X20933Y-36283D01*
X20936D01*
Y-44743D01*
X20914D01*
X21091Y-46085D01*
X21609Y-47336D01*
X22433Y-48410D01*
X22433Y-48410D01*
X22802Y-48748D01*
X24805Y-50752D01*
X24803Y-50754D01*
X25253Y-51341D01*
X25536Y-52024D01*
X25633Y-52757D01*
X25636D01*
Y-61544D01*
X25614D01*
X25791Y-62887D01*
X26309Y-64137D01*
X27133Y-65211D01*
X27148Y-65196D01*
X27149Y-65196D01*
X30756Y-68804D01*
X30754Y-68806D01*
X31204Y-69393D01*
X31469Y-70033D01*
X31349Y-70369D01*
X31205Y-70533D01*
X30837Y-70606D01*
X30524Y-70815D01*
X30315Y-71127D01*
X30242Y-71496D01*
Y-74331D01*
X30315Y-74699D01*
X30524Y-75012D01*
X30837Y-75221D01*
X31205Y-75294D01*
X34297D01*
X34666Y-75221D01*
X34978Y-75012D01*
X35187Y-74699D01*
X35260Y-74331D01*
Y-71496D01*
X35187Y-71127D01*
X34978Y-70815D01*
X34666Y-70606D01*
X34297Y-70533D01*
X33901D01*
X33761Y-69467D01*
X33242Y-68216D01*
X32418Y-67142D01*
X32403Y-67158D01*
X32403Y-67158D01*
X31010Y-65765D01*
X31166Y-65388D01*
X31246Y-65294D01*
X34297D01*
X34666Y-65221D01*
X34978Y-65012D01*
X35187Y-64699D01*
X35260Y-64331D01*
Y-61496D01*
X35187Y-61127D01*
X34978Y-60815D01*
X34666Y-60606D01*
X34297Y-60533D01*
X32617D01*
X32597Y-60522D01*
X32563Y-60533D01*
X32178D01*
X32126Y-60503D01*
X31995Y-60412D01*
X31635Y-60107D01*
X31429Y-59908D01*
X31368Y-59884D01*
X30695Y-59211D01*
X30697Y-59208D01*
X30247Y-58622D01*
X29964Y-57938D01*
X29868Y-57205D01*
X29864D01*
Y-55485D01*
X30364Y-55218D01*
X30369Y-55221D01*
X30737Y-55294D01*
X33829D01*
X34197Y-55221D01*
X34510Y-55012D01*
X34719Y-54699D01*
X34792Y-54331D01*
Y-51496D01*
X34719Y-51127D01*
X34510Y-50815D01*
X34197Y-50606D01*
X33829Y-50533D01*
X33474D01*
X33473Y-50433D01*
X33466Y-50415D01*
X33292Y-49098D01*
X32774Y-47847D01*
X31950Y-46773D01*
X31935Y-46788D01*
X30940Y-45794D01*
X31148Y-45294D01*
X33829D01*
X34197Y-45221D01*
X34510Y-45012D01*
X34719Y-44699D01*
X34792Y-44331D01*
Y-41496D01*
X34719Y-41127D01*
X34510Y-40815D01*
X34197Y-40606D01*
X33829Y-40533D01*
X32149D01*
X32129Y-40522D01*
X32095Y-40533D01*
X31710D01*
X31658Y-40503D01*
X31527Y-40412D01*
X31167Y-40107D01*
X30961Y-39908D01*
X30900Y-39884D01*
X30395Y-39379D01*
X30397Y-39376D01*
X29947Y-38790D01*
X29664Y-38107D01*
X29568Y-37374D01*
X29564D01*
Y-35175D01*
X30056Y-35012D01*
X30369Y-35221D01*
X30737Y-35294D01*
X33829D01*
X34197Y-35221D01*
X34510Y-35012D01*
X34719Y-34699D01*
X34792Y-34331D01*
Y-31496D01*
X34719Y-31128D01*
X34510Y-30815D01*
X34197Y-30606D01*
X33829Y-30533D01*
X30896D01*
X30870Y-30515D01*
X30477Y-30178D01*
X30244Y-29952D01*
X30183Y-29928D01*
X14638Y-14383D01*
X14791Y-13828D01*
X15048Y-13656D01*
X15221Y-13398D01*
X15775Y-13245D01*
X25095Y-22565D01*
X25095Y-22565D01*
X25080Y-22581D01*
X26154Y-23405D01*
X27404Y-23923D01*
X28747Y-24100D01*
Y-24078D01*
X29211D01*
X29269Y-24104D01*
X29462Y-24109D01*
X29607Y-24121D01*
X29720Y-24140D01*
X29774Y-24154D01*
Y-24331D01*
X29847Y-24699D01*
X30056Y-25012D01*
X30369Y-25221D01*
X30737Y-25294D01*
X33829D01*
X34197Y-25221D01*
X34510Y-25012D01*
X34719Y-24699D01*
X34792Y-24331D01*
Y-21496D01*
X34719Y-21127D01*
X34510Y-20815D01*
X34197Y-20606D01*
X33829Y-20533D01*
X30737D01*
X30369Y-20606D01*
X30056Y-20815D01*
X29847Y-21127D01*
X29774Y-21496D01*
Y-21673D01*
X29720Y-21687D01*
X29607Y-21705D01*
X29462Y-21718D01*
X29269Y-21723D01*
X29211Y-21749D01*
X28747D01*
Y-21746D01*
X28014Y-21649D01*
X27330Y-21366D01*
X26744Y-20916D01*
X26741Y-20919D01*
X20259Y-14437D01*
X20493Y-13963D01*
X21529Y-14100D01*
Y-14078D01*
X29211D01*
X29269Y-14104D01*
X29462Y-14109D01*
X29607Y-14121D01*
X29720Y-14140D01*
X29774Y-14154D01*
Y-14331D01*
X29847Y-14699D01*
X30056Y-15012D01*
X30369Y-15221D01*
X30737Y-15294D01*
X33829D01*
X34197Y-15221D01*
X34510Y-15012D01*
X34719Y-14699D01*
X34792Y-14331D01*
Y-11496D01*
X34719Y-11128D01*
X34510Y-10815D01*
X34197Y-10606D01*
X33829Y-10533D01*
X30737D01*
X30369Y-10606D01*
X30056Y-10815D01*
X29847Y-11128D01*
X29774Y-11496D01*
Y-11673D01*
X29720Y-11687D01*
X29607Y-11706D01*
X29462Y-11718D01*
X29269Y-11723D01*
X29211Y-11749D01*
X21529D01*
Y-11746D01*
X20796Y-11649D01*
X20113Y-11366D01*
X19526Y-10916D01*
X19524Y-10919D01*
X16134Y-7529D01*
X16048Y-7471D01*
X14407Y-5831D01*
X14036Y-5583D01*
X13599Y-5495D01*
D02*
G37*
G36*
X47711Y-9370D02*
X46778D01*
X45876Y-9612D01*
X45068Y-10078D01*
X44808Y-10339D01*
X44699Y-10380D01*
X44539Y-10528D01*
X44392Y-10644D01*
X44234Y-10746D01*
X44065Y-10835D01*
X43885Y-10912D01*
X43691Y-10975D01*
X43482Y-11026D01*
X43259Y-11063D01*
X43020Y-11085D01*
X42798Y-11092D01*
X42093Y-11074D01*
X41498Y-11021D01*
X41277Y-10984D01*
X41097Y-10942D01*
X40968Y-10900D01*
X40896Y-10866D01*
X40883Y-10857D01*
X40850Y-10821D01*
X40834Y-10814D01*
X40828Y-10797D01*
X40712Y-10750D01*
X40497Y-10606D01*
X40129Y-10533D01*
X37037D01*
X36669Y-10606D01*
X36356Y-10815D01*
X36147Y-11128D01*
X36074Y-11496D01*
Y-14331D01*
X36147Y-14699D01*
X36356Y-15012D01*
X36669Y-15221D01*
X37037Y-15294D01*
X40129D01*
X40497Y-15221D01*
X40712Y-15077D01*
X40828Y-15030D01*
X40834Y-15013D01*
X40850Y-15006D01*
X40883Y-14969D01*
X40896Y-14960D01*
X40968Y-14927D01*
X41097Y-14885D01*
X41278Y-14843D01*
X41492Y-14807D01*
X42456Y-14738D01*
X42781Y-14734D01*
X43020Y-14742D01*
X43259Y-14764D01*
X43482Y-14801D01*
X43691Y-14852D01*
X43885Y-14915D01*
X44065Y-14991D01*
X44234Y-15080D01*
X44392Y-15183D01*
X44539Y-15298D01*
X44699Y-15447D01*
X44808Y-15488D01*
X45068Y-15749D01*
X45876Y-16215D01*
X46778Y-16457D01*
X47711D01*
X48612Y-16215D01*
X49420Y-15749D01*
X50079Y-15089D01*
X50546Y-14281D01*
X50787Y-13380D01*
Y-12447D01*
X50546Y-11546D01*
X50079Y-10738D01*
X49420Y-10078D01*
X48612Y-9612D01*
X47711Y-9370D01*
D02*
G37*
G36*
X-46778Y-9370D02*
X-47711D01*
X-48612Y-9612D01*
X-49420Y-10078D01*
X-50080Y-10738D01*
X-50546Y-11546D01*
X-50787Y-12447D01*
Y-13380D01*
X-50546Y-14281D01*
X-50080Y-15089D01*
X-49420Y-15749D01*
X-48612Y-16215D01*
X-47711Y-16457D01*
X-46778D01*
X-45877Y-16215D01*
X-45068Y-15749D01*
X-44808Y-15488D01*
X-44699Y-15447D01*
X-44540Y-15298D01*
X-44392Y-15183D01*
X-44234Y-15080D01*
X-44065Y-14991D01*
X-43885Y-14915D01*
X-43691Y-14852D01*
X-43482Y-14801D01*
X-43259Y-14764D01*
X-43020Y-14742D01*
X-42798Y-14735D01*
X-42093Y-14752D01*
X-41499Y-14806D01*
X-41277Y-14843D01*
X-41097Y-14885D01*
X-40968Y-14927D01*
X-40896Y-14960D01*
X-40883Y-14969D01*
X-40850Y-15006D01*
X-40834Y-15013D01*
X-40828Y-15030D01*
X-40712Y-15077D01*
X-40497Y-15221D01*
X-40129Y-15294D01*
X-37037D01*
X-36669Y-15221D01*
X-36356Y-15012D01*
X-36147Y-14699D01*
X-36074Y-14331D01*
Y-11496D01*
X-36147Y-11127D01*
X-36356Y-10815D01*
X-36669Y-10606D01*
X-37037Y-10533D01*
X-40129D01*
X-40497Y-10606D01*
X-40712Y-10749D01*
X-40828Y-10797D01*
X-40834Y-10814D01*
X-40850Y-10821D01*
X-40883Y-10857D01*
X-40896Y-10866D01*
X-40968Y-10900D01*
X-41097Y-10942D01*
X-41278Y-10984D01*
X-41492Y-11020D01*
X-42456Y-11089D01*
X-42781Y-11092D01*
X-43020Y-11085D01*
X-43259Y-11063D01*
X-43482Y-11026D01*
X-43691Y-10975D01*
X-43885Y-10912D01*
X-44065Y-10835D01*
X-44234Y-10746D01*
X-44392Y-10644D01*
X-44539Y-10529D01*
X-44699Y-10380D01*
X-44808Y-10339D01*
X-45068Y-10078D01*
X-45877Y-9612D01*
X-46778Y-9370D01*
D02*
G37*
G36*
X47711Y-19370D02*
X46778D01*
X45876Y-19612D01*
X45068Y-20078D01*
X44808Y-20339D01*
X44699Y-20380D01*
X44539Y-20528D01*
X44392Y-20644D01*
X44234Y-20746D01*
X44065Y-20835D01*
X43885Y-20912D01*
X43691Y-20975D01*
X43482Y-21026D01*
X43259Y-21063D01*
X43020Y-21085D01*
X42798Y-21092D01*
X42093Y-21075D01*
X41499Y-21021D01*
X41277Y-20984D01*
X41097Y-20942D01*
X40968Y-20900D01*
X40896Y-20866D01*
X40883Y-20857D01*
X40850Y-20821D01*
X40834Y-20814D01*
X40828Y-20797D01*
X40712Y-20750D01*
X40497Y-20606D01*
X40129Y-20533D01*
X37037D01*
X36669Y-20606D01*
X36356Y-20815D01*
X36147Y-21127D01*
X36074Y-21496D01*
Y-24331D01*
X36147Y-24699D01*
X36356Y-25012D01*
X36669Y-25221D01*
X37037Y-25294D01*
X40129D01*
X40497Y-25221D01*
X40712Y-25077D01*
X40828Y-25030D01*
X40834Y-25013D01*
X40850Y-25006D01*
X40883Y-24970D01*
X40896Y-24960D01*
X40968Y-24927D01*
X41097Y-24885D01*
X41277Y-24843D01*
X41492Y-24807D01*
X42456Y-24738D01*
X42781Y-24734D01*
X43020Y-24742D01*
X43259Y-24764D01*
X43482Y-24801D01*
X43691Y-24851D01*
X43885Y-24915D01*
X44065Y-24991D01*
X44234Y-25080D01*
X44392Y-25183D01*
X44539Y-25298D01*
X44699Y-25447D01*
X44808Y-25488D01*
X45068Y-25749D01*
X45876Y-26215D01*
X46778Y-26457D01*
X47711D01*
X48612Y-26215D01*
X49420Y-25749D01*
X50079Y-25089D01*
X50546Y-24281D01*
X50787Y-23380D01*
Y-22447D01*
X50546Y-21546D01*
X50079Y-20738D01*
X49420Y-20078D01*
X48612Y-19612D01*
X47711Y-19370D01*
D02*
G37*
G36*
X-46778D02*
X-47711D01*
X-48612Y-19612D01*
X-49420Y-20078D01*
X-50080Y-20738D01*
X-50546Y-21546D01*
X-50787Y-22447D01*
Y-23380D01*
X-50546Y-24281D01*
X-50080Y-25089D01*
X-49420Y-25749D01*
X-48612Y-26215D01*
X-47711Y-26457D01*
X-46778D01*
X-45876Y-26215D01*
X-45068Y-25749D01*
X-44808Y-25488D01*
X-44699Y-25447D01*
X-44540Y-25298D01*
X-44392Y-25183D01*
X-44234Y-25080D01*
X-44065Y-24992D01*
X-43885Y-24915D01*
X-43691Y-24851D01*
X-43482Y-24801D01*
X-43259Y-24764D01*
X-43020Y-24742D01*
X-42798Y-24735D01*
X-42093Y-24752D01*
X-41498Y-24806D01*
X-41278Y-24843D01*
X-41097Y-24885D01*
X-40968Y-24927D01*
X-40896Y-24960D01*
X-40883Y-24970D01*
X-40850Y-25005D01*
X-40834Y-25013D01*
X-40828Y-25030D01*
X-40712Y-25077D01*
X-40497Y-25221D01*
X-40129Y-25294D01*
X-37037D01*
X-36669Y-25221D01*
X-36356Y-25012D01*
X-36147Y-24699D01*
X-36074Y-24331D01*
Y-21496D01*
X-36147Y-21127D01*
X-36356Y-20815D01*
X-36669Y-20606D01*
X-37037Y-20533D01*
X-40129D01*
X-40497Y-20606D01*
X-40712Y-20749D01*
X-40828Y-20797D01*
X-40834Y-20814D01*
X-40850Y-20821D01*
X-40883Y-20857D01*
X-40896Y-20866D01*
X-40968Y-20900D01*
X-41097Y-20942D01*
X-41278Y-20984D01*
X-41492Y-21020D01*
X-42456Y-21089D01*
X-42781Y-21092D01*
X-43020Y-21085D01*
X-43259Y-21063D01*
X-43482Y-21026D01*
X-43691Y-20975D01*
X-43885Y-20912D01*
X-44065Y-20835D01*
X-44234Y-20746D01*
X-44392Y-20644D01*
X-44539Y-20529D01*
X-44699Y-20380D01*
X-44808Y-20339D01*
X-45068Y-20078D01*
X-45876Y-19612D01*
X-46778Y-19370D01*
D02*
G37*
G36*
X47711Y-29370D02*
X46778D01*
X45876Y-29612D01*
X45068Y-30078D01*
X44808Y-30339D01*
X44699Y-30380D01*
X44539Y-30529D01*
X44392Y-30644D01*
X44234Y-30746D01*
X44065Y-30835D01*
X43885Y-30912D01*
X43691Y-30975D01*
X43482Y-31026D01*
X43259Y-31063D01*
X43020Y-31085D01*
X42798Y-31092D01*
X42093Y-31075D01*
X41499Y-31021D01*
X41277Y-30984D01*
X41097Y-30942D01*
X40968Y-30900D01*
X40896Y-30866D01*
X40883Y-30857D01*
X40850Y-30821D01*
X40834Y-30814D01*
X40828Y-30797D01*
X40712Y-30749D01*
X40497Y-30606D01*
X40129Y-30533D01*
X37037D01*
X36669Y-30606D01*
X36356Y-30815D01*
X36147Y-31127D01*
X36074Y-31496D01*
Y-34331D01*
X36147Y-34699D01*
X36356Y-35012D01*
X36669Y-35221D01*
X37037Y-35294D01*
X40129D01*
X40497Y-35221D01*
X40712Y-35077D01*
X40828Y-35030D01*
X40834Y-35013D01*
X40850Y-35006D01*
X40883Y-34969D01*
X40896Y-34960D01*
X40968Y-34927D01*
X41097Y-34885D01*
X41277Y-34843D01*
X41492Y-34807D01*
X42456Y-34738D01*
X42781Y-34734D01*
X43020Y-34742D01*
X43259Y-34764D01*
X43482Y-34801D01*
X43691Y-34852D01*
X43885Y-34915D01*
X44065Y-34991D01*
X44234Y-35081D01*
X44392Y-35183D01*
X44539Y-35298D01*
X44699Y-35447D01*
X44808Y-35488D01*
X45068Y-35749D01*
X45876Y-36215D01*
X46778Y-36457D01*
X47711D01*
X48612Y-36215D01*
X49420Y-35749D01*
X50079Y-35089D01*
X50546Y-34281D01*
X50787Y-33380D01*
Y-32447D01*
X50546Y-31546D01*
X50079Y-30738D01*
X49420Y-30078D01*
X48612Y-29612D01*
X47711Y-29370D01*
D02*
G37*
G36*
X-46778Y-29370D02*
X-47711D01*
X-48612Y-29612D01*
X-49420Y-30078D01*
X-50080Y-30738D01*
X-50546Y-31546D01*
X-50787Y-32447D01*
Y-33380D01*
X-50546Y-34281D01*
X-50080Y-35089D01*
X-49420Y-35749D01*
X-48612Y-36215D01*
X-47711Y-36457D01*
X-46778D01*
X-45877Y-36215D01*
X-45068Y-35749D01*
X-44808Y-35488D01*
X-44699Y-35447D01*
X-44540Y-35298D01*
X-44392Y-35182D01*
X-44234Y-35081D01*
X-44065Y-34991D01*
X-43885Y-34915D01*
X-43691Y-34852D01*
X-43482Y-34801D01*
X-43259Y-34764D01*
X-43020Y-34742D01*
X-42798Y-34735D01*
X-42093Y-34752D01*
X-41498Y-34806D01*
X-41278Y-34843D01*
X-41097Y-34885D01*
X-40968Y-34927D01*
X-40896Y-34960D01*
X-40883Y-34969D01*
X-40850Y-35006D01*
X-40834Y-35013D01*
X-40828Y-35030D01*
X-40712Y-35077D01*
X-40497Y-35221D01*
X-40129Y-35294D01*
X-37037D01*
X-36669Y-35221D01*
X-36356Y-35012D01*
X-36147Y-34699D01*
X-36074Y-34331D01*
Y-31496D01*
X-36147Y-31127D01*
X-36356Y-30815D01*
X-36669Y-30606D01*
X-37037Y-30533D01*
X-40129D01*
X-40497Y-30606D01*
X-40712Y-30749D01*
X-40828Y-30797D01*
X-40834Y-30814D01*
X-40850Y-30821D01*
X-40883Y-30857D01*
X-40896Y-30866D01*
X-40968Y-30900D01*
X-41097Y-30942D01*
X-41277Y-30984D01*
X-41492Y-31019D01*
X-42456Y-31089D01*
X-42781Y-31092D01*
X-43020Y-31085D01*
X-43259Y-31063D01*
X-43482Y-31026D01*
X-43691Y-30975D01*
X-43885Y-30912D01*
X-44065Y-30835D01*
X-44234Y-30746D01*
X-44392Y-30644D01*
X-44539Y-30529D01*
X-44699Y-30380D01*
X-44808Y-30339D01*
X-45068Y-30078D01*
X-45877Y-29612D01*
X-46778Y-29370D01*
D02*
G37*
G36*
X47711Y-39370D02*
X46778D01*
X45876Y-39612D01*
X45068Y-40078D01*
X44808Y-40339D01*
X44699Y-40380D01*
X44539Y-40529D01*
X44392Y-40644D01*
X44234Y-40746D01*
X44065Y-40835D01*
X43885Y-40912D01*
X43691Y-40975D01*
X43482Y-41026D01*
X43259Y-41063D01*
X43020Y-41085D01*
X42798Y-41092D01*
X42093Y-41074D01*
X41499Y-41021D01*
X41277Y-40984D01*
X41097Y-40942D01*
X40968Y-40900D01*
X40896Y-40866D01*
X40883Y-40857D01*
X40850Y-40821D01*
X40834Y-40814D01*
X40828Y-40797D01*
X40712Y-40749D01*
X40497Y-40606D01*
X40129Y-40533D01*
X37037D01*
X36669Y-40606D01*
X36356Y-40815D01*
X36147Y-41127D01*
X36074Y-41496D01*
Y-44331D01*
X36147Y-44699D01*
X36356Y-45012D01*
X36669Y-45221D01*
X37037Y-45294D01*
X40129D01*
X40497Y-45221D01*
X40712Y-45077D01*
X40828Y-45030D01*
X40834Y-45013D01*
X40850Y-45006D01*
X40883Y-44969D01*
X40896Y-44960D01*
X40968Y-44927D01*
X41097Y-44885D01*
X41277Y-44843D01*
X41492Y-44807D01*
X42456Y-44738D01*
X42781Y-44734D01*
X43020Y-44742D01*
X43259Y-44764D01*
X43482Y-44801D01*
X43691Y-44851D01*
X43885Y-44915D01*
X44065Y-44991D01*
X44234Y-45081D01*
X44392Y-45183D01*
X44539Y-45298D01*
X44699Y-45447D01*
X44808Y-45488D01*
X45068Y-45749D01*
X45876Y-46215D01*
X46778Y-46457D01*
X47711D01*
X48612Y-46215D01*
X49420Y-45749D01*
X50079Y-45089D01*
X50546Y-44281D01*
X50787Y-43380D01*
Y-42447D01*
X50546Y-41546D01*
X50079Y-40738D01*
X49420Y-40078D01*
X48612Y-39612D01*
X47711Y-39370D01*
D02*
G37*
G36*
X-46778D02*
X-47711D01*
X-48612Y-39612D01*
X-49420Y-40078D01*
X-50080Y-40738D01*
X-50546Y-41546D01*
X-50787Y-42447D01*
Y-43380D01*
X-50546Y-44281D01*
X-50080Y-45089D01*
X-49420Y-45749D01*
X-48612Y-46215D01*
X-47711Y-46457D01*
X-46778D01*
X-45877Y-46215D01*
X-45068Y-45749D01*
X-44808Y-45488D01*
X-44699Y-45447D01*
X-44540Y-45298D01*
X-44392Y-45182D01*
X-44234Y-45081D01*
X-44065Y-44991D01*
X-43885Y-44915D01*
X-43691Y-44851D01*
X-43482Y-44801D01*
X-43259Y-44764D01*
X-43020Y-44742D01*
X-42798Y-44735D01*
X-42093Y-44752D01*
X-41498Y-44806D01*
X-41278Y-44843D01*
X-41097Y-44885D01*
X-40968Y-44927D01*
X-40896Y-44960D01*
X-40883Y-44969D01*
X-40850Y-45006D01*
X-40834Y-45013D01*
X-40828Y-45030D01*
X-40712Y-45077D01*
X-40497Y-45221D01*
X-40129Y-45294D01*
X-37037D01*
X-36669Y-45221D01*
X-36356Y-45012D01*
X-36147Y-44699D01*
X-36074Y-44331D01*
Y-41496D01*
X-36147Y-41127D01*
X-36356Y-40815D01*
X-36669Y-40606D01*
X-37037Y-40533D01*
X-40129D01*
X-40497Y-40606D01*
X-40712Y-40749D01*
X-40828Y-40797D01*
X-40834Y-40814D01*
X-40850Y-40821D01*
X-40883Y-40857D01*
X-40896Y-40866D01*
X-40968Y-40900D01*
X-41097Y-40942D01*
X-41278Y-40984D01*
X-41492Y-41019D01*
X-42456Y-41089D01*
X-42781Y-41092D01*
X-43020Y-41085D01*
X-43259Y-41063D01*
X-43482Y-41026D01*
X-43691Y-40975D01*
X-43885Y-40912D01*
X-44065Y-40835D01*
X-44234Y-40746D01*
X-44392Y-40644D01*
X-44539Y-40529D01*
X-44699Y-40380D01*
X-44808Y-40339D01*
X-45068Y-40078D01*
X-45877Y-39612D01*
X-46778Y-39370D01*
D02*
G37*
G36*
X47711Y-49370D02*
X46778D01*
X45876Y-49611D01*
X45068Y-50078D01*
X44808Y-50339D01*
X44699Y-50380D01*
X44539Y-50529D01*
X44392Y-50644D01*
X44234Y-50746D01*
X44065Y-50835D01*
X43885Y-50912D01*
X43691Y-50975D01*
X43482Y-51026D01*
X43259Y-51063D01*
X43020Y-51085D01*
X42798Y-51092D01*
X42093Y-51074D01*
X41499Y-51020D01*
X41277Y-50984D01*
X41097Y-50942D01*
X40968Y-50900D01*
X40896Y-50866D01*
X40883Y-50857D01*
X40850Y-50821D01*
X40834Y-50814D01*
X40828Y-50797D01*
X40712Y-50749D01*
X40497Y-50606D01*
X40129Y-50533D01*
X37037D01*
X36669Y-50606D01*
X36356Y-50815D01*
X36147Y-51127D01*
X36074Y-51496D01*
Y-54331D01*
X36147Y-54699D01*
X36356Y-55012D01*
X36669Y-55221D01*
X37037Y-55294D01*
X40129D01*
X40497Y-55221D01*
X40712Y-55077D01*
X40828Y-55029D01*
X40834Y-55013D01*
X40850Y-55006D01*
X40883Y-54969D01*
X40896Y-54960D01*
X40968Y-54927D01*
X41097Y-54885D01*
X41278Y-54843D01*
X41492Y-54807D01*
X42456Y-54738D01*
X42781Y-54734D01*
X43020Y-54742D01*
X43259Y-54764D01*
X43482Y-54801D01*
X43691Y-54852D01*
X43885Y-54915D01*
X44065Y-54992D01*
X44234Y-55080D01*
X44392Y-55183D01*
X44539Y-55298D01*
X44699Y-55447D01*
X44808Y-55488D01*
X45068Y-55749D01*
X45876Y-56215D01*
X46778Y-56457D01*
X47711D01*
X48612Y-56215D01*
X49420Y-55749D01*
X50079Y-55089D01*
X50546Y-54281D01*
X50787Y-53380D01*
Y-52447D01*
X50546Y-51546D01*
X50079Y-50738D01*
X49420Y-50078D01*
X48612Y-49611D01*
X47711Y-49370D01*
D02*
G37*
G36*
X-46778Y-49370D02*
X-47711D01*
X-48612Y-49612D01*
X-49420Y-50078D01*
X-50080Y-50738D01*
X-50546Y-51546D01*
X-50787Y-52447D01*
Y-53380D01*
X-50546Y-54281D01*
X-50080Y-55089D01*
X-49420Y-55749D01*
X-48612Y-56215D01*
X-47711Y-56457D01*
X-46778D01*
X-45877Y-56215D01*
X-45068Y-55749D01*
X-44808Y-55488D01*
X-44699Y-55447D01*
X-44540Y-55298D01*
X-44392Y-55183D01*
X-44234Y-55080D01*
X-44065Y-54991D01*
X-43885Y-54915D01*
X-43691Y-54852D01*
X-43482Y-54801D01*
X-43259Y-54764D01*
X-43020Y-54742D01*
X-42798Y-54735D01*
X-42093Y-54752D01*
X-41499Y-54806D01*
X-41277Y-54843D01*
X-41097Y-54885D01*
X-40968Y-54927D01*
X-40896Y-54960D01*
X-40883Y-54969D01*
X-40850Y-55006D01*
X-40834Y-55013D01*
X-40828Y-55029D01*
X-40712Y-55077D01*
X-40497Y-55221D01*
X-40129Y-55294D01*
X-37037D01*
X-36669Y-55221D01*
X-36356Y-55012D01*
X-36147Y-54699D01*
X-36074Y-54331D01*
Y-51496D01*
X-36147Y-51127D01*
X-36356Y-50815D01*
X-36669Y-50606D01*
X-37037Y-50533D01*
X-40129D01*
X-40497Y-50606D01*
X-40712Y-50749D01*
X-40828Y-50797D01*
X-40834Y-50814D01*
X-40850Y-50821D01*
X-40883Y-50857D01*
X-40896Y-50866D01*
X-40968Y-50900D01*
X-41097Y-50942D01*
X-41278Y-50984D01*
X-41492Y-51020D01*
X-42456Y-51089D01*
X-42781Y-51092D01*
X-43020Y-51085D01*
X-43259Y-51063D01*
X-43482Y-51026D01*
X-43691Y-50975D01*
X-43885Y-50912D01*
X-44065Y-50835D01*
X-44234Y-50746D01*
X-44392Y-50644D01*
X-44539Y-50529D01*
X-44699Y-50380D01*
X-44808Y-50339D01*
X-45068Y-50078D01*
X-45877Y-49612D01*
X-46778Y-49370D01*
D02*
G37*
G36*
X47711Y-59370D02*
X46778D01*
X45876Y-59611D01*
X45068Y-60078D01*
X44808Y-60339D01*
X44699Y-60380D01*
X44539Y-60528D01*
X44392Y-60644D01*
X44234Y-60746D01*
X44065Y-60835D01*
X43885Y-60912D01*
X43691Y-60975D01*
X43482Y-61026D01*
X43259Y-61063D01*
X43020Y-61085D01*
X43008Y-61085D01*
X42561Y-61075D01*
X41967Y-61020D01*
X41745Y-60984D01*
X41565Y-60942D01*
X41436Y-60900D01*
X41364Y-60866D01*
X41351Y-60857D01*
X41318Y-60821D01*
X41302Y-60814D01*
X41296Y-60797D01*
X41180Y-60749D01*
X40966Y-60606D01*
X40597Y-60533D01*
X37505D01*
X37137Y-60606D01*
X36824Y-60815D01*
X36615Y-61127D01*
X36542Y-61496D01*
Y-64331D01*
X36615Y-64699D01*
X36824Y-65012D01*
X37137Y-65221D01*
X37505Y-65294D01*
X40597D01*
X40966Y-65221D01*
X41180Y-65077D01*
X41296Y-65030D01*
X41302Y-65013D01*
X41318Y-65005D01*
X41351Y-64969D01*
X41364Y-64960D01*
X41436Y-64927D01*
X41565Y-64885D01*
X41745Y-64843D01*
X41960Y-64807D01*
X42920Y-64739D01*
X43020Y-64742D01*
X43259Y-64764D01*
X43482Y-64801D01*
X43691Y-64851D01*
X43885Y-64915D01*
X44065Y-64991D01*
X44234Y-65080D01*
X44392Y-65183D01*
X44539Y-65298D01*
X44699Y-65447D01*
X44808Y-65488D01*
X45068Y-65749D01*
X45876Y-66215D01*
X46778Y-66457D01*
X47711D01*
X48612Y-66215D01*
X49420Y-65749D01*
X50079Y-65089D01*
X50546Y-64281D01*
X50787Y-63380D01*
Y-62447D01*
X50546Y-61546D01*
X50079Y-60738D01*
X49420Y-60078D01*
X48612Y-59611D01*
X47711Y-59370D01*
D02*
G37*
G36*
X-46778D02*
X-47711D01*
X-48612Y-59611D01*
X-49420Y-60078D01*
X-50080Y-60738D01*
X-50546Y-61546D01*
X-50787Y-62447D01*
Y-63380D01*
X-50546Y-64281D01*
X-50080Y-65089D01*
X-49420Y-65749D01*
X-48612Y-66215D01*
X-47711Y-66457D01*
X-46778D01*
X-45876Y-66215D01*
X-45068Y-65749D01*
X-44808Y-65488D01*
X-44699Y-65447D01*
X-44540Y-65298D01*
X-44392Y-65183D01*
X-44234Y-65080D01*
X-44065Y-64991D01*
X-43885Y-64915D01*
X-43691Y-64851D01*
X-43482Y-64801D01*
X-43259Y-64764D01*
X-43020Y-64742D01*
X-42798Y-64735D01*
X-42093Y-64752D01*
X-41498Y-64806D01*
X-41278Y-64843D01*
X-41097Y-64885D01*
X-40968Y-64927D01*
X-40896Y-64960D01*
X-40883Y-64969D01*
X-40850Y-65005D01*
X-40834Y-65013D01*
X-40828Y-65030D01*
X-40712Y-65077D01*
X-40497Y-65221D01*
X-40129Y-65294D01*
X-37037D01*
X-36669Y-65221D01*
X-36356Y-65012D01*
X-36147Y-64699D01*
X-36074Y-64331D01*
Y-61496D01*
X-36147Y-61127D01*
X-36356Y-60815D01*
X-36669Y-60606D01*
X-37037Y-60533D01*
X-40129D01*
X-40497Y-60606D01*
X-40712Y-60749D01*
X-40828Y-60797D01*
X-40834Y-60814D01*
X-40850Y-60821D01*
X-40883Y-60857D01*
X-40896Y-60866D01*
X-40968Y-60900D01*
X-41097Y-60942D01*
X-41278Y-60984D01*
X-41492Y-61019D01*
X-42456Y-61089D01*
X-42781Y-61092D01*
X-43020Y-61085D01*
X-43259Y-61063D01*
X-43482Y-61026D01*
X-43691Y-60975D01*
X-43885Y-60912D01*
X-44065Y-60835D01*
X-44234Y-60746D01*
X-44392Y-60644D01*
X-44539Y-60529D01*
X-44699Y-60380D01*
X-44808Y-60339D01*
X-45068Y-60078D01*
X-45876Y-59611D01*
X-46778Y-59370D01*
D02*
G37*
G36*
X47711Y-69370D02*
X46778D01*
X45876Y-69612D01*
X45068Y-70078D01*
X44808Y-70339D01*
X44699Y-70380D01*
X44539Y-70529D01*
X44392Y-70644D01*
X44234Y-70746D01*
X44065Y-70835D01*
X43885Y-70912D01*
X43691Y-70975D01*
X43482Y-71026D01*
X43259Y-71063D01*
X43020Y-71085D01*
X43008Y-71086D01*
X42561Y-71074D01*
X41967Y-71021D01*
X41745Y-70984D01*
X41565Y-70942D01*
X41436Y-70900D01*
X41364Y-70866D01*
X41351Y-70857D01*
X41318Y-70821D01*
X41302Y-70814D01*
X41296Y-70797D01*
X41180Y-70749D01*
X40966Y-70606D01*
X40597Y-70533D01*
X37505D01*
X37137Y-70606D01*
X36824Y-70815D01*
X36615Y-71127D01*
X36542Y-71496D01*
Y-74331D01*
X36615Y-74699D01*
X36824Y-75012D01*
X37137Y-75221D01*
X37505Y-75294D01*
X40597D01*
X40966Y-75221D01*
X41180Y-75077D01*
X41296Y-75029D01*
X41302Y-75013D01*
X41318Y-75006D01*
X41351Y-74969D01*
X41364Y-74960D01*
X41436Y-74927D01*
X41565Y-74885D01*
X41745Y-74843D01*
X41960Y-74807D01*
X42920Y-74739D01*
X43020Y-74742D01*
X43259Y-74764D01*
X43482Y-74801D01*
X43691Y-74852D01*
X43885Y-74915D01*
X44065Y-74991D01*
X44234Y-75081D01*
X44392Y-75183D01*
X44539Y-75298D01*
X44699Y-75447D01*
X44808Y-75488D01*
X45068Y-75749D01*
X45876Y-76215D01*
X46778Y-76457D01*
X47711D01*
X48612Y-76215D01*
X49420Y-75749D01*
X50079Y-75089D01*
X50546Y-74281D01*
X50787Y-73380D01*
Y-72447D01*
X50546Y-71546D01*
X50079Y-70738D01*
X49420Y-70078D01*
X48612Y-69612D01*
X47711Y-69370D01*
D02*
G37*
G36*
X-46778D02*
X-47711D01*
X-48612Y-69612D01*
X-49420Y-70078D01*
X-50080Y-70738D01*
X-50546Y-71546D01*
X-50787Y-72447D01*
Y-73380D01*
X-50546Y-74281D01*
X-50080Y-75089D01*
X-49420Y-75749D01*
X-48612Y-76215D01*
X-47711Y-76457D01*
X-46778D01*
X-45877Y-76215D01*
X-45068Y-75749D01*
X-44409Y-75089D01*
X-43942Y-74281D01*
X-43701Y-73380D01*
Y-72447D01*
X-43942Y-71546D01*
X-44409Y-70738D01*
X-45068Y-70078D01*
X-45877Y-69612D01*
X-46778Y-69370D01*
D02*
G37*
%LPD*%
G36*
X44315Y54724D02*
X44292Y54949D01*
X44220Y55150D01*
X44102Y55327D01*
X43935Y55480D01*
X43722Y55610D01*
X43461Y55717D01*
X43152Y55799D01*
X42796Y55858D01*
X42392Y55894D01*
X42348Y55895D01*
X41418Y55828D01*
X41153Y55785D01*
X40925Y55732D01*
X40733Y55669D01*
X40577Y55596D01*
X40458Y55514D01*
X40376Y55422D01*
Y58751D01*
X40458Y58659D01*
X40577Y58577D01*
X40733Y58504D01*
X40925Y58442D01*
X41153Y58388D01*
X41418Y58345D01*
X42056Y58287D01*
X42377Y58279D01*
X42392Y58280D01*
X42796Y58315D01*
X43152Y58374D01*
X43461Y58457D01*
X43722Y58563D01*
X43935Y58693D01*
X44102Y58846D01*
X44220Y59024D01*
X44292Y59224D01*
X44315Y59449D01*
Y54724D01*
D02*
G37*
G36*
X-44292Y59224D02*
X-44220Y59024D01*
X-44102Y58846D01*
X-43935Y58693D01*
X-43722Y58563D01*
X-43461Y58457D01*
X-43152Y58374D01*
X-42796Y58315D01*
X-42392Y58280D01*
X-42348Y58278D01*
X-41418Y58345D01*
X-41153Y58389D01*
X-40925Y58442D01*
X-40733Y58504D01*
X-40577Y58577D01*
X-40458Y58659D01*
X-40376Y58751D01*
Y55423D01*
X-40458Y55514D01*
X-40577Y55596D01*
X-40733Y55669D01*
X-40925Y55732D01*
X-41153Y55785D01*
X-41418Y55828D01*
X-42056Y55886D01*
X-42377Y55894D01*
X-42392Y55894D01*
X-42796Y55858D01*
X-43152Y55799D01*
X-43461Y55717D01*
X-43722Y55610D01*
X-43935Y55480D01*
X-44102Y55327D01*
X-44220Y55150D01*
X-44292Y54949D01*
X-44315Y54724D01*
Y59449D01*
X-44292Y59224D01*
D02*
G37*
G36*
X31508Y45332D02*
X31478Y45340D01*
X31433Y45328D01*
X31372Y45297D01*
X31295Y45247D01*
X31204Y45178D01*
X30975Y44981D01*
X30517Y44541D01*
X29682Y45265D01*
X29839Y45424D01*
X30340Y45995D01*
X30383Y46064D01*
X30408Y46119D01*
X30413Y46159D01*
X30400Y46184D01*
X31508Y45332D01*
D02*
G37*
G36*
X33289Y35321D02*
X33193Y35288D01*
X33105Y35233D01*
X33023Y35156D01*
X32950Y35056D01*
X32884Y34935D01*
X32826Y34792D01*
X32775Y34626D01*
X32732Y34439D01*
X32697Y34229D01*
X31551Y34238D01*
X31576Y34445D01*
X31586Y34631D01*
X31583Y34796D01*
X31566Y34938D01*
X31535Y35058D01*
X31490Y35157D01*
X31432Y35234D01*
X31359Y35288D01*
X31273Y35321D01*
X31173Y35332D01*
X33393D01*
X33289Y35321D01*
D02*
G37*
G36*
X32076Y25332D02*
X31985Y25388D01*
X31880Y25413D01*
X31761Y25409D01*
X31627Y25374D01*
X31478Y25310D01*
X31315Y25216D01*
X31137Y25092D01*
X30945Y24938D01*
X30517Y24541D01*
X29609Y25192D01*
X29834Y25425D01*
X30187Y25839D01*
X30315Y26021D01*
X30410Y26185D01*
X30473Y26332D01*
X30504Y26463D01*
X30502Y26576D01*
X30467Y26672D01*
X30400Y26751D01*
X32076Y25332D01*
D02*
G37*
G36*
X15717Y18236D02*
X15630Y18292D01*
X15541Y18334D01*
X15452Y18363D01*
X15361Y18380D01*
X15270Y18384D01*
X15177Y18374D01*
X15084Y18352D01*
X14989Y18318D01*
X14893Y18270D01*
X14796Y18210D01*
X14610Y19246D01*
X14729Y19311D01*
X15036Y19502D01*
X15121Y19564D01*
X15267Y19686D01*
X15327Y19746D01*
X15379Y19805D01*
X15423Y19864D01*
X15717Y18236D01*
D02*
G37*
G36*
X32191Y15332D02*
X32096Y15382D01*
X31987Y15404D01*
X31864Y15397D01*
X31729Y15361D01*
X31579Y15296D01*
X31417Y15202D01*
X31241Y15080D01*
X31051Y14929D01*
X30632Y14541D01*
X29609Y15076D01*
X29839Y15314D01*
X30199Y15735D01*
X30329Y15919D01*
X30425Y16084D01*
X30487Y16231D01*
X30516Y16359D01*
X30511Y16469D01*
X30472Y16561D01*
X30400Y16635D01*
X32191Y15332D01*
D02*
G37*
G36*
X15622Y14911D02*
X15542Y14975D01*
X15458Y15026D01*
X15372Y15067D01*
X15283Y15095D01*
X15191Y15113D01*
X15096Y15118D01*
X14998Y15112D01*
X14897Y15095D01*
X14793Y15066D01*
X14687Y15025D01*
X14613Y16051D01*
X14736Y16095D01*
X15060Y16237D01*
X15153Y16287D01*
X15314Y16392D01*
X15382Y16447D01*
X15443Y16503D01*
X15496Y16560D01*
X15622Y14911D01*
D02*
G37*
G36*
X10687Y8515D02*
X10601Y8426D01*
X10457Y8250D01*
X10398Y8164D01*
X10349Y8080D01*
X10308Y7997D01*
X10277Y7915D01*
X10255Y7834D01*
X10242Y7755D01*
X10238Y7677D01*
X9069Y8846D01*
X9147Y8850D01*
X9226Y8863D01*
X9307Y8885D01*
X9388Y8916D01*
X9472Y8957D01*
X9556Y9006D01*
X9642Y9065D01*
X9729Y9132D01*
X9818Y9209D01*
X9907Y9295D01*
X10687Y8515D01*
D02*
G37*
G36*
X3305Y53889D02*
X3231Y53800D01*
X3166Y53709D01*
X3110Y53615D01*
X3062Y53518D01*
X3023Y53419D01*
X2993Y53318D01*
X2971Y53213D01*
X2958Y53106D01*
X2954Y52997D01*
X2166D01*
X2162Y53106D01*
X2149Y53213D01*
X2127Y53318D01*
X2097Y53419D01*
X2058Y53518D01*
X2010Y53615D01*
X1954Y53709D01*
X1889Y53800D01*
X1815Y53889D01*
X1733Y53975D01*
X3387D01*
X3305Y53889D01*
D02*
G37*
G36*
X5939Y51961D02*
X5933Y51933D01*
X5927Y51892D01*
X5917Y51770D01*
X5909Y51433D01*
X5947Y50725D01*
X4293D01*
X4301Y50740D01*
X4307Y50767D01*
X4313Y50809D01*
X4323Y50931D01*
X4331Y51268D01*
X4293Y51975D01*
X5947D01*
X5939Y51961D01*
D02*
G37*
G36*
Y49024D02*
X5933Y48996D01*
X5927Y48955D01*
X5917Y48833D01*
X5908Y48428D01*
X5907Y48293D01*
X4333D01*
X4293Y49038D01*
X5947D01*
X5939Y49024D01*
D02*
G37*
G36*
X745Y48952D02*
X671Y48863D01*
X606Y48772D01*
X550Y48678D01*
X502Y48581D01*
X463Y48482D01*
X433Y48381D01*
X411Y48276D01*
X398Y48169D01*
X394Y48060D01*
X-394D01*
X-398Y48169D01*
X-411Y48276D01*
X-433Y48381D01*
X-463Y48482D01*
X-502Y48581D01*
X-550Y48678D01*
X-606Y48772D01*
X-671Y48863D01*
X-745Y48952D01*
X-827Y49038D01*
X827D01*
X745Y48952D01*
D02*
G37*
G36*
X2957Y46571D02*
X2969Y46437D01*
X2988Y46319D01*
X3015Y46216D01*
X3049Y46130D01*
X3091Y46059D01*
X3141Y46004D01*
X3198Y45964D01*
X3263Y45941D01*
X3335Y45933D01*
X1785D01*
X1857Y45941D01*
X1922Y45964D01*
X1979Y46004D01*
X2029Y46059D01*
X2071Y46130D01*
X2105Y46216D01*
X2132Y46319D01*
X2151Y46437D01*
X2162Y46571D01*
X2166Y46720D01*
X2954D01*
X2957Y46571D01*
D02*
G37*
G36*
X398D02*
X409Y46437D01*
X428Y46319D01*
X455Y46216D01*
X489Y46130D01*
X531Y46059D01*
X581Y46004D01*
X638Y45964D01*
X703Y45941D01*
X775Y45933D01*
X-775D01*
X-703Y45941D01*
X-638Y45964D01*
X-581Y46004D01*
X-531Y46059D01*
X-489Y46130D01*
X-455Y46216D01*
X-428Y46319D01*
X-409Y46437D01*
X-398Y46571D01*
X-394Y46720D01*
X394D01*
X398Y46571D01*
D02*
G37*
G36*
X45135Y45020D02*
X44955Y45188D01*
X44763Y45339D01*
X44557Y45472D01*
X44339Y45587D01*
X44109Y45684D01*
X43866Y45764D01*
X43610Y45826D01*
X43341Y45870D01*
X43060Y45897D01*
X42787Y45905D01*
X42430Y45901D01*
X41418Y45828D01*
X41153Y45785D01*
X40925Y45732D01*
X40733Y45669D01*
X40577Y45596D01*
X40458Y45514D01*
X40376Y45422D01*
Y48751D01*
X40458Y48659D01*
X40577Y48577D01*
X40733Y48504D01*
X40925Y48442D01*
X41153Y48388D01*
X41418Y48345D01*
X42056Y48287D01*
X42799Y48269D01*
X43060Y48277D01*
X43341Y48303D01*
X43610Y48347D01*
X43866Y48409D01*
X44109Y48489D01*
X44339Y48587D01*
X44557Y48702D01*
X44763Y48835D01*
X44955Y48985D01*
X45135Y49154D01*
Y45020D01*
D02*
G37*
G36*
X-44956Y48985D02*
X-44763Y48835D01*
X-44557Y48702D01*
X-44340Y48587D01*
X-44109Y48489D01*
X-43866Y48409D01*
X-43610Y48347D01*
X-43341Y48303D01*
X-43060Y48277D01*
X-42787Y48268D01*
X-42430Y48273D01*
X-41418Y48345D01*
X-41153Y48388D01*
X-40925Y48442D01*
X-40733Y48504D01*
X-40577Y48577D01*
X-40458Y48659D01*
X-40376Y48751D01*
Y45423D01*
X-40458Y45514D01*
X-40577Y45596D01*
X-40733Y45669D01*
X-40925Y45732D01*
X-41153Y45785D01*
X-41418Y45828D01*
X-42056Y45886D01*
X-42799Y45904D01*
X-43060Y45897D01*
X-43341Y45870D01*
X-43610Y45826D01*
X-43866Y45764D01*
X-44109Y45684D01*
X-44340Y45587D01*
X-44557Y45472D01*
X-44763Y45339D01*
X-44956Y45188D01*
X-45135Y45020D01*
Y49154D01*
X-44956Y48985D01*
D02*
G37*
G36*
X45135Y35020D02*
X44955Y35188D01*
X44763Y35339D01*
X44557Y35471D01*
X44339Y35587D01*
X44109Y35684D01*
X43866Y35764D01*
X43610Y35826D01*
X43341Y35870D01*
X43060Y35897D01*
X42787Y35905D01*
X42430Y35901D01*
X41418Y35828D01*
X41153Y35785D01*
X40925Y35732D01*
X40733Y35669D01*
X40577Y35596D01*
X40458Y35514D01*
X40376Y35422D01*
Y38751D01*
X40458Y38659D01*
X40577Y38577D01*
X40733Y38504D01*
X40925Y38442D01*
X41153Y38388D01*
X41418Y38345D01*
X42056Y38287D01*
X42799Y38269D01*
X43060Y38277D01*
X43341Y38303D01*
X43610Y38347D01*
X43866Y38409D01*
X44109Y38489D01*
X44339Y38587D01*
X44557Y38702D01*
X44763Y38835D01*
X44955Y38985D01*
X45135Y39154D01*
Y35020D01*
D02*
G37*
G36*
X-30461Y56514D02*
X-30492Y56429D01*
X-30494Y56328D01*
X-30466Y56212D01*
X-30410Y56081D01*
X-30325Y55934D01*
X-30211Y55772D01*
X-30067Y55594D01*
X-29692Y55192D01*
X-30517Y54624D01*
X-30714Y54815D01*
X-31070Y55116D01*
X-31228Y55226D01*
X-31374Y55310D01*
X-31506Y55368D01*
X-31626Y55399D01*
X-31733Y55403D01*
X-31828Y55381D01*
X-31909Y55332D01*
X-30400Y56584D01*
X-30461Y56514D01*
D02*
G37*
G36*
Y46514D02*
X-30492Y46429D01*
X-30494Y46328D01*
X-30466Y46212D01*
X-30410Y46081D01*
X-30325Y45934D01*
X-30211Y45772D01*
X-30067Y45594D01*
X-29692Y45192D01*
X-30517Y44624D01*
X-30714Y44815D01*
X-31070Y45116D01*
X-31228Y45226D01*
X-31374Y45310D01*
X-31506Y45368D01*
X-31626Y45399D01*
X-31733Y45403D01*
X-31828Y45381D01*
X-31909Y45332D01*
X-30400Y46584D01*
X-30461Y46514D01*
D02*
G37*
G36*
X-30461Y36514D02*
X-30492Y36429D01*
X-30494Y36328D01*
X-30466Y36212D01*
X-30410Y36081D01*
X-30325Y35934D01*
X-30211Y35772D01*
X-30067Y35594D01*
X-29692Y35192D01*
X-30517Y34624D01*
X-30714Y34815D01*
X-31070Y35116D01*
X-31228Y35226D01*
X-31374Y35310D01*
X-31506Y35368D01*
X-31626Y35399D01*
X-31733Y35403D01*
X-31828Y35381D01*
X-31909Y35332D01*
X-30400Y36584D01*
X-30461Y36514D01*
D02*
G37*
G36*
X-7758Y27182D02*
X-7874Y27275D01*
X-8003Y27335D01*
X-8143Y27360D01*
X-8295Y27351D01*
X-8459Y27308D01*
X-8636Y27231D01*
X-8824Y27120D01*
X-8969Y27015D01*
X-9074Y26870D01*
X-9185Y26682D01*
X-9262Y26506D01*
X-9305Y26341D01*
X-9314Y26189D01*
X-9288Y26049D01*
X-9229Y25920D01*
X-9136Y25804D01*
X-11353Y28022D01*
X-11237Y27928D01*
X-11109Y27869D01*
X-10968Y27844D01*
X-10816Y27852D01*
X-10652Y27895D01*
X-10475Y27972D01*
X-10287Y28083D01*
X-10142Y28188D01*
X-10037Y28333D01*
X-9926Y28522D01*
X-9849Y28698D01*
X-9806Y28862D01*
X-9797Y29014D01*
X-9823Y29155D01*
X-9882Y29283D01*
X-9975Y29400D01*
X-7758Y27182D01*
D02*
G37*
G36*
X-30461Y26514D02*
X-30492Y26429D01*
X-30494Y26328D01*
X-30466Y26212D01*
X-30410Y26081D01*
X-30325Y25934D01*
X-30211Y25772D01*
X-30067Y25594D01*
X-29692Y25192D01*
X-30517Y24624D01*
X-30714Y24815D01*
X-31070Y25116D01*
X-31228Y25226D01*
X-31374Y25310D01*
X-31506Y25368D01*
X-31626Y25399D01*
X-31733Y25403D01*
X-31828Y25381D01*
X-31909Y25332D01*
X-30400Y26584D01*
X-30461Y26514D01*
D02*
G37*
G36*
X-5811Y22758D02*
X-5930Y22756D01*
X-6045Y22745D01*
X-6155Y22726D01*
X-6262Y22700D01*
X-6364Y22665D01*
X-6461Y22623D01*
X-6555Y22572D01*
X-6644Y22513D01*
X-6729Y22447D01*
X-6809Y22373D01*
X-7366Y22929D01*
X-7292Y23010D01*
X-7225Y23095D01*
X-7167Y23184D01*
X-7116Y23277D01*
X-7074Y23375D01*
X-7039Y23477D01*
X-7012Y23583D01*
X-6994Y23694D01*
X-6983Y23809D01*
X-6980Y23928D01*
X-5811Y22758D01*
D02*
G37*
G36*
X-2631Y20251D02*
X-2777Y20098D01*
X-2899Y19952D01*
X-2943Y19891D01*
X-2773Y19720D01*
X-2851Y19716D01*
X-2930Y19704D01*
X-3010Y19681D01*
X-3087Y19652D01*
X-3125Y19563D01*
X-3153Y19449D01*
X-3157Y19343D01*
X-3138Y19245D01*
X-3096Y19156D01*
X-3030Y19074D01*
X-3409Y19453D01*
X-3433Y19434D01*
X-3521Y19358D01*
X-3611Y19272D01*
X-4390Y20051D01*
X-4304Y20141D01*
X-4211Y20255D01*
X-4589Y20633D01*
X-4507Y20567D01*
X-4417Y20524D01*
X-4319Y20505D01*
X-4213Y20509D01*
X-4099Y20537D01*
X-4010Y20575D01*
X-3981Y20652D01*
X-3959Y20732D01*
X-3946Y20812D01*
X-3942Y20889D01*
X-3771Y20719D01*
X-3710Y20763D01*
X-3565Y20885D01*
X-3411Y21031D01*
X-2631Y20251D01*
D02*
G37*
G36*
X-7533Y20866D02*
X-7483Y20777D01*
X-7429Y20692D01*
X-7369Y20609D01*
X-7304Y20530D01*
X-7235Y20454D01*
X-7160Y20381D01*
X-7080Y20311D01*
X-6995Y20244D01*
X-6905Y20181D01*
X-7809Y19806D01*
X-7820Y19793D01*
X-7840Y19805D01*
X-7870Y19844D01*
X-7909Y19908D01*
X-8018Y20113D01*
X-8355Y20834D01*
X-7577Y20958D01*
X-7533Y20866D01*
D02*
G37*
G36*
X-12441Y17501D02*
X-12351Y17282D01*
X-12301Y17179D01*
X-12190Y16988D01*
X-12130Y16899D01*
X-11998Y16735D01*
X-11936Y16670D01*
X-11870Y16605D01*
X-11449Y16231D01*
X-11389Y16188D01*
X-11335Y16155D01*
X-11290Y16133D01*
X-11252Y16121D01*
X-11944Y15429D01*
X-11956Y15466D01*
X-11979Y15512D01*
X-12011Y15565D01*
X-12055Y15626D01*
X-12173Y15771D01*
X-12333Y15947D01*
X-12346Y15960D01*
X-12369Y15982D01*
X-12455Y16047D01*
X-12543Y16100D01*
X-12634Y16141D01*
X-12727Y16171D01*
X-12822Y16188D01*
X-12919Y16194D01*
X-13018Y16187D01*
X-13119Y16170D01*
X-13223Y16139D01*
X-12480Y17617D01*
X-12441Y17501D01*
D02*
G37*
G36*
X-30442Y16333D02*
X-30458Y16267D01*
X-30449Y16186D01*
X-30416Y16090D01*
X-30358Y15978D01*
X-30274Y15851D01*
X-30166Y15709D01*
X-29875Y15380D01*
X-29692Y15192D01*
X-30517Y14624D01*
X-30695Y14798D01*
X-31151Y15181D01*
X-31277Y15263D01*
X-31389Y15323D01*
X-31489Y15359D01*
X-31575Y15373D01*
X-31648Y15364D01*
X-31709Y15332D01*
X-30400Y16384D01*
X-30442Y16333D01*
D02*
G37*
G36*
X-16050Y15785D02*
X-16068Y15683D01*
X-16074Y15584D01*
X-16068Y15487D01*
X-16051Y15392D01*
X-16021Y15299D01*
X-15980Y15209D01*
X-15927Y15121D01*
X-15862Y15035D01*
X-15785Y14951D01*
X-16540Y14592D01*
X-16615Y14663D01*
X-16695Y14731D01*
X-16779Y14795D01*
X-16961Y14913D01*
X-17059Y14966D01*
X-17269Y15063D01*
X-17381Y15106D01*
X-17497Y15146D01*
X-16020Y15889D01*
X-16050Y15785D01*
D02*
G37*
G36*
X-14654Y13821D02*
X-14233Y13448D01*
X-14172Y13404D01*
X-14119Y13371D01*
X-14074Y13349D01*
X-14036Y13337D01*
X-14728Y12645D01*
X-14740Y12683D01*
X-14762Y12728D01*
X-14795Y12781D01*
X-14839Y12842D01*
X-14957Y12987D01*
X-15117Y13163D01*
X-15318Y13371D01*
X-14762Y13927D01*
X-14654Y13821D01*
D02*
G37*
G36*
X-16617Y13324D02*
X-16527Y13105D01*
X-16477Y13003D01*
X-16367Y12811D01*
X-16306Y12723D01*
X-16174Y12559D01*
X-16113Y12494D01*
X-16047Y12429D01*
X-15626Y12055D01*
X-15565Y12012D01*
X-15512Y11979D01*
X-15466Y11956D01*
X-15429Y11944D01*
X-16121Y11252D01*
X-16133Y11290D01*
X-16155Y11335D01*
X-16188Y11389D01*
X-16231Y11449D01*
X-16349Y11595D01*
X-16509Y11771D01*
X-16522Y11784D01*
X-16546Y11805D01*
X-16632Y11870D01*
X-16720Y11923D01*
X-16810Y11965D01*
X-16903Y11994D01*
X-16998Y12012D01*
X-17095Y12017D01*
X-17194Y12011D01*
X-17296Y11993D01*
X-17400Y11963D01*
X-16657Y13440D01*
X-16617Y13324D01*
D02*
G37*
G36*
X-8426Y10600D02*
X-8250Y10456D01*
X-8165Y10398D01*
X-8080Y10348D01*
X-7997Y10308D01*
X-7915Y10277D01*
X-7835Y10255D01*
X-7755Y10242D01*
X-7678Y10238D01*
X-8847Y9069D01*
X-8851Y9147D01*
X-8863Y9226D01*
X-8886Y9306D01*
X-8917Y9388D01*
X-8957Y9471D01*
X-9006Y9556D01*
X-9065Y9641D01*
X-9133Y9729D01*
X-9209Y9817D01*
X-9295Y9907D01*
X-8516Y10686D01*
X-8426Y10600D01*
D02*
G37*
G36*
X-31639Y5325D02*
X-31670Y5305D01*
X-31699Y5270D01*
X-31723Y5221D01*
X-31744Y5159D01*
X-31761Y5083D01*
X-31774Y4993D01*
X-31783Y4889D01*
X-31791Y4640D01*
X-32775D01*
X-32777Y4772D01*
X-32792Y4993D01*
X-32805Y5083D01*
X-32822Y5159D01*
X-32843Y5221D01*
X-32867Y5270D01*
X-32896Y5305D01*
X-32928Y5325D01*
X-32963Y5332D01*
X-31603D01*
X-31639Y5325D01*
D02*
G37*
G36*
X-14637Y-3279D02*
X-14715Y-3282D01*
X-14794Y-3295D01*
X-14875Y-3317D01*
X-14956Y-3348D01*
X-15039Y-3389D01*
X-15124Y-3438D01*
X-15210Y-3497D01*
X-15297Y-3564D01*
X-15385Y-3641D01*
X-15475Y-3727D01*
X-16255Y-2948D01*
X-16169Y-2858D01*
X-16024Y-2682D01*
X-15966Y-2596D01*
X-15916Y-2512D01*
X-15876Y-2429D01*
X-15845Y-2347D01*
X-15823Y-2266D01*
X-15810Y-2187D01*
X-15806Y-2109D01*
X-14637Y-3279D01*
D02*
G37*
G36*
X-20073Y-2887D02*
X-19942Y-2997D01*
X-19819Y-3085D01*
X-19703Y-3152D01*
X-19595Y-3198D01*
X-19493Y-3223D01*
X-19399Y-3227D01*
X-19311Y-3210D01*
X-19231Y-3172D01*
X-19158Y-3113D01*
X-20549Y-4505D01*
X-20491Y-4432D01*
X-20452Y-4352D01*
X-20436Y-4264D01*
X-20439Y-4170D01*
X-20465Y-4068D01*
X-20511Y-3959D01*
X-20578Y-3843D01*
X-20666Y-3720D01*
X-20776Y-3590D01*
X-20906Y-3453D01*
X-20210Y-2757D01*
X-20073Y-2887D01*
D02*
G37*
G36*
X-31639Y-4675D02*
X-31670Y-4695D01*
X-31699Y-4730D01*
X-31723Y-4778D01*
X-31744Y-4841D01*
X-31761Y-4917D01*
X-31774Y-5007D01*
X-31783Y-5111D01*
X-31791Y-5360D01*
X-32775D01*
X-32777Y-5229D01*
X-32792Y-5007D01*
X-32805Y-4917D01*
X-32822Y-4841D01*
X-32843Y-4778D01*
X-32868Y-4730D01*
X-32896Y-4695D01*
X-32928Y-4675D01*
X-32963Y-4668D01*
X-31603D01*
X-31639Y-4675D01*
D02*
G37*
G36*
X-30479Y-13621D02*
X-30523Y-13694D01*
X-30530Y-13777D01*
X-30501Y-13870D01*
X-30437Y-13974D01*
X-30336Y-14089D01*
X-30200Y-14214D01*
X-30027Y-14350D01*
X-29819Y-14497D01*
X-29575Y-14654D01*
X-30446Y-15293D01*
X-30720Y-15128D01*
X-31427Y-14770D01*
X-31623Y-14696D01*
X-31799Y-14645D01*
X-31956Y-14617D01*
X-32093Y-14611D01*
X-32211Y-14628D01*
X-32309Y-14668D01*
X-30400Y-13560D01*
X-30479Y-13621D01*
D02*
G37*
G36*
X-12645Y-14728D02*
X-12605Y-14725D01*
X-12591Y-14736D01*
X-12603Y-14760D01*
X-12640Y-14799D01*
X-12704Y-14851D01*
X-12909Y-14999D01*
X-13411Y-15325D01*
X-14122Y-14599D01*
X-13986Y-14512D01*
X-13544Y-14193D01*
X-13459Y-14121D01*
X-13320Y-13987D01*
X-13266Y-13924D01*
X-13223Y-13865D01*
X-12645Y-14728D01*
D02*
G37*
G36*
X-30390Y-22023D02*
X-30360Y-22106D01*
X-30311Y-22180D01*
X-30241Y-22244D01*
X-30151Y-22298D01*
X-30042Y-22343D01*
X-29912Y-22377D01*
X-29763Y-22402D01*
X-29593Y-22416D01*
X-29404Y-22421D01*
Y-23405D01*
X-29593Y-23410D01*
X-29763Y-23425D01*
X-29912Y-23450D01*
X-30042Y-23484D01*
X-30151Y-23528D01*
X-30241Y-23583D01*
X-30311Y-23647D01*
X-30360Y-23720D01*
X-30390Y-23804D01*
X-30400Y-23898D01*
Y-21929D01*
X-30390Y-22023D01*
D02*
G37*
G36*
X-30390Y-32023D02*
X-30360Y-32106D01*
X-30311Y-32180D01*
X-30241Y-32244D01*
X-30151Y-32298D01*
X-30042Y-32342D01*
X-29912Y-32377D01*
X-29763Y-32401D01*
X-29593Y-32416D01*
X-29404Y-32421D01*
Y-33406D01*
X-29593Y-33410D01*
X-29763Y-33425D01*
X-29912Y-33450D01*
X-30042Y-33484D01*
X-30151Y-33529D01*
X-30241Y-33583D01*
X-30311Y-33647D01*
X-30360Y-33720D01*
X-30390Y-33804D01*
X-30400Y-33898D01*
Y-31929D01*
X-30390Y-32023D01*
D02*
G37*
G36*
X-29970Y-40455D02*
X-30056Y-40619D01*
X-30339Y-41240D01*
X-30366Y-41324D01*
X-30384Y-41395D01*
X-30391Y-41452D01*
X-30388Y-41496D01*
X-32026Y-41159D01*
X-31931Y-41167D01*
X-31836Y-41154D01*
X-31738Y-41118D01*
X-31640Y-41061D01*
X-31541Y-40982D01*
X-31440Y-40880D01*
X-31337Y-40757D01*
X-31234Y-40612D01*
X-31130Y-40445D01*
X-31024Y-40256D01*
X-29970Y-40455D01*
D02*
G37*
G36*
X-29692Y-51019D02*
X-29894Y-51227D01*
X-30211Y-51598D01*
X-30325Y-51761D01*
X-30410Y-51907D01*
X-30466Y-52039D01*
X-30494Y-52155D01*
X-30492Y-52256D01*
X-30461Y-52341D01*
X-30400Y-52411D01*
X-31909Y-51159D01*
X-31828Y-51208D01*
X-31733Y-51230D01*
X-31626Y-51226D01*
X-31506Y-51195D01*
X-31374Y-51137D01*
X-31228Y-51053D01*
X-31070Y-50942D01*
X-30898Y-50805D01*
X-30517Y-50451D01*
X-29692Y-51019D01*
D02*
G37*
G36*
X-44956Y38985D02*
X-44763Y38835D01*
X-44557Y38702D01*
X-44340Y38587D01*
X-44109Y38489D01*
X-43866Y38409D01*
X-43610Y38347D01*
X-43341Y38303D01*
X-43060Y38277D01*
X-42787Y38268D01*
X-42430Y38273D01*
X-41418Y38345D01*
X-41153Y38388D01*
X-40925Y38442D01*
X-40733Y38504D01*
X-40577Y38577D01*
X-40458Y38659D01*
X-40376Y38751D01*
Y35423D01*
X-40458Y35514D01*
X-40577Y35596D01*
X-40733Y35669D01*
X-40925Y35732D01*
X-41153Y35785D01*
X-41418Y35828D01*
X-42056Y35886D01*
X-42799Y35904D01*
X-43060Y35897D01*
X-43341Y35870D01*
X-43610Y35826D01*
X-43866Y35764D01*
X-44109Y35684D01*
X-44340Y35587D01*
X-44557Y35471D01*
X-44763Y35339D01*
X-44956Y35188D01*
X-45135Y35020D01*
Y39154D01*
X-44956Y38985D01*
D02*
G37*
G36*
X45135Y25020D02*
X44955Y25188D01*
X44763Y25339D01*
X44557Y25471D01*
X44339Y25587D01*
X44109Y25684D01*
X43866Y25764D01*
X43610Y25826D01*
X43341Y25870D01*
X43060Y25897D01*
X42787Y25905D01*
X42430Y25901D01*
X41418Y25828D01*
X41153Y25785D01*
X40925Y25732D01*
X40733Y25669D01*
X40577Y25596D01*
X40458Y25514D01*
X40376Y25422D01*
Y28751D01*
X40458Y28659D01*
X40577Y28577D01*
X40733Y28504D01*
X40925Y28442D01*
X41153Y28389D01*
X41418Y28345D01*
X42056Y28287D01*
X42799Y28269D01*
X43060Y28277D01*
X43341Y28303D01*
X43610Y28347D01*
X43866Y28409D01*
X44109Y28489D01*
X44339Y28587D01*
X44557Y28702D01*
X44763Y28835D01*
X44955Y28985D01*
X45135Y29154D01*
Y25020D01*
D02*
G37*
G36*
X-44955Y28985D02*
X-44763Y28835D01*
X-44557Y28702D01*
X-44340Y28587D01*
X-44109Y28489D01*
X-43866Y28409D01*
X-43610Y28347D01*
X-43341Y28303D01*
X-43060Y28277D01*
X-42787Y28268D01*
X-42430Y28273D01*
X-41418Y28345D01*
X-41153Y28389D01*
X-40925Y28442D01*
X-40733Y28504D01*
X-40577Y28577D01*
X-40458Y28659D01*
X-40376Y28751D01*
Y25422D01*
X-40458Y25514D01*
X-40577Y25596D01*
X-40733Y25669D01*
X-40925Y25732D01*
X-41153Y25785D01*
X-41418Y25828D01*
X-42056Y25886D01*
X-42799Y25905D01*
X-43060Y25897D01*
X-43341Y25870D01*
X-43610Y25826D01*
X-43866Y25764D01*
X-44109Y25684D01*
X-44340Y25587D01*
X-44557Y25471D01*
X-44763Y25339D01*
X-44955Y25188D01*
X-45135Y25020D01*
Y29154D01*
X-44955Y28985D01*
D02*
G37*
G36*
X45135Y15020D02*
X44955Y15188D01*
X44763Y15339D01*
X44557Y15472D01*
X44340Y15587D01*
X44109Y15684D01*
X43866Y15764D01*
X43610Y15826D01*
X43341Y15870D01*
X43060Y15897D01*
X42787Y15905D01*
X42430Y15901D01*
X41418Y15828D01*
X41153Y15785D01*
X40925Y15732D01*
X40733Y15669D01*
X40577Y15596D01*
X40458Y15514D01*
X40376Y15422D01*
Y18751D01*
X40458Y18659D01*
X40577Y18577D01*
X40733Y18504D01*
X40925Y18442D01*
X41153Y18388D01*
X41418Y18345D01*
X42056Y18287D01*
X42799Y18269D01*
X43060Y18277D01*
X43341Y18303D01*
X43610Y18347D01*
X43866Y18409D01*
X44109Y18489D01*
X44340Y18587D01*
X44557Y18702D01*
X44763Y18835D01*
X44955Y18985D01*
X45135Y19153D01*
Y15020D01*
D02*
G37*
G36*
X3565Y20885D02*
X3711Y20763D01*
X3772Y20719D01*
X3942Y20890D01*
X3946Y20812D01*
X3959Y20733D01*
X3981Y20652D01*
X4010Y20575D01*
X4100Y20537D01*
X4214Y20509D01*
X4320Y20505D01*
X4417Y20524D01*
X4507Y20567D01*
X4589Y20633D01*
X4210Y20253D01*
X4228Y20230D01*
X4305Y20142D01*
X4391Y20052D01*
X3611Y19272D01*
X3522Y19358D01*
X3408Y19451D01*
X3030Y19074D01*
X3097Y19156D01*
X3139Y19246D01*
X3158Y19343D01*
X3154Y19449D01*
X3126Y19563D01*
X3088Y19653D01*
X3011Y19682D01*
X2930Y19704D01*
X2851Y19717D01*
X2773Y19721D01*
X2944Y19891D01*
X2900Y19952D01*
X2778Y20098D01*
X2632Y20251D01*
X3412Y21031D01*
X3565Y20885D01*
D02*
G37*
G36*
X-44956Y18985D02*
X-44763Y18835D01*
X-44557Y18702D01*
X-44340Y18587D01*
X-44109Y18489D01*
X-43866Y18409D01*
X-43610Y18347D01*
X-43341Y18303D01*
X-43060Y18277D01*
X-42787Y18268D01*
X-42430Y18272D01*
X-41418Y18345D01*
X-41153Y18388D01*
X-40925Y18442D01*
X-40733Y18504D01*
X-40577Y18577D01*
X-40458Y18659D01*
X-40376Y18751D01*
Y15423D01*
X-40458Y15514D01*
X-40577Y15596D01*
X-40733Y15669D01*
X-40925Y15732D01*
X-41153Y15785D01*
X-41418Y15828D01*
X-42056Y15886D01*
X-42799Y15904D01*
X-43060Y15897D01*
X-43341Y15870D01*
X-43610Y15826D01*
X-43866Y15764D01*
X-44109Y15684D01*
X-44340Y15587D01*
X-44557Y15472D01*
X-44763Y15339D01*
X-44956Y15188D01*
X-45135Y15020D01*
Y19154D01*
X-44956Y18985D01*
D02*
G37*
G36*
X-1598Y35130D02*
X-1543Y35040D01*
X-1456Y34953D01*
X-1337Y34868D01*
X-1185Y34785D01*
X-1002Y34705D01*
X-786Y34628D01*
X-259Y34481D01*
X53Y34411D01*
X116Y33367D01*
X-193Y33427D01*
X-710Y33496D01*
X-919Y33505D01*
X-1094Y33496D01*
X-1237Y33472D01*
X-1346Y33430D01*
X-1422Y33371D01*
X-1464Y33295D01*
X-1474Y33203D01*
X-1621Y35223D01*
X-1598Y35130D01*
D02*
G37*
G36*
X7103Y28286D02*
X7238Y28172D01*
X7366Y28079D01*
X7485Y28008D01*
X7597Y27959D01*
X7701Y27931D01*
X7798Y27924D01*
X7886Y27940D01*
X7967Y27976D01*
X8040Y28035D01*
X6652Y26646D01*
X6710Y26719D01*
X6747Y26800D01*
X6762Y26889D01*
X6756Y26985D01*
X6728Y27089D01*
X6679Y27201D01*
X6607Y27321D01*
X6515Y27448D01*
X6400Y27583D01*
X6264Y27726D01*
X6960Y28422D01*
X7103Y28286D01*
D02*
G37*
G36*
X9997Y24760D02*
X9915Y24701D01*
X9843Y24616D01*
X9780Y24506D01*
X9727Y24370D01*
X9683Y24209D01*
X9649Y24022D01*
X9625Y23810D01*
X9611Y23572D01*
X9606Y23309D01*
X8621Y22983D01*
X8617Y23265D01*
X8578Y23734D01*
X8544Y23921D01*
X8501Y24075D01*
X8447Y24198D01*
X8384Y24289D01*
X8312Y24348D01*
X8230Y24375D01*
X8138Y24370D01*
X10089Y24794D01*
X9997Y24760D01*
D02*
G37*
G36*
X45135Y5020D02*
X44955Y5188D01*
X44763Y5339D01*
X44557Y5472D01*
X44339Y5587D01*
X44109Y5684D01*
X43866Y5764D01*
X43610Y5826D01*
X43341Y5870D01*
X43060Y5897D01*
X42787Y5905D01*
X42430Y5901D01*
X41418Y5828D01*
X41153Y5785D01*
X40925Y5732D01*
X40733Y5669D01*
X40577Y5596D01*
X40458Y5514D01*
X40376Y5422D01*
Y8751D01*
X40458Y8659D01*
X40577Y8577D01*
X40733Y8504D01*
X40925Y8442D01*
X41153Y8388D01*
X41418Y8345D01*
X42056Y8287D01*
X42799Y8269D01*
X43060Y8277D01*
X43341Y8303D01*
X43610Y8347D01*
X43866Y8409D01*
X44109Y8489D01*
X44339Y8587D01*
X44557Y8702D01*
X44763Y8835D01*
X44955Y8985D01*
X45135Y9154D01*
Y5020D01*
D02*
G37*
G36*
X-44956Y8985D02*
X-44763Y8835D01*
X-44557Y8702D01*
X-44340Y8587D01*
X-44109Y8489D01*
X-43866Y8409D01*
X-43610Y8347D01*
X-43341Y8303D01*
X-43060Y8277D01*
X-42787Y8268D01*
X-42430Y8273D01*
X-41418Y8345D01*
X-41153Y8388D01*
X-40925Y8442D01*
X-40733Y8504D01*
X-40577Y8577D01*
X-40458Y8659D01*
X-40376Y8751D01*
Y5423D01*
X-40458Y5514D01*
X-40577Y5596D01*
X-40733Y5669D01*
X-40925Y5732D01*
X-41153Y5785D01*
X-41418Y5828D01*
X-42056Y5886D01*
X-42799Y5904D01*
X-43060Y5897D01*
X-43341Y5870D01*
X-43610Y5826D01*
X-43866Y5764D01*
X-44109Y5684D01*
X-44340Y5587D01*
X-44557Y5472D01*
X-44763Y5339D01*
X-44956Y5188D01*
X-45135Y5020D01*
Y9154D01*
X-44956Y8985D01*
D02*
G37*
G36*
X31909Y5332D02*
X31827Y5381D01*
X31733Y5403D01*
X31626Y5399D01*
X31506Y5368D01*
X31374Y5310D01*
X31228Y5226D01*
X31070Y5116D01*
X30898Y4978D01*
X30517Y4624D01*
X29692Y5192D01*
X29894Y5400D01*
X30210Y5771D01*
X30325Y5934D01*
X30410Y6081D01*
X30466Y6212D01*
X30494Y6328D01*
X30492Y6429D01*
X30461Y6514D01*
X30400Y6584D01*
X31909Y5332D01*
D02*
G37*
G36*
X21673Y-4220D02*
X21542Y-4357D01*
X21433Y-4487D01*
X21345Y-4610D01*
X21278Y-4726D01*
X21231Y-4835D01*
X21206Y-4937D01*
X21202Y-5031D01*
X21219Y-5119D01*
X21257Y-5199D01*
X21316Y-5272D01*
X19924Y-3880D01*
X19997Y-3939D01*
X20078Y-3977D01*
X20165Y-3994D01*
X20260Y-3990D01*
X20361Y-3965D01*
X20470Y-3919D01*
X20586Y-3852D01*
X20709Y-3763D01*
X20840Y-3654D01*
X20977Y-3524D01*
X21673Y-4220D01*
D02*
G37*
G36*
X32076Y-4668D02*
X31985Y-4612D01*
X31880Y-4587D01*
X31761Y-4591D01*
X31627Y-4626D01*
X31478Y-4690D01*
X31315Y-4784D01*
X31137Y-4908D01*
X30945Y-5062D01*
X30517Y-5459D01*
X29609Y-4808D01*
X29834Y-4575D01*
X30187Y-4161D01*
X30315Y-3979D01*
X30410Y-3815D01*
X30473Y-3668D01*
X30504Y-3537D01*
X30502Y-3424D01*
X30467Y-3328D01*
X30400Y-3249D01*
X32076Y-4668D01*
D02*
G37*
G36*
X19464Y-6282D02*
X19542Y-6404D01*
X19653Y-6524D01*
X19797Y-6643D01*
X19974Y-6761D01*
X20184Y-6878D01*
X20427Y-6994D01*
X21011Y-7223D01*
X21352Y-7335D01*
X21232Y-8431D01*
X20900Y-8325D01*
X19791Y-7894D01*
X19754Y-7856D01*
X19759Y-7828D01*
X19806Y-7809D01*
X19419Y-6160D01*
X19464Y-6282D01*
D02*
G37*
G36*
X45135Y-4980D02*
X44955Y-4812D01*
X44763Y-4661D01*
X44557Y-4529D01*
X44339Y-4413D01*
X44109Y-4316D01*
X43866Y-4236D01*
X43610Y-4174D01*
X43341Y-4130D01*
X43060Y-4103D01*
X42787Y-4095D01*
X42430Y-4099D01*
X41418Y-4172D01*
X41153Y-4215D01*
X40925Y-4268D01*
X40733Y-4331D01*
X40577Y-4404D01*
X40458Y-4486D01*
X40376Y-4578D01*
Y-1249D01*
X40458Y-1341D01*
X40577Y-1423D01*
X40733Y-1496D01*
X40925Y-1558D01*
X41153Y-1612D01*
X41418Y-1655D01*
X42056Y-1713D01*
X42799Y-1731D01*
X43060Y-1723D01*
X43341Y-1697D01*
X43610Y-1653D01*
X43866Y-1591D01*
X44109Y-1511D01*
X44339Y-1413D01*
X44557Y-1298D01*
X44763Y-1165D01*
X44955Y-1015D01*
X45135Y-847D01*
Y-4980D01*
D02*
G37*
G36*
X-44956Y-1015D02*
X-44763Y-1165D01*
X-44557Y-1298D01*
X-44340Y-1413D01*
X-44109Y-1511D01*
X-43866Y-1591D01*
X-43610Y-1653D01*
X-43341Y-1697D01*
X-43060Y-1723D01*
X-42787Y-1732D01*
X-42430Y-1727D01*
X-41418Y-1655D01*
X-41153Y-1612D01*
X-40925Y-1558D01*
X-40733Y-1496D01*
X-40577Y-1423D01*
X-40458Y-1341D01*
X-40376Y-1249D01*
Y-4578D01*
X-40458Y-4486D01*
X-40577Y-4404D01*
X-40733Y-4331D01*
X-40925Y-4268D01*
X-41153Y-4215D01*
X-41418Y-4172D01*
X-42056Y-4114D01*
X-42799Y-4095D01*
X-43060Y-4103D01*
X-43341Y-4130D01*
X-43610Y-4174D01*
X-43866Y-4236D01*
X-44109Y-4316D01*
X-44340Y-4413D01*
X-44557Y-4529D01*
X-44763Y-4661D01*
X-44956Y-4812D01*
X-45135Y-4980D01*
Y-847D01*
X-44956Y-1015D01*
D02*
G37*
G36*
X10242Y-7755D02*
X10255Y-7835D01*
X10277Y-7915D01*
X10308Y-7997D01*
X10348Y-8080D01*
X10398Y-8165D01*
X10456Y-8250D01*
X10524Y-8337D01*
X10600Y-8426D01*
X10686Y-8516D01*
X9907Y-9295D01*
X9817Y-9209D01*
X9641Y-9065D01*
X9556Y-9006D01*
X9471Y-8957D01*
X9388Y-8917D01*
X9306Y-8886D01*
X9226Y-8863D01*
X9147Y-8851D01*
X9069Y-8847D01*
X10238Y-7678D01*
X10242Y-7755D01*
D02*
G37*
G36*
X30400Y-14016D02*
X30389Y-13911D01*
X30356Y-13817D01*
X30300Y-13735D01*
X30222Y-13663D01*
X30122Y-13602D01*
X29999Y-13553D01*
X29854Y-13514D01*
X29687Y-13487D01*
X29498Y-13470D01*
X29286Y-13465D01*
Y-12362D01*
X29498Y-12357D01*
X29687Y-12340D01*
X29854Y-12313D01*
X29999Y-12274D01*
X30122Y-12224D01*
X30222Y-12164D01*
X30300Y-12092D01*
X30356Y-12009D01*
X30389Y-11916D01*
X30400Y-11811D01*
Y-14016D01*
D02*
G37*
G36*
Y-24016D02*
X30389Y-23911D01*
X30356Y-23817D01*
X30300Y-23735D01*
X30222Y-23663D01*
X30122Y-23602D01*
X29999Y-23553D01*
X29854Y-23514D01*
X29687Y-23487D01*
X29498Y-23470D01*
X29286Y-23465D01*
Y-22362D01*
X29498Y-22357D01*
X29687Y-22340D01*
X29854Y-22313D01*
X29999Y-22274D01*
X30122Y-22224D01*
X30222Y-22164D01*
X30300Y-22092D01*
X30356Y-22009D01*
X30389Y-21916D01*
X30400Y-21811D01*
Y-24016D01*
D02*
G37*
G36*
X30046Y-30650D02*
X30477Y-31019D01*
X30660Y-31149D01*
X30823Y-31242D01*
X30964Y-31299D01*
X31083Y-31319D01*
X31182Y-31302D01*
X31259Y-31249D01*
X31315Y-31159D01*
X30400Y-33338D01*
X30433Y-33226D01*
X30441Y-33103D01*
X30424Y-32971D01*
X30383Y-32829D01*
X30316Y-32678D01*
X30224Y-32518D01*
X30108Y-32348D01*
X29966Y-32168D01*
X29800Y-31978D01*
X29609Y-31780D01*
X29799Y-30411D01*
X30046Y-30650D01*
D02*
G37*
G36*
X30738Y-40581D02*
X31137Y-40919D01*
X31315Y-41043D01*
X31478Y-41137D01*
X31627Y-41201D01*
X31761Y-41236D01*
X31880Y-41240D01*
X31985Y-41214D01*
X32076Y-41159D01*
X30400Y-42578D01*
X30467Y-42499D01*
X30502Y-42403D01*
X30504Y-42290D01*
X30473Y-42159D01*
X30410Y-42012D01*
X30315Y-41848D01*
X30187Y-41666D01*
X30027Y-41467D01*
X29609Y-41019D01*
X30517Y-40368D01*
X30738Y-40581D01*
D02*
G37*
G36*
X32836Y-50577D02*
X32859Y-50900D01*
X32873Y-50979D01*
X32890Y-51044D01*
X32911Y-51094D01*
X32934Y-51130D01*
X32961Y-51152D01*
X32990Y-51159D01*
X31576D01*
X31605Y-51152D01*
X31632Y-51130D01*
X31655Y-51094D01*
X31676Y-51044D01*
X31693Y-50979D01*
X31707Y-50900D01*
X31718Y-50807D01*
X31730Y-50577D01*
X31732Y-50440D01*
X32834D01*
X32836Y-50577D01*
D02*
G37*
G36*
X31206Y-60581D02*
X31605Y-60919D01*
X31783Y-61043D01*
X31946Y-61137D01*
X32095Y-61201D01*
X32229Y-61236D01*
X32348Y-61240D01*
X32453Y-61215D01*
X32544Y-61159D01*
X30869Y-62578D01*
X30935Y-62499D01*
X30970Y-62403D01*
X30972Y-62290D01*
X30941Y-62159D01*
X30878Y-62012D01*
X30783Y-61848D01*
X30655Y-61666D01*
X30495Y-61467D01*
X30077Y-61019D01*
X30985Y-60368D01*
X31206Y-60581D01*
D02*
G37*
G36*
X45135Y-14980D02*
X44955Y-14812D01*
X44763Y-14661D01*
X44557Y-14528D01*
X44339Y-14413D01*
X44109Y-14316D01*
X43866Y-14236D01*
X43610Y-14174D01*
X43341Y-14130D01*
X43060Y-14103D01*
X42787Y-14095D01*
X42430Y-14099D01*
X41418Y-14172D01*
X41153Y-14215D01*
X40925Y-14268D01*
X40733Y-14331D01*
X40577Y-14404D01*
X40458Y-14486D01*
X40376Y-14578D01*
Y-11249D01*
X40458Y-11341D01*
X40577Y-11423D01*
X40733Y-11496D01*
X40925Y-11558D01*
X41153Y-11611D01*
X41418Y-11655D01*
X42056Y-11713D01*
X42799Y-11731D01*
X43060Y-11723D01*
X43341Y-11697D01*
X43610Y-11653D01*
X43866Y-11591D01*
X44109Y-11511D01*
X44339Y-11413D01*
X44557Y-11298D01*
X44763Y-11165D01*
X44955Y-11015D01*
X45135Y-10847D01*
Y-14980D01*
D02*
G37*
G36*
X-44956Y-11015D02*
X-44763Y-11165D01*
X-44557Y-11298D01*
X-44340Y-11413D01*
X-44109Y-11511D01*
X-43866Y-11591D01*
X-43610Y-11653D01*
X-43341Y-11697D01*
X-43060Y-11723D01*
X-42787Y-11732D01*
X-42430Y-11727D01*
X-41418Y-11655D01*
X-41153Y-11611D01*
X-40925Y-11558D01*
X-40733Y-11496D01*
X-40577Y-11423D01*
X-40458Y-11341D01*
X-40376Y-11249D01*
Y-14578D01*
X-40458Y-14486D01*
X-40577Y-14404D01*
X-40733Y-14331D01*
X-40925Y-14268D01*
X-41153Y-14215D01*
X-41418Y-14172D01*
X-42056Y-14114D01*
X-42799Y-14096D01*
X-43060Y-14103D01*
X-43341Y-14130D01*
X-43610Y-14174D01*
X-43866Y-14236D01*
X-44109Y-14316D01*
X-44340Y-14413D01*
X-44557Y-14528D01*
X-44763Y-14661D01*
X-44956Y-14812D01*
X-45135Y-14980D01*
Y-10847D01*
X-44956Y-11015D01*
D02*
G37*
G36*
X45135Y-24980D02*
X44955Y-24812D01*
X44763Y-24661D01*
X44557Y-24529D01*
X44339Y-24413D01*
X44109Y-24316D01*
X43866Y-24236D01*
X43610Y-24174D01*
X43341Y-24130D01*
X43060Y-24103D01*
X42787Y-24095D01*
X42430Y-24099D01*
X41418Y-24172D01*
X41153Y-24215D01*
X40925Y-24268D01*
X40733Y-24331D01*
X40577Y-24404D01*
X40458Y-24486D01*
X40376Y-24578D01*
Y-21249D01*
X40458Y-21341D01*
X40577Y-21423D01*
X40733Y-21496D01*
X40925Y-21558D01*
X41153Y-21611D01*
X41418Y-21655D01*
X42056Y-21713D01*
X42799Y-21731D01*
X43060Y-21723D01*
X43341Y-21697D01*
X43610Y-21653D01*
X43866Y-21590D01*
X44109Y-21511D01*
X44339Y-21413D01*
X44557Y-21298D01*
X44763Y-21165D01*
X44955Y-21015D01*
X45135Y-20846D01*
Y-24980D01*
D02*
G37*
G36*
X-44955Y-21015D02*
X-44763Y-21165D01*
X-44557Y-21298D01*
X-44340Y-21413D01*
X-44109Y-21511D01*
X-43866Y-21591D01*
X-43610Y-21653D01*
X-43341Y-21697D01*
X-43060Y-21723D01*
X-42787Y-21732D01*
X-42430Y-21727D01*
X-41418Y-21655D01*
X-41153Y-21611D01*
X-40925Y-21558D01*
X-40733Y-21496D01*
X-40577Y-21423D01*
X-40458Y-21341D01*
X-40376Y-21249D01*
Y-24577D01*
X-40458Y-24486D01*
X-40577Y-24404D01*
X-40733Y-24331D01*
X-40925Y-24268D01*
X-41153Y-24215D01*
X-41418Y-24172D01*
X-42056Y-24114D01*
X-42799Y-24095D01*
X-43060Y-24103D01*
X-43341Y-24130D01*
X-43610Y-24174D01*
X-43866Y-24236D01*
X-44109Y-24316D01*
X-44340Y-24413D01*
X-44557Y-24529D01*
X-44763Y-24661D01*
X-44955Y-24812D01*
X-45135Y-24980D01*
Y-20846D01*
X-44955Y-21015D01*
D02*
G37*
G36*
X45135Y-34980D02*
X44955Y-34812D01*
X44763Y-34661D01*
X44557Y-34528D01*
X44339Y-34413D01*
X44109Y-34316D01*
X43866Y-34236D01*
X43610Y-34174D01*
X43341Y-34130D01*
X43060Y-34103D01*
X42787Y-34095D01*
X42430Y-34099D01*
X41418Y-34172D01*
X41153Y-34215D01*
X40925Y-34268D01*
X40733Y-34331D01*
X40577Y-34404D01*
X40458Y-34486D01*
X40376Y-34578D01*
Y-31249D01*
X40458Y-31341D01*
X40577Y-31423D01*
X40733Y-31496D01*
X40925Y-31558D01*
X41153Y-31611D01*
X41418Y-31655D01*
X42056Y-31713D01*
X42799Y-31731D01*
X43060Y-31723D01*
X43341Y-31697D01*
X43610Y-31653D01*
X43866Y-31591D01*
X44109Y-31511D01*
X44339Y-31413D01*
X44557Y-31298D01*
X44763Y-31165D01*
X44955Y-31015D01*
X45135Y-30847D01*
Y-34980D01*
D02*
G37*
G36*
X-44956Y-31015D02*
X-44763Y-31165D01*
X-44557Y-31298D01*
X-44340Y-31413D01*
X-44109Y-31511D01*
X-43866Y-31591D01*
X-43610Y-31653D01*
X-43341Y-31697D01*
X-43060Y-31723D01*
X-42787Y-31732D01*
X-42430Y-31727D01*
X-41418Y-31655D01*
X-41153Y-31611D01*
X-40925Y-31558D01*
X-40733Y-31496D01*
X-40577Y-31423D01*
X-40458Y-31341D01*
X-40376Y-31249D01*
Y-34578D01*
X-40458Y-34486D01*
X-40577Y-34404D01*
X-40733Y-34331D01*
X-40925Y-34268D01*
X-41153Y-34215D01*
X-41418Y-34172D01*
X-42056Y-34114D01*
X-42799Y-34095D01*
X-43060Y-34103D01*
X-43341Y-34130D01*
X-43610Y-34174D01*
X-43866Y-34236D01*
X-44109Y-34316D01*
X-44340Y-34413D01*
X-44557Y-34528D01*
X-44763Y-34661D01*
X-44956Y-34812D01*
X-45135Y-34980D01*
Y-30846D01*
X-44956Y-31015D01*
D02*
G37*
G36*
X45135Y-44980D02*
X44955Y-44812D01*
X44763Y-44661D01*
X44557Y-44528D01*
X44339Y-44413D01*
X44109Y-44316D01*
X43866Y-44236D01*
X43610Y-44174D01*
X43341Y-44130D01*
X43060Y-44103D01*
X42787Y-44095D01*
X42430Y-44099D01*
X41418Y-44172D01*
X41153Y-44215D01*
X40925Y-44268D01*
X40733Y-44331D01*
X40577Y-44404D01*
X40458Y-44486D01*
X40376Y-44578D01*
Y-41249D01*
X40458Y-41341D01*
X40577Y-41423D01*
X40733Y-41496D01*
X40925Y-41558D01*
X41153Y-41611D01*
X41418Y-41655D01*
X42056Y-41713D01*
X42799Y-41731D01*
X43060Y-41723D01*
X43341Y-41697D01*
X43610Y-41653D01*
X43866Y-41591D01*
X44109Y-41511D01*
X44339Y-41413D01*
X44557Y-41298D01*
X44763Y-41165D01*
X44955Y-41015D01*
X45135Y-40846D01*
Y-44980D01*
D02*
G37*
G36*
X-44956Y-41015D02*
X-44763Y-41165D01*
X-44557Y-41298D01*
X-44340Y-41413D01*
X-44109Y-41511D01*
X-43866Y-41591D01*
X-43610Y-41653D01*
X-43341Y-41697D01*
X-43060Y-41723D01*
X-42787Y-41732D01*
X-42430Y-41727D01*
X-41418Y-41655D01*
X-41153Y-41611D01*
X-40925Y-41558D01*
X-40733Y-41496D01*
X-40577Y-41423D01*
X-40458Y-41341D01*
X-40376Y-41249D01*
Y-44578D01*
X-40458Y-44486D01*
X-40577Y-44404D01*
X-40733Y-44331D01*
X-40925Y-44268D01*
X-41153Y-44215D01*
X-41418Y-44172D01*
X-42056Y-44114D01*
X-42799Y-44096D01*
X-43060Y-44103D01*
X-43341Y-44130D01*
X-43610Y-44174D01*
X-43866Y-44236D01*
X-44109Y-44316D01*
X-44340Y-44413D01*
X-44557Y-44528D01*
X-44763Y-44661D01*
X-44956Y-44812D01*
X-45135Y-44980D01*
Y-40846D01*
X-44956Y-41015D01*
D02*
G37*
G36*
X45135Y-54980D02*
X44955Y-54812D01*
X44763Y-54661D01*
X44557Y-54528D01*
X44339Y-54413D01*
X44109Y-54316D01*
X43866Y-54236D01*
X43610Y-54174D01*
X43341Y-54130D01*
X43060Y-54103D01*
X42787Y-54095D01*
X42430Y-54099D01*
X41418Y-54172D01*
X41153Y-54215D01*
X40925Y-54268D01*
X40733Y-54331D01*
X40577Y-54404D01*
X40458Y-54486D01*
X40376Y-54577D01*
Y-51249D01*
X40458Y-51341D01*
X40577Y-51423D01*
X40733Y-51496D01*
X40925Y-51558D01*
X41153Y-51612D01*
X41418Y-51655D01*
X42056Y-51713D01*
X42799Y-51731D01*
X43060Y-51723D01*
X43341Y-51697D01*
X43610Y-51653D01*
X43866Y-51591D01*
X44109Y-51511D01*
X44339Y-51413D01*
X44557Y-51298D01*
X44763Y-51165D01*
X44955Y-51015D01*
X45135Y-50846D01*
Y-54980D01*
D02*
G37*
G36*
X-44956Y-51015D02*
X-44763Y-51165D01*
X-44557Y-51298D01*
X-44340Y-51413D01*
X-44109Y-51511D01*
X-43866Y-51591D01*
X-43610Y-51653D01*
X-43341Y-51697D01*
X-43060Y-51723D01*
X-42787Y-51732D01*
X-42430Y-51727D01*
X-41418Y-51655D01*
X-41153Y-51612D01*
X-40925Y-51558D01*
X-40733Y-51496D01*
X-40577Y-51423D01*
X-40458Y-51341D01*
X-40376Y-51249D01*
Y-54577D01*
X-40458Y-54486D01*
X-40577Y-54404D01*
X-40733Y-54331D01*
X-40925Y-54268D01*
X-41153Y-54215D01*
X-41418Y-54172D01*
X-42056Y-54114D01*
X-42799Y-54096D01*
X-43060Y-54103D01*
X-43341Y-54130D01*
X-43610Y-54174D01*
X-43866Y-54236D01*
X-44109Y-54316D01*
X-44340Y-54413D01*
X-44557Y-54528D01*
X-44763Y-54661D01*
X-44956Y-54812D01*
X-45135Y-54980D01*
Y-50846D01*
X-44956Y-51015D01*
D02*
G37*
G36*
X45135Y-64980D02*
X44955Y-64812D01*
X44763Y-64661D01*
X44557Y-64529D01*
X44339Y-64413D01*
X44109Y-64316D01*
X43866Y-64236D01*
X43610Y-64174D01*
X43341Y-64130D01*
X43060Y-64103D01*
X42919Y-64099D01*
X42898Y-64099D01*
X41886Y-64172D01*
X41621Y-64215D01*
X41393Y-64268D01*
X41201Y-64331D01*
X41045Y-64404D01*
X40926Y-64486D01*
X40844Y-64578D01*
Y-61249D01*
X40926Y-61341D01*
X41045Y-61423D01*
X41201Y-61496D01*
X41393Y-61558D01*
X41621Y-61611D01*
X41886Y-61655D01*
X42524Y-61713D01*
X43010Y-61725D01*
X43060Y-61723D01*
X43341Y-61697D01*
X43610Y-61653D01*
X43866Y-61590D01*
X44109Y-61511D01*
X44339Y-61413D01*
X44557Y-61298D01*
X44763Y-61165D01*
X44955Y-61015D01*
X45135Y-60847D01*
Y-64980D01*
D02*
G37*
G36*
X-44955Y-61015D02*
X-44763Y-61165D01*
X-44557Y-61298D01*
X-44340Y-61413D01*
X-44109Y-61511D01*
X-43866Y-61590D01*
X-43610Y-61653D01*
X-43341Y-61697D01*
X-43060Y-61723D01*
X-42787Y-61732D01*
X-42430Y-61727D01*
X-41418Y-61655D01*
X-41153Y-61611D01*
X-40925Y-61558D01*
X-40733Y-61496D01*
X-40577Y-61423D01*
X-40458Y-61341D01*
X-40376Y-61249D01*
Y-64578D01*
X-40458Y-64486D01*
X-40577Y-64404D01*
X-40733Y-64331D01*
X-40925Y-64268D01*
X-41153Y-64215D01*
X-41418Y-64172D01*
X-42056Y-64114D01*
X-42799Y-64095D01*
X-43060Y-64103D01*
X-43341Y-64130D01*
X-43610Y-64174D01*
X-43866Y-64236D01*
X-44109Y-64316D01*
X-44340Y-64413D01*
X-44557Y-64529D01*
X-44763Y-64661D01*
X-44955Y-64812D01*
X-45135Y-64980D01*
Y-60847D01*
X-44955Y-61015D01*
D02*
G37*
G36*
X45135Y-74980D02*
X44955Y-74812D01*
X44763Y-74661D01*
X44557Y-74528D01*
X44340Y-74413D01*
X44109Y-74316D01*
X43866Y-74236D01*
X43610Y-74174D01*
X43341Y-74130D01*
X43060Y-74103D01*
X42918Y-74099D01*
X42898Y-74099D01*
X41886Y-74172D01*
X41621Y-74215D01*
X41393Y-74268D01*
X41201Y-74331D01*
X41045Y-74404D01*
X40926Y-74486D01*
X40844Y-74577D01*
Y-71249D01*
X40926Y-71341D01*
X41045Y-71423D01*
X41201Y-71496D01*
X41393Y-71558D01*
X41621Y-71611D01*
X41886Y-71655D01*
X42524Y-71713D01*
X43010Y-71725D01*
X43060Y-71723D01*
X43341Y-71697D01*
X43610Y-71653D01*
X43866Y-71591D01*
X44109Y-71511D01*
X44340Y-71413D01*
X44557Y-71298D01*
X44763Y-71165D01*
X44955Y-71015D01*
X45135Y-70846D01*
X45135Y-74980D01*
D02*
G37*
D10*
X-10217Y22423D02*
Y22424D01*
X-10655Y23483D02*
X-10656Y23484D01*
X-10217Y22424D02*
X-10655Y23483D01*
X5120Y49882D02*
Y52819D01*
Y42008D02*
Y49882D01*
X-10217Y20951D02*
Y22423D01*
Y22424D01*
X-12165Y24993D02*
X-10656Y23484D01*
X-7564Y29593D02*
X-7564D01*
X-11547Y25610D02*
X-7564Y29593D01*
D12*
X-7545Y22193D02*
X-7985Y21133D01*
X-7545Y20072D01*
X2560Y42008D02*
Y54819D01*
X-0Y42008D02*
Y49882D01*
X-17582Y16191D02*
X-17400Y16008D01*
X-7545Y22193D02*
X-5799Y23939D01*
X-7546Y22193D02*
X-7545Y22193D01*
X4175Y19488D02*
X4241Y19553D01*
X4110D02*
X4241D01*
X-12828Y17004D02*
X-9743Y13919D01*
X-12828Y17004D02*
Y17045D01*
X-7545Y20072D02*
X-5568Y18094D01*
X-4109Y19421D02*
Y19553D01*
X-4175Y19487D02*
X-4109Y19421D01*
X-17137Y15746D02*
Y16271D01*
Y15746D02*
X-12527Y11135D01*
X-17004Y12828D02*
Y12868D01*
Y12828D02*
X-13919Y9743D01*
D14*
X16066Y15800D02*
X15030Y15664D01*
X14066Y15264D01*
X13237Y14628D01*
X-10217Y20582D02*
Y20581D01*
X-9778Y19522D02*
X-9777Y19522D01*
X-10217Y20581D02*
X-9778Y19522D01*
X16400Y19200D02*
X15540Y19087D01*
X14739Y18755D01*
X14051Y18227D01*
X-28800Y-2157D02*
X-28936Y-1122D01*
X-29336Y-157D01*
X-29972Y672D01*
X-28800Y-4447D02*
X-28664Y-5482D01*
X-28264Y-6447D01*
X-27628Y-7275D01*
X-24575Y-10328D02*
X-23747Y-10964D01*
X-22782Y-11364D01*
X-21747Y-11500D01*
X-20117D02*
X-19083Y-11364D01*
X-18120Y-10966D01*
X-17292Y-10332D01*
X-27000Y-273D02*
X-27234Y903D01*
X-27900Y1900D01*
X-27000Y-2443D02*
X-26864Y-3478D01*
X-26464Y-4443D01*
X-25828Y-5272D01*
X-22588Y-8512D02*
X-21603Y-9170D01*
X-20441Y-9401D01*
X-19244Y-9163D01*
X-18230Y-8485D01*
X-28800Y11947D02*
X-28936Y12982D01*
X-29336Y13947D01*
X-29972Y14775D01*
X-27100Y20247D02*
X-27236Y21282D01*
X-27636Y22247D01*
X-28272Y23075D01*
X-25000Y28147D02*
X-25136Y29182D01*
X-25536Y30147D01*
X-26172Y30975D01*
X-23832Y8520D02*
X-23828Y8517D01*
X-25000Y11345D02*
X-24864Y10311D01*
X-24466Y9348D01*
X-23832Y8520D01*
X-21732Y9205D02*
X-21728Y9202D01*
X-22900Y12030D02*
X-22764Y10996D01*
X-22366Y10033D01*
X-21732Y9205D01*
X-22900Y36047D02*
X-23036Y37082D01*
X-23436Y38047D01*
X-24072Y38875D01*
X-20700Y43847D02*
X-20836Y44882D01*
X-21236Y45847D01*
X-21872Y46675D01*
X-20700Y12613D02*
X-20564Y11577D01*
X-20164Y10613D01*
X-19528Y9784D01*
X-27100Y5094D02*
X-26964Y4059D01*
X-26564Y3094D01*
X-25928Y2266D01*
X-28800Y4073D02*
X-28566Y2897D01*
X-27900Y1900D01*
X-32283Y4640D02*
X-32147Y3605D01*
X-31747Y2640D01*
X-31111Y1812D01*
X-17292Y-10332D02*
X-17288Y-10328D01*
X-32283Y-5360D02*
X-32147Y-6395D01*
X-31747Y-7360D01*
X-31111Y-8189D01*
X-27272Y-12028D02*
X-26443Y-12664D01*
X-25478Y-13064D01*
X-24443Y-13200D01*
X-16208Y-12032D02*
X-16205Y-12028D01*
X-19034Y-13200D02*
X-18000Y-13064D01*
X-17036Y-12666D01*
X-16208Y-12032D01*
X-31111Y-58311D02*
X-31747Y-59140D01*
X-32147Y-60105D01*
X-32283Y-61140D01*
X-25228Y-40540D02*
X-25864Y-41368D01*
X-26264Y-42333D01*
X-26400Y-43368D01*
X-27572Y-54772D02*
X-26936Y-53943D01*
X-26536Y-52978D01*
X-26400Y-51943D01*
X-27328Y-39855D02*
X-27964Y-40683D01*
X-28364Y-41648D01*
X-28500Y-42684D01*
X-29672Y-50302D02*
X-29036Y-49473D01*
X-28636Y-48509D01*
X-28500Y-47473D01*
X-32283Y-42913D02*
X-31577Y-43206D01*
X-30008Y-39751D02*
X-30643Y-40580D01*
X-31043Y-41544D01*
X-31179Y-42579D01*
X-27611Y-32913D02*
X-26576Y-32777D01*
X-25611Y-32377D01*
X-24783Y-31742D01*
X-20394Y-22913D02*
X-19359Y-22777D01*
X-18395Y-22377D01*
X-17566Y-21742D01*
X-30868Y-14328D02*
X-30040Y-14964D01*
X-29075Y-15364D01*
X-28040Y-15500D01*
X-12941Y-14332D02*
X-12937Y-14328D01*
X-15766Y-15500D02*
X-14732Y-15364D01*
X-13769Y-14966D01*
X-12941Y-14332D01*
X1810Y32877D02*
X982Y33512D01*
X17Y33912D01*
X-1018Y34048D01*
X9114Y19478D02*
Y19478D01*
X8674Y18418D02*
X9114Y19478D01*
X-14817Y21155D02*
X-14818D01*
X-13757Y20716D02*
X-14817Y21155D01*
X16066Y15800D02*
X16400D01*
X-9777Y19522D02*
X-6959Y16703D01*
X-9778Y19522D02*
X-9777Y19522D01*
X-10217Y20581D02*
Y20582D01*
Y20951D01*
X9743Y13919D02*
X14051Y18227D01*
X11136Y12527D02*
X13237Y14628D01*
X-28800Y-4447D02*
Y-2157D01*
X-21747Y-11500D02*
X-20117D01*
X-27628Y-7275D02*
X-24575Y-10328D01*
X-27000Y-2443D02*
Y-273D01*
X-18230Y-8485D02*
X-16704Y-6959D01*
X-25828Y-5272D02*
X-22588Y-8512D01*
X-28800Y4073D02*
Y11947D01*
X-32283Y17087D02*
X-29972Y14775D01*
X-27100Y5094D02*
Y20247D01*
X-32283Y27087D02*
X-28272Y23075D01*
X-25000Y11345D02*
Y28147D01*
X-32283Y37087D02*
X-26172Y30975D01*
X-23828Y8517D02*
X-19487Y4175D01*
X-22900Y12030D02*
Y36047D01*
X-21728Y9202D02*
X-18094Y5568D01*
X-32283Y47087D02*
X-24072Y38875D01*
X-20700Y12613D02*
Y43847D01*
X-32283Y57087D02*
X-21872Y46675D01*
X-19528Y9784D02*
X-16703Y6959D01*
X-25928Y2266D02*
X-19488Y-4175D01*
X-32283Y4640D02*
Y7087D01*
X-31111Y1812D02*
X-29972Y672D01*
X-17288Y-10328D02*
X-15311Y-8351D01*
X-32283Y-5360D02*
Y-2913D01*
X-24443Y-13200D02*
X-19034D01*
X-31111Y-8189D02*
X-27272Y-12028D01*
X-16205D02*
X-13920Y-9743D01*
X-32283Y-62913D02*
Y-61140D01*
X-31111Y-58311D02*
X-27572Y-54772D01*
X-26400Y-51943D02*
Y-43368D01*
X-25228Y-40540D02*
X-4175Y-19487D01*
X-32283Y-52913D02*
X-29672Y-50302D01*
X-28500Y-47473D02*
Y-42684D01*
X-27328Y-39855D02*
X-5568Y-18095D01*
X-31577Y-43206D02*
X-31179D01*
Y-42579D01*
X-30008Y-39751D02*
X-6959Y-16703D01*
X-32283Y-32913D02*
X-27611D01*
X-24783Y-31742D02*
X-8352Y-15311D01*
X-32283Y-22913D02*
X-20394D01*
X-17566Y-21742D02*
X-9743Y-13919D01*
X-28040Y-15500D02*
X-15766D01*
X-32283Y-12913D02*
X-30868Y-14328D01*
X-12937D02*
X-11136Y-12527D01*
X19487Y-4175D02*
X20199Y-4887D01*
X20309D02*
X32283Y7086D01*
X20199Y-4887D02*
X20309D01*
X-3109Y34048D02*
X-1018D01*
X1810Y32877D02*
X8654Y26033D01*
X9114Y19478D02*
Y19478D01*
Y25573D01*
X6959Y16703D02*
X8674Y18418D01*
X-14818Y21155D02*
X-14817D01*
X-16002D02*
X-14818D01*
X-13757Y20716D02*
X-8352Y15311D01*
D27*
X32751Y-70809D02*
X32615Y-69774D01*
X32215Y-68809D01*
X31580Y-67981D01*
X26800Y-61544D02*
X26936Y-62580D01*
X27336Y-63544D01*
X27972Y-64373D01*
X26800Y-52757D02*
X26664Y-51722D01*
X26264Y-50757D01*
X25628Y-49928D01*
X22100Y-44743D02*
X22236Y-45778D01*
X22636Y-46743D01*
X23272Y-47572D01*
X22100Y-36283D02*
X21964Y-35248D01*
X21564Y-34284D01*
X20928Y-33455D01*
X28700Y-57205D02*
X28836Y-58241D01*
X29236Y-59205D01*
X29872Y-60034D01*
X28700Y-51357D02*
X28564Y-50322D01*
X28164Y-49357D01*
X27528Y-48528D01*
X24300Y-43643D02*
X24436Y-44678D01*
X24836Y-45643D01*
X25472Y-46472D01*
X24300Y-35701D02*
X24164Y-34666D01*
X23764Y-33701D01*
X23128Y-32873D01*
X32283Y-50440D02*
X32147Y-49405D01*
X31747Y-48440D01*
X31111Y-47611D01*
X26300Y-41143D02*
X26436Y-42178D01*
X26836Y-43143D01*
X27472Y-43972D01*
X26300Y-34916D02*
X26164Y-33880D01*
X25764Y-32916D01*
X25128Y-32087D01*
X28400Y-37374D02*
X28536Y-38409D01*
X28936Y-39374D01*
X29572Y-40202D01*
X28400Y-34233D02*
X28264Y-33198D01*
X27864Y-32233D01*
X27228Y-31405D01*
X30984Y-32375D02*
X32283Y-32914D01*
X25918Y-21742D02*
X26747Y-22378D01*
X27711Y-22777D01*
X28747Y-22914D01*
X18701Y-11742D02*
X19529Y-12378D01*
X20494Y-12777D01*
X21529Y-12913D01*
X19597Y-7070D02*
X20516Y-7684D01*
X21600Y-7900D01*
X25640D02*
X26675Y-7764D01*
X27640Y-7364D01*
X28468Y-6728D01*
X27672Y48772D02*
X27036Y47943D01*
X26636Y46978D01*
X26500Y45943D01*
X23472Y32772D02*
X22836Y31943D01*
X22436Y30978D01*
X22300Y29943D01*
X31111Y52211D02*
X31747Y53040D01*
X32147Y54005D01*
X32283Y55040D01*
X25328Y34628D02*
X25964Y35457D01*
X26364Y36422D01*
X26500Y37457D01*
X21128Y16952D02*
X21764Y17780D01*
X22164Y18745D01*
X22300Y19780D01*
X30072Y44875D02*
X29436Y44047D01*
X29036Y43082D01*
X28900Y42047D01*
X25572Y30872D02*
X24936Y30043D01*
X24536Y29078D01*
X24400Y28043D01*
X27728Y33028D02*
X28364Y33857D01*
X28764Y34822D01*
X28900Y35857D01*
X23228Y16269D02*
X23864Y17097D01*
X24264Y18062D01*
X24400Y19097D01*
X27672Y29072D02*
X27036Y28243D01*
X26636Y27278D01*
X26500Y26243D01*
X31111Y32511D02*
X31747Y33340D01*
X32147Y34305D01*
X32283Y35340D01*
X25328Y15584D02*
X25964Y16412D01*
X26364Y17377D01*
X26500Y18413D01*
X29472Y24275D02*
X28836Y23447D01*
X28436Y22482D01*
X28300Y21447D01*
X27128Y14601D02*
X27764Y15429D01*
X28164Y16394D01*
X28300Y17429D01*
X32202Y16890D02*
X32283Y17086D01*
X32201Y16889D02*
X32202Y16890D01*
X13109Y20688D02*
Y20689D01*
X12669Y19628D02*
X13109Y20688D01*
X9057Y-7666D02*
X12527Y-11135D01*
X-18095Y-5567D02*
X-14625Y-2098D01*
X9057Y7665D02*
X12527Y11135D01*
X32751Y-72913D02*
Y-70809D01*
X26800Y-61544D02*
Y-52757D01*
X22100Y-44743D02*
Y-36283D01*
X27972Y-64373D02*
X31580Y-67981D01*
X23272Y-47572D02*
X25628Y-49928D01*
X5568Y-18094D02*
X20928Y-33455D01*
X28700Y-57205D02*
Y-51357D01*
X24300Y-43643D02*
Y-35701D01*
X29872Y-60034D02*
X32751Y-62913D01*
X25472Y-46472D02*
X27528Y-48528D01*
X6959Y-16703D02*
X23128Y-32873D01*
X32283Y-52913D02*
Y-50440D01*
X26300Y-41143D02*
Y-34916D01*
X27472Y-43972D02*
X31111Y-47611D01*
X8352Y-15311D02*
X25128Y-32087D01*
X28400Y-37374D02*
Y-34233D01*
X29572Y-40202D02*
X32283Y-42913D01*
X9743Y-13919D02*
X27228Y-31405D01*
X11135Y-12527D02*
X30984Y-32375D01*
X28747Y-22914D02*
X32283D01*
X13919Y-9743D02*
X25918Y-21742D01*
X21529Y-12913D02*
X32283D01*
X15311Y-8352D02*
X18701Y-11742D01*
X21600Y-7900D02*
X25640D01*
X28468Y-6728D02*
X32283Y-2913D01*
X18094Y-5568D02*
X19597Y-7070D01*
X26500Y37457D02*
Y45943D01*
X22300Y19780D02*
Y29943D01*
X32283Y55040D02*
Y57086D01*
X27672Y48772D02*
X31111Y52211D01*
X23472Y32772D02*
X25328Y34628D01*
X13920Y9743D02*
X21128Y16952D01*
X28900Y35857D02*
Y42047D01*
X24400Y19097D02*
Y28043D01*
X30072Y44875D02*
X32283Y47087D01*
X25572Y30872D02*
X27728Y33028D01*
X15311Y8351D02*
X23228Y16269D01*
X32283Y35340D02*
Y37086D01*
X27672Y29072D02*
X31111Y32511D01*
X26500Y18413D02*
Y26243D01*
X16704Y6959D02*
X25328Y15584D01*
X29472Y24275D02*
X32283Y27086D01*
X28300Y17429D02*
Y21447D01*
X18095Y5567D02*
X27128Y14601D01*
X32201Y16889D02*
X32202Y16890D01*
X19488Y4175D02*
X32201Y16889D01*
X2761Y20902D02*
X4110Y19553D01*
X13109Y20689D02*
Y21578D01*
Y20688D02*
Y20689D01*
X8352Y15311D02*
X12669Y19628D01*
X13234Y-3489D02*
X16703Y-6959D01*
X705Y-16017D02*
X4175Y-19487D01*
X-12527Y-11135D02*
X-9057Y-7665D01*
X4882Y11841D02*
X8352Y15311D01*
X2098Y14625D02*
X5568Y18095D01*
X-15311Y8352D02*
X-11841Y4882D01*
X-11135Y12527D02*
X-7666Y9057D01*
X-4109Y19553D02*
X-2761Y20901D01*
D28*
X39051Y57087D02*
X38386Y56811D01*
X-38386Y56811D02*
X-39051Y57087D01*
X39051Y-72913D02*
X47244Y-72913D01*
X39051Y57087D02*
X47244D01*
X39051Y-62913D02*
X47244Y-62913D01*
X39051Y-52913D02*
X47244Y-52913D01*
X39051Y-42913D02*
X47244D01*
X39051Y-32913D02*
X47244Y-32913D01*
X39051Y-22913D02*
X47244Y-22913D01*
X39051Y-12913D02*
X47244Y-12913D01*
X39051Y-2913D02*
X47244D01*
X39051Y7087D02*
X47244D01*
X39051Y17087D02*
X47244Y17087D01*
X39051Y27087D02*
X47244D01*
X39051Y37087D02*
X47244Y37087D01*
X39051Y47087D02*
X47244D01*
X-47244D02*
X-39051D01*
X-47244Y37087D02*
X-39051Y37087D01*
X-47244Y27087D02*
X-39051D01*
X-47244Y17087D02*
X-39051Y17087D01*
X-47244Y7087D02*
X-39051Y7087D01*
X-47244Y-2913D02*
X-39051Y-2913D01*
X-47244Y-12913D02*
X-39051Y-12913D01*
X-47244Y-22913D02*
X-39051D01*
X-47244Y-32913D02*
X-39051Y-32913D01*
X-47244Y-42913D02*
X-39051D01*
X-47244Y-52913D02*
X-39051Y-52913D01*
X-47244Y-62913D02*
X-39051D01*
X-47244Y57087D02*
X-39051Y57087D01*
D29*
X4175Y19487D02*
D03*
X5568Y18095D02*
D03*
X6959Y16703D02*
D03*
X8352Y15311D02*
D03*
X9743Y13919D02*
D03*
X11136Y12527D02*
D03*
X12527Y11135D02*
D03*
X13920Y9743D02*
D03*
X15311Y8351D02*
D03*
X16704Y6959D02*
D03*
X18095Y5567D02*
D03*
X19488Y4175D02*
D03*
X-4175Y-19487D02*
D03*
X-5568Y-18095D02*
D03*
X-6959Y-16703D02*
D03*
X-8352Y-15311D02*
D03*
X-9743Y-13919D02*
D03*
X-11136Y-12527D02*
D03*
X-12527Y-11135D02*
D03*
X-13920Y-9743D02*
D03*
X-15311Y-8351D02*
D03*
X-16704Y-6959D02*
D03*
X-18095Y-5567D02*
D03*
X-19488Y-4175D02*
D03*
D30*
X19487Y-4175D02*
D03*
X18094Y-5568D02*
D03*
X16703Y-6959D02*
D03*
X15311Y-8352D02*
D03*
X13919Y-9743D02*
D03*
X12527Y-11135D02*
D03*
X11135Y-12527D02*
D03*
X9743Y-13919D02*
D03*
X8352Y-15311D02*
D03*
X6959Y-16703D02*
D03*
X5568Y-18094D02*
D03*
X4175Y-19487D02*
D03*
X-19487Y4175D02*
D03*
X-18094Y5568D02*
D03*
X-16703Y6959D02*
D03*
X-15311Y8352D02*
D03*
X-13919Y9743D02*
D03*
X-12527Y11135D02*
D03*
X-11135Y12527D02*
D03*
X-9743Y13919D02*
D03*
X-8352Y15311D02*
D03*
X-6959Y16703D02*
D03*
X-5568Y18094D02*
D03*
X-4175Y19487D02*
D03*
D31*
X13109Y21578D02*
D03*
X8654Y26033D02*
D03*
D32*
X32751Y-72913D02*
D03*
X39051Y-72913D02*
D03*
X32283Y-52913D02*
D03*
X38583Y-52913D02*
D03*
X32283Y-42913D02*
D03*
X38583Y-42913D02*
D03*
X32283Y-32914D02*
D03*
X38583Y-32913D02*
D03*
X32283Y-22914D02*
D03*
X38583Y-22913D02*
D03*
X32283Y-12913D02*
D03*
X38583Y-12913D02*
D03*
X32283Y-2913D02*
D03*
X38583Y-2913D02*
D03*
X32283Y7086D02*
D03*
X38583Y7086D02*
D03*
X32283Y17086D02*
D03*
X38583Y17086D02*
D03*
X32283Y27086D02*
D03*
X38583Y27086D02*
D03*
X32283Y37086D02*
D03*
X38583Y37086D02*
D03*
X32283Y47087D02*
D03*
X38583Y47087D02*
D03*
X32283Y57086D02*
D03*
X38583Y57086D02*
D03*
X32751Y-62913D02*
D03*
X39051Y-62913D02*
D03*
X-32283Y-52913D02*
D03*
X-38583Y-52913D02*
D03*
X-32283Y37087D02*
D03*
X-38583Y37087D02*
D03*
X-32283Y-2913D02*
D03*
X-38583Y-2913D02*
D03*
X-32283Y27087D02*
D03*
X-38583Y27087D02*
D03*
X-32283Y-12913D02*
D03*
X-38583Y-12913D02*
D03*
X-32283Y17087D02*
D03*
X-38583Y17087D02*
D03*
X-32283Y-22913D02*
D03*
X-38583Y-22913D02*
D03*
X-32283Y7087D02*
D03*
X-38583Y7087D02*
D03*
X-32283Y57087D02*
D03*
X-38583Y57087D02*
D03*
X-32283Y-32913D02*
D03*
X-38583Y-32913D02*
D03*
X-32283Y-42913D02*
D03*
X-38583Y-42913D02*
D03*
X-32283Y47087D02*
D03*
X-38583Y47087D02*
D03*
Y-62913D02*
D03*
X-32283Y-62913D02*
D03*
D33*
X-11547Y25610D02*
D03*
X-16002Y21155D02*
D03*
X-3109Y34048D02*
D03*
X-7564Y29593D02*
D03*
D34*
X-12599Y53444D02*
D03*
X12599D02*
D03*
D35*
X12598Y44176D02*
D03*
X-12598Y44176D02*
D03*
D36*
X5120Y42008D02*
D03*
X2560Y42008D02*
D03*
X0D02*
D03*
X-2560Y42008D02*
D03*
X-5120Y42008D02*
D03*
D37*
X-47244Y-82913D02*
D03*
Y-72913D02*
D03*
X-47244Y-62913D02*
D03*
X-47244Y-52913D02*
D03*
Y-42913D02*
D03*
Y-32913D02*
D03*
X-47244Y-22913D02*
D03*
X-47244Y-12913D02*
D03*
Y-2913D02*
D03*
Y7087D02*
D03*
Y17087D02*
D03*
X-47244Y27087D02*
D03*
X-47244Y37087D02*
D03*
Y47087D02*
D03*
X47244Y-82913D02*
D03*
X47244Y-72913D02*
D03*
X47244Y-62913D02*
D03*
Y-52913D02*
D03*
X47244Y-42913D02*
D03*
X47244Y-32913D02*
D03*
Y-22913D02*
D03*
Y-12913D02*
D03*
X47244Y-2913D02*
D03*
Y7087D02*
D03*
X47244Y17087D02*
D03*
X47244Y27087D02*
D03*
Y37087D02*
D03*
X47244Y47087D02*
D03*
D38*
X-47244Y57087D02*
D03*
X47244D02*
D03*
D39*
X38631Y33470D02*
D03*
X44536Y21659D02*
D03*
X38631Y-37396D02*
D03*
Y-84640D02*
D03*
X26820D02*
D03*
X15009Y33470D02*
D03*
Y-37396D02*
D03*
X20914Y-49207D02*
D03*
X15009Y-84640D02*
D03*
X3198Y-13774D02*
D03*
X9103Y-25585D02*
D03*
X3198Y-37396D02*
D03*
Y-84640D02*
D03*
X-8614Y-37396D02*
D03*
Y-84640D02*
D03*
X-20425D02*
D03*
X-26330Y45281D02*
D03*
X-32236Y33470D02*
D03*
X-26330Y-25585D02*
D03*
X-32236Y-37396D02*
D03*
Y-84640D02*
D03*
X-38141Y21659D02*
D03*
X-44047Y-37396D02*
D03*
X-38141Y-49207D02*
D03*
X-5700Y49882D02*
D03*
X21654Y0D02*
D03*
X-19685D02*
D03*
X9057Y-7666D02*
D03*
X-14625Y-2098D02*
D03*
X-0Y49882D02*
D03*
X2560Y54819D02*
D03*
X5120Y52819D02*
D03*
Y49882D02*
D03*
X16400Y19200D02*
D03*
Y15800D02*
D03*
X9057Y7665D02*
D03*
X2761Y20902D02*
D03*
X-13605Y17257D02*
D03*
X13234Y-3489D02*
D03*
X705Y-16017D02*
D03*
X-9057Y-7665D02*
D03*
X4882Y11841D02*
D03*
X2098Y14625D02*
D03*
X-11841Y4882D02*
D03*
X-7666Y9057D02*
D03*
X-10217Y20951D02*
D03*
X-5799Y23939D02*
D03*
X-2761Y20901D02*
D03*
X-17137Y16271D02*
D03*
X-17782Y13081D02*
D03*
M02*
