G04*
G04 #@! TF.GenerationSoftware,Altium Limited,Altium Designer,23.2.1 (34)*
G04*
G04 Layer_Color=16711935*
%FSLAX25Y25*%
%MOIN*%
G70*
G04*
G04 #@! TF.SameCoordinates,9329C3C2-16CE-4A0C-8BE9-04AE65E2FBF7*
G04*
G04*
G04 #@! TF.FilePolarity,Negative*
G04*
G01*
G75*
G04:AMPARAMS|DCode=19|XSize=39.37mil|YSize=41.94mil|CornerRadius=5.51mil|HoleSize=0mil|Usage=FLASHONLY|Rotation=270.000|XOffset=0mil|YOffset=0mil|HoleType=Round|Shape=RoundedRectangle|*
%AMROUNDEDRECTD19*
21,1,0.03937,0.03091,0,0,270.0*
21,1,0.02835,0.04194,0,0,270.0*
1,1,0.01102,-0.01546,-0.01417*
1,1,0.01102,-0.01546,0.01417*
1,1,0.01102,0.01546,0.01417*
1,1,0.01102,0.01546,-0.01417*
%
%ADD19ROUNDEDRECTD19*%
G04:AMPARAMS|DCode=20|XSize=39.37mil|YSize=41.94mil|CornerRadius=5.51mil|HoleSize=0mil|Usage=FLASHONLY|Rotation=135.000|XOffset=0mil|YOffset=0mil|HoleType=Round|Shape=RoundedRectangle|*
%AMROUNDEDRECTD20*
21,1,0.03937,0.03091,0,0,135.0*
21,1,0.02835,0.04194,0,0,135.0*
1,1,0.01102,0.00091,0.02095*
1,1,0.01102,0.02095,0.00091*
1,1,0.01102,-0.00091,-0.02095*
1,1,0.01102,-0.02095,-0.00091*
%
%ADD20ROUNDEDRECTD20*%
%ADD24C,0.06706*%
%ADD25R,0.06706X0.06706*%
%ADD26C,0.00800*%
G04:AMPARAMS|DCode=56|XSize=73.94mil|YSize=63.94mil|CornerRadius=4.97mil|HoleSize=0mil|Usage=FLASHONLY|Rotation=270.000|XOffset=0mil|YOffset=0mil|HoleType=Round|Shape=RoundedRectangle|*
%AMROUNDEDRECTD56*
21,1,0.07394,0.05400,0,0,270.0*
21,1,0.06400,0.06394,0,0,270.0*
1,1,0.00994,-0.02700,-0.03200*
1,1,0.00994,-0.02700,0.03200*
1,1,0.00994,0.02700,0.03200*
1,1,0.00994,0.02700,-0.03200*
%
%ADD56ROUNDEDRECTD56*%
G04:AMPARAMS|DCode=57|XSize=34.94mil|YSize=41.94mil|CornerRadius=9.72mil|HoleSize=0mil|Usage=FLASHONLY|Rotation=135.000|XOffset=0mil|YOffset=0mil|HoleType=Round|Shape=RoundedRectangle|*
%AMROUNDEDRECTD57*
21,1,0.03494,0.02250,0,0,135.0*
21,1,0.01550,0.04194,0,0,135.0*
1,1,0.01944,0.00248,0.01344*
1,1,0.01944,0.01344,0.00248*
1,1,0.01944,-0.00248,-0.01344*
1,1,0.01944,-0.01344,-0.00248*
%
%ADD57ROUNDEDRECTD57*%
G04:AMPARAMS|DCode=58|XSize=34.94mil|YSize=41.94mil|CornerRadius=9.72mil|HoleSize=0mil|Usage=FLASHONLY|Rotation=90.000|XOffset=0mil|YOffset=0mil|HoleType=Round|Shape=RoundedRectangle|*
%AMROUNDEDRECTD58*
21,1,0.03494,0.02250,0,0,90.0*
21,1,0.01550,0.04194,0,0,90.0*
1,1,0.01944,0.01125,0.00775*
1,1,0.01944,0.01125,-0.00775*
1,1,0.01944,-0.01125,-0.00775*
1,1,0.01944,-0.01125,0.00775*
%
%ADD58ROUNDEDRECTD58*%
G04:AMPARAMS|DCode=59|XSize=23.94mil|YSize=28.94mil|CornerRadius=6.97mil|HoleSize=0mil|Usage=FLASHONLY|Rotation=0.000|XOffset=0mil|YOffset=0mil|HoleType=Round|Shape=RoundedRectangle|*
%AMROUNDEDRECTD59*
21,1,0.02394,0.01500,0,0,0.0*
21,1,0.01000,0.02894,0,0,0.0*
1,1,0.01394,0.00500,-0.00750*
1,1,0.01394,-0.00500,-0.00750*
1,1,0.01394,-0.00500,0.00750*
1,1,0.01394,0.00500,0.00750*
%
%ADD59ROUNDEDRECTD59*%
G04:AMPARAMS|DCode=60|XSize=51.18mil|YSize=59.06mil|CornerRadius=11.42mil|HoleSize=0mil|Usage=FLASHONLY|Rotation=180.000|XOffset=0mil|YOffset=0mil|HoleType=Round|Shape=RoundedRectangle|*
%AMROUNDEDRECTD60*
21,1,0.05118,0.03622,0,0,180.0*
21,1,0.02835,0.05906,0,0,180.0*
1,1,0.02284,-0.01417,0.01811*
1,1,0.02284,0.01417,0.01811*
1,1,0.02284,0.01417,-0.01811*
1,1,0.02284,-0.01417,-0.01811*
%
%ADD60ROUNDEDRECTD60*%
%ADD61R,0.05118X0.05906*%
G04:AMPARAMS|DCode=62|XSize=34.94mil|YSize=41.94mil|CornerRadius=9.72mil|HoleSize=0mil|Usage=FLASHONLY|Rotation=180.000|XOffset=0mil|YOffset=0mil|HoleType=Round|Shape=RoundedRectangle|*
%AMROUNDEDRECTD62*
21,1,0.03494,0.02250,0,0,180.0*
21,1,0.01550,0.04194,0,0,180.0*
1,1,0.01944,-0.00775,0.01125*
1,1,0.01944,0.00775,0.01125*
1,1,0.01944,0.00775,-0.01125*
1,1,0.01944,-0.00775,-0.01125*
%
%ADD62ROUNDEDRECTD62*%
%ADD63R,0.10642X0.06706*%
G04:AMPARAMS|DCode=64|XSize=106.42mil|YSize=67.06mil|CornerRadius=6.95mil|HoleSize=0mil|Usage=FLASHONLY|Rotation=0.000|XOffset=0mil|YOffset=0mil|HoleType=Round|Shape=RoundedRectangle|*
%AMROUNDEDRECTD64*
21,1,0.10642,0.05315,0,0,0.0*
21,1,0.09252,0.06706,0,0,0.0*
1,1,0.01391,0.04626,-0.02657*
1,1,0.01391,-0.04626,-0.02657*
1,1,0.01391,-0.04626,0.02657*
1,1,0.01391,0.04626,0.02657*
%
%ADD64ROUNDEDRECTD64*%
G04:AMPARAMS|DCode=65|XSize=283.59mil|YSize=283.59mil|CornerRadius=17.78mil|HoleSize=0mil|Usage=FLASHONLY|Rotation=0.000|XOffset=0mil|YOffset=0mil|HoleType=Round|Shape=RoundedRectangle|*
%AMROUNDEDRECTD65*
21,1,0.28359,0.24803,0,0,0.0*
21,1,0.24803,0.28359,0,0,0.0*
1,1,0.03556,0.12402,-0.12402*
1,1,0.03556,-0.12402,-0.12402*
1,1,0.03556,-0.12402,0.12402*
1,1,0.03556,0.12402,0.12402*
%
%ADD65ROUNDEDRECTD65*%
G04:AMPARAMS|DCode=66|XSize=39.37mil|YSize=41.94mil|CornerRadius=5.51mil|HoleSize=0mil|Usage=FLASHONLY|Rotation=0.000|XOffset=0mil|YOffset=0mil|HoleType=Round|Shape=RoundedRectangle|*
%AMROUNDEDRECTD66*
21,1,0.03937,0.03091,0,0,0.0*
21,1,0.02835,0.04194,0,0,0.0*
1,1,0.01102,0.01417,-0.01546*
1,1,0.01102,-0.01417,-0.01546*
1,1,0.01102,-0.01417,0.01546*
1,1,0.01102,0.01417,0.01546*
%
%ADD66ROUNDEDRECTD66*%
G04:AMPARAMS|DCode=67|XSize=23.94mil|YSize=28.94mil|CornerRadius=6.97mil|HoleSize=0mil|Usage=FLASHONLY|Rotation=90.000|XOffset=0mil|YOffset=0mil|HoleType=Round|Shape=RoundedRectangle|*
%AMROUNDEDRECTD67*
21,1,0.02394,0.01500,0,0,90.0*
21,1,0.01000,0.02894,0,0,90.0*
1,1,0.01394,0.00750,0.00500*
1,1,0.01394,0.00750,-0.00500*
1,1,0.01394,-0.00750,-0.00500*
1,1,0.01394,-0.00750,0.00500*
%
%ADD67ROUNDEDRECTD67*%
%ADD68R,0.06693X0.02165*%
%ADD69O,0.06693X0.02165*%
D19*
X9843Y40326D02*
D03*
X3543Y40326D02*
D03*
D20*
X-13620Y10193D02*
D03*
X-9165Y14648D02*
D03*
D24*
X-47244Y-82913D02*
D03*
Y-72913D02*
D03*
X-47244Y-62913D02*
D03*
X-47244Y-52913D02*
D03*
Y-42913D02*
D03*
Y-32913D02*
D03*
X-47244Y-22913D02*
D03*
X-47244Y-12913D02*
D03*
Y-2913D02*
D03*
Y7087D02*
D03*
Y17087D02*
D03*
X-47244Y27087D02*
D03*
X-47244Y37087D02*
D03*
Y47087D02*
D03*
X47244Y-82913D02*
D03*
X47244Y-72913D02*
D03*
X47244Y-62913D02*
D03*
Y-52913D02*
D03*
X47244Y-42913D02*
D03*
X47244Y-32913D02*
D03*
Y-22913D02*
D03*
Y-12913D02*
D03*
X47244Y-2913D02*
D03*
Y7087D02*
D03*
X47244Y17087D02*
D03*
X47244Y27087D02*
D03*
Y37087D02*
D03*
X47244Y47087D02*
D03*
D25*
X-47244Y57087D02*
D03*
X47244D02*
D03*
D26*
X-7873Y44978D02*
D03*
X7875Y44978D02*
D03*
D56*
X-6205Y-47146D02*
D03*
X-18205Y-47146D02*
D03*
X22807Y51288D02*
D03*
X10807Y51288D02*
D03*
D57*
X10427Y-373D02*
D03*
X5973Y-4827D02*
D03*
X-9307Y2062D02*
D03*
X-4852Y6516D02*
D03*
D58*
X15357Y11100D02*
D03*
X9057D02*
D03*
X8675Y-48601D02*
D03*
X2375D02*
D03*
D59*
X20564Y7580D02*
D03*
Y11517D02*
D03*
X20564Y15480D02*
D03*
Y19417D02*
D03*
D60*
X31614Y9818D02*
D03*
Y18479D02*
D03*
X25315Y18479D02*
D03*
D61*
X25315Y9818D02*
D03*
D62*
X26941Y-68701D02*
D03*
X26941Y-75001D02*
D03*
X26211Y34576D02*
D03*
Y28276D02*
D03*
D63*
X18150Y-57001D02*
D03*
D64*
Y-75001D02*
D03*
D65*
X-9016Y-66001D02*
D03*
D66*
X-5799Y34576D02*
D03*
X-5799Y28276D02*
D03*
X-17137D02*
D03*
X-17137Y21976D02*
D03*
X-23700Y28276D02*
D03*
X-23700Y21976D02*
D03*
D67*
X5120Y57087D02*
D03*
X9057Y57087D02*
D03*
D68*
X3544Y27475D02*
D03*
D69*
X3544Y30034D02*
D03*
X3543Y32593D02*
D03*
Y35152D02*
D03*
X20079Y27475D02*
D03*
X20079Y30034D02*
D03*
Y32593D02*
D03*
Y35152D02*
D03*
M02*
