M48
INCH
T01C00.010
T02C00.126
%
M70
T01
X02440Y06339
X04938Y07103
X04938Y07158
X05016Y07103
X05016Y07158
X05040Y06528
X05095Y06906
X05095Y07103
X05095Y07158
X05174Y07103
X05174Y07158
X05213Y03221
X05253Y07103
X05253Y07158
X05331Y07103
X05331Y07158
X05410Y07103
X05410Y07158
X07908Y06339
T02
X01985Y02756
X01985Y07205
X08363Y02756
X08363Y07205
M30
