G04 GENERATED BY PULSONIX 7.0 GERBER.DLL 4573*
%INHILLSTAR_140X90_EL_V1_0*%
%LNGERBER_BOTTOM*%
%FSLAX33Y33*%
%IPPOS*%
%LPD*%
%OFA0B0*%
%MOMM*%
%ADD15C,0.125*%
%ADD145C,0.400*%
%ADD146C,0.250*%
%ADD180C,0.600*%
%ADD345C,0.150*%
%ADD403R,0.600X1.900*%
%ADD410R,2.700X3.600*%
%ADD5672R,0.900X2.500*%
X0Y0D02*
D02*
D15*
X207538Y68049D02*
X207391Y67975D01*
X207318Y67828*
X207391Y67681*
X207538Y67608*
X208053*
Y68490*
X207538*
X207391Y68416*
X207318Y68269*
X207391Y68122*
X207538Y68049*
X208053*
X207041Y67902D02*
X207041Y68196D01*
X206967Y68343*
X206894Y68416*
X206747Y68490*
X206599*
X206452Y68416*
X206379Y68343*
X206305Y68196*
Y67902*
X206379Y67755*
X206452Y67681*
X206599Y67608*
X206747*
X206894Y67681*
X206967Y67755*
X207041Y67902*
X205660Y67608D02*
X205660Y68490D01*
X206028D02*
X205293Y68490D01*
D02*
D145*
X131416Y167562D02*
Y166962D01*
Y169062D02*
Y169662D01*
Y180062D02*
Y179462D01*
Y182162D02*
Y182762D01*
D02*
D146*
X48116Y178912D02*
Y74012D01*
X50416*
G75*
G02X54416Y70012J-4000*
G01*
Y67712*
X204341*
Y69112*
X208416*
Y70012*
G75*
G02X212416Y74012I4000*
G01*
X214716*
Y179012*
X212416*
G75*
G02X208416Y183012J4000*
G01*
Y185312*
X54416*
Y183012*
G75*
G02X50416Y179012I-4000*
G01*
X48216*
G75*
G03X48116Y178912J-100*
G01*
X62469Y160562D02*
G75*
G02X61291Y161012I-503J450D01*
G01*
G75*
G02X62469Y161462I675*
G01*
X67416*
Y163847*
G75*
G02X69416Y165847I2000*
G01*
X127342*
G75*
G02X127566Y166315I674J-35*
G01*
Y167912*
G75*
G02X127697Y168230I449J1*
G01*
X127741Y168273*
Y169262*
G75*
G02X127966Y169606I375*
G01*
Y172326*
X127391Y172901*
Y169312*
G75*
G02X126766Y168687I-625*
G01*
X124066*
G75*
G02X123441Y169312J625*
G01*
Y172912*
G75*
G02X124066Y173537I625*
G01*
X126754*
X125069Y175222*
G75*
G02X124938Y175540I318J317*
G01*
Y179488*
G75*
G02X124591Y179862I28J374*
G01*
Y182362*
G75*
G02X124966Y182737I375*
G01*
X125866*
G75*
G02X126241Y182362J-375*
G01*
Y179862*
G75*
G02X125866Y179487I-375*
G01*
X125838*
Y175726*
X128734Y172830*
G75*
G02X128866Y172512I-318J-318*
G01*
Y169606*
G75*
G02X128916Y169579I-153J-344*
G01*
G75*
G02X128966Y169606I203J-317*
G01*
Y173326*
X127097Y175194*
G75*
G02X126966Y175512I318J317*
G01*
Y179487*
G75*
G02X126591Y179862J375*
G01*
Y182362*
G75*
G02X126966Y182737I375*
G01*
X127866*
G75*
G02X128241Y182362J-375*
G01*
Y179862*
G75*
G02X127866Y179487I-375*
G01*
Y175698*
X129734Y173830*
G75*
G02X129866Y173512I-318J-318*
G01*
Y169606*
G75*
G02X129916Y169579I-153J-344*
G01*
G75*
G02X129966Y169606I203J-317*
G01*
Y174226*
X129453Y174738*
G75*
G02X128966Y175915I-37J674*
G01*
Y179487*
G75*
G02X128591Y179862J375*
G01*
Y182362*
G75*
G02X128966Y182737I375*
G01*
X129866*
G75*
G02X130241Y182362J-375*
G01*
Y179862*
G75*
G02X129866Y179487I-375*
G01*
Y175915*
G75*
G02X130090Y175374I-450J-503*
G01*
X130734Y174730*
G75*
G02X130866Y174412I-318J-318*
G01*
Y169606*
G75*
G02X130959Y169547I-151J-341*
G01*
G75*
G02X131116Y169587I157J-286*
G01*
X131716*
G75*
G02X131872Y169547J-325*
G01*
G75*
G02X131958Y169602I243J-286*
G01*
Y174512*
G75*
G02X132092Y174836I458*
G01*
X132958Y175702*
Y179487*
G75*
G02X132591Y179862I8J375*
G01*
Y182362*
G75*
G02X132966Y182737I375*
G01*
X133866*
G75*
G02X134241Y182362J-375*
G01*
Y179862*
G75*
G02X133874Y179487I-375*
G01*
Y175512*
G75*
G02X133739Y175188I-459J1*
G01*
X132874Y174322*
Y169602*
G75*
G02X132916Y169579I-159J-340*
G01*
G75*
G02X132966Y169606I203J-317*
G01*
Y173512*
G75*
G02X133097Y173830I449J1*
G01*
X134966Y175698*
Y179487*
G75*
G02X134591Y179862J375*
G01*
Y182362*
G75*
G02X134966Y182737I375*
G01*
X135866*
G75*
G02X136241Y182362J-375*
G01*
Y179862*
G75*
G02X135866Y179487I-375*
G01*
Y175512*
G75*
G02X135734Y175194I-450*
G01*
X133866Y173326*
Y169606*
G75*
G02X133959Y169547I-151J-341*
G01*
G75*
G02X134116Y169587I157J-286*
G01*
X134716*
G75*
G02X135041Y169262J-325*
G01*
Y167362*
G75*
G02X134716Y167037I-325*
G01*
X134116*
G75*
G02X133959Y167077J326*
G01*
G75*
G02X133866Y167018I-244J282*
G01*
Y165847*
X193416*
G75*
G02X195416Y163847J-2000*
G01*
Y161462*
X200363*
G75*
G02X201541Y161012I503J-450*
G01*
G75*
G02X200363Y160562I-675*
G01*
X195416*
Y89177*
G75*
G02X193416Y87177I-2000*
G01*
X132874*
Y82308*
G75*
G02X133091Y81812I-458J-496*
G01*
G75*
G02X131741I-675*
G01*
G75*
G02X131958Y82308I675*
G01*
Y87177*
X69416*
G75*
G02X67416Y89177J2000*
G01*
Y160562*
X62469*
X130641Y179862D02*
Y182362D01*
G75*
G02X130966Y182687I325*
G01*
X131866*
G75*
G02X132191Y182362J-325*
G01*
Y179862*
G75*
G02X131866Y179537I-325*
G01*
X130966*
G75*
G02X130641Y179862J325*
G01*
X136641D02*
Y182362D01*
G75*
G02X136966Y182687I325*
G01*
X137866*
G75*
G02X138191Y182362J-325*
G01*
Y179862*
G75*
G02X137866Y179537I-325*
G01*
X136966*
G75*
G02X136641Y179862J325*
G01*
X139391Y169312D02*
G75*
G02X138766Y168687I-625D01*
G01*
X136066*
G75*
G02X135441Y169312J625*
G01*
Y172912*
G75*
G02X136066Y173537I625*
G01*
X138766*
G75*
G02X139391Y172912J-625*
G01*
Y169312*
X54416Y69679D02*
X208416D01*
X53859Y72047D02*
X208972D01*
X48116Y74415D02*
X214716D01*
X48116Y76783D02*
X214716D01*
X48116Y79151D02*
X214716D01*
X48116Y81519D02*
X131807D01*
X133024D02*
X214716D01*
X48116Y83887D02*
X131958D01*
X132874D02*
X214716D01*
X48116Y86255D02*
X131958D01*
X132874D02*
X214716D01*
X48116Y88624D02*
X67494D01*
X195338D02*
X214716D01*
X48116Y90992D02*
X67416D01*
X195416D02*
X214716D01*
X48116Y93360D02*
X67416D01*
X195416D02*
X214716D01*
X48116Y95728D02*
X67416D01*
X195416D02*
X214716D01*
X48116Y98096D02*
X67416D01*
X195416D02*
X214716D01*
X48116Y100464D02*
X67416D01*
X195416D02*
X214716D01*
X48116Y102832D02*
X67416D01*
X195416D02*
X214716D01*
X48116Y105200D02*
X67416D01*
X195416D02*
X214716D01*
X48116Y107568D02*
X67416D01*
X195416D02*
X214716D01*
X48116Y109936D02*
X67416D01*
X195416D02*
X214716D01*
X48116Y112304D02*
X67416D01*
X195416D02*
X214716D01*
X48116Y114672D02*
X67416D01*
X195416D02*
X214716D01*
X48116Y117040D02*
X67416D01*
X195416D02*
X214716D01*
X48116Y119408D02*
X67416D01*
X195416D02*
X214716D01*
X48116Y121776D02*
X67416D01*
X195416D02*
X214716D01*
X48116Y124144D02*
X67416D01*
X195416D02*
X214716D01*
X48116Y126512D02*
X67416D01*
X195416D02*
X214716D01*
X48116Y128880D02*
X67416D01*
X195416D02*
X214716D01*
X48116Y131248D02*
X67416D01*
X195416D02*
X214716D01*
X48116Y133616D02*
X67416D01*
X195416D02*
X214716D01*
X48116Y135984D02*
X67416D01*
X195416D02*
X214716D01*
X48116Y138352D02*
X67416D01*
X195416D02*
X214716D01*
X48116Y140720D02*
X67416D01*
X195416D02*
X214716D01*
X48116Y143088D02*
X67416D01*
X195416D02*
X214716D01*
X48116Y145456D02*
X67416D01*
X195416D02*
X214716D01*
X48116Y147824D02*
X67416D01*
X195416D02*
X214716D01*
X48116Y150192D02*
X67416D01*
X195416D02*
X214716D01*
X48116Y152560D02*
X67416D01*
X195416D02*
X214716D01*
X48116Y154928D02*
X67416D01*
X195416D02*
X214716D01*
X48116Y157296D02*
X67416D01*
X195416D02*
X214716D01*
X48116Y159664D02*
X67416D01*
X195416D02*
X214716D01*
X48116Y162032D02*
X67416D01*
X195416D02*
X214716D01*
X48116Y164400D02*
X67494D01*
X195338D02*
X214716D01*
X48116Y166769D02*
X127566D01*
X133866D02*
X214716D01*
X48116Y169137D02*
X123466D01*
X127366D02*
X127741D01*
X135041D02*
X135466D01*
X139366D02*
X214716D01*
X48116Y171505D02*
X123441D01*
X127391D02*
X127966D01*
X128866D02*
X128966D01*
X129866D02*
X129966D01*
X130866D02*
X131958D01*
X132874D02*
X132966D01*
X133866D02*
X135441D01*
X139391D02*
X214716D01*
X48116Y173873D02*
X126419D01*
X127691D02*
X128419D01*
X129691D02*
X129966D01*
X130866D02*
X131958D01*
X132874D02*
X133140D01*
X134413D02*
X214716D01*
X48116Y176241D02*
X124938D01*
X125838D02*
X126966D01*
X127866D02*
X128966D01*
X129866D02*
X132958D01*
X133874D02*
X134966D01*
X135866D02*
X214716D01*
X48116Y178609D02*
X124938D01*
X125838D02*
X126966D01*
X127866D02*
X128966D01*
X129866D02*
X132958D01*
X133874D02*
X134966D01*
X135866D02*
X214716D01*
X53859Y180977D02*
X124591D01*
X126241D02*
X126591D01*
X128241D02*
X128591D01*
X130241D02*
X130641D01*
X132191D02*
X132591D01*
X134241D02*
X134591D01*
X136241D02*
X136641D01*
X138191D02*
X208972D01*
X54416Y183345D02*
X208416D01*
X50903Y73982D02*
Y179042D01*
X53271Y72814D02*
Y180210D01*
X55639Y67712D02*
Y185312D01*
X58007Y67712D02*
Y185312D01*
X60375Y67712D02*
Y185312D01*
X62743Y67712D02*
Y160562D01*
Y161462D02*
Y185312D01*
X65111Y67712D02*
Y160562D01*
Y161462D02*
Y185312D01*
X67479Y67712D02*
Y88678D01*
Y164346D02*
Y185312D01*
X69847Y67712D02*
Y87177D01*
Y165847D02*
Y185312D01*
X72215Y67712D02*
Y87177D01*
Y165847D02*
Y185312D01*
X74583Y67712D02*
Y87177D01*
Y165847D02*
Y185312D01*
X76951Y67712D02*
Y87177D01*
Y165847D02*
Y185312D01*
X79319Y67712D02*
Y87177D01*
Y165847D02*
Y185312D01*
X81687Y67712D02*
Y87177D01*
Y165847D02*
Y185312D01*
X84055Y67712D02*
Y87177D01*
Y165847D02*
Y185312D01*
X86423Y67712D02*
Y87177D01*
Y165847D02*
Y185312D01*
X88791Y67712D02*
Y87177D01*
Y165847D02*
Y185312D01*
X91159Y67712D02*
Y87177D01*
Y165847D02*
Y185312D01*
X93527Y67712D02*
Y87177D01*
Y165847D02*
Y185312D01*
X95895Y67712D02*
Y87177D01*
Y165847D02*
Y185312D01*
X98263Y67712D02*
Y87177D01*
Y165847D02*
Y185312D01*
X100631Y67712D02*
Y87177D01*
Y165847D02*
Y185312D01*
X102999Y67712D02*
Y87177D01*
Y165847D02*
Y185312D01*
X105367Y67712D02*
Y87177D01*
Y165847D02*
Y185312D01*
X107735Y67712D02*
Y87177D01*
Y165847D02*
Y185312D01*
X110103Y67712D02*
Y87177D01*
Y165847D02*
Y185312D01*
X112471Y67712D02*
Y87177D01*
Y165847D02*
Y185312D01*
X114839Y67712D02*
Y87177D01*
Y165847D02*
Y185312D01*
X117207Y67712D02*
Y87177D01*
Y165847D02*
Y185312D01*
X119575Y67712D02*
Y87177D01*
Y165847D02*
Y185312D01*
X121944Y67712D02*
Y87177D01*
Y165847D02*
Y185312D01*
X124312Y67712D02*
Y87177D01*
Y165847D02*
Y168687D01*
Y173537D02*
Y185312D01*
X126680Y67712D02*
Y87177D01*
Y165847D02*
Y168687D01*
Y173537D02*
Y173612D01*
Y174884D02*
Y179620D01*
Y182604D02*
Y185312D01*
X129048Y67712D02*
Y87177D01*
Y174516D02*
Y174846D01*
Y182737D02*
Y185312D01*
X131416Y67712D02*
Y87177D01*
Y169587D02*
Y179537D01*
Y182687D02*
Y185312D01*
X133784Y67712D02*
Y87177D01*
Y174516D02*
Y175239D01*
Y182737D02*
Y185312D01*
X136152Y67712D02*
Y87177D01*
Y165847D02*
Y168687D01*
Y173537D02*
Y179620D01*
Y182604D02*
Y185312D01*
X138520Y67712D02*
Y87177D01*
Y165847D02*
Y168687D01*
Y173537D02*
Y185312D01*
X140888Y67712D02*
Y87177D01*
Y165847D02*
Y185312D01*
X143256Y67712D02*
Y87177D01*
Y165847D02*
Y185312D01*
X145624Y67712D02*
Y87177D01*
Y165847D02*
Y185312D01*
X147992Y67712D02*
Y87177D01*
Y165847D02*
Y185312D01*
X150360Y67712D02*
Y87177D01*
Y165847D02*
Y185312D01*
X152728Y67712D02*
Y87177D01*
Y165847D02*
Y185312D01*
X155096Y67712D02*
Y87177D01*
Y165847D02*
Y185312D01*
X157464Y67712D02*
Y87177D01*
Y165847D02*
Y185312D01*
X159832Y67712D02*
Y87177D01*
Y165847D02*
Y185312D01*
X162200Y67712D02*
Y87177D01*
Y165847D02*
Y185312D01*
X164568Y67712D02*
Y87177D01*
Y165847D02*
Y185312D01*
X166936Y67712D02*
Y87177D01*
Y165847D02*
Y185312D01*
X169304Y67712D02*
Y87177D01*
Y165847D02*
Y185312D01*
X171672Y67712D02*
Y87177D01*
Y165847D02*
Y185312D01*
X174040Y67712D02*
Y87177D01*
Y165847D02*
Y185312D01*
X176408Y67712D02*
Y87177D01*
Y165847D02*
Y185312D01*
X178776Y67712D02*
Y87177D01*
Y165847D02*
Y185312D01*
X181144Y67712D02*
Y87177D01*
Y165847D02*
Y185312D01*
X183512Y67712D02*
Y87177D01*
Y165847D02*
Y185312D01*
X185880Y67712D02*
Y87177D01*
Y165847D02*
Y185312D01*
X188248Y67712D02*
Y87177D01*
Y165847D02*
Y185312D01*
X190616Y67712D02*
Y87177D01*
Y165847D02*
Y185312D01*
X192984Y67712D02*
Y87177D01*
Y165847D02*
Y185312D01*
X195352Y67712D02*
Y88678D01*
Y164346D02*
Y185312D01*
X197720Y67712D02*
Y160562D01*
Y161462D02*
Y185312D01*
X200089Y67712D02*
Y160562D01*
Y161462D02*
Y185312D01*
X202457Y67712D02*
Y185312D01*
X204825Y69112D02*
Y185312D01*
X207193Y69112D02*
Y185312D01*
X209561Y72814D02*
Y180210D01*
X211929Y73982D02*
Y179042D01*
X214297Y74012D02*
Y179012D01*
X67416Y160562D02*
Y89177D01*
G75*
G03X69416Y87177I2000*
G01*
X131958*
Y167022*
G75*
G02X131872Y167077I157J341*
G01*
G75*
G02X131716Y167037I-156J285*
G01*
X131116*
G75*
G02X130959Y167077J326*
G01*
G75*
G02X130716Y166987I-243J284*
G01*
X130116*
G75*
G02X129916Y167045J375*
G01*
G75*
G02X129866Y167018I-203J317*
G01*
Y162612*
G75*
G02X129734Y162294I-450*
G01*
X128134Y160694*
G75*
G02X127816Y160562I-318J318*
G01*
X67416*
X68885Y87249D02*
X131958D01*
X67729Y88102D02*
X131958D01*
X67428Y88956D02*
X131958D01*
X67416Y89809D02*
X131958D01*
X67416Y90663D02*
X131958D01*
X67416Y91516D02*
X131958D01*
X67416Y92370D02*
X131958D01*
X67416Y93224D02*
X131958D01*
X67416Y94077D02*
X131958D01*
X67416Y94931D02*
X131958D01*
X67416Y95784D02*
X131958D01*
X67416Y96638D02*
X131958D01*
X67416Y97491D02*
X131958D01*
X67416Y98345D02*
X131958D01*
X67416Y99198D02*
X131958D01*
X67416Y100052D02*
X131958D01*
X67416Y100906D02*
X131958D01*
X67416Y101759D02*
X131958D01*
X67416Y102613D02*
X131958D01*
X67416Y103466D02*
X131958D01*
X67416Y104320D02*
X131958D01*
X67416Y105173D02*
X131958D01*
X67416Y106027D02*
X131958D01*
X67416Y106880D02*
X131958D01*
X67416Y107734D02*
X131958D01*
X67416Y108587D02*
X131958D01*
X67416Y109441D02*
X131958D01*
X67416Y110295D02*
X131958D01*
X67416Y111148D02*
X131958D01*
X67416Y112002D02*
X131958D01*
X67416Y112855D02*
X131958D01*
X67416Y113709D02*
X131958D01*
X67416Y114562D02*
X131958D01*
X67416Y115416D02*
X131958D01*
X67416Y116269D02*
X131958D01*
X67416Y117123D02*
X131958D01*
X67416Y117977D02*
X131958D01*
X67416Y118830D02*
X131958D01*
X67416Y119684D02*
X131958D01*
X67416Y120537D02*
X131958D01*
X67416Y121391D02*
X131958D01*
X67416Y122244D02*
X131958D01*
X67416Y123098D02*
X131958D01*
X67416Y123951D02*
X131958D01*
X67416Y124805D02*
X131958D01*
X67416Y125658D02*
X131958D01*
X67416Y126512D02*
X131958D01*
X67416Y127366D02*
X131958D01*
X67416Y128219D02*
X131958D01*
X67416Y129073D02*
X131958D01*
X67416Y129926D02*
X131958D01*
X67416Y130780D02*
X131958D01*
X67416Y131633D02*
X131958D01*
X67416Y132487D02*
X131958D01*
X67416Y133340D02*
X131958D01*
X67416Y134194D02*
X131958D01*
X67416Y135048D02*
X131958D01*
X67416Y135901D02*
X131958D01*
X67416Y136755D02*
X131958D01*
X67416Y137608D02*
X131958D01*
X67416Y138462D02*
X131958D01*
X67416Y139315D02*
X131958D01*
X67416Y140169D02*
X131958D01*
X67416Y141022D02*
X131958D01*
X67416Y141876D02*
X131958D01*
X67416Y142729D02*
X131958D01*
X67416Y143583D02*
X131958D01*
X67416Y144437D02*
X131958D01*
X67416Y145290D02*
X131958D01*
X67416Y146144D02*
X131958D01*
X67416Y146997D02*
X131958D01*
X67416Y147851D02*
X131958D01*
X67416Y148704D02*
X131958D01*
X67416Y149558D02*
X131958D01*
X67416Y150411D02*
X131958D01*
X67416Y151265D02*
X131958D01*
X67416Y152119D02*
X131958D01*
X67416Y152972D02*
X131958D01*
X67416Y153826D02*
X131958D01*
X67416Y154679D02*
X131958D01*
X67416Y155533D02*
X131958D01*
X67416Y156386D02*
X131958D01*
X67416Y157240D02*
X131958D01*
X67416Y158093D02*
X131958D01*
X67416Y158947D02*
X131958D01*
X67416Y159800D02*
X131958D01*
X128088Y160654D02*
X131958D01*
X128948Y161508D02*
X131958D01*
X129789Y162361D02*
X131958D01*
X129866Y163215D02*
X131958D01*
X129866Y164068D02*
X131958D01*
X129866Y164922D02*
X131958D01*
X129866Y165775D02*
X131958D01*
X129866Y166629D02*
X131958D01*
X68253Y87550D02*
Y160562D01*
X69106Y87201D02*
Y160562D01*
X69960Y87177D02*
Y160562D01*
X70814Y87177D02*
Y160562D01*
X71667Y87177D02*
Y160562D01*
X72521Y87177D02*
Y160562D01*
X73374Y87177D02*
Y160562D01*
X74228Y87177D02*
Y160562D01*
X75081Y87177D02*
Y160562D01*
X75935Y87177D02*
Y160562D01*
X76788Y87177D02*
Y160562D01*
X77642Y87177D02*
Y160562D01*
X78496Y87177D02*
Y160562D01*
X79349Y87177D02*
Y160562D01*
X80203Y87177D02*
Y160562D01*
X81056Y87177D02*
Y160562D01*
X81910Y87177D02*
Y160562D01*
X82763Y87177D02*
Y160562D01*
X83617Y87177D02*
Y160562D01*
X84470Y87177D02*
Y160562D01*
X85324Y87177D02*
Y160562D01*
X86177Y87177D02*
Y160562D01*
X87031Y87177D02*
Y160562D01*
X87885Y87177D02*
Y160562D01*
X88738Y87177D02*
Y160562D01*
X89592Y87177D02*
Y160562D01*
X90445Y87177D02*
Y160562D01*
X91299Y87177D02*
Y160562D01*
X92152Y87177D02*
Y160562D01*
X93006Y87177D02*
Y160562D01*
X93859Y87177D02*
Y160562D01*
X94713Y87177D02*
Y160562D01*
X95567Y87177D02*
Y160562D01*
X96420Y87177D02*
Y160562D01*
X97274Y87177D02*
Y160562D01*
X98127Y87177D02*
Y160562D01*
X98981Y87177D02*
Y160562D01*
X99834Y87177D02*
Y160562D01*
X100688Y87177D02*
Y160562D01*
X101541Y87177D02*
Y160562D01*
X102395Y87177D02*
Y160562D01*
X103248Y87177D02*
Y160562D01*
X104102Y87177D02*
Y160562D01*
X104956Y87177D02*
Y160562D01*
X105809Y87177D02*
Y160562D01*
X106663Y87177D02*
Y160562D01*
X107516Y87177D02*
Y160562D01*
X108370Y87177D02*
Y160562D01*
X109223Y87177D02*
Y160562D01*
X110077Y87177D02*
Y160562D01*
X110930Y87177D02*
Y160562D01*
X111784Y87177D02*
Y160562D01*
X112638Y87177D02*
Y160562D01*
X113491Y87177D02*
Y160562D01*
X114345Y87177D02*
Y160562D01*
X115198Y87177D02*
Y160562D01*
X116052Y87177D02*
Y160562D01*
X116905Y87177D02*
Y160562D01*
X117759Y87177D02*
Y160562D01*
X118612Y87177D02*
Y160562D01*
X119466Y87177D02*
Y160562D01*
X120319Y87177D02*
Y160562D01*
X121173Y87177D02*
Y160562D01*
X122027Y87177D02*
Y160562D01*
X122880Y87177D02*
Y160562D01*
X123734Y87177D02*
Y160562D01*
X124587Y87177D02*
Y160562D01*
X125441Y87177D02*
Y160562D01*
X126294Y87177D02*
Y160562D01*
X127148Y87177D02*
Y160562D01*
X128001Y87177D02*
Y160602D01*
X128855Y87177D02*
Y161415D01*
X129709Y87177D02*
Y162269D01*
X130562Y87177D02*
Y166987D01*
X131416Y87177D02*
Y167037D01*
X67416Y161462D02*
X127629D01*
X128966Y162798*
Y167018*
G75*
G02X128916Y167045I153J344*
G01*
G75*
G02X128716Y166987I-200J317*
G01*
X128466*
Y166315*
G75*
G02X128691Y165812I-450J-503*
G01*
G75*
G02X127341I-675*
G01*
G75*
G02X127342Y165847I675J-2*
G01*
X69416*
G75*
G03X67416Y163847J-2000*
G01*
Y161462*
Y161508D02*
X127675D01*
X67416Y162361D02*
X128528D01*
X67416Y163215D02*
X128966D01*
X67428Y164068D02*
X128966D01*
X67729Y164922D02*
X128966D01*
X68885Y165775D02*
X127342D01*
X128690D02*
X128966D01*
X128466Y166629D02*
X128966D01*
X68253Y161462D02*
Y165474D01*
X69106Y161462D02*
Y165823D01*
X69960Y161462D02*
Y165847D01*
X70814Y161462D02*
Y165847D01*
X71667Y161462D02*
Y165847D01*
X72521Y161462D02*
Y165847D01*
X73374Y161462D02*
Y165847D01*
X74228Y161462D02*
Y165847D01*
X75081Y161462D02*
Y165847D01*
X75935Y161462D02*
Y165847D01*
X76788Y161462D02*
Y165847D01*
X77642Y161462D02*
Y165847D01*
X78496Y161462D02*
Y165847D01*
X79349Y161462D02*
Y165847D01*
X80203Y161462D02*
Y165847D01*
X81056Y161462D02*
Y165847D01*
X81910Y161462D02*
Y165847D01*
X82763Y161462D02*
Y165847D01*
X83617Y161462D02*
Y165847D01*
X84470Y161462D02*
Y165847D01*
X85324Y161462D02*
Y165847D01*
X86177Y161462D02*
Y165847D01*
X87031Y161462D02*
Y165847D01*
X87885Y161462D02*
Y165847D01*
X88738Y161462D02*
Y165847D01*
X89592Y161462D02*
Y165847D01*
X90445Y161462D02*
Y165847D01*
X91299Y161462D02*
Y165847D01*
X92152Y161462D02*
Y165847D01*
X93006Y161462D02*
Y165847D01*
X93859Y161462D02*
Y165847D01*
X94713Y161462D02*
Y165847D01*
X95567Y161462D02*
Y165847D01*
X96420Y161462D02*
Y165847D01*
X97274Y161462D02*
Y165847D01*
X98127Y161462D02*
Y165847D01*
X98981Y161462D02*
Y165847D01*
X99834Y161462D02*
Y165847D01*
X100688Y161462D02*
Y165847D01*
X101541Y161462D02*
Y165847D01*
X102395Y161462D02*
Y165847D01*
X103248Y161462D02*
Y165847D01*
X104102Y161462D02*
Y165847D01*
X104956Y161462D02*
Y165847D01*
X105809Y161462D02*
Y165847D01*
X106663Y161462D02*
Y165847D01*
X107516Y161462D02*
Y165847D01*
X108370Y161462D02*
Y165847D01*
X109223Y161462D02*
Y165847D01*
X110077Y161462D02*
Y165847D01*
X110930Y161462D02*
Y165847D01*
X111784Y161462D02*
Y165847D01*
X112638Y161462D02*
Y165847D01*
X113491Y161462D02*
Y165847D01*
X114345Y161462D02*
Y165847D01*
X115198Y161462D02*
Y165847D01*
X116052Y161462D02*
Y165847D01*
X116905Y161462D02*
Y165847D01*
X117759Y161462D02*
Y165847D01*
X118612Y161462D02*
Y165847D01*
X119466Y161462D02*
Y165847D01*
X120319Y161462D02*
Y165847D01*
X121173Y161462D02*
Y165847D01*
X122027Y161462D02*
Y165847D01*
X122880Y161462D02*
Y165847D01*
X123734Y161462D02*
Y165847D01*
X124587Y161462D02*
Y165847D01*
X125441Y161462D02*
Y165847D01*
X126294Y161462D02*
Y165847D01*
X127148Y161462D02*
Y165847D01*
X128001Y161834D02*
Y165137D01*
X128855Y162688D02*
Y167014D01*
X132874Y87177D02*
X193416D01*
G75*
G03X195416Y89177J2000*
G01*
Y160562*
X135016*
G75*
G02X134697Y160694J451*
G01*
X133097Y162294*
G75*
G02X132966Y162612I318J317*
G01*
Y167018*
G75*
G02X132916Y167045I153J344*
G01*
G75*
G02X132874Y167022I-201J317*
G01*
Y87177*
Y87249D02*
X193946D01*
X132874Y88102D02*
X195102D01*
X132874Y88956D02*
X195403D01*
X132874Y89809D02*
X195416D01*
X132874Y90663D02*
X195416D01*
X132874Y91516D02*
X195416D01*
X132874Y92370D02*
X195416D01*
X132874Y93224D02*
X195416D01*
X132874Y94077D02*
X195416D01*
X132874Y94931D02*
X195416D01*
X132874Y95784D02*
X195416D01*
X132874Y96638D02*
X195416D01*
X132874Y97491D02*
X195416D01*
X132874Y98345D02*
X195416D01*
X132874Y99198D02*
X195416D01*
X132874Y100052D02*
X195416D01*
X132874Y100906D02*
X195416D01*
X132874Y101759D02*
X195416D01*
X132874Y102613D02*
X195416D01*
X132874Y103466D02*
X195416D01*
X132874Y104320D02*
X195416D01*
X132874Y105173D02*
X195416D01*
X132874Y106027D02*
X195416D01*
X132874Y106880D02*
X195416D01*
X132874Y107734D02*
X195416D01*
X132874Y108587D02*
X195416D01*
X132874Y109441D02*
X195416D01*
X132874Y110295D02*
X195416D01*
X132874Y111148D02*
X195416D01*
X132874Y112002D02*
X195416D01*
X132874Y112855D02*
X195416D01*
X132874Y113709D02*
X195416D01*
X132874Y114562D02*
X195416D01*
X132874Y115416D02*
X195416D01*
X132874Y116269D02*
X195416D01*
X132874Y117123D02*
X195416D01*
X132874Y117977D02*
X195416D01*
X132874Y118830D02*
X195416D01*
X132874Y119684D02*
X195416D01*
X132874Y120537D02*
X195416D01*
X132874Y121391D02*
X195416D01*
X132874Y122244D02*
X195416D01*
X132874Y123098D02*
X195416D01*
X132874Y123951D02*
X195416D01*
X132874Y124805D02*
X195416D01*
X132874Y125658D02*
X195416D01*
X132874Y126512D02*
X195416D01*
X132874Y127366D02*
X195416D01*
X132874Y128219D02*
X195416D01*
X132874Y129073D02*
X195416D01*
X132874Y129926D02*
X195416D01*
X132874Y130780D02*
X195416D01*
X132874Y131633D02*
X195416D01*
X132874Y132487D02*
X195416D01*
X132874Y133340D02*
X195416D01*
X132874Y134194D02*
X195416D01*
X132874Y135048D02*
X195416D01*
X132874Y135901D02*
X195416D01*
X132874Y136755D02*
X195416D01*
X132874Y137608D02*
X195416D01*
X132874Y138462D02*
X195416D01*
X132874Y139315D02*
X195416D01*
X132874Y140169D02*
X195416D01*
X132874Y141022D02*
X195416D01*
X132874Y141876D02*
X195416D01*
X132874Y142729D02*
X195416D01*
X132874Y143583D02*
X195416D01*
X132874Y144437D02*
X195416D01*
X132874Y145290D02*
X195416D01*
X132874Y146144D02*
X195416D01*
X132874Y146997D02*
X195416D01*
X132874Y147851D02*
X195416D01*
X132874Y148704D02*
X195416D01*
X132874Y149558D02*
X195416D01*
X132874Y150411D02*
X195416D01*
X132874Y151265D02*
X195416D01*
X132874Y152119D02*
X195416D01*
X132874Y152972D02*
X195416D01*
X132874Y153826D02*
X195416D01*
X132874Y154679D02*
X195416D01*
X132874Y155533D02*
X195416D01*
X132874Y156386D02*
X195416D01*
X132874Y157240D02*
X195416D01*
X132874Y158093D02*
X195416D01*
X132874Y158947D02*
X195416D01*
X132874Y159800D02*
X195416D01*
X132874Y160654D02*
X134743D01*
X132874Y161508D02*
X133884D01*
X132874Y162361D02*
X133042D01*
X132874Y163215D02*
X132966D01*
X132874Y164068D02*
X132966D01*
X132874Y164922D02*
X132966D01*
X132874Y165775D02*
X132966D01*
X132874Y166629D02*
X132966D01*
X133123Y87177D02*
Y162269D01*
X133976Y87177D02*
Y161415D01*
X134830Y87177D02*
Y160602D01*
X135683Y87177D02*
Y160562D01*
X136537Y87177D02*
Y160562D01*
X137390Y87177D02*
Y160562D01*
X138244Y87177D02*
Y160562D01*
X139098Y87177D02*
Y160562D01*
X139951Y87177D02*
Y160562D01*
X140805Y87177D02*
Y160562D01*
X141658Y87177D02*
Y160562D01*
X142512Y87177D02*
Y160562D01*
X143365Y87177D02*
Y160562D01*
X144219Y87177D02*
Y160562D01*
X145072Y87177D02*
Y160562D01*
X145926Y87177D02*
Y160562D01*
X146780Y87177D02*
Y160562D01*
X147633Y87177D02*
Y160562D01*
X148487Y87177D02*
Y160562D01*
X149340Y87177D02*
Y160562D01*
X150194Y87177D02*
Y160562D01*
X151047Y87177D02*
Y160562D01*
X151901Y87177D02*
Y160562D01*
X152754Y87177D02*
Y160562D01*
X153608Y87177D02*
Y160562D01*
X154461Y87177D02*
Y160562D01*
X155315Y87177D02*
Y160562D01*
X156169Y87177D02*
Y160562D01*
X157022Y87177D02*
Y160562D01*
X157876Y87177D02*
Y160562D01*
X158729Y87177D02*
Y160562D01*
X159583Y87177D02*
Y160562D01*
X160436Y87177D02*
Y160562D01*
X161290Y87177D02*
Y160562D01*
X162143Y87177D02*
Y160562D01*
X162997Y87177D02*
Y160562D01*
X163851Y87177D02*
Y160562D01*
X164704Y87177D02*
Y160562D01*
X165558Y87177D02*
Y160562D01*
X166411Y87177D02*
Y160562D01*
X167265Y87177D02*
Y160562D01*
X168118Y87177D02*
Y160562D01*
X168972Y87177D02*
Y160562D01*
X169825Y87177D02*
Y160562D01*
X170679Y87177D02*
Y160562D01*
X171532Y87177D02*
Y160562D01*
X172386Y87177D02*
Y160562D01*
X173240Y87177D02*
Y160562D01*
X174093Y87177D02*
Y160562D01*
X174947Y87177D02*
Y160562D01*
X175800Y87177D02*
Y160562D01*
X176654Y87177D02*
Y160562D01*
X177507Y87177D02*
Y160562D01*
X178361Y87177D02*
Y160562D01*
X179214Y87177D02*
Y160562D01*
X180068Y87177D02*
Y160562D01*
X180922Y87177D02*
Y160562D01*
X181775Y87177D02*
Y160562D01*
X182629Y87177D02*
Y160562D01*
X183482Y87177D02*
Y160562D01*
X184336Y87177D02*
Y160562D01*
X185189Y87177D02*
Y160562D01*
X186043Y87177D02*
Y160562D01*
X186896Y87177D02*
Y160562D01*
X187750Y87177D02*
Y160562D01*
X188603Y87177D02*
Y160562D01*
X189457Y87177D02*
Y160562D01*
X190311Y87177D02*
Y160562D01*
X191164Y87177D02*
Y160562D01*
X192018Y87177D02*
Y160562D01*
X192871Y87177D02*
Y160562D01*
X193725Y87201D02*
Y160562D01*
X194578Y87550D02*
Y160562D01*
X133866Y165847D02*
Y162798D01*
X135202Y161462*
X195416*
Y163847*
G75*
G03X193416Y165847I-2000*
G01*
X133866*
X135156Y161508D02*
X195416D01*
X134303Y162361D02*
X195416D01*
X133866Y163215D02*
X195416D01*
X133866Y164068D02*
X195403D01*
X133866Y164922D02*
X195102D01*
X133866Y165775D02*
X193946D01*
X133976Y162688D02*
Y165847D01*
X134830Y161834D02*
Y165847D01*
X135683Y161462D02*
Y165847D01*
X136537Y161462D02*
Y165847D01*
X137390Y161462D02*
Y165847D01*
X138244Y161462D02*
Y165847D01*
X139098Y161462D02*
Y165847D01*
X139951Y161462D02*
Y165847D01*
X140805Y161462D02*
Y165847D01*
X141658Y161462D02*
Y165847D01*
X142512Y161462D02*
Y165847D01*
X143365Y161462D02*
Y165847D01*
X144219Y161462D02*
Y165847D01*
X145072Y161462D02*
Y165847D01*
X145926Y161462D02*
Y165847D01*
X146780Y161462D02*
Y165847D01*
X147633Y161462D02*
Y165847D01*
X148487Y161462D02*
Y165847D01*
X149340Y161462D02*
Y165847D01*
X150194Y161462D02*
Y165847D01*
X151047Y161462D02*
Y165847D01*
X151901Y161462D02*
Y165847D01*
X152754Y161462D02*
Y165847D01*
X153608Y161462D02*
Y165847D01*
X154461Y161462D02*
Y165847D01*
X155315Y161462D02*
Y165847D01*
X156169Y161462D02*
Y165847D01*
X157022Y161462D02*
Y165847D01*
X157876Y161462D02*
Y165847D01*
X158729Y161462D02*
Y165847D01*
X159583Y161462D02*
Y165847D01*
X160436Y161462D02*
Y165847D01*
X161290Y161462D02*
Y165847D01*
X162143Y161462D02*
Y165847D01*
X162997Y161462D02*
Y165847D01*
X163851Y161462D02*
Y165847D01*
X164704Y161462D02*
Y165847D01*
X165558Y161462D02*
Y165847D01*
X166411Y161462D02*
Y165847D01*
X167265Y161462D02*
Y165847D01*
X168118Y161462D02*
Y165847D01*
X168972Y161462D02*
Y165847D01*
X169825Y161462D02*
Y165847D01*
X170679Y161462D02*
Y165847D01*
X171532Y161462D02*
Y165847D01*
X172386Y161462D02*
Y165847D01*
X173240Y161462D02*
Y165847D01*
X174093Y161462D02*
Y165847D01*
X174947Y161462D02*
Y165847D01*
X175800Y161462D02*
Y165847D01*
X176654Y161462D02*
Y165847D01*
X177507Y161462D02*
Y165847D01*
X178361Y161462D02*
Y165847D01*
X179214Y161462D02*
Y165847D01*
X180068Y161462D02*
Y165847D01*
X180922Y161462D02*
Y165847D01*
X181775Y161462D02*
Y165847D01*
X182629Y161462D02*
Y165847D01*
X183482Y161462D02*
Y165847D01*
X184336Y161462D02*
Y165847D01*
X185189Y161462D02*
Y165847D01*
X186043Y161462D02*
Y165847D01*
X186896Y161462D02*
Y165847D01*
X187750Y161462D02*
Y165847D01*
X188603Y161462D02*
Y165847D01*
X189457Y161462D02*
Y165847D01*
X190311Y161462D02*
Y165847D01*
X191164Y161462D02*
Y165847D01*
X192018Y161462D02*
Y165847D01*
X192871Y161462D02*
Y165847D01*
X193725Y161462D02*
Y165823D01*
X194578Y161462D02*
Y165474D01*
D02*
D180*
X61966Y161012D03*
X125416Y180412D03*
Y181812D03*
X127416Y180412D03*
Y181812D03*
X128016Y165812D03*
X129416Y175412D03*
Y180412D03*
Y181812D03*
X131416Y180412D03*
Y181812D03*
X132416Y81812D03*
X133416Y180412D03*
Y181812D03*
X135416Y180412D03*
Y181812D03*
X137416Y180412D03*
Y181812D03*
X200866Y161012D03*
D02*
D345*
X61966D02*
X127816D01*
X129416Y162612*
Y173512*
X127416Y175512*
Y180412*
X125416D02*
X125388D01*
Y175540*
X128416Y172512*
Y168312*
X128016Y167912*
Y165812*
X129416Y175412D02*
Y180412D01*
Y175412D02*
X130416Y174412D01*
Y168312*
X132416D02*
Y81812D01*
Y168312D02*
Y174512D01*
X133416Y175512*
Y180412*
Y168312D02*
Y162612D01*
X135016Y161012*
X200866*
X133416Y168312D02*
Y173512D01*
X135416Y175512*
Y180412*
D02*
D403*
X128416Y168312D03*
X129416D03*
X130416D03*
X131416D03*
X132416D03*
X133416D03*
X134416D03*
D02*
D410*
X125416Y171112D03*
X137416D03*
D02*
D5672*
X125416Y181112D03*
X127416D03*
X129416D03*
X131416D03*
X133416D03*
X135416D03*
X137416D03*
X0Y0D02*
M02*
